# Blender 5.1.2
# www.blender.org
mtllib  pirate hook painted attempt 222.mtl
o Pirate_Hook
v -1.602643 -0.845857 -0.376587
v -1.175366 -0.863569 -0.376060
v -1.171083 -0.714961 -0.520687
v -1.598535 -0.703319 -0.515308
v -1.179509 0.052068 -0.510730
v -1.606601 0.030903 -0.505777
v -1.613799 0.169669 -0.363404
v -1.187015 0.196742 -0.362295
v -0.961726 -0.872425 -0.375794
v -0.743631 -0.726601 -0.526067
v -0.748087 -0.881282 -0.375530
v -0.957356 -0.720781 -0.523377
v -0.752417 0.073230 -0.515684
v -0.965963 0.062649 -0.513208
v -0.973620 0.210279 -0.361739
v -0.760228 0.223817 -0.361183
v -1.613799 0.169669 -0.363404
v -1.187015 0.196742 -0.362295
v -1.643308 0.159821 0.370266
v -1.217842 0.186453 0.404157
v -0.973620 0.210279 -0.361739
v -0.760228 0.223817 -0.361183
v -0.792374 0.213088 0.438045
v -1.005107 0.199771 0.421101
v -0.698407 -0.798008 -0.311893
v -0.743631 -0.726601 -0.526067
v -0.694624 -0.666710 -0.439673
v -0.702082 0.012207 -0.430859
v -0.748087 -0.881282 -0.375530
v -0.752417 0.073230 -0.515684
v -0.780234 -0.892011 0.423699
v -0.760228 0.223817 -0.361183
v -0.725694 -0.807114 0.366513
v -0.708713 0.140029 -0.299716
v -0.732325 -0.679292 0.497656
v -0.735999 0.130923 0.378690
v -0.788046 -0.741424 0.578200
v -0.792374 0.213088 0.438045
v -0.796832 0.058406 0.588583
v -0.739783 -0.000375 0.506470
v -0.725694 -0.807114 0.366513
v -0.698407 -0.798008 -0.311893
v -1.065021 -0.337182 0.019360
v -0.694624 -0.666710 -0.439673
v -0.732325 -0.679292 0.497656
v -0.702082 0.012207 -0.430859
v -0.739783 -0.000375 0.506470
v -0.708713 0.140029 -0.299716
v -0.735999 0.130923 0.378690
v -1.632153 -0.855706 0.357082
v -1.206194 -0.873857 0.390392
v -1.213699 -0.729183 0.538826
v -1.639351 -0.716941 0.499455
v -1.647416 0.017283 0.508987
v -1.222125 0.037845 0.548783
v -1.643308 0.159821 0.370266
v -1.217842 0.186453 0.404157
v -0.993214 -0.882934 0.407045
v -0.780234 -0.892011 0.423699
v -0.788046 -0.741424 0.578200
v -1.000871 -0.735304 0.558513
v -1.009478 0.048126 0.568684
v -0.792374 0.213088 0.438045
v -0.796832 0.058406 0.588583
v -1.005107 0.199771 0.421101
v -1.632153 -0.855706 0.357082
v -1.602643 -0.845857 -0.376587
v -1.175366 -0.863569 -0.376060
v -1.206194 -0.873857 0.390392
v -0.961726 -0.872425 -0.375794
v -0.748087 -0.881282 -0.375530
v -0.993214 -0.882934 0.407045
v -0.780234 -0.892011 0.423699
v -1.701442 0.099698 0.342285
v -1.673927 0.108881 -0.341802
v -1.660999 -0.679936 -0.457614
v -1.668519 0.004666 -0.448726
v -1.664084 -0.786985 -0.353434
v -1.691600 -0.796168 0.330655
v -1.697006 -0.691954 0.437578
v -1.704527 -0.007351 0.446466
v -1.602643 -0.845857 -0.376587
v -1.660999 -0.679936 -0.457614
v -1.598535 -0.703319 -0.515308
v -1.668519 0.004666 -0.448726
v -1.664084 -0.786985 -0.353434
v -1.606601 0.030903 -0.505777
v -1.632153 -0.855706 0.357082
v -1.673927 0.108881 -0.341802
v -1.691600 -0.796168 0.330655
v -1.613799 0.169669 -0.363404
v -1.639351 -0.716941 0.499455
v -1.701442 0.099698 0.342285
v -1.697006 -0.691954 0.437578
v -1.643308 0.159821 0.370266
v -1.647416 0.017283 0.508987
v -1.704527 -0.007351 0.446466
v -0.961559 -0.872401 -0.375837
v -1.175200 -0.863545 -0.376101
v -1.186847 0.196767 -0.362335
v -1.170917 -0.714937 -0.520728
v -0.973452 0.210303 -0.361780
v -0.957188 -0.720756 -0.523418
v -1.179343 0.052093 -0.510771
v -0.965795 0.062674 -0.513248
v -1.004940 0.199795 0.421060
v -1.217675 0.186479 0.404115
v -1.186847 0.196767 -0.362335
v -0.973452 0.210303 -0.361780
v -1.221957 0.037870 0.548743
v -1.213531 -0.729159 0.538785
v -1.000703 -0.735279 0.558472
v -0.993046 -0.882909 0.407004
v -1.009311 0.048150 0.568643
v -1.206028 -0.873832 0.390350
v -1.004940 0.199795 0.421060
v -1.217675 0.186479 0.404115
v -0.993046 -0.882909 0.407004
v -1.206028 -0.873832 0.390350
v -0.961559 -0.872401 -0.375837
v -1.175200 -0.863545 -0.376101
v -1.817399 -0.197860 -0.009778
v -1.663952 -0.213568 -0.003820
v -1.809845 -0.343314 -0.159027
v -1.969705 -0.306268 -0.165536
v -1.909294 -0.175999 -0.013178
v -2.046929 -0.107292 -0.017786
v -2.120687 -0.216092 -0.158496
v -2.185212 -0.026120 -0.022253
v -2.255032 -0.124751 -0.151742
v -2.360372 0.057693 -0.028168
v -2.414146 -0.051131 -0.157148
v -2.573096 0.115572 -0.035941
v -2.573904 -0.007831 -0.162988
v -2.748565 -0.030206 -0.170312
v -2.806176 0.081776 -0.045766
v -2.914183 -0.123062 -0.165183
v -2.989074 -0.037193 -0.054724
v -3.127134 -0.211232 -0.062622
v -3.035253 -0.260404 -0.161033
v -3.197749 -0.411066 -0.068151
v -3.100369 -0.433649 -0.161200
v -3.080775 -0.625373 -0.148569
v -3.158321 -0.661466 -0.069940
v -2.962233 -0.789300 -0.130565
v -3.000303 -0.846726 -0.066084
v -2.854985 -0.910047 -0.061093
v -2.830377 -0.872926 -0.102777
v -1.809845 -0.343314 -0.159027
v -1.661075 -0.473802 -0.007210
v -1.814140 -0.492737 -0.013620
v -1.657287 -0.341934 -0.135533
v -1.969705 -0.306268 -0.165536
v -2.042009 -0.440519 -0.022078
v -2.205384 -0.328558 -0.027139
v -2.120687 -0.216092 -0.158496
v -2.334915 -0.226752 -0.030976
v -2.255032 -0.124751 -0.151742
v -2.414146 -0.051131 -0.157148
v -2.477984 -0.163325 -0.035873
v -2.573904 -0.007831 -0.162988
v -2.584773 -0.134609 -0.039781
v -2.701014 -0.145557 -0.044599
v -2.748565 -0.030206 -0.170312
v -2.848314 -0.211953 -0.051420
v -2.914183 -0.123062 -0.165183
v -2.951512 -0.312303 -0.056919
v -3.035253 -0.260404 -0.161033
v -3.100369 -0.433649 -0.161200
v -3.010742 -0.458830 -0.061279
v -3.009811 -0.591485 -0.063025
v -3.080775 -0.625373 -0.148569
v -2.929530 -0.733672 -0.061715
v -2.962233 -0.789300 -0.130565
v -2.809231 -0.836965 -0.058268
v -2.830377 -0.872926 -0.102777
v -2.736952 -0.910692 -0.056356
v -1.663952 -0.213568 -0.003820
v -1.809845 -0.343314 -0.159027
v -1.657287 -0.341934 -0.135533
v -2.573096 0.115572 -0.035941
v -2.573904 -0.007831 -0.162988
v -2.748565 -0.030206 -0.170312
v -2.806176 0.081776 -0.045766
v -2.573096 0.115572 -0.035941
v -2.583965 -0.011202 0.087267
v -2.758623 -0.033576 0.079944
v -2.806176 0.081776 -0.045766
v -3.108122 -0.436247 0.031772
v -3.010742 -0.458830 -0.061279
v -3.009811 -0.591485 -0.063025
v -3.087373 -0.627584 0.015599
v -3.100369 -0.433649 -0.161200
v -3.010742 -0.458830 -0.061279
v -3.009811 -0.591485 -0.063025
v -3.080775 -0.625373 -0.148569
v -1.981600 -0.310252 0.130279
v -1.817399 -0.197860 -0.009778
v -1.909294 -0.175999 -0.013178
v -2.046929 -0.107292 -0.017786
v -1.821693 -0.347285 0.135629
v -1.663952 -0.213568 -0.003820
v -1.667741 -0.345436 0.124504
v -2.131626 -0.219756 0.113570
v -2.185212 -0.026120 -0.022253
v -2.265094 -0.128121 0.098514
v -2.360372 0.057693 -0.028168
v -2.424209 -0.054503 0.093107
v -2.573096 0.115572 -0.035941
v -2.583965 -0.011202 0.087267
v -2.758623 -0.033576 0.079944
v -2.806176 0.081776 -0.045766
v -2.923203 -0.126086 0.059038
v -2.989074 -0.037193 -0.054724
v -3.127134 -0.211232 -0.062622
v -3.043392 -0.263131 0.041490
v -3.197749 -0.411066 -0.068151
v -3.108122 -0.436247 0.031772
v -3.087373 -0.627584 0.015599
v -3.158321 -0.661466 -0.069940
v -2.967600 -0.791099 0.002766
v -3.000303 -0.846726 -0.066084
v -2.854985 -0.910047 -0.061093
v -2.833838 -0.874086 -0.016586
v -1.821693 -0.347285 0.135629
v -1.814140 -0.492737 -0.013620
v -1.661075 -0.473802 -0.007210
v -1.981600 -0.310252 0.130279
v -2.042009 -0.440519 -0.022078
v -2.205384 -0.328558 -0.027139
v -2.131626 -0.219756 0.113570
v -2.334915 -0.226752 -0.030976
v -2.265094 -0.128121 0.098514
v -2.424209 -0.054503 0.093107
v -2.477984 -0.163325 -0.035873
v -2.583965 -0.011202 0.087267
v -2.584773 -0.134609 -0.039781
v -2.701014 -0.145557 -0.044599
v -2.758623 -0.033576 0.079944
v -2.848314 -0.211953 -0.051420
v -2.923203 -0.126086 0.059038
v -2.951512 -0.312303 -0.056919
v -3.043392 -0.263131 0.041490
v -3.108122 -0.436247 0.031772
v -3.010742 -0.458830 -0.061279
v -3.009811 -0.591485 -0.063025
v -3.087373 -0.627584 0.015599
v -2.929530 -0.733672 -0.061715
v -2.967600 -0.791099 0.002766
v -2.809231 -0.836965 -0.058268
v -2.833838 -0.874086 -0.016586
v -2.736952 -0.910692 -0.056356
v -2.854985 -0.910047 -0.061093
v -2.830377 -0.872926 -0.102777
v -2.736952 -0.910692 -0.056356
v -2.854985 -0.910047 -0.061093
v -2.833838 -0.874086 -0.016586
v -2.736952 -0.910692 -0.056356
v -1.821693 -0.347285 0.135629
v -1.814140 -0.492737 -0.013620
v -1.661075 -0.473802 -0.007210
v -1.667741 -0.345436 0.124504
v -1.981600 -0.310252 0.130279
v -2.042009 -0.440519 -0.022078
v -2.583965 -0.011202 0.087267
v -2.584773 -0.134609 -0.039781
v -2.701014 -0.145557 -0.044599
v -2.758623 -0.033576 0.079944
v -1.814140 -0.492737 -0.013620
v -1.969705 -0.306268 -0.165536
v -2.042009 -0.440519 -0.022078
v -2.573904 -0.007831 -0.162988
v -2.584773 -0.134609 -0.039781
v -2.701014 -0.145557 -0.044599
v -2.748565 -0.030206 -0.170312
v -3.197749 -0.411066 -0.068151
v -3.100369 -0.433649 -0.161200
v -3.080775 -0.625373 -0.148569
v -3.158321 -0.661466 -0.069940
v -3.197749 -0.411066 -0.068151
v -3.108122 -0.436247 0.031772
v -3.087373 -0.627584 0.015599
v -3.158321 -0.661466 -0.069940
vn -0.0338 -0.9190 -0.3928
vn -0.0246 -0.3738 -0.9272
vn -0.0422 -0.9161 -0.3987
vn -0.0260 -0.3667 -0.9300
vn -0.0284 0.3982 -0.9169
vn -0.0309 0.3862 -0.9219
vn -0.0559 0.9267 -0.3717
vn -0.0337 -0.9190 -0.3928
vn -0.0283 0.3982 -0.9169
vn -0.0871 0.9152 0.3935
vn -0.0852 0.9196 0.3836
vn 0.8880 -0.4436 -0.1209
vn 0.9048 -0.1791 -0.3864
vn 0.8984 -0.1320 -0.4189
vn 0.8959 0.1670 -0.4117
vn 0.8958 -0.4122 -0.1661
vn 0.8998 0.2084 -0.3833
vn 0.8818 -0.4161 0.2220
vn 0.8885 0.4329 -0.1523
vn 0.8788 -0.4422 0.1795
vn 0.8813 0.4600 -0.1082
vn 0.8626 -0.1454 0.4845
vn 0.8666 0.4612 0.1907
vn 0.8702 -0.1933 0.4532
vn 0.8738 0.4258 0.2349
vn 0.8673 0.1941 0.4584
vn 0.8591 0.1512 0.4890
vn 0.8557 0.4865 -0.1763
vn 0.8361 0.4830 0.2602
vn 0.9989 0.0096 0.0455
vn 0.8287 0.2188 0.5152
vn 0.8703 0.2305 -0.4353
vn 0.8369 -0.2140 0.5038
vn 0.8740 -0.2003 -0.4426
vn 0.8492 -0.4690 0.2425
vn 0.8658 -0.4641 -0.1869
vn -0.0940 -0.3952 0.9138
vn -0.0688 -0.9303 0.3602
vn -0.0667 -0.9263 0.3708
vn -0.1033 0.3667 0.9246
vn -0.1045 0.3738 0.9216
vn -0.0852 0.9195 0.3837
vn -0.0666 -0.9263 0.3708
vn -0.1033 0.3668 0.9246
vn -0.0688 -0.9304 0.3601
vn -0.0422 -0.9161 -0.3986
vn -0.0667 -0.9264 0.3707
vn -0.0666 -0.9264 0.3707
vn -0.9992 -0.0083 -0.0383
vn -0.9992 -0.0082 -0.0383
vn -0.7199 -0.6281 -0.2954
vn -0.7025 -0.2599 -0.6625
vn -0.7025 -0.2598 -0.6625
vn -0.7130 0.2624 -0.6502
vn -0.7130 0.2625 -0.6502
vn -0.7381 -0.6369 0.2226
vn -0.7310 0.6223 -0.2799
vn -0.7381 -0.6369 0.2225
vn -0.7557 -0.2764 0.5937
vn -0.7533 0.6139 0.2357
vn -0.7533 0.6140 0.2357
vn -0.7636 0.2448 0.5975
vn 0.1515 0.7129 -0.6847
vn 0.1018 0.7144 -0.6923
vn 0.1445 0.7113 -0.6879
vn 0.2745 0.6761 -0.6838
vn 0.2659 0.6796 -0.6837
vn 0.3667 0.6317 -0.6830
vn 0.3669 0.6316 -0.6830
vn 0.3634 0.6356 -0.6811
vn 0.3571 0.6348 -0.6852
vn 0.2746 0.6761 -0.6837
vn 0.2727 0.6807 -0.6799
vn 0.0758 0.7159 -0.6941
vn -0.4456 0.5301 -0.7214
vn -0.2196 0.6681 -0.7109
vn -0.2128 0.6746 -0.7069
vn -0.5919 0.3521 -0.7251
vn -0.5880 0.3560 -0.7263
vn -0.6760 0.0827 -0.7322
vn -0.6799 0.0657 -0.7304
vn -0.4082 -0.5471 -0.7308
vn -0.6186 -0.2879 -0.7311
vn -0.6252 -0.2801 -0.7285
vn -0.3894 -0.5610 -0.7305
vn -0.1431 -0.6989 -0.7008
vn -0.1308 -0.7023 -0.6997
vn -0.0160 -0.6976 -0.7163
vn 0.1132 -0.6957 -0.7094
vn -0.0057 -0.6952 -0.7188
vn -0.2479 -0.6428 -0.7248
vn -0.2479 -0.6427 -0.7248
vn -0.2559 -0.6359 -0.7281
vn -0.3893 -0.5610 -0.7305
vn -0.3363 -0.5999 -0.7260
vn -0.3437 -0.5926 -0.7285
vn -0.2151 -0.6586 -0.7211
vn -0.2070 -0.6651 -0.7175
vn -0.0230 -0.6972 -0.7165
vn 0.4312 -0.5706 -0.6989
vn 0.2258 -0.6755 -0.7019
vn 0.2109 -0.6772 -0.7050
vn 0.4313 -0.5706 -0.6989
vn 0.6120 -0.3873 -0.6896
vn 0.6121 -0.3807 -0.6931
vn 0.7266 -0.1318 -0.6743
vn 0.7306 -0.1137 -0.6733
vn 0.5848 0.4547 -0.6717
vn 0.7152 0.2080 -0.6673
vn 0.7188 0.1911 -0.6684
vn 0.5726 0.4695 -0.6721
vn 0.5121 0.5317 -0.6746
vn 0.5120 0.5317 -0.6746
vn 0.5399 0.5135 -0.6670
vn -0.2127 0.6746 -0.7069
vn 0.0757 0.7159 -0.6941
vn -0.2195 0.6682 -0.7109
vn 0.0159 0.6976 0.7163
vn -0.2655 0.6545 0.7079
vn -0.2817 0.6492 0.7066
vn 0.6664 -0.1497 0.7304
vn 0.6617 0.1792 0.7280
vn 0.6711 -0.1327 0.7294
vn 0.6610 0.1868 0.7268
vn 0.7188 0.1910 -0.6684
vn 0.7255 -0.1313 -0.6756
vn 0.7306 -0.1136 -0.6733
vn 0.7152 0.2079 -0.6673
vn 0.2151 0.6586 0.7211
vn 0.0948 0.6932 0.7145
vn 0.2090 0.6598 0.7218
vn 0.3064 0.6123 0.7289
vn 0.0882 0.6939 0.7146
vn 0.0417 0.6941 0.7187
vn 0.3118 0.6110 0.7276
vn 0.3042 0.6181 0.7249
vn 0.3041 0.6181 0.7249
vn 0.2194 0.6607 0.7178
vn 0.0160 0.6976 0.7163
vn -0.2818 0.6491 0.7066
vn -0.5014 0.5153 0.6950
vn -0.6478 0.3309 0.6862
vn -0.6477 0.3309 0.6863
vn -0.7335 0.0642 0.6767
vn -0.7356 0.0471 0.6758
vn -0.6732 -0.3079 0.6724
vn -0.4694 -0.5672 0.6767
vn -0.6798 -0.2988 0.6698
vn -0.4435 -0.5793 0.6839
vn -0.1980 -0.7141 0.6715
vn -0.1863 -0.7201 0.6684
vn -0.0758 -0.7159 0.6941
vn -0.0569 -0.7189 0.6928
vn 0.0606 -0.7122 0.6993
vn -0.3071 -0.6594 0.6862
vn -0.4496 -0.5798 0.6795
vn -0.3184 -0.6520 0.6881
vn -0.3887 -0.6158 0.6854
vn -0.3995 -0.6077 0.6863
vn -0.2727 -0.6807 0.6800
vn -0.2630 -0.6830 0.6815
vn -0.0829 -0.7178 0.6913
vn 0.1687 -0.6936 0.7004
vn 0.3728 -0.5963 0.7109
vn 0.1581 -0.6930 0.7034
vn 0.5552 -0.4016 0.7284
vn 0.6711 -0.1328 0.7294
vn 0.6610 0.1869 0.7268
vn 0.5296 0.4363 0.7274
vn 0.6617 0.1792 0.7281
vn 0.5168 0.4507 0.7279
vn 0.4572 0.5141 0.7257
vn 0.4823 0.4935 0.7238
vn -0.1430 -0.6989 -0.7007
vn 0.0235 -0.7536 -0.6569
vn -0.1862 -0.7201 0.6684
vn -0.1979 -0.7141 0.6715
vn -0.0293 -0.7708 0.6365
vn -0.3184 -0.6521 0.6881
vn -0.0570 -0.7189 0.6928
vn 0.1686 -0.6936 0.7003
vn -0.2558 -0.6360 -0.7281
vn 0.2108 -0.6772 -0.7050
vn -0.0229 -0.6972 -0.7165
vn -0.6799 0.0656 -0.7304
vn -0.7335 0.0641 0.6766
vn -0.6798 -0.2987 0.6698
vn -0.6732 -0.3078 0.6724
vt 22.239300 -11.287100
vt 21.998100 -11.216800
vt 21.998100 -11.299700
vt 22.239300 -11.207500
vt 21.998100 -10.783200
vt 22.239300 -10.792500
vt 22.239300 -10.712900
vt 21.998100 -10.700300
vt 21.877501 -11.306000
vt 21.756901 -11.226100
vt 21.756901 -11.312400
vt 21.877501 -11.221400
vt 21.756901 -10.773900
vt 21.877501 -10.778600
vt 21.877501 -10.694000
vt 21.756901 -10.687600
vt 21.792500 -11.239300
vt 22.216801 -10.998100
vt 21.783199 -10.998100
vt 22.207500 -11.239300
vt 21.778601 -10.877500
vt 22.226101 -10.756900
vt 21.773899 -10.756900
vt 22.221399 -10.877500
vt 22.191900 -11.265200
vt 22.312401 -11.226100
vt 22.265200 -11.191900
vt 22.265200 -10.808100
vt 22.226101 -11.312400
vt 22.312401 -10.773900
vt 21.773899 -11.312400
vt 22.226101 -10.687600
vt 21.808100 -11.265200
vt 22.191900 -10.734800
vt 21.734800 -11.191900
vt 21.808100 -10.734800
vt 21.687599 -11.226100
vt 21.773899 -10.687600
vt 21.687599 -10.773900
vt 21.734800 -10.808100
vt 22.000000 -11.000000
vt 22.001900 -11.216800
vt 21.760700 -11.287100
vt 22.001900 -11.299700
vt 21.760700 -11.207500
vt 21.760700 -10.792500
vt 22.001900 -10.783200
vt 21.760700 -10.712900
vt 22.001900 -10.700300
vt 22.243099 -11.226100
vt 22.122499 -11.306000
vt 22.243099 -11.312400
vt 22.122499 -11.221400
vt 22.122499 -10.778600
vt 22.243099 -10.773900
vt 22.122499 -10.694000
vt 22.243099 -10.687600
vt 22.193501 -10.746800
vt 21.806499 -10.746800
vt 21.746799 -11.193500
vt 21.746799 -10.806500
vt 21.806499 -11.253200
vt 22.193501 -11.253200
vt 22.253201 -11.193500
vt 22.253201 -10.806500
vt 21.792500 -11.287100
vt 21.712900 -11.207500
vt 21.712900 -10.792500
vt 22.207500 -11.287100
vt 21.792500 -10.712900
vt 22.287100 -11.207500
vt 22.207500 -10.712900
vt 22.287100 -10.792500
vt 34.060299 -27.299700
vt 34.060299 -27.216801
vt 33.939701 -27.306000
vt 33.939701 -27.221399
vt 33.939701 -26.694000
vt 34.060299 -26.783199
vt 34.060299 -26.700300
vt 33.939701 -26.778601
vt 33.783199 -27.060301
vt 34.216801 -27.060301
vt 34.221500 -26.939699
vt 33.778500 -26.939699
vt 33.939701 -26.783199
vt 33.939701 -27.216801
vt 34.060299 -27.221399
vt 34.060299 -27.306000
vt 34.060299 -26.778601
vt 33.939701 -27.299700
vt 34.060299 -26.694000
vt 33.939701 -26.700300
vt -0.463643 1.143860
vt -0.579247 1.130800
vt -0.463643 1.032730
vt -0.343363 1.061910
vt -0.394515 1.161070
vt -0.291279 1.213940
vt -0.230600 1.131190
vt -0.187659 1.276220
vt -0.130367 1.201210
vt -0.056245 1.340780
vt -0.010971 1.257960
vt 0.103716 1.386090
vt 0.109163 1.291860
vt 0.366379 1.207840
vt 0.279797 1.362470
vt 0.241087 1.276380
vt 0.418736 1.274260
vt 0.524312 1.144180
vt 0.458505 1.105400
vt 0.579247 0.994126
vt 0.508917 0.975386
vt 0.406791 0.706531
vt 0.551593 0.805091
vt 0.495297 0.830873
vt 0.433953 0.664209
vt 0.324876 0.615331
vt 0.307317 0.642690
vt -0.579247 0.934647
vt -0.463643 0.921590
vt -0.579247 1.032730
vt -0.292211 0.962755
vt -0.169921 1.048440
vt -0.073073 1.126190
vt 0.034304 1.175130
vt 0.114609 1.197630
vt 0.314023 1.141420
vt 0.202377 1.190300
vt 0.392700 1.066610
vt 0.438588 0.956646
vt 0.379628 0.748855
vt 0.439001 0.856655
vt 0.289759 0.670049
vt 0.235857 0.613909
vt -0.111136 1.463640
vt -0.000000 1.579250
vt -0.098079 1.579250
vt -0.094389 0.758913
vt -0.000000 0.896284
vt -0.094389 0.890837
vt -0.000000 0.720203
vt 0.094389 0.758913
vt 0.094389 0.890837
vt -0.072783 0.975386
vt -0.000000 0.856655
vt -0.000000 0.956646
vt -0.061919 0.830873
vt 0.072783 0.975386
vt 0.061919 0.830873
vt 0.343363 1.061910
vt 0.463643 1.143860
vt 0.394515 1.161070
vt 0.291279 1.213940
vt 0.463643 1.032730
vt 0.579247 1.130800
vt 0.579247 1.032730
vt 0.230600 1.131190
vt 0.187659 1.276220
vt 0.130367 1.201210
vt 0.056245 1.340780
vt 0.010971 1.257960
vt -0.103716 1.386090
vt -0.109163 1.291860
vt -0.279797 1.362470
vt -0.366379 1.207840
vt -0.241087 1.276380
vt -0.418736 1.274260
vt -0.524312 1.144180
vt -0.458505 1.105400
vt -0.579247 0.994126
vt -0.508917 0.975386
vt -0.551593 0.805091
vt -0.406791 0.706531
vt -0.495297 0.830873
vt -0.433953 0.664209
vt -0.324876 0.615331
vt -0.307317 0.642690
vt 0.463643 0.921590
vt 0.579247 0.934647
vt 0.169921 1.048440
vt 0.292211 0.962755
vt 0.073073 1.126190
vt -0.034304 1.175130
vt -0.114609 1.197630
vt -0.314023 1.141420
vt -0.202377 1.190300
vt -0.392700 1.066610
vt -0.438588 0.956646
vt -0.379628 0.748855
vt -0.439001 0.856655
vt -0.289759 0.670049
vt -0.235857 0.613909
vt -0.000000 0.675124
vt 0.032508 0.692683
vt -0.000000 0.764143
vt -0.032508 0.692683
vt -0.111573 1.343360
vt -0.000000 1.292210
vt -0.000000 1.463640
vt 0.000000 0.797623
vt 0.000000 0.885391
vt 0.111573 1.343360
vt 0.000000 0.994126
vt 0.000000 0.805091
s 1
usemtl Meshpart1Mtl
f 1/1/1 3/2/2 2/3/3
f 3/2/2 1/1/1 4/4/4
f 4/4/4 5/5/5 3/2/2
f 5/5/5 4/4/4 6/6/6
f 5/5/5 6/6/6 7/7/7
f 7/7/7 8/8/7 5/5/5
f 9/9/8 10/10/2 11/11/3
f 10/10/2 9/9/8 12/12/4
f 12/12/4 13/13/9 10/10/2
f 12/12/4 14/14/6 13/13/9
f 14/14/6 15/15/7 13/13/9
f 15/15/7 16/16/7 13/13/9
f 17/17/7 20/18/10 18/19/7
f 17/17/7 19/20/11 20/18/10
f 21/21/7 23/22/10 22/23/7
f 21/21/7 24/24/11 23/22/10
f 25/25/12 26/26/13 27/27/14
f 28/28/15 27/27/14 26/26/13
f 26/26/13 25/25/12 29/29/16
f 26/26/13 30/30/17 28/28/15
f 31/31/18 29/29/16 25/25/12
f 32/32/19 28/28/15 30/30/17
f 31/31/18 25/25/12 33/33/20
f 28/28/15 32/32/19 34/34/21
f 35/35/22 31/31/18 33/33/20
f 32/32/19 36/36/23 34/34/21
f 31/31/18 35/35/22 37/37/24
f 32/32/19 38/38/25 36/36/23
f 35/35/22 39/39/26 37/37/24
f 39/39/26 36/36/23 38/38/25
f 39/39/26 35/35/22 40/40/27
f 36/36/23 39/39/26 40/40/27
f 41/33/28 42/25/29 43/41/30
f 42/25/29 44/27/31 43/41/30
f 45/35/32 41/33/28 43/41/30
f 44/27/31 46/28/33 43/41/30
f 47/40/34 45/35/32 43/41/30
f 46/28/33 48/34/35 43/41/30
f 49/36/36 47/40/34 43/41/30
f 48/34/35 49/36/36 43/41/30
f 52/42/37 50/43/38 51/44/39
f 50/43/38 52/42/37 53/45/37
f 54/46/40 53/45/37 52/42/37
f 54/46/40 52/42/37 55/47/41
f 55/47/41 56/48/42 54/46/40
f 56/48/42 55/47/41 57/49/10
f 60/50/37 58/51/38 59/52/43
f 58/51/38 60/50/37 61/53/37
f 62/54/44 61/53/37 60/50/37
f 62/54/44 60/50/37 64/55/41
f 64/55/41 65/56/42 62/54/44
f 65/56/42 64/55/41 63/57/10
f 66/17/45 67/20/8 68/18/46
f 66/17/45 68/18/46 69/19/47
f 72/21/45 70/24/8 71/22/46
f 72/21/45 71/22/46 73/23/48
f 74/58/49 75/59/50 76/60/50
f 76/60/50 75/59/50 77/61/50
f 78/62/50 74/58/49 76/60/50
f 74/58/49 78/62/50 79/63/50
f 74/58/49 79/63/50 80/64/50
f 74/58/49 80/64/50 81/65/50
f 82/66/51 83/60/52 84/67/53
f 85/61/54 84/67/53 83/60/52
f 83/60/52 82/66/51 86/62/51
f 84/67/53 85/61/54 87/68/55
f 88/69/56 86/62/51 82/66/51
f 89/59/57 87/68/55 85/61/54
f 86/62/51 88/69/56 90/63/58
f 87/68/55 89/59/57 91/70/57
f 92/71/59 90/63/58 88/69/56
f 93/58/60 91/70/57 89/59/57
f 90/63/58 92/71/59 94/64/59
f 91/70/57 93/58/60 95/72/61
f 96/73/62 94/64/59 92/71/59
f 97/65/62 95/72/61 93/58/60
f 94/64/59 96/73/62 97/65/62
f 95/72/61 97/65/62 96/73/62
usemtl Meshpart2Mtl
f 99/74/1 101/75/4 98/76/3
f 101/75/4 103/77/2 98/76/3
f 102/78/7 104/79/6 100/80/7
f 101/75/4 105/81/9 103/77/2
f 104/79/6 102/78/7 105/81/9
f 101/75/4 104/79/6 105/81/9
f 108/82/7 107/83/11 106/84/10
f 108/82/7 106/84/10 109/85/7
f 110/86/40 111/87/37 112/88/37
f 111/87/37 113/89/43 112/88/37
f 110/86/40 112/88/37 114/90/41
f 113/89/43 111/87/37 115/91/38
f 110/86/40 114/90/41 116/92/10
f 117/93/42 110/86/40 116/92/10
f 119/82/45 120/84/46 118/85/48
f 119/82/45 121/83/8 120/84/46
usemtl Meshpart3Mtl
f 122/94/63 123/95/64 124/96/65
f 122/94/63 124/96/65 125/97/66
f 125/97/66 126/98/67 122/94/63
f 125/97/66 127/99/68 126/98/67
f 127/99/68 125/97/66 128/100/69
f 128/100/69 129/101/70 127/99/68
f 129/101/70 128/100/69 130/102/71
f 130/102/71 131/103/72 129/101/70
f 131/103/72 130/102/71 132/104/73
f 132/104/73 133/105/74 131/103/72
f 133/105/74 132/104/73 134/106/74
f 137/107/75 136/108/76 135/109/77
f 136/108/76 137/107/75 138/110/75
f 137/107/75 139/111/78 138/110/75
f 139/111/78 137/107/75 140/112/79
f 140/112/79 141/113/80 139/111/78
f 141/113/80 140/112/79 142/114/81
f 145/115/82 144/116/83 143/117/84
f 146/118/85 144/116/83 145/115/82
f 145/115/82 147/119/86 146/118/85
f 147/119/86 145/115/82 148/120/87
f 149/96/88 150/121/89 151/122/90
f 150/121/89 149/96/88 152/123/89
f 151/122/90 153/97/91 149/96/88
f 153/97/92 154/124/93 155/125/85
f 156/100/94 153/97/92 155/125/85
f 156/100/94 155/125/85 157/126/95
f 158/102/96 156/100/94 157/126/95
f 157/126/95 159/104/97 158/102/96
f 159/104/97 157/126/95 160/127/98
f 160/127/98 161/106/99 159/104/97
f 161/106/99 160/127/98 162/128/99
f 165/129/100 164/109/101 163/130/102
f 164/109/101 165/129/100 166/107/103
f 167/131/104 166/107/103 165/129/100
f 166/107/103 167/131/104 168/112/105
f 167/131/104 169/114/106 168/112/105
f 169/114/106 167/131/104 170/132/107
f 173/133/108 172/117/109 171/134/110
f 174/115/111 172/117/109 173/133/108
f 175/135/112 174/115/111 173/133/108
f 174/115/111 175/135/112 176/120/113
f 176/120/113 175/135/112 177/136/114
f 179/137/65 178/138/64 180/139/64
f 183/140/115 181/141/74 182/142/116
f 183/140/115 184/143/117 181/141/74
f 185/141/118 187/144/119 186/145/118
f 187/144/119 185/141/118 188/143/120
f 189/146/121 191/147/122 190/148/123
f 191/147/122 189/146/121 192/149/124
f 195/147/125 193/150/126 194/148/127
f 196/151/128 193/150/126 195/147/125
f 197/152/129 198/153/130 199/154/131
f 200/155/132 197/152/129 199/154/131
f 198/153/130 197/152/129 201/156/133
f 201/156/133 202/157/134 198/153/130
f 202/157/134 201/156/133 203/158/134
f 197/152/129 200/155/132 204/159/135
f 205/160/136 204/159/135 200/155/132
f 204/159/135 205/160/136 206/161/137
f 207/162/138 206/161/137 205/160/136
f 206/161/137 207/162/138 208/163/129
f 209/164/118 208/163/129 207/162/138
f 208/163/129 209/164/118 210/165/139
f 212/166/140 213/167/141 211/168/119
f 213/167/141 212/166/140 214/169/141
f 214/169/141 215/170/142 213/167/141
f 213/167/141 215/170/142 216/171/143
f 215/170/142 217/172/144 216/171/143
f 216/171/143 217/172/144 218/173/145
f 220/174/146 221/175/147 219/176/148
f 221/175/147 220/174/146 222/177/149
f 222/177/149 223/178/150 221/175/147
f 224/179/151 221/175/147 223/178/150
f 225/156/152 226/180/153 227/181/154
f 228/152/155 226/180/153 225/156/152
f 228/152/155 230/182/156 229/183/157
f 230/182/156 228/152/155 231/159/156
f 231/159/156 232/184/158 230/182/156
f 232/184/158 231/159/156 233/161/159
f 234/163/160 232/184/158 233/161/159
f 232/184/158 234/163/160 235/185/161
f 236/165/162 235/185/161 234/163/160
f 235/185/161 236/165/162 237/186/162
f 239/168/163 240/187/164 238/188/165
f 240/187/164 239/168/163 241/167/164
f 241/167/164 242/189/166 240/187/164
f 242/189/166 241/167/164 243/171/166
f 243/171/166 244/173/121 242/189/166
f 242/189/166 244/173/121 245/190/167
f 247/176/168 248/191/169 246/192/170
f 248/191/169 247/176/168 249/175/171
f 249/175/171 250/193/172 248/191/169
f 250/193/172 249/175/171 251/179/172
f 250/193/172 251/179/172 252/194/173
f 253/195/174 254/196/87 255/197/175
f 257/198/176 256/195/177 258/197/178
f 259/137/152 261/138/154 262/139/154
f 263/199/155 264/200/179 260/201/180
f 265/142/162 267/202/165 266/203/162
f 267/202/165 265/142/162 268/140/181
f 270/204/91 269/201/90 271/200/182
f 274/202/183 272/145/184 273/203/184
f 274/202/183 275/144/101 272/145/184
f 278/149/84 276/205/80 277/146/185
f 279/206/83 276/205/80 278/149/84
f 280/205/186 282/151/187 281/150/145
f 282/151/187 280/205/186 283/206/188
o Fists
v -1.143287 -0.006571 -0.303407
v -1.155761 -0.688585 0.387420
v -1.158349 -0.002115 0.382904
v -1.140704 -0.693043 -0.298893
v 1.144776 0.006901 0.433391
v 1.162426 -0.684027 -0.248404
v 1.159837 0.002444 -0.252919
v 1.147363 -0.679569 0.437907
v 1.132059 -0.724849 -0.248806
v 1.132798 -0.684411 -0.289767
v 1.162426 -0.684027 -0.248404
v 1.159837 0.002444 -0.252919
v 1.130210 0.002060 -0.294282
v 1.129163 0.043027 -0.253857
v 1.116997 -0.720392 0.437505
v 1.147363 -0.679569 0.437907
v 1.115949 -0.679425 0.477931
v 1.113361 0.007046 0.473415
v 1.144776 0.006901 0.433391
v 1.114101 0.047485 0.432454
v -1.110027 -0.733626 -0.297956
v -1.140704 -0.693043 -0.298893
v -1.109281 -0.693186 -0.338914
v -1.111874 -0.006717 -0.343431
v -1.143287 -0.006571 -0.303407
v -1.112920 0.034250 -0.303005
v -1.125088 -0.729168 0.388356
v -1.126134 -0.688201 0.428781
v -1.155761 -0.688585 0.387420
v -1.158349 -0.002115 0.382904
v -1.128722 -0.001730 0.424267
v -1.127982 0.038708 0.383306
v 1.162426 -0.684027 -0.248404
v 1.116997 -0.720392 0.437505
v 1.132059 -0.724849 -0.248806
v 1.147363 -0.679569 0.437907
v 1.144776 0.006901 0.433391
v 1.129163 0.043027 -0.253857
v 1.114101 0.047485 0.432454
v 1.159837 0.002444 -0.252919
v -1.155761 -0.688585 0.387420
v -1.140704 -0.693043 -0.298893
v -1.110027 -0.733626 -0.297956
v -1.125088 -0.729168 0.388356
v -1.143287 -0.006571 -0.303407
v -1.158349 -0.002115 0.382904
v -1.127982 0.038708 0.383306
v -1.112920 0.034250 -0.303005
v 1.115949 -0.679425 0.477931
v -1.126134 -0.688201 0.428781
v -1.125088 -0.729168 0.388356
v 1.116997 -0.720392 0.437505
v 1.114101 0.047485 0.432454
v -1.127982 0.038708 0.383306
v -1.128722 -0.001730 0.424267
v 1.113361 0.007046 0.473415
v -1.109281 -0.693186 -0.338914
v 1.132798 -0.684411 -0.289767
v 1.132059 -0.724849 -0.248806
v -1.110027 -0.733626 -0.297956
v -1.112920 0.034250 -0.303005
v 1.129163 0.043027 -0.253857
v 1.130210 0.002060 -0.294282
v -1.111874 -0.006717 -0.343431
v 1.130210 0.002060 -0.294282
v -1.109281 -0.693186 -0.338914
v -1.111874 -0.006717 -0.343431
v 1.132798 -0.684411 -0.289767
v -1.127982 0.038708 0.383306
v 1.114101 0.047485 0.432454
v 1.129163 0.043027 -0.253857
v -1.112920 0.034250 -0.303005
v -1.128722 -0.001730 0.424267
v 1.115949 -0.679425 0.477931
v 1.113361 0.007046 0.473415
v -1.126134 -0.688201 0.428781
v -1.110027 -0.733626 -0.297956
v 1.132059 -0.724849 -0.248806
v 1.116997 -0.720392 0.437505
v -1.125088 -0.729168 0.388356
v -1.166773 0.000183 -0.310873
v -1.179632 -0.695523 0.393844
v -1.182186 0.004696 0.389292
v -1.164222 -0.700037 -0.306323
v 1.168294 0.013894 0.440821
v 1.186262 -0.690837 -0.254793
v 1.183707 0.009381 -0.259344
v 1.170848 -0.686324 0.445373
v 1.143484 -0.746289 -0.256710
v 1.144406 -0.692887 -0.311030
v 1.186262 -0.690837 -0.254793
v 1.183707 0.009381 -0.259344
v 1.141834 0.010329 -0.315612
v 1.140502 0.064441 -0.262105
v 1.128142 -0.741748 0.446195
v 1.170848 -0.686324 0.445373
v 1.126629 -0.687692 0.499633
v 1.124057 0.015523 0.495051
v 1.168294 0.013894 0.440821
v 1.125079 0.069024 0.440979
v -1.120998 -0.755163 -0.306478
v -1.164222 -0.700037 -0.306323
v -1.119979 -0.701664 -0.360551
v -1.122554 0.001551 -0.365134
v -1.166773 0.000183 -0.310873
v -1.124065 0.055608 -0.311695
v -1.136427 -0.750582 0.396605
v -1.137758 -0.696469 0.450112
v -1.179632 -0.695523 0.393844
v -1.182186 0.004696 0.389292
v -1.140329 0.006745 0.445530
v -1.139408 0.060148 0.391210
v 1.186262 -0.690837 -0.254793
v 1.128142 -0.741748 0.446195
v 1.143484 -0.746289 -0.256710
v 1.170848 -0.686324 0.445373
v 1.168294 0.013894 0.440821
v 1.140502 0.064441 -0.262105
v 1.125079 0.069024 0.440979
v 1.183707 0.009381 -0.259344
v -1.179632 -0.695523 0.393844
v -1.164222 -0.700037 -0.306323
v -1.120998 -0.755163 -0.306478
v -1.136427 -0.750582 0.396605
v -1.166773 0.000183 -0.310873
v -1.182186 0.004696 0.389292
v -1.139408 0.060148 0.391210
v -1.124065 0.055608 -0.311695
v 1.126629 -0.687692 0.499633
v -1.137758 -0.696469 0.450112
v -1.136427 -0.750582 0.396605
v 1.128142 -0.741748 0.446195
v 1.125079 0.069024 0.440979
v -1.139408 0.060148 0.391210
v -1.140329 0.006745 0.445530
v 1.124057 0.015523 0.495051
v -1.119979 -0.701664 -0.360551
v 1.144406 -0.692887 -0.311030
v 1.143484 -0.746289 -0.256710
v -1.120998 -0.755163 -0.306478
v -1.124065 0.055608 -0.311695
v 1.140502 0.064441 -0.262105
v 1.141834 0.010329 -0.315612
v -1.122554 0.001551 -0.365134
v 1.141834 0.010329 -0.315612
v -1.119979 -0.701664 -0.360551
v -1.122554 0.001551 -0.365134
v 1.144406 -0.692887 -0.311030
v -1.139408 0.060148 0.391210
v 1.125079 0.069024 0.440979
v 1.140502 0.064441 -0.262105
v -1.124065 0.055608 -0.311695
v -1.140329 0.006745 0.445530
v 1.126629 -0.687692 0.499633
v 1.124057 0.015523 0.495051
v -1.137758 -0.696469 0.450112
v -1.120998 -0.755163 -0.306478
v 1.143484 -0.746289 -0.256710
v 1.128142 -0.741748 0.446195
v -1.136427 -0.750582 0.396605
vn -0.9191 0.2642 -0.2922
vn -0.9297 -0.2701 0.2502
vn -0.9311 0.2660 0.2494
vn -0.9174 -0.2728 -0.2897
vn 0.9174 0.2727 0.2898
vn 0.9311 -0.2659 -0.2495
vn 0.9297 0.2702 -0.2502
vn 0.9191 -0.2643 0.2921
vn 0.4472 -0.8392 -0.3094
vn 0.4523 -0.3302 -0.8285
vn 0.9311 -0.2660 -0.2496
vn 0.9297 0.2702 -0.2503
vn 0.4530 0.3222 -0.8312
vn 0.4430 0.8366 -0.3223
vn 0.4352 -0.8339 0.3394
vn 0.9191 -0.2643 0.2923
vn 0.4178 -0.3234 0.8490
vn 0.4181 0.3314 0.8458
vn 0.9174 0.2728 0.2899
vn 0.4282 0.8402 0.3326
vn -0.4283 -0.8402 -0.3326
vn -0.9174 -0.2728 -0.2899
vn -0.4181 -0.3314 -0.8458
vn -0.4178 0.3234 -0.8490
vn -0.9191 0.2643 -0.2923
vn -0.4352 0.8339 -0.3394
vn -0.4430 -0.8366 0.3223
vn -0.4530 -0.3222 0.8312
vn -0.9297 -0.2702 0.2503
vn -0.9311 0.2660 0.2496
vn -0.4523 0.3302 0.8285
vn -0.4472 0.8392 0.3094
vn 0.9311 -0.2660 -0.2495
vn 0.4352 -0.8339 0.3393
vn 0.9191 -0.2644 0.2922
vn 0.9174 0.2728 0.2898
vn 0.4283 0.8402 0.3326
vn 0.9297 0.2703 -0.2502
vn -0.9297 -0.2702 0.2502
vn -0.9174 -0.2728 -0.2898
vn -0.4282 -0.8403 -0.3326
vn -0.9191 0.2644 -0.2922
vn -0.9311 0.2660 0.2495
vn -0.4352 0.8340 -0.3393
vn 0.4282 0.8403 0.3325
vn -0.4522 0.3302 0.8285
vn 0.4182 0.3314 0.8458
vn -0.4283 -0.8402 -0.3325
vn 0.4530 0.3222 -0.8313
vn -0.4182 -0.3314 -0.8458
vn 0.4523 -0.3303 -0.8285
vn -0.4352 0.8339 -0.3393
vn -0.4523 0.3303 0.8285
vn -0.4282 -0.8402 -0.3326
vn -0.9191 0.2643 -0.2922
vn -0.9298 -0.2702 0.2502
vn -0.9174 -0.2727 -0.2898
vn 0.9298 0.2702 -0.2502
vn 0.4352 -0.8340 0.3394
vn 0.4352 -0.8340 0.3393
vn 0.9191 -0.2643 0.2922
vn 0.4282 0.8403 0.3326
vn -0.9191 0.2644 -0.2921
vn -0.9311 0.2661 0.2495
vn 0.4178 -0.3234 0.8491
vn -0.4530 -0.3222 0.8313
vn -0.4430 -0.8366 0.3222
vn 0.4472 -0.8392 -0.3093
vn 0.4431 0.8366 -0.3223
vn 0.4522 -0.3303 -0.8285
vn -0.4522 0.3303 0.8285
vn 0.4473 -0.8392 -0.3094
vt 0.372650 0.019678
vt 0.478632 0.130590
vt 0.372650 0.130590
vt 0.478632 0.019678
vt 0.478632 0.481216
vt 0.372650 0.370304
vt 0.478632 0.370304
vt 0.372650 0.481216
vt 0.478632 0.363148
vt 0.478632 0.137746
vt 0.365812 0.363148
vt 0.365812 0.137746
vt 0.140171 0.137746
vt 0.140171 0.363148
vt 0.252991 0.137746
vt 0.252991 0.363148
vt 0.147009 0.137746
vt 0.147009 0.363148
vt 0.259829 0.363148
vt 0.259829 0.137746
vt 0.372650 0.137746
vt 0.372650 0.363148
vt 0.034188 0.363148
vt 0.034188 0.137746
s 1
usemtl Leftarm1Mtl
f 284/207/189 285/208/190 286/209/191
f 285/208/190 284/207/189 287/210/192
f 288/211/193 289/212/194 290/213/195
f 289/212/194 288/211/193 291/214/196
f 292/212/197 293/212/198 294/212/199
f 293/212/198 295/213/200 294/212/199
f 295/213/200 293/212/198 296/213/201
f 296/213/201 297/213/202 295/213/200
f 298/214/203 299/214/204 300/214/205
f 301/211/206 300/214/205 299/214/204
f 299/214/204 302/211/207 301/211/206
f 303/211/208 301/211/206 302/211/207
f 304/210/209 305/210/210 306/210/211
f 307/207/212 306/210/211 305/210/210
f 305/210/210 308/207/213 307/207/212
f 309/207/214 307/207/212 308/207/213
f 310/208/215 311/208/216 312/208/217
f 313/209/218 312/208/217 311/208/216
f 311/208/216 314/209/219 313/209/218
f 315/209/220 313/209/218 314/209/219
f 316/212/221 317/214/222 318/212/197
f 317/214/222 316/212/221 319/214/223
f 320/211/224 321/213/202 322/211/225
f 321/213/202 320/211/224 323/213/226
f 324/208/227 325/210/228 326/210/229
f 326/210/229 327/208/215 324/208/227
f 328/207/230 329/209/231 330/209/220
f 330/209/220 331/207/232 328/207/230
f 332/215/205 333/216/216 334/216/215
f 332/215/205 334/216/215 335/215/222
f 336/217/233 337/218/220 338/218/234
f 336/217/233 338/218/234 339/217/235
f 340/219/211 341/220/198 342/220/197
f 340/219/211 342/220/197 343/219/236
f 344/221/232 345/222/202 346/222/237
f 344/221/232 346/222/237 347/221/212
f 348/222/201 349/223/238 350/221/212
f 349/223/238 348/222/201 351/224/239
f 352/218/220 353/217/208 354/225/202
f 352/218/220 354/225/202 355/226/240
f 356/227/241 357/215/205 358/228/206
f 357/215/205 356/227/241 359/216/216
f 360/219/242 361/220/197 362/229/222
f 360/219/242 362/229/222 363/230/215
usemtl Leftarm2Mtl
f 364/207/243 365/208/244 366/209/191
f 365/208/244 364/207/243 367/210/245
f 368/211/193 369/212/194 370/213/246
f 369/212/194 368/211/193 371/214/196
f 372/212/197 373/212/239 374/212/199
f 373/212/239 375/213/200 374/212/199
f 375/213/200 373/212/239 376/213/201
f 376/213/201 377/213/202 375/213/200
f 378/214/247 379/214/204 380/214/205
f 381/211/235 380/214/205 379/214/204
f 379/214/204 382/211/207 381/211/235
f 383/211/208 381/211/235 382/211/207
f 384/210/209 385/210/210 386/210/211
f 387/207/212 386/210/211 385/210/210
f 385/210/210 388/207/213 387/207/212
f 389/207/240 387/207/212 388/207/213
f 390/208/215 391/208/216 392/208/217
f 393/209/218 392/208/217 391/208/216
f 391/208/216 394/209/219 393/209/218
f 395/209/220 393/209/218 394/209/219
f 396/212/221 397/214/248 398/212/197
f 397/214/248 396/212/221 399/214/249
f 400/211/224 401/213/202 402/211/250
f 401/213/202 400/211/224 403/213/226
f 404/208/227 405/210/228 406/210/229
f 406/210/229 407/208/215 404/208/227
f 408/207/251 409/209/252 410/209/220
f 410/209/220 411/207/240 408/207/251
f 412/215/253 413/216/254 414/216/255
f 412/215/253 414/216/255 415/215/222
f 416/217/208 417/218/220 418/218/234
f 416/217/208 418/218/234 419/217/235
f 420/219/211 421/220/198 422/220/256
f 420/219/211 422/220/256 423/219/209
f 424/221/232 425/222/257 426/222/237
f 424/221/232 426/222/237 427/221/212
f 428/222/201 429/223/211 430/221/212
f 429/223/211 428/222/201 431/224/258
f 432/218/220 433/217/208 434/225/202
f 432/218/220 434/225/202 435/226/240
f 436/227/259 437/215/205 438/228/206
f 437/215/205 436/227/259 439/216/216
f 440/219/229 441/220/260 442/229/222
f 440/219/229 442/229/222 443/230/255
