# Blender 5.1.2
# www.blender.org
mtllib bag 'o money body 2obj.mtl
o Bag_o'_Money.001
v -0.072929 0.475982 -0.169193
v 0.077871 0.475982 -0.169193
v 0.002471 0.475982 -0.169193
v 0.146911 0.086397 -0.397356
v 0.148556 -0.276375 -0.420951
v 0.161850 -0.551468 -0.457885
v 0.170167 -0.419787 -0.481449
v 0.002471 -0.420099 -0.487916
v 0.002471 -0.550202 -0.464706
v 0.131136 -0.662781 -0.364403
v 0.002471 -0.663957 -0.363844
v -0.126194 -0.662781 -0.364403
v -0.156908 -0.551468 -0.457885
v -0.165225 -0.419787 -0.481449
v -0.143614 -0.276375 -0.420951
v 0.002471 -0.089805 -0.465833
v 0.002471 -0.276694 -0.426154
v 0.166953 -0.089768 -0.463009
v -0.162011 -0.089768 -0.463009
v -0.141969 0.086397 -0.397356
v 0.002471 0.086353 -0.395479
v 0.002471 0.274310 -0.413121
v -0.152036 0.274365 -0.414348
v 0.156978 0.274365 -0.414348
v -0.139148 0.364875 -0.375779
v 0.144090 0.364875 -0.375779
v 0.002471 0.364686 -0.374772
v -0.081525 0.524207 -0.186256
v -0.092257 0.576856 -0.212463
v 0.002471 0.576856 -0.212463
v 0.002471 0.524207 -0.186256
v 0.086467 0.524207 -0.186256
v 0.097199 0.576856 -0.212463
v -0.100997 0.626284 -0.233803
v -0.190137 0.652393 -0.150758
v -0.173060 0.670093 -0.135721
v -0.111063 0.604326 -0.258381
v 0.002471 0.660263 -0.265894
v 0.002471 0.641613 -0.293594
v -0.173060 0.670093 0.173405
v 0.116005 0.604326 -0.258381
v -0.190137 0.652393 0.188442
v 0.105939 0.626284 -0.233803
v -0.100997 0.626284 0.271487
v 0.195079 0.652393 -0.150758
v -0.111063 0.604327 0.296065
v 0.178002 0.670093 -0.135721
v 0.002471 0.660263 0.303578
v 0.002471 0.641613 0.331278
v 0.116005 0.604327 0.296065
v 0.178002 0.670093 0.173405
v 0.105939 0.626284 0.271487
v 0.195079 0.652393 0.188442
v -0.173060 0.670093 -0.135721
v -0.068885 0.577124 -0.155393
v -0.100997 0.626284 -0.233803
v 0.002471 0.600561 -0.177525
v 0.002471 0.660263 -0.265894
v 0.105939 0.626284 -0.233803
v -0.118583 0.607337 -0.087752
v 0.002471 0.546800 -0.095846
v 0.073827 0.577124 -0.155393
v 0.178002 0.670093 -0.135721
v -0.039205 0.533111 -0.082920
v -0.068231 0.550758 -0.043414
v -0.057313 0.533111 0.018842
v -0.118583 0.607338 0.125436
v -0.173060 0.670093 0.173405
v -0.068231 0.550758 0.081098
v -0.068885 0.577125 0.193077
v -0.039205 0.533112 0.120604
v -0.100997 0.626284 0.271487
v 0.002471 0.546800 0.133530
v 0.002471 0.600561 0.215209
v 0.002471 0.660263 0.303578
v 0.105939 0.626284 0.271487
v 0.073827 0.577125 0.193077
v 0.178002 0.670093 0.173405
v 0.062255 0.533111 0.018842
v 0.044147 0.533112 0.120604
v 0.123525 0.607338 0.125436
v 0.073173 0.550758 0.081098
v 0.073173 0.550758 -0.043414
v 0.044147 0.533111 -0.082920
v 0.123525 0.607337 -0.087752
v -0.072929 0.475982 -0.169193
v 0.002471 0.442059 -0.284113
v -0.106514 0.442059 -0.284113
v -0.153884 0.442076 -0.137896
v 0.077871 0.475982 -0.169193
v 0.111456 0.442059 -0.284113
v 0.002471 0.475982 -0.169193
v 0.158826 0.442076 -0.137896
v -0.139148 0.364875 -0.375779
v 0.144090 0.364875 -0.375779
v 0.002471 0.364686 -0.374772
v -0.139148 0.364875 0.413463
v 0.002471 0.364686 0.412456
v 0.144090 0.364875 0.413463
v 0.111456 0.442060 0.321797
v -0.106514 0.442060 0.321797
v 0.002471 0.442060 0.321797
v 0.077871 0.475982 0.206877
v -0.072929 0.475982 0.206877
v 0.002471 0.475982 0.206877
v -0.153874 0.442066 0.018842
v -0.105691 0.475982 -0.078431
v -0.153884 0.442077 0.175580
v -0.105691 0.475982 0.018842
v -0.105691 0.475982 0.116115
v 0.110633 0.475982 -0.078431
v 0.110633 0.475982 0.018842
v 0.158816 0.442066 0.018842
v 0.110633 0.475982 0.116115
v 0.158826 0.442077 0.175580
v 0.195079 0.652393 -0.150758
v 0.178002 0.670093 -0.135721
v 0.165336 0.604326 0.018842
v 0.150897 0.626284 0.018842
v 0.178002 0.670093 0.173405
v 0.195079 0.652393 0.188442
v -0.173060 0.670093 -0.135721
v -0.118583 0.607337 -0.087752
v -0.145955 0.626284 0.018842
v -0.068231 0.550758 -0.043414
v -0.057313 0.533111 0.018842
v -0.099890 0.577124 0.018842
v -0.118583 0.607338 0.125436
v -0.173060 0.670093 0.173405
v -0.068231 0.550758 0.081098
v 0.077871 0.475982 -0.169193
v 0.111456 0.442059 -0.284113
v 0.206093 0.365024 -0.185333
v 0.158826 0.442076 -0.137896
v 0.225793 0.274411 0.008070
v 0.225579 0.274415 -0.205004
v 0.206116 0.365002 0.018842
v 0.225147 0.277432 0.018842
v 0.225235 0.265130 -0.001756
v 0.224581 0.279990 0.029627
v 0.224248 0.248525 -0.006709
v 0.225772 0.274411 0.051184
v 0.220980 0.193249 -0.006327
v 0.220803 0.190598 -0.027063
v 0.220272 0.182344 -0.069308
v 0.219486 0.170446 -0.104512
v 0.218512 0.156122 -0.134860
v 0.217574 0.141556 -0.148456
v 0.214043 0.086426 -0.193919
v 0.146911 0.086397 -0.397356
v 0.216400 0.122617 -0.151127
v 0.215113 0.101252 -0.141901
v 0.214263 0.086421 -0.121538
v 0.245282 -0.089739 -0.225664
v 0.236435 -0.036177 -0.111288
v 0.215244 0.081344 -0.103055
v 0.242867 -0.073934 -0.160374
v 0.233302 -0.016877 -0.052973
v 0.214916 0.083530 -0.079747
v 0.214434 0.086419 -0.065047
v 0.245642 -0.089740 -0.167782
v 0.240490 -0.127635 -0.185546
v 0.232990 -0.183853 -0.188902
v 0.220631 -0.276167 -0.201297
v 0.225552 -0.240490 -0.173379
v 0.148556 -0.276375 -0.420951
v 0.221063 -0.276204 -0.141440
v 0.224581 -0.292093 -0.127231
v 0.251378 -0.419590 -0.232129
v 0.231083 -0.320202 -0.062622
v 0.252871 -0.419620 -0.006709
v 0.235337 -0.338242 -0.009761
v 0.235441 -0.338625 -0.006709
v 0.252578 -0.422809 -0.006708
v 0.250757 -0.442872 -0.003337
v 0.239219 -0.552263 -0.219913
v 0.161850 -0.551468 -0.457885
v 0.170167 -0.419787 -0.481449
v 0.240863 -0.552125 0.018842
v 0.249475 -0.457709 0.008971
v 0.249296 -0.460368 0.018842
v 0.248955 -0.463273 0.029627
v 0.249325 -0.457709 0.050283
v 0.131136 -0.662781 -0.364403
v 0.192911 -0.663512 -0.173102
v 0.239219 -0.552263 0.257597
v 0.250605 -0.442872 0.062591
v 0.192246 -0.664851 0.018842
v 0.192911 -0.663512 0.210786
v 0.251378 -0.419590 0.269813
v 0.252434 -0.422809 0.065963
v 0.252728 -0.419617 0.065963
v 0.237275 -0.347757 0.065963
v 0.237365 -0.348311 0.070370
v 0.236192 -0.344954 0.138755
v 0.233362 -0.334046 0.205880
v 0.225872 -0.300484 0.240282
v 0.221929 -0.282219 0.240282
v 0.161850 -0.551467 0.495569
v 0.148556 -0.276375 0.458635
v 0.170167 -0.419787 0.519133
v 0.131136 -0.662781 0.402087
v 0.220205 -0.276169 0.240282
v 0.220631 -0.276167 0.238981
v 0.222183 -0.264434 0.240515
v 0.166953 -0.089768 -0.463009
v 0.156978 0.274365 -0.414348
v 0.144090 0.364875 -0.375779
v 0.245282 -0.089738 0.263348
v 0.166953 -0.089767 0.500693
v 0.146911 0.086398 0.435040
v 0.144090 0.364875 0.413463
v 0.111456 0.442060 0.321797
v 0.077871 0.475982 0.206877
v 0.214611 0.086415 -0.006709
v 0.214968 0.091126 0.018842
v 0.214689 0.086413 0.018842
v 0.214620 0.086415 0.041406
v 0.215227 0.096397 -0.006405
v 0.232149 -0.009745 0.030095
v 0.215458 0.081288 0.065963
v 0.232395 -0.010711 0.018842
v 0.231739 -0.008720 0.065963
v 0.215594 0.080455 0.069951
v 0.218544 0.063254 0.106031
v 0.231478 -0.008067 0.088830
v 0.227745 0.011232 0.123651
v 0.223329 0.035984 0.127847
v 0.232718 -0.012905 -0.006709
v 0.214847 0.091784 -0.037745
v 0.086467 0.524207 -0.186256
v 0.097199 0.576856 -0.212463
v 0.195079 0.652393 -0.150758
v 0.138360 0.576856 -0.100814
v 0.165336 0.604326 0.018842
v 0.122964 0.524207 -0.087257
v 0.138360 0.576856 0.018842
v 0.138360 0.576856 0.138498
v 0.195079 0.652393 0.188442
v 0.110633 0.475982 -0.078431
v 0.122964 0.524207 0.018842
v 0.110633 0.475982 0.018842
v 0.158816 0.442066 0.018842
v 0.122964 0.524207 0.124941
v 0.110633 0.475982 0.116115
v 0.158826 0.442077 0.175580
v 0.206093 0.365025 0.223017
v 0.225579 0.274415 0.242688
v 0.225213 0.265130 0.061010
v 0.224226 0.248525 0.065963
v 0.220167 0.181563 0.067434
v 0.220185 0.181796 0.065963
v 0.218600 0.158069 0.125749
v 0.215740 0.112759 0.185323
v 0.156978 0.274365 0.452032
v 0.214043 0.086427 0.231603
v 0.214128 0.086425 0.203441
v 0.218718 0.060318 0.221403
v 0.227487 0.010812 0.233569
v 0.234003 -0.025687 0.225598
v 0.239901 -0.057991 0.197909
v 0.244448 -0.081485 0.155536
v 0.246151 -0.089740 0.123551
v 0.226920 -0.231679 0.189099
v 0.225928 -0.241748 0.141272
v 0.245595 -0.094911 0.103514
v 0.224564 -0.254334 0.098479
v 0.225611 -0.239650 0.223081
v 0.245548 -0.097036 0.065963
v 0.224894 -0.253642 0.065963
v 0.224964 -0.253495 0.059043
v 0.226687 -0.242398 0.018842
v 0.245512 -0.098686 0.036808
v 0.245414 -0.100283 0.018842
v 0.227430 -0.235345 -0.006709
v 0.244944 -0.102554 -0.006709
v 0.227861 -0.231259 -0.021508
v 0.244702 -0.103721 -0.019830
v 0.231117 -0.203989 -0.067657
v 0.242618 -0.117565 -0.058846
v 0.238291 -0.149030 -0.081501
v 0.234318 -0.178818 -0.083599
v 0.086467 0.524207 0.223940
v 0.097199 0.576856 0.250147
v 0.161850 -0.551467 0.495569
v 0.148556 -0.276375 0.458635
v 0.170167 -0.419787 0.519133
v 0.002471 -0.420099 0.525600
v 0.131136 -0.662781 0.402087
v 0.002471 -0.550201 0.502390
v 0.002471 -0.663956 0.401528
v -0.126194 -0.662781 0.402087
v -0.156908 -0.551467 0.495569
v -0.165225 -0.419787 0.519133
v 0.166953 -0.089767 0.500693
v 0.146911 0.086398 0.435040
v 0.002471 -0.089804 0.503517
v 0.002471 -0.276694 0.463838
v -0.143614 -0.276375 0.458635
v 0.002471 0.086354 0.433163
v 0.002471 0.274311 0.450805
v -0.162011 -0.089767 0.500693
v -0.141969 0.086398 0.435040
v -0.152036 0.274365 0.452032
v -0.139148 0.364875 0.413463
v 0.002471 0.364686 0.412456
v 0.144090 0.364875 0.413463
v 0.077871 0.475982 0.206877
v -0.072929 0.475982 0.206877
v 0.002471 0.475982 0.206877
v 0.002471 0.524207 0.223940
v 0.156978 0.274365 0.452032
v 0.086467 0.524207 0.223940
v 0.097199 0.576856 0.250147
v 0.002471 0.576856 0.250147
v -0.092257 0.576856 0.250147
v -0.081525 0.524207 0.223940
v 0.131136 -0.662781 -0.364403
v 0.192911 -0.663512 -0.173102
v 0.002471 -0.663957 -0.363844
v 0.002471 -0.669366 -0.157505
v 0.192246 -0.664851 0.018842
v 0.192911 -0.663512 0.210786
v 0.002471 -0.669366 0.018842
v 0.131136 -0.662781 0.402087
v 0.002471 -0.669366 0.195189
v 0.002471 -0.663956 0.401528
v -0.126194 -0.662781 0.402087
v -0.187969 -0.663512 0.210786
v -0.187304 -0.664851 0.018842
v -0.187969 -0.663512 -0.173102
v -0.126194 -0.662781 -0.364403
v -0.190137 0.652393 0.188442
v -0.190137 0.652393 -0.150758
v -0.092257 0.576856 -0.212463
v -0.111063 0.604326 -0.258381
v 0.002471 0.641613 -0.293594
v 0.002471 0.576856 -0.212463
v 0.097199 0.576856 -0.212463
v 0.116005 0.604326 -0.258381
v 0.195079 0.652393 -0.150758
v 0.195079 0.652393 0.188442
v 0.097199 0.576856 0.250147
v 0.116005 0.604327 0.296065
v 0.002471 0.641613 0.331278
v 0.002471 0.576856 0.250147
v -0.092257 0.576856 0.250147
v -0.111063 0.604327 0.296065
v -0.190137 0.652393 -0.150758
v -0.173060 0.670093 -0.135721
v -0.160394 0.604326 0.018842
v -0.145955 0.626284 0.018842
v -0.173060 0.670093 0.173405
v -0.190137 0.652393 0.188442
v 0.178002 0.670093 -0.135721
v 0.178002 0.670093 0.173405
v 0.062255 0.533111 0.018842
v 0.123525 0.607338 0.125436
v 0.150897 0.626284 0.018842
v 0.073173 0.550758 0.081098
v 0.104832 0.577124 0.018842
v 0.073173 0.550758 -0.043414
v 0.123525 0.607337 -0.087752
v -0.072929 0.475982 -0.169193
v -0.106514 0.442059 -0.284113
v -0.153884 0.442076 -0.137896
v -0.126194 -0.662781 0.402087
v -0.156908 -0.551467 0.495569
v -0.187969 -0.663512 0.210786
v -0.187304 -0.664851 0.018842
v -0.165225 -0.419787 0.519133
v -0.234277 -0.552263 0.257597
v -0.235921 -0.552125 0.018842
v -0.187969 -0.663512 -0.173102
v -0.126194 -0.662781 -0.364403
v -0.234277 -0.552263 -0.219913
v -0.156908 -0.551468 -0.457885
v -0.165225 -0.419787 -0.481449
v -0.143614 -0.276375 -0.420951
v -0.246436 -0.419590 -0.232129
v -0.162011 -0.089768 -0.463009
v -0.141969 0.086397 -0.397356
v -0.240340 -0.089739 -0.225664
v -0.152036 0.274365 -0.414348
v -0.220637 0.274415 -0.205004
v -0.139148 0.364875 -0.375779
v -0.209101 0.086426 -0.193919
v -0.201151 0.365024 -0.185333
v -0.143614 -0.276375 0.458635
v -0.246436 -0.419590 0.269813
v -0.215689 -0.276167 0.238981
v -0.219579 -0.292093 0.173698
v -0.216058 -0.276199 0.187913
v -0.220555 -0.240489 0.219847
v -0.227993 -0.183852 0.235370
v -0.240340 -0.089738 0.263348
v -0.235493 -0.127634 0.232014
v -0.240645 -0.089739 0.214250
v -0.237820 -0.073934 0.206841
v -0.162011 -0.089767 0.500693
v -0.141969 0.086398 0.435040
v -0.209101 0.086427 0.231603
v -0.231265 -0.036176 0.157756
v -0.152036 0.274365 0.452032
v -0.220637 0.274415 0.242688
v -0.139148 0.364875 0.413463
v -0.106514 0.442060 0.321797
v -0.201151 0.365025 0.223017
v -0.220842 0.274411 0.038397
v -0.220284 0.265130 0.048223
v -0.072929 0.475982 0.206877
v -0.219297 0.248525 0.053176
v -0.216005 0.193249 0.053176
v -0.215785 0.190598 0.073530
v -0.215165 0.182344 0.115775
v -0.214370 0.170447 0.150979
v -0.213450 0.156123 0.181327
v -0.212537 0.141556 0.194924
v -0.211370 0.122618 0.197594
v -0.210115 0.101253 0.188368
v -0.209294 0.086423 0.168008
v -0.210253 0.081345 0.149523
v -0.228121 -0.016877 0.099441
v -0.209935 0.083530 0.126215
v -0.209465 0.086419 0.111513
v -0.209643 0.086416 0.053176
v -0.227688 -0.012905 0.053176
v -0.209868 0.091784 0.084213
v -0.210237 0.096397 0.053176
v -0.239707 -0.103721 0.066297
v -0.226125 -0.203990 0.114124
v -0.237621 -0.117565 0.105314
v -0.233294 -0.149030 0.127969
v -0.229331 -0.178818 0.130067
v -0.222863 -0.231259 0.067976
v -0.239956 -0.102554 0.053176
v -0.222432 -0.235345 0.053176
v -0.213629 0.063254 -0.059563
v -0.222926 0.011232 -0.077184
v -0.226647 -0.008067 -0.042362
v -0.218414 0.035984 -0.081379
v -0.226908 -0.008720 -0.019495
v -0.210688 0.080455 -0.023483
v -0.210562 0.081288 -0.019495
v -0.245723 -0.442872 -0.016123
v -0.244443 -0.457709 -0.003815
v -0.247550 -0.422809 -0.019495
v -0.244073 -0.463273 0.016840
v -0.244137 -0.462734 0.018842
v -0.244475 -0.457709 0.037496
v -0.245756 -0.442872 0.049804
v -0.247845 -0.419618 -0.019495
v -0.247578 -0.422809 0.053176
v -0.247871 -0.419619 0.053176
v -0.232382 -0.347757 -0.019495
v -0.232470 -0.348311 -0.023903
v -0.231263 -0.344954 -0.092287
v -0.228456 -0.334046 -0.159412
v -0.220986 -0.300484 -0.193814
v -0.230444 -0.338625 0.053176
v -0.230340 -0.338242 0.056229
v -0.226084 -0.320202 0.109090
v -0.215689 -0.276167 -0.201297
v -0.215743 -0.276172 -0.193814
v -0.217311 -0.264403 -0.193814
v -0.220733 -0.239651 -0.176613
v -0.222042 -0.231679 -0.142631
v -0.241264 -0.089740 -0.077082
v -0.221050 -0.241748 -0.094804
v -0.240706 -0.094910 -0.057046
v -0.219686 -0.254335 -0.052011
v -0.240659 -0.097036 -0.019495
v -0.219989 -0.253642 -0.019495
v -0.239566 -0.081486 -0.109068
v -0.235036 -0.057992 -0.151441
v -0.229087 -0.025688 -0.179130
v -0.222571 0.010811 -0.187102
v -0.213802 0.060317 -0.174935
v -0.209213 0.086424 -0.156974
v -0.210889 0.112758 -0.138855
v -0.213833 0.158069 -0.079281
v -0.219233 0.248525 -0.019495
v -0.215266 0.181563 -0.020966
v -0.215281 0.181796 -0.019495
v -0.220258 0.265130 -0.014543
v -0.220838 0.274411 -0.004717
v -0.201174 0.365002 0.018842
v -0.219648 0.279990 0.016840
v -0.219753 0.279514 0.018842
v -0.153874 0.442066 0.018842
v -0.105691 0.475982 -0.078431
v -0.153884 0.442077 0.175580
v -0.105691 0.475982 0.018842
v -0.105691 0.475982 0.116115
v -0.118022 0.524207 0.018842
v -0.118022 0.524207 -0.087257
v -0.118022 0.524207 0.124941
v -0.133418 0.576856 0.018842
v -0.133418 0.576856 0.138498
v -0.160394 0.604326 0.018842
v -0.190137 0.652393 0.188442
v -0.133418 0.576856 -0.100814
v -0.190137 0.652393 -0.150758
v -0.081525 0.524207 -0.186256
v -0.092257 0.576856 -0.212463
v -0.092257 0.576856 0.250147
v -0.081525 0.524207 0.223940
v -0.081615 0.526579 -0.186539
v -0.083442 0.498020 -0.193157
v 0.002500 0.498020 -0.193157
v 0.002500 0.526579 -0.186539
v 0.086615 0.526579 -0.186539
v 0.088442 0.498020 -0.193157
v -0.118164 0.526579 0.125100
v 0.123164 0.526579 0.125100
v -0.118164 0.526579 0.018850
v 0.123164 0.526579 0.018850
v 0.123164 0.526579 -0.087400
v 0.002500 0.526579 0.224239
v -0.081615 0.526579 0.224239
v 0.086615 0.526579 0.224239
v -0.118164 0.526579 -0.087400
v 0.002500 0.526579 -0.186539
v -0.081615 0.526579 -0.186539
v 0.086615 0.526579 -0.186539
v 0.225833 0.274330 0.018850
v 0.225822 0.274330 0.008078
v 0.225176 0.277352 0.018850
v 0.225264 0.265051 -0.001748
v 0.224610 0.279909 0.029635
v 0.224277 0.248444 -0.006701
v 0.225801 0.274331 0.051192
v 0.224255 0.248444 0.065971
v 0.225242 0.265051 0.061018
v 0.220799 0.189181 0.018850
v 0.221009 0.193170 -0.006319
v 0.220214 0.181716 0.065971
v 0.215256 0.096317 -0.006397
v 0.220832 0.190518 -0.027055
v 0.214997 0.091046 0.018850
v 0.214876 0.091704 -0.037737
v 0.220301 0.182263 -0.069300
v 0.214463 0.086339 -0.065039
v 0.214649 0.086335 0.041414
v 0.219515 0.170366 -0.104504
v 0.214575 0.086336 0.065971
v 0.214292 0.086342 -0.121530
v 0.214945 0.083450 -0.079739
v 0.215273 0.081264 -0.103047
v 0.218541 0.156042 -0.134852
v 0.215142 0.101172 -0.141893
v 0.216429 0.122537 -0.151119
v 0.217603 0.141475 -0.148448
v 0.215487 0.081208 0.065971
v 0.215623 0.080375 0.069959
v 0.220196 0.181482 0.067442
v 0.218629 0.157989 0.125757
v 0.215769 0.112679 0.185331
v 0.218573 0.063174 0.106039
v 0.214157 0.086345 0.203449
v 0.223358 0.035904 0.127855
v 0.218747 0.060238 0.221411
v 0.227516 0.010732 0.233577
v 0.227774 0.011152 0.123659
v 0.234032 -0.025767 0.225606
v 0.239930 -0.058071 0.197917
v 0.244477 -0.081565 0.155544
v 0.231507 -0.008147 0.088838
v 0.246180 -0.089820 0.123559
v 0.246539 -0.089820 0.065971
v 0.231768 -0.008800 0.065971
v 0.245624 -0.094991 0.103522
v 0.245577 -0.097116 0.065971
v 0.232178 -0.009825 0.030103
v 0.245541 -0.098766 0.036816
v 0.246832 -0.089821 0.018850
v 0.232424 -0.010791 0.018850
v 0.245443 -0.100363 0.018850
v 0.232747 -0.012985 -0.006701
v 0.246673 -0.089820 -0.006701
v 0.244973 -0.102634 -0.006701
v 0.233331 -0.016957 -0.052965
v 0.244731 -0.103801 -0.019822
v 0.236464 -0.036257 -0.111280
v 0.242647 -0.117645 -0.058838
v 0.245671 -0.089820 -0.167774
v 0.242896 -0.074015 -0.160366
v 0.238320 -0.149110 -0.081493
v 0.240519 -0.127715 -0.185538
v 0.233019 -0.183933 -0.188894
v 0.234347 -0.178898 -0.083591
v 0.225581 -0.240570 -0.173371
v 0.231146 -0.204069 -0.067649
v 0.221092 -0.276284 -0.141432
v 0.227890 -0.231339 -0.021500
v 0.222064 -0.276365 -0.006701
v 0.224610 -0.292172 -0.127223
v 0.227459 -0.235425 -0.006701
v 0.231112 -0.320282 -0.062614
v 0.235366 -0.338321 -0.009753
v 0.226716 -0.242478 0.018850
v 0.235470 -0.338704 -0.006701
v 0.222249 -0.276381 0.018850
v 0.224993 -0.253576 0.059051
v 0.236342 -0.341915 0.018850
v 0.252900 -0.419699 -0.006701
v 0.221909 -0.276352 0.065971
v 0.224923 -0.253722 0.065971
v 0.224593 -0.254414 0.098487
v 0.253070 -0.419703 0.018850
v 0.252607 -0.422888 -0.006700
v 0.250786 -0.442952 -0.003329
v 0.249504 -0.457788 0.008979
v 0.249325 -0.460447 0.018850
v 0.248984 -0.463353 0.029635
v 0.249354 -0.457788 0.050291
v 0.250634 -0.442952 0.062599
v 0.252463 -0.422888 0.065971
v 0.252757 -0.419696 0.065971
v 0.237304 -0.347836 0.065971
v 0.237394 -0.348390 0.070378
v 0.236221 -0.345033 0.138763
v 0.220660 -0.276246 0.238989
v 0.225957 -0.241828 0.141280
v 0.226949 -0.231759 0.189107
v 0.225640 -0.239730 0.223089
v 0.222212 -0.264513 0.240523
v 0.233391 -0.334125 0.205888
v 0.221958 -0.282298 0.240290
v 0.225901 -0.300563 0.240290
v 0.086615 0.526579 0.224239
v 0.088442 0.498021 0.230857
v 0.125784 0.498021 0.128523
v 0.123164 0.526579 0.125100
v 0.077137 0.473450 0.204983
v 0.109568 0.473449 0.115138
v 0.086615 0.526579 -0.186539
v 0.077137 0.473449 -0.167283
v 0.088442 0.498020 -0.193157
v 0.125784 0.498020 -0.090823
v 0.123164 0.526579 -0.087400
v 0.109568 0.473449 -0.077438
v 0.125784 0.498020 0.018850
v 0.123164 0.526579 0.018850
v 0.109568 0.473449 0.018850
v 0.086615 0.526579 0.224239
v 0.002500 0.526579 0.224239
v 0.002500 0.498021 0.230857
v -0.081615 0.526579 0.224239
v 0.088442 0.498021 0.230857
v -0.083442 0.498021 0.230857
v -0.104568 0.473449 0.115138
v 0.109568 0.473449 0.115138
v 0.002500 0.473450 0.204983
v -0.072137 0.473450 0.204983
v 0.077137 0.473450 0.204983
v -0.104568 0.473449 0.018850
v 0.109568 0.473449 0.018850
v 0.109568 0.473449 -0.077438
v -0.104568 0.473449 -0.077438
v 0.002500 0.473449 -0.167283
v 0.077137 0.473449 -0.167283
v -0.072137 0.473449 -0.167283
v 0.002500 0.498021 0.230857
v 0.088442 0.498021 0.230857
v 0.077137 0.473450 0.204983
v 0.002500 0.473450 0.204983
v -0.072137 0.473450 0.204983
v -0.083442 0.498021 0.230857
v -0.072137 0.473449 -0.167283
v -0.083442 0.498020 -0.193157
v 0.002500 0.498020 -0.193157
v 0.002500 0.473449 -0.167283
v 0.077137 0.473449 -0.167283
v 0.088442 0.498020 -0.193157
v -0.226879 -0.008800 -0.019487
v -0.241593 -0.089820 -0.019487
v -0.227241 -0.009825 0.016381
v -0.241235 -0.089820 -0.077074
v -0.240677 -0.094990 -0.057038
v -0.240630 -0.097116 -0.019487
v -0.241832 -0.089821 0.018850
v -0.227287 -0.010037 0.018850
v -0.227659 -0.012985 0.053184
v -0.240596 -0.098766 0.009668
v -0.241618 -0.089820 0.053184
v -0.228092 -0.016957 0.099449
v -0.231236 -0.036256 0.157764
v -0.240546 -0.099582 0.018850
v -0.221397 -0.244902 0.018850
v -0.239927 -0.102634 0.053184
v -0.222403 -0.235425 0.053184
v -0.239678 -0.103801 0.066305
v -0.237592 -0.117645 0.105322
v -0.240616 -0.089819 0.214258
v -0.237791 -0.074014 0.206849
v -0.233265 -0.149110 0.127977
v -0.235464 -0.127714 0.232022
v -0.227964 -0.183932 0.235378
v -0.229302 -0.178898 0.130075
v -0.220526 -0.240569 0.219855
v -0.226096 -0.204070 0.114132
v -0.216029 -0.276278 0.187921
v -0.222834 -0.231339 0.067984
v -0.217001 -0.276360 0.053184
v -0.219550 -0.292172 0.173706
v -0.226055 -0.320281 0.109098
v -0.230311 -0.338321 0.056237
v -0.230415 -0.338704 0.053184
v -0.217249 -0.276381 0.018850
v -0.220030 -0.253576 -0.012567
v -0.219960 -0.253722 -0.019487
v -0.216972 -0.276358 -0.019487
v -0.219657 -0.254414 -0.052003
v -0.231579 -0.343018 0.018850
v -0.247842 -0.419698 0.053184
v -0.248070 -0.419703 0.018850
v -0.247549 -0.422888 0.053184
v -0.245727 -0.442952 0.049812
v -0.244446 -0.457788 0.037504
v -0.244108 -0.462813 0.018850
v -0.244044 -0.463353 0.016848
v -0.244414 -0.457788 -0.003807
v -0.245694 -0.442952 -0.016115
v -0.247521 -0.422888 -0.019487
v -0.247816 -0.419697 -0.019487
v -0.232353 -0.347836 -0.019487
v -0.232441 -0.348390 -0.023895
v -0.231234 -0.345033 -0.092279
v -0.215714 -0.276251 -0.193806
v -0.228427 -0.334125 -0.159404
v -0.220957 -0.300564 -0.193806
v -0.221021 -0.241829 -0.094796
v -0.222013 -0.231759 -0.142623
v -0.220704 -0.239731 -0.176605
v -0.217282 -0.264482 -0.193806
v -0.220833 0.274330 0.018850
v -0.220813 0.274330 0.038405
v -0.219724 0.279434 0.018850
v -0.220255 0.265051 0.048231
v -0.219619 0.279909 0.016848
v -0.220809 0.274331 -0.004709
v -0.220229 0.265051 -0.014535
v -0.219268 0.248444 0.053184
v -0.219204 0.248444 -0.019487
v -0.215716 0.187790 0.018850
v -0.215976 0.193170 0.053184
v -0.215252 0.181716 -0.019487
v -0.210208 0.096317 0.053184
v -0.215756 0.190518 0.073538
v -0.209839 0.091704 0.084221
v -0.215136 0.182264 0.115783
v -0.209436 0.086339 0.111521
v -0.214341 0.170367 0.150987
v -0.209265 0.086343 0.168016
v -0.209906 0.083450 0.126223
v -0.210224 0.081265 0.149531
v -0.213421 0.156043 0.181335
v -0.210086 0.101173 0.188376
v -0.211341 0.122538 0.197602
v -0.212508 0.141476 0.194932
v -0.209888 0.089212 0.018850
v -0.209614 0.086336 0.053184
v -0.209676 0.086334 0.005067
v -0.209718 0.086333 0.018850
v -0.209601 0.086336 -0.019487
v -0.215237 0.181482 -0.020958
v -0.213804 0.157989 -0.079273
v -0.210860 0.112678 -0.138847
v -0.209184 0.086344 -0.156966
v -0.210533 0.081208 -0.019487
v -0.210659 0.080375 -0.023475
v -0.213600 0.063174 -0.059555
v -0.218385 0.035904 -0.081371
v -0.213773 0.060237 -0.174927
v -0.222542 0.010731 -0.187094
v -0.222897 0.011152 -0.077176
v -0.229058 -0.025768 -0.179122
v -0.235007 -0.058072 -0.151433
v -0.239537 -0.081565 -0.109060
v -0.226618 -0.008147 -0.042354
v -0.081615 0.526579 0.224239
v -0.072137 0.473450 0.204983
v -0.083442 0.498021 0.230857
v -0.120784 0.498021 0.128523
v -0.118164 0.526579 0.125100
v -0.104568 0.473449 0.115138
v -0.120784 0.498020 0.018850
v -0.118164 0.526579 0.018850
v -0.104568 0.473449 0.018850
v -0.118164 0.526579 -0.087400
v -0.104568 0.473449 -0.077438
v -0.120784 0.498020 -0.090823
v -0.081615 0.526579 -0.186539
v -0.072137 0.473449 -0.167283
v -0.083442 0.498020 -0.193157
vn -0.0000 0.1182 -0.9930
vn 0.7882 0.1025 -0.6068
vn 0.7240 -0.3935 -0.5665
vn -0.0000 -0.4566 -0.8897
vn 0.3151 -0.9057 -0.2835
vn -0.0000 -0.9591 -0.2830
vn -0.3151 -0.9057 -0.2835
vn -0.7240 -0.3934 -0.5665
vn -0.7882 0.1025 -0.6068
vn -0.7609 0.0863 -0.6431
vn -0.0000 0.0785 -0.9969
vn 0.7609 0.0863 -0.6431
vn -0.0000 0.1025 -0.9947
vn 0.7877 0.0472 -0.6143
vn 0.7590 0.1186 -0.6403
vn -0.7877 0.0473 -0.6143
vn -0.7590 0.1185 -0.6403
vn -0.0000 0.1415 -0.9899
vn -0.0000 0.1657 -0.9862
vn -0.7785 0.1337 -0.6132
vn 0.7785 0.1336 -0.6132
vn -0.6459 0.5592 -0.5197
vn 0.6459 0.5592 -0.5197
vn -0.0000 0.6149 -0.7886
vn -0.0000 -0.6706 -0.7418
vn -0.6846 -0.3934 -0.6136
vn -0.5215 -0.6874 -0.5055
vn -0.0000 -0.3929 -0.9196
vn -0.5042 0.7011 -0.5042
vn -0.0000 0.7265 -0.6872
vn 0.5042 0.7011 -0.5042
vn 0.6846 -0.3934 -0.6136
vn 0.5215 -0.6874 -0.5055
vn -0.3620 0.7633 -0.5351
vn -0.6942 0.7177 -0.0551
vn -0.6764 0.7315 -0.0864
vn -0.3467 0.7643 -0.5437
vn -0.0000 0.8284 -0.5601
vn 0.3467 0.7643 -0.5437
vn 0.3620 0.7633 -0.5351
vn -0.6941 0.7178 0.0551
vn -0.3620 0.7633 0.5351
vn -0.6759 0.7309 0.0942
vn 0.6941 0.7178 -0.0551
vn -0.3467 0.7643 0.5437
vn 0.6764 0.7314 -0.0865
vn -0.0000 0.8284 0.5601
vn 0.3467 0.7643 0.5437
vn 0.3620 0.7633 0.5351
vn 0.6942 0.7177 0.0551
vn 0.6759 0.7309 0.0943
vn 0.7021 0.7021 0.1184
vn 0.4099 0.8436 0.3469
vn 0.4964 0.8118 0.3074
vn -0.0000 0.8311 0.5561
vn -0.0000 0.8283 0.5603
vn -0.4964 0.8118 0.3074
vn -0.0000 0.9612 0.2758
vn -0.4099 0.8436 0.3469
vn -0.7021 0.7021 0.1184
vn 0.1257 0.9740 0.1885
vn 0.5757 0.8122 0.0947
vn 0.4024 0.9155 -0.0000
vn 0.7021 0.7021 -0.1184
vn 0.4088 0.8413 -0.3538
vn 0.1257 0.9740 -0.1885
vn 0.5757 0.8122 -0.0946
vn 0.4964 0.8118 -0.3074
vn -0.0000 0.9612 -0.2758
vn -0.0000 0.8311 -0.5561
vn -0.0000 0.8286 -0.5598
vn -0.4964 0.8118 -0.3074
vn -0.4088 0.8413 -0.3538
vn -0.7021 0.7021 -0.1184
vn -0.4024 0.9155 -0.0000
vn -0.1257 0.9740 -0.1885
vn -0.5757 0.8122 -0.0947
vn -0.1257 0.9740 0.1885
vn -0.5757 0.8122 0.0947
vn -0.5042 0.7012 -0.5042
vn -0.0000 0.9007 -0.4345
vn -0.3857 0.8582 -0.3386
vn -0.6994 0.7074 -0.1022
vn 0.5042 0.7012 -0.5042
vn 0.3857 0.8582 -0.3386
vn -0.0000 0.7266 -0.6871
vn 0.6994 0.7074 -0.1022
vn -0.0000 0.6151 -0.7885
vn 0.6459 0.5591 -0.5198
vn -0.6459 0.5591 -0.5198
vn -0.0000 0.6151 0.7885
vn 0.6459 0.5591 0.5198
vn 0.3857 0.8582 0.3386
vn -0.3857 0.8582 0.3386
vn -0.6459 0.5591 0.5198
vn -0.0000 0.9007 0.4345
vn 0.5042 0.7012 0.5042
vn -0.5042 0.7012 0.5042
vn -0.0000 0.7266 0.6871
vn -0.7302 0.6832 -0.0000
vn -0.8910 0.4337 -0.1341
vn -0.9439 0.3303 -0.0000
vn -0.8910 0.4337 0.1340
vn -0.6994 0.7074 0.1022
vn 0.8910 0.4337 -0.1340
vn 0.7302 0.6832 -0.0000
vn 0.9439 0.3303 -0.0000
vn 0.8910 0.4337 0.1341
vn 0.6994 0.7074 0.1022
vn 0.8345 0.5511 -0.0000
vn 0.6941 0.7177 -0.0551
vn 0.6941 0.7177 0.0551
vn 0.7021 0.7021 0.1183
vn 0.7022 0.7021 0.1183
vn 0.7228 0.6910 -0.0000
vn 0.5757 0.8121 0.0946
vn 0.4026 0.9154 -0.0000
vn 0.7021 0.7021 -0.1183
vn 0.7022 0.7021 -0.1183
vn 0.5757 0.8121 -0.0946
vn 0.9110 0.3927 -0.1257
vn 0.3858 0.8582 -0.3386
vn 0.6995 0.7073 -0.1022
vn 0.9920 0.1260 -0.0000
vn 0.9878 0.0790 -0.1344
vn 0.9290 0.3701 -0.0000
vn 0.9772 0.2124 -0.0002
vn 0.9980 -0.0628 -0.0000
vn 0.9771 0.2128 -0.0000
vn 0.9980 -0.0629 -0.0000
vn 0.9873 0.0711 -0.1422
vn 0.9980 -0.0628 -0.0001
vn 0.9947 0.1026 -0.0079
vn 0.9897 0.0236 -0.1414
vn 0.9835 0.1810 -0.0079
vn 0.9835 0.1809 -0.0078
vn 0.9899 0.1414 -0.0079
vn 0.9992 0.0393 -0.0079
vn 0.9910 -0.1337 -0.0078
vn 0.9910 -0.1337 -0.0079
vn 0.9888 0.0471 -0.1413
vn 0.9969 0.0785 -0.0079
vn 0.9771 0.2127 -0.0079
vn 0.9878 0.0632 -0.1422
vn 0.9771 0.2127 -0.0078
vn 0.9980 0.0629 -0.0079
vn 0.9771 0.2128 -0.0079
vn 0.9955 -0.0948 -0.0079
vn 0.9560 -0.2607 -0.1343
vn 0.7241 -0.3934 -0.5665
vn 0.9696 -0.2448 -0.0000
vn 0.9955 -0.0948 -0.0000
vn 0.9955 -0.0948 0.0079
vn 0.9955 -0.0947 0.0079
vn 0.3149 -0.9058 -0.2836
vn 0.6214 -0.7787 -0.0865
vn 0.9560 -0.2607 0.1343
vn 0.5745 -0.8185 -0.0000
vn 0.6214 -0.7787 0.0866
vn 0.9878 0.0632 0.1422
vn 0.9980 0.0628 0.0078
vn 0.9771 0.2128 0.0079
vn 0.9771 0.2127 0.0078
vn 0.9771 0.2127 0.0079
vn 0.9207 0.2597 0.2912
vn 0.7241 -0.3934 0.5665
vn 0.7609 0.0863 0.6431
vn 0.7882 0.1025 0.6068
vn 0.3149 -0.9058 0.2836
vn 0.9480 0.0548 0.3134
vn 0.9479 -0.1580 0.2765
vn 0.7877 0.0473 -0.6143
vn 0.7785 0.1337 -0.6133
vn 0.6459 0.5592 -0.5198
vn 0.9897 0.0236 0.1414
vn 0.7877 0.0473 0.6143
vn 0.7551 0.1180 0.6449
vn 0.9980 0.0629 -0.0000
vn 0.9899 0.1414 0.0079
vn 0.9835 0.1809 0.0078
vn 0.9835 0.1809 0.0079
vn 0.9835 0.1810 -0.0000
vn 0.9835 0.1810 0.0079
vn 0.5215 -0.6873 -0.5056
vn 0.7330 -0.6699 -0.1182
vn 0.8400 -0.5260 -0.1335
vn 0.7708 -0.6371 -0.0000
vn 0.9459 -0.2917 -0.1419
vn 0.8847 -0.4661 -0.0000
vn 0.8400 -0.5260 0.1335
vn 0.7330 -0.6699 0.1182
vn 0.8910 0.4338 -0.1340
vn 0.9633 -0.2685 -0.0000
vn 0.7303 0.6831 -0.0000
vn 0.9459 -0.2917 0.1419
vn 0.8910 0.4338 0.1340
vn 0.6995 0.7073 0.1022
vn 0.9110 0.3927 0.1257
vn 0.5042 0.7011 0.5042
vn 0.3858 0.8582 0.3385
vn 0.9878 0.0790 0.1344
vn 0.9980 -0.0628 0.0001
vn 0.6459 0.5592 0.5198
vn 0.7785 0.1337 0.6133
vn 0.9873 0.0711 0.1422
vn 0.9992 0.0393 -0.0000
vn 0.9848 0.1733 0.0079
vn 0.9848 0.1734 0.0079
vn 0.9975 -0.0707 0.0079
vn 0.9910 -0.1336 0.0078
vn 0.9910 -0.1337 0.0079
vn 0.9910 -0.1336 0.0079
vn 0.9910 -0.1337 -0.0000
vn 0.9910 -0.1336 -0.0078
vn 0.6846 -0.3934 0.6137
vn 0.5215 -0.6873 0.5056
vn -0.0000 0.1182 0.9930
vn 0.7240 -0.3934 0.5665
vn -0.0000 -0.4566 0.8896
vn 0.3151 -0.9057 0.2835
vn -0.0000 -0.9591 0.2830
vn -0.3151 -0.9057 0.2835
vn -0.7240 -0.3935 0.5665
vn -0.7882 0.1025 0.6068
vn -0.0000 0.0785 0.9969
vn -0.0000 0.1026 0.9947
vn -0.7609 0.0863 0.6431
vn -0.0000 0.1415 0.9899
vn -0.0000 0.1657 0.9862
vn -0.7877 0.0472 0.6143
vn -0.7551 0.1180 0.6449
vn -0.7785 0.1336 0.6133
vn -0.6459 0.5592 0.5197
vn -0.0000 0.6149 0.7886
vn 0.6459 0.5592 0.5197
vn -0.5042 0.7011 0.5042
vn -0.0000 0.7265 0.6872
vn -0.0000 -0.3929 0.9196
vn 0.6846 -0.3934 0.6136
vn -0.0000 -0.6706 0.7418
vn 0.5215 -0.6874 0.5055
vn -0.5215 -0.6874 0.5055
vn -0.6846 -0.3934 0.6136
vn -0.0000 -1.0000 -0.0079
vn 0.3150 -0.9058 -0.2835
vn -0.0000 -0.9591 -0.2829
vn -0.0000 -1.0000 -0.0000
vn 0.3150 -0.9058 0.2835
vn -0.0000 -1.0000 0.0079
vn -0.0000 -0.9591 0.2829
vn -0.3150 -0.9058 0.2835
vn -0.6214 -0.7787 0.0865
vn -0.5745 -0.8185 -0.0000
vn -0.6214 -0.7787 -0.0866
vn -0.3150 -0.9058 -0.2835
vn -0.7329 -0.6700 -0.1183
vn -0.5112 -0.7867 -0.3461
vn -0.5214 -0.6874 -0.5056
vn -0.0000 -0.8056 -0.5924
vn -0.0000 -0.6708 -0.7417
vn 0.5214 -0.6874 -0.5056
vn 0.5112 -0.7867 -0.3462
vn 0.7329 -0.6700 -0.1183
vn 0.7329 -0.6700 0.1183
vn 0.5112 -0.7867 0.3461
vn 0.5214 -0.6874 0.5056
vn -0.0000 -0.8056 0.5924
vn -0.0000 -0.6708 0.7417
vn -0.5214 -0.6874 0.5056
vn -0.5112 -0.7867 0.3462
vn -0.7329 -0.6700 0.1183
vn -0.8345 0.5510 -0.0000
vn -0.6764 0.7315 -0.0865
vn -0.6941 0.7177 -0.0551
vn -0.8345 0.5511 -0.0000
vn -0.6759 0.7309 0.0943
vn -0.6941 0.7177 0.0551
vn -0.7303 0.6832 -0.0000
vn -0.7021 0.7021 -0.1183
vn -0.7022 0.7021 -0.1183
vn -0.7228 0.6910 -0.0000
vn -0.5757 0.8121 -0.0946
vn -0.4026 0.9154 -0.0000
vn -0.5757 0.8121 0.0946
vn -0.7021 0.7021 0.1183
vn -0.7022 0.7021 0.1183
vn -0.3149 -0.9058 0.2836
vn -0.9560 -0.2607 0.1343
vn -0.7241 -0.3934 0.5665
vn -0.9697 -0.2445 -0.0000
vn -0.9560 -0.2607 -0.1343
vn -0.3149 -0.9058 -0.2836
vn -0.7241 -0.3934 -0.5665
vn -0.9878 0.0632 -0.1423
vn -0.9897 0.0236 -0.1414
vn -0.7590 0.1186 -0.6402
vn -0.9878 0.0790 -0.1343
vn -0.7785 0.1336 -0.6133
vn -0.6459 0.5592 -0.5198
vn -0.9873 0.0711 -0.1422
vn -0.9110 0.3927 -0.1257
vn -0.3858 0.8582 -0.3385
vn -0.6995 0.7073 -0.1022
vn -0.9878 0.0632 0.1422
vn -0.9889 0.0471 0.1413
vn -0.9771 0.2127 0.0078
vn -0.9969 0.0785 0.0079
vn -0.9910 -0.1338 0.0079
vn -0.9910 -0.1337 0.0078
vn -0.9897 0.0236 0.1414
vn -0.9992 0.0393 0.0079
vn -0.9849 0.1734 0.0001
vn -0.7877 0.0473 0.6143
vn -0.9873 0.0711 0.1422
vn -0.9849 0.1733 -0.0000
vn -0.9878 0.0790 0.1344
vn -0.7785 0.1337 0.6133
vn -0.6459 0.5592 0.5198
vn -0.9110 0.3927 0.1257
vn -0.9920 0.1260 -0.0000
vn -0.9980 -0.0628 -0.0000
vn -0.9980 -0.0629 -0.0000
vn -0.9980 -0.0628 0.0001
vn -0.9947 0.1026 -0.0000
vn -0.9849 0.1734 -0.0000
vn -0.9899 0.1414 -0.0000
vn -0.9985 0.0550 -0.0000
vn -0.9910 -0.1336 0.0078
vn -0.9910 -0.1337 0.0079
vn -0.9910 -0.1336 0.0079
vn -0.9835 0.1810 -0.0079
vn -0.9835 0.1809 -0.0079
vn -0.9835 0.1809 -0.0078
vn -0.9955 -0.0947 -0.0079
vn -0.9955 -0.0948 -0.0079
vn -0.9955 -0.0948 -0.0000
vn -0.9955 -0.0948 0.0079
vn -0.9980 0.0629 -0.0079
vn -0.9980 0.0628 0.0078
vn -0.9771 0.2127 -0.0079
vn -0.9771 0.2128 -0.0079
vn -0.9771 0.2127 -0.0078
vn -0.9771 0.2127 0.0079
vn -0.9889 0.0471 -0.1413
vn -0.9992 0.0395 -0.0078
vn -0.9910 -0.1336 -0.0078
vn -0.9910 -0.1337 -0.0079
vn -0.9975 -0.0707 -0.0079
vn -0.9910 -0.1337 -0.0078
vn -0.9848 0.1733 -0.0079
vn -0.9848 0.1734 -0.0078
vn -0.9992 0.0393 -0.0000
vn -0.9290 0.3701 -0.0000
vn -0.9771 0.2128 0.0001
vn -0.9771 0.2126 0.0001
vn -0.7303 0.6831 -0.0000
vn -0.6995 0.7073 0.1022
vn -0.9633 -0.2685 -0.0000
vn -0.8910 0.4338 -0.1340
vn -0.8910 0.4338 0.1340
vn -0.9459 -0.2917 -0.1419
vn -0.9459 -0.2917 0.1419
vn -0.8847 -0.4661 -0.0000
vn -0.8400 -0.5260 0.1335
vn -0.3858 0.8582 0.3386
vn -0.7708 -0.6371 -0.0000
vn -0.7330 -0.6699 0.1182
vn -0.8400 -0.5260 -0.1335
vn -0.7330 -0.6699 -0.1182
vn -0.6846 -0.3934 -0.6137
vn -0.5215 -0.6873 -0.5056
vn -0.5215 -0.6873 0.5056
vn -0.7316 0.1966 -0.6528
vn -0.0000 -0.3632 -0.9317
vn -0.7309 -0.3301 -0.5973
vn -0.0000 0.2277 -0.9737
vn 0.7316 0.1966 -0.6528
vn 0.7309 -0.3301 -0.5973
vn -0.0000 1.0000 -0.0000
vn 0.9969 0.0784 -0.0000
vn 1.0000 0.0079 -0.0000
vn 0.9772 0.2124 0.0001
vn 0.9771 0.2127 0.0001
vn 1.0000 -0.0000 -0.0000
vn 0.9980 -0.0627 -0.0001
vn 0.9997 -0.0236 -0.0000
vn 1.0000 -0.0079 -0.0000
vn 0.9835 0.1809 -0.0000
vn 0.9969 0.0785 0.0078
vn 0.9930 0.1182 0.0079
vn 0.9997 0.0236 0.0079
vn 0.9910 -0.1337 0.0078
vn 0.9997 0.0238 -0.0000
vn 0.9997 0.0236 -0.0078
vn 0.9848 0.1733 -0.0079
vn 0.9999 0.0078 -0.0079
vn 1.0000 -0.0000 -0.0079
vn 0.9992 0.0392 -0.0079
vn 0.9992 0.0398 -0.0001
vn 0.9771 0.2127 -0.0000
vn 0.9992 0.0392 0.0080
vn 0.9980 0.0628 -0.0000
vn 0.9980 0.0629 0.0079
vn 0.9992 0.0394 0.0079
vn 0.9910 -0.1338 0.0079
vn 0.9613 -0.2364 0.1418
vn 0.7316 0.1967 0.6528
vn 0.7325 -0.3386 0.5906
vn 0.9826 0.1101 0.1493
vn 0.4482 -0.7390 0.5031
vn 0.7964 -0.5914 0.1262
vn 0.9613 -0.2364 -0.1418
vn 0.7310 -0.3301 -0.5973
vn 0.4482 -0.7390 -0.5031
vn 0.9826 0.1101 -0.1494
vn 0.7964 -0.5914 -0.1262
vn 0.9715 -0.2370 -0.0000
vn 0.9955 0.0948 -0.0000
vn 0.8344 -0.5512 -0.0000
vn 0.7316 0.1966 0.6528
vn -0.0000 0.2277 0.9737
vn -0.0000 -0.3632 0.9317
vn -0.7316 0.1966 0.6528
vn 0.7324 -0.3386 0.5907
vn -0.7324 -0.3386 0.5907
vn 0.4481 -0.7390 0.5032
vn -0.0000 -0.7265 0.6871
vn -0.4481 -0.7390 0.5031
vn -0.7325 -0.3386 0.5906
vn -0.4481 -0.7390 -0.5031
vn -0.7310 -0.3301 -0.5972
vn -0.0000 -0.7266 -0.6871
vn 0.4481 -0.7390 -0.5031
vn 0.7310 -0.3300 -0.5973
vn -0.9997 0.0236 -0.0078
vn -0.9930 0.1182 -0.0079
vn -0.9997 0.0237 -0.0000
vn -0.9835 0.1809 -0.0000
vn -0.9835 0.1810 0.0079
vn -0.9997 0.0237 0.0077
vn -0.9835 0.1809 0.0079
vn -0.9835 0.1809 0.0078
vn -0.9910 -0.1337 -0.0000
vn -0.9999 0.0079 0.0079
vn -1.0000 -0.0000 0.0079
vn -0.9771 0.2128 0.0079
vn -0.9992 0.0396 -0.0000
vn -0.9992 0.0395 -0.0077
vn -0.9771 0.2127 -0.0000
vn -0.9980 0.0628 -0.0000
vn -0.9980 0.0628 -0.0078
vn -0.9992 0.0396 -0.0075
vn -0.9969 0.0785 -0.0000
vn -1.0000 0.0078 -0.0000
vn -0.9772 0.2123 -0.0001
vn -0.9771 0.2127 -0.0001
vn -0.9997 -0.0236 -0.0000
vn -1.0000 -0.0079 -0.0000
vn -0.9980 0.0629 -0.0000
vn -0.9613 -0.2364 0.1418
vn -0.4482 -0.7390 0.5031
vn -0.9826 0.1101 0.1494
vn -0.7964 -0.5914 0.1262
vn -0.9715 -0.2370 -0.0000
vn -0.9955 0.0948 -0.0000
vn -0.8346 -0.5508 -0.0000
vn -0.9826 0.1101 -0.1494
vn -0.7964 -0.5914 -0.1262
vn -0.9613 -0.2364 -0.1418
vn -0.7316 0.1967 -0.6528
vn -0.4482 -0.7390 -0.5031
vn -0.7310 -0.3301 -0.5973
vt 8.000030 -51.420502
vt 7.832330 -51.420200
vt 7.840650 -51.551800
vt 8.000030 -51.550598
vt 7.871360 -51.663101
vt 8.000030 -51.664299
vt 8.128690 -51.663101
vt 8.159410 -51.551800
vt 8.167720 -51.420200
vt 8.146110 -51.276699
vt 8.000030 -51.090199
vt 7.853940 -51.276699
vt 8.000030 -51.277100
vt 7.835550 -51.090099
vt 7.855590 -50.914001
vt 8.164510 -51.090099
vt 8.144470 -50.914001
vt 8.000030 -50.914001
vt 8.000030 -50.726101
vt 8.154540 -50.726002
vt 7.845520 -50.726002
vt 8.141650 -50.635502
vt 7.858410 -50.635502
vt 8.000030 -50.635700
vt 8.000030 -50.423500
vt 8.084030 -50.476200
vt 8.094760 -50.423500
vt 8.000030 -50.476200
vt 8.075430 -50.524399
vt 8.000030 -50.524399
vt 7.924630 -50.524399
vt 7.916030 -50.476200
vt 7.905300 -50.423500
vt 7.747350 -51.103500
vt 7.830400 -51.192600
vt 7.845440 -51.175598
vt 7.722780 -51.113602
vt 7.715260 -51.000000
vt 7.687560 -51.000000
vt 7.722780 -50.886501
vt 7.747350 -50.896599
vt 8.169600 -51.192600
vt 8.252640 -51.103500
vt 8.154560 -51.175598
vt 7.830400 -50.807400
vt 8.277220 -51.113602
vt 7.845440 -50.824501
vt 8.284740 -51.000000
vt 8.312440 -51.000000
vt 8.277220 -50.886501
vt 8.252640 -50.896599
vt 8.169600 -50.807400
vt 8.154560 -50.824501
vt 7.825770 -51.071400
vt 7.803630 -51.000000
vt 7.893410 -51.121101
vt 7.885310 -51.000000
vt 7.825770 -50.928699
vt 7.898240 -51.041698
vt 7.937740 -51.070702
vt 8.000000 -51.059799
vt 8.174240 -51.071400
vt 8.106590 -51.121101
vt 8.101760 -51.041698
vt 8.062260 -51.070702
vt 8.114690 -51.000000
vt 8.196370 -51.000000
vt 8.174240 -50.928699
vt 8.000000 -50.940201
vt 8.101760 -50.958401
vt 8.106590 -50.879002
vt 8.062260 -50.929298
vt 7.898240 -50.958401
vt 7.937740 -50.929298
vt 7.893410 -50.879002
vt 7.811960 -51.075401
vt 7.697040 -51.000000
vt 7.697040 -51.109001
vt 7.843260 -51.156399
vt 7.811960 -50.924599
vt 7.697040 -50.890999
vt 7.811960 -51.000000
vt 7.843260 -50.843700
vt 7.606390 -51.000000
vt 7.605380 -50.858398
vt 7.605380 -51.141602
vt 8.393610 -51.000000
vt 8.394620 -50.858398
vt 8.302950 -50.890999
vt 8.302950 -51.109001
vt 8.394620 -51.141602
vt 8.302950 -51.000000
vt 8.188040 -50.924599
vt 8.188040 -51.075401
vt 8.188040 -51.000000
vt 8.000000 -51.156399
vt 7.902730 -51.108200
vt 8.000000 -51.108200
vt 8.097270 -51.108200
vt 8.156740 -51.156399
vt 7.902730 -50.891899
vt 8.000000 -50.843700
vt 8.000000 -50.891899
vt 8.097270 -50.891899
vt 8.156740 -50.843700
vt 8.154560 -50.330299
vt 8.000000 -50.396000
vt 8.169600 -50.348000
vt 8.000000 -50.374100
vt 7.845440 -50.330299
vt 7.830400 -50.348000
vt 8.106590 -50.393002
vt 8.000000 -50.423199
vt 8.062260 -50.449600
vt 8.000000 -50.467300
vt 7.893410 -50.393002
vt 7.937740 -50.449600
vt 8.204170 -50.635300
vt 8.302950 -50.558300
vt 8.156740 -50.558300
vt 8.010770 -50.726002
vt 8.223850 -50.725899
vt 8.000000 -50.635399
vt 8.000000 -50.722900
vt 8.020600 -50.735199
vt 7.989210 -50.720402
vt 8.025550 -50.751801
vt 7.967660 -50.726002
vt 8.025170 -50.807098
vt 8.045910 -50.809799
vt 8.088150 -50.818001
vt 8.123350 -50.829899
vt 8.153700 -50.844200
vt 8.167300 -50.858799
vt 8.212760 -50.913898
vt 8.416200 -50.914001
vt 8.169970 -50.877701
vt 8.160740 -50.899101
vt 8.140380 -50.913898
vt 8.244510 -51.090099
vt 8.130130 -51.036499
vt 8.121900 -50.918999
vt 8.179220 -51.074299
vt 8.071810 -51.017200
vt 8.098590 -50.916801
vt 8.083890 -50.913898
vt 8.186620 -51.090099
vt 8.204390 -51.127998
vt 8.207740 -51.184200
vt 8.220140 -51.276501
vt 8.192220 -51.240898
vt 8.439790 -51.276699
vt 8.160280 -51.276600
vt 8.146070 -51.292500
vt 8.250970 -51.419998
vt 8.081460 -51.320599
vt 8.025550 -51.419998
vt 8.028600 -51.338600
vt 8.025550 -51.339001
vt 8.025550 -51.423199
vt 8.022180 -51.443199
vt 8.238760 -51.552601
vt 8.476730 -51.551800
vt 8.500290 -51.420200
vt 8.000000 -51.552502
vt 8.009870 -51.458099
vt 8.000000 -51.460701
vt 7.989210 -51.463600
vt 7.968560 -51.458099
vt 8.383250 -51.663101
vt 8.191940 -51.663898
vt 7.761240 -51.552601
vt 7.956250 -51.443199
vt 8.000000 -51.665199
vt 7.808060 -51.663898
vt 7.749030 -51.419998
vt 7.952880 -51.423199
vt 7.952880 -51.419998
vt 7.952880 -51.348099
vt 7.948470 -51.348701
vt 7.880090 -51.345299
vt 7.812960 -51.334400
vt 7.778560 -51.300800
vt 7.778560 -51.282600
vt 7.523270 -51.551800
vt 7.560210 -51.276699
vt 7.499710 -51.420200
vt 7.616760 -51.663101
vt 7.778560 -51.276501
vt 7.779860 -51.276501
vt 7.778330 -51.264801
vt 8.481850 -51.090099
vt 8.433190 -50.726002
vt 8.394620 -50.635502
vt 7.755490 -51.090099
vt 7.518150 -51.090099
vt 7.583800 -50.914001
vt 8.025550 -50.913898
vt 8.000000 -50.909199
vt 8.000000 -50.914001
vt 7.977440 -50.913898
vt 8.025250 -50.903999
vt 7.988750 -51.010101
vt 7.952880 -50.919102
vt 8.000000 -51.011101
vt 7.952880 -51.009102
vt 7.948890 -50.919899
vt 7.912810 -50.937099
vt 7.930010 -51.008400
vt 7.895190 -50.989101
vt 7.891000 -50.964401
vt 8.025550 -51.013302
vt 8.056590 -50.908600
vt 8.231310 -50.423500
vt 8.119660 -50.423500
vt 8.205100 -50.476200
vt 8.106100 -50.476200
vt 8.188040 -50.524399
vt 8.000000 -50.423500
vt 7.880340 -50.423500
vt 8.097270 -50.524399
vt 8.000000 -50.476200
vt 8.000000 -50.524399
vt 8.000000 -50.558300
vt 7.893900 -50.476200
vt 7.902730 -50.524399
vt 7.843260 -50.558300
vt 7.795830 -50.635300
vt 7.811960 -50.524399
vt 7.697040 -50.558300
vt 7.776150 -50.725899
vt 7.957830 -50.735199
vt 7.952880 -50.751801
vt 7.951410 -50.818802
vt 7.952880 -50.818600
vt 7.893090 -50.842300
vt 7.833520 -50.887600
vt 7.605380 -50.635502
vt 7.566810 -50.726002
vt 7.787240 -50.913898
vt 7.815400 -50.913898
vt 7.797440 -50.939999
vt 7.785270 -50.989601
vt 7.793240 -51.026100
vt 7.820930 -51.058399
vt 7.863310 -51.081799
vt 7.895290 -51.090099
vt 7.829740 -51.231998
vt 7.877570 -51.242100
vt 7.915330 -51.095299
vt 7.920360 -51.254700
vt 7.795760 -51.240002
vt 7.952880 -51.097401
vt 7.952880 -51.254002
vt 7.959800 -51.253899
vt 8.000000 -51.242802
vt 7.982030 -51.098999
vt 8.000000 -51.100601
vt 8.025550 -51.235699
vt 8.025550 -51.102901
vt 8.040350 -51.231602
vt 8.038670 -51.104099
vt 8.086500 -51.204399
vt 8.077690 -51.117901
vt 8.100340 -51.149399
vt 8.102440 -51.179199
vt 7.794900 -50.476200
vt 7.768690 -50.423500
vt 7.999970 -51.420502
vt 8.159350 -51.551800
vt 8.167670 -51.420200
vt 8.146060 -51.276699
vt 7.999970 -51.550598
vt 8.128640 -51.663101
vt 7.999970 -51.664299
vt 7.871310 -51.663101
vt 7.840590 -51.551800
vt 7.832270 -51.420200
vt 7.999970 -51.090199
vt 8.164450 -51.090099
vt 8.144410 -50.914001
vt 7.999970 -51.277100
vt 7.853890 -51.276699
vt 7.999970 -50.914001
vt 7.999970 -50.726101
vt 7.835490 -51.090099
vt 7.855530 -50.914001
vt 7.845460 -50.726002
vt 7.858350 -50.635502
vt 7.999970 -50.635700
vt 8.141590 -50.635502
vt 7.924570 -50.524399
vt 7.999970 -50.524399
vt 7.999970 -50.476200
vt 8.075370 -50.524399
vt 8.154480 -50.726002
vt 8.083970 -50.476200
vt 7.999970 -50.423500
vt 8.094700 -50.423500
vt 7.905240 -50.423500
vt 7.915980 -50.476200
vt 8.176350 -51.000000
vt 8.383250 -50.871399
vt 8.191940 -50.809601
vt 8.382690 -51.000000
vt 8.000000 -50.810299
vt 8.000000 -51.000000
vt 7.616760 -50.871399
vt 7.823650 -51.000000
vt 7.808060 -50.809601
vt 7.617310 -51.000000
vt 7.616760 -51.128700
vt 7.808060 -51.190498
vt 8.000000 -51.189800
vt 8.191940 -51.190498
vt 8.383250 -51.128700
vt 8.231310 -51.094799
vt 8.231310 -51.000000
vt 8.231310 -50.905300
vt 7.768690 -50.905300
vt 7.768690 -51.000000
vt 7.768690 -51.094799
vt 8.154860 -51.292500
vt 8.169070 -51.276600
vt 8.201000 -51.240898
vt 8.216530 -51.184200
vt 8.213170 -51.127998
vt 8.195410 -51.090099
vt 8.188000 -51.074299
vt 8.138910 -51.036499
vt 8.019560 -50.726002
vt 8.029380 -50.735199
vt 8.034330 -50.751801
vt 8.034330 -50.807098
vt 8.054690 -50.809799
vt 8.096930 -50.818001
vt 8.132140 -50.829899
vt 8.162490 -50.844200
vt 8.176080 -50.858799
vt 8.178750 -50.877701
vt 8.169530 -50.899101
vt 8.149170 -50.913898
vt 8.130680 -50.918999
vt 8.080600 -51.017200
vt 8.107370 -50.916801
vt 8.092670 -50.913898
vt 8.034330 -50.913898
vt 8.034330 -51.013302
vt 8.065370 -50.908600
vt 8.034330 -50.903999
vt 8.047450 -51.104099
vt 8.095280 -51.204399
vt 8.086470 -51.117901
vt 8.109130 -51.149399
vt 8.111230 -51.179199
vt 8.049130 -51.231602
vt 8.034330 -51.102901
vt 8.034330 -51.235699
vt 7.921600 -50.937099
vt 7.903970 -50.989101
vt 7.938800 -51.008400
vt 7.899780 -50.964401
vt 7.961660 -51.009102
vt 7.957670 -50.919899
vt 7.961660 -50.919102
vt 7.965030 -51.443199
vt 7.977340 -51.458099
vt 7.961660 -51.423199
vt 7.998000 -51.463600
vt 8.000000 -51.463100
vt 8.018650 -51.458099
vt 8.030960 -51.443199
vt 7.961660 -51.419998
vt 8.034330 -51.423199
vt 8.034330 -51.419998
vt 7.961660 -51.348099
vt 7.957250 -51.348701
vt 7.888870 -51.345299
vt 7.821750 -51.334400
vt 7.787340 -51.300800
vt 8.034330 -51.339001
vt 8.037390 -51.338600
vt 8.090250 -51.320599
vt 7.787340 -51.276501
vt 7.787340 -51.264801
vt 7.804540 -51.240002
vt 7.838530 -51.231998
vt 7.904080 -51.090099
vt 7.886350 -51.242100
vt 7.924110 -51.095299
vt 7.929150 -51.254700
vt 7.961660 -51.097401
vt 7.961660 -51.254002
vt 7.872090 -51.081799
vt 7.829720 -51.058399
vt 7.802030 -51.026100
vt 7.794060 -50.989601
vt 7.806220 -50.939999
vt 7.824180 -50.913898
vt 7.842300 -50.887600
vt 7.901880 -50.842300
vt 7.961660 -50.751801
vt 7.960190 -50.818802
vt 7.961660 -50.818600
vt 7.966620 -50.735199
vt 7.976440 -50.726002
vt 7.998000 -50.720402
vt 8.000000 -50.720798
vt 30.084101 -34.505001
vt 30.000000 -34.533600
vt 30.085899 -34.533600
vt 30.000000 -34.505001
vt 29.915899 -34.505001
vt 29.914101 -34.533600
vt 30.101700 -35.120701
vt 30.101700 -34.879299
vt 29.995501 -35.120701
vt 29.995501 -34.879299
vt 29.889200 -34.879299
vt 30.200899 -35.000000
vt 30.200899 -35.084099
vt 30.200899 -34.915901
vt 29.889200 -35.120701
vt 29.790100 -35.000000
vt 29.790100 -35.084099
vt 29.790100 -34.915901
vt 30.004499 -34.757301
vt 30.015301 -34.757301
vt 30.004499 -34.754299
vt 30.025101 -34.766602
vt 29.993700 -34.751701
vt 30.030100 -34.783199
vt 29.972200 -34.757301
vt 29.957399 -34.783199
vt 29.962299 -34.766602
vt 30.004499 -34.842400
vt 30.029699 -34.838402
vt 29.957399 -34.849899
vt 30.029800 -34.935299
vt 30.050400 -34.841099
vt 30.004499 -34.940601
vt 30.061100 -34.939899
vt 30.092699 -34.849300
vt 30.088400 -34.945301
vt 29.981899 -34.945301
vt 30.127899 -34.861198
vt 29.957399 -34.945301
vt 30.144899 -34.945301
vt 30.103100 -34.948200
vt 30.126400 -34.950298
vt 30.158199 -34.875599
vt 30.165300 -34.930401
vt 30.174500 -34.909100
vt 30.171801 -34.890099
vt 29.957399 -34.950401
vt 29.953400 -34.951199
vt 29.955900 -34.850101
vt 29.897600 -34.873600
vt 29.837999 -34.918900
vt 29.917299 -34.968399
vt 29.819901 -34.945301
vt 29.895500 -34.995701
vt 29.801901 -34.971401
vt 29.789801 -35.020901
vt 29.899700 -35.020500
vt 29.797800 -35.057400
vt 29.825399 -35.089699
vt 29.867800 -35.113201
vt 29.934500 -35.039799
vt 29.899799 -35.121399
vt 29.957399 -35.121399
vt 29.957399 -35.040401
vt 29.919800 -35.126598
vt 29.957399 -35.128700
vt 29.993299 -35.041401
vt 29.986500 -35.130402
vt 30.004499 -35.121399
vt 30.004499 -35.042400
vt 30.004499 -35.132000
vt 30.030100 -35.044601
vt 30.030100 -35.121399
vt 30.030100 -35.134201
vt 30.076300 -35.048599
vt 30.043200 -35.135399
vt 30.134600 -35.067902
vt 30.082199 -35.149300
vt 30.191099 -35.121399
vt 30.183701 -35.105598
vt 30.104900 -35.180698
vt 30.208900 -35.159302
vt 30.212299 -35.215500
vt 30.106899 -35.210499
vt 30.196699 -35.272202
vt 30.091000 -35.235699
vt 30.164801 -35.307899
vt 30.044901 -35.263000
vt 30.030100 -35.307999
vt 30.150600 -35.323799
vt 30.030100 -35.266998
vt 30.086000 -35.351898
vt 30.033100 -35.369900
vt 30.004499 -35.274101
vt 30.030100 -35.370300
vt 30.004499 -35.307999
vt 29.964300 -35.285198
vt 30.004499 -35.373501
vt 30.030100 -35.451302
vt 29.957399 -35.307999
vt 29.957399 -35.285301
vt 29.924900 -35.285999
vt 30.004499 -35.451302
vt 30.030100 -35.454498
vt 30.026699 -35.474602
vt 30.014400 -35.489399
vt 30.004499 -35.492100
vt 29.993700 -35.494999
vt 29.973101 -35.489399
vt 29.960800 -35.474602
vt 29.957399 -35.454498
vt 29.957399 -35.451302
vt 29.957399 -35.379398
vt 29.952999 -35.380001
vt 29.884600 -35.376598
vt 29.784401 -35.307899
vt 29.882099 -35.273399
vt 29.834299 -35.263401
vt 29.800301 -35.271301
vt 29.782801 -35.296101
vt 29.817499 -35.365700
vt 29.783100 -35.313900
vt 29.783100 -35.332199
vt 29.894800 -34.533600
vt 29.799101 -34.505001
vt 29.792500 -34.533600
vt 29.898300 -34.505001
vt 29.818399 -34.558201
vt 29.908199 -34.558201
vt 30.114201 -34.533600
vt 30.216499 -34.533600
vt 30.209900 -34.505001
vt 30.190599 -34.558201
vt 30.110800 -34.505001
vt 30.100800 -34.558201
vt 30.004499 -34.533600
vt 30.004499 -34.505001
vt 30.004499 -34.558201
vt 29.908199 -35.107101
vt 29.908199 -34.892899
vt 29.818399 -35.000000
vt 29.818399 -35.074600
vt 29.818399 -34.925400
vt 30.004499 -35.107101
vt 30.004499 -34.892899
vt 30.100800 -34.892899
vt 30.100800 -35.107101
vt 30.190599 -35.000000
vt 30.190599 -34.925400
vt 30.190599 -35.074600
vt 29.792500 -35.000000
vt 29.792500 -34.914101
vt 29.792500 -35.085899
vt 30.216499 -35.000000
vt 30.216499 -35.085899
vt 30.216499 -34.914101
vt 29.957199 -35.040401
vt 29.957199 -35.121399
vt 29.993000 -35.041401
vt 29.899599 -35.121399
vt 29.919600 -35.126598
vt 29.957199 -35.128700
vt 29.995501 -35.121399
vt 29.995501 -35.041599
vt 30.029800 -35.044601
vt 29.986300 -35.130402
vt 30.029800 -35.121399
vt 30.076099 -35.048599
vt 30.134399 -35.067902
vt 29.995501 -35.131199
vt 29.995501 -35.276501
vt 30.029800 -35.134201
vt 30.029800 -35.266998
vt 30.042900 -35.135399
vt 30.082001 -35.149300
vt 30.190901 -35.121399
vt 30.183500 -35.105598
vt 30.104601 -35.180698
vt 30.208700 -35.159302
vt 30.212000 -35.215500
vt 30.106701 -35.210499
vt 30.196501 -35.272202
vt 30.090799 -35.235699
vt 30.164600 -35.307899
vt 30.044600 -35.263000
vt 30.029800 -35.307999
vt 30.150299 -35.323799
vt 30.085699 -35.351898
vt 30.032900 -35.369900
vt 30.029800 -35.370300
vt 29.995501 -35.307999
vt 29.964100 -35.285198
vt 29.957199 -35.285301
vt 29.957199 -35.307999
vt 29.924601 -35.285999
vt 29.995501 -35.374599
vt 30.029800 -35.451302
vt 29.995501 -35.451302
vt 30.029800 -35.454498
vt 30.026501 -35.474602
vt 30.014099 -35.489399
vt 29.995501 -35.494400
vt 29.993500 -35.494999
vt 29.972799 -35.489399
vt 29.960501 -35.474602
vt 29.957199 -35.454498
vt 29.957199 -35.451302
vt 29.957199 -35.379398
vt 29.952700 -35.380001
vt 29.884399 -35.376598
vt 29.782801 -35.307899
vt 29.817200 -35.365700
vt 29.782801 -35.332199
vt 29.881800 -35.273399
vt 29.834000 -35.263401
vt 29.799999 -35.271301
vt 29.995501 -34.757301
vt 30.014999 -34.757301
vt 29.995501 -34.752201
vt 30.024900 -34.766602
vt 29.993500 -34.751701
vt 29.971901 -34.757301
vt 29.962099 -34.766602
vt 30.029800 -34.783199
vt 29.957199 -34.783199
vt 29.995501 -34.843800
vt 30.029800 -34.838402
vt 29.957199 -34.849899
vt 30.050200 -34.841099
vt 30.060900 -34.939899
vt 30.092400 -34.849300
vt 30.088200 -34.945301
vt 30.127600 -34.861198
vt 30.144699 -34.945301
vt 30.102900 -34.948200
vt 30.126200 -34.950298
vt 30.158001 -34.875599
vt 30.165001 -34.930401
vt 30.174200 -34.909100
vt 30.171600 -34.890099
vt 29.995501 -34.942402
vt 30.029800 -34.945301
vt 29.981701 -34.945301
vt 29.995501 -34.945301
vt 29.957199 -34.945301
vt 29.955700 -34.850101
vt 29.897400 -34.873600
vt 29.837799 -34.918900
vt 29.819700 -34.945301
vt 29.957199 -34.950401
vt 29.953199 -34.951199
vt 29.917101 -34.968399
vt 29.895300 -34.995701
vt 29.801701 -34.971401
vt 29.789499 -35.020901
vt 29.899500 -35.020500
vt 29.797501 -35.057400
vt 29.825199 -35.089699
vt 29.867599 -35.113201
vt 29.934299 -35.039799
vt 30.105200 -34.533600
vt 30.207500 -34.533600
vt 30.200899 -34.505001
vt 30.181601 -34.558201
vt 30.101700 -34.505001
vt 30.091801 -34.558201
vt 29.995501 -34.533600
vt 29.995501 -34.505001
vt 29.995501 -34.558201
vt 29.889200 -34.505001
vt 29.899200 -34.558201
vt 29.885799 -34.533600
vt 29.790100 -34.505001
vt 29.809401 -34.558201
vt 29.783501 -34.533600
s 1
usemtl Meshpart2Mtl.003
f 508/409/373 510/410/374 509/411/375
f 510/410/374 508/409/373 511/412/376
f 512/413/377 510/410/374 511/412/376
f 510/410/374 512/413/377 513/414/378
f 514/415/379 515/416/379 516/417/379
f 517/418/379 516/417/379 515/416/379
f 516/417/379 517/418/379 518/419/379
f 515/416/379 514/415/379 519/420/379
f 519/420/379 514/415/379 520/421/379
f 515/416/379 519/420/379 521/422/379
f 516/417/379 518/419/379 522/423/379
f 523/424/379 522/423/379 518/419/379
f 522/423/379 523/424/379 524/425/379
f 523/424/379 518/419/379 525/426/379
f 526/427/380 527/428/381 528/429/382
f 526/427/380 529/430/130 527/428/381
f 530/431/383 526/427/380 528/429/382
f 526/427/380 531/432/128 529/430/130
f 532/433/384 526/427/380 530/431/383
f 532/433/384 533/434/130 526/427/380
f 533/434/130 532/433/384 534/435/128
f 535/436/128 531/432/128 526/427/380
f 533/434/130 535/436/128 526/427/380
f 531/432/128 535/436/128 536/437/128
f 535/436/128 533/434/130 537/438/130
f 535/436/128 538/439/128 536/437/128
f 538/439/128 539/440/130 536/437/128
f 538/439/128 535/436/128 540/441/128
f 537/438/130 540/441/128 535/436/128
f 539/440/130 538/439/128 541/442/130
f 539/440/130 541/442/130 542/443/385
f 543/444/386 542/443/385 541/442/130
f 540/441/128 537/438/130 544/445/386
f 543/444/386 545/446/130 542/443/385
f 544/445/386 537/438/130 546/447/178
f 547/448/387 545/446/130 543/444/386
f 547/448/387 543/444/386 548/449/388
f 547/448/387 548/449/388 549/450/182
f 545/446/130 547/448/387 550/451/132
f 551/452/130 550/451/132 547/448/387
f 552/453/130 550/451/132 551/452/130
f 550/451/132 552/453/130 553/454/130
f 546/447/178 554/455/207 544/445/386
f 546/447/178 555/456/183 554/455/207
f 556/457/130 546/447/178 537/438/130
f 557/458/128 546/447/178 556/457/130
f 558/459/130 546/447/178 557/458/128
f 546/447/178 559/460/181 555/456/183
f 546/447/178 558/459/130 560/461/389
f 546/447/178 560/461/389 559/460/181
f 560/461/389 561/462/183 559/460/181
f 562/463/181 561/462/183 560/461/389
f 563/464/181 561/462/183 562/463/181
f 561/462/183 563/464/181 564/465/183
f 565/466/181 564/465/183 563/464/181
f 566/467/181 564/465/183 565/466/181
f 564/465/183 566/467/181 567/468/180
f 567/468/180 568/469/180 564/465/183
f 568/469/180 567/468/180 569/470/390
f 570/471/391 568/469/180 569/470/390
f 568/469/180 570/471/391 571/472/183
f 570/471/391 569/470/390 572/473/392
f 572/473/392 573/474/392 570/471/391
f 570/471/391 574/475/180 571/472/183
f 575/476/211 570/471/391 573/474/392
f 576/477/393 574/475/180 570/471/391
f 576/477/393 570/471/391 575/476/211
f 574/475/180 576/477/393 577/478/388
f 575/476/211 578/479/213 576/477/393
f 576/477/393 579/480/135 577/478/388
f 578/479/213 580/481/394 576/477/393
f 579/480/135 576/477/393 580/481/394
f 580/481/394 578/479/213 581/482/140
f 580/481/394 582/483/395 579/480/135
f 583/484/140 580/481/394 581/482/140
f 580/481/394 584/485/395 582/483/395
f 585/486/139 580/481/394 583/484/140
f 586/487/396 584/485/395 580/481/394
f 580/481/394 585/486/139 586/487/396
f 584/485/395 586/487/396 587/488/395
f 586/487/396 585/486/139 588/489/139
f 588/489/139 589/490/140 586/487/396
f 588/489/139 590/491/140 589/490/140
f 590/491/140 588/489/139 591/492/140
f 591/492/140 592/493/214 590/491/140
f 593/494/140 592/493/214 591/492/140
f 592/493/214 593/494/140 594/495/397
f 595/496/140 594/495/397 593/494/140
f 595/496/140 596/497/398 594/495/397
f 596/497/398 597/498/147 594/495/397
f 596/497/398 595/496/140 598/499/140
f 597/498/147 596/497/398 599/500/143
f 599/500/143 596/497/398 600/501/143
f 596/497/398 598/499/140 601/502/213
f 600/501/143 596/497/398 602/503/143
f 603/504/399 596/497/398 601/502/213
f 603/504/399 602/503/143 596/497/398
f 601/502/213 604/505/211 603/504/399
f 602/503/143 603/504/399 605/506/400
f 606/507/146 602/503/143 605/506/400
f 604/505/211 607/508/401 603/504/399
f 607/508/401 605/506/400 603/504/399
f 607/508/401 604/505/211 608/509/211
f 607/508/401 608/509/211 609/510/392
f 605/506/400 610/511/402 606/507/146
f 610/511/402 611/512/148 606/507/146
f 610/511/402 612/513/148 611/512/148
f 610/511/402 613/514/148 612/513/148
f 613/514/148 610/511/402 614/515/152
f 614/515/152 610/511/402 615/516/154
f 610/511/402 616/517/153 615/516/154
f 616/517/153 610/511/402 617/518/153
f 617/518/153 610/511/402 618/519/154
f 618/519/154 610/511/402 619/520/403
f 610/511/402 620/521/164 619/520/403
f 620/521/164 610/511/402 605/506/400
f 605/506/400 607/508/401 620/521/164
f 607/508/401 621/522/163 620/521/164
f 621/522/163 607/508/401 622/523/163
f 623/524/404 622/523/163 607/508/401
f 609/510/392 623/524/404 607/508/401
f 623/524/404 609/510/392 624/525/392
f 625/526/211 623/524/404 624/525/392
f 626/527/405 623/524/404 625/526/211
f 623/524/404 626/527/405 627/528/210
f 622/523/163 623/524/404 628/529/163
f 628/529/163 623/524/404 629/530/162
f 628/529/163 629/530/162 630/531/164
f 633/532/406 631/533/407 632/534/408
f 631/533/407 633/532/406 634/535/409
f 635/536/410 633/532/406 632/534/408
f 635/536/410 636/537/411 633/532/406
f 640/538/412 639/539/413 637/540/377
f 640/538/412 638/541/414 639/539/413
f 640/538/412 637/540/377 641/542/415
f 638/541/414 640/538/412 642/543/416
f 643/544/417 640/538/412 641/542/415
f 643/544/417 642/543/416 640/538/412
f 643/544/417 641/542/415 644/545/418
f 642/543/416 643/544/417 645/546/419
f 634/535/409 643/544/417 644/545/418
f 636/537/411 645/546/419 643/544/417
f 643/544/417 634/535/409 633/532/406
f 636/537/411 643/544/417 633/532/406
f 646/409/420 647/412/421 648/410/422
f 649/413/423 648/410/422 647/412/421
f 648/410/422 650/411/424 646/409/420
f 648/410/422 649/413/423 651/414/425
f 652/547/247 653/548/247 654/549/247
f 652/547/247 654/549/247 655/550/247
f 654/549/247 653/548/247 656/551/247
f 653/548/247 652/547/247 657/552/247
f 653/548/247 657/552/247 658/553/247
f 658/553/247 657/552/247 659/554/247
f 660/555/247 659/554/247 657/552/247
f 660/555/247 661/556/247 659/554/247
f 659/554/247 661/556/247 662/557/247
f 661/556/247 660/555/247 663/558/247
f 664/559/422 666/551/426 665/560/408
f 666/551/426 664/559/422 667/549/427
f 668/550/428 667/549/427 664/559/422
f 664/559/422 669/561/429 668/550/428
f 672/562/374 670/558/430 671/563/431
f 670/558/430 672/562/374 673/556/432
f 672/562/374 674/557/433 673/556/432
f 672/562/374 675/564/434 674/557/433
f 676/565/333 677/566/435 678/567/331
f 677/566/435 679/568/436 680/569/347
f 677/566/435 680/569/347 681/570/347
f 682/571/437 678/567/331 677/566/435
f 678/567/331 682/571/437 683/572/438
f 683/572/438 682/571/437 684/573/439
f 677/566/435 685/574/347 682/571/437
f 685/574/347 677/566/435 681/570/347
f 684/573/439 682/571/437 686/575/440
f 684/573/439 686/575/440 687/576/441
f 686/575/440 688/577/442 687/576/441
f 682/571/437 685/574/347 689/578/443
f 686/575/440 682/571/437 689/578/443
f 690/579/443 685/574/347 681/570/347
f 685/574/347 690/579/443 689/578/443
f 686/575/440 689/578/443 691/580/329
f 689/578/443 692/581/329 691/580/329
f 692/581/329 689/578/443 690/579/443
f 693/582/309 686/575/440 691/580/329
f 694/583/309 686/575/440 693/582/309
f 695/584/444 688/577/442 686/575/440
f 686/575/440 694/583/309 695/584/444
f 688/577/442 695/584/444 696/585/441
f 695/584/444 694/583/309 697/586/329
f 697/586/329 698/587/329 695/584/444
f 697/586/329 699/588/329 698/587/329
f 699/588/329 697/586/329 700/589/329
f 699/588/329 700/589/329 701/590/329
f 702/591/329 701/590/329 700/589/329
f 701/590/329 702/591/329 703/592/445
f 703/592/445 702/591/329 704/593/329
f 704/593/329 705/594/311 703/592/445
f 705/594/311 704/593/329 692/581/329
f 703/592/445 705/594/311 706/595/446
f 706/595/446 705/594/311 707/596/343
f 705/594/311 708/597/306 707/596/343
f 690/579/443 705/594/311 692/581/329
f 705/594/311 709/598/446 708/597/306
f 705/594/311 690/579/443 710/599/447
f 710/599/447 709/598/446 705/594/311
f 711/600/346 710/599/447 690/579/443
f 681/570/347 711/600/346 690/579/443
f 681/570/347 712/601/347 711/600/346
f 713/602/448 711/600/346 712/601/347
f 711/600/346 713/602/448 710/599/447
f 713/602/448 712/601/347 714/603/349
f 709/598/446 710/599/447 715/604/449
f 713/602/448 715/604/449 710/599/447
f 715/604/449 716/605/339 709/598/446
f 716/605/339 715/604/449 717/606/450
f 716/605/339 717/606/450 718/607/337
f 718/607/337 717/606/450 719/608/337
f 717/606/450 720/609/337 719/608/337
f 717/606/450 721/610/336 720/609/337
f 717/606/450 722/611/335 721/610/336
f 717/606/450 723/612/335 722/611/335
f 723/612/335 717/606/450 724/613/334
f 724/613/334 717/606/450 725/614/334
f 725/614/334 717/606/450 726/615/451
f 717/606/450 727/616/340 726/615/451
f 727/616/340 717/606/450 715/604/449
f 715/604/449 713/602/448 727/616/340
f 713/602/448 728/617/341 727/616/340
f 713/602/448 729/618/342 728/617/341
f 729/618/342 713/602/448 730/619/452
f 714/603/349 730/619/452 713/602/448
f 729/618/342 730/619/452 731/620/340
f 731/620/340 730/619/452 732/621/340
f 730/619/452 714/603/349 733/622/349
f 734/623/347 730/619/452 733/622/349
f 735/624/347 730/619/452 734/623/347
f 730/619/452 735/624/347 736/528/346
f 737/625/453 738/626/454 739/627/455
f 737/625/453 740/628/322 738/626/454
f 741/629/456 737/625/453 739/627/455
f 737/625/453 741/629/456 742/630/454
f 743/631/321 737/625/453 742/630/454
f 737/625/453 744/632/321 740/628/322
f 745/633/321 737/625/453 743/631/321
f 746/634/322 744/632/321 737/625/453
f 745/633/321 746/634/322 737/625/453
f 744/632/321 746/634/322 747/635/322
f 746/634/322 745/633/321 748/636/322
f 746/634/322 749/439/323 747/635/322
f 749/439/323 750/637/321 747/635/322
f 750/637/321 749/439/323 751/638/321
f 750/637/321 751/638/321 752/639/322
f 753/640/457 752/639/322 751/638/321
f 752/639/322 753/640/457 754/641/321
f 754/641/321 753/640/457 755/642/458
f 756/643/325 755/642/458 753/640/457
f 755/642/458 756/643/325 757/644/315
f 755/642/458 758/645/322 754/641/321
f 758/645/322 755/642/458 759/646/322
f 760/647/321 758/645/322 759/646/322
f 758/645/322 760/647/321 761/648/321
f 749/439/323 746/634/322 762/649/321
f 748/636/322 762/649/321 746/634/322
f 762/649/321 763/650/450 749/439/323
f 762/649/321 748/636/322 764/651/459
f 763/650/450 762/649/321 765/652/459
f 762/649/321 764/651/459 765/652/459
f 765/652/459 683/572/438 763/650/450
f 763/650/450 683/572/438 684/573/439
f 764/651/459 678/567/331 765/652/459
f 765/652/459 678/567/331 683/572/438
f 764/651/459 748/636/322 766/653/450
f 767/654/322 766/653/450 748/636/322
f 768/655/322 766/653/450 767/654/322
f 766/653/450 768/655/322 769/656/322
f 766/653/450 769/656/322 770/657/453
f 766/653/450 771/658/438 764/651/459
f 771/658/438 678/567/331 764/651/459
f 766/653/450 772/659/332 771/658/438
f 766/653/450 773/660/331 772/659/332
f 766/653/450 770/657/453 773/660/331
f 770/657/453 774/661/331 773/660/331
f 775/662/332 774/661/331 770/657/453
f 776/663/331 774/661/331 775/662/332
f 678/567/331 771/658/438 676/565/333
f 774/661/331 776/663/331 777/664/331
f 778/665/331 777/664/331 776/663/331
f 779/666/331 777/664/331 778/665/331
f 777/664/331 779/666/331 780/667/333
f 780/667/333 781/668/332 777/664/331
f 781/668/332 780/667/333 679/568/436
f 781/668/332 677/566/435 676/565/333
f 677/566/435 781/668/332 679/568/436
f 785/669/460 784/670/429 782/671/423
f 785/669/460 783/672/461 784/670/429
f 782/671/423 786/673/462 785/669/460
f 783/672/461 785/669/460 787/674/463
f 786/673/462 788/675/464 785/669/460
f 788/675/464 787/674/463 785/669/460
f 786/673/462 789/676/465 788/675/464
f 787/674/463 788/675/464 790/677/466
f 791/678/467 788/675/464 789/676/465
f 788/675/464 792/679/468 790/677/466
f 788/675/464 791/678/467 793/680/469
f 788/675/464 793/680/469 792/679/468
f 794/681/470 793/680/469 791/678/467
f 795/682/471 792/679/468 793/680/469
f 793/680/469 794/681/470 796/683/472
f 793/680/469 796/683/472 795/682/471
usemtl Meshpart3Mtl.003
f 8/1/1 7/2/2 6/3/3
f 9/4/4 8/1/1 6/3/3
f 9/4/4 6/3/3 10/5/5
f 11/6/6 9/4/4 10/5/5
f 12/7/7 9/4/4 11/6/6
f 9/4/4 12/7/7 13/8/8
f 13/8/8 8/1/1 9/4/4
f 8/1/1 13/8/8 14/9/9
f 14/9/9 15/10/10 8/1/1
f 16/11/11 5/12/12 17/13/13
f 5/12/12 16/11/11 18/14/14
f 15/10/10 16/11/11 17/13/13
f 5/12/12 8/1/1 17/13/13
f 15/10/10 17/13/13 8/1/1
f 8/1/1 5/12/12 7/2/2
f 16/11/11 4/15/15 18/14/14
f 19/16/16 16/11/11 15/10/10
f 20/17/17 16/11/11 19/16/16
f 16/11/11 20/17/17 21/18/18
f 4/15/15 16/11/11 21/18/18
f 20/17/17 22/19/19 21/18/18
f 22/19/19 4/15/15 21/18/18
f 22/19/19 20/17/17 23/20/20
f 4/15/15 22/19/19 24/21/21
f 25/22/22 22/19/19 23/20/20
f 22/19/19 26/23/23 24/21/21
f 26/23/23 22/19/19 27/24/24
f 22/19/19 25/22/22 27/24/24
f 30/25/25 28/26/26 29/27/27
f 31/28/28 1/29/29 28/26/26
f 28/26/26 30/25/25 31/28/28
f 1/29/29 31/28/28 3/30/30
f 31/28/28 2/31/31 3/30/30
f 30/25/25 32/32/32 31/28/28
f 2/31/31 31/28/28 32/32/32
f 32/32/32 30/25/25 33/33/33
f 34/34/34 35/35/35 36/36/36
f 35/35/35 34/34/34 37/37/37
f 38/38/38 37/37/37 34/34/34
f 37/37/37 38/38/38 39/39/38
f 38/38/38 41/40/39 39/39/38
f 41/40/39 38/38/38 43/41/40
f 42/42/41 44/43/42 40/44/43
f 45/45/44 41/40/39 43/41/40
f 44/43/42 42/42/41 46/46/45
f 43/41/40 47/47/46 45/45/44
f 48/48/47 44/43/42 46/46/45
f 46/46/45 49/49/47 48/48/47
f 50/50/48 48/48/47 49/49/47
f 48/48/47 50/50/48 52/51/49
f 53/52/50 52/51/49 50/50/48
f 52/51/49 53/52/50 51/53/51
f 54/36/52 55/54/53 56/34/54
f 57/55/55 56/34/54 55/54/53
f 56/34/54 57/55/55 58/38/56
f 57/55/55 59/41/57 58/38/56
f 55/54/53 54/36/52 60/56/52
f 55/54/53 61/57/58 57/55/55
f 59/41/57 57/55/55 62/58/59
f 61/57/58 62/58/59 57/55/55
f 63/47/60 59/41/57 62/58/59
f 60/56/52 64/59/61 55/54/53
f 61/57/58 55/54/53 64/59/61
f 64/59/61 60/56/52 65/60/62
f 66/61/63 61/57/58 64/59/61
f 66/61/63 64/59/61 65/60/62
f 68/44/64 70/62/65 67/63/64
f 67/63/64 71/64/66 69/65/67
f 71/64/66 66/61/63 69/65/67
f 67/63/64 70/62/65 71/64/66
f 68/44/64 72/43/68 70/62/65
f 73/66/69 66/61/63 71/64/66
f 71/64/66 70/62/65 73/66/69
f 74/67/70 70/62/65 72/43/68
f 70/62/65 74/67/70 73/66/69
f 72/43/68 75/48/71 74/67/70
f 76/51/72 74/67/70 75/48/71
f 74/67/70 76/51/72 77/68/73
f 77/68/73 73/66/69 74/67/70
f 78/53/74 77/68/73 76/51/72
f 73/66/69 79/69/75 66/61/63
f 79/69/75 61/57/58 66/61/63
f 73/66/69 77/68/73 80/70/76
f 79/69/75 73/66/69 80/70/76
f 77/68/73 78/53/74 81/71/74
f 81/71/74 80/70/76 77/68/73
f 80/70/76 81/71/74 82/72/77
f 79/69/75 80/70/76 82/72/77
f 79/69/75 84/73/78 61/57/58
f 84/73/78 79/69/75 83/74/79
f 62/58/59 61/57/58 84/73/78
f 83/74/79 85/75/60 84/73/78
f 62/58/59 84/73/78 85/75/60
f 85/75/60 63/47/60 62/58/59
f 86/76/80 87/77/81 88/78/82
f 89/79/83 86/76/80 88/78/82
f 87/77/81 90/80/84 91/81/85
f 90/80/84 87/77/81 92/82/86
f 87/77/81 86/76/80 92/82/86
f 93/83/87 91/81/85 90/80/84
f 96/84/88 91/81/85 95/85/89
f 88/78/82 96/84/88 94/86/90
f 96/84/88 88/78/82 87/77/81
f 91/81/85 96/84/88 87/77/81
f 98/87/91 99/88/92 100/89/93
f 98/87/91 101/90/94 97/91/95
f 102/92/96 98/87/91 100/89/93
f 101/90/94 98/87/91 102/92/96
f 102/92/96 100/89/93 103/93/97
f 102/92/96 104/94/98 101/90/94
f 105/95/99 102/92/96 103/93/97
f 104/94/98 102/92/96 105/95/99
f 106/96/100 107/97/101 89/79/83
f 107/97/101 106/96/100 109/98/102
f 86/76/80 89/79/83 107/97/101
f 106/96/100 110/99/103 109/98/102
f 106/96/100 108/100/104 110/99/103
f 108/100/104 104/94/98 110/99/103
f 108/100/104 101/90/94 104/94/98
f 111/101/105 93/83/87 90/80/84
f 113/102/106 93/83/87 111/101/105
f 111/101/105 112/103/107 113/102/106
f 114/104/108 113/102/106 112/103/107
f 113/102/106 114/104/108 115/105/109
f 103/93/97 115/105/109 114/104/108
f 115/105/109 103/93/97 100/89/93
f 117/106/46 118/107/110 116/108/111
f 118/107/110 117/106/46 119/109/110
f 120/110/51 118/107/110 119/109/110
f 118/107/110 120/110/51 121/111/112
f 124/109/106 123/112/113 122/106/114
f 127/113/115 125/114/116 123/112/113
f 123/112/113 124/109/106 127/113/115
f 125/114/116 127/113/115 126/115/117
f 128/116/118 127/113/115 124/109/106
f 124/109/106 129/110/119 128/116/118
f 127/113/115 128/116/118 130/117/120
f 130/117/120 126/115/117 127/113/115
f 133/118/121 132/119/122 134/120/123
f 133/118/121 135/121/124 136/122/125
f 134/120/123 137/123/126 133/118/121
f 137/123/126 135/121/124 133/118/121
f 135/121/124 137/123/126 138/124/127
f 136/122/125 135/121/124 139/125/128
f 138/124/127 137/123/126 140/126/129
f 141/127/128 136/122/125 139/125/128
f 137/123/126 142/128/124 140/126/129
f 141/127/128 143/129/130 144/130/130
f 145/131/130 141/127/128 144/130/130
f 136/122/125 141/127/128 145/131/130
f 136/122/125 145/131/130 146/132/130
f 136/122/125 146/132/130 147/133/130
f 148/134/128 136/122/125 147/133/130
f 149/135/131 136/122/125 148/134/128
f 150/136/15 136/122/125 149/135/131
f 149/135/131 148/134/128 151/137/132
f 149/135/131 151/137/132 152/138/132
f 153/139/133 149/135/131 152/138/132
f 154/140/134 150/136/15 149/135/131
f 153/139/133 155/141/135 149/135/131
f 155/141/135 153/139/133 156/142/135
f 149/135/131 155/141/135 157/143/135
f 149/135/131 157/143/135 154/140/134
f 156/142/135 158/144/135 155/141/135
f 158/144/135 156/142/135 159/145/136
f 160/146/137 158/144/135 159/145/136
f 154/140/134 157/143/135 161/147/138
f 154/140/134 161/147/138 162/148/139
f 163/149/140 154/140/134 162/148/139
f 154/140/134 163/149/140 164/150/141
f 165/151/140 164/150/141 163/149/140
f 164/150/141 166/152/12 154/140/134
f 167/153/142 164/150/141 165/151/140
f 164/150/141 167/153/142 168/154/143
f 166/152/12 164/150/141 169/155/144
f 168/154/143 169/155/144 164/150/141
f 170/156/145 169/155/144 168/154/143
f 169/155/144 170/156/145 171/157/146
f 171/157/146 170/156/145 172/158/147
f 171/157/146 172/158/147 173/159/143
f 169/155/144 171/157/146 174/160/148
f 169/155/144 174/160/148 175/161/148
f 175/161/148 176/162/149 169/155/144
f 177/163/150 169/155/144 176/162/149
f 169/155/144 177/163/150 178/164/2
f 176/162/149 175/161/148 179/165/151
f 179/165/151 175/161/148 180/166/148
f 179/165/151 180/166/148 181/167/152
f 182/168/153 179/165/151 181/167/152
f 183/169/154 179/165/151 182/168/153
f 176/162/149 184/170/155 177/163/150
f 184/170/155 176/162/149 185/171/156
f 179/165/151 185/171/156 176/162/149
f 179/165/151 183/169/154 186/172/157
f 187/173/153 186/172/157 183/169/154
f 185/171/156 179/165/151 188/174/158
f 189/175/159 188/174/158 179/165/151
f 179/165/151 186/172/157 189/175/159
f 186/172/157 187/173/153 190/176/160
f 191/177/153 190/176/160 187/173/153
f 192/178/161 190/176/160 191/177/153
f 192/178/161 193/179/162 194/180/163
f 192/178/161 194/180/163 195/181/163
f 195/181/163 190/176/160 192/178/161
f 190/176/160 195/181/163 196/182/164
f 190/176/160 196/182/164 197/183/163
f 198/184/165 190/176/160 197/183/163
f 199/185/166 186/172/157 190/176/160
f 200/186/167 190/176/160 198/184/165
f 199/185/166 190/176/160 201/187/168
f 190/176/160 200/186/167 201/187/168
f 186/172/157 199/185/166 202/188/169
f 203/189/170 200/186/167 198/184/165
f 204/190/170 203/189/170 198/184/165
f 204/190/170 205/191/171 203/189/170
f 205/191/171 200/186/167 203/189/170
f 202/188/169 189/175/159 186/172/157
f 166/152/12 206/192/172 154/140/134
f 169/155/144 178/164/2 166/152/12
f 206/192/172 150/136/15 154/140/134
f 136/122/125 150/136/15 207/193/173
f 136/122/125 207/193/173 208/194/174
f 208/194/174 132/119/122 133/118/121
f 136/122/125 208/194/174 133/118/121
f 209/195/175 200/186/167 205/191/171
f 200/186/167 209/195/175 210/196/176
f 209/195/175 211/197/177 210/196/176
f 215/198/178 216/199/128 217/200/178
f 216/199/128 218/201/179 217/200/178
f 216/199/128 215/198/178 219/202/130
f 218/201/179 220/203/180 217/200/178
f 221/204/181 220/203/180 218/201/179
f 222/205/182 217/200/178 220/203/180
f 222/205/182 215/198/178 217/200/178
f 220/203/180 221/204/181 223/206/181
f 224/207/180 223/206/181 221/204/181
f 225/208/180 223/206/181 224/207/180
f 225/208/180 226/209/183 223/206/181
f 226/209/183 225/208/180 227/210/181
f 227/210/181 225/208/180 228/211/183
f 229/212/135 215/198/178 222/205/182
f 158/144/135 215/198/178 229/212/135
f 158/144/135 160/146/137 215/198/178
f 215/198/178 160/146/137 230/213/130
f 215/198/178 230/213/130 219/202/130
f 232/214/184 233/108/185 234/215/186
f 234/215/186 231/216/32 232/214/184
f 235/107/187 234/215/186 233/108/185
f 236/217/188 131/218/31 231/216/32
f 231/216/32 234/215/186 236/217/188
f 234/215/186 235/107/187 237/219/189
f 237/219/189 236/217/188 234/215/186
f 238/220/190 237/219/189 235/107/187
f 238/220/190 235/107/187 239/111/191
f 131/218/31 236/217/188 240/221/192
f 236/217/188 237/219/189 241/222/193
f 241/222/193 240/221/192 236/217/188
f 240/221/192 241/222/193 242/223/107
f 137/123/126 134/120/123 243/224/194
f 244/225/195 237/219/189 238/220/190
f 244/225/195 241/222/193 237/219/189
f 245/226/196 242/223/107 241/222/193
f 245/226/196 241/222/193 244/225/195
f 246/227/197 137/123/126 243/224/194
f 137/123/126 246/227/197 247/228/198
f 142/128/124 137/123/126 247/228/198
f 214/229/199 245/226/196 244/225/195
f 213/230/200 247/228/198 246/227/197
f 142/128/124 247/228/198 248/231/201
f 142/128/124 248/231/201 249/232/128
f 248/231/201 250/233/128 249/232/128
f 250/233/128 251/234/130 252/235/128
f 250/233/128 253/236/130 251/234/130
f 250/233/128 248/231/201 253/236/130
f 253/236/130 248/231/201 254/237/202
f 247/228/198 213/230/200 212/238/203
f 212/238/203 248/231/201 247/228/198
f 248/231/201 212/238/203 255/239/204
f 248/231/201 256/240/205 254/237/202
f 256/240/205 257/241/206 254/237/202
f 258/242/207 257/241/206 256/240/205
f 256/240/205 259/243/207 258/242/207
f 256/240/205 248/231/201 211/197/177
f 211/197/177 248/231/201 255/239/204
f 256/240/205 209/195/175 259/243/207
f 211/197/177 209/195/175 256/240/205
f 259/243/207 209/195/175 260/244/207
f 209/195/175 261/245/208 260/244/207
f 209/195/175 262/246/207 261/245/208
f 209/195/175 263/247/209 262/246/207
f 209/195/175 264/248/210 263/247/209
f 265/249/210 263/247/209 264/248/210
f 263/247/209 265/249/210 266/250/211
f 267/251/211 266/250/211 265/249/210
f 264/248/210 209/195/175 268/252/211
f 209/195/175 205/191/171 268/252/211
f 266/250/211 267/251/211 269/253/211
f 269/253/211 267/251/211 270/254/212
f 271/255/211 269/253/211 270/254/212
f 272/256/213 269/253/211 271/255/211
f 269/253/211 272/256/213 273/257/211
f 273/257/211 272/256/213 274/258/213
f 275/259/140 274/258/213 272/256/213
f 274/258/213 275/259/140 276/260/140
f 277/261/140 276/260/140 275/259/140
f 277/261/140 278/262/214 276/260/140
f 278/262/214 277/261/140 279/263/140
f 278/262/214 279/263/140 280/264/140
f 280/264/140 279/263/140 281/265/140
f 281/265/140 279/263/140 282/266/140
f 214/229/199 244/225/195 283/267/215
f 244/225/195 238/220/190 283/267/215
f 283/267/215 238/220/190 284/268/216
f 239/111/191 284/268/216 238/220/190
f 288/269/217 285/270/218 287/271/168
f 286/272/167 288/269/217 287/271/168
f 290/273/219 289/274/220 285/270/218
f 285/270/218 288/269/217 290/273/219
f 289/274/220 290/273/219 291/275/221
f 290/273/219 292/276/222 291/275/221
f 292/276/222 290/273/219 293/277/223
f 288/269/217 293/277/223 290/273/219
f 293/277/223 288/269/217 294/278/224
f 297/279/225 286/272/167 295/280/176
f 297/279/225 295/280/176 296/281/177
f 297/279/225 298/282/226 286/272/167
f 288/269/217 286/272/167 298/282/226
f 299/283/227 288/269/217 298/282/226
f 297/279/225 299/283/227 298/282/226
f 288/269/217 299/283/227 294/278/224
f 300/284/228 297/279/225 296/281/177
f 296/281/177 301/285/229 300/284/228
f 299/283/227 297/279/225 302/286/230
f 297/279/225 303/287/231 302/286/230
f 303/287/231 297/279/225 300/284/228
f 303/287/231 300/284/228 301/285/229
f 304/288/232 303/287/231 301/285/229
f 301/285/229 305/289/233 304/288/232
f 305/289/233 301/285/229 306/290/234
f 306/290/234 301/285/229 307/291/235
f 309/292/236 310/293/237 311/294/238
f 308/295/199 311/294/238 310/293/237
f 301/285/229 312/296/204 307/291/235
f 301/285/229 296/281/177 312/296/204
f 311/294/238 308/295/199 313/297/239
f 315/298/240 313/297/239 314/299/241
f 313/297/239 315/298/240 311/294/238
f 316/300/242 317/301/243 315/298/240
f 317/301/243 311/294/238 315/298/240
f 317/301/243 309/292/236 311/294/238
f 321/302/244 318/303/245 319/304/156
f 321/302/244 320/305/246 318/303/245
f 322/306/158 321/302/244 319/304/156
f 321/302/244 322/306/158 324/307/247
f 325/308/248 326/309/249 323/310/159
f 326/309/249 322/306/158 323/310/159
f 326/309/249 325/308/248 327/311/250
f 326/309/249 324/307/247 322/306/158
f 328/312/251 326/309/249 327/311/250
f 328/312/251 329/313/252 326/309/249
f 326/309/249 330/314/253 324/307/247
f 330/314/253 326/309/249 329/313/252
f 330/314/253 321/302/244 324/307/247
f 330/314/253 331/315/254 321/302/244
f 332/316/255 321/302/244 331/315/254
f 321/302/244 332/316/255 320/305/246
f 334/42/256 336/46/257 335/317/258
f 337/49/259 335/317/258 336/46/257
f 335/317/258 337/49/259 338/318/260
f 337/49/259 339/319/261 338/318/260
f 337/49/259 340/50/262 339/319/261
f 341/52/263 339/319/261 340/50/262
f 342/45/264 344/40/265 343/320/266
f 345/39/267 343/320/266 344/40/265
f 343/320/266 345/39/267 346/321/268
f 347/322/269 346/321/268 345/39/267
f 347/322/269 345/39/267 348/37/270
f 333/35/271 347/322/269 348/37/270
f 351/107/272 350/110/273 349/111/274
f 350/110/273 351/107/272 352/109/275
f 353/106/276 352/109/275 351/107/272
f 351/107/272 354/108/277 353/106/276
f 359/109/278 358/112/279 356/106/280
f 361/113/281 360/114/282 358/112/279
f 360/114/282 361/113/281 357/115/283
f 358/112/279 359/109/278 361/113/281
f 361/113/281 362/117/284 357/115/283
f 361/113/281 363/116/285 362/117/284
f 359/109/278 363/116/285 361/113/281
f 359/109/278 355/110/286 363/116/285
f 367/170/287 372/162/288 369/171/252
f 372/162/288 367/170/287 368/163/289
f 369/171/252 373/165/290 370/174/253
f 373/165/290 369/171/252 372/162/288
f 373/165/290 374/175/254 370/174/253
f 376/172/291 375/188/292 374/175/254
f 374/175/254 373/165/290 376/172/291
f 377/185/293 375/188/292 376/172/291
f 378/187/9 377/185/293 380/176/294
f 380/176/294 379/186/10 378/187/9
f 380/176/294 377/185/293 376/172/291
f 383/195/295 382/197/296 381/196/16
f 379/186/10 383/195/295 381/196/16
f 385/231/297 384/239/298 382/197/296
f 385/231/297 386/238/299 384/239/298
f 385/231/297 382/197/296 387/240/300
f 382/197/296 383/195/295 387/240/300
f 386/238/299 385/231/297 388/228/301
f 388/228/301 365/230/302 386/238/299
f 365/230/302 388/228/301 366/227/303
f 389/152/227 390/155/304 371/164/224
f 391/150/305 390/155/304 389/152/227
f 392/323/306 390/155/304 391/150/305
f 391/150/305 393/324/307 392/323/306
f 391/150/305 394/325/308 393/324/307
f 395/326/309 394/325/308 391/150/305
f 391/150/305 396/140/310 395/326/309
f 389/152/227 396/140/310 391/150/305
f 396/140/310 397/327/309 395/326/309
f 396/140/310 398/328/311 397/327/309
f 398/328/311 396/140/310 399/329/312
f 396/140/310 389/152/227 400/192/313
f 396/140/310 400/192/313 401/136/231
f 402/135/314 399/329/312 396/140/310
f 401/136/231 402/135/314 396/140/310
f 402/135/314 403/330/315 399/329/312
f 405/122/316 401/136/231 404/193/317
f 401/136/231 405/122/316 402/135/314
f 405/122/316 404/193/317 406/194/318
f 406/194/318 408/118/319 405/122/316
f 409/331/320 405/122/316 408/118/319
f 405/122/316 409/331/320 410/332/321
f 412/333/322 405/122/316 410/332/321
f 412/333/322 413/334/321 414/335/321
f 415/336/323 412/333/322 414/335/321
f 405/122/316 412/333/322 415/336/323
f 405/122/316 415/336/323 416/337/323
f 405/122/316 416/337/323 417/338/322
f 405/122/316 417/338/322 418/339/322
f 402/135/314 405/122/316 418/339/322
f 402/135/314 418/339/322 419/340/323
f 419/340/323 420/341/322 402/135/314
f 421/342/324 402/135/314 420/341/322
f 421/342/324 403/330/315 402/135/314
f 403/330/315 421/342/324 422/343/315
f 422/343/315 423/344/325 403/330/315
f 423/344/325 422/343/315 424/345/325
f 425/346/326 423/344/325 424/345/325
f 423/344/325 425/346/326 426/347/327
f 423/344/325 426/347/327 427/348/315
f 426/347/327 425/346/326 428/349/321
f 428/349/321 429/350/322 426/347/327
f 430/351/328 431/352/329 432/353/309
f 431/352/329 433/354/329 432/353/309
f 433/354/329 431/352/329 434/355/330
f 431/352/329 430/351/328 435/356/308
f 436/357/329 435/356/308 430/351/328
f 435/356/308 436/357/329 437/358/329
f 438/359/331 439/360/331 440/361/332
f 439/360/331 438/359/331 441/362/332
f 442/363/333 438/359/331 440/361/332
f 438/359/331 442/363/333 443/364/331
f 443/364/331 442/363/333 444/365/332
f 376/172/291 445/366/334 380/176/294
f 445/366/334 376/172/291 446/367/335
f 373/165/290 446/367/335 376/172/291
f 380/176/294 445/366/334 447/368/335
f 446/367/335 373/165/290 448/369/335
f 373/165/290 449/370/336 448/369/335
f 373/165/290 450/371/337 449/370/336
f 373/165/290 451/372/337 450/371/337
f 372/162/288 451/372/337 373/165/290
f 380/176/294 447/368/335 452/373/338
f 451/372/337 372/162/288 390/155/304
f 368/163/289 390/155/304 372/162/288
f 390/155/304 453/374/337 451/372/337
f 390/155/304 368/163/289 371/164/224
f 390/155/304 454/375/339 453/374/337
f 452/373/338 455/376/340 456/377/341
f 452/373/338 456/377/341 457/378/342
f 457/378/342 380/176/294 452/373/338
f 380/176/294 457/378/342 458/379/340
f 459/380/342 380/176/294 458/379/340
f 460/381/343 454/375/339 461/382/343
f 454/375/339 462/383/343 461/382/343
f 390/155/304 462/383/343 454/375/339
f 462/383/343 390/155/304 392/323/306
f 463/190/344 380/176/294 459/380/342
f 379/186/10 380/176/294 463/190/344
f 463/190/344 459/380/342 464/384/345
f 464/384/345 465/385/346 463/190/344
f 383/195/295 379/186/10 463/190/344
f 383/195/295 463/190/344 465/385/346
f 383/195/295 465/385/346 466/386/347
f 383/195/295 466/386/347 467/387/346
f 467/387/346 468/388/348 383/195/295
f 469/389/347 468/388/348 467/387/346
f 468/388/348 469/389/347 470/390/347
f 471/391/346 470/390/347 469/389/347
f 470/390/347 471/391/346 472/392/347
f 472/392/347 471/391/346 473/393/349
f 383/195/295 468/388/348 474/394/350
f 383/195/295 474/394/350 475/395/350
f 383/195/295 475/395/350 476/396/350
f 477/397/351 383/195/295 476/396/350
f 387/240/300 383/195/295 477/397/351
f 387/240/300 477/397/351 478/398/350
f 479/399/352 387/240/300 478/398/350
f 387/240/300 479/399/352 480/400/322
f 480/400/322 385/231/297 387/240/300
f 481/401/321 385/231/297 480/400/322
f 482/402/322 385/231/297 481/401/321
f 482/402/322 481/401/321 483/403/322
f 482/402/322 483/403/322 484/404/322
f 385/231/297 482/402/322 485/405/321
f 486/406/320 385/231/297 485/405/321
f 385/231/297 486/406/320 388/228/301
f 486/406/320 487/123/353 388/228/301
f 487/123/353 486/406/320 488/407/354
f 487/123/353 488/407/354 489/408/355
f 487/123/353 366/227/303 388/228/301
f 409/331/320 487/123/353 489/408/355
f 366/227/303 487/123/353 490/224/356
f 487/123/353 409/331/320 408/118/319
f 492/120/357 490/224/356 487/123/353
f 487/123/353 408/118/319 492/120/357
f 495/222/358 491/226/359 493/223/102
f 494/221/360 495/222/358 493/223/102
f 496/225/361 364/229/29 491/226/359
f 495/222/358 496/225/361 491/226/359
f 495/222/358 494/221/360 497/217/362
f 498/219/363 496/225/361 495/222/358
f 497/217/362 498/219/363 495/222/358
f 411/218/236 497/217/362 494/221/360
f 498/219/363 497/217/362 499/215/364
f 407/119/365 492/120/357 408/118/319
f 408/118/319 406/194/318 407/119/365
f 499/215/364 500/107/366 498/219/363
f 500/107/366 499/215/364 501/108/367
f 500/107/366 502/220/368 498/219/363
f 498/219/363 502/220/368 496/225/361
f 500/107/366 503/111/369 502/220/368
f 504/267/370 496/225/361 502/220/368
f 496/225/361 504/267/370 364/229/29
f 505/268/371 502/220/368 503/111/369
f 502/220/368 505/268/371 504/267/370
f 506/214/372 501/108/367 499/215/364
f 499/215/364 507/216/243 506/214/372
f 507/216/243 499/215/364 497/217/362
f 497/217/362 411/218/236 507/216/243
