# Blender 5.1.2
# www.blender.org
mtllib bag 'o money detonator or smt.mtl
o Bag_o'_Money
v -0.171108 0.460149 -0.058832
v -0.113316 0.361486 -0.088507
v -0.170377 0.360869 -0.059505
v -0.114046 0.460766 -0.087833
v -0.052457 0.361799 -0.068664
v -0.053189 0.461080 -0.067991
v -0.163279 0.471549 -0.051983
v -0.060044 0.472364 -0.060002
v -0.113323 0.472089 -0.077374
v -0.163279 0.471549 -0.051983
v -0.060044 0.472364 -0.060002
v -0.113323 0.472089 -0.077374
v -0.034650 0.472212 -0.010044
v -0.180648 0.471060 0.001296
v -0.052020 0.471721 0.043230
v -0.155255 0.470909 0.051256
v -0.101976 0.471181 0.068623
v -0.052457 0.361799 -0.068664
v -0.053189 0.461080 -0.067991
v -0.023453 0.361626 -0.011601
v -0.024184 0.460906 -0.010928
v -0.060044 0.472364 -0.060002
v -0.043292 0.361068 0.049258
v -0.034650 0.472212 -0.010044
v -0.044023 0.460348 0.049933
v -0.052020 0.471721 0.043230
v -0.043292 0.361068 0.049258
v -0.044023 0.460348 0.049933
v -0.100354 0.360450 0.078257
v -0.052020 0.471721 0.043230
v -0.101085 0.459730 0.078932
v -0.161212 0.360136 0.058415
v -0.155255 0.470909 0.051256
v -0.101976 0.471181 0.068623
v -0.161943 0.459417 0.059090
v -0.171108 0.460149 -0.058832
v -0.170377 0.360869 -0.059505
v -0.190947 0.459590 0.002025
v -0.190216 0.360310 0.001352
v -0.163279 0.471549 -0.051983
v -0.180648 0.471060 0.001296
v -0.161212 0.360136 0.058415
v -0.155255 0.470909 0.051256
v -0.161943 0.459417 0.059090
v -0.051507 0.342919 -0.069899
v -0.047448 0.321639 -0.074602
v -0.113695 0.321298 -0.096201
v -0.113388 0.342600 -0.090075
v -0.171408 0.341973 -0.060585
v -0.175810 0.320627 -0.064631
v -0.051507 0.342919 -0.069899
v -0.015876 0.321450 -0.012486
v -0.047448 0.321639 -0.074602
v -0.022015 0.342742 -0.011877
v -0.042188 0.342174 0.050003
v -0.037472 0.320842 0.053760
v -0.042188 0.342174 0.050003
v -0.037472 0.320842 0.053760
v -0.099586 0.320171 0.085332
v -0.100208 0.341548 0.079495
v -0.162088 0.341229 0.059317
v -0.165833 0.319829 0.063731
v -0.015876 0.321450 -0.012486
v -0.047448 0.321639 -0.074602
v -0.113695 0.321298 -0.096201
v -0.060401 0.301952 -0.059432
v -0.035813 0.301804 -0.011058
v -0.111991 0.301685 -0.076252
v -0.052631 0.301330 0.040531
v -0.160363 0.301162 -0.051667
v -0.175810 0.320627 -0.064631
v -0.037472 0.320842 0.053760
v -0.099586 0.320171 0.085332
v -0.101003 0.300807 0.065116
v -0.152594 0.300542 0.048296
v -0.165833 0.319829 0.063731
v -0.197406 0.320018 0.001614
v -0.177181 0.300689 -0.000078
v -0.171408 0.341973 -0.060585
v -0.175810 0.320627 -0.064631
v -0.162088 0.341229 0.059317
v -0.165833 0.319829 0.063731
v -0.197406 0.320018 0.001614
v -0.191581 0.341405 0.001295
v -0.027267 0.375230 0.063069
v 0.001296 0.423747 0.088149
v -0.098392 0.400131 0.107484
v -0.100407 0.357905 0.077258
v -0.175122 0.374062 0.074551
v -0.200228 0.422155 0.103799
v -0.114396 0.224526 -0.116391
v -0.060248 0.301780 -0.059543
v -0.033929 0.224940 -0.090155
v -0.040929 0.153721 -0.081846
v -0.112976 0.153349 -0.105336
v -0.180528 0.152619 -0.071002
v -0.189843 0.223710 -0.078044
v -0.113643 0.078667 -0.121518
v -0.030157 0.079096 -0.094297
v -0.191923 0.077819 -0.081732
v -0.186286 -0.024035 -0.078242
v -0.033588 -0.022830 -0.090103
v -0.112395 -0.023236 -0.115797
v -0.113407 -0.101181 -0.136734
v -0.201262 -0.102131 -0.092080
v -0.019705 -0.100698 -0.106183
v -0.190277 -0.184157 -0.083753
v -0.027985 -0.182877 -0.096358
v -0.111743 -0.183308 -0.123668
v -0.216611 -0.329130 -0.108186
v -0.183293 -0.466631 -0.081472
v -0.221011 -0.368768 -0.112470
v -0.109164 -0.465830 -0.119148
v -0.113658 -0.367608 -0.167033
v -0.030101 -0.465423 -0.093371
v 0.000838 -0.367018 -0.129702
v -0.113471 -0.328015 -0.160608
v -0.003468 -0.327448 -0.124742
v -0.027023 0.381551 -0.098510
v -0.049834 0.344880 -0.071789
v -0.115141 0.368571 -0.111353
v -0.200412 0.380183 -0.085042
v -0.113491 0.344553 -0.092544
v -0.173177 0.343908 -0.062208
v -0.111896 0.301514 -0.076382
v -0.160322 0.300990 -0.051770
v -0.235517 0.386656 0.004949
v -0.215892 0.423409 -0.097723
v -0.231329 0.413473 -0.111065
v -0.117020 0.388468 -0.133516
v -0.219556 0.399943 0.003792
v -0.115869 0.401529 -0.117368
v -0.200228 0.422155 0.103799
v -0.014367 0.424999 -0.113377
v -0.213429 0.412043 0.119246
v -0.001021 0.415290 -0.128954
v -0.097047 0.386873 0.123456
v 0.021451 0.388683 -0.015010
v -0.098392 0.400131 0.107484
v 0.005296 0.401717 -0.013674
v 0.001296 0.423747 0.088149
v 0.016880 0.413858 0.101352
v -0.186614 0.374982 -0.073301
v -0.113229 0.358929 -0.087714
v -0.189302 0.357766 0.001178
v -0.153238 0.333908 -0.045276
v -0.110316 0.324518 -0.053706
v -0.154810 0.323839 -0.001713
v -0.066759 0.334590 -0.051993
v -0.146516 0.333371 0.041204
v -0.038760 0.376149 -0.084786
v -0.024334 0.359067 -0.011636
v -0.058322 0.324599 -0.009209
v -0.060038 0.334053 0.034486
v -0.027267 0.375230 0.063069
v -0.100407 0.357905 0.077258
v -0.102816 0.323919 0.042784
v -0.175122 0.374062 0.074551
v -0.186614 0.374982 -0.073301
v -0.215892 0.423409 -0.097723
v -0.219556 0.399943 0.003792
v -0.189302 0.357766 0.001178
v -0.175122 0.374062 0.074551
v -0.200228 0.422155 0.103799
v -0.060248 0.301780 -0.059543
v -0.033929 0.224940 -0.090155
v -0.040929 0.153721 -0.081846
v -0.030157 0.079096 -0.094297
v -0.033588 -0.022830 -0.090103
v -0.021720 -0.023779 0.062596
v -0.019705 -0.100698 -0.106183
v 0.024953 -0.100965 -0.018324
v 0.003970 -0.023055 -0.016210
v -0.027985 -0.182877 -0.096358
v -0.005593 -0.101826 0.075376
v 0.011934 -0.183115 -0.017823
v -0.015371 -0.183884 0.065935
v 0.048959 -0.327762 -0.021599
v 0.013098 -0.328772 0.088403
v 0.018081 -0.368396 0.092148
v 0.055406 -0.367344 -0.022346
v -0.018194 -0.466374 0.059822
v 0.007578 -0.465649 -0.019239
v -0.030101 -0.465423 -0.093371
v 0.000838 -0.367018 -0.129702
v -0.003468 -0.327448 -0.124742
v 0.009633 0.078858 -0.016017
v -0.017583 0.078091 0.067469
v -0.030079 0.152854 0.057754
v -0.006592 0.153515 -0.014292
v 0.004420 0.224711 -0.014706
v -0.021811 0.223972 0.065760
v -0.052470 0.301158 0.040532
v -0.035632 0.301632 -0.011115
v -0.019495 0.344699 -0.012102
v -0.040247 0.344115 0.051555
v -0.000701 0.368749 -0.013412
v -0.013547 0.380473 0.074878
v -0.027023 0.381551 -0.098510
v -0.049834 0.344880 -0.071789
v -0.186614 0.374982 -0.073301
v -0.115869 0.401529 -0.117368
v -0.215892 0.423409 -0.097723
v -0.113229 0.358929 -0.087714
v -0.038760 0.376149 -0.084786
v -0.014367 0.424999 -0.113377
v -0.169678 0.151752 0.068597
v -0.179349 0.076815 0.080035
v -0.095862 0.077245 0.107255
v -0.174417 -0.024983 0.074457
v -0.095610 -0.024577 0.100152
v -0.021720 -0.023779 0.062596
v -0.187151 -0.103259 0.089479
v -0.005593 -0.101826 0.075376
v -0.093449 -0.102776 0.120029
v -0.015371 -0.183884 0.065935
v -0.093904 -0.184733 0.105850
v -0.177663 -0.185165 0.078541
v -0.090042 -0.329887 0.140824
v -0.200045 -0.330454 0.104959
v 0.013098 -0.328772 0.088403
v -0.089272 -0.369556 0.146711
v -0.203767 -0.370146 0.109380
v 0.018081 -0.368396 0.092148
v -0.018194 -0.466374 0.059822
v -0.092324 -0.467177 0.097498
v -0.171387 -0.467583 0.071721
v -0.017583 0.078091 0.067469
v -0.030079 0.152854 0.057754
v -0.097631 0.152124 0.092088
v -0.097258 0.223157 0.104107
v -0.021811 0.223972 0.065760
v -0.052470 0.301158 0.040532
v -0.177725 0.222742 0.077870
v -0.152543 0.300369 0.048305
v -0.100896 0.300635 0.065146
v -0.099933 0.343469 0.081889
v -0.163590 0.343141 0.061135
v -0.040247 0.344115 0.051555
v -0.098634 0.367253 0.101025
v -0.013547 0.380473 0.074878
v -0.186935 0.379107 0.088351
v -0.018194 -0.466374 0.059822
v -0.092324 -0.467177 0.097498
v -0.171387 -0.467583 0.071721
v -0.100384 -0.515464 -0.011157
v -0.209066 -0.467358 -0.002411
v -0.183293 -0.466631 -0.081472
v 0.007578 -0.465649 -0.019239
v -0.109164 -0.465830 -0.119148
v -0.030101 -0.465423 -0.093371
v -0.098634 0.367253 0.101025
v -0.000701 0.368749 -0.013412
v -0.013547 0.380473 0.074878
v -0.097047 0.386873 0.123456
v 0.016880 0.413858 0.101352
v 0.021451 0.388683 -0.015010
v -0.186935 0.379107 0.088351
v -0.213429 0.412043 0.119246
v -0.235517 0.386656 0.004949
v -0.027023 0.381551 -0.098510
v -0.001021 0.415290 -0.128954
v -0.117020 0.388468 -0.133516
v -0.115141 0.368571 -0.111353
v -0.200412 0.380183 -0.085042
v -0.231329 0.413473 -0.111065
v -0.213075 0.367073 0.003084
v -0.038760 0.376149 -0.084786
v -0.014367 0.424999 -0.113377
v 0.005296 0.401717 -0.013674
v -0.024334 0.359067 -0.011636
v -0.027267 0.375230 0.063069
v 0.001296 0.423747 0.088149
v -0.180528 0.152619 -0.071002
v -0.189843 0.223710 -0.078044
v -0.216074 0.222971 0.002422
v -0.204015 0.151958 0.001043
v -0.169678 0.151752 0.068597
v -0.219138 0.077053 0.001753
v -0.191923 0.077819 -0.081732
v -0.179349 0.076815 0.080035
v -0.186286 -0.024035 -0.078242
v -0.174417 -0.024983 0.074457
v -0.211976 -0.024758 0.000565
v -0.231808 -0.102991 0.001620
v -0.201262 -0.102131 -0.092080
v -0.187151 -0.103259 0.089479
v -0.190277 -0.184157 -0.083753
v -0.177663 -0.185165 0.078541
v -0.217582 -0.184926 0.000005
v -0.252472 -0.330140 0.001815
v -0.200045 -0.330454 0.104959
v -0.216611 -0.329130 -0.108186
v -0.258335 -0.369820 0.002025
v -0.203767 -0.370146 0.109380
v -0.171387 -0.467583 0.071721
v -0.209066 -0.467358 -0.002411
v -0.183293 -0.466631 -0.081472
v -0.221011 -0.368768 -0.112470
v -0.177725 0.222742 0.077870
v -0.152543 0.300369 0.048305
v -0.163590 0.343141 0.061135
v -0.186935 0.379107 0.088351
v -0.200412 0.380183 -0.085042
v -0.173177 0.343908 -0.062208
v -0.213075 0.367073 0.003084
v -0.193928 0.343323 0.001448
v -0.177160 0.300516 -0.000122
v -0.160322 0.300990 -0.051770
vn -0.7166 0.3344 -0.6121
vn -0.0748 0.0044 -0.9972
vn -0.7617 0.0007 -0.6479
vn -0.0718 0.3435 -0.9364
vn 0.6519 0.0124 -0.7582
vn 0.6082 0.3422 -0.7163
vn -0.3734 0.8758 -0.3058
vn 0.3040 0.8824 -0.3591
vn -0.0471 0.8806 -0.4715
vn 0.3041 0.8824 -0.3590
vn -0.0470 0.8808 -0.4712
vn 0.3604 0.8774 0.3166
vn 0.4709 0.8816 -0.0313
vn -0.3187 0.8722 0.3710
vn -0.4832 0.8745 0.0417
vn 0.0337 0.8753 0.4825
vn 0.6525 0.0124 -0.7577
vn 0.6088 0.3422 -0.7157
vn 0.9968 0.0110 -0.0789
vn 0.9357 0.3455 -0.0718
vn 0.3041 0.8824 -0.3591
vn 0.7622 -0.0007 0.6474
vn 0.4713 0.8814 -0.0314
vn 0.7138 0.3364 0.6143
vn 0.3605 0.8774 0.3166
vn 0.0784 -0.0103 0.9969
vn 0.7617 -0.0008 0.6479
vn 0.7132 0.3364 0.6149
vn 0.0691 0.3312 0.9410
vn -0.6519 -0.0124 0.7582
vn 0.0338 0.8751 0.4828
vn -0.6145 0.3268 0.7180
vn -0.9416 0.3283 0.0754
vn -0.7172 0.3344 -0.6114
vn -0.7622 0.0008 -0.6474
vn -0.9971 -0.0049 0.0761
vn -0.3734 0.8758 -0.3059
vn -0.4836 0.8743 0.0417
vn -0.6152 0.3268 0.7174
vn -0.6525 -0.0124 0.7577
vn -0.0716 -0.2250 -0.9717
vn 0.6257 0.2777 -0.7290
vn 0.6341 -0.2231 -0.7404
vn -0.0804 0.2781 -0.9572
vn -0.7325 0.2695 -0.6251
vn -0.7366 -0.2390 -0.6327
vn 0.6262 0.2777 -0.7285
vn 0.9700 -0.2297 -0.0794
vn 0.6337 -0.2231 -0.7407
vn 0.9579 0.2770 -0.0762
vn 0.7288 0.2708 0.6289
vn 0.7405 -0.2303 0.6314
vn 0.0759 -0.2455 0.9664
vn 0.7408 -0.2303 0.6310
vn 0.7283 0.2708 0.6295
vn 0.0753 0.2637 0.9617
vn -0.6299 0.2615 0.7313
vn -0.6286 -0.2453 0.7380
vn 0.4585 -0.7114 -0.5326
vn 0.6339 -0.2228 -0.7406
vn -0.0717 -0.2249 -0.9717
vn 0.6969 -0.7146 -0.0608
vn -0.0519 -0.7129 -0.6993
vn 0.5368 -0.7163 0.4458
vn -0.5204 -0.7220 -0.4560
vn -0.7366 -0.2387 -0.6329
vn 0.7407 -0.2300 0.6312
vn 0.0593 -0.7254 0.6858
vn -0.4497 -0.7243 0.5226
vn -0.6284 -0.2450 0.7383
vn -0.9669 -0.2451 0.0710
vn -0.6849 -0.7271 0.0474
vn -0.6304 0.2615 0.7309
vn -0.6282 -0.2453 0.7384
vn -0.7330 0.2695 -0.6245
vn -0.7363 -0.2389 -0.6330
vn -0.9622 0.2625 0.0725
vn -0.0666 0.5807 -0.8114
vn -0.6036 0.6152 -0.5072
vn -0.5801 0.6502 -0.4906
vn -0.0620 0.6522 -0.7555
vn 0.4872 0.6585 -0.5736
vn 0.5080 0.6241 -0.5936
vn -0.0753 0.1494 -0.9859
vn 0.6482 0.0701 -0.7582
vn 0.6389 0.1565 -0.7532
vn 0.6509 0.0317 -0.7585
vn -0.0796 0.0295 -0.9964
vn -0.7581 0.0237 -0.6517
vn -0.7526 0.1400 -0.6435
vn -0.0751 0.0751 -0.9943
vn 0.6504 0.0831 -0.7550
vn -0.7611 0.0715 -0.6446
vn -0.7563 0.0944 -0.6474
vn 0.6445 0.1085 -0.7569
vn -0.0733 0.1074 -0.9915
vn -0.0807 0.0487 -0.9955
vn -0.7581 0.0430 -0.6508
vn 0.6496 0.0509 -0.7585
vn -0.7581 0.0429 -0.6507
vn 0.6497 0.0509 -0.7585
vn -0.0788 -0.1374 -0.9874
vn -0.5505 -0.6823 -0.4811
vn -0.7503 -0.1404 -0.6460
vn -0.0541 -0.6778 -0.7332
vn -0.7453 0.1986 -0.6365
vn 0.4842 -0.6730 -0.5592
vn 0.6461 -0.1295 -0.7521
vn -0.0743 0.2043 -0.9761
vn 0.6352 0.2082 -0.7437
vn -0.0454 -0.7103 -0.7024
vn 0.4442 -0.7306 -0.5185
vn 0.5532 -0.5376 -0.6364
vn -0.0567 -0.5347 -0.8432
vn -0.6360 -0.5455 -0.5458
vn -0.5057 -0.7378 -0.4471
vn -0.0779 0.0619 -0.9950
vn -0.7578 0.0621 -0.6495
vn -0.6356 0.7698 0.0584
vn -0.3395 0.8992 -0.2759
vn -0.3395 0.8992 -0.2760
vn -0.0531 0.7802 -0.6233
vn -0.0531 0.7802 -0.6232
vn -0.2939 0.8934 0.3397
vn 0.2795 0.9040 -0.3235
vn -0.2940 0.8934 0.3397
vn 0.2796 0.9040 -0.3234
vn 0.0450 0.7731 0.6327
vn 0.6243 0.7801 -0.0402
vn 0.6243 0.7801 -0.0403
vn 0.3212 0.9010 0.2916
vn 0.3211 0.9010 0.2916
vn 0.0559 0.6435 0.7634
vn 0.5700 0.6528 0.4990
vn 0.5156 0.7273 0.4530
vn 0.7554 0.6532 -0.0523
vn 0.0497 0.7058 0.7067
vn 0.6970 0.7154 -0.0498
vn -0.4544 0.7188 0.5262
vn 0.4412 0.7337 -0.5168
vn -0.4973 0.6433 0.5821
vn -0.7614 0.6451 0.0638
vn -0.7101 0.7015 0.0609
vn -0.5300 0.7241 -0.4413
vn -0.5802 0.6504 -0.4903
vn -0.0620 0.6525 -0.7553
vn -0.0562 0.7135 -0.6984
vn 0.4872 0.6590 -0.5730
vn 0.8085 0.5855 -0.0599
vn 0.5704 0.6523 0.4991
vn 0.5961 0.6162 0.5147
vn 0.7556 0.6530 -0.0523
vn 0.5086 0.6242 -0.5931
vn 0.4876 0.6588 -0.5729
vn 0.9956 0.0497 -0.0791
vn 0.6503 0.0509 -0.7580
vn 0.6450 0.1084 -0.7564
vn 0.9910 0.1075 -0.0793
vn 0.7553 0.1021 0.6474
vn 0.6502 0.0509 -0.7581
vn 0.7566 0.0472 0.6522
vn 0.7573 0.0409 0.6518
vn 0.9767 0.2000 -0.0774
vn 0.7457 0.1947 0.6372
vn 0.9877 -0.1340 -0.0808
vn 0.7531 -0.1400 0.6429
vn 0.5623 -0.6799 0.4707
vn 0.7331 -0.6770 -0.0649
vn 0.4842 -0.6729 -0.5592
vn 0.6467 -0.1295 -0.7516
vn 0.6358 0.2082 -0.7432
vn 0.9937 0.0816 -0.0765
vn 0.7590 0.0698 0.6474
vn 0.7576 0.0280 0.6521
vn 0.9964 0.0304 -0.0790
vn 0.6510 0.0831 -0.7545
vn 0.6515 0.0316 -0.7580
vn 0.9850 0.1556 -0.0748
vn 0.7544 0.1434 0.6406
vn 0.7595 0.0571 0.6480
vn 0.6396 0.1565 -0.7527
vn 0.9945 0.0690 -0.0792
vn 0.6487 0.0701 -0.7578
vn 0.8418 -0.5354 -0.0688
vn 0.6414 -0.5446 0.5404
vn 0.7042 -0.7078 -0.0559
vn 0.5171 -0.7350 0.4386
vn 0.5537 -0.5376 -0.6359
vn 0.4448 -0.7306 -0.5180
vn 0.5698 0.6526 0.4994
vn 0.0553 0.5734 0.8174
vn 0.5957 0.6162 0.5152
vn 0.0560 0.6432 0.7637
vn -0.4973 0.6428 0.5826
vn -0.5186 0.6074 0.6018
vn 0.0735 0.0665 0.9951
vn -0.6461 0.0138 0.7632
vn -0.6502 0.0582 0.7576
vn -0.6474 0.0916 0.7566
vn 0.0749 0.0957 0.9926
vn 0.7549 0.1021 0.6479
vn 0.0787 0.0380 0.9962
vn 0.7560 0.0472 0.6528
vn 0.7568 0.0408 0.6523
vn -0.6465 0.0330 0.7622
vn 0.0788 0.0381 0.9962
vn 0.0745 0.1897 0.9790
vn -0.6405 0.1816 0.7462
vn 0.7452 0.1947 0.6378
vn 0.0753 -0.1494 0.9859
vn -0.6432 -0.1503 0.7508
vn 0.7526 -0.1400 0.6435
vn 0.0611 -0.6841 0.7268
vn -0.4714 -0.6882 0.5514
vn 0.7585 0.0698 0.6480
vn 0.7571 0.0279 0.6527
vn 0.0800 0.0188 0.9966
vn 0.0788 0.1374 0.9874
vn 0.7539 0.1435 0.6412
vn 0.7591 0.0571 0.6485
vn -0.6430 0.1338 0.7541
vn -0.6507 0.0492 0.7577
vn 0.0775 0.0573 0.9953
vn 0.0671 -0.5453 0.8355
vn -0.5408 -0.5523 0.6345
vn 0.6409 -0.5446 0.5409
vn 0.0597 -0.7202 0.6912
vn 0.5166 -0.7351 0.4391
vn -0.4359 -0.7402 0.5120
vn 0.5621 -0.6802 0.4705
vn 0.0611 -0.6847 0.7263
vn 0.0122 -0.9999 -0.0095
vn -0.4712 -0.6886 0.5512
vn -0.7266 -0.6854 0.0484
vn -0.5503 -0.6826 -0.4809
vn 0.7326 -0.6776 -0.0649
vn -0.0541 -0.6784 -0.7327
vn 0.4840 -0.6733 -0.5590
vn 0.5168 -0.7351 0.4388
vn 0.0573 -0.7640 0.6427
vn 0.0597 -0.7202 0.6911
vn 0.4959 -0.7650 0.4110
vn 0.6546 -0.7538 -0.0576
vn 0.7041 -0.7079 -0.0559
vn -0.4362 -0.7402 0.5117
vn -0.4091 -0.7747 0.4822
vn -0.6444 -0.7636 0.0421
vn 0.4445 -0.7307 -0.5182
vn 0.4240 -0.7603 -0.4920
vn -0.0452 -0.7521 -0.6575
vn -0.5059 -0.7379 -0.4468
vn -0.4860 -0.7654 -0.4218
vn -0.6914 -0.7206 0.0522
vn -0.8204 0.5676 0.0692
vn -0.5192 0.6073 0.6013
vn -0.4977 0.6431 0.5820
vn -0.7617 0.6448 0.0639
vn -0.5807 0.6499 -0.4903
vn -0.6040 0.6152 -0.5066
vn -0.9872 0.1384 0.0791
vn -0.7531 0.1400 -0.6429
vn -0.7585 0.0237 -0.6512
vn -0.9970 0.0145 0.0760
vn -0.6466 0.0138 0.7627
vn -0.9949 0.0597 0.0809
vn -0.7616 0.0714 -0.6441
vn -0.6508 0.0583 0.7570
vn -0.7568 0.0944 -0.6468
vn -0.6480 0.0915 0.7562
vn -0.9931 0.0887 0.0761
vn -0.9966 0.0373 0.0740
vn -0.7586 0.0429 -0.6502
vn -0.6471 0.0330 0.7617
vn -0.7586 0.0430 -0.6502
vn -0.9966 0.0335 0.0758
vn -0.9798 0.1856 0.0738
vn -0.6410 0.1816 0.7457
vn -0.7457 0.1986 -0.6359
vn -0.9862 -0.1489 0.0721
vn -0.6438 -0.1503 0.7503
vn -0.7271 -0.6848 0.0484
vn -0.5505 -0.6823 -0.4810
vn -0.7508 -0.1404 -0.6454
vn -0.6436 0.1339 0.7536
vn -0.6512 0.0491 0.7573
vn -0.5062 -0.7378 -0.4466
vn -0.6365 -0.5455 -0.5453
vn -0.5413 -0.5523 0.6340
vn -0.4365 -0.7402 0.5115
vn -0.8368 -0.5441 0.0610
vn -0.9958 0.0506 0.0767
vn -0.7582 0.0621 -0.6490
vt 46.059101 -32.956100
vt 46.000000 -33.055302
vt 46.059101 -33.055302
vt 46.000000 -32.956100
vt 45.940899 -33.055302
vt 45.940899 -32.956100
vt 46.051800 -32.944698
vt 45.948200 -32.944698
vt 46.000000 -32.944698
vt 45.948200 -33.051800
vt 45.948200 -32.948200
vt 45.926800 -33.000000
vt 46.051800 -32.948200
vt 46.000000 -32.926800
vt 46.051800 -33.051800
vt 46.000000 -33.073200
vt 46.073200 -33.000000
vt 22.000000 -17.000900
vt 21.939899 -16.979601
vt 21.935600 -17.000900
vt 22.000000 -16.979601
vt 22.060101 -16.979601
vt 22.064400 -17.000900
vt 22.000000 -16.909000
vt 22.050100 -16.949900
vt 22.064400 -16.935600
vt 22.091000 -17.000000
vt 22.000000 -16.929100
vt 22.070900 -17.000000
vt 21.949900 -16.949900
vt 22.050100 -17.050100
vt 22.064400 -17.064400
vt 21.935600 -16.935600
vt 21.909000 -17.000000
vt 21.929100 -17.000000
vt 21.949900 -17.050100
vt 21.935600 -17.064400
vt 22.000000 -17.091000
vt 22.000000 -17.070900
vt 18.000000 -42.553200
vt 17.898899 -42.530499
vt 17.925800 -42.578899
vt 18.000000 -42.595600
vt 18.074200 -42.578899
vt 18.101101 -42.530499
vt 18.000000 -42.730202
vt 17.949800 -42.653000
vt 17.921801 -42.730202
vt 17.930000 -42.801300
vt 18.000000 -42.801300
vt 18.070000 -42.801300
vt 18.078199 -42.730202
vt 18.000000 -42.876099
vt 17.918900 -42.876099
vt 18.081100 -42.876099
vt 18.076599 -42.978001
vt 17.923401 -42.978001
vt 18.000000 -42.978001
vt 18.000000 -43.056000
vt 18.091101 -43.056000
vt 17.908899 -43.056000
vt 18.081400 -43.138100
vt 17.918600 -43.138100
vt 18.000000 -43.138100
vt 18.000000 -43.322701
vt 18.076799 -43.420601
vt 18.111300 -43.322701
vt 18.000000 -43.420601
vt 18.106899 -43.283001
vt 17.923201 -43.420601
vt 17.888700 -43.322701
vt 18.000000 -43.283001
vt 17.893101 -43.283001
vt 18.000000 -42.586102
vt 17.913000 -42.573700
vt 17.938101 -42.610001
vt 18.000000 -42.610001
vt 18.061899 -42.610001
vt 18.087000 -42.573700
vt 18.000000 -42.653000
vt 18.050200 -42.653000
vt 18.000000 -43.128899
vt 17.898899 -43.101101
vt 17.884501 -43.115501
vt 17.871099 -43.000000
vt 18.000000 -43.112801
vt 17.887199 -43.000000
vt 18.101101 -43.101101
vt 17.898899 -42.898899
vt 18.115499 -43.115501
vt 17.884501 -42.884499
vt 18.128901 -43.000000
vt 18.000000 -42.871101
vt 18.112801 -43.000000
vt 18.000000 -42.887199
vt 18.101101 -42.898899
vt 18.115499 -42.884499
vt 17.917299 -43.000000
vt 17.925800 -43.074200
vt 17.956600 -43.043400
vt 18.000000 -43.082699
vt 17.951599 -43.000000
vt 18.000000 -43.048401
vt 17.956600 -42.956600
vt 18.043400 -43.043400
vt 17.925800 -42.925800
vt 18.000000 -42.917301
vt 18.000000 -42.951599
vt 18.043400 -42.956600
vt 18.074200 -42.925800
vt 18.082701 -43.000000
vt 18.048401 -43.000000
vt 18.074200 -43.074200
vt 17.923201 -42.923199
vt 17.891300 -43.000000
vt 18.000000 -43.000000
vt 17.923201 -43.076801
vt 18.000000 -43.108700
vt 18.076799 -43.076801
vt 18.000000 -42.891300
vt 18.108700 -43.000000
vt 18.076799 -42.923199
vt 17.913000 -42.912998
vt 17.893499 -43.000000
vt 18.000000 -42.893501
vt 17.913000 -43.087002
vt 18.087000 -42.912998
vt 18.106501 -43.000000
vt 18.087000 -43.087002
vt 18.000000 -43.106499
s 1
usemtl Meshpart1Mtl.002
f 1/1/1 2/2/2 3/3/3
f 2/2/2 1/1/1 4/4/4
f 4/4/4 5/5/5 2/2/2
f 5/5/5 4/4/4 6/6/6
f 7/7/7 4/4/4 1/1/1
f 4/4/4 8/8/8 6/6/6
f 8/8/8 4/4/4 9/9/9
f 4/4/4 7/7/7 9/9/9
f 10/10/7 11/11/10 12/12/11
f 11/11/10 15/13/12 13/14/13
f 10/10/7 15/13/12 11/11/10
f 10/10/7 16/15/14 15/13/12
f 16/15/14 10/10/7 14/16/15
f 15/13/12 16/15/14 17/17/16
f 18/3/17 19/1/18 20/2/19
f 20/2/19 19/1/18 21/4/20
f 21/4/20 19/1/18 22/7/21
f 21/4/20 23/5/22 20/2/19
f 21/4/20 22/7/21 24/9/23
f 23/5/22 21/4/20 25/6/24
f 26/8/25 21/4/20 24/9/23
f 21/4/20 26/8/25 25/6/24
f 29/2/26 27/3/27 28/1/28
f 31/4/29 29/2/26 28/1/28
f 31/4/29 28/1/28 30/7/25
f 32/5/30 29/2/26 31/4/29
f 30/7/25 34/9/31 31/4/29
f 33/8/14 31/4/29 34/9/31
f 35/6/32 32/5/30 31/4/29
f 31/4/29 33/8/14 35/6/32
f 38/4/33 36/6/34 37/5/35
f 38/4/33 37/5/35 39/2/36
f 38/4/33 40/8/37 36/6/34
f 40/8/37 38/4/33 41/9/38
f 43/7/14 41/9/38 38/4/33
f 38/4/33 44/1/39 43/7/14
f 44/1/39 39/2/36 42/3/40
f 44/1/39 38/4/33 39/2/36
usemtl Meshpart2Mtl.002
f 47/18/41 45/19/42 46/20/43
f 45/19/42 47/18/41 48/21/44
f 47/18/41 49/22/45 48/21/44
f 49/22/45 47/18/41 50/23/46
f 51/22/47 52/18/48 53/23/49
f 52/18/48 51/22/47 54/21/50
f 55/19/51 52/18/48 54/21/50
f 52/18/48 55/19/51 56/20/52
f 59/18/53 58/23/54 57/22/55
f 57/22/55 60/21/56 59/18/53
f 61/19/57 59/18/53 60/21/56
f 59/18/53 61/19/57 62/20/58
f 63/24/48 66/25/59 64/26/60
f 65/27/61 64/26/60 66/25/59
f 66/25/59 63/24/48 67/28/62
f 65/27/61 66/25/59 68/29/63
f 63/24/48 69/30/64 67/28/62
f 70/31/65 65/27/61 68/29/63
f 65/27/61 70/31/65 71/32/66
f 69/30/64 63/24/48 72/33/67
f 73/34/53 69/30/64 72/33/67
f 69/30/64 73/34/53 74/35/68
f 75/36/69 74/35/68 73/34/53
f 75/36/69 73/34/53 76/37/70
f 77/38/71 75/36/69 76/37/70
f 75/36/69 77/38/71 78/39/72
f 77/38/71 70/31/65 78/39/72
f 77/38/71 71/32/66 70/31/65
f 81/22/73 83/18/71 82/23/74
f 83/18/71 79/19/75 80/20/76
f 81/22/73 84/21/77 83/18/71
f 79/19/75 83/18/71 84/21/77
usemtl Meshpart3Mtl.002
f 87/40/78 86/41/79 85/42/80
f 85/42/80 88/43/81 87/40/78
f 89/44/82 87/40/78 88/43/81
f 87/40/78 89/44/82 90/45/83
f 91/46/84 92/47/85 93/48/86
f 94/49/87 91/46/84 93/48/86
f 91/46/84 94/49/87 95/50/88
f 91/46/84 96/51/89 97/52/90
f 96/51/89 91/46/84 95/50/88
f 94/49/87 98/53/91 95/50/88
f 98/53/91 96/51/89 95/50/88
f 98/53/91 94/49/87 99/54/92
f 96/51/89 98/53/91 100/55/93
f 100/55/93 98/53/91 101/56/94
f 102/57/95 98/53/91 99/54/92
f 101/56/94 98/53/91 103/58/96
f 98/53/91 102/57/95 103/58/96
f 101/56/94 103/58/96 104/59/97
f 102/57/95 104/59/97 103/58/96
f 105/60/98 101/56/94 104/59/97
f 104/59/97 102/57/95 106/61/99
f 104/59/97 107/62/100 105/60/98
f 104/59/97 106/61/99 108/63/101
f 109/64/97 104/59/97 108/63/101
f 107/62/100 104/59/97 109/64/97
f 114/65/102 111/66/103 112/67/104
f 111/66/103 114/65/102 113/68/105
f 114/65/102 112/67/104 110/69/106
f 113/68/105 114/65/102 115/70/107
f 114/65/102 116/71/108 115/70/107
f 110/69/106 117/72/109 114/65/102
f 110/69/106 107/62/100 117/72/109
f 107/62/100 109/64/97 117/72/109
f 108/63/101 117/72/109 109/64/97
f 114/65/102 118/73/110 116/71/108
f 118/73/110 114/65/102 117/72/109
f 117/72/109 108/63/101 118/73/110
f 121/74/111 119/75/112 120/76/113
f 121/74/111 120/76/113 123/77/114
f 92/47/85 123/77/114 120/76/113
f 121/74/111 124/78/115 122/79/116
f 124/78/115 121/74/111 123/77/114
f 123/77/114 92/47/85 125/80/117
f 123/77/114 126/81/118 124/78/115
f 126/81/118 123/77/114 125/80/117
f 91/46/84 126/81/118 125/80/117
f 92/47/85 91/46/84 125/80/117
f 126/81/118 91/46/84 97/52/90
f 127/82/119 128/83/120 129/84/121
f 130/85/122 129/84/121 128/83/120
f 128/83/120 127/82/119 131/86/119
f 130/85/122 128/83/120 132/87/123
f 127/82/119 133/88/124 131/86/119
f 134/89/125 130/85/122 132/87/123
f 133/88/124 127/82/119 135/90/126
f 130/85/122 134/89/125 136/91/127
f 137/92/128 133/88/124 135/90/126
f 138/93/129 136/91/127 134/89/125
f 133/88/124 137/92/128 139/94/128
f 134/89/125 140/95/130 138/93/129
f 141/96/131 139/94/128 137/92/128
f 141/96/131 138/93/129 140/95/130
f 137/92/128 142/97/132 141/96/131
f 138/93/129 141/96/131 142/97/132
f 144/98/133 143/99/134 146/100/135
f 145/101/136 146/100/135 143/99/134
f 144/98/133 146/100/135 147/102/137
f 146/100/135 145/101/136 148/103/138
f 149/104/139 144/98/133 147/102/137
f 145/101/136 150/105/140 148/103/138
f 144/98/133 149/104/139 151/106/141
f 152/107/142 151/106/141 149/104/139
f 149/104/139 153/108/143 152/107/142
f 154/109/144 152/107/142 153/108/143
f 152/107/142 154/109/144 155/110/145
f 156/111/146 155/110/145 154/109/144
f 156/111/146 154/109/144 157/112/147
f 150/105/140 156/111/146 157/112/147
f 156/111/146 150/105/140 158/113/148
f 150/105/140 145/101/136 158/113/148
f 161/40/149 159/44/150 160/45/151
f 159/44/150 161/40/149 162/43/152
f 161/40/149 164/41/153 163/42/154
f 163/42/154 162/43/152 161/40/149
f 172/59/155 171/60/156 169/56/157
f 172/59/155 169/56/157 173/58/158
f 170/57/159 172/59/155 173/58/158
f 172/59/155 174/62/160 171/60/156
f 172/59/155 170/57/159 175/61/161
f 174/62/160 172/59/155 176/64/155
f 177/63/162 172/59/155 175/61/161
f 177/63/162 176/64/155 172/59/155
f 177/63/162 178/72/163 176/64/155
f 178/72/163 174/62/160 176/64/155
f 178/72/163 177/63/162 179/73/164
f 179/73/164 181/65/165 178/72/163
f 181/65/165 179/73/164 180/71/166
f 181/65/165 180/71/166 182/70/167
f 182/70/167 183/68/168 181/65/165
f 184/66/169 181/65/165 183/68/168
f 181/65/165 184/66/169 185/67/170
f 181/65/165 185/67/170 186/69/171
f 181/65/165 186/69/171 178/72/163
f 178/72/163 186/69/171 174/62/160
f 170/57/159 187/53/172 188/54/173
f 187/53/172 170/57/159 173/58/158
f 187/53/172 189/49/174 188/54/173
f 189/49/174 187/53/172 190/50/175
f 173/58/158 169/56/157 187/53/172
f 169/56/157 168/55/176 187/53/172
f 187/53/172 167/51/177 190/50/175
f 168/55/176 167/51/177 187/53/172
f 190/50/175 191/46/178 189/49/174
f 167/51/177 191/46/178 190/50/175
f 189/49/174 191/46/178 192/48/179
f 191/46/178 193/47/180 192/48/179
f 191/46/178 167/51/177 166/52/181
f 193/47/180 191/46/178 194/80/182
f 191/46/178 165/81/183 194/80/182
f 165/81/183 191/46/178 166/52/181
f 194/80/182 195/77/184 193/47/180
f 165/81/183 195/77/184 194/80/182
f 193/47/180 195/77/184 196/76/185
f 196/76/185 195/77/184 197/74/186
f 196/76/185 197/74/186 198/75/187
f 197/74/186 200/78/188 199/79/189
f 200/78/188 197/74/186 195/77/184
f 195/77/184 165/81/183 200/78/188
f 201/42/190 202/40/191 203/41/192
f 202/40/191 201/42/190 204/43/193
f 205/44/194 202/40/191 204/43/193
f 202/40/191 205/44/194 206/45/195
f 209/53/196 207/49/197 208/54/198
f 210/57/199 209/53/196 208/54/198
f 209/53/196 210/57/199 211/58/200
f 209/53/196 211/58/200 212/56/201
f 212/56/201 215/59/202 214/60/203
f 215/59/202 212/56/201 211/58/200
f 210/57/199 215/59/202 211/58/200
f 215/59/202 216/62/204 214/60/203
f 215/59/202 210/57/199 213/61/205
f 216/62/204 215/59/202 217/64/206
f 218/63/205 215/59/202 213/61/205
f 215/59/202 218/63/205 217/64/206
f 219/72/207 216/62/204 217/64/206
f 218/63/205 219/72/207 217/64/206
f 219/72/207 218/63/205 220/73/208
f 216/62/204 219/72/207 221/69/209
f 220/73/208 222/65/210 219/72/207
f 222/65/210 221/69/209 219/72/207
f 222/65/210 220/73/208 223/71/211
f 221/69/209 222/65/210 224/67/212
f 222/65/210 225/66/167 224/67/212
f 225/66/167 222/65/210 226/68/213
f 227/70/214 222/65/210 223/71/211
f 222/65/210 227/70/214 226/68/213
f 209/53/196 212/56/201 228/55/215
f 209/53/196 228/55/215 229/51/216
f 230/50/217 209/53/196 229/51/216
f 229/51/216 231/46/218 230/50/217
f 231/46/218 229/51/216 232/52/219
f 207/49/197 230/50/217 231/46/218
f 207/49/197 209/53/196 230/50/217
f 232/52/219 233/81/220 231/46/218
f 234/48/221 207/49/197 231/46/218
f 231/46/218 235/47/222 234/48/221
f 235/47/222 231/46/218 236/80/223
f 236/80/223 231/46/218 233/81/220
f 235/47/222 236/80/223 237/77/224
f 233/81/220 237/77/224 236/80/223
f 238/76/225 235/47/222 237/77/224
f 237/77/224 233/81/220 239/78/226
f 239/78/226 240/74/227 237/77/224
f 238/76/225 237/77/224 240/74/227
f 240/74/227 239/78/226 241/79/228
f 240/74/227 242/75/229 238/76/225
f 243/114/230 244/115/231 246/116/232
f 244/115/231 245/117/233 246/116/232
f 245/117/233 247/118/234 246/116/232
f 247/118/234 248/119/235 246/116/232
f 249/120/236 243/114/230 246/116/232
f 248/119/235 250/121/237 246/116/232
f 250/121/237 251/122/238 246/116/232
f 251/122/238 249/120/236 246/116/232
f 254/123/239 255/85/240 252/124/241
f 255/85/240 254/123/239 256/91/242
f 254/123/239 257/93/243 256/91/242
f 257/93/243 254/123/239 253/125/244
f 258/126/245 252/124/241 255/85/240
f 255/85/240 259/84/246 258/126/245
f 260/82/247 258/126/245 259/84/246
f 261/127/248 257/93/243 253/125/244
f 257/93/243 261/127/248 262/97/249
f 263/92/250 262/97/249 261/127/248
f 263/92/250 261/127/248 264/128/111
f 265/129/251 263/92/250 264/128/111
f 263/92/250 265/129/251 266/90/252
f 260/82/247 266/90/252 265/129/251
f 260/82/247 265/129/251 267/130/253
f 258/126/245 260/82/247 267/130/253
f 270/40/254 269/41/255 268/42/256
f 270/40/254 268/42/256 271/43/257
f 272/44/258 270/40/254 271/43/257
f 270/40/254 272/44/258 273/45/259
f 276/46/260 275/48/261 274/49/262
f 276/46/260 274/49/262 277/50/263
f 278/51/264 276/46/260 277/50/263
f 274/49/262 279/53/265 277/50/263
f 278/51/264 277/50/263 279/53/265
f 279/53/265 274/49/262 280/54/266
f 278/51/264 279/53/265 281/55/267
f 282/57/268 279/53/265 280/54/266
f 279/53/265 283/56/269 281/55/267
f 279/53/265 282/57/268 284/58/270
f 283/56/269 279/53/265 284/58/270
f 284/58/270 285/59/271 283/56/269
f 282/57/268 285/59/271 284/58/270
f 285/59/271 282/57/268 286/61/272
f 283/56/269 285/59/271 287/60/273
f 288/63/274 285/59/271 286/61/272
f 285/59/271 289/62/273 287/60/273
f 289/62/273 285/59/271 290/64/275
f 285/59/271 288/63/274 290/64/275
f 290/64/275 291/72/276 289/62/273
f 288/63/274 291/72/276 290/64/275
f 289/62/273 291/72/276 292/69/277
f 291/72/276 288/63/274 293/73/278
f 292/69/277 291/72/276 294/65/279
f 293/73/278 294/65/279 291/72/276
f 292/69/277 294/65/279 295/67/280
f 294/65/279 296/66/214 295/67/280
f 296/66/214 294/65/279 297/68/281
f 294/65/279 298/70/282 297/68/281
f 299/71/283 298/70/282 294/65/279
f 294/65/279 293/73/278 299/71/283
f 276/46/260 300/52/284 301/81/285
f 276/46/260 278/51/264 300/52/284
f 306/74/253 304/75/286 305/76/287
f 306/74/253 302/78/288 303/79/289
f 302/78/288 306/74/253 307/77/290
f 306/74/253 305/76/287 307/77/290
f 307/77/290 301/81/285 302/78/288
f 301/81/285 307/77/290 308/80/291
f 307/77/290 305/76/287 309/47/292
f 307/77/290 309/47/292 308/80/291
f 301/81/285 308/80/291 276/46/260
f 309/47/292 276/46/260 308/80/291
f 276/46/260 309/47/292 275/48/261
