# Blender 5.1.2
# www.blender.org
mtllib boneclaw aug mag dashtons edition.mtl
o Boneclaw_Rifle.004
v 0.461676 -0.306582 -0.067088
v 0.389716 -0.370073 0.074259
v 0.362235 -0.362764 -0.052953
v 0.477584 -0.315843 0.068785
v 0.425985 -0.291798 -0.198647
v 0.461676 -0.306582 -0.067088
v 0.340555 -0.347164 -0.180538
v 0.362235 -0.362764 -0.052953
v 0.489977 -0.058211 -0.050218
v 0.428180 -0.123452 0.087944
v 0.405168 -0.117283 -0.039166
v 0.501735 -0.066801 0.079649
v 0.452670 -0.043938 -0.174645
v 0.489977 -0.058211 -0.050218
v 0.379414 -0.100727 -0.164811
v 0.405168 -0.117283 -0.039166
v 0.048063 -0.214788 -0.116582
v 0.155934 -0.136459 -0.070803
v 0.077964 -0.235474 0.028983
v 0.168615 -0.146726 0.019471
v 0.077964 -0.235474 0.028983
v 0.168615 -0.146726 0.019471
v 0.183155 -0.149144 0.070281
v 0.094614 -0.236480 0.124689
v 0.094614 -0.236480 0.124689
v 0.187979 -0.149886 0.089007
v 0.127042 -0.231108 0.153466
v 0.183155 -0.149144 0.070281
v 0.154351 -0.134216 -0.085279
v 0.048063 -0.214788 -0.116582
v 0.069760 -0.204416 -0.143422
v 0.155934 -0.136459 -0.070803
v 0.066747 -0.024469 0.034476
v 0.169513 0.051028 0.021436
v 0.188641 0.049927 0.120762
v 0.096498 -0.028364 0.157905
v 0.048684 -0.006084 -0.089906
v 0.150575 0.067665 -0.076530
v 0.066747 -0.024469 0.034476
v 0.169513 0.051028 0.021436
v 0.177562 -0.138986 -0.057092
v 0.169609 -0.193904 -0.137572
v 0.248296 -0.131313 -0.149659
v 0.199672 -0.149288 0.057498
v 0.299794 -0.155310 0.117247
v 0.220172 -0.217465 0.124490
v 0.271955 -0.241910 -0.131991
v 0.228650 -0.288426 -0.194217
v 0.270576 -0.241459 -0.102995
v 0.292782 -0.318310 0.138168
v 0.299605 -0.254986 0.047457
v 0.311574 -0.260372 0.073352
v 0.181585 0.054000 -0.039553
v 0.165947 -0.002317 -0.112857
v 0.253155 0.048668 -0.127168
v 0.203338 0.043863 0.073192
v 0.301976 0.025917 0.125873
v 0.214006 -0.024711 0.136225
v 0.313047 -0.014326 -0.113004
v 0.282257 -0.060533 -0.150439
v 0.310974 -0.014235 -0.089934
v 0.333972 -0.084631 0.117597
v 0.339845 -0.027688 0.059702
v 0.350284 -0.031678 0.079990
v 0.304262 0.043015 -0.149397
v 0.310974 -0.014235 -0.089934
v 0.313047 -0.014326 -0.113004
v 0.357462 0.018225 0.126336
v 0.339845 -0.027688 0.059702
v 0.350284 -0.031678 0.079990
v 0.271955 -0.241910 -0.131991
v 0.263224 -0.176384 -0.196995
v 0.270576 -0.241459 -0.102995
v 0.311574 -0.260372 0.073352
v 0.329637 -0.207331 0.147215
v 0.299605 -0.254986 0.047457
v 0.440508 0.030952 -0.032657
v 0.501735 -0.066801 0.079649
v 0.489977 -0.058211 -0.050218
v 0.451018 0.022744 0.091370
v 0.440508 0.030952 -0.032657
v 0.452670 -0.043938 -0.174645
v 0.404211 0.044555 -0.151222
v 0.489977 -0.058211 -0.050218
v 0.416470 -0.202880 -0.049042
v 0.477584 -0.315843 0.068785
v 0.461676 -0.306582 -0.067088
v 0.430741 -0.211590 0.079122
v 0.416470 -0.202880 -0.049042
v 0.425985 -0.291798 -0.198647
v 0.382123 -0.188934 -0.172862
v 0.461676 -0.306582 -0.067088
v 0.150575 0.067665 -0.076530
v 0.089365 0.149340 0.045739
v 0.169513 0.051028 0.021436
v 0.071297 0.167430 -0.079966
v 0.089365 0.149340 0.045739
v 0.188641 0.049927 0.120762
v 0.169513 0.051028 0.021436
v 0.119590 0.144926 0.170328
v 0.182845 0.118374 -0.109899
v 0.181585 0.054000 -0.039553
v 0.253155 0.048668 -0.127168
v 0.232614 0.095182 0.148047
v 0.301976 0.025917 0.125873
v 0.203338 0.043863 0.073192
v 0.390071 -0.218976 0.139246
v 0.323400 -0.269474 0.210059
v 0.420270 -0.299209 0.178049
v 0.329637 -0.207331 0.147215
v 0.430741 -0.211590 0.079122
v 0.477584 -0.315843 0.068785
v 0.390071 -0.218976 0.139246
v 0.321909 -0.187214 -0.214029
v 0.232170 -0.226962 -0.262778
v 0.263224 -0.176384 -0.196995
v 0.332970 -0.258528 -0.274418
v 0.382123 -0.188934 -0.172862
v 0.321909 -0.187214 -0.214029
v 0.425985 -0.291798 -0.198647
v 0.230556 -0.162491 0.178687
v 0.206215 -0.097554 0.138019
v 0.299794 -0.155310 0.117247
v 0.161071 -0.130112 -0.181449
v 0.155631 -0.073983 -0.124149
v 0.248296 -0.131313 -0.149659
v 0.119720 0.135062 -0.107675
v 0.150575 0.067665 -0.076530
v 0.071297 0.167430 -0.079966
v 0.173719 0.109900 0.172191
v 0.188641 0.049927 0.120762
v 0.119590 0.144926 0.170328
v 0.155934 -0.136459 -0.070803
v 0.061311 -0.062417 0.047755
v 0.168615 -0.146726 0.019471
v 0.050081 -0.050071 -0.067384
v 0.168615 -0.146726 0.019471
v 0.061311 -0.062417 0.047755
v 0.085343 -0.066503 0.115376
v 0.183155 -0.149144 0.070281
v 0.155631 -0.073983 -0.124149
v 0.177562 -0.138986 -0.057092
v 0.248296 -0.131313 -0.149659
v 0.206215 -0.097554 0.138019
v 0.299794 -0.155310 0.117247
v 0.199672 -0.149288 0.057498
v 0.146258 -0.092012 0.162615
v 0.187979 -0.149886 0.089007
v 0.114632 -0.078787 0.155712
v 0.187979 -0.149886 0.089007
v 0.085343 -0.066503 0.115376
v 0.183155 -0.149144 0.070281
v 0.091049 -0.066286 -0.123525
v 0.154351 -0.134216 -0.085279
v 0.063339 -0.054885 -0.110137
v 0.050081 -0.050071 -0.067384
v 0.154351 -0.134216 -0.085279
v 0.155934 -0.136459 -0.070803
v 0.321909 -0.187214 -0.214029
v 0.280648 -0.245099 -0.135632
v 0.271955 -0.241910 -0.131991
v 0.321909 -0.187214 -0.214029
v 0.263224 -0.176384 -0.196995
v 0.270576 -0.241459 -0.102995
v 0.180562 -0.211623 -0.144135
v 0.320886 -0.263850 0.072919
v 0.390071 -0.218976 0.139246
v 0.311574 -0.260372 0.073352
v 0.390071 -0.218976 0.139246
v 0.329637 -0.207331 0.147215
v 0.299605 -0.254986 0.047457
v 0.232180 -0.235675 0.123392
v 0.220172 -0.217465 0.124490
v 0.299794 -0.155310 0.117247
v 0.230556 -0.162491 0.178687
v 0.445447 -0.056838 0.148227
v 0.386846 -0.102902 0.118056
v 0.428180 -0.123452 0.087944
v 0.501735 -0.066801 0.079649
v 0.477584 -0.315843 0.068785
v 0.348250 -0.343433 0.133699
v 0.389716 -0.370073 0.074259
v 0.420270 -0.299209 0.178049
v 0.348250 -0.343433 0.133699
v 0.323400 -0.269474 0.210059
v 0.214006 -0.024711 0.136225
v 0.301976 0.025917 0.125873
v 0.233497 0.029789 0.192376
v 0.233497 0.029789 0.192376
v 0.154870 -0.025055 0.161771
v 0.214006 -0.024711 0.136225
v 0.127136 0.044407 0.216361
v 0.123976 -0.163613 0.202468
v 0.127042 -0.231108 0.153466
v 0.161204 -0.226395 0.145683
v 0.073053 -0.159162 0.184104
v 0.230556 -0.162491 0.178687
v 0.123976 -0.163613 0.202468
v 0.220172 -0.217465 0.124490
v 0.330588 -0.076687 -0.173519
v 0.313047 -0.014326 -0.113004
v 0.282257 -0.060533 -0.150439
v 0.386846 -0.102902 0.118056
v 0.445447 -0.056838 0.148227
v 0.353506 -0.037751 0.165817
v 0.333972 -0.084631 0.117597
v 0.127136 0.044407 0.216361
v 0.096498 -0.028364 0.157905
v 0.154870 -0.025055 0.161771
v 0.031296 0.066958 0.190207
v 0.106721 -0.201007 -0.136696
v 0.154351 -0.134216 -0.085279
v 0.069760 -0.204416 -0.143422
v 0.165062 -0.137553 -0.081588
v 0.169609 -0.193904 -0.137572
v 0.451018 0.022744 0.091370
v 0.445447 -0.056838 0.148227
v 0.501735 -0.066801 0.079649
v 0.413884 0.012458 0.124880
v 0.101582 -0.000224 -0.114416
v 0.150575 0.067665 -0.076530
v 0.048684 -0.006084 -0.089906
v 0.165947 -0.002317 -0.112857
v 0.169171 0.056447 -0.063033
v 0.101582 -0.000224 -0.114416
v 0.233497 0.029789 0.192376
v 0.173719 0.109900 0.172191
v 0.127136 0.044407 0.216361
v 0.232614 0.095182 0.148047
v 0.301976 0.025917 0.125873
v 0.127136 0.044407 0.216361
v 0.119590 0.144926 0.170328
v 0.031296 0.066958 0.190207
v 0.173719 0.109900 0.172191
v 0.390071 -0.218976 0.139246
v 0.323400 -0.269474 0.210059
v 0.420270 -0.299209 0.178049
v 0.230556 -0.162491 0.178687
v 0.146258 -0.092012 0.162615
v 0.123976 -0.163613 0.202468
v 0.206215 -0.097554 0.138019
v 0.169171 0.056447 -0.063033
v 0.119720 0.135062 -0.107675
v 0.150575 0.067665 -0.076530
v 0.413884 0.012458 0.124880
v 0.353506 -0.037751 0.165817
v 0.445447 -0.056838 0.148227
v 0.357462 0.018225 0.126336
v 0.278045 -0.017674 0.133031
v 0.304262 0.043015 -0.149397
v 0.313047 -0.014326 -0.113004
v 0.357011 0.038959 -0.169888
v 0.182845 0.118374 -0.109899
v 0.169171 0.056447 -0.063033
v 0.119720 0.135062 -0.107675
v 0.123976 -0.163613 0.202468
v 0.114632 -0.078787 0.155712
v 0.073053 -0.159162 0.184104
v 0.146258 -0.092012 0.162615
v 0.165062 -0.137553 -0.081588
v 0.091049 -0.066286 -0.123525
v 0.154351 -0.134216 -0.085279
v 0.155631 -0.073983 -0.124149
v 0.091049 -0.066286 -0.123525
v 0.101582 -0.000224 -0.114416
v 0.150575 0.067665 -0.076530
v 0.169171 0.056447 -0.063033
v 0.154870 -0.025055 0.161771
v 0.188641 0.049927 0.120762
v 0.200557 0.041821 0.099639
v 0.165947 -0.002317 -0.112857
v 0.169171 0.056447 -0.063033
v 0.181585 0.054000 -0.039553
v 0.203338 0.043863 0.073192
v 0.214006 -0.024711 0.136225
v 0.200557 0.041821 0.099639
v 0.329637 -0.207331 0.147215
v 0.323400 -0.269474 0.210059
v 0.232180 -0.235675 0.123392
v 0.263224 -0.176384 -0.196995
v 0.232170 -0.226962 -0.262778
v 0.180562 -0.211623 -0.144135
v 0.063339 -0.054885 -0.110137
v 0.011349 -0.130409 -0.135699
v -0.014858 -0.137324 -0.071511
v 0.050081 -0.050071 -0.067384
v 0.197152 -0.152506 0.084731
v 0.206215 -0.097554 0.138019
v 0.199672 -0.149288 0.057498
v 0.304262 0.043015 -0.149397
v 0.226838 0.006187 -0.132369
v 0.310974 -0.014235 -0.089934
v 0.182845 0.118374 -0.109899
v 0.169171 0.056447 -0.063033
v 0.181585 0.054000 -0.039553
v 0.357462 0.018225 0.126336
v 0.339845 -0.027688 0.059702
v 0.278045 -0.017674 0.133031
v 0.114632 -0.078787 0.155712
v 0.073053 -0.159162 0.184104
v 0.023264 -0.155089 0.126074
v 0.085343 -0.066503 0.115376
v 0.232614 0.095182 0.148047
v 0.200557 0.041821 0.099639
v 0.203338 0.043863 0.073192
v 0.165062 -0.137553 -0.081588
v 0.155631 -0.073983 -0.124149
v 0.177562 -0.138986 -0.057092
v 0.071297 0.167430 -0.079966
v -0.020634 0.091157 -0.078939
v 0.089365 0.149340 0.045739
v -0.000677 0.072018 0.056160
v 0.089365 0.149340 0.045739
v -0.000677 0.072018 0.056160
v 0.031296 0.066958 0.190207
v 0.119590 0.144926 0.170328
v 0.061311 -0.062417 0.047755
v -0.001904 -0.150614 0.052022
v 0.023264 -0.155089 0.126074
v 0.085343 -0.066503 0.115376
v 0.050081 -0.050071 -0.067384
v -0.014858 -0.137324 -0.071511
v 0.061311 -0.062417 0.047755
v -0.001904 -0.150614 0.052022
v 0.321909 -0.187214 -0.214029
v 0.280648 -0.245099 -0.135632
v 0.382123 -0.188934 -0.172862
v 0.320886 -0.263850 0.072919
v 0.390071 -0.218976 0.139246
v 0.430741 -0.211590 0.079122
v 0.350284 -0.031678 0.079990
v 0.413884 0.012458 0.124880
v 0.451018 0.022744 0.091370
v 0.316804 -0.014769 -0.122496
v 0.404211 0.044555 -0.151222
v 0.357011 0.038959 -0.169888
v 0.440508 0.030952 -0.032657
v 0.357263 -0.033622 0.087197
v 0.451018 0.022744 0.091370
v 0.344763 -0.025914 -0.019296
v 0.316804 -0.014769 -0.122496
v 0.440508 0.030952 -0.032657
v 0.404211 0.044555 -0.151222
v 0.344763 -0.025914 -0.019296
v 0.416470 -0.202880 -0.049042
v 0.320886 -0.263850 0.072919
v 0.430741 -0.211590 0.079122
v 0.305223 -0.255460 -0.032305
v 0.280648 -0.245099 -0.135632
v 0.416470 -0.202880 -0.049042
v 0.382123 -0.188934 -0.172862
v 0.305223 -0.255460 -0.032305
v 0.477584 -0.315843 0.068785
v 0.348250 -0.343433 0.133699
v 0.420270 -0.299209 0.178049
v 0.348250 -0.343433 0.133699
v 0.323400 -0.269474 0.210059
v 0.292782 -0.318310 0.138168
v 0.323400 -0.269474 0.210059
v 0.232180 -0.235675 0.123392
v 0.425985 -0.291798 -0.198647
v 0.280984 -0.312089 -0.214934
v 0.332970 -0.258528 -0.274418
v 0.232170 -0.226962 -0.262778
v 0.280984 -0.312089 -0.214934
v 0.228650 -0.288426 -0.194217
v 0.180562 -0.211623 -0.144135
v 0.232170 -0.226962 -0.262778
v 0.280984 -0.312089 -0.214934
v 0.271955 -0.241910 -0.131991
v 0.228650 -0.288426 -0.194217
v 0.292782 -0.318310 0.138168
v 0.311574 -0.260372 0.073352
v 0.348250 -0.343433 0.133699
v 0.011349 -0.130409 -0.135699
v 0.048063 -0.214788 -0.116582
v -0.014858 -0.137324 -0.071511
v 0.073053 -0.159162 0.184104
v 0.094614 -0.236480 0.124689
v 0.127042 -0.231108 0.153466
v 0.023264 -0.155089 0.126074
v 0.197152 -0.152506 0.084731
v 0.220172 -0.217465 0.124490
v 0.199672 -0.149288 0.057498
v -0.014858 -0.137324 -0.071511
v 0.077964 -0.235474 0.028983
v -0.001904 -0.150614 0.052022
v 0.048063 -0.214788 -0.116582
v 0.077964 -0.235474 0.028983
v 0.023264 -0.155089 0.126074
v -0.001904 -0.150614 0.052022
v 0.094614 -0.236480 0.124689
v 0.165062 -0.137553 -0.081588
v 0.169609 -0.193904 -0.137572
v 0.177562 -0.138986 -0.057092
v 0.270576 -0.241459 -0.102995
v 0.180562 -0.211623 -0.144135
v 0.228650 -0.288426 -0.194217
v 0.299605 -0.254986 0.047457
v 0.292782 -0.318310 0.138168
v 0.232180 -0.235675 0.123392
v -0.020634 0.091157 -0.078939
v 0.048684 -0.006084 -0.089906
v -0.000677 0.072018 0.056160
v 0.066747 -0.024469 0.034476
v -0.000677 0.072018 0.056160
v 0.066747 -0.024469 0.034476
v 0.096498 -0.028364 0.157905
v 0.031296 0.066958 0.190207
v 0.333972 -0.084631 0.117597
v 0.353506 -0.037751 0.165817
v 0.278045 -0.017674 0.133031
v 0.282257 -0.060533 -0.150439
v 0.226838 0.006187 -0.132369
v 0.284153 -0.005434 -0.193624
v 0.348250 -0.343433 0.133699
v 0.320886 -0.263850 0.072919
v 0.389716 -0.370073 0.074259
v 0.311574 -0.260372 0.073352
v 0.271955 -0.241910 -0.131991
v 0.280984 -0.312089 -0.214934
v 0.280648 -0.245099 -0.135632
v 0.340555 -0.347164 -0.180538
v 0.386846 -0.102902 0.118056
v 0.350284 -0.031678 0.079990
v 0.428180 -0.123452 0.087944
v 0.379414 -0.100727 -0.164811
v 0.316804 -0.014769 -0.122496
v 0.330588 -0.076687 -0.173519
v 0.362235 -0.362764 -0.052953
v 0.320886 -0.263850 0.072919
v 0.305223 -0.255460 -0.032305
v 0.389716 -0.370073 0.074259
v 0.340555 -0.347164 -0.180538
v 0.362235 -0.362764 -0.052953
v 0.280648 -0.245099 -0.135632
v 0.305223 -0.255460 -0.032305
v 0.310974 -0.014235 -0.089934
v 0.226838 0.006187 -0.132369
v 0.282257 -0.060533 -0.150439
v 0.339845 -0.027688 0.059702
v 0.333972 -0.084631 0.117597
v 0.278045 -0.017674 0.133031
v 0.405168 -0.117283 -0.039166
v 0.357263 -0.033622 0.087197
v 0.344763 -0.025914 -0.019296
v 0.428180 -0.123452 0.087944
v 0.379414 -0.100727 -0.164811
v 0.405168 -0.117283 -0.039166
v 0.316804 -0.014769 -0.122496
v 0.344763 -0.025914 -0.019296
v 0.169609 -0.193904 -0.137572
v 0.161071 -0.130112 -0.181449
v 0.248296 -0.131313 -0.149659
v 0.452670 -0.043938 -0.174645
v 0.379414 -0.100727 -0.164811
v 0.375406 -0.024201 -0.214783
v 0.330588 -0.076687 -0.173519
v 0.425985 -0.291798 -0.198647
v 0.280984 -0.312089 -0.214934
v 0.332970 -0.258528 -0.274418
v 0.340555 -0.347164 -0.180538
v 0.232170 -0.226962 -0.262778
v 0.280984 -0.312089 -0.214934
v 0.165947 -0.002317 -0.112857
v 0.165131 0.061647 -0.161960
v 0.253155 0.048668 -0.127168
v 0.053267 -0.130664 -0.164015
v 0.106721 -0.201007 -0.136696
v 0.069760 -0.204416 -0.143422
v 0.011349 -0.130409 -0.135699
v 0.161071 -0.130112 -0.181449
v 0.169609 -0.193904 -0.137572
v 0.053267 -0.130664 -0.164015
v 0.048063 -0.214788 -0.116582
v 0.069760 -0.204416 -0.143422
v 0.057976 0.076634 -0.142085
v 0.165131 0.061647 -0.161960
v 0.101582 -0.000224 -0.114416
v 0.165947 -0.002317 -0.112857
v 0.333972 -0.084631 0.117597
v 0.350284 -0.031678 0.079990
v 0.386846 -0.102902 0.118056
v 0.284153 -0.005434 -0.193624
v 0.375406 -0.024201 -0.214783
v 0.330588 -0.076687 -0.173519
v 0.282257 -0.060533 -0.150439
v 0.197152 -0.152506 0.084731
v 0.161204 -0.226395 0.145683
v 0.187979 -0.149886 0.089007
v 0.127042 -0.231108 0.153466
v 0.220172 -0.217465 0.124490
v 0.048684 -0.006084 -0.089906
v -0.020634 0.091157 -0.078939
v 0.057976 0.076634 -0.142085
v 0.101582 -0.000224 -0.114416
v 0.404211 0.044555 -0.151222
v 0.375406 -0.024201 -0.214783
v 0.357011 0.038959 -0.169888
v 0.452670 -0.043938 -0.174645
v 0.154870 -0.025055 0.161771
v 0.188641 0.049927 0.120762
v 0.096498 -0.028364 0.157905
v 0.214006 -0.024711 0.136225
v 0.200557 0.041821 0.099639
v 0.154870 -0.025055 0.161771
v 0.165131 0.061647 -0.161960
v 0.119720 0.135062 -0.107675
v 0.182845 0.118374 -0.109899
v 0.057976 0.076634 -0.142085
v 0.253155 0.048668 -0.127168
v 0.057976 0.076634 -0.142085
v 0.071297 0.167430 -0.079966
v 0.119720 0.135062 -0.107675
v -0.020634 0.091157 -0.078939
v 0.321909 -0.187214 -0.214029
v 0.232170 -0.226962 -0.262778
v 0.332970 -0.258528 -0.274418
v 0.091049 -0.066286 -0.123525
v 0.161071 -0.130112 -0.181449
v 0.053267 -0.130664 -0.164015
v 0.155631 -0.073983 -0.124149
v 0.173719 0.109900 0.172191
v 0.188641 0.049927 0.120762
v 0.200557 0.041821 0.099639
v 0.357011 0.038959 -0.169888
v 0.284153 -0.005434 -0.193624
v 0.304262 0.043015 -0.149397
v 0.226838 0.006187 -0.132369
v 0.375406 -0.024201 -0.214783
v 0.053267 -0.130664 -0.164015
v 0.063339 -0.054885 -0.110137
v 0.091049 -0.066286 -0.123525
v 0.011349 -0.130409 -0.135699
v 0.146258 -0.092012 0.162615
v 0.187979 -0.149886 0.089007
v 0.197152 -0.152506 0.084731
v 0.206215 -0.097554 0.138019
v 0.146258 -0.092012 0.162615
v 0.357462 0.018225 0.126336
v 0.350284 -0.031678 0.079990
v 0.413884 0.012458 0.124880
v 0.232614 0.095182 0.148047
v 0.200557 0.041821 0.099639
v 0.173719 0.109900 0.172191
v 0.373037 -0.230728 -0.179015
v 0.337413 -0.267757 -0.175471
v 0.362536 -0.018312 -0.157891
v 0.056327 -0.018022 -0.098784
v 0.063793 -0.171680 -0.114040
v 0.373037 -0.230728 -0.179015
v 0.337413 -0.267757 -0.175471
v 0.391886 -0.405142 0.121584
v 0.358955 -0.475764 -0.125788
v 0.391886 -0.405142 -0.125788
v 0.358955 -0.475764 0.121584
v 0.380020 -0.342289 -0.106044
v 0.380020 -0.342289 0.101840
v 0.505013 -0.024103 -0.106044
v 0.505013 -0.024103 0.101840
v 0.546371 0.280780 -0.106044
v 0.546371 0.280780 0.101839
v 0.546371 0.280780 -0.106044
v 0.166855 0.382471 -0.106044
v 0.166855 0.382471 0.101839
v 0.546371 0.280780 0.101839
v -0.031847 -0.207552 -0.125788
v -0.031847 -0.207552 0.121584
v 0.023929 -0.176241 -0.106044
v 0.023929 -0.176241 0.101840
v -0.064778 -0.278174 0.121584
v 0.391886 -0.405142 0.121584
v -0.031847 -0.207552 0.121584
v 0.358955 -0.475764 0.121584
v 0.023929 -0.176241 0.101840
v 0.380020 -0.342289 0.101840
v 0.125498 0.077588 0.101840
v 0.505013 -0.024103 0.101840
v 0.546371 0.280780 0.101839
v 0.166855 0.382471 0.101839
v -0.064778 -0.278174 -0.125788
v -0.064778 -0.278174 0.121584
v -0.031847 -0.207552 -0.125788
v -0.031847 -0.207552 0.121584
v 0.023929 -0.176241 -0.106044
v 0.023929 -0.176241 0.101840
v 0.125498 0.077588 0.101840
v 0.125498 0.077588 -0.106044
v 0.166855 0.382471 0.101839
v 0.166855 0.382471 -0.106044
v -0.064778 -0.278174 -0.125788
v 0.358955 -0.475764 -0.125788
v 0.358955 -0.475764 0.121584
v -0.064778 -0.278174 0.121584
v 0.358955 -0.475764 -0.125788
v -0.064778 -0.278174 -0.125788
v 0.391886 -0.405142 -0.125788
v -0.031847 -0.207552 -0.125788
v 0.023929 -0.176241 -0.106044
v 0.380020 -0.342289 -0.106044
v 0.125498 0.077588 -0.106044
v 0.505013 -0.024103 -0.106044
v 0.546371 0.280780 -0.106044
v 0.166855 0.382471 -0.106044
v 0.465039 0.268974 -0.112706
v 0.465039 0.268974 0.108501
v 0.430403 -0.010821 -0.112706
v 0.430403 -0.010821 0.108502
v 0.319829 -0.292704 -0.112706
v 0.319829 -0.292704 0.108502
v 0.364681 0.295864 -0.112706
v 0.330047 0.016070 0.108502
v 0.330047 0.016069 -0.112706
v 0.364681 0.295864 0.108501
v 0.225666 -0.248795 0.108502
v 0.225666 -0.248795 -0.112706
v 0.264324 0.322755 0.108501
v 0.229689 0.042960 -0.112706
v 0.264324 0.322755 -0.112706
v 0.229689 0.042960 0.108502
v 0.131503 -0.204886 -0.112706
v 0.131503 -0.204886 0.108502
v 0.330249 0.305090 -0.112706
v 0.330249 0.305090 0.108501
v 0.364681 0.295864 -0.112706
v 0.364681 0.295864 0.108501
v 0.229892 0.331981 -0.112706
v 0.229892 0.331981 0.108501
v 0.264324 0.322755 -0.112706
v 0.264324 0.322755 0.108501
v 0.430606 0.278200 -0.112706
v 0.430606 0.278200 0.108501
v 0.465039 0.268974 -0.112706
v 0.465039 0.268974 0.108501
v 0.319829 -0.292704 0.108502
v 0.395972 -0.001595 0.108502
v 0.287521 -0.277639 0.108502
v 0.430403 -0.010821 0.108502
v 0.465039 0.268974 0.108501
v 0.430606 0.278200 0.108501
v 0.225666 -0.248795 0.108502
v 0.295614 0.025296 0.108502
v 0.193358 -0.233730 0.108502
v 0.330047 0.016070 0.108502
v 0.364681 0.295864 0.108501
v 0.330249 0.305090 0.108501
v 0.131503 -0.204886 0.108502
v 0.195257 0.052186 0.108502
v 0.099195 -0.189821 0.108502
v 0.229689 0.042960 0.108502
v 0.264324 0.322755 0.108501
v 0.229892 0.331981 0.108501
v 0.229892 0.331981 -0.112706
v 0.195257 0.052186 -0.112706
v 0.195257 0.052186 0.108502
v 0.229892 0.331981 0.108501
v 0.099195 -0.189821 0.108502
v 0.099195 -0.189821 -0.112706
v 0.330249 0.305090 -0.112706
v 0.295614 0.025296 -0.112706
v 0.295614 0.025296 0.108502
v 0.330249 0.305090 0.108501
v 0.193358 -0.233730 0.108502
v 0.193358 -0.233730 -0.112706
v 0.430606 0.278200 -0.112706
v 0.395972 -0.001595 -0.112706
v 0.395972 -0.001595 0.108502
v 0.430606 0.278200 0.108501
v 0.287521 -0.277639 0.108502
v 0.287521 -0.277639 -0.112706
v 0.225666 -0.248795 -0.112706
v 0.225666 -0.248795 0.108502
v 0.193358 -0.233730 -0.112706
v 0.193358 -0.233730 0.108502
v 0.131503 -0.204886 -0.112706
v 0.131503 -0.204886 0.108502
v 0.099195 -0.189821 -0.112706
v 0.099195 -0.189821 0.108502
v 0.319829 -0.292704 -0.112706
v 0.319829 -0.292704 0.108502
v 0.287521 -0.277639 -0.112706
v 0.287521 -0.277639 0.108502
v 0.193358 -0.233730 -0.112706
v 0.295614 0.025296 -0.112706
v 0.225666 -0.248795 -0.112706
v 0.330047 0.016069 -0.112706
v 0.364681 0.295864 -0.112706
v 0.330249 0.305090 -0.112706
v 0.287521 -0.277639 -0.112706
v 0.395972 -0.001595 -0.112706
v 0.319829 -0.292704 -0.112706
v 0.430403 -0.010821 -0.112706
v 0.465039 0.268974 -0.112706
v 0.430606 0.278200 -0.112706
v 0.099195 -0.189821 -0.112706
v 0.195257 0.052186 -0.112706
v 0.131503 -0.204886 -0.112706
v 0.229689 0.042960 -0.112706
v 0.264324 0.322755 -0.112706
v 0.229892 0.331981 -0.112706
vn 0.4858 -0.8572 -0.1708
vn 0.4606 -0.8697 0.1774
vn 0.4710 -0.8741 0.1185
vn 0.3645 -0.8244 -0.4330
vn 0.3332 -0.8104 -0.4819
vn 0.5654 -0.8046 -0.1814
vn 0.5287 -0.7904 0.3095
vn 0.5543 -0.8119 0.1830
vn 0.4203 -0.7495 -0.5115
vn 0.3506 -0.7074 -0.6138
vn 0.6284 -0.7731 -0.0864
vn 0.6388 -0.7613 -0.1112
vn 0.6612 -0.7271 -0.1849
vn 0.6224 -0.7439 -0.2432
vn 0.6144 -0.7428 -0.2660
vn 0.6143 -0.7428 -0.2663
vn 0.1887 -0.7182 -0.6697
vn 0.3463 -0.7510 -0.5622
vn 0.5950 -0.8024 0.0464
vn 0.6284 -0.7732 -0.0856
vn 0.5949 -0.8024 0.0466
vn 0.6387 -0.7613 -0.1112
vn 0.5794 -0.7942 -0.1832
vn 0.5919 -0.7928 -0.1452
vn 0.5770 -0.7859 -0.2223
vn 0.2987 -0.7566 0.5817
vn 0.1783 -0.7592 0.6260
vn 0.6093 -0.6799 0.4079
vn 0.0378 -0.6349 -0.7717
vn 0.3927 -0.5791 -0.7144
vn -0.0935 -0.6380 -0.7644
vn -0.2616 -0.7697 0.5824
vn -0.1052 -0.8104 0.5763
vn -0.0858 -0.8208 0.5647
vn -0.3373 -0.7023 -0.6269
vn -0.4836 -0.6662 -0.5677
vn -0.3154 -0.7136 -0.6255
vn 0.1834 -0.7485 0.6373
vn 0.0543 -0.7281 0.6833
vn 0.5003 -0.7353 0.4572
vn -0.0898 -0.6212 -0.7785
vn 0.2715 -0.6287 -0.7287
vn -0.2260 -0.5975 -0.7694
vn -0.0015 -0.7197 0.6943
vn 0.1902 -0.7253 0.6616
vn -0.1397 -0.6974 0.7029
vn -0.2816 -0.5894 -0.7572
vn -0.4120 -0.5703 -0.7106
vn -0.0916 -0.5939 -0.7993
vn 0.4020 0.5920 0.6985
vn 0.2762 0.6306 0.7253
vn 0.1583 0.6629 0.7318
vn 0.0096 0.7548 -0.6559
vn 0.1352 0.7165 -0.6844
vn -0.1013 0.7837 -0.6128
vn 0.3569 0.7283 0.5850
vn 0.2292 0.7752 0.5887
vn 0.3434 0.7396 0.5789
vn 0.0214 0.8721 -0.4888
vn 0.1397 0.8294 -0.5409
vn 0.1299 0.8393 -0.5279
vn 0.8565 0.5019 -0.1201
vn 0.8439 0.4826 0.2344
vn 0.8174 0.4687 0.3350
vn 0.8565 0.5019 -0.1202
vn 0.7133 0.5434 -0.4426
vn 0.6511 0.5462 -0.5270
vn 0.8981 0.4183 -0.1357
vn 0.8929 0.4231 0.1538
vn 0.8822 0.4234 0.2060
vn 0.7865 0.4727 -0.3975
vn 0.7574 0.4816 -0.4409
vn 0.6661 0.6228 0.4104
vn 0.7677 0.6343 -0.0911
vn 0.7403 0.6450 0.1895
vn 0.4878 0.7059 -0.5135
vn 0.6392 0.6921 -0.3353
vn 0.2596 0.6314 0.7307
vn 0.3704 0.6264 0.6859
vn 0.6644 0.5468 0.5094
vn -0.0077 0.7560 -0.6546
vn 0.4471 0.6481 -0.6165
vn 0.1115 0.7470 -0.6554
vn 0.0816 0.6615 0.7455
vn 0.5815 0.5205 0.6253
vn 0.0073 0.6768 0.7362
vn 0.8820 0.4235 0.2065
vn 0.6230 0.5066 0.5960
vn 0.8929 0.4231 0.1543
vn 0.5817 0.5204 0.6252
vn 0.3266 0.6392 -0.6962
vn -0.1775 0.7822 -0.5972
vn -0.2424 0.7932 -0.5586
vn 0.7573 0.4816 -0.4411
vn 0.3818 0.6177 -0.6875
vn 0.3267 0.6392 -0.6962
vn 0.7864 0.4727 -0.3977
vn 0.3845 0.5508 0.7408
vn 0.5005 0.5880 0.6354
vn 0.3482 0.5330 0.7711
vn 0.1019 0.6824 -0.7238
vn 0.0568 0.6690 -0.7411
vn 0.2497 0.7048 -0.6640
vn 0.7403 0.6449 0.1897
vn 0.6661 0.6227 0.4105
vn 0.3452 0.5846 0.7342
vn 0.0690 0.7133 -0.6975
vn 0.4877 0.7059 -0.5136
vn 0.6390 0.6922 -0.3356
vn 0.6314 0.7737 0.0520
vn 0.6123 0.7881 -0.0634
vn 0.6107 0.7886 -0.0711
vn 0.6123 0.7881 -0.0635
vn 0.5922 0.7905 -0.1562
vn 0.1035 0.6404 0.7610
vn 0.2862 0.6808 0.6742
vn 0.5506 0.6838 0.4788
vn -0.1635 0.7649 -0.6231
vn 0.3574 0.7739 -0.5229
vn 0.0394 0.7958 -0.6043
vn 0.1398 0.8397 -0.5247
vn 0.4580 0.8228 -0.3365
vn 0.5208 0.8102 -0.2690
vn 0.4581 0.8228 -0.3364
vn 0.5209 0.8102 -0.2688
vn 0.5880 0.7706 0.2457
vn 0.5268 0.7572 0.3861
vn 0.2802 0.6947 0.6625
vn 0.5269 0.7572 0.3860
vn 0.5872 0.7714 0.2451
vn 0.6315 0.7736 0.0519
vn -0.3029 0.8748 0.3780
vn 0.0942 0.8168 0.5692
vn 0.3434 0.7397 0.5787
vn 0.3569 0.7281 0.5852
vn 0.3568 0.7282 0.5852
vn 0.0153 0.8210 0.5707
vn 0.2290 0.7752 0.5887
vn 0.1299 0.8392 -0.5281
vn -0.0956 0.9052 -0.4141
vn -0.3915 0.9164 -0.0829
vn -0.0955 0.9051 -0.4143
vn 0.1298 0.8392 -0.5281
vn 0.1396 0.8294 -0.5409
vn 0.0210 0.8721 -0.4889
vn -0.1692 0.9070 -0.3856
vn 0.3665 -0.6492 0.6665
vn 0.5471 -0.6354 0.5449
vn 0.3831 -0.6492 0.6571
vn 0.2458 -0.6648 0.7054
vn 0.1340 -0.6567 0.7422
vn 0.5287 -0.7903 0.3096
vn 0.5543 -0.8119 0.1834
vn 0.4710 -0.8740 0.1193
vn 0.1230 -0.7991 0.5885
vn 0.4606 -0.8696 0.1779
vn 0.1229 -0.7991 0.5885
vn 0.1824 -0.8083 0.5598
vn -0.3519 -0.6461 0.6773
vn 0.2965 -0.6880 0.6624
vn 0.4709 -0.7083 0.5259
vn 0.3025 -0.6890 0.6586
vn 0.3023 -0.6890 0.6587
vn 0.0171 -0.6250 0.7804
vn 0.2963 -0.6881 0.6624
vn -0.0906 -0.5974 0.7968
vn 0.0212 -0.6171 0.7866
vn -0.3063 -0.6095 0.7312
vn 0.1193 -0.6279 0.7691
vn -0.4085 -0.6132 0.6761
vn 0.3830 -0.6492 0.6572
vn 0.0217 -0.6171 0.7866
vn 0.1194 -0.6280 0.7690
vn 0.3664 -0.6492 0.6665
vn -0.1042 -0.6992 0.7073
vn 0.1335 -0.6566 0.7423
vn 0.2456 -0.6647 0.7056
vn -0.2356 -0.5931 0.7699
vn -0.2357 -0.5931 0.7699
vn -0.0908 -0.5973 0.7968
vn -0.5255 -0.6270 0.5751
vn 0.0169 -0.6250 0.7805
vn -0.6288 -0.6337 0.4506
vn -0.1813 -0.5672 0.8034
vn -0.1864 -0.5156 0.8363
vn -0.1863 -0.5157 0.8363
vn -0.1720 -0.6503 0.7399
vn 0.8173 0.4687 0.3351
vn 0.5111 0.4411 0.7377
vn 0.8439 0.4825 0.2345
vn 0.4228 0.4567 0.7827
vn -0.0173 -0.5661 0.8242
vn 0.0892 -0.5331 0.8413
vn 0.0542 -0.7280 0.6834
vn -0.1660 -0.6005 0.7822
vn -0.0173 -0.5662 0.8241
vn 0.4687 0.4538 0.7579
vn 0.1827 0.4401 0.8792
vn 0.1137 0.4367 0.8924
vn 0.4606 0.4537 0.7629
vn 0.6364 0.4386 0.6346
vn 0.1135 0.4367 0.8924
vn -0.3433 0.6622 0.6661
vn -0.4424 0.7137 0.5431
vn 0.1825 0.4401 0.8792
vn 0.5815 0.5204 0.6253
vn 0.6228 0.5067 0.5961
vn 0.3843 0.5507 0.7410
vn 0.0529 0.4905 0.8698
vn 0.0138 0.4854 0.8742
vn 0.3481 0.5330 0.7712
vn 0.0209 0.6151 0.7881
vn 0.3452 0.5846 0.7343
vn 0.6662 0.6228 0.4103
vn 0.4226 0.4567 0.7828
vn 0.0286 0.5289 0.8482
vn 0.5109 0.4412 0.7378
vn -0.1911 0.5745 0.7959
vn 0.2761 0.6305 0.7254
vn 0.4019 0.5921 0.6985
vn 0.0502 0.7076 0.7049
vn 0.0208 0.6150 0.7882
vn 0.2595 0.6314 0.7307
vn 0.3451 0.5845 0.7343
vn 0.0129 0.4854 0.8742
vn -0.4267 0.5085 0.7479
vn -0.4302 0.5116 0.7438
vn 0.0528 0.4905 0.8698
vn -0.0990 0.5764 0.8112
vn 0.2804 0.6947 0.6624
vn -0.0986 0.5766 0.8110
vn 0.1035 0.6403 0.7611
vn 0.2800 0.6946 0.6627
vn -0.0173 -0.5661 0.8241
vn -0.1661 -0.6007 0.7821
vn -0.3390 -0.4161 -0.8438
vn -0.2454 -0.3771 -0.8931
vn -0.4628 -0.4622 -0.7564
vn 0.0542 -0.7281 0.6833
vn 0.1828 -0.7487 0.6372
vn -0.0899 -0.6212 -0.7785
vn -0.2261 -0.5975 -0.7694
vn -0.4628 -0.4621 -0.7565
vn 0.0815 0.6615 0.7455
vn 0.0071 0.6768 0.7361
vn -0.3559 0.6838 0.6370
vn -0.1776 0.7822 -0.5972
vn -0.5430 0.7710 -0.3327
vn -0.2427 0.7932 -0.5585
vn -0.7986 0.6004 -0.0415
vn -0.5905 0.6130 -0.5249
vn -0.6055 0.6177 -0.5018
vn -0.7972 0.6001 -0.0663
vn -0.3225 0.7342 -0.5974
vn -0.1637 0.7649 -0.6230
vn 0.0394 0.7958 -0.6042
vn 0.2760 0.6305 0.7254
vn -0.1781 0.6989 0.6927
vn 0.1579 0.6628 0.7319
vn 0.0208 0.6151 0.7882
vn 0.3700 0.6265 0.6860
vn 0.0095 0.7547 -0.6560
vn -0.1015 0.7838 -0.6127
vn -0.3977 0.8014 -0.4468
vn -0.4304 0.5117 0.7436
vn -0.4268 0.5085 0.7478
vn -0.7110 0.5512 0.4367
vn -0.7034 0.5485 0.4521
vn -0.2556 0.7380 -0.6245
vn -0.0078 0.7560 -0.6545
vn 0.1112 0.7471 -0.6554
vn 0.1029 0.6403 0.7612
vn -0.0990 0.5766 0.8110
vn 0.2861 0.6808 0.6743
vn -0.5427 0.7551 -0.3678
vn -0.5877 0.7814 -0.2098
vn -0.6258 0.7568 0.1888
vn -0.4425 0.7136 0.5431
vn -0.3432 0.6621 0.6662
vn -0.7847 0.5766 0.2275
vn -0.7863 0.5774 0.2198
vn -0.7111 0.5512 0.4365
vn -0.7035 0.5486 0.4518
vn -0.7972 0.6001 -0.0661
vn -0.7987 0.6004 -0.0413
vn -0.7848 0.5766 0.2274
vn -0.7864 0.5774 0.2198
vn 0.0941 0.8168 0.5692
vn -0.3026 0.8749 0.3780
vn -0.3301 0.8819 0.3366
vn -0.3916 0.9164 -0.0830
vn -0.4016 0.9152 -0.0338
vn 0.1353 0.7164 -0.6845
vn -0.1945 0.8167 -0.5433
vn -0.4817 0.8735 -0.0705
vn -0.3355 0.8041 0.4908
vn -0.3924 0.8319 0.3924
vn 0.0500 0.7076 0.7049
vn -0.4951 0.8516 0.1721
vn -0.4661 0.8650 -0.1859
vn -0.4818 0.8735 -0.0699
vn -0.3356 0.8041 0.4907
vn -0.3925 0.8319 0.3922
vn -0.4171 0.8945 0.1609
vn -0.3916 0.9164 -0.0828
vn -0.4016 0.9152 -0.0337
vn -0.3027 0.8750 0.3778
vn -0.3302 0.8819 0.3364
vn 0.1230 -0.7992 0.5884
vn 0.4709 -0.8741 0.1193
vn 0.1826 -0.8083 0.5597
vn -0.4190 -0.6149 0.6681
vn 0.1228 -0.7991 0.5885
vn -0.4191 -0.6148 0.6681
vn -0.3520 -0.6460 0.6773
vn -0.7018 -0.4117 0.5813
vn 0.3643 -0.8244 -0.4332
vn -0.1295 -0.6815 -0.7203
vn -0.0639 -0.6935 -0.7176
vn -0.5983 -0.5313 -0.5998
vn -0.1297 -0.6815 -0.7203
vn -0.6562 -0.5044 -0.5613
vn -0.6563 -0.5043 -0.5612
vn -0.8801 -0.3287 -0.3426
vn -0.5984 -0.5312 -0.5998
vn -0.3398 -0.7549 0.5610
vn -0.0858 -0.8208 0.5648
vn -0.3154 -0.7138 -0.6254
vn -0.5477 -0.6580 -0.5168
vn -0.3374 -0.7022 -0.6269
vn -0.7823 -0.5538 -0.2852
vn -0.7775 -0.6095 -0.1549
vn -0.6085 -0.4149 -0.6764
vn -0.6545 -0.6419 0.3996
vn -0.3064 -0.6096 0.7311
vn -0.4088 -0.6132 0.6760
vn -0.6817 -0.6610 0.3137
vn 0.0374 -0.6349 -0.7717
vn -0.0936 -0.6379 -0.7644
vn -0.3576 -0.5707 -0.7392
vn -0.7775 -0.6096 -0.1544
vn -0.7312 -0.6753 0.0965
vn -0.7312 -0.6754 0.0964
vn -0.7823 -0.5539 -0.2849
vn -0.6818 -0.6611 0.3133
vn -0.7311 -0.6754 0.0966
vn -0.6546 -0.6419 0.3994
vn 0.1782 -0.7592 0.6260
vn 0.2983 -0.7566 0.5818
vn -0.1719 -0.6505 0.7398
vn -0.2619 -0.7695 0.5825
vn -0.4792 -0.6710 0.5658
vn -0.1053 -0.8104 0.5763
vn -0.4838 -0.6661 -0.5677
vn -0.6762 -0.5792 -0.4553
vn -0.7714 -0.5672 -0.2884
vn -0.7211 -0.5359 -0.4391
vn -0.8029 -0.5873 0.1021
vn -0.8029 -0.5873 0.1022
vn -0.6289 -0.6337 0.4504
vn -0.2360 -0.5930 0.7699
vn -0.4504 -0.5442 0.7078
vn -0.5230 -0.4592 -0.7181
vn -0.7029 -0.4247 -0.5706
vn -0.5479 -0.6580 -0.5166
vn -0.8213 -0.5440 -0.1718
vn -0.8367 -0.5415 -0.0815
vn -0.3153 -0.7137 -0.6255
vn -0.0857 -0.8207 0.5648
vn -0.3400 -0.7548 0.5609
vn -0.7176 -0.5924 0.3663
vn -0.7652 -0.5749 0.2898
vn -0.3812 -0.5702 -0.7277
vn -0.0915 -0.5939 -0.7993
vn -0.7729 -0.6109 -0.1717
vn -0.6747 -0.6566 0.3371
vn -0.5544 -0.6785 0.4819
vn -0.1046 -0.6992 0.7073
vn -0.8512 -0.5113 0.1183
vn -0.8214 -0.5440 -0.1715
vn -0.8368 -0.5415 -0.0809
vn -0.7653 -0.5748 0.2897
vn -0.7175 -0.5924 0.3664
vn -0.1400 -0.6972 0.7031
vn -0.4729 -0.5753 0.6674
vn -0.0016 -0.7197 0.6942
vn -0.4126 -0.5701 -0.7105
vn -0.2816 -0.5893 -0.7573
vn -0.7046 -0.4673 -0.5340
vn -0.7991 -0.5927 0.1009
vn -0.7154 -0.6035 -0.3521
vn -0.7729 -0.6109 -0.1715
vn -0.6748 -0.6566 0.3369
vn -0.5545 -0.6785 0.4818
vn 0.0728 -0.5124 -0.8557
vn 0.0917 -0.5134 -0.8532
vn 0.2859 -0.5137 -0.8089
vn 0.4202 -0.7494 -0.5117
vn 0.3505 -0.7073 -0.6139
vn -0.0542 -0.5250 -0.8494
vn -0.1714 -0.5144 -0.8403
vn 0.3644 -0.8244 -0.4331
vn 0.3331 -0.8103 -0.4821
vn -0.5983 -0.5312 -0.5999
vn -0.0640 -0.6934 -0.7177
vn -0.1297 -0.6814 -0.7203
vn 0.0086 -0.5536 -0.8327
vn 0.0149 -0.5550 -0.8317
vn 0.2171 -0.5874 -0.7796
vn -0.1801 -0.3811 -0.9068
vn -0.1307 -0.4377 -0.8896
vn -0.4709 -0.3808 -0.7958
vn -0.6084 -0.4149 -0.6766
vn -0.1309 -0.4378 -0.8895
vn 0.0916 -0.5134 -0.8533
vn 0.0727 -0.5124 -0.8557
vn -0.1800 -0.3812 -0.9068
vn -0.6084 -0.4149 -0.6765
vn -0.4710 -0.3808 -0.7957
vn -0.7822 -0.5539 -0.2852
vn -0.3982 -0.4541 -0.7970
vn 0.0147 -0.5550 -0.8317
vn -0.2930 -0.4805 -0.8266
vn 0.0078 -0.5536 -0.8327
vn -0.0917 -0.5939 -0.7993
vn -0.3811 -0.5701 -0.7278
vn -0.2816 -0.5892 -0.7573
vn -0.5227 -0.4592 -0.7183
vn -0.0544 -0.5249 -0.8494
vn -0.1718 -0.5144 -0.8402
vn -0.5228 -0.4593 -0.7182
vn -0.3577 -0.5706 -0.7392
vn -0.2715 -0.5511 -0.7890
vn 0.1890 -0.7182 -0.6697
vn 0.3462 -0.7510 -0.5623
vn -0.0935 -0.6379 -0.7644
vn -0.7713 -0.5673 -0.2885
vn -0.3983 -0.4540 -0.7970
vn -0.2931 -0.4805 -0.8266
vn 0.6510 0.5462 -0.5272
vn 0.2176 0.5782 -0.7864
vn 0.1189 0.5983 -0.7924
vn 0.7132 0.5434 -0.4428
vn -0.2454 -0.3773 -0.8930
vn -0.3391 -0.4162 -0.8437
vn -0.2261 -0.5974 -0.7694
vn 0.1706 0.5927 -0.7872
vn -0.1404 0.5906 -0.7946
vn 0.1612 0.5932 -0.7888
vn -0.2094 0.5872 -0.7819
vn 0.3714 0.5621 -0.7390
vn -0.2096 0.5872 -0.7818
vn -0.5427 0.7551 -0.3677
vn -0.1405 0.5906 -0.7946
vn -0.5877 0.7814 -0.2099
vn 0.3265 0.6392 -0.6963
vn 0.3815 0.6177 -0.6877
vn -0.1930 0.6171 -0.7628
vn 0.1017 0.6824 -0.7239
vn -0.2315 0.6063 -0.7608
vn 0.0563 0.6690 -0.7411
vn 0.4879 0.7058 -0.5136
vn 0.0689 0.7133 -0.6975
vn 0.1181 0.5983 -0.7925
vn -0.2690 0.6676 -0.6942
vn -0.4522 0.6962 -0.5575
vn 0.2168 0.5782 -0.7866
vn -0.2316 0.6063 -0.7608
vn -0.5905 0.6130 -0.5250
vn -0.1931 0.6171 -0.7628
vn -0.6054 0.6177 -0.5020
vn 0.4582 0.8227 -0.3365
vn 0.1389 0.8397 -0.5250
vn -0.3223 0.7344 -0.5973
vn -0.1636 0.7648 -0.6231
vn 0.1390 0.8398 -0.5248
vn 0.1351 0.7164 -0.6845
vn 0.0096 0.7547 -0.6560
vn -0.1943 0.8166 -0.5435
vn -0.0078 0.7559 -0.6546
vn -0.2556 0.7379 -0.6246
vn 0.0688 0.7133 -0.6975
vn -0.1887 0.0879 -0.9781
vn 0.9920 -0.1260 -0.0000
vn 0.9052 -0.4250 -0.0000
vn 0.9985 -0.0550 -0.0000
vn 0.9697 -0.2444 -0.0000
vn 0.9909 -0.1344 -0.0000
vn 0.2588 0.9659 -0.0000
vn -0.7816 0.6238 -0.0000
vn -0.7846 0.6200 -0.0000
vn -0.0000 -0.0000 1.0000
vn 0.0709 0.1576 0.9850
vn 0.0314 0.0707 0.9970
vn 0.1023 0.2283 0.9682
vn 0.0785 0.1728 0.9818
vn -0.9052 0.4250 -0.0000
vn -0.7817 0.6236 -0.0000
vn -0.7848 0.6197 -0.0000
vn -0.9697 0.2444 -0.0000
vn -0.9909 0.1344 -0.0000
vn -0.4250 -0.9052 -0.0000
vn -0.0000 -0.0000 -1.0000
vn 0.0709 0.1576 -0.9850
vn 0.0314 0.0707 -0.9970
vn 0.1023 0.2283 -0.9682
vn 0.0785 0.1728 -0.9818
vn 0.9821 -0.1886 -0.0000
vn 0.9317 -0.3633 -0.0000
vn 0.9806 -0.1961 -0.0000
vn 0.9290 -0.3700 -0.0000
vn 0.9920 -0.1259 -0.0000
vn 0.9806 -0.1962 -0.0000
vn 0.2593 0.9658 -0.0000
vn -0.9920 0.1259 -0.0000
vn -0.9806 0.1961 -0.0000
vn -0.9290 0.3700 -0.0000
vn -0.9291 0.3699 -0.0000
vn -0.9821 0.1886 -0.0000
vn -0.9920 0.1260 -0.0000
vn -0.9820 0.1886 -0.0000
vn -0.9317 0.3633 -0.0000
vt 48.000000 -25.415701
vt 47.881100 -25.495001
vt 48.000000 -25.499599
vt 47.875198 -25.417000
vt 48.124802 -25.417000
vt 48.118900 -25.495001
vt 48.000000 -25.198299
vt 47.882099 -25.275299
vt 48.000000 -25.279100
vt 47.881401 -25.200701
vt 48.118599 -25.200701
vt 48.117901 -25.275299
vt 48.122799 -25.493999
vt 48.069599 -25.388300
vt 47.986000 -25.499701
vt 47.986000 -25.391899
vt 47.938000 -25.388300
vt 47.897701 -25.493999
vt 47.920399 -25.387100
vt 47.866798 -25.477301
vt 48.083000 -25.387100
vt 48.143799 -25.477301
vt 48.000000 -25.328199
vt 48.000000 -25.226900
vt 47.908001 -25.220400
vt 47.884399 -25.320000
vt 48.115601 -25.320000
vt 48.091999 -25.220400
vt 48.053501 -25.382299
vt 48.122299 -25.431200
vt 48.124500 -25.349701
vt 47.946499 -25.382299
vt 47.875500 -25.349701
vt 47.877701 -25.431200
vt 48.070202 -25.433001
vt 48.155102 -25.488001
vt 48.095798 -25.432899
vt 47.844898 -25.488001
vt 47.929798 -25.433001
vt 47.904202 -25.432899
vt 48.052601 -25.220100
vt 48.116199 -25.273001
vt 48.118000 -25.198000
vt 47.947399 -25.220100
vt 47.882000 -25.198000
vt 47.883801 -25.273001
vt 48.125000 -25.278099
vt 48.090000 -25.228001
vt 48.069801 -25.228701
vt 47.875000 -25.278099
vt 47.930199 -25.228701
vt 47.910000 -25.228001
vt 48.128601 -25.183701
vt 47.871399 -25.183701
vt 48.160599 -25.381800
vt 47.839401 -25.381800
vt 47.152100 -25.000000
vt 47.087799 -24.881399
vt 47.075901 -25.000000
vt 47.164101 -24.886801
vt 47.087799 -25.118601
vt 47.164101 -25.113199
vt 47.083099 -25.000000
vt 47.014500 -24.875200
vt 47.005001 -25.000000
vt 47.092701 -24.882401
vt 47.014500 -25.124800
vt 47.092701 -25.117599
vt 47.393299 -25.091999
vt 47.496201 -25.000000
vt 47.390400 -25.000000
vt 47.493599 -25.116800
vt 47.393299 -24.908001
vt 47.493599 -24.883200
vt 47.379200 -25.120300
vt 47.370098 -25.052601
vt 47.293201 -25.118099
vt 47.379200 -24.879700
vt 47.293201 -24.881901
vt 47.370098 -24.947399
vt 47.183899 -24.779400
vt 47.134499 -24.835199
vt 47.189499 -24.839399
vt 47.088001 -24.788900
vt 47.134499 -25.164801
vt 47.183899 -25.220600
vt 47.189499 -25.160601
vt 47.088001 -25.211100
vt 47.292599 -24.832001
vt 47.227100 -24.875500
vt 47.328400 -24.877701
vt 47.292599 -25.167999
vt 47.328400 -25.122299
vt 47.227100 -25.124500
vt 47.437099 -25.130600
vt 47.437099 -24.869400
vt 47.315498 -25.069599
vt 47.442101 -24.986000
vt 47.318501 -24.986000
vt 47.433899 -25.091700
vt 47.433899 -24.921200
vt 47.315498 -24.938000
vt 47.299500 -25.053499
vt 47.299500 -24.946501
vt 47.383900 -24.866501
vt 47.314800 -24.920401
vt 47.413200 -24.879200
vt 47.413200 -25.127199
vt 47.314800 -25.083000
vt 47.383900 -25.133499
vt 47.161900 -25.097300
vt 47.170799 -25.095800
vt 47.254002 -25.124800
vt 47.177601 -25.070200
vt 47.170799 -24.904200
vt 47.161900 -24.902700
vt 47.177601 -24.929800
vt 47.254002 -24.875200
vt 48.729301 -25.431200
vt 48.772900 -25.349701
vt 48.707401 -25.381399
vt 48.849602 -25.213200
vt 48.824501 -25.273600
vt 48.871399 -25.275299
vt 48.912201 -25.200701
vt 48.985500 -25.417000
vt 48.877899 -25.488199
vt 48.932701 -25.495001
vt 48.911999 -25.424299
vt 48.816101 -25.435699
vt 48.651699 -25.273001
vt 48.706799 -25.198000
vt 48.637001 -25.220200
vt 48.598801 -25.295401
vt 48.540501 -25.247801
vt 48.616501 -25.422199
vt 48.652901 -25.477301
vt 48.680500 -25.460699
vt 48.576900 -25.437500
vt 48.775902 -25.228001
vt 48.774799 -25.278099
vt 48.764500 -25.231701
vt 48.553200 -25.320000
vt 48.459099 -25.264900
vt 48.685200 -25.387100
vt 48.694401 -25.385900
vt 48.835899 -25.145000
vt 48.803101 -25.167400
vt 48.606701 -25.220400
vt 48.623402 -25.222799
vt 48.562901 -25.175900
vt 48.620800 -25.166201
vt 48.506401 -25.167000
vt 48.865501 -25.368900
vt 48.616100 -25.354300
vt 48.671600 -25.336599
vt 48.754700 -25.183701
vt 48.701900 -25.243200
vt 48.586800 -25.355200
vt 47.871201 -25.295401
vt 47.924099 -25.222799
vt 48.128799 -25.295401
vt 48.075901 -25.222799
vt 48.220600 -25.435699
vt 48.124802 -25.441900
vt 47.779400 -25.435699
vt 47.875198 -25.441900
vt 47.900398 -25.452900
vt 47.872799 -25.355200
vt 47.847099 -25.437500
vt 47.908298 -25.356001
vt 48.077599 -25.385900
vt 48.122299 -25.336599
vt 47.876202 -25.243200
vt 47.879700 -25.166201
vt 48.123798 -25.243200
vt 48.145500 -25.437500
vt 48.120800 -25.355200
vt 48.084801 -25.452900
vt 48.078800 -25.356001
vt 48.120300 -25.166201
vt 47.877701 -25.336599
vt 47.922401 -25.385900
vt 47.883202 -25.167000
vt 47.874401 -25.264900
vt 48.000000 -25.174999
vt 48.000000 -25.273001
vt 48.125599 -25.264900
vt 48.116798 -25.167000
vt 48.014000 -25.361799
vt 48.014000 -25.458799
vt 47.835201 -25.368900
vt 47.902699 -25.432301
vt 47.882401 -25.347700
vt 48.097301 -25.432301
vt 48.164799 -25.368900
vt 48.117599 -25.347700
vt 48.137501 -25.167400
vt 48.113201 -25.145000
vt 47.902199 -25.226999
vt 47.886799 -25.145000
vt 47.862499 -25.167400
vt 48.000000 -25.142500
vt 48.097801 -25.226999
vt 48.000000 -25.225599
vt 48.000000 -25.346201
vt 48.000000 -25.431499
vt 48.877899 -24.837400
vt 48.985500 -24.875200
vt 48.911999 -24.788900
vt 48.822701 -24.844900
vt 48.816101 -24.779400
vt 48.745998 -24.875200
vt 48.985500 -25.124800
vt 48.877899 -25.162600
vt 48.911999 -25.211100
vt 48.816101 -25.220600
vt 48.822701 -25.155100
vt 48.745998 -25.124800
vt 48.829201 -25.095800
vt 48.829201 -24.904200
vt 48.633999 -25.122801
vt 48.545898 -25.099600
vt 48.576900 -25.152901
vt 48.633999 -24.897699
vt 48.652901 -24.866800
vt 48.576900 -24.854500
vt 48.545898 -24.915199
vt 48.700500 -24.946501
vt 48.729301 -24.877701
vt 48.694401 -24.922400
vt 48.638199 -24.986000
vt 48.537800 -24.986000
vt 48.729301 -25.122299
vt 48.700500 -25.053499
vt 48.694401 -25.077600
vt 48.822399 -25.070200
vt 48.822399 -24.929800
vt 48.459099 -25.125601
vt 48.553200 -25.115601
vt 48.456699 -25.000000
vt 48.550999 -25.000000
vt 48.553200 -24.884399
vt 48.459099 -24.874399
vt 48.774799 -24.875000
vt 48.764500 -24.832300
vt 48.701900 -24.876200
vt 48.774799 -25.125000
vt 48.701900 -25.123800
vt 48.764500 -25.167700
vt 48.838100 -24.902700
vt 48.932701 -24.881100
vt 48.838100 -25.097300
vt 48.932701 -25.118900
vt 48.824501 -24.864000
vt 48.775902 -24.910000
vt 48.871399 -24.882099
vt 48.871399 -25.117901
vt 48.780899 -25.097799
vt 48.824501 -25.136000
vt 48.931801 -25.000000
vt 48.842300 -25.000000
vt 48.769798 -25.069799
vt 48.769798 -24.930201
vt 48.874500 -25.000000
vt 48.780899 -24.902201
vt 48.788200 -25.000000
vt 47.270699 -25.431200
vt 47.292599 -25.381399
vt 47.227100 -25.349701
vt 47.087799 -25.200701
vt 47.128601 -25.275299
vt 47.150398 -25.213200
vt 47.175499 -25.273600
vt 47.122101 -25.488199
vt 47.014500 -25.417000
vt 47.067299 -25.495001
vt 47.183899 -25.435699
vt 47.088001 -25.424299
vt 47.348301 -25.273001
vt 47.362999 -25.220200
vt 47.293201 -25.198000
vt 47.383499 -25.422199
vt 47.319500 -25.460699
vt 47.347099 -25.477301
vt 47.423100 -25.437500
vt 47.366001 -25.493999
vt 47.459499 -25.247801
vt 47.401199 -25.295401
vt 47.224098 -25.228001
vt 47.225201 -25.278099
vt 47.235500 -25.231701
vt 47.305599 -25.385900
vt 47.314800 -25.387100
vt 47.446800 -25.320000
vt 47.540901 -25.264900
vt 47.164101 -25.145000
vt 47.196899 -25.167400
vt 47.393299 -25.220400
vt 47.376598 -25.222799
vt 47.437099 -25.175900
vt 47.379200 -25.166201
vt 47.493599 -25.167000
vt 47.134499 -25.368900
vt 47.383900 -25.354300
vt 47.328400 -25.336599
vt 47.245300 -25.183701
vt 47.298100 -25.243200
vt 47.413200 -25.355200
vt 5.751890 -33.304001
vt 5.466110 -33.237801
vt 5.482270 -33.281898
vt 61.876301 -27.358500
vt 62.123699 -27.429100
vt 62.123699 -27.358500
vt 61.876301 -27.429100
vt 62.103901 -27.295601
vt 61.896099 -27.295601
vt 62.103901 -26.977501
vt 61.896099 -26.977501
vt 62.103901 -26.672600
vt 61.896099 -26.672600
vt 61.694401 -27.103901
vt 62.073898 -27.103901
vt 62.073898 -26.896099
vt 61.694401 -26.896099
vt 62.272598 -26.876301
vt 62.216900 -27.103901
vt 62.272598 -27.123699
vt 62.216900 -26.896099
vt 61.694401 -27.231501
vt 62.151100 -27.358500
vt 61.727402 -27.160900
vt 62.118198 -27.429100
vt 61.783100 -27.129601
vt 62.139198 -27.295601
vt 61.884701 -26.875799
vt 62.264198 -26.977501
vt 62.305599 -26.672600
vt 61.926102 -26.570900
vt 61.876301 -27.231501
vt 62.123699 -27.231501
vt 61.876301 -27.160900
vt 62.123699 -27.160900
vt 61.896099 -27.129601
vt 62.103901 -27.129601
vt 62.103901 -26.875799
vt 61.896099 -26.875799
vt 62.103901 -26.570900
vt 61.896099 -26.570900
vt 61.694401 -27.123699
vt 62.118198 -27.123699
vt 62.118198 -26.876301
vt 61.694401 -26.876301
vt 61.881802 -27.429100
vt 62.305599 -27.231501
vt 61.848900 -27.358500
vt 62.272598 -27.160900
vt 62.216900 -27.129601
vt 61.860802 -27.295601
vt 62.115299 -26.875799
vt 61.735802 -26.977501
vt 61.694401 -26.672600
vt 62.073898 -26.570900
vt 42.110600 -28.750700
vt 41.889400 -28.750700
vt 42.110600 -29.030500
vt 41.889400 -29.030500
vt 42.110600 -29.312300
vt 41.889400 -29.312300
vt 42.110600 -28.723801
vt 41.889400 -29.003599
vt 42.110600 -29.003599
vt 41.889400 -28.723801
vt 41.889400 -29.268400
vt 42.110600 -29.268400
vt 41.889400 -28.696899
vt 42.110600 -28.976700
vt 42.110600 -28.696899
vt 41.889400 -28.976700
vt 42.110600 -29.224501
vt 41.889400 -29.224501
vt 41.951900 -29.110600
vt 41.951900 -28.889400
vt 41.917400 -29.110600
vt 41.917400 -28.889400
vt 42.052200 -29.110600
vt 42.052200 -28.889400
vt 42.017799 -29.110600
vt 42.017799 -28.889400
vt 41.851501 -29.110600
vt 41.851501 -28.889400
vt 41.817101 -29.110600
vt 41.817101 -28.889400
vt 42.037701 -29.312300
vt 42.113899 -29.021200
vt 42.005402 -29.297300
vt 42.148300 -29.030500
vt 42.182899 -28.750700
vt 42.148499 -28.741400
vt 41.943600 -29.268400
vt 42.013500 -28.994301
vt 41.911201 -29.253401
vt 42.047901 -29.003599
vt 42.082600 -28.723801
vt 42.048100 -28.714500
vt 41.849400 -29.224501
vt 41.913101 -28.967501
vt 41.817101 -29.209499
vt 41.947601 -28.976700
vt 41.982201 -28.696899
vt 41.947800 -28.687700
vt 41.889400 -28.687700
vt 41.889400 -28.967501
vt 42.110600 -28.967501
vt 42.110600 -28.687700
vt 42.110600 -29.209499
vt 41.889400 -29.209499
vt 41.889400 -28.714500
vt 41.889400 -28.994301
vt 42.110600 -28.994301
vt 42.110600 -28.714500
vt 42.110600 -29.253401
vt 41.889400 -29.253401
vt 41.889400 -28.741400
vt 41.889400 -29.021200
vt 42.110600 -29.021200
vt 42.110600 -28.741400
vt 42.110600 -29.297300
vt 41.889400 -29.297300
vt 41.943600 -29.110600
vt 41.943600 -28.889400
vt 41.911201 -29.110600
vt 41.911201 -28.889400
vt 41.849400 -29.110600
vt 41.849400 -28.889400
vt 42.037701 -29.110600
vt 42.037701 -28.889400
vt 42.005402 -29.110600
vt 42.005402 -28.889400
vt 42.088799 -29.253401
vt 41.986500 -28.994301
vt 42.056400 -29.268400
vt 41.952099 -29.003599
vt 41.917400 -28.723801
vt 41.951900 -28.714500
vt 41.994598 -29.297300
vt 41.886101 -29.021200
vt 41.962299 -29.312300
vt 41.851700 -29.030500
vt 41.817101 -28.750700
vt 41.851501 -28.741400
vt 42.182899 -29.209499
vt 42.086899 -28.967501
vt 42.150600 -29.224501
vt 42.052399 -28.976700
vt 42.017799 -28.696899
vt 42.052200 -28.687700
s 1
usemtl Meshpart1Mtl.025
f 1/1/1 2/2/2 3/3/1
f 2/2/2 1/1/1 4/4/3
f 5/5/4 6/1/1 7/6/5
f 7/6/5 6/1/1 8/3/1
f 9/7/6 10/8/7 11/9/6
f 10/8/7 9/7/6 12/10/8
f 13/11/9 14/7/6 15/12/10
f 15/12/10 14/7/6 16/9/6
f 17/13/11 18/14/12 19/15/13
f 18/14/12 20/16/13 19/15/13
f 21/15/13 22/16/13 23/17/14
f 21/15/13 23/17/14 24/18/15
f 25/18/16 26/19/17 27/20/18
f 26/19/17 25/18/16 28/17/14
f 29/21/19 30/13/20 31/22/21
f 30/13/20 29/21/19 32/14/22
f 33/23/23 34/24/23 35/25/24
f 33/23/23 35/25/24 36/26/24
f 37/27/25 38/28/25 39/23/23
f 38/28/25 40/24/23 39/23/23
f 41/29/26 42/30/27 43/31/28
f 44/32/29 45/33/30 46/34/31
f 49/35/32 48/36/33 47/37/34
f 50/38/35 51/39/36 52/40/37
f 53/41/38 54/42/39 55/43/40
f 56/44/41 57/45/42 58/46/43
f 60/47/44 59/48/45 61/49/46
f 62/50/47 63/51/48 64/52/49
f 67/48/50 65/53/51 66/49/52
f 68/54/53 70/52/54 69/51/55
f 72/55/56 73/35/57 71/37/58
f 76/39/59 75/56/60 74/40/61
f 77/57/62 78/58/63 79/59/62
f 78/58/63 77/57/62 80/60/64
f 81/57/65 82/61/66 83/62/67
f 82/61/66 81/57/65 84/59/62
f 85/63/68 86/64/69 87/65/68
f 86/64/69 85/63/68 88/66/70
f 89/63/68 90/67/71 91/68/72
f 90/67/71 89/63/68 92/65/68
f 93/69/73 94/70/74 95/71/74
f 94/70/74 93/69/73 96/72/75
f 97/70/74 98/73/76 99/71/74
f 98/73/76 97/70/74 100/74/77
f 101/75/78 102/76/79 103/77/80
f 104/78/81 105/79/82 106/80/83
f 108/81/84 107/82/85 110/83/86
f 111/66/87 109/84/88 112/64/89
f 109/84/88 111/66/87 113/82/90
f 114/85/91 115/86/92 116/87/93
f 118/68/94 117/88/95 119/85/96
f 117/88/95 118/68/94 120/67/97
f 121/89/98 123/90/99 122/91/100
f 124/92/101 125/93/102 126/94/103
f 129/72/104 128/69/105 127/95/106
f 130/96/107 131/73/108 132/74/109
f 133/97/110 134/98/111 135/99/112
f 134/98/111 133/97/110 136/100/110
f 137/99/112 138/98/113 139/101/114
f 137/99/112 139/101/114 140/102/114
f 141/93/115 142/103/116 143/94/117
f 144/91/118 145/90/119 146/104/120
f 147/105/121 148/106/122 149/107/123
f 150/106/124 151/101/114 149/107/125
f 152/102/114 151/101/114 150/106/124
f 155/108/126 154/109/127 153/110/128
f 156/100/110 157/109/129 155/108/130
f 157/109/129 156/100/110 158/97/131
f 160/111/132 159/85/133 161/112/134
f 162/85/133 163/87/135 161/112/134
f 163/87/136 165/113/137 164/114/138
f 168/115/139 167/82/140 166/116/141
f 169/82/142 168/115/143 170/83/144
f 170/83/144 171/117/145 172/118/146
f 173/119/147 174/120/148 175/121/149
f 176/122/150 177/123/151 178/124/152
f 178/124/152 179/125/153 176/122/150
f 180/126/154 181/127/155 182/128/156
f 184/127/157 183/129/158 185/130/159
f 186/131/160 187/132/161 188/133/162
f 189/133/163 190/134/164 191/131/165
f 190/134/164 189/133/163 192/135/166
f 193/136/167 194/137/168 195/138/169
f 196/139/170 194/137/168 193/136/167
f 197/121/171 198/136/172 195/138/173
f 197/121/171 195/138/173 199/119/174
f 200/123/175 201/140/45 202/141/44
f 203/123/176 204/122/177 205/142/178
f 203/123/176 205/142/178 206/141/179
f 207/135/180 208/143/181 209/134/182
f 207/135/180 210/144/183 208/143/181
f 211/138/184 212/145/185 213/137/186
f 212/145/185 211/138/184 214/146/187
f 215/119/27 214/146/187 211/138/184
f 216/147/188 217/122/189 218/125/190
f 217/122/189 216/147/188 219/148/191
f 220/134/192 221/149/193 222/143/193
f 223/131/194 224/150/195 225/134/196
f 226/133/197 227/151/198 228/135/199
f 227/151/198 226/133/197 229/152/200
f 226/133/197 230/132/201 229/152/200
f 231/135/202 232/153/203 233/144/204
f 232/153/203 231/135/202 234/151/205
f 235/154/206 236/130/84 237/129/207
f 238/121/208 239/155/209 240/136/210
f 239/155/209 238/121/208 241/156/211
f 242/150/212 243/151/213 244/149/214
f 245/148/215 246/142/216 247/122/217
f 246/142/216 245/148/215 248/157/216
f 246/142/216 248/157/216 249/158/218
f 250/157/219 251/140/220 252/148/221
f 254/150/222 253/152/223 255/151/224
f 256/136/225 257/159/226 258/139/227
f 257/159/226 256/136/225 259/155/228
f 260/146/229 261/155/230 262/145/127
f 260/146/231 263/156/232 264/155/233
f 266/25/193 265/160/234 267/161/235
f 268/162/236 269/28/237 270/163/238
f 271/46/239 273/44/240 272/161/195
f 274/41/241 275/42/242 276/163/243
f 278/164/244 277/55/245 279/165/246
f 281/166/247 282/167/248 280/56/249
f 285/168/250 283/169/251 284/170/252
f 283/169/251 285/168/250 286/171/253
f 287/172/254 288/173/255 289/29/256
f 290/54/257 291/174/258 292/51/259
f 293/175/223 294/161/260 295/44/261
f 296/53/262 297/49/263 298/176/264
f 300/177/265 299/178/266 301/179/267
f 302/180/268 301/179/267 299/178/266
f 304/163/269 303/181/270 305/41/271
f 307/182/272 306/183/273 308/32/274
f 309/184/275 310/185/276 311/186/277
f 310/185/276 312/187/277 311/186/277
f 313/186/277 314/187/277 315/188/278
f 313/186/277 315/188/278 316/189/279
f 317/190/280 318/191/281 319/179/282
f 317/190/280 319/179/282 320/180/283
f 321/171/284 322/168/285 323/190/286
f 322/168/285 324/191/287 323/190/286
f 325/192/288 326/193/289 327/194/290
f 328/195/291 329/196/140 330/197/292
f 331/48/293 332/198/294 333/199/295
f 334/200/296 335/201/297 336/202/298
f 337/203/299 338/204/300 339/199/301
f 338/204/300 337/203/299 340/205/299
f 341/200/302 342/203/299 343/201/303
f 342/203/299 341/200/302 344/205/299
f 345/206/304 346/195/305 347/197/306
f 346/195/305 345/206/304 348/207/304
f 349/193/307 350/206/304 351/194/308
f 350/206/304 349/193/307 352/207/304
f 354/208/309 353/209/310 355/210/311
f 358/211/312 356/208/313 357/212/159
f 358/211/314 359/212/315 360/213/316
f 361/214/317 362/215/318 363/216/319
f 364/217/320 365/215/321 366/218/322
f 366/218/323 367/219/324 368/217/325
f 369/215/326 370/220/327 371/218/33
f 373/221/328 374/208/329 372/211/330
f 376/222/331 377/223/332 375/224/333
f 379/225/334 380/226/335 378/227/336
f 381/228/337 379/225/334 378/227/336
f 384/229/338 383/230/339 382/231/340
f 385/223/341 386/232/342 387/233/343
f 386/232/342 385/223/341 388/222/344
f 389/232/342 390/228/345 391/233/346
f 390/228/345 389/232/342 392/225/347
f 394/234/348 395/235/349 393/236/350
f 396/237/351 397/219/352 398/218/353
f 399/238/354 400/211/330 401/213/355
f 402/239/356 403/240/357 404/241/358
f 403/240/357 405/242/358 404/241/358
f 406/241/358 407/242/359 408/243/181
f 406/241/358 408/243/181 409/244/360
f 410/245/361 411/246/361 412/247/362
f 413/248/363 414/249/364 415/250/363
f 416/208/365 417/251/366 418/252/367
f 416/208/365 419/221/368 417/251/366
f 420/220/369 421/215/370 422/253/371
f 422/253/371 421/215/370 423/254/372
f 424/255/373 425/256/374 426/257/375
f 427/258/376 428/259/377 429/260/378
f 430/261/379 431/251/380 432/262/379
f 431/251/380 430/261/379 433/252/381
f 434/254/382 435/261/379 436/253/383
f 436/253/383 435/261/379 437/262/379
f 438/263/384 439/249/385 440/248/386
f 441/264/387 442/245/388 443/247/389
f 444/265/390 445/266/391 446/267/390
f 445/266/391 444/265/390 447/257/392
f 448/258/393 449/265/390 450/259/394
f 450/259/394 449/265/390 451/267/390
f 452/268/395 453/269/396 454/270/397
f 455/271/398 456/272/399 457/273/400
f 456/272/399 458/274/401 457/273/400
f 460/275/318 459/276/402 462/277/403
f 463/278/404 461/279/405 464/275/406
f 465/280/407 466/281/408 467/282/409
f 468/283/410 469/284/411 470/285/412
f 470/285/412 471/286/413 468/283/410
f 469/284/414 472/269/415 473/268/416
f 474/283/417 472/269/415 469/284/414
f 471/286/418 476/285/419 475/287/420
f 477/288/421 478/281/422 479/289/423
f 479/289/423 478/281/422 480/280/424
f 482/290/425 483/274/426 481/291/427
f 484/292/428 485/273/429 486/274/430
f 484/292/428 486/274/430 487/291/431
f 488/293/432 489/284/433 490/294/434
f 491/285/435 490/294/434 489/284/433
f 489/284/433 488/293/432 492/268/436
f 493/295/357 494/296/437 495/288/438
f 493/295/357 495/288/438 496/289/439
f 497/297/440 498/273/441 499/298/442
f 498/273/441 497/297/440 500/271/443
f 503/295/444 502/299/237 501/289/445
f 506/289/445 505/300/238 504/280/446
f 507/281/447 508/301/448 509/302/449
f 508/301/448 507/281/447 510/288/450
f 507/281/447 509/302/449 511/282/451
f 512/288/452 513/303/453 514/301/454
f 513/303/453 512/288/452 515/296/455
f 517/278/92 516/304/456 518/279/457
f 519/305/458 520/269/459 521/283/460
f 520/269/459 519/305/458 522/306/461
f 524/299/462 523/301/463 525/300/269
f 526/298/464 527/292/465 528/307/465
f 527/292/465 529/308/466 528/307/465
f 527/292/465 526/298/464 530/273/467
f 531/283/468 532/309/469 533/305/470
f 532/309/469 531/283/468 534/286/471
f 536/294/472 535/305/473 537/293/474
f 538/306/475 537/293/474 539/305/476
f 541/290/477 540/307/478 542/298/479
f 543/302/480 544/300/481 545/301/482
usemtl Meshpart2Mtl.013
f 550/310/483 551/311/483 552/312/483
usemtl Meshpart1Mtl.026
f 553/313/484 554/314/485 555/315/484
f 554/314/485 553/313/484 556/316/485
f 557/317/486 553/313/484 555/315/484
f 553/313/484 557/317/486 558/318/486
f 559/319/487 558/318/486 557/317/486
f 558/318/486 559/319/487 560/320/487
f 561/321/488 560/320/487 559/319/487
f 560/320/487 561/321/488 562/322/488
f 563/323/489 564/324/489 565/325/489
f 563/323/489 565/325/489 566/326/489
f 568/327/490 569/328/491 567/329/490
f 569/328/491 568/327/490 570/330/491
f 571/331/492 572/332/493 573/333/494
f 572/332/493 571/331/492 574/334/492
f 572/332/493 575/335/495 573/333/494
f 575/335/495 572/332/493 576/336/496
f 576/336/496 577/337/492 575/335/495
f 577/337/492 576/336/496 578/338/492
f 577/337/492 578/338/492 579/339/492
f 577/337/492 579/339/492 580/340/492
f 581/341/497 582/342/497 583/343/498
f 583/343/498 582/342/497 584/344/498
f 585/345/499 586/346/499 587/347/500
f 588/348/500 585/345/499 587/347/500
f 588/348/500 587/347/500 589/349/501
f 590/350/501 588/348/500 589/349/501
f 591/351/502 592/352/502 593/353/502
f 591/351/502 593/353/502 594/354/502
f 595/355/503 596/356/503 597/357/504
f 597/357/504 596/356/503 598/358/505
f 597/357/504 598/358/505 599/359/506
f 599/359/506 600/360/507 597/357/504
f 600/360/507 599/359/506 601/361/503
f 601/361/503 602/362/503 600/360/507
f 601/361/503 603/363/503 602/362/503
f 603/363/503 601/361/503 604/364/503
usemtl Meshpart2Mtl.014
f 605/365/484 606/366/484 607/367/508
f 607/367/508 606/366/484 608/368/508
f 607/367/508 608/368/508 609/369/509
f 609/369/509 608/368/508 610/370/509
f 611/371/484 612/372/510 613/373/510
f 612/372/510 611/371/484 614/374/484
f 615/375/511 613/373/510 612/372/510
f 613/373/510 615/375/511 616/376/511
f 617/377/512 618/378/510 619/379/484
f 618/378/510 617/377/512 620/380/513
f 618/378/510 620/380/513 621/381/511
f 621/381/511 620/380/513 622/382/511
f 623/383/489 624/384/489 625/385/489
f 625/385/489 624/384/489 626/386/489
f 627/387/489 628/388/489 629/389/489
f 629/389/489 628/388/489 630/390/489
f 631/391/514 632/392/489 633/393/489
f 633/393/489 632/392/489 634/394/489
f 635/395/492 636/396/492 637/397/492
f 636/396/492 635/395/492 638/398/492
f 639/399/492 636/396/492 638/398/492
f 636/396/492 639/399/492 640/400/492
f 641/401/492 642/402/492 643/403/492
f 642/402/492 641/401/492 644/404/492
f 645/405/492 642/402/492 644/404/492
f 642/402/492 645/405/492 646/406/492
f 647/407/492 648/408/492 649/409/492
f 648/408/492 647/407/492 650/410/492
f 651/411/492 648/408/492 650/410/492
f 648/408/492 651/411/492 652/412/492
f 653/413/515 654/414/516 655/415/516
f 653/413/515 655/415/516 656/416/515
f 654/414/516 657/417/517 655/415/516
f 654/414/516 658/418/518 657/417/517
f 659/419/515 660/420/519 661/421/519
f 659/419/515 661/421/519 662/422/515
f 660/420/519 663/423/517 661/421/519
f 660/420/519 664/424/517 663/423/517
f 665/425/520 666/426/519 667/427/521
f 665/425/520 667/427/521 668/428/520
f 666/426/519 669/429/522 667/427/521
f 666/426/519 670/430/522 669/429/522
f 671/431/502 672/432/502 673/433/502
f 673/433/502 672/432/502 674/434/502
f 675/435/502 676/436/502 677/393/502
f 677/393/502 676/436/502 678/394/502
f 679/437/502 680/438/502 681/439/502
f 681/439/502 680/438/502 682/440/502
f 683/441/503 684/442/503 685/443/503
f 686/444/503 685/443/503 684/442/503
f 684/442/503 687/445/503 686/444/503
f 687/445/503 684/442/503 688/446/503
f 689/447/503 690/448/503 691/449/503
f 692/450/503 691/449/503 690/448/503
f 690/448/503 693/451/503 692/450/503
f 693/451/503 690/448/503 694/452/503
f 695/453/503 696/454/503 697/455/503
f 698/456/503 697/455/503 696/454/503
f 696/454/503 699/457/503 698/456/503
f 699/457/503 696/454/503 700/458/503
l 548 549
l 546 547
