# Blender 5.1.2
# www.blender.org
mtllib diamond pic.mtl
o Cube.008_Cube.017
v -0.519829 2.603406 0.164092
v -0.514210 2.131569 0.166060
v -0.985932 2.124560 -0.167748
v -0.980313 1.652723 -0.165781
v -1.219043 1.885831 -0.166837
v -1.446653 1.176656 0.169704
v -1.685384 1.409764 0.168648
v -0.236097 -1.404186 0.180885
v 0.230243 -0.928118 -0.154600
v -0.008606 -0.693620 0.178007
v 0.224624 -0.456282 -0.156567
v -0.014106 -0.223173 -0.157623
v -0.258574 0.483162 0.173017
v -0.269694 1.425446 -0.164581
v 0.202028 1.432456 0.169227
v -0.275313 1.897283 -0.166548
v 0.196409 1.904292 0.167260
v -0.286670 2.842346 0.163180
v -0.053559 3.081074 0.162269
v 0.009618 -2.111738 -0.149748
v 0.003880 -1.638512 0.181947
v 0.003999 -1.639902 -0.151716
v -0.007359 -0.694838 0.178013
v -0.245970 -0.463119 -0.156706
v -0.490438 0.243216 0.173933
v -0.495938 0.713663 -0.161697
v -0.274066 1.896065 -0.166542
v -0.040955 2.134793 -0.167454
v -0.518534 2.602400 0.164097
v -0.518415 2.601010 -0.169566
v 0.247053 -2.343841 -0.148697
v 0.008323 -2.110732 -0.149753
v 0.480164 -2.105112 -0.149608
v 0.241434 -1.872004 -0.150664
v 0.002704 -1.638895 -0.151720
v -0.003034 -1.165669 0.179975
v -0.002915 -1.167058 -0.153688
v 0.230076 -0.926940 0.179064
v 0.230195 -0.928330 -0.154599
v -0.008654 -0.693832 0.178008
v -0.014154 -0.223385 -0.157622
v 0.457687 -0.217765 -0.157477
v 0.218838 0.016733 0.175129
v 0.218957 0.015344 -0.158533
v 0.213338 0.487180 -0.160500
v -0.025511 0.721678 0.172106
v -0.025392 0.720289 -0.161556
v 0.440829 1.197746 -0.163379
v 0.202099 1.430854 -0.164435
v 0.201980 1.432244 0.169228
v 0.429472 2.142809 0.166349
v 0.423853 2.614646 0.164382
v 0.901313 2.148429 0.166494
v 0.662583 2.381537 0.165438
v 1.140162 1.913931 -0.166112
v 0.901432 2.147039 -0.167168
v 1.145781 1.442094 -0.164145
v 1.140043 1.915320 0.167550
v 1.384511 1.208986 -0.163089
v 1.861971 0.742769 -0.160977
v 2.094963 0.982887 0.171775
v 0.190861 2.374528 -0.168369
v 0.423972 2.613256 -0.169280
v 0.668321 1.908311 -0.166257
v 0.912551 1.204755 0.170429
v 0.673821 1.437864 0.169373
v 0.673940 1.436474 -0.164290
v 1.390011 0.738538 0.172541
v 1.151281 0.971647 0.171485
v 1.134424 2.387157 0.165583
v 1.378773 1.682212 0.168606
v 1.611884 1.920940 0.167695
v 1.373273 2.152659 -0.167023
v -1.457892 2.120329 0.165770
v -1.924114 1.642873 0.167592
v -1.452273 1.648493 0.167737
v -2.157224 1.404145 0.168503
v -0.275361 1.897071 -0.166547
v -0.514091 2.130180 -0.167603
v -0.741701 1.421004 0.168938
v -0.974812 1.182276 0.169849
v -0.974693 1.180886 -0.163814
v -1.207923 0.943547 0.170760
v -0.747202 1.891451 -0.166692
v -0.747321 1.892841 0.166971
v -1.452154 1.647103 -0.165926
v -0.008487 -0.695010 -0.155656
v -0.014225 -0.221784 0.176040
v 0.219005 0.015555 -0.158534
v -0.264193 0.954998 0.171049
v -0.264074 0.953609 -0.162613
v 0.207648 0.960618 0.171194
v -0.269813 1.426836 0.169082
v 0.202147 1.431066 -0.164436
v -0.036702 1.665564 0.168171
v -0.036583 1.664175 -0.165492
v 0.196528 1.902903 -0.166403
v -0.281051 2.370509 0.165148
v -0.042202 2.136011 -0.167459
v 0.190909 2.374739 -0.168370
v -0.047821 2.607848 -0.169426
v -0.286551 2.840956 -0.170482
v 0.185290 2.846576 -0.170337
v -0.053440 3.079685 -0.171393
v -0.223493 -2.350467 -0.148837
v -0.229231 -1.877240 0.182858
v -0.229112 -1.878630 -0.150805
v -0.467842 -1.645521 -0.151861
v -0.234731 -1.406793 -0.152772
v -0.473580 -1.172295 0.179835
v -0.001739 -1.166675 0.179980
v -0.240470 -0.933566 0.178924
v -0.007240 -0.696228 -0.155650
v -0.012978 -0.223001 0.176045
v -0.251708 0.010107 0.174989
v -0.251589 0.008718 -0.158673
v -0.024216 0.720672 0.172111
v -0.262946 0.953781 0.171055
v -0.024097 0.719283 -0.161552
v -0.501557 1.185500 -0.163664
v -0.029835 1.192509 0.170144
v -0.268447 1.424228 -0.164575
v -0.507177 1.657337 -0.165631
v -0.274184 1.897455 0.167120
v -0.512796 2.129174 -0.167598
v -0.041074 2.136183 0.166209
v -0.285423 2.841128 0.163186
v -0.285304 2.839738 -0.170477
v 0.008204 -2.109343 0.183910
v 0.480045 -2.103723 0.184054
v 0.474545 -1.633276 -0.151575
v 0.235815 -1.400167 -0.152632
v 0.451949 0.255461 0.174218
v 0.213219 0.488570 0.173162
v 0.440710 1.199135 0.170284
v -0.036750 1.665352 0.168172
v 1.145662 1.443484 0.169518
v 1.623241 0.975877 -0.162033
v 1.856233 1.215995 0.170719
v 1.617503 1.449103 0.169662
v 1.617622 1.447714 -0.164000
v -0.752940 2.364678 0.165004
v -0.991670 2.597786 0.163948
v -0.752821 2.363288 -0.168659
v -1.441034 0.704819 0.171672
v -1.440915 0.703429 -0.161991
v -0.281099 2.370298 0.165148
v -0.280980 2.368908 -0.168514
v -0.980432 1.654113 0.167882
v -1.918375 1.169647 -0.164103
v -2.151486 0.930918 -0.163192
v 0.002633 -1.637294 0.181941
v 0.235744 -1.398566 0.181030
v -0.002987 -1.165457 0.179974
v -0.002868 -1.166847 -0.153688
v -0.241717 -0.932349 0.178918
v -0.247336 -0.460512 0.176951
v 0.224505 -0.454892 0.177096
v -0.252836 0.009935 -0.158679
v -0.019844 0.250053 0.174073
v -0.258455 0.481772 -0.160646
v 0.213267 0.488782 0.173161
v -0.031083 1.193727 0.170138
v -0.030964 1.192338 -0.163525
v -0.275432 1.898673 0.167115
v 0.190790 2.376129 0.165293
v -0.047940 2.609237 0.164236
v 0.185171 2.847966 0.163325
v -0.223612 -2.349077 0.184825
v -0.234850 -1.405403 0.180891
v -0.473461 -1.173684 -0.153828
v -0.001620 -1.168065 -0.153683
v -0.479081 -0.701848 -0.155795
v -0.484819 -0.228621 0.175900
v -0.012859 -0.224391 -0.157617
v -0.490319 0.241826 -0.159730
v -0.018597 0.248836 0.174078
v -0.257327 0.481944 0.173022
v -0.262827 0.952391 -0.162608
v -0.029716 1.191120 -0.163519
v -0.279804 2.369291 0.165153
v -0.279685 2.367902 -0.168510
v -0.046693 2.608019 0.164242
v -0.046574 2.606630 -0.169421
v 0.468807 -1.160049 0.180120
v -0.008535 -0.695222 -0.155655
v 0.224457 -0.455104 0.177097
v 0.457568 -0.216375 0.176186
v -0.036631 1.663963 -0.165491
v -0.042369 2.137189 0.166205
v 0.196480 1.902691 -0.166402
v -0.047988 2.609026 0.164237
v 0.185123 2.847754 0.163326
v 0.429591 2.141420 -0.167313
v 0.907051 1.675203 -0.165201
v 0.906932 1.676592 0.168462
v 1.861852 0.744158 0.172686
v 1.623122 0.977267 0.171630
v 1.856352 1.214606 -0.162944
v 0.435210 1.669583 -0.165346
v 0.668202 1.909701 0.167405
v 0.912670 1.203366 -0.163234
v 1.390130 0.737149 -0.161122
v 1.151400 0.970257 -0.162178
v 1.134543 2.385767 -0.168080
v 2.089463 1.453334 -0.163855
v -1.224662 2.357668 -0.168804
v -0.991551 2.596397 -0.169715
v -1.923995 1.641483 -0.166071
v -1.690884 1.880212 -0.166982
v -0.275480 1.898461 0.167116
v -0.508591 1.659732 0.168027
v -0.508472 1.658343 -0.165636
v -1.207804 0.942158 -0.162902
v -0.519710 2.602017 -0.169570
v -1.219162 1.887221 0.166826
v -1.685265 1.408375 -0.165014
v -1.679764 0.937927 0.170615
v -1.446534 1.175266 -0.163958
v -1.912875 0.699199 0.171527
v -2.151605 0.932308 0.170471
v -1.912756 0.697810 -0.162136
v -1.918494 1.171036 0.169559
v -1.679645 0.936538 -0.163047
v 0.013871 -2.580968 0.185876
v -0.224859 -2.347859 0.184820
v 0.013990 -2.582357 -0.147787
v -0.224740 -2.349249 -0.148843
v 0.246982 -2.342239 0.184965
v 0.008252 -2.109131 0.183909
v 0.247101 -2.343629 -0.148698
v 0.008371 -2.110521 -0.149754
v -0.230478 -1.876022 0.182853
v -0.230359 -1.877412 -0.150810
v 0.241363 -1.870402 0.182998
v 0.241482 -1.871792 -0.150665
v 0.002752 -1.638684 -0.151721
v -0.235978 -1.405575 -0.152777
v 0.235863 -1.399955 -0.152632
v -0.241598 -0.933738 -0.154745
v 0.230124 -0.926729 0.179063
v -0.247217 -0.461902 -0.156712
v -0.252955 0.011325 0.174984
v 0.218886 0.016945 0.175129
v -0.019725 0.248664 -0.159590
v 0.213386 0.487392 -0.160501
v -0.025344 0.720500 -0.161557
v -0.025463 0.721890 0.172105
v 0.207767 0.959229 -0.162469
v -0.042321 2.137401 0.166204
v -0.280932 2.369120 -0.168515
v -0.462342 -2.115968 0.183769
v -0.462223 -2.117358 -0.149893
v 0.009499 -2.110349 0.183914
v -0.467961 -1.644132 0.181802
v -0.479200 -0.700458 0.177868
v -0.240351 -0.934956 -0.154739
v -0.246089 -0.461730 0.176956
v -0.484700 -0.230011 -0.157762
v -0.018478 0.247446 -0.159585
v -0.496057 0.715052 0.171966
v -0.257208 0.480555 -0.160641
v -0.501676 1.186889 0.169999
v -0.268566 1.425618 0.169088
v -0.507296 1.658726 0.168032
v -0.035455 1.664346 0.168176
v -0.035336 1.662957 -0.165486
v -0.512915 2.130563 0.166064
v 0.246934 -2.342451 0.184966
v 0.241315 -1.870614 0.182998
v 0.002585 -1.637506 0.181942
v 0.474426 -1.631886 0.182087
v 0.235696 -1.398777 0.181031
v 0.468926 -1.161439 -0.153543
v 0.463187 -0.688212 0.178153
v 0.463306 -0.689602 -0.155510
v 0.224576 -0.456493 -0.156566
v -0.014273 -0.221995 0.176041
v -0.019892 0.249842 0.174073
v -0.019773 0.248452 -0.159589
v 0.452068 0.254072 -0.159444
v 0.446330 0.727298 0.172251
v 0.446449 0.725909 -0.161412
v 0.207719 0.959017 -0.162468
v 0.207600 0.960407 0.171195
v -0.031130 1.193515 0.170139
v -0.031011 1.192126 -0.163524
v 0.196361 1.904080 0.167261
v -0.042250 2.135799 -0.167458
v 0.190742 2.375917 0.165293
v -0.047869 2.607636 -0.169425
v 0.185242 2.846364 -0.170337
v 1.378892 1.680822 -0.165056
v 1.384392 1.210375 0.170574
v 2.095083 0.981497 -0.161888
v 0.435091 1.670972 0.168317
v 0.662702 2.380148 -0.168224
v 0.895694 2.620265 0.164527
v 0.895813 2.618876 -0.169136
v 1.373154 2.154049 0.166639
v 1.612003 1.919551 -0.165967
v 1.850614 1.687832 0.168751
v 1.850733 1.686442 -0.164911
v 2.089344 1.454723 0.169807
v -1.224781 2.359058 0.164859
v -0.986051 2.125949 0.165915
v -1.691003 1.881601 0.166681
v -1.457773 2.118940 -0.167893
v -2.157105 1.402755 -0.165159
v -0.741583 1.419615 -0.164725
v -1.213543 1.415384 0.168793
v -1.213424 1.413995 -0.164870
vn -0.6986 -0.7155 0.0027
vn 0.6986 0.7155 -0.0027
vn 0.7155 -0.6986 0.0032
vn -0.7155 0.6986 -0.0032
vn 0.0004 -0.0042 -1.0000
vn -0.0004 0.0042 1.0000
vt 0.375000 0.000000
vt 0.625000 0.000000
vt 0.625000 0.250000
vt 0.375000 0.250000
vt 0.375000 0.500000
vt 0.625000 0.500000
vt 0.625000 0.750000
vt 0.375000 0.750000
vt 0.125000 0.500000
vt 0.125000 0.750000
vt 0.875000 0.500000
vt 0.875000 0.750000
vt 0.625000 1.000000
vt 0.375000 1.000000
s 1
usemtl Material.001
f 2/1/1 142/2/1 144/3/1 79/4/1
f 148/5/2 215/6/2 1/7/2 147/8/2
f 79/9/3 148/5/3 147/8/3 2/10/3
f 85/1/1 306/2/1 3/3/1 84/4/1
f 84/9/3 79/5/3 2/8/3 85/10/3
f 144/6/4 3/11/4 306/12/4 142/7/4
f 4/9/3 84/5/3 85/8/3 149/10/3
f 3/6/4 5/11/4 216/12/4 306/7/4
f 311/1/1 76/2/1 86/3/1 312/4/1
f 312/9/3 4/5/3 149/8/3 311/10/3
f 5/6/4 86/11/4 76/12/4 216/7/4
f 6/1/1 7/2/1 217/3/1 219/4/1
f 219/9/3 312/5/3 311/8/3 6/10/3
f 86/6/4 217/11/4 7/12/4 76/7/4
f 218/1/1 223/2/1 150/3/1 224/4/1
f 224/9/3 219/5/3 6/8/3 218/10/3
f 217/6/4 150/11/4 223/12/4 7/7/4
f 231/5/2 232/6/2 230/7/2 229/8/2
f 232/6/4 228/11/4 226/12/4 230/7/4
f 230/1/1 233/2/1 234/3/1 232/4/1
f 236/5/2 237/6/2 152/7/2 235/8/2
f 232/9/3 236/5/3 235/8/3 230/10/3
f 237/6/4 234/11/4 233/12/4 152/7/4
f 152/1/1 8/2/1 238/3/1 237/4/1
f 239/5/2 155/6/2 154/7/2 153/8/2
f 237/9/3 239/5/3 153/8/3 152/10/3
f 155/6/4 238/11/4 8/12/4 154/7/4
f 154/1/1 156/2/1 240/3/1 155/4/1
f 9/5/2 87/6/2 10/7/2 241/8/2
f 155/9/3 9/5/3 241/8/3 154/10/3
f 87/6/4 240/11/4 156/12/4 10/7/4
f 10/1/1 157/2/1 242/3/1 87/4/1
f 11/5/2 12/6/2 88/7/2 158/8/2
f 87/9/3 11/5/3 158/8/3 10/10/3
f 12/6/4 242/11/4 157/12/4 88/7/4
f 88/1/1 243/2/1 159/3/1 12/4/1
f 12/9/3 89/5/3 244/8/3 88/10/3
f 245/6/4 159/11/4 243/12/4 160/7/4
f 160/1/1 13/2/1 161/3/1 245/4/1
f 246/5/2 247/6/2 248/7/2 162/8/2
f 245/9/3 246/5/3 162/8/3 160/10/3
f 247/6/4 161/11/4 13/12/4 248/7/4
f 248/1/1 90/2/1 91/3/1 247/4/1
f 249/5/2 164/6/2 163/7/2 92/8/2
f 247/9/3 249/5/3 92/8/3 248/10/3
f 164/6/4 91/11/4 90/12/4 163/7/4
f 163/1/1 93/2/1 14/3/1 164/4/1
f 94/5/2 96/6/2 95/7/2 15/8/2
f 96/6/4 14/11/4 93/12/4 95/7/4
f 95/1/1 165/2/1 16/3/1 96/4/1
f 97/5/2 99/6/2 250/7/2 17/8/2
f 96/9/3 97/5/3 17/8/3 95/10/3
f 99/6/4 16/11/4 165/12/4 250/7/4
f 250/1/1 98/2/1 251/3/1 99/4/1
f 100/5/2 101/6/2 167/7/2 166/8/2
f 99/9/3 100/5/3 166/8/3 250/10/3
f 101/6/4 251/11/4 98/12/4 167/7/4
f 167/1/1 18/2/1 102/3/1 101/4/1
f 101/9/3 103/5/3 168/8/3 167/10/3
f 104/6/4 102/11/4 18/12/4 19/7/4
f 20/5/2 107/6/2 106/7/2 254/8/2
f 105/9/3 20/5/3 254/8/3 169/10/3
f 22/5/2 109/6/2 170/7/2 21/8/2
f 107/9/3 22/5/3 21/8/3 106/10/3
f 172/5/2 257/6/2 112/7/2 111/8/2
f 109/9/3 172/5/3 111/8/3 170/10/3
f 113/5/2 24/6/2 258/7/2 23/8/2
f 257/9/3 113/5/3 23/8/3 112/10/3
f 175/5/2 116/6/2 115/7/2 114/8/2
f 24/9/3 175/5/3 114/8/3 258/10/3
f 260/5/2 262/6/2 178/7/2 177/8/2
f 116/9/3 260/5/3 177/8/3 115/10/3
f 119/5/2 179/6/2 118/7/2 117/8/2
f 262/9/3 119/5/3 117/8/3 178/10/3
f 180/5/2 122/6/2 264/7/2 121/8/2
f 179/9/3 180/5/3 121/8/3 118/10/3
f 267/5/2 27/6/2 124/7/2 266/8/2
f 122/9/3 267/5/3 266/8/3 264/10/3
f 27/6/4 123/11/4 265/12/4 124/7/4
f 28/5/2 182/6/2 181/7/2 126/8/2
f 27/9/3 28/5/3 126/8/3 124/10/3
f 182/6/4 125/11/4 268/12/4 181/7/4
f 181/1/1 29/2/1 30/3/1 182/4/1
f 184/5/2 128/6/2 127/7/2 183/8/2
f 182/9/3 184/5/3 183/8/3 181/10/3
f 269/1/1 129/2/1 32/3/1 31/4/1
f 34/6/4 32/11/4 129/12/4 270/7/4
f 270/1/1 271/2/1 35/3/1 34/4/1
f 132/6/4 35/11/4 271/12/4 273/7/4
f 273/1/1 36/2/1 37/3/1 132/4/1
f 39/6/4 37/11/4 36/12/4 38/7/4
f 38/1/1 40/2/1 186/3/1 39/4/1
f 277/6/4 186/11/4 40/12/4 187/7/4
f 187/1/1 278/2/1 41/3/1 277/4/1
f 44/6/4 41/11/4 278/12/4 43/7/4
f 45/6/4 280/11/4 279/12/4 134/7/4
f 134/1/1 46/2/1 47/3/1 45/4/1
f 284/6/4 47/11/4 46/12/4 285/7/4
f 285/1/1 286/2/1 287/3/1 284/4/1
f 50/1/1 136/2/1 189/3/1 49/4/1
f 200/5/2 191/6/2 288/7/2 296/8/2
f 191/6/4 189/11/4 136/12/4 288/7/4
f 288/1/1 190/2/1 289/3/1 191/4/1
f 194/5/2 62/6/2 290/7/2 51/8/2
f 62/6/4 289/11/4 190/12/4 290/7/4
f 290/1/1 192/2/1 291/3/1 62/4/1
f 62/9/3 63/5/3 52/8/3 290/10/3
f 292/6/4 291/11/4 192/12/4 193/7/4
f 201/1/1 51/2/1 194/3/1 64/4/1
f 56/5/2 297/6/2 54/7/2 53/8/2
f 64/9/3 56/5/3 53/8/3 201/10/3
f 196/1/1 201/2/1 64/3/1 195/4/1
f 55/5/2 56/6/2 53/7/2 58/8/2
f 137/1/1 196/2/1 195/3/1 57/4/1
f 293/5/2 55/6/2 58/7/2 71/8/2
f 57/9/3 293/5/3 71/8/3 137/10/3
f 294/1/1 137/2/1 57/3/1 59/4/1
f 141/5/2 293/6/2 71/7/2 140/8/2
f 59/9/3 141/5/3 140/8/3 294/10/3
f 198/1/1 294/2/1 59/3/1 138/4/1
f 199/5/2 141/6/2 140/7/2 139/8/2
f 138/9/3 199/5/3 139/8/3 198/10/3
f 200/9/3 64/5/3 201/8/3 296/10/3
f 212/1/1 85/2/1 84/3/1 213/4/1
f 213/9/3 78/5/3 211/8/3 212/10/3
usemtl Material.002
f 225/1/1 226/2/1 228/3/1 227/4/1
f 227/4/5 228/3/5 232/6/5 231/5/5
f 229/8/6 230/7/6 226/13/6 225/14/6
f 227/9/3 231/5/3 229/8/3 225/10/3
f 237/4/5 238/3/5 155/6/5 239/5/5
f 153/8/6 154/7/6 8/13/6 152/14/6
f 87/4/5 242/3/5 12/6/5 11/5/5
f 158/8/6 88/7/6 157/13/6 10/14/6
f 245/4/5 161/3/5 247/6/5 246/5/5
f 162/8/6 248/7/6 13/13/6 160/14/6
f 164/4/5 14/3/5 96/6/5 94/5/5
f 15/8/6 95/7/6 93/13/6 163/14/6
f 164/9/3 94/5/3 15/8/3 163/10/3
f 101/4/5 102/3/5 104/6/5 103/5/5
f 103/5/2 104/6/2 19/7/2 168/8/2
f 168/8/6 19/7/6 18/13/6 167/14/6
f 49/6/4 287/11/4 286/12/4 50/7/4
usemtl Material.003
f 232/4/5 234/3/5 237/6/5 236/5/5
f 235/8/6 152/7/6 233/13/6 230/14/6
f 155/4/5 240/3/5 87/6/5 9/5/5
f 241/8/6 10/7/6 156/13/6 154/14/6
f 12/4/5 159/3/5 245/6/5 89/5/5
f 89/5/2 245/6/2 160/7/2 244/8/2
f 244/8/6 160/7/6 243/13/6 88/14/6
f 247/4/5 91/3/5 164/6/5 249/5/5
f 92/8/6 163/7/6 90/13/6 248/14/6
f 99/4/5 251/3/5 101/6/5 100/5/5
f 166/8/6 167/7/6 98/13/6 250/14/6
f 43/1/1 279/2/1 280/3/1 44/4/1
usemtl Material.004
f 224/4/5 150/3/5 217/6/5 219/5/5
f 6/8/6 7/7/6 223/13/6 218/14/6
f 138/4/5 59/3/5 141/6/5 199/5/5
f 139/8/6 140/7/6 294/13/6 198/14/6
usemtl Material.005
f 79/4/5 144/3/5 215/6/5 148/5/5
f 147/8/6 1/7/6 142/13/6 2/14/6
f 215/6/4 144/11/4 142/12/4 1/7/4
f 220/1/1 221/2/1 151/3/1 222/4/1
f 222/4/5 151/3/5 150/6/5 224/5/5
f 218/8/6 223/7/6 221/13/6 220/14/6
f 222/9/3 224/5/3 218/8/3 220/10/3
f 150/6/4 151/11/4 221/12/4 223/7/4
f 194/4/5 62/3/5 63/6/5 297/5/5
f 297/5/2 63/6/2 52/7/2 54/8/2
f 54/8/6 52/7/6 290/13/6 51/14/6
f 194/9/3 297/5/3 54/8/3 51/10/3
f 197/1/1 198/2/1 138/3/1 60/4/1
f 60/4/5 138/3/5 199/6/5 295/5/5
f 295/5/2 199/6/2 139/7/2 61/8/2
f 61/8/6 139/7/6 198/13/6 197/14/6
f 60/9/3 295/5/3 61/8/3 197/10/3
f 66/1/1 296/2/1 200/3/1 67/4/1
f 67/4/5 200/3/5 64/6/5 195/5/5
f 196/8/6 201/7/6 296/13/6 66/14/6
f 67/9/3 195/5/3 196/8/3 66/10/3
f 65/1/1 66/2/1 67/3/1 202/4/1
f 202/4/5 67/3/5 195/6/5 57/5/5
f 137/8/6 196/7/6 66/13/6 65/14/6
f 202/9/3 57/5/3 137/8/3 65/10/3
f 69/1/1 65/2/1 202/3/1 204/4/1
f 204/4/5 202/3/5 57/6/5 59/5/5
f 294/8/6 137/7/6 65/13/6 69/14/6
f 204/9/3 59/5/3 294/8/3 69/10/3
f 68/1/1 69/2/1 204/3/1 203/4/1
f 203/4/5 204/3/5 59/6/5 138/5/5
f 198/8/6 294/7/6 69/13/6 68/14/6
f 203/9/3 138/5/3 198/8/3 68/10/3
f 56/4/5 297/3/5 299/6/5 205/5/5
f 205/5/2 299/6/2 298/7/2 70/8/2
f 70/8/6 298/7/6 54/13/6 53/14/6
f 56/9/3 205/5/3 70/8/3 53/10/3
f 299/6/4 297/11/4 54/12/4 298/7/4
f 55/4/5 56/3/5 205/6/5 73/5/5
f 73/5/2 205/6/2 70/7/2 300/8/2
f 300/8/6 70/7/6 53/13/6 58/14/6
f 55/9/3 73/5/3 300/8/3 58/10/3
f 293/4/5 55/3/5 73/6/5 301/5/5
f 301/5/2 73/6/2 300/7/2 72/8/2
f 72/8/6 300/7/6 58/13/6 71/14/6
f 293/9/3 301/5/3 72/8/3 71/10/3
f 141/4/5 293/3/5 301/6/5 303/5/5
f 303/5/2 301/6/2 72/7/2 302/8/2
f 302/8/6 72/7/6 71/13/6 140/14/6
f 141/9/3 303/5/3 302/8/3 140/10/3
f 199/4/5 141/3/5 303/6/5 206/5/5
f 206/5/2 303/6/2 302/7/2 304/8/2
f 304/8/6 302/7/6 140/13/6 139/14/6
f 199/9/3 206/5/3 304/8/3 139/10/3
f 306/1/1 305/2/1 207/3/1 3/4/1
f 3/4/5 207/3/5 208/6/5 144/5/5
f 144/5/2 208/6/2 143/7/2 142/8/2
f 142/8/6 143/7/6 305/13/6 306/14/6
f 208/6/4 207/11/4 305/12/4 143/7/4
f 216/1/1 74/2/1 308/3/1 5/4/1
f 5/4/5 308/3/5 207/6/5 3/5/5
f 306/8/6 305/7/6 74/13/6 216/14/6
f 207/6/4 308/11/4 74/12/4 305/7/4
f 76/1/1 307/2/1 210/3/1 86/4/1
f 86/4/5 210/3/5 308/6/5 5/5/5
f 216/8/6 74/7/6 307/13/6 76/14/6
f 308/6/4 210/11/4 307/12/4 74/7/4
f 7/1/1 75/2/1 209/3/1 217/4/1
f 217/4/5 209/3/5 210/6/5 86/5/5
f 76/8/6 307/7/6 75/13/6 7/14/6
f 210/6/4 209/11/4 75/12/4 307/7/4
f 223/1/1 77/2/1 309/3/1 150/4/1
f 150/4/5 309/3/5 209/6/5 217/5/5
f 7/8/6 75/7/6 77/13/6 223/14/6
f 209/6/4 309/11/4 77/12/4 75/7/4
f 80/1/1 149/2/1 4/3/1 310/4/1
f 310/4/5 4/3/5 84/6/5 213/5/5
f 212/8/6 85/7/6 149/13/6 80/14/6
f 310/9/3 213/5/3 212/8/3 80/10/3
f 81/1/1 311/2/1 312/3/1 82/4/1
f 82/4/5 312/3/5 4/6/5 310/5/5
f 80/8/6 149/7/6 311/13/6 81/14/6
f 82/9/3 310/5/3 80/8/3 81/10/3
f 83/1/1 6/2/1 219/3/1 214/4/1
f 214/4/5 219/3/5 312/6/5 82/5/5
f 81/8/6 311/7/6 6/13/6 83/14/6
f 214/9/3 82/5/3 81/8/3 83/10/3
f 145/1/1 218/2/1 224/3/1 146/4/1
f 146/4/5 224/3/5 219/6/5 214/5/5
f 83/8/6 6/7/6 218/13/6 145/14/6
f 146/9/3 214/5/3 83/8/3 145/10/3
usemtl Material.006
f 149/1/1 216/2/1 5/3/1 4/4/1
f 4/4/5 5/3/5 3/6/5 84/5/5
f 85/8/6 306/7/6 216/13/6 149/14/6
f 312/4/5 86/3/5 5/6/5 4/5/5
f 149/8/6 216/7/6 76/13/6 311/14/6
f 124/1/1 268/2/1 125/3/1 27/4/1
f 27/4/5 125/3/5 182/6/5 28/5/5
f 126/8/6 181/7/6 268/13/6 124/14/6
f 191/4/5 289/3/5 62/6/5 194/5/5
f 51/8/6 290/7/6 190/13/6 288/14/6
f 191/9/3 194/5/3 51/8/3 288/10/3
f 195/4/5 64/3/5 56/6/5 55/5/5
f 58/8/6 53/7/6 201/13/6 196/14/6
f 195/9/3 55/5/3 58/8/3 196/10/3
f 57/4/5 195/3/5 55/6/5 293/5/5
f 71/8/6 58/7/6 196/13/6 137/14/6
f 200/4/5 191/3/5 194/6/5 64/5/5
f 201/8/6 51/7/6 288/13/6 296/14/6
f 213/4/5 84/3/5 79/6/5 78/5/5
f 78/5/2 79/6/2 2/7/2 211/8/2
f 211/8/6 2/7/6 85/13/6 212/14/6
usemtl Material.007
f 219/4/5 217/3/5 86/6/5 312/5/5
f 311/8/6 76/7/6 7/13/6 6/14/6
f 96/4/5 16/3/5 99/6/5 97/5/5
f 17/8/6 250/7/6 165/13/6 95/14/6
f 59/4/5 57/3/5 293/6/5 141/5/5
f 140/8/6 71/7/6 137/13/6 294/14/6
usemtl Material.008
f 169/1/1 252/2/1 253/3/1 105/4/1
f 105/4/5 253/3/5 107/6/5 20/5/5
f 254/8/6 106/7/6 252/13/6 169/14/6
f 107/6/4 253/11/4 252/12/4 106/7/4
f 106/1/1 255/2/1 108/3/1 107/4/1
f 107/4/5 108/3/5 109/6/5 22/5/5
f 21/8/6 170/7/6 255/13/6 106/14/6
f 109/6/4 108/11/4 255/12/4 170/7/4
f 170/1/1 110/2/1 171/3/1 109/4/1
f 109/4/5 171/3/5 257/6/5 172/5/5
f 111/8/6 112/7/6 110/13/6 170/14/6
f 257/6/4 171/11/4 110/12/4 112/7/4
f 112/1/1 256/2/1 173/3/1 257/4/1
f 257/4/5 173/3/5 24/6/5 113/5/5
f 23/8/6 258/7/6 256/13/6 112/14/6
f 24/6/4 173/11/4 256/12/4 258/7/4
f 258/1/1 174/2/1 259/3/1 24/4/1
f 24/4/5 259/3/5 116/6/5 175/5/5
f 114/8/6 115/7/6 174/13/6 258/14/6
f 116/6/4 259/11/4 174/12/4 115/7/4
f 115/1/1 25/2/1 176/3/1 116/4/1
f 116/4/5 176/3/5 262/6/5 260/5/5
f 177/8/6 178/7/6 25/13/6 115/14/6
f 262/6/4 176/11/4 25/12/4 178/7/4
f 178/1/1 261/2/1 26/3/1 262/4/1
f 262/4/5 26/3/5 179/6/5 119/5/5
f 117/8/6 118/7/6 261/13/6 178/14/6
f 179/6/4 26/11/4 261/12/4 118/7/4
f 118/1/1 263/2/1 120/3/1 179/4/1
f 179/4/5 120/3/5 122/6/5 180/5/5
f 121/8/6 264/7/6 263/13/6 118/14/6
f 122/6/4 120/11/4 263/12/4 264/7/4
f 264/1/1 265/2/1 123/3/1 122/4/1
f 122/4/5 123/3/5 27/6/5 267/5/5
f 266/8/6 124/7/6 265/13/6 264/14/6
f 182/4/5 30/3/5 128/6/5 184/5/5
f 183/8/6 127/7/6 29/13/6 181/14/6
f 128/6/4 30/11/4 29/12/4 127/7/4
usemtl Material.009
f 31/4/5 32/3/5 34/6/5 33/5/5
f 33/5/2 34/6/2 270/7/2 130/8/2
f 130/8/6 270/7/6 129/13/6 269/14/6
f 31/9/3 33/5/3 130/8/3 269/10/3
f 34/4/5 35/3/5 132/6/5 131/5/5
f 131/5/2 132/6/2 273/7/2 272/8/2
f 272/8/6 273/7/6 271/13/6 270/14/6
f 34/9/3 131/5/3 272/8/3 270/10/3
f 132/4/5 37/3/5 39/6/5 274/5/5
f 274/5/2 39/6/2 38/7/2 185/8/2
f 185/8/6 38/7/6 36/13/6 273/14/6
f 132/9/3 274/5/3 185/8/3 273/10/3
f 39/4/5 186/3/5 277/6/5 276/5/5
f 276/5/2 277/6/2 187/7/2 275/8/2
f 275/8/6 187/7/6 40/13/6 38/14/6
f 39/9/3 276/5/3 275/8/3 38/10/3
f 277/4/5 41/3/5 44/6/5 42/5/5
f 42/5/2 44/6/2 43/7/2 188/8/2
f 188/8/6 43/7/6 278/13/6 187/14/6
f 277/9/3 42/5/3 188/8/3 187/10/3
f 44/4/5 280/3/5 45/6/5 281/5/5
f 281/5/2 45/6/2 134/7/2 133/8/2
f 133/8/6 134/7/6 279/13/6 43/14/6
f 44/9/3 281/5/3 133/8/3 43/10/3
f 45/4/5 47/3/5 284/6/5 283/5/5
f 283/5/2 284/6/2 285/7/2 282/8/2
f 282/8/6 285/7/6 46/13/6 134/14/6
f 45/9/3 283/5/3 282/8/3 134/10/3
f 284/4/5 287/3/5 49/6/5 48/5/5
f 48/5/2 49/6/2 50/7/2 135/8/2
f 135/8/6 50/7/6 286/13/6 285/14/6
f 284/9/3 48/5/3 135/8/3 285/10/3
f 49/4/5 189/3/5 191/6/5 200/5/5
f 296/8/6 288/7/6 136/13/6 50/14/6
f 49/9/3 200/5/3 296/8/3 50/10/3
f 62/4/5 291/3/5 292/6/5 63/5/5
f 63/5/2 292/6/2 193/7/2 52/8/2
f 52/8/6 193/7/6 192/13/6 290/14/6
usemtl Material.010
f 84/4/5 3/3/5 144/6/5 79/5/5
f 2/8/6 142/7/6 306/13/6 85/14/6
f 64/4/5 194/3/5 297/6/5 56/5/5
f 53/8/6 54/7/6 51/13/6 201/14/6
