# Blender 5.1.2
# www.blender.org
mtllib diamond poo mag.mtl
o Gingerbread_Sniper.001
v 0.265532 -0.076427 -0.104211
v 0.265532 -0.167112 0.111358
v 0.265532 -0.167112 -0.104211
v 0.265532 -0.076427 0.111358
v 0.264391 0.220307 -0.101865
v 0.264391 0.129622 0.109012
v 0.264391 0.129622 -0.101865
v 0.264391 0.220307 0.109012
v 0.264391 0.103023 -0.102745
v 0.264391 0.011581 0.109892
v 0.264391 0.011581 -0.102745
v 0.264391 0.103023 0.109892
v 0.264391 0.004878 -0.101518
v 0.264391 0.004878 0.109358
v 0.264391 -0.085807 -0.101518
v 0.264391 -0.085807 0.109358
v -0.102371 -0.031010 0.111358
v 0.265532 -0.076427 0.111358
v -0.102371 0.059676 0.111358
v 0.265532 -0.167112 0.111358
v 0.264391 0.011581 0.109892
v -0.103118 0.069889 0.109892
v -0.103118 -0.021553 0.109892
v 0.264391 0.103023 0.109892
v 0.264391 0.004878 0.109358
v -0.102371 -0.095542 0.109358
v 0.264391 -0.085807 0.109358
v -0.102371 -0.186227 0.109358
v 0.264391 0.129622 0.109012
v -0.102371 0.175959 0.109012
v -0.102371 0.085274 0.109012
v 0.264391 0.220307 0.109012
v -0.103118 -0.021553 -0.102745
v -0.103118 -0.021553 0.109892
v -0.103118 0.069889 -0.102745
v -0.103118 0.069889 0.109892
v -0.102371 0.085274 -0.101865
v -0.102371 0.085274 0.109012
v -0.102371 0.175959 -0.101865
v -0.102371 0.175959 0.109012
v -0.102371 -0.031010 -0.104211
v -0.102371 -0.031010 0.111358
v -0.102371 0.059676 -0.104211
v -0.102371 0.059676 0.111358
v -0.102371 -0.095542 0.109358
v -0.102371 -0.095542 -0.101518
v -0.102371 -0.186227 -0.101518
v -0.102371 -0.186227 0.109358
v 0.265532 -0.076427 -0.104211
v -0.102371 -0.031010 -0.104211
v -0.102371 0.059676 -0.104211
v 0.265532 -0.167112 -0.104211
v -0.103118 0.069889 -0.102745
v 0.264391 0.011581 -0.102745
v -0.103118 -0.021553 -0.102745
v 0.264391 0.103023 -0.102745
v -0.102371 0.175959 -0.101865
v 0.264391 0.129622 -0.101865
v -0.102371 0.085274 -0.101865
v 0.264391 0.220307 -0.101865
v 0.264391 -0.085807 -0.101518
v -0.102371 -0.095542 -0.101518
v 0.264391 0.004878 -0.101518
v -0.102371 -0.186227 -0.101518
v 0.263900 0.250113 0.107482
v 0.263900 -0.193239 -0.100732
v 0.263900 0.250113 -0.100732
v 0.263900 -0.193239 0.107482
v 0.311144 -0.236461 0.107482
v 0.311144 -0.236461 -0.100732
v 0.311144 -0.301295 0.107482
v 0.311144 -0.301295 -0.100732
v 0.263900 0.250113 0.107482
v 0.263900 -0.193239 -0.100732
v 0.263900 0.250113 -0.100732
v 0.263900 -0.193239 0.107482
v -0.100479 0.250113 0.107482
v 0.311144 -0.236461 0.107482
v -0.100479 0.250113 -0.100732
v 0.311144 -0.236461 -0.100732
v -0.100479 -0.193239 0.107482
v -0.100479 -0.193239 -0.100732
v -0.147722 -0.236461 -0.100732
v -0.147722 -0.236461 0.107482
v -0.147722 -0.301295 0.107482
v 0.311144 -0.301295 0.107482
v 0.263900 -0.193239 0.107482
v 0.311144 -0.236461 0.107482
v -0.100479 -0.193239 0.107482
v -0.147722 -0.236461 0.107482
v -0.100479 0.250113 0.107482
v 0.263900 0.250113 0.107482
v -0.100479 0.250113 0.107482
v -0.100479 0.250113 -0.100732
v -0.100479 -0.193239 0.107482
v -0.100479 -0.193239 -0.100732
v -0.147722 -0.236461 -0.100732
v -0.147722 -0.236461 0.107482
v -0.147722 -0.301295 -0.100732
v -0.147722 -0.301295 0.107482
v -0.147722 -0.301295 -0.100732
v 0.311144 -0.301295 -0.100732
v 0.311144 -0.301295 0.107482
v -0.147722 -0.301295 0.107482
v 0.263900 0.250113 -0.100732
v -0.100479 -0.193239 -0.100732
v -0.100479 0.250113 -0.100732
v 0.263900 -0.193239 -0.100732
v 0.311144 -0.301295 -0.100732
v 0.311144 -0.236461 -0.100732
v -0.147722 -0.301295 -0.100732
v -0.147722 -0.236461 -0.100732
v -0.142757 0.249722 0.003372
v -0.142757 0.249722 0.003372
v 0.191335 0.142946 0.004443
v 0.146360 0.225383 0.118085
v 0.180507 0.142945 0.118085
v 0.154017 0.233040 0.004443
v 0.146360 0.225383 -0.109199
v 0.180507 0.142945 -0.109199
v 0.063923 0.270358 0.004443
v -0.018514 0.225383 0.118085
v 0.063923 0.259529 0.118085
v -0.026171 0.233040 0.004443
v -0.018514 0.225383 -0.109199
v 0.063923 0.259529 -0.109199
v 0.015496 0.081456 0.118085
v 0.025030 0.133696 0.118085
v -0.013831 0.133696 0.118085
v 0.042975 0.108935 0.118085
v -0.018514 0.060508 0.118085
v -0.052661 0.142945 0.118085
v 0.063923 0.142945 0.118085
v 0.054670 0.104116 0.118085
v 0.084850 0.108978 0.118085
v 0.054670 0.065255 0.118085
v 0.112329 0.081499 0.118085
v 0.063923 0.026362 0.118085
v 0.146360 0.060508 0.118085
v 0.102753 0.133696 0.118085
v 0.097933 0.163894 0.118085
v 0.141614 0.133696 0.118085
v 0.125412 0.191373 0.118085
v 0.180507 0.142945 0.118085
v 0.146360 0.225383 0.118085
v 0.029892 0.163936 0.118085
v 0.054670 0.181839 0.118085
v 0.002413 0.191415 0.118085
v 0.054670 0.220700 0.118085
v -0.018514 0.225383 0.118085
v 0.063923 0.259529 0.118085
v -0.497474 0.639403 0.092190
v -0.063489 0.142946 0.004443
v -0.018514 0.060508 0.118085
v -0.052661 0.142945 0.118085
v -0.026171 0.052852 0.004443
v -0.018514 0.060508 -0.109199
v -0.052661 0.142945 -0.109199
v 0.063923 0.015533 0.004443
v 0.146360 0.060508 0.118085
v 0.063923 0.026362 0.118085
v 0.154017 0.052852 0.004443
v 0.146360 0.060508 -0.109199
v 0.063923 0.026362 -0.109199
v 0.112350 0.204435 -0.109199
v 0.180507 0.142945 -0.109199
v 0.141678 0.133693 -0.109199
v 0.146360 0.225383 -0.109199
v 0.102816 0.133693 -0.109199
v 0.084871 0.176956 -0.109199
v 0.063923 0.142946 -0.109199
v 0.054673 0.104052 -0.109199
v 0.084914 0.108915 -0.109199
v 0.054673 0.065191 -0.109199
v 0.112393 0.081435 -0.109199
v 0.063923 0.026362 -0.109199
v 0.146360 0.060508 -0.109199
v 0.025094 0.133693 -0.109199
v 0.029913 0.121997 -0.109199
v -0.013768 0.133693 -0.109199
v 0.002434 0.094519 -0.109199
v -0.052661 0.142945 -0.109199
v -0.018514 0.060508 -0.109199
v 0.029956 0.163873 -0.109199
v 0.054673 0.181775 -0.109199
v 0.002477 0.191352 -0.109199
v 0.054673 0.220637 -0.109199
v -0.018514 0.225383 -0.109199
v 0.063923 0.259529 -0.109199
v 0.207385 0.241338 0.003375
v -0.115699 0.269764 -0.065252
v -0.115700 0.241338 0.003375
v -0.115699 0.269764 -0.065252
v 0.238215 0.213841 -0.066075
v 0.176849 0.236340 -0.070036
v 0.062782 0.239440 -0.070149
v -0.064157 0.149740 -0.058481
v -0.076481 0.255077 -0.053895
v 0.265284 0.086393 -0.103642
v 0.238215 0.213841 -0.066075
v -0.100967 0.086439 -0.103639
v 0.137101 0.242376 0.119986
v 0.245509 0.223294 0.081451
v 0.146479 0.246993 0.091643
v 0.265284 0.086393 -0.103642
v 0.238215 0.213841 -0.066075
v 0.176849 0.236340 -0.070036
v 0.164017 0.226914 -0.103707
v 0.062782 0.239440 -0.070149
v 0.059631 0.224714 -0.103644
v -0.100967 0.086439 -0.103639
v 0.137101 0.242376 0.119986
v 0.245509 0.223294 0.081451
v 0.146479 0.246993 0.091643
v 0.245509 0.223294 0.081451
v 0.146479 0.246993 0.091643
v 0.154015 0.052852 0.004443
v 0.191333 0.142946 0.004443
v 0.146358 0.060508 0.118085
v 0.180505 0.142945 0.118085
v 0.146358 0.060508 -0.109199
v 0.180505 0.142945 -0.109199
v 0.154015 0.233040 0.004443
v 0.063921 0.270358 0.004443
v 0.146358 0.225383 0.118085
v 0.063921 0.259529 0.118085
v 0.146358 0.225383 -0.109199
v 0.063921 0.259529 -0.109199
v -0.018516 0.060508 0.118085
v 0.063921 0.026362 0.118085
v 0.015494 0.081456 0.118085
v 0.054668 0.065255 0.118085
v 0.042973 0.108935 0.118085
v 0.054668 0.104116 0.118085
v 0.063921 0.142945 0.118085
v 0.084848 0.108978 0.118085
v 0.102751 0.133696 0.118085
v 0.112327 0.081499 0.118085
v 0.141612 0.133696 0.118085
v 0.146358 0.060508 0.118085
v 0.180505 0.142945 0.118085
v 0.097931 0.163894 0.118085
v 0.054668 0.181839 0.118085
v 0.125410 0.191373 0.118085
v 0.054668 0.220700 0.118085
v 0.063921 0.259529 0.118085
v 0.146358 0.225383 0.118085
v 0.025028 0.133696 0.118085
v 0.029890 0.163936 0.118085
v -0.013833 0.133696 0.118085
v 0.002411 0.191415 0.118085
v -0.052663 0.142945 0.118085
v -0.018516 0.225383 0.118085
v -0.026173 0.233040 0.004443
v -0.063491 0.142946 0.004443
v -0.018516 0.225383 0.118085
v -0.052663 0.142945 0.118085
v -0.018516 0.225383 -0.109199
v -0.052663 0.142945 -0.109199
v -0.026173 0.052852 0.004443
v 0.063921 0.015533 0.004443
v -0.018516 0.060508 0.118085
v 0.063921 0.026362 0.118085
v -0.018516 0.060508 -0.109199
v 0.063921 0.026362 -0.109199
v 0.112391 0.081435 -0.109199
v 0.102814 0.133693 -0.109199
v 0.141676 0.133693 -0.109199
v 0.084912 0.108915 -0.109199
v 0.146358 0.060508 -0.109199
v 0.180505 0.142945 -0.109199
v 0.063921 0.142946 -0.109199
v 0.029911 0.121997 -0.109199
v 0.054671 0.104052 -0.109199
v 0.002432 0.094519 -0.109199
v 0.054671 0.065191 -0.109199
v -0.018516 0.060508 -0.109199
v 0.063921 0.026362 -0.109199
v 0.025092 0.133693 -0.109199
v 0.029954 0.163873 -0.109199
v -0.013770 0.133693 -0.109199
v 0.002475 0.191352 -0.109199
v -0.052663 0.142945 -0.109199
v -0.018516 0.225383 -0.109199
v 0.054671 0.181775 -0.109199
v 0.084869 0.176956 -0.109199
v 0.054671 0.220637 -0.109199
v 0.112348 0.204435 -0.109199
v 0.063921 0.259529 -0.109199
v 0.146358 0.225383 -0.109199
vn 1.0000 -0.0000 -0.0000
vn -0.0000 -0.0000 1.0000
vn -1.0000 -0.0000 -0.0000
vn -0.0000 -0.0000 -1.0000
vn 0.7065 0.7077 -0.0000
vn 0.9158 0.4017 -0.0000
vn 0.7077 0.7065 -0.0000
vn -0.7077 0.7065 -0.0000
vn 0.9151 0.4032 -0.0000
vn 0.9151 0.4032 0.0003
vn -0.9151 0.4032 -0.0000
vn -0.9151 0.4032 -0.0001
vn -0.7065 0.7077 -0.0000
vn -0.9158 0.4017 -0.0000
vn -0.0000 -1.0000 -0.0000
vn 0.9224 0.3862 -0.0000
vn 0.9217 0.3782 0.0867
vn 0.9217 0.3781 0.0866
vn 0.9224 0.3863 -0.0000
vn 0.9217 0.3782 -0.0867
vn -0.3863 0.9224 -0.0000
vn -0.3785 0.9215 0.0868
vn -0.3781 0.9217 0.0867
vn -0.3781 0.9217 -0.0866
vn -0.3781 0.9217 -0.0867
vn -0.9224 -0.3863 -0.0000
vn -0.9217 -0.3782 0.0867
vn -0.9217 -0.3782 -0.0867
vn 0.3863 -0.9224 -0.0000
vn 0.3784 -0.9215 0.0868
vn 0.3781 -0.9217 0.0867
vn 0.3782 -0.9217 -0.0867
vn 0.3781 -0.9217 -0.0867
vn -0.1730 -0.9846 -0.0234
vn -0.1809 -0.6207 0.7628
vn 0.1339 -0.6306 0.7645
vn 0.2444 -0.9697 0.0001
vn 0.9224 -0.3863 -0.0000
vn 0.9217 -0.3782 0.0867
vn 0.9217 -0.3781 0.0866
vn 0.9217 -0.3782 -0.0867
vn 0.3863 0.9224 -0.0000
vn 0.3782 0.9217 0.0867
vn 0.3783 0.9216 0.0867
vn 0.3782 0.9217 -0.0867
vn -0.9224 0.3863 -0.0000
vn -0.9223 0.3864 -0.0000
vn -0.9217 0.3782 0.0867
vn -0.9216 0.3783 -0.0867
vn -0.9217 0.3782 -0.0867
vn -0.3863 -0.9224 -0.0000
vn -0.3782 -0.9217 0.0867
vn -0.3782 -0.9216 0.0867
vn -0.3782 -0.9217 -0.0867
vn -0.3781 -0.9217 -0.0867
vt 44.107800 -51.093498
vt 43.892200 -51.184200
vt 44.107800 -51.184200
vt 43.892200 -51.093498
vt 44.105400 -50.796700
vt 43.894600 -50.887402
vt 44.105400 -50.887402
vt 43.894600 -50.796700
vt 44.106300 -50.914001
vt 43.893700 -51.005501
vt 44.106300 -51.005501
vt 43.893700 -50.914001
vt 44.105099 -51.012199
vt 43.894199 -51.012199
vt 44.105099 -51.102798
vt 43.894199 -51.102798
vt 43.816399 -51.048000
vt 44.184299 -51.093498
vt 43.816399 -50.957401
vt 44.184299 -51.184200
vt 44.183201 -51.005501
vt 43.815701 -50.947201
vt 43.815701 -51.038601
vt 44.183201 -50.914001
vt 44.183201 -51.012199
vt 43.816399 -51.112598
vt 44.183201 -51.102798
vt 43.816399 -51.203300
vt 44.183201 -50.887402
vt 43.816399 -50.841099
vt 43.816399 -50.931801
vt 44.183201 -50.796700
vt 43.893700 -51.038601
vt 44.106300 -51.038601
vt 43.893700 -50.947201
vt 44.106300 -50.947201
vt 43.894600 -50.931801
vt 44.105400 -50.931801
vt 43.894600 -50.841099
vt 44.105400 -50.841099
vt 43.892200 -51.048000
vt 44.107800 -51.048000
vt 43.892200 -50.957401
vt 44.107800 -50.957401
vt 44.105801 -51.112598
vt 43.894901 -51.112598
vt 43.894901 -51.203300
vt 44.105801 -51.203300
vt 43.815701 -51.093498
vt 44.183601 -51.048000
vt 44.183601 -50.957401
vt 43.815701 -51.184200
vt 44.184299 -50.947201
vt 43.816799 -51.005501
vt 44.184299 -51.038601
vt 43.816799 -50.914001
vt 44.183601 -50.841099
vt 43.816799 -50.887402
vt 44.183601 -50.931801
vt 43.816799 -50.796700
vt 43.816799 -51.102798
vt 44.183601 -51.112598
vt 43.816799 -51.012199
vt 44.183601 -51.203300
vt 33.895901 1.275700
vt 34.104099 0.832352
vt 34.104099 1.275700
vt 33.895901 0.832352
vt 34.104099 0.789130
vt 33.895901 0.789130
vt 33.895901 0.724296
vt 34.104099 0.724296
vt 33.817799 0.895893
vt 34.182201 1.104110
vt 33.817799 1.104110
vt 33.770599 1.104110
vt 34.182201 0.895893
vt 33.770599 0.895893
vt 34.229401 0.895893
vt 34.229401 1.104110
vt 33.770599 0.724296
vt 34.229401 0.724296
vt 34.182201 0.832352
vt 34.229401 0.789130
vt 33.817799 0.832352
vt 33.770599 0.789130
vt 33.817799 1.275700
vt 34.182201 1.275700
vt 33.999901 -55.205299
vt 33.886299 -55.122898
vt 33.886299 -55.205299
vt 33.999901 -55.115200
vt 34.113602 -55.122898
vt 34.113602 -55.205299
vt 33.222500 -54.999901
vt 33.305000 -54.886299
vt 33.222500 -54.886299
vt 33.312599 -54.999901
vt 33.305000 -55.113602
vt 33.222500 -55.113602
vt 34.729099 -55.266800
vt 34.738602 -55.214600
vt 34.699699 -55.214600
vt 34.756500 -55.239300
vt 34.695000 -55.287800
vt 34.660900 -55.205299
vt 34.777500 -55.205299
vt 34.768200 -55.244202
vt 34.798401 -55.239300
vt 34.768200 -55.283001
vt 34.825901 -55.266800
vt 34.777500 -55.321899
vt 34.859901 -55.287800
vt 34.816299 -55.214600
vt 34.811501 -55.184399
vt 34.855202 -55.214600
vt 34.839001 -55.156898
vt 34.894100 -55.205299
vt 34.859901 -55.122898
vt 34.743500 -55.184299
vt 34.768200 -55.166401
vt 34.716000 -55.156898
vt 34.768200 -55.127602
vt 34.695000 -55.122898
vt 34.777500 -55.088699
vt 34.000099 -55.205299
vt 34.113701 -55.287800
vt 34.113701 -55.205299
vt 34.000099 -55.295399
vt 33.886398 -55.287800
vt 33.886398 -55.205299
vt 34.777500 -54.999901
vt 34.859901 -54.886299
vt 34.777500 -54.886299
vt 34.867599 -54.999901
vt 34.859901 -55.113602
vt 34.777500 -55.113602
vt 33.174099 -55.143799
vt 33.105900 -55.205299
vt 33.144798 -55.214600
vt 33.140099 -55.122898
vt 33.183601 -55.214600
vt 33.201599 -55.171299
vt 33.222500 -55.205299
vt 33.231800 -55.244202
vt 33.201500 -55.239399
vt 33.231800 -55.283100
vt 33.174000 -55.266800
vt 33.222500 -55.321899
vt 33.140099 -55.287800
vt 33.261299 -55.214600
vt 33.256500 -55.226299
vt 33.300201 -55.214600
vt 33.284000 -55.253799
vt 33.339100 -55.205299
vt 33.305000 -55.287800
vt 33.256500 -55.184399
vt 33.231800 -55.166500
vt 33.284000 -55.156898
vt 33.231800 -55.127602
vt 33.305000 -55.122898
vt 33.222500 -55.088699
vt 0.129777 -53.128700
vt 0.142608 -53.095001
vt 0.028541 -53.095100
vt 0.025391 -53.128601
vt 51.999901 -9.295420
vt 51.999901 -9.205330
vt 51.886299 -9.287760
vt 51.886299 -9.205330
vt 52.113602 -9.287760
vt 52.113602 -9.205330
vt 51.224998 -8.999920
vt 51.315102 -8.999920
vt 51.232700 -8.886280
vt 51.315102 -8.886280
vt 51.232700 -9.113570
vt 51.315102 -9.113570
vt 52.602501 -9.287760
vt 52.684898 -9.321910
vt 52.636501 -9.266820
vt 52.675701 -9.283020
vt 52.664001 -9.239340
vt 52.675701 -9.244160
vt 52.684898 -9.205330
vt 52.705799 -9.239290
vt 52.723701 -9.214580
vt 52.733299 -9.266770
vt 52.762600 -9.214580
vt 52.767300 -9.287760
vt 52.801498 -9.205330
vt 52.718899 -9.184380
vt 52.675701 -9.166430
vt 52.746399 -9.156900
vt 52.675701 -9.127570
vt 52.684898 -9.088740
vt 52.767300 -9.122890
vt 52.646000 -9.214580
vt 52.650902 -9.184340
vt 52.607201 -9.214580
vt 52.623402 -9.156860
vt 52.568298 -9.205330
vt 52.602501 -9.122890
vt 52.000099 -9.115230
vt 52.000099 -9.205330
vt 52.113701 -9.122890
vt 52.113701 -9.205330
vt 51.886398 -9.122890
vt 51.886398 -9.205330
vt 52.594799 -8.999920
vt 52.684898 -8.999920
vt 52.602501 -8.886280
vt 52.684898 -8.886280
vt 52.602501 -9.113570
vt 52.684898 -9.113570
vt 51.266602 -9.266840
vt 51.276199 -9.214580
vt 51.237301 -9.214580
vt 51.294102 -9.239360
vt 51.232700 -9.287760
vt 51.198502 -9.205330
vt 51.315102 -9.205330
vt 51.349098 -9.226280
vt 51.324299 -9.244220
vt 51.376598 -9.253750
vt 51.324299 -9.283080
vt 51.397499 -9.287760
vt 51.315102 -9.321910
vt 51.353901 -9.214580
vt 51.349098 -9.184400
vt 51.392799 -9.214580
vt 51.376499 -9.156920
vt 51.431702 -9.205330
vt 51.397499 -9.122890
vt 51.324299 -9.166500
vt 51.294102 -9.171320
vt 51.324299 -9.127640
vt 51.266701 -9.143840
vt 51.315102 -9.088740
vt 51.232700 -9.122890
s 1
usemtl Meshpart1Mtl.001
f 1/1/1 2/2/1 3/3/1
f 2/2/1 1/1/1 4/4/1
f 5/5/1 6/6/1 7/7/1
f 6/6/1 5/5/1 8/8/1
f 9/9/1 10/10/1 11/11/1
f 10/10/1 9/9/1 12/12/1
f 13/13/1 14/14/1 15/15/1
f 15/15/1 14/14/1 16/16/1
f 17/17/2 18/18/2 19/19/2
f 18/18/2 17/17/2 20/20/2
f 21/21/2 22/22/2 23/23/2
f 22/22/2 21/21/2 24/24/2
f 25/25/2 26/26/2 27/27/2
f 28/28/2 27/27/2 26/26/2
f 29/29/2 30/30/2 31/31/2
f 30/30/2 29/29/2 32/32/2
f 33/33/3 34/34/3 35/35/3
f 35/35/3 34/34/3 36/36/3
f 37/37/3 38/38/3 39/39/3
f 39/39/3 38/38/3 40/40/3
f 41/41/3 42/42/3 43/43/3
f 43/43/3 42/42/3 44/44/3
f 45/45/3 46/46/3 47/47/3
f 47/47/3 48/48/3 45/45/3
f 49/49/4 50/50/4 51/51/4
f 52/52/4 50/50/4 49/49/4
f 53/53/4 54/54/4 55/55/4
f 54/54/4 53/53/4 56/56/4
f 57/57/4 58/58/4 59/59/4
f 58/58/4 57/57/4 60/60/4
f 61/61/4 62/62/4 63/63/4
f 62/62/4 61/61/4 64/64/4
usemtl Meshpart2Mtl.001
f 65/65/5 66/66/6 67/67/5
f 66/66/6 65/65/5 68/68/6
f 70/69/6 69/70/6 71/71/1
f 71/71/1 72/72/1 70/69/6
f 75/73/7 77/74/8 73/75/7
f 74/73/9 76/75/9 78/76/9
f 75/73/7 79/77/8 77/74/8
f 78/76/9 80/78/10 74/73/9
f 83/79/11 81/74/11 82/77/11
f 81/74/11 83/79/11 84/80/12
f 85/81/2 86/82/2 87/83/2
f 88/84/2 87/83/2 86/82/2
f 85/81/2 87/83/2 89/85/2
f 89/85/2 90/86/2 85/81/2
f 87/83/2 91/87/2 89/85/2
f 91/87/2 87/83/2 92/88/2
f 94/65/13 95/66/14 93/67/13
f 94/65/13 96/68/14 95/66/14
f 99/71/3 98/69/14 97/70/14
f 98/69/14 99/71/3 100/72/3
f 101/78/15 102/79/15 103/80/15
f 101/78/15 103/80/15 104/76/15
f 105/87/4 106/83/4 107/88/4
f 106/83/4 105/87/4 108/85/4
f 109/81/4 106/83/4 108/85/4
f 108/85/4 110/86/4 109/81/4
f 106/83/4 109/81/4 111/82/4
f 112/84/4 106/83/4 111/82/4
usemtl Meshpart3Mtl.001
f 115/89/16 116/90/17 117/91/18
f 116/90/17 115/89/16 118/92/19
f 119/93/20 118/92/19 115/89/16
f 120/94/20 119/93/20 115/89/16
f 121/95/21 122/96/22 123/97/23
f 122/96/22 121/95/21 124/98/21
f 125/99/24 124/98/21 121/95/21
f 126/100/25 125/99/24 121/95/21
f 127/101/2 128/102/2 129/103/2
f 128/102/2 127/101/2 130/104/2
f 127/101/2 129/103/2 131/105/2
f 131/105/2 129/103/2 132/106/2
f 130/104/2 133/107/2 128/102/2
f 134/108/2 135/109/2 133/107/2
f 135/109/2 134/108/2 136/110/2
f 135/109/2 136/110/2 137/111/2
f 138/112/2 137/111/2 136/110/2
f 137/111/2 138/112/2 139/113/2
f 140/114/2 141/115/2 133/107/2
f 141/115/2 140/114/2 142/116/2
f 143/117/2 141/115/2 142/116/2
f 144/118/2 143/117/2 142/116/2
f 143/117/2 144/118/2 145/119/2
f 146/120/2 133/107/2 147/121/2
f 147/121/2 148/122/2 146/120/2
f 148/122/2 147/121/2 149/123/2
f 149/123/2 150/124/2 148/122/2
f 149/123/2 151/125/2 150/124/2
f 153/126/26 154/127/27 155/128/27
f 154/127/27 153/126/26 156/129/26
f 157/130/28 156/129/26 153/126/26
f 158/131/28 157/130/28 153/126/26
f 159/132/29 160/133/30 161/134/31
f 160/133/30 159/132/29 162/135/29
f 163/136/32 162/135/29 159/132/29
f 164/137/33 163/136/32 159/132/29
f 165/138/4 166/139/4 167/140/4
f 166/139/4 165/138/4 168/141/4
f 165/138/4 167/140/4 169/142/4
f 169/142/4 170/143/4 165/138/4
f 170/143/4 169/142/4 171/144/4
f 172/145/4 171/144/4 173/146/4
f 173/146/4 174/147/4 172/145/4
f 174/147/4 173/146/4 175/148/4
f 174/147/4 175/148/4 176/149/4
f 176/149/4 175/148/4 177/150/4
f 178/151/4 171/144/4 179/152/4
f 179/152/4 180/153/4 178/151/4
f 180/153/4 179/152/4 181/154/4
f 181/154/4 182/155/4 180/153/4
f 183/156/4 182/155/4 181/154/4
f 184/157/4 185/158/4 171/144/4
f 185/158/4 184/157/4 186/159/4
f 186/159/4 187/160/4 185/158/4
f 188/161/4 187/160/4 186/159/4
f 187/160/4 188/161/4 189/162/4
usemtl Meshpart7Mtl.001
f 208/163/34 207/164/35 209/165/36
f 210/166/37 208/163/34 209/165/36
usemtl Meshpart9Mtl.001
f 217/167/38 218/168/38 219/169/39
f 218/168/38 220/170/40 219/169/39
f 221/171/41 218/168/38 217/167/38
f 218/168/38 221/171/41 222/172/41
f 223/173/42 224/174/42 225/175/43
f 224/174/42 226/176/44 225/175/43
f 227/177/45 224/174/42 223/173/42
f 224/174/42 227/177/45 228/178/45
f 229/179/2 230/180/2 231/181/2
f 231/181/2 230/180/2 232/182/2
f 232/182/2 233/183/2 231/181/2
f 233/183/2 232/182/2 234/184/2
f 234/184/2 235/185/2 233/183/2
f 236/186/2 237/187/2 235/185/2
f 237/187/2 236/186/2 238/188/2
f 238/188/2 239/189/2 237/187/2
f 240/190/2 239/189/2 238/188/2
f 239/189/2 240/190/2 241/191/2
f 242/192/2 243/193/2 235/185/2
f 243/193/2 242/192/2 244/194/2
f 243/193/2 244/194/2 245/195/2
f 245/195/2 244/194/2 246/196/2
f 246/196/2 244/194/2 247/197/2
f 248/198/2 235/185/2 249/199/2
f 249/199/2 250/200/2 248/198/2
f 250/200/2 249/199/2 251/201/2
f 251/201/2 252/202/2 250/200/2
f 253/203/2 252/202/2 251/201/2
f 254/204/46 255/205/47 256/206/48
f 255/205/47 257/207/48 256/206/48
f 258/208/49 255/205/47 254/204/46
f 255/205/47 258/208/49 259/209/50
f 260/210/51 261/211/51 262/212/52
f 261/211/51 263/213/53 262/212/52
f 264/214/54 261/211/51 260/210/51
f 261/211/51 264/214/54 265/215/55
f 266/216/4 267/217/4 268/218/4
f 267/217/4 266/216/4 269/219/4
f 268/218/4 270/220/4 266/216/4
f 271/221/4 270/220/4 268/218/4
f 269/219/4 272/222/4 267/217/4
f 273/223/4 272/222/4 274/224/4
f 274/224/4 275/225/4 273/223/4
f 275/225/4 274/224/4 276/226/4
f 276/226/4 277/227/4 275/225/4
f 276/226/4 278/228/4 277/227/4
f 279/229/4 280/230/4 272/222/4
f 280/230/4 279/229/4 281/231/4
f 281/231/4 282/232/4 280/230/4
f 283/233/4 282/232/4 281/231/4
f 282/232/4 283/233/4 284/234/4
f 285/235/4 286/236/4 272/222/4
f 286/236/4 285/235/4 287/237/4
f 286/236/4 287/237/4 288/238/4
f 289/239/4 288/238/4 287/237/4
f 288/238/4 289/239/4 290/240/4
l 194 195
l 197 198
l 206 207
l 195 196
l 212 214
l 196 198
l 215 216
l 202 204
l 191 192
l 213 214
