# Blender 5.1.2
# www.blender.org
mtllib handsaw fists attempt 2.mtl
o Handsaws
v 1.139338 -0.055279 -0.025535
v 1.134194 -0.110295 0.173264
v 1.139841 -0.117729 -0.032859
v 1.179042 -0.031196 -0.228141
v 1.300458 -0.080569 -0.068786
v 1.179545 -0.093646 -0.235465
v 0.960221 -0.072991 0.113195
v 0.833892 -0.123843 0.268208
v 0.960722 -0.135441 0.105871
v 0.922321 -0.055905 -0.574851
v 0.928524 -0.008382 -0.709706
v 0.921820 0.006545 -0.567527
v 1.131746 -0.066892 -0.466837
v 1.206822 -0.021376 -0.579864
v 1.131243 -0.004442 -0.459512
v 0.674901 -0.056120 -0.589969
v 0.656788 -0.008904 -0.723856
v 0.674399 0.006330 -0.582645
v 0.415389 -0.059070 -0.582579
v 0.397277 -0.011856 -0.716465
v 0.414888 0.003380 -0.575255
v 0.155877 -0.062022 -0.575189
v 0.137764 -0.014806 -0.709074
v 0.155376 0.000428 -0.567864
v -0.103635 -0.064973 -0.567798
v -0.121748 -0.017758 -0.701684
v -0.104137 -0.002523 -0.560473
v -0.363147 -0.067923 -0.560408
v -0.381260 -0.020709 -0.694294
v -0.363649 -0.005474 -0.553082
v -0.622659 -0.070875 -0.553018
v -0.640772 -0.023661 -0.686903
v -0.623161 -0.008425 -0.545692
v -0.882171 -0.073826 -0.545627
v -0.900283 -0.026611 -0.679513
v -0.882673 -0.011377 -0.538302
v -1.354988 -0.080698 -0.519415
v -1.422040 -0.035720 -0.637583
v -1.355489 -0.018248 -0.512090
v -1.141683 -0.076777 -0.538236
v -1.159795 -0.029563 -0.672123
v -1.142184 -0.014327 -0.530911
v -1.305131 -0.016181 -0.526271
v -1.159795 -0.029563 -0.672123
v -1.304630 -0.078631 -0.533596
v -1.045620 -0.013229 -0.533661
v -0.900283 -0.026611 -0.679513
v -1.045118 -0.075679 -0.540987
v 1.139620 -0.008896 -0.420965
v 1.309860 -0.051896 -0.312604
v 1.140110 -0.071346 -0.428290
v -0.786108 -0.010278 -0.541051
v -0.640772 -0.023661 -0.686903
v -0.785606 -0.072728 -0.548377
v -0.526596 -0.007327 -0.548443
v -0.381260 -0.020709 -0.694294
v -0.526095 -0.069777 -0.555767
v -0.267084 -0.004376 -0.555833
v -0.121748 -0.017758 -0.701684
v -0.266582 -0.066826 -0.563157
v 1.003320 0.006315 -0.559991
v 1.206822 -0.021376 -0.579864
v 1.003821 -0.056135 -0.567316
v -0.007571 -0.001424 -0.563223
v 0.137764 -0.014806 -0.709074
v -0.007070 -0.063874 -0.570548
v 0.251940 0.001526 -0.570614
v 0.397277 -0.011856 -0.716465
v 0.252442 -0.060924 -0.577939
v 0.511452 0.004477 -0.578004
v 0.656788 -0.008904 -0.723856
v 0.511954 -0.057973 -0.585330
v 0.760510 0.008009 -0.591061
v 0.928524 -0.008382 -0.709706
v 0.761011 -0.054441 -0.598387
v 1.160602 -0.050212 -0.067283
v 1.300458 -0.080569 -0.068786
v 1.179042 -0.031196 -0.228141
v 1.177738 -0.027060 -0.263507
v 1.309860 -0.051896 -0.312604
v 1.139620 -0.008896 -0.420965
v 1.025148 -0.069738 0.089915
v 1.134194 -0.110295 0.173264
v 1.139338 -0.055279 -0.025535
v 1.131243 -0.004442 -0.459512
v 1.206822 -0.021376 -0.579864
v 1.003320 0.006315 -0.559991
v -1.355489 -0.018248 -0.512090
v -1.422040 -0.035720 -0.637583
v -1.505621 -0.026837 -0.449146
v -1.468676 -0.097033 0.151854
v -1.487000 -0.144525 0.285609
v -1.310028 -0.100145 0.189259
v 0.921820 0.006545 -0.567527
v 0.928524 -0.008382 -0.709706
v 0.760510 0.008009 -0.591061
v 0.799070 -0.077133 0.137486
v 0.833892 -0.123843 0.268208
v 0.960221 -0.072991 0.113195
v -0.245582 -0.088801 0.165428
v -0.227470 -0.136017 0.299315
v -0.082635 -0.086949 0.160788
v 0.013930 -0.085850 0.158038
v 0.032042 -0.133065 0.291923
v 0.176877 -0.083997 0.153398
v 0.273441 -0.082899 0.150647
v 0.291554 -0.130114 0.284533
v 0.436388 -0.081046 0.146007
v -0.505093 -0.091753 0.172818
v -0.486981 -0.138967 0.306705
v -0.342146 -0.089899 0.168179
v -0.764608 -0.094703 0.180210
v -0.746493 -0.141918 0.314095
v -0.601658 -0.092850 0.175569
v -1.024119 -0.097655 0.187600
v -1.006005 -0.144870 0.321486
v -0.861171 -0.095802 0.182959
v -1.283630 -0.100606 0.194991
v -1.265517 -0.147820 0.328876
v -1.120683 -0.098753 0.190350
v 0.532952 -0.079948 0.143257
v 0.551066 -0.127162 0.277143
v 0.695899 -0.078095 0.138616
v -0.363649 -0.005474 -0.553082
v -0.381260 -0.020709 -0.694294
v -0.526596 -0.007327 -0.548443
v -0.623161 -0.008425 -0.545692
v -0.640772 -0.023661 -0.686903
v -0.786108 -0.010278 -0.541051
v -0.882673 -0.011377 -0.538302
v -0.900283 -0.026611 -0.679513
v -1.045620 -0.013229 -0.533661
v -0.104137 -0.002523 -0.560473
v -0.121748 -0.017758 -0.701684
v -0.267084 -0.004376 -0.555833
v 0.155376 0.000428 -0.567864
v 0.137764 -0.014806 -0.709074
v -0.007571 -0.001424 -0.563223
v 0.414888 0.003380 -0.575255
v 0.397277 -0.011856 -0.716465
v 0.251940 0.001526 -0.570614
v 0.674399 0.006330 -0.582645
v 0.656788 -0.008904 -0.723856
v 0.511452 0.004477 -0.578004
v -1.142184 -0.014327 -0.530911
v -1.159795 -0.029563 -0.672123
v -1.305131 -0.016181 -0.526271
v -1.505621 -0.026837 -0.449146
v -1.422040 -0.035720 -0.637583
v -1.505118 -0.089287 -0.456471
v -1.468173 -0.159483 0.144528
v -1.487000 -0.144525 0.285609
v -1.468676 -0.097033 0.151854
v -1.283128 -0.163056 0.187665
v -1.265517 -0.147820 0.328876
v -1.283630 -0.100606 0.194991
v -1.023618 -0.160104 0.180275
v -1.006005 -0.144870 0.321486
v -1.024119 -0.097655 0.187600
v -0.764106 -0.157153 0.172885
v -0.746493 -0.141918 0.314095
v -0.764608 -0.094703 0.180210
v -0.504592 -0.154203 0.165494
v -0.486981 -0.138967 0.306705
v -0.505093 -0.091753 0.172818
v -0.245081 -0.151251 0.158104
v -0.227470 -0.136017 0.299315
v -0.245582 -0.088801 0.165428
v 0.014432 -0.148300 0.150714
v 0.032042 -0.133065 0.291923
v 0.013930 -0.085850 0.158038
v 0.273942 -0.145349 0.143323
v 0.291554 -0.130114 0.284533
v 0.273441 -0.082899 0.150647
v 0.533454 -0.142398 0.135932
v 0.551066 -0.127162 0.277143
v 0.532952 -0.079948 0.143257
v 0.799571 -0.139583 0.130160
v 0.833892 -0.123843 0.268208
v 0.799070 -0.077133 0.137486
v 0.695899 -0.078095 0.138616
v 0.551066 -0.127162 0.277143
v 0.696401 -0.140545 0.131292
v 0.436388 -0.081046 0.146007
v 0.291554 -0.130114 0.284533
v 0.436889 -0.143495 0.138682
v 0.176877 -0.083997 0.153398
v 0.032042 -0.133065 0.291923
v 0.177379 -0.146447 0.146073
v 1.178241 -0.089510 -0.270831
v 1.309860 -0.051896 -0.312604
v 1.177738 -0.027060 -0.263507
v -0.082635 -0.086949 0.160788
v -0.227470 -0.136017 0.299315
v -0.082133 -0.149398 0.153463
v 1.161105 -0.112662 -0.074607
v 1.300458 -0.080569 -0.068786
v 1.160602 -0.050212 -0.067283
v -0.342146 -0.089899 0.168179
v -0.486981 -0.138967 0.306705
v -0.341645 -0.152349 0.160853
v -0.601658 -0.092850 0.175569
v -0.746493 -0.141918 0.314095
v -0.601158 -0.155300 0.168244
v -1.310028 -0.100145 0.189259
v -1.487000 -0.144525 0.285609
v -1.309527 -0.162595 0.181935
v -0.861171 -0.095802 0.182959
v -1.006005 -0.144870 0.321486
v -0.860669 -0.158252 0.175635
v 1.025650 -0.132188 0.082590
v 1.134194 -0.110295 0.173264
v 1.025148 -0.069738 0.089915
v -1.120683 -0.098753 0.190350
v -1.265517 -0.147820 0.328876
v -1.120181 -0.161203 0.183025
v 1.179545 -0.093646 -0.235465
v 1.300458 -0.080569 -0.068786
v 1.161105 -0.112662 -0.074607
v 1.140110 -0.071346 -0.428290
v 1.309860 -0.051896 -0.312604
v 1.178241 -0.089510 -0.270831
v 1.139841 -0.117729 -0.032859
v 1.134194 -0.110295 0.173264
v 1.025650 -0.132188 0.082590
v 1.003821 -0.056135 -0.567316
v 1.206822 -0.021376 -0.579864
v 1.131746 -0.066892 -0.466837
v -1.505118 -0.089287 -0.456471
v -1.422040 -0.035720 -0.637583
v -1.354988 -0.080698 -0.519415
v -1.309527 -0.162595 0.181935
v -1.487000 -0.144525 0.285609
v -1.468173 -0.159483 0.144528
v 0.761011 -0.054441 -0.598387
v 0.928524 -0.008382 -0.709706
v 0.922321 -0.055905 -0.574851
v 0.960722 -0.135441 0.105871
v 0.833892 -0.123843 0.268208
v 0.799571 -0.139583 0.130160
v -0.082133 -0.149398 0.153463
v -0.227470 -0.136017 0.299315
v -0.245081 -0.151251 0.158104
v 0.177379 -0.146447 0.146073
v 0.032042 -0.133065 0.291923
v 0.014432 -0.148300 0.150714
v 0.436889 -0.143495 0.138682
v 0.291554 -0.130114 0.284533
v 0.273942 -0.145349 0.143323
v -0.341645 -0.152349 0.160853
v -0.486981 -0.138967 0.306705
v -0.504592 -0.154203 0.165494
v -0.601158 -0.155300 0.168244
v -0.746493 -0.141918 0.314095
v -0.764106 -0.157153 0.172885
v -0.860669 -0.158252 0.175635
v -1.006005 -0.144870 0.321486
v -1.023618 -0.160104 0.180275
v -1.120181 -0.161203 0.183025
v -1.265517 -0.147820 0.328876
v -1.283128 -0.163056 0.187665
v 0.696401 -0.140545 0.131292
v 0.551066 -0.127162 0.277143
v 0.533454 -0.142398 0.135932
v -0.526095 -0.069777 -0.555767
v -0.381260 -0.020709 -0.694294
v -0.363147 -0.067923 -0.560408
v -0.785606 -0.072728 -0.548377
v -0.640772 -0.023661 -0.686903
v -0.622659 -0.070875 -0.553018
v -1.045118 -0.075679 -0.540987
v -0.900283 -0.026611 -0.679513
v -0.882171 -0.073826 -0.545627
v -0.266582 -0.066826 -0.563157
v -0.121748 -0.017758 -0.701684
v -0.103635 -0.064973 -0.567798
v -0.007070 -0.063874 -0.570548
v 0.137764 -0.014806 -0.709074
v 0.155877 -0.062022 -0.575189
v 0.252442 -0.060924 -0.577939
v 0.397277 -0.011856 -0.716465
v 0.415389 -0.059070 -0.582579
v 0.511954 -0.057973 -0.585330
v 0.656788 -0.008904 -0.723856
v 0.674901 -0.056120 -0.589969
v -1.304630 -0.078631 -0.533596
v -1.159795 -0.029563 -0.672123
v -1.141683 -0.076777 -0.538236
v 1.178578 -0.043697 -0.121614
v 1.248231 -0.096710 0.065234
v 1.179081 -0.106146 -0.128939
v 1.071269 -0.066130 0.062294
v 0.988186 -0.119696 0.243407
v 1.071771 -0.128580 0.054970
v 1.046736 -0.058248 -0.546367
v 1.065068 -0.010756 -0.680125
v 1.046234 0.004201 -0.539042
v 1.175444 -0.019874 -0.324931
v 1.312793 -0.067598 -0.178537
v 1.175947 -0.082324 -0.332256
v 0.804710 -0.054645 -0.593667
v 0.786596 -0.007429 -0.727552
v 0.804209 0.007805 -0.586342
v 0.545198 -0.057596 -0.586276
v 0.527086 -0.010381 -0.720162
v 0.544696 0.004854 -0.578952
v 0.285686 -0.060547 -0.578886
v 0.267573 -0.013332 -0.712772
v 0.285185 0.001903 -0.571561
v 0.026175 -0.063498 -0.571496
v 0.008061 -0.016283 -0.705381
v 0.025673 -0.001048 -0.564170
v -0.233337 -0.066450 -0.564106
v -0.251451 -0.019234 -0.697991
v -0.233839 -0.004000 -0.556780
v -0.492849 -0.069400 -0.556715
v -0.510963 -0.022186 -0.690601
v -0.493351 -0.006950 -0.549390
v -0.752361 -0.072351 -0.549324
v -0.770473 -0.025137 -0.683211
v -0.752862 -0.009901 -0.541999
v -1.011872 -0.075303 -0.541933
v -1.029985 -0.028087 -0.675820
v -1.012374 -0.012853 -0.534609
v -1.250040 -0.078297 -0.532711
v -1.284862 -0.031587 -0.663433
v -1.250542 -0.015847 -0.525387
v -1.175321 -0.014706 -0.529968
v -1.029985 -0.028087 -0.675820
v -1.174820 -0.077155 -0.537294
v -0.915809 -0.011754 -0.537358
v -0.770473 -0.025137 -0.683211
v -0.915308 -0.074204 -0.544684
v 1.077055 0.001293 -0.512137
v 1.271708 -0.035568 -0.454432
v 1.077558 -0.061156 -0.519462
v -0.656298 -0.008804 -0.544749
v -0.510963 -0.022186 -0.690601
v -0.655796 -0.071254 -0.552074
v -0.396786 -0.005852 -0.552139
v -0.251451 -0.019234 -0.697991
v -0.396284 -0.068302 -0.559465
v -0.137274 -0.002901 -0.559531
v 0.008061 -0.016283 -0.705381
v -0.136772 -0.065351 -0.566855
v 0.122238 0.000049 -0.566921
v 0.267573 -0.013332 -0.712772
v 0.122739 -0.062400 -0.574245
v 0.381749 0.003001 -0.574311
v 0.527086 -0.010381 -0.720162
v 0.382251 -0.059449 -0.581636
v 0.887591 0.007314 -0.576449
v 1.065068 -0.010756 -0.680125
v 0.888092 -0.055136 -0.583775
v 0.641261 0.005952 -0.581702
v 0.786596 -0.007429 -0.727552
v 0.641763 -0.056497 -0.589027
v -1.458998 -0.085678 -0.484091
v -1.568046 -0.045121 -0.567439
v -1.459501 -0.023228 -0.476766
v 1.173455 -0.038880 -0.163031
v 1.312793 -0.067598 -0.178537
v 1.175444 -0.019874 -0.324931
v 1.114741 -0.061677 0.027313
v 1.248231 -0.096710 0.065234
v 1.178578 -0.043697 -0.121614
v 1.157250 -0.014606 -0.371095
v 1.271708 -0.035568 -0.454432
v 1.077055 0.001293 -0.512137
v -1.459501 -0.023228 -0.476766
v -1.568046 -0.045121 -0.567439
v -1.573692 -0.037687 -0.361316
v -1.553678 -0.088388 0.072322
v -1.628754 -0.133905 0.185348
v -1.425761 -0.099146 0.172801
v 0.921134 -0.074718 0.125239
v 0.988186 -0.119696 0.243407
v 1.071269 -0.066130 0.062294
v 1.046234 0.004201 -0.539042
v 1.065068 -0.010756 -0.680125
v 0.887591 0.007314 -0.576449
v -1.373292 -0.099525 0.179626
v -1.379496 -0.147049 0.314480
v -1.211983 -0.100990 0.203160
v -1.250542 -0.015847 -0.525387
v -1.284862 -0.031587 -0.663433
v -1.411693 -0.019991 -0.501096
v -0.233839 -0.004000 -0.556780
v -0.251451 -0.019234 -0.697991
v -0.396786 -0.005852 -0.552139
v -0.493351 -0.006950 -0.549390
v -0.510963 -0.022186 -0.690601
v -0.656298 -0.008804 -0.544749
v -0.752862 -0.009901 -0.541999
v -0.770473 -0.025137 -0.683211
v -0.915809 -0.011754 -0.537358
v 0.025673 -0.001048 -0.564170
v 0.008061 -0.016283 -0.705381
v -0.137274 -0.002901 -0.559531
v 0.285185 0.001903 -0.571561
v 0.267573 -0.013332 -0.712772
v 0.122238 0.000049 -0.566921
v 0.544696 0.004854 -0.578952
v 0.527086 -0.010381 -0.720162
v 0.381749 0.003001 -0.574311
v 0.804209 0.007805 -0.586342
v 0.786596 -0.007429 -0.727552
v 0.641261 0.005952 -0.581702
v -1.012374 -0.012853 -0.534609
v -1.029985 -0.028087 -0.675820
v -1.175321 -0.014706 -0.529968
v -0.115774 -0.087326 0.161731
v -0.097660 -0.134541 0.295617
v 0.047173 -0.085473 0.157091
v 0.143738 -0.084376 0.154340
v 0.161853 -0.131590 0.288227
v 0.306685 -0.082522 0.149701
v 0.403249 -0.081424 0.146950
v 0.421364 -0.128638 0.280836
v 0.566197 -0.079572 0.142309
v -0.375286 -0.090278 0.169122
v -0.357172 -0.137493 0.303008
v -0.212338 -0.088425 0.164481
v -0.634797 -0.093229 0.176512
v -0.616684 -0.140443 0.310398
v -0.471850 -0.091375 0.171872
v -0.894309 -0.096179 0.183903
v -0.876196 -0.143395 0.317788
v -0.731362 -0.094327 0.179262
v -1.153821 -0.099131 0.191293
v -1.135707 -0.146346 0.325179
v -0.990874 -0.097278 0.186652
v 0.662763 -0.078473 0.139560
v 0.680876 -0.125688 0.273445
v 0.825710 -0.076620 0.134919
v -1.573692 -0.037687 -0.361316
v -1.568046 -0.045121 -0.567439
v -1.573189 -0.100137 -0.368641
v -1.372790 -0.161975 0.172301
v -1.379496 -0.147049 0.314480
v -1.373292 -0.099525 0.179626
v -1.411693 -0.019991 -0.501096
v -1.284862 -0.031587 -0.663433
v -1.411191 -0.082441 -0.508422
v -1.153319 -0.161581 0.183969
v -1.135707 -0.146346 0.325179
v -1.153821 -0.099131 0.191293
v -1.553188 -0.150839 0.064997
v -1.628754 -0.133905 0.185348
v -1.553678 -0.088388 0.072322
v -0.893808 -0.158629 0.176577
v -0.876196 -0.143395 0.317788
v -0.894309 -0.096179 0.183903
v -0.634296 -0.155679 0.169187
v -0.616684 -0.140443 0.310398
v -0.634797 -0.093229 0.176512
v -0.374784 -0.152727 0.161797
v -0.357172 -0.137493 0.303008
v -0.375286 -0.090278 0.169122
v -0.115272 -0.149776 0.154406
v -0.097660 -0.134541 0.295617
v -0.115774 -0.087326 0.161731
v 0.144239 -0.146826 0.147016
v 0.161853 -0.131590 0.288227
v 0.143738 -0.084376 0.154340
v 0.403751 -0.143874 0.139626
v 0.421364 -0.128638 0.280836
v 0.403249 -0.081424 0.146950
v 0.663263 -0.140923 0.132236
v 0.680876 -0.125688 0.273445
v 0.662763 -0.078473 0.139560
v 0.921635 -0.137168 0.117914
v 0.988186 -0.119696 0.243407
v 0.921134 -0.074718 0.125239
v 0.825710 -0.076620 0.134919
v 0.680876 -0.125688 0.273445
v 0.826211 -0.139070 0.127595
v 0.566197 -0.079572 0.142309
v 0.421364 -0.128638 0.280836
v 0.566698 -0.142022 0.134985
v 1.157753 -0.077056 -0.378420
v 1.271708 -0.035568 -0.454432
v 1.157250 -0.014606 -0.371095
v 0.306685 -0.082522 0.149701
v 0.161853 -0.131590 0.288227
v 0.307187 -0.144972 0.142375
v 0.047173 -0.085473 0.157091
v -0.097660 -0.134541 0.295617
v 0.047675 -0.147923 0.149765
v -1.425761 -0.099146 0.172801
v -1.628754 -0.133905 0.185348
v -1.425258 -0.161596 0.165476
v -0.212338 -0.088425 0.164481
v -0.357172 -0.137493 0.303008
v -0.211837 -0.150875 0.157156
v 1.173957 -0.101330 -0.170357
v 1.312793 -0.067598 -0.178537
v 1.173455 -0.038880 -0.163031
v -0.471850 -0.091375 0.171872
v -0.616684 -0.140443 0.310398
v -0.471349 -0.153825 0.164547
v 1.115244 -0.124127 0.019989
v 1.248231 -0.096710 0.065234
v 1.114741 -0.061677 0.027313
v -0.731362 -0.094327 0.179262
v -0.876196 -0.143395 0.317788
v -0.730860 -0.156777 0.171938
v -1.211983 -0.100990 0.203160
v -1.379496 -0.147049 0.314480
v -1.211482 -0.163440 0.195836
v -0.990874 -0.097278 0.186652
v -1.135707 -0.146346 0.325179
v -0.990372 -0.159728 0.179328
v 1.175947 -0.082324 -0.332256
v 1.312793 -0.067598 -0.178537
v 1.173957 -0.101330 -0.170357
v 1.179081 -0.106146 -0.128939
v 1.248231 -0.096710 0.065234
v 1.115244 -0.124127 0.019989
v 1.077558 -0.061156 -0.519462
v 1.271708 -0.035568 -0.454432
v 1.157753 -0.077056 -0.378420
v -1.573189 -0.100137 -0.368641
v -1.568046 -0.045121 -0.567439
v -1.458998 -0.085678 -0.484091
v -1.425258 -0.161596 0.165476
v -1.628754 -0.133905 0.185348
v -1.553188 -0.150839 0.064997
v 1.071771 -0.128580 0.054970
v 0.988186 -0.119696 0.243407
v 0.921635 -0.137168 0.117914
v 0.888092 -0.055136 -0.583775
v 1.065068 -0.010756 -0.680125
v 1.046736 -0.058248 -0.546367
v -1.211482 -0.163440 0.195836
v -1.379496 -0.147049 0.314480
v -1.372790 -0.161975 0.172301
v -1.411191 -0.082441 -0.508422
v -1.284862 -0.031587 -0.663433
v -1.250040 -0.078297 -0.532711
v -0.396284 -0.068302 -0.559465
v -0.251451 -0.019234 -0.697991
v -0.233337 -0.066450 -0.564106
v -0.655796 -0.071254 -0.552074
v -0.510963 -0.022186 -0.690601
v -0.492849 -0.069400 -0.556715
v -0.915308 -0.074204 -0.544684
v -0.770473 -0.025137 -0.683211
v -0.752361 -0.072351 -0.549324
v -0.136772 -0.065351 -0.566855
v 0.008061 -0.016283 -0.705381
v 0.026175 -0.063498 -0.571496
v 0.122739 -0.062400 -0.574245
v 0.267573 -0.013332 -0.712772
v 0.285686 -0.060547 -0.578886
v 0.382251 -0.059449 -0.581636
v 0.527086 -0.010381 -0.720162
v 0.545198 -0.057596 -0.586276
v 0.641763 -0.056497 -0.589027
v 0.786596 -0.007429 -0.727552
v 0.804710 -0.054645 -0.593667
v -1.174820 -0.077155 -0.537294
v -1.029985 -0.028087 -0.675820
v -1.011872 -0.075303 -0.541933
v 0.047675 -0.147923 0.149765
v -0.097660 -0.134541 0.295617
v -0.115272 -0.149776 0.154406
v 0.307187 -0.144972 0.142375
v 0.161853 -0.131590 0.288227
v 0.144239 -0.146826 0.147016
v 0.566698 -0.142022 0.134985
v 0.421364 -0.128638 0.280836
v 0.403751 -0.143874 0.139626
v -0.211837 -0.150875 0.157156
v -0.357172 -0.137493 0.303008
v -0.374784 -0.152727 0.161797
v -0.471349 -0.153825 0.164547
v -0.616684 -0.140443 0.310398
v -0.634296 -0.155679 0.169187
v -0.730860 -0.156777 0.171938
v -0.876196 -0.143395 0.317788
v -0.893808 -0.158629 0.176577
v -0.990372 -0.159728 0.179328
v -1.135707 -0.146346 0.325179
v -1.153319 -0.161581 0.183969
v 0.826211 -0.139070 0.127595
v 0.680876 -0.125688 0.273445
v 0.663263 -0.140923 0.132236
v 1.153226 -0.145398 -0.009529
v 1.152769 -0.088660 -0.002875
v 1.190850 -0.128551 -0.150586
v 1.152325 -0.031921 0.003780
v 1.138417 0.022651 -0.462438
v 1.138874 -0.034088 -0.469093
v 1.139331 -0.090826 -0.475748
v 1.184379 0.006755 -0.323763
v 1.184835 -0.049985 -0.330418
v 1.185292 -0.106723 -0.337073
v 1.188071 -0.117637 -0.243830
v 1.187614 -0.060899 -0.237174
v 1.187158 -0.004159 -0.230520
v 1.190393 -0.071813 -0.143931
v 1.189937 -0.015074 -0.137276
v -1.570022 -0.008149 -0.385306
v -1.569565 -0.064887 -0.391960
v -1.569108 -0.121626 -0.398616
v -1.461552 0.004813 -0.488383
v -1.461108 -0.051925 -0.495038
v -1.460651 -0.108664 -0.501693
v -1.277757 0.011247 -0.530650
v -1.277300 -0.045492 -0.537305
v -1.276844 -0.102230 -0.543960
v 0.842714 -0.078128 -0.604321
v 0.842259 -0.021390 -0.597667
v 0.841803 0.035349 -0.591012
v 1.024001 0.033079 -0.559168
v 1.024457 -0.023661 -0.565823
v 1.024912 -0.080399 -0.572478
v 1.138417 0.022651 -0.462438
v 1.138874 -0.034088 -0.469093
v 1.139331 -0.090826 -0.475748
v 0.841803 0.035349 -0.591012
v -1.277757 0.011247 -0.530650
v 0.852834 -0.007961 -0.220998
v 1.024001 0.033079 -0.559168
v -1.266726 -0.032064 -0.160637
v -1.461552 0.004813 -0.488383
v 1.033928 -0.005901 -0.226155
v 1.138417 0.022651 -0.462438
v 1.043855 -0.044882 0.106858
v 0.863863 -0.051272 0.149017
v 1.152325 -0.031921 0.003780
v -1.255696 -0.075376 0.209378
v -1.441702 -0.073147 0.177643
v 1.145365 -0.004634 -0.229330
v 1.184379 0.006755 -0.323763
v 1.189937 -0.015074 -0.137276
v 1.187158 -0.004159 -0.230520
v -1.451627 -0.034167 -0.155371
v -1.556127 -0.062721 0.080912
v -1.570022 -0.008149 -0.385306
v -1.563075 -0.035434 -0.152197
v -1.602088 -0.046824 -0.057764
v -1.607646 -0.024995 -0.244251
v -1.604868 -0.035910 -0.151008
v -1.556127 -0.062721 0.080912
v -1.555670 -0.119459 0.074257
v -1.555213 -0.176198 0.067602
v -1.602088 -0.046824 -0.057764
v -1.601632 -0.103562 -0.064418
v -1.601175 -0.160302 -0.071073
v -1.603954 -0.149388 -0.164317
v -1.604411 -0.092648 -0.157662
v -1.604868 -0.035910 -0.151008
v -1.606733 -0.138472 -0.257561
v -1.607190 -0.081733 -0.250905
v -1.607646 -0.024995 -0.244251
v -1.570022 -0.008149 -0.385306
v -1.569565 -0.064887 -0.391960
v -1.569108 -0.121626 -0.398616
v 1.044766 -0.158359 0.093548
v 0.864318 -0.108011 0.142361
v 0.864774 -0.164749 0.135706
v -1.254785 -0.188853 0.196067
v 1.044310 -0.101621 0.100202
v 1.153226 -0.145398 -0.009529
v 0.863863 -0.051272 0.149017
v 1.152769 -0.088660 -0.002875
v 1.043855 -0.044882 0.106858
v 1.152325 -0.031921 0.003780
v -1.255240 -0.132114 0.202723
v -1.255696 -0.075376 0.209378
v -1.441702 -0.073147 0.177643
v -1.441245 -0.129885 0.170987
v -1.440788 -0.186624 0.164332
v -1.556127 -0.062721 0.080912
v -1.555670 -0.119459 0.074257
v -1.555213 -0.176198 0.067602
v 0.842714 -0.078128 -0.604321
v -1.265815 -0.145542 -0.173947
v -1.276844 -0.102230 -0.543960
v -1.460651 -0.108664 -0.501693
v 0.853745 -0.121438 -0.234308
v 1.024912 -0.080399 -0.572478
v -1.450713 -0.147644 -0.168681
v -1.569108 -0.121626 -0.398616
v -1.440788 -0.186624 0.164332
v -1.254785 -0.188853 0.196067
v -1.555213 -0.176198 0.067602
v 0.864774 -0.164749 0.135706
v 1.044766 -0.158359 0.093548
v -1.562161 -0.148911 -0.165508
v -1.606733 -0.138472 -0.257561
v -1.601175 -0.160302 -0.071073
v -1.603954 -0.149388 -0.164317
v 1.034840 -0.119379 -0.239466
v 1.153226 -0.145398 -0.009529
v 1.139331 -0.090826 -0.475748
v 1.146279 -0.118112 -0.242639
v 1.190850 -0.128551 -0.150586
v 1.185292 -0.106723 -0.337073
v 1.188071 -0.117637 -0.243830
v 0.871664 -1.056384 -0.692674
vn 0.9996 0.0050 0.0263
vn 0.8049 0.0755 -0.5886
vn 0.8050 0.0755 -0.5885
vn 0.7824 -0.0663 0.6192
vn 0.7824 -0.0663 0.6193
vn 0.9988 0.0022 0.0495
vn 0.8410 -0.0563 0.5380
vn 0.9912 0.0232 -0.1301
vn 0.9912 0.0232 -0.1302
vn 0.9912 0.0233 -0.1302
vn 0.8791 0.0625 -0.4725
vn -0.7004 0.0776 -0.7096
vn 0.5501 0.1016 -0.8289
vn -0.0845 0.1154 -0.9897
vn -0.5666 0.0915 -0.8189
vn 0.2132 0.9671 0.1385
vn 0.2032 0.9773 0.0607
vn 0.1463 0.9529 0.2657
vn 0.1289 0.9902 -0.0544
vn -0.0925 0.9919 -0.0872
vn -0.0566 0.9436 0.3261
vn 0.0250 0.9940 -0.1061
vn 0.0223 0.9432 0.3315
vn -0.0013 0.9431 0.3324
vn -0.0012 0.9430 0.3327
vn -0.0013 0.9432 0.3323
vn -0.0013 0.9432 0.3322
vn -0.0143 0.9944 -0.1052
vn -0.0143 0.9943 -0.1055
vn -0.0143 0.9944 -0.1050
vn -0.9131 0.0402 -0.4058
vn -0.9906 0.0080 -0.1364
vn -0.9922 -0.0223 0.1225
vn -0.9922 -0.0224 0.1225
vn -0.9685 -0.0367 0.2464
vn 0.7045 -0.0771 0.7056
vn 0.7044 -0.0771 0.7056
vn 0.3279 -0.1074 0.9386
vn -0.0176 -0.1166 0.9930
vn 0.4981 -0.0970 0.8617
vn -0.6270 -0.0957 0.7731
vn -0.6272 -0.0957 0.7730
vn 0.2287 -0.9695 -0.0886
vn 0.2188 -0.9614 -0.1666
vn 0.1620 -0.9860 0.0384
vn 0.1445 -0.9485 -0.2819
vn 0.1445 -0.9485 -0.2818
vn -0.0769 -0.9461 -0.3145
vn -0.0410 -0.9943 0.0989
vn 0.0406 -0.9420 -0.3331
vn 0.0379 -0.9938 0.1044
vn 0.0143 -0.9944 0.1049
vn 0.0143 -0.9944 0.1052
vn 0.0143 -0.9943 0.1055
vn 0.0143 -0.9944 0.1050
vn 0.0013 -0.9432 -0.3323
vn 0.0013 -0.9432 -0.3322
vn 0.0013 -0.9432 -0.3321
vn 0.0013 -0.9431 -0.3324
vn 0.0012 -0.9430 -0.3327
vn 0.0013 -0.9430 -0.3327
vn 0.9398 0.0473 -0.3385
vn 0.9130 -0.0402 0.4059
vn 0.9906 -0.0080 0.1364
vn 0.7367 0.0846 -0.6709
vn 0.9685 0.0367 -0.2463
vn -0.7045 0.0771 -0.7056
vn -0.7044 0.0771 -0.7056
vn 0.3021 0.1134 -0.9465
vn -0.4981 0.0970 -0.8617
vn 0.6227 0.0961 -0.7765
vn 0.2126 0.9703 0.1152
vn 0.1917 0.9605 0.2018
vn 0.1857 0.9826 0.0065
vn -0.1620 0.9861 -0.0384
vn -0.1445 0.9485 0.2818
vn 0.0770 0.9461 0.3145
vn 0.0769 0.9461 0.3145
vn 0.0410 0.9943 -0.0989
vn -0.0406 0.9420 0.3332
vn -0.0379 0.9938 -0.1044
vn -0.0143 0.9944 -0.1049
vn -0.0013 0.9430 0.3327
vn -0.9996 -0.0049 -0.0264
vn -0.9988 -0.0022 -0.0496
vn -0.7824 0.0663 -0.6192
vn -0.9912 -0.0233 0.1302
vn -0.8411 0.0563 -0.5380
vn -0.9912 -0.0232 0.1302
vn -0.8791 -0.0625 0.4726
vn 0.5753 -0.0907 0.8129
vn 0.0845 -0.1154 0.9897
vn 0.0846 -0.1154 0.9897
vn -0.3022 -0.1134 0.9465
vn 0.5666 -0.0915 0.8189
vn 0.2282 -0.9672 -0.1120
vn 0.2282 -0.9671 -0.1120
vn 0.2073 -0.9780 -0.0255
vn 0.2014 -0.9543 -0.2206
vn -0.1464 -0.9529 -0.2657
vn -0.1289 -0.9902 0.0545
vn 0.0925 -0.9919 0.0872
vn 0.0566 -0.9436 -0.3261
vn -0.0250 -0.9940 0.1062
vn -0.0250 -0.9940 0.1061
vn -0.0223 -0.9432 -0.3315
vn 0.9928 -0.0061 0.1199
vn 0.8387 -0.0568 0.5416
vn 0.8387 -0.0568 0.5417
vn 0.8050 0.0755 -0.5884
vn 0.9839 0.0286 -0.1762
vn 0.9840 0.0286 -0.1761
vn 0.9995 0.0114 -0.0285
vn 0.8387 -0.0567 0.5416
vn -0.3974 0.1038 -0.9118
vn -0.8386 0.0568 -0.5418
vn -0.8386 0.0567 -0.5418
vn -0.3974 0.1037 -0.9118
vn -0.3973 0.1037 -0.9118
vn -0.1242 0.1146 -0.9856
vn -0.1243 0.1146 -0.9856
vn 0.0653 0.1168 -0.9910
vn 0.0653 0.1167 -0.9910
vn 0.3424 0.1122 -0.9328
vn 0.3424 0.1121 -0.9328
vn -0.0080 0.9932 0.1165
vn -0.8050 -0.0755 0.5884
vn -0.9839 -0.0286 0.1762
vn -0.9995 -0.0114 0.0285
vn -0.9928 0.0061 -0.1199
vn -0.8387 0.0568 -0.5416
vn 0.3974 -0.1037 0.9118
vn 0.1242 -0.1146 0.9856
vn -0.0653 -0.1168 0.9910
vn 0.3973 -0.1038 0.9118
vn 0.8386 -0.0568 0.5418
vn 0.3974 -0.1038 0.9118
vn -0.0653 -0.1167 0.9910
vn -0.3424 -0.1122 0.9328
vn -0.3424 -0.1121 0.9328
vn -0.8049 -0.0755 0.5886
vn 0.0080 -0.9932 -0.1165
vt 11.974800 -47.168598
vt 12.000000 -47.331501
vt 12.025200 -47.168598
vt 11.974800 -47.006401
vt 12.000000 -47.140400
vt 12.025200 -47.006401
vt 11.974800 -47.276199
vt 12.000000 -47.401001
vt 12.025200 -47.276199
vt 12.025200 -46.727200
vt 12.000000 -46.615898
vt 11.974800 -46.727200
vt 12.025200 -46.819000
vt 12.000000 -46.726799
vt 11.974800 -46.819000
vt 12.025200 -46.709400
vt 12.000000 -46.598202
vt 11.974800 -46.709400
vt 12.025200 -46.719700
vt 12.000000 -46.619999
vt 11.974800 -46.719700
vt 12.960400 -46.974800
vt 12.841000 -47.000000
vt 12.960400 -47.025200
vt 12.752700 -46.974800
vt 12.633200 -47.000000
vt 12.752700 -47.025200
vt 11.007800 -46.974800
vt 10.874500 -47.000000
vt 11.007800 -47.025200
vt 12.545000 -46.974800
vt 12.425500 -47.000000
vt 12.545000 -47.025200
vt 12.337200 -46.974800
vt 12.217800 -47.000000
vt 12.337200 -47.025200
vt 12.129500 -46.974800
vt 12.010100 -47.000000
vt 12.129500 -47.025200
vt 11.113500 -46.974800
vt 10.950600 -47.000000
vt 11.113500 -47.025200
vt 11.921800 -46.974800
vt 11.802400 -47.000000
vt 11.921800 -47.025200
vt 11.714100 -46.974800
vt 11.594700 -47.000000
vt 11.714100 -47.025200
vt 11.506400 -46.974800
vt 11.387000 -47.000000
vt 11.506400 -47.025200
vt 11.306900 -46.974800
vt 11.170000 -47.000000
vt 11.306900 -47.025200
vt 13.000500 -47.135502
vt 13.112100 -47.140400
vt 13.019100 -47.006401
vt 13.018900 -46.977901
vt 13.125500 -46.944302
vt 12.992200 -46.850201
vt 12.888500 -47.258900
vt 12.973400 -47.331501
vt 12.982500 -47.168598
vt 12.986400 -46.819000
vt 13.049400 -46.726799
vt 12.886500 -46.735199
vt 10.999000 -46.719700
vt 10.948500 -46.619999
vt 10.877500 -46.766899
vt 10.892700 -47.251598
vt 10.874500 -47.361801
vt 11.018700 -47.285400
vt 12.821500 -46.727200
vt 12.830000 -46.615898
vt 12.693100 -46.704601
vt 12.706500 -47.292099
vt 12.731000 -47.401001
vt 12.836000 -47.276199
vt 11.870500 -47.290600
vt 11.881500 -47.401798
vt 12.000900 -47.290600
vt 12.078200 -47.290600
vt 12.089200 -47.401798
vt 12.208600 -47.290600
vt 12.285900 -47.290600
vt 12.296900 -47.401798
vt 12.416300 -47.290600
vt 11.662800 -47.290600
vt 11.673800 -47.401798
vt 11.793200 -47.290600
vt 11.455000 -47.290600
vt 11.466100 -47.401798
vt 11.585500 -47.290600
vt 11.247300 -47.290600
vt 11.258300 -47.401798
vt 11.377800 -47.290600
vt 11.039600 -47.290600
vt 11.050600 -47.401798
vt 11.170100 -47.290600
vt 12.493600 -47.290600
vt 12.504600 -47.401798
vt 12.624000 -47.290600
vt 11.793200 -46.709400
vt 11.782200 -46.598202
vt 11.662800 -46.709400
vt 11.585500 -46.709400
vt 11.574500 -46.598202
vt 11.455000 -46.709400
vt 11.377800 -46.709400
vt 11.366800 -46.598202
vt 11.247300 -46.709400
vt 12.000900 -46.709400
vt 11.989900 -46.598202
vt 11.870500 -46.709400
vt 12.208600 -46.709400
vt 12.197600 -46.598202
vt 12.078200 -46.709400
vt 12.416300 -46.709400
vt 12.405300 -46.598202
vt 12.285900 -46.709400
vt 12.624000 -46.709400
vt 12.613000 -46.598202
vt 12.493600 -46.709400
vt 11.170100 -46.709400
vt 11.159000 -46.598202
vt 11.039600 -46.709400
vt 12.025200 -46.766899
vt 11.974800 -46.766899
vt 11.974800 -47.251598
vt 12.000000 -47.361801
vt 12.025200 -47.251598
vt 11.974800 -47.290600
vt 12.000000 -47.401798
vt 12.025200 -47.290600
vt 11.974800 -47.292099
vt 12.025200 -47.292099
vt 12.624000 -46.974800
vt 12.504600 -47.000000
vt 12.624000 -47.025200
vt 12.416300 -46.974800
vt 12.296900 -47.000000
vt 12.416300 -47.025200
vt 12.208600 -46.974800
vt 12.089200 -47.000000
vt 12.208600 -47.025200
vt 13.018900 -47.025200
vt 13.125500 -47.000000
vt 13.018900 -46.974800
vt 12.000900 -46.974800
vt 11.881500 -47.000000
vt 12.000900 -47.025200
vt 13.000500 -47.025200
vt 13.112100 -47.000000
vt 13.000500 -46.974800
vt 11.793200 -46.974800
vt 11.673800 -47.000000
vt 11.793200 -47.025200
vt 11.585500 -46.974800
vt 11.466100 -47.000000
vt 11.585500 -47.025200
vt 11.018700 -46.974800
vt 11.018700 -47.025200
vt 11.377800 -46.974800
vt 11.258300 -47.000000
vt 11.377800 -47.025200
vt 12.888500 -47.025200
vt 12.973400 -47.000000
vt 12.888500 -46.974800
vt 11.170100 -46.974800
vt 11.050600 -47.000000
vt 11.170100 -47.025200
vt 10.980900 -47.006401
vt 10.887900 -47.140400
vt 10.999500 -47.135502
vt 11.007800 -46.850201
vt 10.874500 -46.944302
vt 10.981100 -46.977901
vt 11.017500 -47.168598
vt 11.026600 -47.331501
vt 11.111500 -47.258900
vt 11.113500 -46.735199
vt 10.950600 -46.726799
vt 11.013600 -46.819000
vt 13.122500 -46.766899
vt 13.051500 -46.619999
vt 13.001000 -46.719700
vt 12.981300 -47.285400
vt 13.125500 -47.361801
vt 13.107300 -47.251598
vt 11.306900 -46.704601
vt 11.170000 -46.615898
vt 11.178500 -46.727200
vt 11.164000 -47.276199
vt 11.269000 -47.401001
vt 11.293500 -47.292099
vt 11.999100 -47.290600
vt 12.118500 -47.401798
vt 12.129500 -47.290600
vt 11.791400 -47.290600
vt 11.910800 -47.401798
vt 11.921800 -47.290600
vt 11.583700 -47.290600
vt 11.703100 -47.401798
vt 11.714100 -47.290600
vt 12.206800 -47.290600
vt 12.326200 -47.401798
vt 12.337200 -47.290600
vt 12.414500 -47.290600
vt 12.533900 -47.401798
vt 12.545000 -47.290600
vt 12.622200 -47.290600
vt 12.741700 -47.401798
vt 12.752700 -47.290600
vt 12.829900 -47.290600
vt 12.949400 -47.401798
vt 12.960400 -47.290600
vt 11.376000 -47.290600
vt 11.495400 -47.401798
vt 11.506400 -47.290600
vt 12.337200 -46.709400
vt 12.217800 -46.598202
vt 12.206800 -46.709400
vt 12.545000 -46.709400
vt 12.425500 -46.598202
vt 12.414500 -46.709400
vt 12.752700 -46.709400
vt 12.633200 -46.598202
vt 12.622200 -46.709400
vt 12.129500 -46.709400
vt 12.010100 -46.598202
vt 11.999100 -46.709400
vt 11.921800 -46.709400
vt 11.802400 -46.598202
vt 11.791400 -46.709400
vt 11.714100 -46.709400
vt 11.594700 -46.598202
vt 11.583700 -46.709400
vt 11.506400 -46.709400
vt 11.387000 -46.598202
vt 11.376000 -46.709400
vt 12.960400 -46.709400
vt 12.841000 -46.598202
vt 12.829900 -46.709400
vt 29.974800 -61.092098
vt 30.000000 -61.247101
vt 30.025200 -61.092098
vt 29.974800 -61.237801
vt 30.000000 -61.384602
vt 30.025200 -61.237801
vt 30.025200 -60.752998
vt 30.000000 -60.642799
vt 29.974800 -60.752998
vt 29.974800 -60.928398
vt 30.000000 -61.052299
vt 30.025200 -60.928398
vt 30.025200 -60.709400
vt 30.000000 -60.598202
vt 29.974800 -60.709400
vt 30.025200 -60.711399
vt 30.000000 -60.602402
vt 29.974800 -60.711399
vt 30.800600 -60.974800
vt 30.681101 -61.000000
vt 30.800600 -61.025200
vt 30.592899 -60.974800
vt 30.473400 -61.000000
vt 30.592899 -61.025200
vt 28.999800 -60.974800
vt 28.845800 -61.000000
vt 28.999800 -61.025200
vt 30.385099 -60.974800
vt 30.265699 -61.000000
vt 30.385099 -61.025200
vt 30.177401 -60.974800
vt 30.058001 -61.000000
vt 30.177401 -61.025200
vt 29.969700 -60.974800
vt 29.850300 -61.000000
vt 29.969700 -61.025200
vt 29.761999 -60.974800
vt 29.642599 -61.000000
vt 29.761999 -61.025200
vt 29.554300 -60.974800
vt 29.434900 -61.000000
vt 29.554300 -61.025200
vt 29.149799 -60.974800
vt 29.005600 -61.000000
vt 29.149799 -61.025200
vt 29.346600 -60.974800
vt 29.227200 -61.000000
vt 29.346600 -61.025200
vt 31.029100 -61.025200
vt 31.114000 -61.000000
vt 31.029100 -60.974800
vt 31.069000 -61.058701
vt 31.180500 -61.052299
vt 31.074499 -60.928398
vt 31.017500 -61.210602
vt 31.123100 -61.247101
vt 31.072100 -61.092098
vt 31.061001 -60.890800
vt 31.154200 -60.829300
vt 31.000200 -60.775398
vt 28.970900 -60.745701
vt 28.886000 -60.673199
vt 28.876801 -60.836102
vt 28.882500 -61.185600
vt 28.819500 -61.277901
vt 28.982401 -61.269501
vt 30.860300 -61.285000
vt 30.910900 -61.384602
vt 30.981899 -61.237801
vt 30.976200 -60.752998
vt 30.994400 -60.642799
vt 30.850201 -60.719299
vt 29.024200 -61.276199
vt 29.015699 -61.387600
vt 29.152599 -61.298801
vt 29.139200 -60.711399
vt 29.114700 -60.602402
vt 29.009701 -60.727200
vt 29.952999 -60.709400
vt 29.941999 -60.598202
vt 29.822599 -60.709400
vt 29.745300 -60.709400
vt 29.734301 -60.598202
vt 29.614901 -60.709400
vt 29.537600 -60.709400
vt 29.526600 -60.598202
vt 29.407101 -60.709400
vt 30.160700 -60.709400
vt 30.149700 -60.598202
vt 30.030300 -60.709400
vt 30.368401 -60.709400
vt 30.357401 -60.598202
vt 30.238001 -60.709400
vt 30.576099 -60.709400
vt 30.565100 -60.598202
vt 30.445700 -60.709400
vt 30.783800 -60.709400
vt 30.772800 -60.598202
vt 30.653400 -60.709400
vt 29.329901 -60.709400
vt 29.318899 -60.598202
vt 29.199400 -60.709400
vt 30.030300 -61.290600
vt 30.041300 -61.401798
vt 30.160700 -61.290600
vt 30.238001 -61.290600
vt 30.249001 -61.401798
vt 30.368401 -61.290600
vt 30.445700 -61.290600
vt 30.456699 -61.401798
vt 30.576099 -61.290600
vt 29.822599 -61.290600
vt 29.833599 -61.401798
vt 29.952999 -61.290600
vt 29.614901 -61.290600
vt 29.625900 -61.401798
vt 29.745300 -61.290600
vt 29.407101 -61.290600
vt 29.418100 -61.401798
vt 29.537600 -61.290600
vt 29.199400 -61.290600
vt 29.210400 -61.401798
vt 29.329901 -61.290600
vt 30.653400 -61.290600
vt 30.664400 -61.401798
vt 30.783800 -61.290600
vt 30.025200 -60.836102
vt 30.000000 -60.673199
vt 29.974800 -60.836102
vt 29.974800 -61.276199
vt 30.000000 -61.387600
vt 30.025200 -61.276199
vt 30.025200 -60.727200
vt 29.974800 -60.727200
vt 29.974800 -61.290600
vt 30.000000 -61.401798
vt 30.025200 -61.290600
vt 29.974800 -61.185600
vt 30.000000 -61.277901
vt 30.025200 -61.185600
vt 29.974800 -61.285000
vt 30.025200 -61.285000
vt 30.783800 -60.974800
vt 30.664400 -61.000000
vt 30.783800 -61.025200
vt 30.576099 -60.974800
vt 30.456699 -61.000000
vt 30.576099 -61.025200
vt 31.061001 -61.025200
vt 31.154200 -61.000000
vt 31.061001 -60.974800
vt 30.368401 -60.974800
vt 30.249001 -61.000000
vt 30.368401 -61.025200
vt 30.160700 -60.974800
vt 30.041300 -61.000000
vt 30.160700 -61.025200
vt 28.982401 -60.974800
vt 28.819500 -61.000000
vt 28.982401 -61.025200
vt 29.952999 -60.974800
vt 29.833599 -61.000000
vt 29.952999 -61.025200
vt 31.069000 -61.025200
vt 31.180500 -61.000000
vt 31.069000 -60.974800
vt 29.745300 -60.974800
vt 29.625900 -61.000000
vt 29.745300 -61.025200
vt 31.017500 -61.025200
vt 31.123100 -61.000000
vt 31.017500 -60.974800
vt 29.537600 -60.974800
vt 29.418100 -61.000000
vt 29.537600 -61.025200
vt 29.152599 -60.974800
vt 29.015699 -61.000000
vt 29.152599 -61.025200
vt 29.329901 -60.974800
vt 29.210400 -61.000000
vt 29.329901 -61.025200
vt 28.925501 -60.928398
vt 28.819500 -61.052299
vt 28.931000 -61.058701
vt 28.927900 -61.092098
vt 28.876900 -61.247101
vt 28.982500 -61.210602
vt 28.999800 -60.775398
vt 28.845800 -60.829300
vt 28.938999 -60.890800
vt 31.123199 -60.836102
vt 31.114000 -60.673199
vt 31.029100 -60.745701
vt 31.017599 -61.269501
vt 31.180500 -61.277901
vt 31.117500 -61.185600
vt 29.018101 -61.237801
vt 29.089100 -61.384602
vt 29.139700 -61.285000
vt 29.149799 -60.719299
vt 29.005600 -60.642799
vt 29.023800 -60.752998
vt 30.847401 -61.298801
vt 30.984301 -61.387600
vt 30.975800 -61.276199
vt 30.990299 -60.727200
vt 30.885300 -60.602402
vt 30.860800 -60.711399
vt 30.177401 -60.709400
vt 30.058001 -60.598202
vt 30.047001 -60.709400
vt 30.385099 -60.709400
vt 30.265699 -60.598202
vt 30.254700 -60.709400
vt 30.592899 -60.709400
vt 30.473400 -60.598202
vt 30.462400 -60.709400
vt 29.969700 -60.709400
vt 29.850300 -60.598202
vt 29.839300 -60.709400
vt 29.761999 -60.709400
vt 29.642599 -60.598202
vt 29.631599 -60.709400
vt 29.554300 -60.709400
vt 29.434900 -60.598202
vt 29.423901 -60.709400
vt 29.346600 -60.709400
vt 29.227200 -60.598202
vt 29.216200 -60.709400
vt 30.800600 -60.709400
vt 30.681101 -60.598202
vt 30.670099 -60.709400
vt 29.839300 -61.290600
vt 29.958700 -61.401798
vt 29.969700 -61.290600
vt 29.631599 -61.290600
vt 29.750999 -61.401798
vt 29.761999 -61.290600
vt 29.423901 -61.290600
vt 29.543301 -61.401798
vt 29.554300 -61.290600
vt 30.047001 -61.290600
vt 30.166401 -61.401798
vt 30.177401 -61.290600
vt 30.254700 -61.290600
vt 30.374100 -61.401798
vt 30.385099 -61.290600
vt 30.462400 -61.290600
vt 30.581900 -61.401798
vt 30.592899 -61.290600
vt 30.670099 -61.290600
vt 30.789600 -61.401798
vt 30.800600 -61.290600
vt 29.216200 -61.290600
vt 29.335600 -61.401798
vt 29.346600 -61.290600
vt 6.045700 -25.075100
vt 6.000000 -25.187799
vt 6.045700 -25.187799
vt 5.954300 -24.812201
vt 5.954300 -24.924900
vt 6.000000 -24.812201
vt 6.000000 -24.924900
vt 6.045700 -24.812201
vt 6.045700 -24.924900
vt 6.045700 -25.000000
vt 6.000000 -25.000000
vt 5.954300 -25.000000
vt 6.000000 -25.075100
vt 5.954300 -25.075100
vt 5.954300 -25.187799
vt 6.994690 -24.954300
vt 7.083890 -25.000000
vt 7.083890 -24.954300
vt 6.994690 -25.000000
vt 7.083890 -25.045700
vt 6.994690 -25.045700
vt 6.846700 -24.954300
vt 6.846700 -25.000000
vt 6.846700 -25.045700
vt 5.150250 -25.045700
vt 5.150250 -25.000000
vt 5.150250 -24.954300
vt 5.005310 -24.954300
vt 5.005310 -25.000000
vt 5.005310 -25.045700
vt 4.916110 -24.954300
vt 4.916110 -25.000000
vt 4.916110 -25.045700
vt 6.849750 -24.701799
vt 5.153300 -24.701799
vt 6.849750 -25.000000
vt 6.994690 -24.731701
vt 5.153300 -25.000000
vt 5.005310 -24.731701
vt 7.083890 -24.812201
vt 6.994690 -25.268299
vt 6.849750 -25.298201
vt 7.083890 -25.187799
vt 5.153300 -25.298201
vt 5.005310 -25.268299
vt 7.117340 -24.924900
vt 7.117340 -25.075100
vt 7.117340 -25.000000
vt 4.916110 -25.187799
vt 4.916110 -24.812201
vt 4.882660 -25.075100
vt 4.882660 -24.924900
vt 4.882660 -25.000000
vt 6.849750 -25.045700
vt 5.153300 -25.045700
vt 6.849750 -24.954300
vt 5.153300 -24.954300
vt 5.150250 -24.701799
vt 6.846700 -24.701799
vt 6.846700 -25.298201
vt 5.150250 -25.298201
s 1
usemtl Spikes21Mtl
f 1/1/1 2/2/1 3/3/1
f 4/4/2 5/5/3 6/6/2
f 7/7/4 8/8/5 9/9/5
f 10/10/6 11/11/6 12/12/6
f 13/13/7 14/14/7 15/15/7
f 16/16/8 17/17/8 18/18/8
f 19/16/9 20/17/9 21/18/9
f 22/16/9 23/17/9 24/18/9
f 25/16/10 26/17/9 27/18/10
f 28/16/8 29/17/9 30/18/8
f 31/16/8 32/17/9 33/18/8
f 34/16/10 35/17/9 36/18/9
f 37/19/11 38/20/11 39/21/11
f 40/16/9 41/17/9 42/18/9
f 43/22/12 44/23/12 45/24/12
f 46/25/12 47/26/12 48/27/12
f 49/28/13 50/29/13 51/30/13
f 52/31/12 53/32/12 54/33/12
f 55/34/12 56/35/12 57/36/12
f 58/37/12 59/38/12 60/39/12
f 61/40/14 62/41/14 63/42/14
f 64/43/12 65/44/12 66/45/12
f 67/46/12 68/47/12 69/48/12
f 70/49/12 71/50/12 72/51/12
f 73/52/15 74/53/15 75/54/15
f 76/55/16 77/56/16 78/57/16
f 79/58/17 80/59/17 81/60/17
f 82/61/18 83/62/18 84/63/18
f 85/64/19 86/65/19 87/66/19
f 88/67/20 89/68/20 90/69/20
f 91/70/21 92/71/21 93/72/21
f 94/73/22 95/74/22 96/75/22
f 97/76/23 98/77/23 99/78/23
f 100/79/24 101/80/24 102/81/24
f 103/82/25 104/83/25 105/84/25
f 106/85/26 107/86/27 108/87/27
f 109/88/24 110/89/24 111/90/24
f 112/91/26 113/92/26 114/93/26
f 115/94/24 116/95/26 117/96/24
f 118/97/24 119/98/24 120/99/24
f 121/100/26 122/101/24 123/102/24
f 124/103/28 125/104/28 126/105/29
f 127/106/30 128/107/28 129/108/28
f 130/109/29 131/110/29 132/111/29
f 133/112/29 134/113/29 135/114/29
f 136/115/28 137/116/29 138/117/29
f 139/118/30 140/119/30 141/120/30
f 142/121/29 143/122/29 144/123/29
f 145/124/29 146/125/29 147/126/29
f 148/127/31 149/20/31 150/128/31
f 151/129/32 152/130/32 153/131/32
f 154/132/33 155/133/33 156/134/33
f 157/132/34 158/133/34 159/134/34
f 160/132/34 161/133/34 162/134/34
f 163/132/34 164/133/34 165/134/34
f 166/132/34 167/133/34 168/134/34
f 169/132/33 170/133/33 171/134/33
f 172/132/34 173/133/34 174/134/34
f 175/132/34 176/133/34 177/134/34
f 178/135/35 179/8/35 180/136/35
f 181/137/36 182/138/37 183/139/36
f 184/140/37 185/141/37 186/142/37
f 187/143/37 188/144/37 189/145/37
f 190/146/38 191/147/38 192/148/38
f 193/149/37 194/150/37 195/151/37
f 196/152/39 197/153/39 198/154/39
f 199/155/37 200/156/36 201/157/37
f 202/158/37 203/159/37 204/160/37
f 205/161/40 206/29/40 207/162/40
f 208/163/37 209/164/37 210/165/37
f 211/166/41 212/167/42 213/168/42
f 214/169/37 215/170/37 216/171/37
f 217/172/43 218/173/43 219/174/43
f 220/175/44 221/176/44 222/177/44
f 223/178/45 224/179/45 225/180/45
f 226/181/46 227/182/46 228/183/47
f 229/184/48 230/185/48 231/186/48
f 232/187/49 233/188/49 234/189/49
f 235/190/50 236/191/50 237/192/50
f 238/193/51 239/194/51 240/195/51
f 241/196/52 242/197/52 243/198/52
f 244/199/53 245/200/53 246/201/53
f 247/202/54 248/203/54 249/204/54
f 250/205/55 251/206/55 252/207/55
f 253/208/53 254/209/53 255/210/53
f 256/211/54 257/212/54 258/213/54
f 259/214/54 260/215/54 261/216/54
f 262/217/55 263/218/55 264/219/55
f 265/220/56 266/221/57 267/222/57
f 268/223/58 269/224/58 270/225/57
f 271/226/59 272/227/59 273/228/59
f 274/229/60 275/230/60 276/231/60
f 277/232/59 278/233/59 279/234/59
f 280/235/56 281/236/56 282/237/56
f 283/238/59 284/239/56 285/240/59
f 286/241/61 287/242/61 288/243/61
f 289/244/62 290/245/62 291/246/62
f 292/247/63 293/248/63 294/249/63
f 295/250/64 296/251/64 297/252/64
f 298/253/65 299/254/65 300/255/65
f 301/256/9 302/257/9 303/258/9
f 304/256/9 305/257/9 306/258/9
f 307/256/10 308/257/10 309/258/10
f 310/256/10 311/257/10 312/258/10
f 313/256/10 314/257/10 315/258/10
f 316/256/9 317/257/9 318/258/9
f 319/256/9 320/257/9 321/258/9
f 322/256/8 323/257/9 324/258/9
f 325/259/66 326/260/66 327/261/66
f 328/262/67 329/263/67 330/264/67
f 331/265/68 332/266/68 333/267/68
f 334/268/69 335/269/69 336/270/69
f 337/271/68 338/272/68 339/273/68
f 340/274/68 341/275/68 342/276/68
f 343/277/67 344/278/67 345/279/67
f 346/280/67 347/281/67 348/282/67
f 349/283/68 350/284/68 351/285/68
f 352/286/70 353/287/70 354/288/70
f 355/289/68 356/290/68 357/291/68
f 358/292/71 359/293/71 360/294/71
f 361/295/72 362/296/72 363/297/72
f 364/298/73 365/299/73 366/300/73
f 367/301/74 368/302/74 369/303/74
f 370/304/75 371/305/75 372/306/75
f 373/307/76 374/308/76 375/309/76
f 376/310/77 377/311/78 378/312/77
f 379/313/79 380/314/79 381/315/79
f 382/316/80 383/317/80 384/318/80
f 385/319/81 386/320/81 387/321/81
f 388/322/29 389/323/28 390/324/28
f 391/325/30 392/326/29 393/327/29
f 394/328/30 395/329/29 396/330/30
f 397/331/82 398/332/82 399/333/82
f 400/334/29 401/335/29 402/336/29
f 403/337/28 404/338/28 405/339/28
f 406/340/28 407/341/30 408/342/28
f 409/343/30 410/344/82 411/345/30
f 412/346/27 413/347/26 414/348/26
f 415/349/24 416/350/24 417/351/24
f 418/352/26 419/353/26 420/354/26
f 421/355/26 422/356/26 423/357/26
f 424/358/83 425/359/24 426/360/24
f 427/361/25 428/362/25 429/363/25
f 430/364/25 431/365/24 432/366/24
f 433/367/25 434/368/26 435/369/24
f 436/370/84 437/371/84 438/372/84
f 439/373/85 440/374/85 441/375/85
f 442/376/86 443/260/86 444/377/86
f 445/378/87 446/379/87 447/380/87
f 448/381/88 449/382/88 450/383/88
f 451/378/89 452/379/89 453/380/89
f 454/378/89 455/379/89 456/380/89
f 457/378/89 458/379/89 459/380/89
f 460/378/87 461/379/87 462/380/87
f 463/378/89 464/379/89 465/380/89
f 466/378/89 467/379/89 468/380/89
f 469/378/89 470/379/89 471/380/89
f 472/384/90 473/248/90 474/385/90
f 475/386/37 476/387/37 477/388/37
f 478/389/37 479/390/37 480/391/37
f 481/392/91 482/393/91 483/394/91
f 484/395/37 485/396/37 486/397/37
f 487/398/37 488/399/37 489/400/37
f 490/401/92 491/402/92 492/403/92
f 493/404/37 494/405/37 495/406/37
f 496/407/93 497/408/93 498/409/93
f 499/410/37 500/411/37 501/412/37
f 502/413/94 503/414/94 504/415/94
f 505/416/36 506/417/36 507/418/36
f 508/419/95 509/420/95 510/421/95
f 511/422/36 512/423/36 513/424/36
f 514/425/96 515/426/97 516/427/97
f 517/428/98 518/429/98 519/430/98
f 520/431/99 521/432/99 522/433/99
f 523/434/100 524/435/100 525/436/100
f 526/437/101 527/438/101 528/439/101
f 529/440/102 530/441/102 531/442/102
f 532/443/103 533/444/103 534/445/103
f 535/446/104 536/447/104 537/448/105
f 538/449/106 539/450/106 540/451/106
f 541/452/56 542/453/56 543/454/59
f 544/455/59 545/456/59 546/457/59
f 547/458/60 548/459/60 549/460/60
f 550/461/59 551/462/59 552/463/59
f 553/464/56 554/465/56 555/466/56
f 556/467/59 557/468/59 558/469/59
f 559/470/60 560/471/60 561/472/60
f 562/473/60 563/474/60 564/475/60
f 565/476/53 566/477/53 567/478/53
f 568/479/54 569/480/54 570/481/54
f 571/482/55 572/483/55 573/484/55
f 574/485/55 575/486/52 576/487/52
f 577/488/54 578/489/54 579/490/54
f 580/491/53 581/492/53 582/493/53
f 583/494/54 584/495/54 585/496/54
f 586/497/52 587/498/55 588/499/52
usemtl Blade1Mtl
f 591/500/107 590/501/108 589/502/109
f 593/503/110 596/504/111 594/505/110
f 594/505/110 597/506/111 595/507/110
f 597/506/111 594/505/110 596/504/111
f 598/508/112 595/507/110 597/506/111
f 598/508/112 597/506/111 599/509/113
f 596/504/111 600/510/113 597/506/111
f 599/509/113 597/506/111 600/510/113
f 600/510/113 596/504/111 601/511/113
f 599/509/113 600/510/113 591/500/107
f 600/510/113 601/511/113 602/512/107
f 591/500/107 600/510/113 602/512/107
f 602/512/107 601/511/113 603/513/107
f 590/501/108 591/500/107 602/512/107
f 592/514/114 602/512/107 603/513/107
f 602/512/107 592/514/114 590/501/108
f 607/515/115 605/516/116 604/517/117
f 608/518/118 606/519/116 605/516/116
f 605/516/116 607/515/115 608/518/118
f 606/519/116 608/518/118 609/520/119
f 610/521/120 608/518/118 607/515/115
f 611/522/121 609/520/119 608/518/118
f 608/518/118 610/521/120 611/522/121
f 609/520/119 611/522/121 612/523/120
f 613/524/122 612/523/120 611/522/121
f 614/525/122 611/522/121 610/521/120
f 613/524/122 611/522/121 614/525/122
f 614/525/122 610/521/120 615/526/123
f 615/526/123 616/527/124 614/525/122
f 614/525/122 617/528/125 613/524/122
f 617/528/125 614/525/122 616/527/124
f 618/529/124 613/524/122 617/528/125
f 616/527/124 619/530/2 617/528/125
f 617/528/125 620/531/2 618/529/124
f 620/531/2 617/528/125 619/530/2
f 621/532/2 618/529/124 620/531/2
f 622/533/126 623/534/126 624/535/126
f 624/535/126 625/536/126 622/533/126
f 626/537/126 624/535/126 623/534/126
f 626/537/126 623/534/126 627/538/126
f 625/536/126 624/535/126 628/518/126
f 628/518/126 629/539/126 625/536/126
f 624/535/126 630/540/126 628/518/126
f 630/540/126 624/535/126 631/541/126
f 624/535/126 626/537/126 631/541/126
f 628/518/126 630/540/126 632/542/126
f 633/543/126 631/541/126 626/537/126
f 626/537/126 634/544/126 633/543/126
f 629/539/126 628/518/126 635/516/126
f 628/518/126 632/542/126 635/516/126
f 635/516/126 636/545/126 629/539/126
f 635/516/126 632/542/126 637/546/126
f 636/545/126 635/516/126 638/547/126
f 635/516/126 637/546/126 638/547/126
f 634/544/126 626/537/126 639/528/126
f 639/528/126 626/537/126 627/538/126
f 639/528/126 640/548/126 634/544/126
f 639/528/126 627/538/126 641/549/126
f 640/548/126 639/528/126 642/531/126
f 641/549/126 642/531/126 639/528/126
f 642/531/126 643/550/126 640/548/126
f 642/531/126 641/549/126 644/551/126
f 643/550/126 642/531/126 645/552/126
f 645/552/126 642/531/126 644/551/126
f 646/502/127 649/500/128 647/501/127
f 647/501/127 650/512/128 648/514/127
f 650/512/128 647/501/127 649/500/128
f 651/513/128 648/514/127 650/512/128
f 652/511/129 651/513/128 650/512/128
f 653/510/129 650/512/128 649/500/128
f 652/511/129 650/512/128 653/510/129
f 653/510/129 649/500/128 654/509/129
f 655/504/130 652/511/129 653/510/129
f 656/506/130 653/510/129 654/509/129
f 655/504/130 653/510/129 656/506/130
f 656/506/130 654/509/129 657/508/130
f 658/507/131 656/506/130 657/508/130
f 659/505/131 655/504/130 656/506/130
f 656/506/130 658/507/131 659/505/131
f 655/504/130 659/505/131 660/503/131
f 661/520/132 662/535/133 663/553/133
f 664/554/134 663/553/133 662/535/133
f 662/535/133 661/520/132 665/518/135
f 666/519/136 665/518/135 661/520/132
f 665/518/135 667/555/133 662/535/133
f 665/518/135 666/519/136 668/516/136
f 667/555/133 665/518/135 669/515/137
f 668/516/136 669/515/137 665/518/135
f 669/515/137 668/516/136 670/517/136
f 671/537/134 662/535/133 667/555/133
f 664/554/134 662/535/133 671/537/134
f 671/537/134 667/555/133 672/556/138
f 672/556/138 673/527/139 671/537/134
f 671/537/134 674/528/140 664/554/134
f 674/528/140 671/537/134 673/527/139
f 675/529/139 664/554/134 674/528/140
f 673/527/139 676/530/141 674/528/140
f 674/528/140 677/531/141 675/529/139
f 677/531/141 674/528/140 676/530/141
f 678/532/141 675/529/139 677/531/141
f 679/557/142 680/522/142 681/558/142
f 680/522/142 682/536/142 681/558/142
f 680/522/142 679/557/142 683/525/142
f 684/538/142 683/525/142 679/557/142
f 682/536/142 680/522/142 685/518/142
f 685/518/142 686/539/142 682/536/142
f 685/518/142 680/522/142 687/540/142
f 680/522/142 688/559/142 687/540/142
f 683/525/142 688/559/142 680/522/142
f 685/518/142 687/540/142 689/542/142
f 688/559/142 683/525/142 690/560/142
f 683/525/142 691/544/142 690/560/142
f 686/539/142 685/518/142 692/516/142
f 689/542/142 692/516/142 685/518/142
f 692/516/142 693/545/142 686/539/142
f 692/516/142 689/542/142 694/546/142
f 693/545/142 692/516/142 695/547/142
f 695/547/142 692/516/142 694/546/142
f 691/544/142 683/525/142 696/528/142
f 683/525/142 684/538/142 696/528/142
f 696/528/142 697/548/142 691/544/142
f 696/528/142 684/538/142 698/549/142
f 697/548/142 696/528/142 699/531/142
f 696/528/142 698/549/142 699/531/142
f 699/531/142 700/550/142 697/548/142
f 699/531/142 698/549/142 701/551/142
f 700/550/142 699/531/142 702/552/142
f 699/531/142 701/551/142 702/552/142
o fists
v -0.993671 0.164683 -0.351204
v -0.985683 -0.495949 0.328954
v -0.998911 0.174339 0.319196
v -0.980443 -0.505606 -0.341445
v 1.250582 0.218978 0.336132
v 1.269050 -0.460965 -0.324509
v 1.255823 0.209323 -0.334267
v 1.263811 -0.451308 0.345891
v 1.240025 -0.501301 -0.324154
v 1.239551 -0.462130 -0.364483
v 1.269050 -0.460965 -0.324509
v 1.255823 0.209323 -0.334267
v 1.226324 0.208159 -0.374242
v 1.225228 0.248474 -0.335070
v 1.234786 -0.491643 0.346245
v 1.263811 -0.451308 0.345891
v 1.233691 -0.451329 0.385415
v 1.220465 0.218964 0.375663
v 1.250582 0.218978 0.336132
v 1.219988 0.258130 0.335326
v -0.949849 -0.544757 -0.340642
v -0.980443 -0.505606 -0.341445
v -0.950323 -0.505587 -0.380971
v -0.963551 0.164701 -0.390730
v -0.993671 0.164683 -0.351204
v -0.964646 0.205018 -0.351558
v -0.955088 -0.535101 0.329758
v -0.956183 -0.494785 0.368929
v -0.985683 -0.495949 0.328954
v -0.998911 0.174339 0.319196
v -0.969410 0.175504 0.359170
v -0.969885 0.214674 0.318841
v 1.269050 -0.460965 -0.324509
v 1.234786 -0.491643 0.346245
v 1.240025 -0.501301 -0.324154
v 1.263811 -0.451308 0.345891
v 1.250582 0.218978 0.336132
v 1.225228 0.248474 -0.335070
v 1.219988 0.258130 0.335326
v 1.255823 0.209323 -0.334267
v -0.985683 -0.495949 0.328954
v -0.980443 -0.505606 -0.341445
v -0.949849 -0.544757 -0.340642
v -0.955088 -0.535101 0.329758
v -0.993671 0.164683 -0.351204
v -0.998911 0.174339 0.319196
v -0.969885 0.214674 0.318841
v -0.964646 0.205018 -0.351558
v 1.233691 -0.451329 0.385415
v -0.956183 -0.494785 0.368929
v -0.955088 -0.535101 0.329758
v 1.234786 -0.491643 0.346245
v 1.219988 0.258130 0.335326
v -0.969885 0.214674 0.318841
v -0.969410 0.175504 0.359170
v 1.220465 0.218964 0.375663
v -0.950323 -0.505587 -0.380971
v 1.239551 -0.462130 -0.364483
v 1.240025 -0.501301 -0.324154
v -0.949849 -0.544757 -0.340642
v -0.964646 0.205018 -0.351558
v 1.225228 0.248474 -0.335070
v 1.226324 0.208159 -0.374242
v -0.963551 0.164701 -0.390730
v 1.226324 0.208159 -0.374242
v -0.950323 -0.505587 -0.380971
v -0.963551 0.164701 -0.390730
v 1.239551 -0.462130 -0.364483
v -0.969885 0.214674 0.318841
v 1.219988 0.258130 0.335326
v 1.225228 0.248474 -0.335070
v -0.964646 0.205018 -0.351558
v -0.969410 0.175504 0.359170
v 1.233691 -0.451329 0.385415
v 1.220465 0.218964 0.375663
v -0.956183 -0.494785 0.368929
v -0.949849 -0.544757 -0.340642
v 1.240025 -0.501301 -0.324154
v 1.234786 -0.491643 0.346245
v -0.955088 -0.535101 0.329758
v -1.016826 0.171001 -0.358263
v -1.008752 -0.503057 0.335621
v -1.022236 0.180667 0.325674
v -1.003236 -0.512882 -0.348269
v 1.273373 0.226254 0.342952
v 1.292377 -0.467293 -0.330987
v 1.278892 0.216431 -0.340933
v 1.286966 -0.457626 0.352950
v 1.251359 -0.522122 -0.331879
v 1.250825 -0.470292 -0.385285
v 1.292377 -0.467293 -0.330987
v 1.278892 0.216431 -0.340933
v 1.237204 0.216246 -0.395305
v 1.235695 0.269562 -0.343491
v 1.246083 -0.512295 0.354755
v 1.286966 -0.457626 0.352950
v 1.244575 -0.458977 0.406573
v 1.230953 0.227560 0.396549
v 1.273373 0.226254 0.342952
v 1.230482 0.279480 0.343306
v -0.960341 -0.566106 -0.348620
v -1.003236 -0.512882 -0.348269
v -0.960813 -0.514185 -0.401862
v -0.974434 0.172353 -0.411883
v -1.016826 0.171001 -0.358263
v -0.975943 0.225668 -0.360068
v -0.965555 -0.556188 0.338179
v -0.967064 -0.502872 0.389994
v -1.008752 -0.503057 0.335621
v -1.022236 0.180667 0.325674
v -0.980685 0.183665 0.379972
v -0.981218 0.235497 0.326567
v 1.292377 -0.467293 -0.330987
v 1.246083 -0.512295 0.354755
v 1.251359 -0.522122 -0.331879
v 1.286966 -0.457626 0.352950
v 1.273373 0.226254 0.342952
v 1.235695 0.269562 -0.343491
v 1.230482 0.279480 0.343306
v 1.278892 0.216431 -0.340933
v -1.008752 -0.503057 0.335621
v -1.003236 -0.512882 -0.348269
v -0.960341 -0.566106 -0.348620
v -0.965555 -0.556188 0.338179
v -1.016826 0.171001 -0.358263
v -1.022236 0.180667 0.325674
v -0.981218 0.235497 0.326567
v -0.975943 0.225668 -0.360068
v 1.244575 -0.458977 0.406573
v -0.967064 -0.502872 0.389994
v -0.965555 -0.556188 0.338179
v 1.246083 -0.512295 0.354755
v 1.230482 0.279480 0.343306
v -0.981218 0.235497 0.326567
v -0.980685 0.183665 0.379972
v 1.230953 0.227560 0.396549
v -0.960813 -0.514185 -0.401862
v 1.250825 -0.470292 -0.385285
v 1.251359 -0.522122 -0.331879
v -0.960341 -0.566106 -0.348620
v -0.975943 0.225668 -0.360068
v 1.235695 0.269562 -0.343491
v 1.237204 0.216246 -0.395305
v -0.974434 0.172353 -0.411883
v 1.237204 0.216246 -0.395305
v -0.960813 -0.514185 -0.401862
v -0.974434 0.172353 -0.411883
v 1.250825 -0.470292 -0.385285
v -0.981218 0.235497 0.326567
v 1.230482 0.279480 0.343306
v 1.235695 0.269562 -0.343491
v -0.975943 0.225668 -0.360068
v -0.980685 0.183665 0.379972
v 1.244575 -0.458977 0.406573
v 1.230953 0.227560 0.396549
v -0.967064 -0.502872 0.389994
v -0.960341 -0.566106 -0.348620
v 1.251359 -0.522122 -0.331879
v 1.246083 -0.512295 0.354755
v -0.965555 -0.556188 0.338179
vn -0.9256 0.2525 -0.2821
vn -0.9212 -0.2837 0.2662
vn -0.9322 0.2528 0.2589
vn -0.9161 -0.2924 -0.2742
vn 0.9161 0.2924 0.2742
vn 0.9322 -0.2528 -0.2589
vn 0.9212 0.2838 -0.2661
vn 0.9256 -0.2525 0.2821
vn 0.4546 -0.8351 -0.3099
vn 0.4505 -0.3261 -0.8311
vn 0.9322 -0.2529 -0.2590
vn 0.9212 0.2838 -0.2663
vn 0.4344 0.3229 -0.8409
vn 0.4186 0.8434 -0.3368
vn 0.4514 -0.8250 0.3400
vn 0.9255 -0.2525 0.2822
vn 0.4355 -0.3061 0.8465
vn 0.4212 0.3452 0.8387
vn 0.9161 0.2924 0.2744
vn 0.4182 0.8509 0.3180
vn -0.4182 -0.8509 -0.3180
vn -0.9161 -0.2925 -0.2743
vn -0.4212 -0.3452 -0.8387
vn -0.4355 0.3062 -0.8465
vn -0.9255 0.2525 -0.2822
vn -0.4514 0.8250 -0.3400
vn -0.4186 -0.8434 0.3368
vn -0.4344 -0.3229 0.8409
vn -0.9212 -0.2838 0.2663
vn -0.9322 0.2529 0.2590
vn -0.4505 0.3261 0.8311
vn -0.4545 0.8351 0.3099
vn 0.9322 -0.2529 -0.2589
vn 0.4513 -0.8250 0.3400
vn 0.4545 -0.8351 -0.3099
vn 0.9255 -0.2525 0.2821
vn 0.9161 0.2925 0.2743
vn 0.9212 0.2839 -0.2662
vn -0.9212 -0.2838 0.2661
vn -0.9255 0.2525 -0.2821
vn -0.9322 0.2529 0.2589
vn -0.4546 0.8351 0.3098
vn -0.4513 0.8250 -0.3400
vn -0.4504 0.3261 0.8311
vn -0.4211 -0.3452 -0.8387
vn 0.4504 -0.3261 -0.8311
vn 0.4545 -0.8351 -0.3098
vn -0.4513 0.8251 -0.3400
vn 0.4343 0.3228 -0.8409
vn -0.4356 0.3062 -0.8465
vn 0.4343 0.3229 -0.8409
vn -0.4546 0.8351 0.3099
vn 0.4355 -0.3062 0.8465
vn -0.4343 -0.3229 0.8409
vn -0.9212 -0.2838 0.2662
vn 0.4546 -0.8351 -0.3098
vn 0.4356 -0.3061 0.8465
vn -0.9161 -0.2925 -0.2744
vn 0.4513 -0.8251 0.3400
vn 0.9255 -0.2526 0.2821
vn 0.9212 0.2838 -0.2662
vn -0.9212 -0.2839 0.2662
vn -0.9255 0.2526 -0.2821
vn -0.4344 -0.3228 0.8409
vn -0.4504 0.3261 0.8312
vn 0.4344 0.3228 -0.8409
vt 0.372650 0.019678
vt 0.478632 0.130590
vt 0.372650 0.130590
vt 0.478632 0.019678
vt 0.478632 0.481216
vt 0.372650 0.370304
vt 0.478632 0.370304
vt 0.372650 0.481216
vt 0.478632 0.363148
vt 0.478632 0.137746
vt 0.365812 0.363148
vt 0.365812 0.137746
vt 0.140171 0.137746
vt 0.140171 0.363148
vt 0.252991 0.137746
vt 0.252991 0.363148
vt 0.147009 0.137746
vt 0.147009 0.363148
vt 0.259829 0.363148
vt 0.259829 0.137746
vt 0.372650 0.137746
vt 0.372650 0.363148
vt 0.034188 0.363148
vt 0.034188 0.137746
s 1
usemtl Leftarm1Mtl
f 704/561/143 705/562/144 706/563/145
f 705/562/144 704/561/143 707/564/146
f 708/565/147 709/566/148 710/567/149
f 709/566/148 708/565/147 711/568/150
f 712/566/151 713/566/152 714/566/153
f 713/566/152 715/567/154 714/566/153
f 715/567/154 713/566/152 716/567/155
f 716/567/155 717/567/156 715/567/154
f 718/568/157 719/568/158 720/568/159
f 721/565/160 720/568/159 719/568/158
f 719/568/158 722/565/161 721/565/160
f 723/565/162 721/565/160 722/565/161
f 724/564/163 725/564/164 726/564/165
f 727/561/166 726/564/165 725/564/164
f 725/564/164 728/561/167 727/561/166
f 729/561/168 727/561/166 728/561/167
f 730/562/169 731/562/170 732/562/171
f 733/563/172 732/562/171 731/562/170
f 731/562/170 734/563/173 733/563/172
f 735/563/174 733/563/172 734/563/173
f 736/566/175 737/568/176 738/566/177
f 737/568/176 736/566/175 739/568/178
f 740/565/179 741/567/156 742/565/162
f 741/567/156 740/565/179 743/567/180
f 744/562/181 745/564/164 746/564/163
f 746/564/163 747/562/169 744/562/181
f 748/561/182 749/563/183 750/563/184
f 750/563/184 751/561/185 748/561/182
f 752/569/159 753/570/170 754/570/169
f 752/569/159 754/570/169 755/569/157
f 756/571/162 757/572/184 758/572/186
f 756/571/162 758/572/186 759/571/160
f 760/573/187 761/574/188 762/574/189
f 760/573/187 762/574/189 763/573/163
f 764/575/190 765/576/156 766/576/191
f 764/575/190 766/576/191 767/575/192
f 768/576/193 769/577/165 770/575/166
f 769/577/165 768/576/193 771/578/188
f 772/572/194 773/571/162 774/579/156
f 772/572/194 774/579/156 775/580/168
f 776/581/186 777/569/195 778/582/160
f 777/569/195 776/581/186 779/570/196
f 780/573/163 781/574/151 782/583/176
f 780/573/163 782/583/176 783/584/169
usemtl Leftarm2Mtl
f 784/561/143 785/562/197 786/563/145
f 785/562/197 784/561/143 787/564/146
f 788/565/147 789/566/148 790/567/149
f 789/566/148 788/565/147 791/568/150
f 792/566/198 793/566/152 794/566/153
f 793/566/152 795/567/154 794/566/153
f 795/567/154 793/566/152 796/567/155
f 796/567/155 797/567/156 795/567/154
f 798/568/157 799/568/158 800/568/199
f 801/565/160 800/568/199 799/568/158
f 799/568/158 802/565/161 801/565/160
f 803/565/162 801/565/160 802/565/161
f 804/564/163 805/564/200 806/564/165
f 807/561/192 806/564/165 805/564/200
f 805/564/200 808/561/167 807/561/192
f 809/561/185 807/561/192 808/561/167
f 810/562/169 811/562/170 812/562/171
f 813/563/172 812/562/171 811/562/170
f 811/562/170 814/563/186 813/563/172
f 815/563/184 813/563/172 814/563/186
f 816/566/175 817/568/201 818/566/151
f 817/568/201 816/566/175 819/568/202
f 820/565/179 821/567/156 822/565/162
f 821/567/156 820/565/179 823/567/203
f 824/562/204 825/564/164 826/564/163
f 826/564/163 827/562/169 824/562/204
f 828/561/205 829/563/183 830/563/184
f 830/563/184 831/561/185 828/561/205
f 832/569/159 833/570/206 834/570/169
f 832/569/159 834/570/169 835/569/157
f 836/571/162 837/572/184 838/572/207
f 836/571/162 838/572/207 839/571/160
f 840/573/165 841/574/152 842/574/198
f 840/573/165 842/574/198 843/573/163
f 844/575/185 845/576/156 846/576/208
f 844/575/185 846/576/208 847/575/192
f 848/576/208 849/577/165 850/575/166
f 849/577/165 848/576/208 851/578/188
f 852/572/194 853/571/162 854/579/156
f 852/572/194 854/579/156 855/580/168
f 856/581/186 857/569/195 858/582/160
f 857/569/195 856/581/186 859/570/196
f 860/573/163 861/574/151 862/583/157
f 860/573/163 862/583/157 863/584/169
