# Blender 5.1.2
# www.blender.org
mtllib hmmm pirate hook nomnom.mtl
o Fists
v -1.219668 -0.012170 -0.260858
v -1.233261 -0.755336 0.491911
v -1.236081 -0.007314 0.486990
v -1.216853 -0.760194 -0.255939
v 1.273552 0.002510 0.542004
v 1.292785 -0.750369 -0.200923
v 1.289964 -0.002346 -0.205843
v 1.276371 -0.745512 0.546925
v 1.259695 -0.794852 -0.201361
v 1.260500 -0.750788 -0.245995
v 1.292785 -0.750369 -0.200923
v 1.289964 -0.002346 -0.205843
v 1.257680 -0.002765 -0.250915
v 1.256539 0.041875 -0.206865
v 1.243283 -0.789995 0.546487
v 1.276371 -0.745512 0.546925
v 1.242141 -0.745355 0.590538
v 1.239321 0.002668 0.585617
v 1.273552 0.002510 0.542004
v 1.240127 0.046733 0.540983
v -1.183426 -0.804416 -0.254918
v -1.216853 -0.760194 -0.255939
v -1.182613 -0.760350 -0.299549
v -1.185438 -0.012329 -0.304471
v -1.219668 -0.012170 -0.260858
v -1.186578 0.032311 -0.260420
v -1.199837 -0.799558 0.492931
v -1.200977 -0.754918 0.536981
v -1.233261 -0.755336 0.491911
v -1.236081 -0.007314 0.486990
v -1.203797 -0.006895 0.532062
v -1.202991 0.037169 0.487428
v 1.292785 -0.750369 -0.200923
v 1.243283 -0.789995 0.546487
v 1.259695 -0.794852 -0.201361
v 1.276371 -0.745512 0.546925
v 1.273552 0.002510 0.542004
v 1.256539 0.041875 -0.206865
v 1.240127 0.046733 0.540983
v 1.289964 -0.002346 -0.205843
v -1.233261 -0.755336 0.491911
v -1.216853 -0.760194 -0.255939
v -1.183426 -0.804416 -0.254918
v -1.199837 -0.799558 0.492931
v -1.219668 -0.012170 -0.260858
v -1.236081 -0.007314 0.486990
v -1.202991 0.037169 0.487428
v -1.186578 0.032311 -0.260420
v 1.242141 -0.745355 0.590538
v -1.200977 -0.754918 0.536981
v -1.199837 -0.799558 0.492931
v 1.243283 -0.789995 0.546487
v 1.240127 0.046733 0.540983
v -1.202991 0.037169 0.487428
v -1.203797 -0.006895 0.532062
v 1.239321 0.002668 0.585617
v -1.182613 -0.760350 -0.299549
v 1.260500 -0.750788 -0.245995
v 1.259695 -0.794852 -0.201361
v -1.183426 -0.804416 -0.254918
v -1.186578 0.032311 -0.260420
v 1.256539 0.041875 -0.206865
v 1.257680 -0.002765 -0.250915
v -1.185438 -0.012329 -0.304471
v 1.257680 -0.002765 -0.250915
v -1.182613 -0.760350 -0.299549
v -1.185438 -0.012329 -0.304471
v 1.260500 -0.750788 -0.245995
v -1.202991 0.037169 0.487428
v 1.240127 0.046733 0.540983
v 1.256539 0.041875 -0.206865
v -1.186578 0.032311 -0.260420
v -1.203797 -0.006895 0.532062
v 1.242141 -0.745355 0.590538
v 1.239321 0.002668 0.585617
v -1.200977 -0.754918 0.536981
v -1.183426 -0.804416 -0.254918
v 1.259695 -0.794852 -0.201361
v 1.243283 -0.789995 0.546487
v -1.199837 -0.799558 0.492931
v -1.245260 -0.004810 -0.268994
v -1.259272 -0.762896 0.498911
v -1.262055 0.000108 0.493951
v -1.242480 -0.767815 -0.264036
v 1.299179 0.010130 0.550100
v 1.318758 -0.757790 -0.207885
v 1.315974 0.005213 -0.212844
v 1.301962 -0.752872 0.555061
v 1.272145 -0.818214 -0.209974
v 1.273149 -0.760024 -0.269165
v 1.318758 -0.757790 -0.207885
v 1.315974 0.005213 -0.212844
v 1.270347 0.006246 -0.274158
v 1.268895 0.065210 -0.215853
v 1.255427 -0.813266 0.555956
v 1.301962 -0.752872 0.555061
v 1.253778 -0.754363 0.614186
v 1.250976 0.011905 0.609193
v 1.299179 0.010130 0.550100
v 1.252089 0.070203 0.550273
v -1.195381 -0.827884 -0.264205
v -1.242480 -0.767815 -0.264036
v -1.194270 -0.769588 -0.323126
v -1.197076 -0.003319 -0.328120
v -1.245260 -0.004810 -0.268994
v -1.198723 0.055585 -0.269889
v -1.212193 -0.822892 0.501920
v -1.213643 -0.763927 0.560224
v -1.259272 -0.762896 0.498911
v -1.262055 0.000108 0.493951
v -1.216445 0.002340 0.555232
v -1.215441 0.060532 0.496041
v 1.318758 -0.757790 -0.207885
v 1.255427 -0.813266 0.555956
v 1.272145 -0.818214 -0.209974
v 1.301962 -0.752872 0.555061
v 1.299179 0.010130 0.550100
v 1.268895 0.065210 -0.215853
v 1.252089 0.070203 0.550273
v 1.315974 0.005213 -0.212844
v -1.259272 -0.762896 0.498911
v -1.242480 -0.767815 -0.264036
v -1.195381 -0.827884 -0.264205
v -1.212193 -0.822892 0.501920
v -1.245260 -0.004810 -0.268994
v -1.262055 0.000108 0.493951
v -1.215441 0.060532 0.496041
v -1.198723 0.055585 -0.269889
v 1.253778 -0.754363 0.614186
v -1.213643 -0.763927 0.560224
v -1.212193 -0.822892 0.501920
v 1.255427 -0.813266 0.555956
v 1.252089 0.070203 0.550273
v -1.215441 0.060532 0.496041
v -1.216445 0.002340 0.555232
v 1.250976 0.011905 0.609193
v -1.194270 -0.769588 -0.323126
v 1.273149 -0.760024 -0.269165
v 1.272145 -0.818214 -0.209974
v -1.195381 -0.827884 -0.264205
v -1.198723 0.055585 -0.269889
v 1.268895 0.065210 -0.215853
v 1.270347 0.006246 -0.274158
v -1.197076 -0.003319 -0.328120
v 1.270347 0.006246 -0.274158
v -1.194270 -0.769588 -0.323126
v -1.197076 -0.003319 -0.328120
v 1.273149 -0.760024 -0.269165
v -1.215441 0.060532 0.496041
v 1.252089 0.070203 0.550273
v 1.268895 0.065210 -0.215853
v -1.198723 0.055585 -0.269889
v -1.216445 0.002340 0.555232
v 1.253778 -0.754363 0.614186
v 1.250976 0.011905 0.609193
v -1.213643 -0.763927 0.560224
v -1.195381 -0.827884 -0.264205
v 1.272145 -0.818214 -0.209974
v 1.255427 -0.813266 0.555956
v -1.212193 -0.822892 0.501920
vn -0.9192 0.2642 -0.2922
vn -0.9298 -0.2701 0.2502
vn -0.9312 0.2660 0.2494
vn -0.9174 -0.2728 -0.2897
vn 0.9174 0.2727 0.2898
vn 0.9312 -0.2659 -0.2495
vn 0.9297 0.2702 -0.2502
vn 0.9192 -0.2643 0.2921
vn 0.4472 -0.8392 -0.3094
vn 0.4523 -0.3302 -0.8285
vn 0.9311 -0.2660 -0.2496
vn 0.9297 0.2702 -0.2503
vn 0.4530 0.3222 -0.8312
vn 0.4430 0.8366 -0.3223
vn 0.4352 -0.8339 0.3394
vn 0.9191 -0.2643 0.2924
vn 0.4178 -0.3234 0.8490
vn 0.4181 0.3314 0.8458
vn 0.9173 0.2728 0.2899
vn 0.4282 0.8402 0.3327
vn -0.4283 -0.8402 -0.3326
vn -0.9174 -0.2728 -0.2899
vn -0.4181 -0.3314 -0.8458
vn -0.4178 0.3234 -0.8490
vn -0.9191 0.2643 -0.2923
vn -0.4352 0.8339 -0.3394
vn -0.4430 -0.8366 0.3223
vn -0.4530 -0.3222 0.8312
vn -0.9297 -0.2702 0.2503
vn -0.9311 0.2660 0.2497
vn -0.4523 0.3302 0.8285
vn -0.4472 0.8392 0.3094
vn 0.9311 -0.2660 -0.2495
vn 0.4352 -0.8339 0.3393
vn 0.9191 -0.2644 0.2922
vn 0.9174 0.2728 0.2898
vn 0.4283 0.8402 0.3326
vn 0.9297 0.2703 -0.2502
vn -0.9297 -0.2702 0.2502
vn -0.9174 -0.2728 -0.2898
vn -0.4282 -0.8403 -0.3326
vn -0.9191 0.2644 -0.2921
vn -0.9311 0.2660 0.2495
vn -0.4352 0.8340 -0.3393
vn 0.4282 0.8403 0.3324
vn -0.4522 0.3302 0.8285
vn 0.4182 0.3314 0.8458
vn -0.4284 -0.8402 -0.3325
vn 0.4530 0.3222 -0.8313
vn -0.4182 -0.3314 -0.8457
vn 0.4523 -0.3303 -0.8284
vn 0.4282 0.8402 0.3326
vn -0.4352 0.8339 -0.3393
vn -0.4523 0.3303 0.8284
vn -0.4282 -0.8402 -0.3326
vn -0.9191 0.2643 -0.2922
vn -0.9298 -0.2702 0.2502
vn -0.9174 -0.2727 -0.2898
vn 0.9298 0.2702 -0.2502
vn 0.9191 -0.2643 0.2921
vn 0.4531 0.3222 -0.8312
vn 0.9191 -0.2643 0.2923
vn 0.4182 0.3314 0.8457
vn 0.9174 0.2728 0.2899
vn -0.9297 -0.2702 0.2504
vn -0.9311 0.2660 0.2496
vn -0.4472 0.8392 0.3095
vn 0.4352 -0.8340 0.3393
vn 0.9191 -0.2643 0.2922
vn 0.4282 0.8403 0.3326
vn -0.9311 0.2661 0.2495
vn 0.4178 -0.3234 0.8491
vn -0.4530 -0.3222 0.8313
vn -0.4430 -0.8366 0.3222
vn 0.4182 0.3313 0.8458
vn 0.4472 -0.8392 -0.3093
vn 0.4431 0.8365 -0.3223
vn 0.4522 -0.3303 -0.8285
vn -0.4522 0.3303 0.8285
vn 0.4179 -0.3234 0.8490
vn -0.4530 -0.3223 0.8312
vn 0.4473 -0.8392 -0.3094
vt 0.372650 0.019678
vt 0.478632 0.130590
vt 0.372650 0.130590
vt 0.478632 0.019678
vt 0.478632 0.481216
vt 0.372650 0.370304
vt 0.478632 0.370304
vt 0.372650 0.481216
vt 0.478632 0.363148
vt 0.478632 0.137746
vt 0.365812 0.363148
vt 0.365812 0.137746
vt 0.140171 0.137746
vt 0.140171 0.363148
vt 0.252991 0.137746
vt 0.252991 0.363148
vt 0.147009 0.137746
vt 0.147009 0.363148
vt 0.259829 0.363148
vt 0.259829 0.137746
vt 0.372650 0.137746
vt 0.372650 0.363148
vt 0.034188 0.363148
vt 0.034188 0.137746
s 1
usemtl Leftarm1Mtl
f 1/1/1 2/2/2 3/3/3
f 2/2/2 1/1/1 4/4/4
f 5/5/5 6/6/6 7/7/7
f 6/6/6 5/5/5 8/8/8
f 9/6/9 10/6/10 11/6/11
f 10/6/10 12/7/12 11/6/11
f 12/7/12 10/6/10 13/7/13
f 13/7/13 14/7/14 12/7/12
f 15/8/15 16/8/16 17/8/17
f 18/5/18 17/8/17 16/8/16
f 16/8/16 19/5/19 18/5/18
f 20/5/20 18/5/18 19/5/19
f 21/4/21 22/4/22 23/4/23
f 24/1/24 23/4/23 22/4/22
f 22/4/22 25/1/25 24/1/24
f 26/1/26 24/1/24 25/1/25
f 27/2/27 28/2/28 29/2/29
f 30/3/30 29/2/29 28/2/28
f 28/2/28 31/3/31 30/3/30
f 32/3/32 30/3/30 31/3/31
f 33/6/33 34/8/34 35/6/9
f 34/8/34 33/6/33 36/8/35
f 37/5/36 38/7/14 39/5/37
f 38/7/14 37/5/36 40/7/38
f 41/2/39 42/4/40 43/4/41
f 43/4/41 44/2/27 41/2/39
f 45/1/42 46/3/43 47/3/32
f 47/3/32 48/1/44 45/1/42
f 49/9/17 50/10/28 51/10/27
f 49/9/17 51/10/27 52/9/34
f 53/11/45 54/12/32 55/12/46
f 53/11/45 55/12/46 56/11/47
f 57/13/23 58/14/10 59/14/9
f 57/13/23 59/14/9 60/13/48
f 61/15/44 62/16/14 63/16/49
f 61/15/44 63/16/49 64/15/24
f 65/16/13 66/17/50 67/15/24
f 66/17/50 65/16/13 68/18/51
f 69/12/32 70/11/52 71/19/14
f 69/12/32 71/19/14 72/20/53
f 73/21/54 74/9/17 75/22/18
f 74/9/17 73/21/54 76/10/28
f 77/13/55 78/14/9 79/23/34
f 77/13/55 79/23/34 80/24/27
usemtl Leftarm2Mtl
f 81/1/56 82/2/57 83/3/3
f 82/2/57 81/1/56 84/4/58
f 85/5/5 86/6/6 87/7/59
f 86/6/6 85/5/5 88/8/60
f 89/6/9 90/6/51 91/6/11
f 90/6/51 92/7/12 91/6/11
f 92/7/12 90/6/51 93/7/61
f 93/7/61 94/7/14 92/7/12
f 95/8/15 96/8/62 97/8/17
f 98/5/63 97/8/17 96/8/62
f 96/8/62 99/5/64 98/5/63
f 100/5/52 98/5/63 99/5/64
f 101/4/21 102/4/22 103/4/23
f 104/1/24 103/4/23 102/4/22
f 102/4/22 105/1/25 104/1/24
f 106/1/53 104/1/24 105/1/25
f 107/2/27 108/2/28 109/2/65
f 110/3/66 109/2/65 108/2/28
f 108/2/28 111/3/31 110/3/66
f 112/3/67 110/3/66 111/3/31
f 113/6/33 114/8/68 115/6/9
f 114/8/68 113/6/33 116/8/69
f 117/5/36 118/7/14 119/5/70
f 118/7/14 117/5/36 120/7/38
f 121/2/39 122/4/40 123/4/41
f 123/4/41 124/2/27 121/2/39
f 125/1/42 126/3/71 127/3/32
f 127/3/32 128/1/53 125/1/42
f 129/9/72 130/10/73 131/10/74
f 129/9/72 131/10/74 132/9/34
f 133/11/52 134/12/32 135/12/46
f 133/11/52 135/12/46 136/11/75
f 137/13/23 138/14/10 139/14/76
f 137/13/23 139/14/76 140/13/21
f 141/15/44 142/16/77 143/16/49
f 141/15/44 143/16/49 144/15/24
f 145/16/61 146/17/23 147/15/24
f 146/17/23 145/16/61 148/18/78
f 149/12/32 150/11/37 151/19/14
f 149/12/32 151/19/14 152/20/53
f 153/21/79 154/9/80 155/22/18
f 154/9/80 153/21/79 156/10/81
f 157/13/41 158/14/82 159/23/34
f 157/13/41 159/23/34 160/24/74
o Pirate_Hook
v -1.999473 -0.795810 0.644066
v -1.563961 -0.809760 0.661767
v -1.564387 -0.953951 0.507023
v -1.999883 -0.934112 0.495642
v -1.572754 -0.926374 -0.274747
v -2.007892 -0.907715 -0.252690
v -2.010551 -0.759298 -0.390976
v -1.575528 -0.771638 -0.418921
v -1.346203 -0.816733 0.670617
v -1.128892 -0.973791 0.518401
v -1.128446 -0.823708 0.679468
v -1.346639 -0.963871 0.512711
v -1.137616 -0.945034 -0.296802
v -1.355185 -0.935705 -0.285774
v -1.358013 -0.777807 -0.432894
v -1.140501 -0.783975 -0.446868
v -2.010551 -0.759298 -0.390976
v -1.575528 -0.771638 -0.418921
v -2.016421 -0.010948 -0.364516
v -1.581660 0.010150 -0.391277
v -1.358013 -0.777807 -0.432894
v -1.140501 -0.783975 -0.446868
v -1.146896 0.031245 -0.418042
v -1.364277 0.020698 -0.404660
v -1.075723 -0.758639 0.595948
v -1.128892 -0.973791 0.518401
v -1.076101 -0.886034 0.459229
v -1.083506 -0.861624 -0.232735
v -1.128446 -0.823708 0.679468
v -1.137616 -0.945034 -0.296802
v -1.134842 -0.008486 0.708294
v -1.140501 -0.783975 -0.446868
v -1.081152 -0.066658 0.620415
v -1.085956 -0.724914 -0.360116
v -1.083601 0.070051 0.493035
v -1.091384 -0.032933 -0.335649
v -1.137728 0.152573 0.558228
v -1.146896 0.031245 -0.418042
v -1.146452 0.181329 -0.256973
v -1.091007 0.094461 -0.198929
v -1.081152 -0.066658 0.620415
v -1.075723 -0.758639 0.595948
v -1.438522 -0.398701 0.133847
v -1.076101 -0.886034 0.459229
v -1.083601 0.070051 0.493035
v -1.083506 -0.861624 -0.232735
v -1.091007 0.094461 -0.198929
v -1.085956 -0.724914 -0.360116
v -1.091384 -0.032933 -0.335649
v -2.005345 -0.047460 0.670527
v -1.570094 -0.027972 0.689409
v -1.572866 0.126763 0.545235
v -2.008004 0.100956 0.532242
v -2.016012 0.127355 -0.216092
v -1.581233 0.154340 -0.236533
v -2.016421 -0.010948 -0.364516
v -1.581660 0.010150 -0.391277
v -1.352468 -0.018230 0.698852
v -1.134842 -0.008486 0.708294
v -1.137728 0.152573 0.558228
v -1.355296 0.139668 0.551732
v -1.363842 0.167835 -0.246754
v -1.146896 0.031245 -0.418042
v -1.146452 0.181329 -0.256973
v -1.364277 0.020698 -0.404660
v -2.005345 -0.047460 0.670527
v -1.999473 -0.795810 0.644066
v -1.563961 -0.809760 0.661767
v -1.570094 -0.027972 0.689409
v -1.346203 -0.816733 0.670617
v -1.128446 -0.823708 0.679468
v -1.352468 -0.018230 0.698852
v -1.134842 -0.008486 0.708294
v -2.076588 -0.038887 -0.303794
v -2.071114 -0.736663 -0.328467
v -2.061648 -0.872740 0.473146
v -2.069115 -0.848125 -0.224612
v -2.061340 -0.768874 0.584615
v -2.066815 -0.071097 0.609288
v -2.068812 0.040365 0.505434
v -2.076280 0.064979 -0.192325
v -1.999473 -0.795810 0.644066
v -2.061648 -0.872740 0.473146
v -1.999883 -0.934112 0.495642
v -2.069115 -0.848125 -0.224612
v -2.061340 -0.768874 0.584615
v -2.007892 -0.907715 -0.252690
v -2.005345 -0.047460 0.670527
v -2.071114 -0.736663 -0.328467
v -2.066815 -0.071097 0.609288
v -2.010551 -0.759298 -0.390976
v -2.008004 0.100956 0.532242
v -2.076588 -0.038887 -0.303794
v -2.068812 0.040365 0.505434
v -2.016421 -0.010948 -0.364516
v -2.016012 0.127355 -0.216092
v -2.076280 0.064979 -0.192325
v -1.346034 -0.816782 0.670591
v -1.563793 -0.809807 0.661741
v -1.575358 -0.771684 -0.418948
v -1.564220 -0.953998 0.506997
v -1.357843 -0.777854 -0.432920
v -1.346469 -0.963918 0.512685
v -1.572586 -0.926421 -0.274774
v -1.355015 -0.935751 -0.285801
v -1.364108 0.020651 -0.404686
v -1.581491 0.010103 -0.391305
v -1.575358 -0.771684 -0.418948
v -1.357843 -0.777854 -0.432920
v -1.581063 0.154294 -0.236560
v -1.572697 0.126716 0.545210
v -1.355126 0.139621 0.551705
v -1.352298 -0.018276 0.698825
v -1.363673 0.167789 -0.246779
v -1.569926 -0.028019 0.689383
v -1.364108 0.020651 -0.404686
v -1.581491 0.010103 -0.391305
v -1.352298 -0.018276 0.698825
v -1.569926 -0.028019 0.689383
v -1.346034 -0.816782 0.670591
v -1.563793 -0.809807 0.661741
v -2.206348 -0.400464 -0.008196
v -2.049752 -0.399804 0.007819
v -2.203552 -0.556048 0.136755
v -2.366706 -0.556580 0.098978
v -2.300125 -0.400408 -0.030481
v -2.440568 -0.399028 -0.100513
v -2.520372 -0.542410 0.007330
v -2.581669 -0.397204 -0.183250
v -2.657090 -0.529054 -0.085527
v -2.760404 -0.395580 -0.268679
v -2.819452 -0.527669 -0.160567
v -2.977483 -0.395191 -0.327678
v -2.982481 -0.527383 -0.204705
v -3.160739 -0.529586 -0.181906
v -3.215364 -0.398271 -0.293241
v -3.329359 -0.520974 -0.086980
v -3.402058 -0.404028 -0.171992
v -3.543009 -0.411415 0.005386
v -3.452601 -0.515824 0.053239
v -3.615136 -0.419188 0.209058
v -3.518950 -0.517720 0.229918
v -3.498536 -0.509783 0.425650
v -3.574974 -0.427911 0.464271
v -3.377098 -0.499013 0.593076
v -3.413764 -0.433337 0.653097
v -3.265479 -0.434459 0.717639
v -3.241778 -0.476916 0.678841
v -2.203552 -0.556048 0.136755
v -2.046895 -0.409173 0.273054
v -2.203112 -0.411080 0.292347
v -2.047286 -0.537108 0.135741
v -2.366706 -0.556580 0.098978
v -2.435649 -0.411016 0.239118
v -2.602348 -0.408281 0.124999
v -2.520372 -0.542410 0.007330
v -2.734510 -0.405642 0.021233
v -2.657090 -0.529054 -0.085527
v -2.819452 -0.527669 -0.160567
v -2.880501 -0.404495 -0.043418
v -2.982481 -0.527383 -0.204705
v -2.989476 -0.404314 -0.072690
v -3.108110 -0.405634 -0.061536
v -3.160739 -0.529586 -0.181906
v -3.258458 -0.409211 0.006131
v -3.329359 -0.520974 -0.086980
v -3.363808 -0.413655 0.108406
v -3.452601 -0.515824 0.053239
v -3.518950 -0.517720 0.229918
v -3.424300 -0.419422 0.257746
v -3.423390 -0.424198 0.392951
v -3.498536 -0.509783 0.425650
v -3.341502 -0.428690 0.537873
v -3.377098 -0.499013 0.593076
v -3.218762 -0.431455 0.643155
v -3.241778 -0.476916 0.678841
v -3.145020 -0.433540 0.718301
v -2.049752 -0.399804 0.007819
v -2.203552 -0.556048 0.136755
v -2.047286 -0.537108 0.135741
v -2.977483 -0.395191 -0.327678
v -2.982481 -0.527383 -0.204705
v -3.160739 -0.529586 -0.181906
v -3.215364 -0.398271 -0.293241
v -2.977483 -0.395191 -0.327678
v -2.984478 -0.272121 -0.195667
v -3.162733 -0.274323 -0.172869
v -3.215364 -0.398271 -0.293241
v -3.520486 -0.320888 0.236886
v -3.424300 -0.419422 0.257746
v -3.423390 -0.424198 0.392951
v -3.499845 -0.342331 0.431578
v -3.518950 -0.517720 0.229918
v -3.424300 -0.419422 0.257746
v -3.423390 -0.424198 0.392951
v -3.498536 -0.509783 0.425650
v -2.369070 -0.254846 0.109661
v -2.206348 -0.400464 -0.008196
v -2.300125 -0.400408 -0.030481
v -2.440568 -0.399028 -0.100513
v -2.205907 -0.255496 0.147398
v -2.049752 -0.399804 0.007819
v -2.049361 -0.271868 0.145132
v -2.522545 -0.264900 0.017155
v -2.581669 -0.397204 -0.183250
v -2.659089 -0.273791 -0.076490
v -2.760404 -0.395580 -0.268679
v -2.821452 -0.272407 -0.151528
v -2.977483 -0.395191 -0.327678
v -2.984478 -0.272121 -0.195667
v -3.162733 -0.274323 -0.172869
v -3.215364 -0.398271 -0.293241
v -3.331155 -0.292267 -0.078879
v -3.402058 -0.404028 -0.171992
v -3.543009 -0.411415 0.005386
v -3.454215 -0.309249 0.060552
v -3.615136 -0.419188 0.209058
v -3.520486 -0.320888 0.236886
v -3.499845 -0.342331 0.431578
v -3.574974 -0.427911 0.464271
v -3.378169 -0.363014 0.597894
v -3.413764 -0.433337 0.653097
v -3.265479 -0.434459 0.717639
v -3.242462 -0.389001 0.681953
v -2.205907 -0.255496 0.147398
v -2.203112 -0.411080 0.292347
v -2.046895 -0.409173 0.273054
v -2.369070 -0.254846 0.109661
v -2.435649 -0.411016 0.239118
v -2.602348 -0.408281 0.124999
v -2.522545 -0.264900 0.017155
v -2.734510 -0.405642 0.021233
v -2.659089 -0.273791 -0.076490
v -2.821452 -0.272407 -0.151528
v -2.880501 -0.404495 -0.043418
v -2.984478 -0.272121 -0.195667
v -2.989476 -0.404314 -0.072690
v -3.108110 -0.405634 -0.061536
v -3.162733 -0.274323 -0.172869
v -3.258458 -0.409211 0.006131
v -3.331155 -0.292267 -0.078879
v -3.363808 -0.413655 0.108406
v -3.454215 -0.309249 0.060552
v -3.520486 -0.320888 0.236886
v -3.424300 -0.419422 0.257746
v -3.423390 -0.424198 0.392951
v -3.499845 -0.342331 0.431578
v -3.341502 -0.428690 0.537873
v -3.378169 -0.363014 0.597894
v -3.218762 -0.431455 0.643155
v -3.242462 -0.389001 0.681953
v -3.145020 -0.433540 0.718301
v -3.265479 -0.434459 0.717639
v -3.241778 -0.476916 0.678841
v -3.145020 -0.433540 0.718301
v -3.265479 -0.434459 0.717639
v -3.242462 -0.389001 0.681953
v -3.145020 -0.433540 0.718301
v -2.205907 -0.255496 0.147398
v -2.203112 -0.411080 0.292347
v -2.046895 -0.409173 0.273054
v -2.049361 -0.271868 0.145132
v -2.369070 -0.254846 0.109661
v -2.435649 -0.411016 0.239118
v -2.984478 -0.272121 -0.195667
v -2.989476 -0.404314 -0.072690
v -3.108110 -0.405634 -0.061536
v -3.162733 -0.274323 -0.172869
v -2.203112 -0.411080 0.292347
v -2.366706 -0.556580 0.098978
v -2.435649 -0.411016 0.239118
v -2.982481 -0.527383 -0.204705
v -2.989476 -0.404314 -0.072690
v -3.108110 -0.405634 -0.061536
v -3.160739 -0.529586 -0.181906
v -3.615136 -0.419188 0.209058
v -3.518950 -0.517720 0.229918
v -3.498536 -0.509783 0.425650
v -3.574974 -0.427911 0.464271
v -3.615136 -0.419188 0.209058
v -3.520486 -0.320888 0.236886
v -3.499845 -0.342331 0.431578
v -3.574974 -0.427911 0.464271
vn -0.0463 -0.4116 0.9102
vn -0.0545 -0.9339 0.3534
vn -0.0550 -0.4172 0.9072
vn -0.0560 -0.9365 0.3462
vn -0.0581 -0.9065 -0.4181
vn -0.0608 -0.9117 -0.4063
vn -0.0680 -0.3493 -0.9345
vn -0.0680 -0.3492 -0.9346
vn -0.0745 0.4160 -0.9063
vn -0.0729 0.4062 -0.9109
vn 0.8837 -0.1593 0.4401
vn 0.8918 -0.4193 0.1698
vn 0.8844 -0.4505 0.1220
vn 0.8821 -0.4367 -0.1768
vn 0.8900 -0.2040 0.4077
vn 0.8868 -0.4076 -0.2177
vn 0.8886 0.1841 0.4201
vn 0.8830 -0.1714 -0.4369
vn 0.8842 0.1412 0.4453
vn 0.8773 -0.1265 -0.4630
vn 0.8779 0.4531 0.1552
vn 0.8722 0.1726 -0.4576
vn 0.8844 0.4205 0.2024
vn 0.8809 0.2158 -0.4213
vn 0.8816 0.4343 -0.1847
vn 0.8744 0.4641 -0.1412
vn 0.8495 -0.1932 -0.4910
vn 0.8440 0.2435 -0.4779
vn 0.9999 0.0134 -0.0094
vn 0.8449 0.4928 -0.2082
vn 0.8557 -0.4580 -0.2407
vn 0.8528 0.4717 0.2243
vn 0.8593 -0.4750 0.1899
vn 0.8567 0.2046 0.4735
vn 0.8594 -0.2249 0.4592
vn -0.0643 0.9074 0.4152
vn -0.0570 0.3418 0.9381
vn -0.0545 0.3524 0.9343
vn -0.0643 0.9075 0.4152
vn -0.0734 0.9353 -0.3463
vn -0.0747 0.9325 -0.3534
vn -0.0728 0.4064 -0.9108
vn -0.0745 0.4161 -0.9063
vn -0.0544 0.3524 0.9343
vn -0.0734 0.9352 -0.3463
vn -0.0570 0.3416 0.9381
vn -0.0463 -0.4115 0.9102
vn -0.0549 -0.4170 0.9072
vn -0.0545 0.3522 0.9343
vn -0.9999 -0.0061 0.0083
vn -0.9999 -0.0061 0.0082
vn -0.9999 -0.0062 0.0082
vn -0.7290 -0.2857 0.6221
vn -0.7235 -0.6450 0.2459
vn -0.7236 -0.6450 0.2458
vn -0.7337 -0.6209 -0.2760
vn -0.7337 -0.6209 -0.2761
vn -0.7304 0.2323 0.6423
vn -0.7398 -0.2424 -0.6277
vn -0.7304 0.2322 0.6423
vn -0.7362 0.6116 0.2899
vn -0.7454 0.2734 -0.6080
vn -0.7361 0.6116 0.2899
vn -0.7454 0.2733 -0.6080
vn -0.7439 0.6271 -0.2310
vn -0.0550 -0.4171 0.9072
vn -0.0546 -0.9339 0.3534
vn -0.0580 -0.9065 -0.4181
vn -0.0644 0.9074 0.4153
vn 0.1291 -0.6735 -0.7278
vn 0.0792 -0.6794 -0.7295
vn 0.1221 -0.6764 -0.7263
vn 0.2521 -0.6773 -0.6911
vn 0.2436 -0.6768 -0.6947
vn 0.3444 -0.6805 -0.6468
vn 0.3445 -0.6805 -0.6467
vn 0.3410 -0.6783 -0.6508
vn 0.3347 -0.6823 -0.6500
vn 0.2522 -0.6772 -0.6912
vn 0.2505 -0.6733 -0.6957
vn 0.0532 -0.6803 -0.7310
vn -0.4688 -0.6948 -0.5454
vn -0.2426 -0.6886 -0.6833
vn -0.2357 -0.6847 -0.6897
vn -0.6151 -0.6977 -0.3674
vn -0.6112 -0.6989 -0.3714
vn -0.6994 -0.7080 -0.0982
vn -0.7031 -0.7064 -0.0812
vn -0.4315 -0.7290 0.5313
vn -0.6418 -0.7168 0.2724
vn -0.6484 -0.7138 0.2646
vn -0.4127 -0.7296 0.5452
vn -0.1656 -0.7109 0.6835
vn -0.1533 -0.7104 0.6869
vn -0.0391 -0.7306 0.6817
vn 0.0903 -0.7278 0.6799
vn -0.0289 -0.7333 0.6793
vn -0.2711 -0.7303 0.6270
vn -0.2712 -0.7304 0.6269
vn -0.2793 -0.7332 0.6200
vn -0.4128 -0.7297 0.5452
vn -0.4127 -0.7297 0.5452
vn -0.3595 -0.7277 0.5841
vn -0.3670 -0.7298 0.5768
vn -0.2382 -0.7280 0.6428
vn -0.2300 -0.7249 0.6494
vn -0.0461 -0.7305 0.6814
vn -0.0461 -0.7305 0.6813
vn 0.4084 -0.7248 0.5548
vn 0.2031 -0.7235 0.6598
vn 0.1881 -0.7261 0.6614
vn 0.4085 -0.7248 0.5548
vn 0.5894 -0.7173 0.3716
vn 0.5894 -0.7207 0.3649
vn 0.7044 -0.7002 0.1164
vn 0.7084 -0.6989 0.0983
vn 0.5627 -0.6801 -0.4698
vn 0.6932 -0.6853 -0.2232
vn 0.6968 -0.6870 -0.2063
vn 0.5505 -0.6798 -0.4846
vn 0.4899 -0.6790 -0.5468
vn 0.5180 -0.6727 -0.5284
vn 0.1220 -0.6764 -0.7263
vn -0.2355 -0.6847 -0.6897
vn 0.0531 -0.6803 -0.7310
vn -0.2424 -0.6886 -0.6834
vn 0.0389 0.7305 -0.6818
vn -0.2425 0.7303 -0.6386
vn -0.2587 0.7294 -0.6333
vn 0.6897 0.7050 0.1651
vn 0.6849 0.7100 -0.1637
vn 0.6944 0.7042 0.1480
vn 0.6841 0.7089 -0.1713
vn 0.6968 -0.6870 -0.2062
vn 0.7033 -0.7014 0.1158
vn 0.7085 -0.6989 0.0982
vn 0.6932 -0.6854 -0.2230
vn 0.2382 0.7280 -0.6428
vn 0.1178 0.7261 -0.6774
vn 0.2322 0.7289 -0.6441
vn 0.3297 0.7318 -0.5964
vn 0.1112 0.7266 -0.6780
vn 0.0648 0.7320 -0.6782
vn 0.3351 0.7304 -0.5952
vn 0.3274 0.7280 -0.6023
vn 0.3273 0.7281 -0.6023
vn 0.2424 0.7247 -0.6450
vn 0.0390 0.7305 -0.6818
vn 0.0391 0.7305 -0.6817
vn -0.2589 0.7294 -0.6332
vn -0.4788 0.7220 -0.4995
vn -0.2426 0.7303 -0.6386
vn -0.6253 0.7139 -0.3153
vn -0.6252 0.7140 -0.3153
vn -0.7112 0.7013 -0.0488
vn -0.7133 0.7001 -0.0317
vn -0.6510 0.6869 0.3231
vn -0.4472 0.6789 0.5823
vn -0.6577 0.6847 0.3140
vn -0.4211 0.6850 0.5945
vn -0.1761 0.6617 0.7288
vn -0.1645 0.6581 0.7347
vn -0.0532 0.6803 0.7310
vn -0.0344 0.6783 0.7339
vn 0.0833 0.6812 0.7273
vn -0.2846 0.6811 0.6746
vn -0.2847 0.6812 0.6745
vn -0.4273 0.6808 0.5949
vn -0.2959 0.6836 0.6672
vn -0.3662 0.6839 0.6310
vn -0.3770 0.6854 0.6229
vn -0.2504 0.6733 0.6956
vn -0.2407 0.6745 0.6979
vn -0.0604 0.6777 0.7328
vn 0.1914 0.6792 0.7086
vn 0.3957 0.6852 0.6114
vn 0.1809 0.6825 0.7081
vn 0.3957 0.6853 0.6114
vn 0.5785 0.7011 0.4170
vn 0.5785 0.7010 0.4170
vn 0.6943 0.7042 0.1482
vn 0.6841 0.7089 -0.1715
vn 0.5528 0.7193 -0.4207
vn 0.6848 0.7100 -0.1638
vn 0.5400 0.7205 -0.4351
vn 0.4804 0.7217 -0.4984
vn 0.4804 0.7216 -0.4985
vn 0.5054 0.7185 -0.4779
vn -0.1655 -0.7109 0.6836
vn -0.1533 -0.7104 0.6870
vn 0.0024 -0.6737 0.7390
vn -0.1643 0.6581 0.7348
vn -0.1759 0.6617 0.7288
vn -0.0087 0.6201 0.7845
vn -0.2958 0.6835 0.6673
vn -0.0345 0.6783 0.7339
vn 0.1808 0.6825 0.7081
vn 0.1913 0.6791 0.7087
vn -0.2791 -0.7332 0.6201
vn 0.1879 -0.7261 0.6614
vn -0.0459 -0.7305 0.6814
vn -0.0460 -0.7305 0.6814
vn -0.6994 -0.7080 -0.0981
vn -0.7032 -0.7064 -0.0810
vn -0.6419 -0.7168 0.2723
vn -0.7113 0.7012 -0.0486
vn -0.6578 0.6847 0.3138
vn -0.7134 0.7001 -0.0316
vn -0.6511 0.6869 0.3230
vt 22.239300 -11.287100
vt 21.998100 -11.216800
vt 21.998100 -11.299700
vt 22.239300 -11.207500
vt 21.998100 -10.783200
vt 22.239300 -10.792500
vt 22.239300 -10.712900
vt 21.998100 -10.700300
vt 21.877501 -11.306000
vt 21.756901 -11.226100
vt 21.756901 -11.312400
vt 21.877501 -11.221400
vt 21.756901 -10.773900
vt 21.877501 -10.778600
vt 21.877501 -10.694000
vt 21.756901 -10.687600
vt 21.792500 -11.239300
vt 22.216801 -10.998100
vt 21.783199 -10.998100
vt 22.207500 -11.239300
vt 21.778601 -10.877500
vt 22.226101 -10.756900
vt 21.773899 -10.756900
vt 22.221399 -10.877500
vt 22.191900 -11.265200
vt 22.312401 -11.226100
vt 22.265200 -11.191900
vt 22.265200 -10.808100
vt 22.226101 -11.312400
vt 22.312401 -10.773900
vt 21.773899 -11.312400
vt 22.226101 -10.687600
vt 21.808100 -11.265200
vt 22.191900 -10.734800
vt 21.734800 -11.191900
vt 21.808100 -10.734800
vt 21.687599 -11.226100
vt 21.773899 -10.687600
vt 21.687599 -10.773900
vt 21.734800 -10.808100
vt 22.000000 -11.000000
vt 22.001900 -11.216800
vt 21.760700 -11.287100
vt 22.001900 -11.299700
vt 21.760700 -11.207500
vt 21.760700 -10.792500
vt 22.001900 -10.783200
vt 21.760700 -10.712900
vt 22.001900 -10.700300
vt 22.243099 -11.226100
vt 22.122499 -11.306000
vt 22.243099 -11.312400
vt 22.122499 -11.221400
vt 22.122499 -10.778600
vt 22.243099 -10.773900
vt 22.122499 -10.694000
vt 22.243099 -10.687600
vt 22.193501 -10.746800
vt 21.806499 -10.746800
vt 21.746799 -11.193500
vt 21.746799 -10.806500
vt 21.806499 -11.253200
vt 22.193501 -11.253200
vt 22.253201 -11.193500
vt 22.253201 -10.806500
vt 21.792500 -11.287100
vt 21.712900 -11.207500
vt 21.712900 -10.792500
vt 22.207500 -11.287100
vt 21.792500 -10.712900
vt 22.287100 -11.207500
vt 22.207500 -10.712900
vt 22.287100 -10.792500
vt 34.060299 -27.299700
vt 34.060299 -27.216801
vt 33.939701 -27.306000
vt 33.939701 -27.221399
vt 33.939701 -26.694000
vt 34.060299 -26.783199
vt 34.060299 -26.700300
vt 33.939701 -26.778601
vt 33.783199 -27.060301
vt 34.216801 -27.060301
vt 34.221500 -26.939699
vt 33.778500 -26.939699
vt 33.939701 -26.783199
vt 33.939701 -27.216801
vt 34.060299 -27.221399
vt 34.060299 -27.306000
vt 34.060299 -26.778601
vt 33.939701 -27.299700
vt 34.060299 -26.694000
vt 33.939701 -26.700300
vt -0.463643 1.143860
vt -0.579247 1.130800
vt -0.463643 1.032730
vt -0.343363 1.061910
vt -0.394515 1.161070
vt -0.291279 1.213940
vt -0.230600 1.131190
vt -0.187659 1.276220
vt -0.130367 1.201210
vt -0.056245 1.340780
vt -0.010971 1.257960
vt 0.103716 1.386090
vt 0.109163 1.291860
vt 0.366379 1.207840
vt 0.279797 1.362470
vt 0.241087 1.276380
vt 0.418736 1.274260
vt 0.524312 1.144180
vt 0.458505 1.105400
vt 0.579247 0.994126
vt 0.508917 0.975386
vt 0.406791 0.706531
vt 0.551593 0.805091
vt 0.495297 0.830873
vt 0.433953 0.664209
vt 0.324876 0.615331
vt 0.307317 0.642690
vt -0.579247 0.934647
vt -0.463643 0.921590
vt -0.579247 1.032730
vt -0.292211 0.962755
vt -0.169921 1.048440
vt -0.073073 1.126190
vt 0.034304 1.175130
vt 0.114609 1.197630
vt 0.314023 1.141420
vt 0.202377 1.190300
vt 0.392700 1.066610
vt 0.438588 0.956646
vt 0.379628 0.748855
vt 0.439001 0.856655
vt 0.289759 0.670049
vt 0.235857 0.613909
vt -0.111136 1.463640
vt -0.000000 1.579250
vt -0.098079 1.579250
vt -0.094389 0.758913
vt -0.000000 0.896284
vt -0.094389 0.890837
vt -0.000000 0.720203
vt 0.094389 0.758913
vt 0.094389 0.890837
vt -0.072783 0.975386
vt -0.000000 0.856655
vt -0.000000 0.956646
vt -0.061919 0.830873
vt 0.072783 0.975386
vt 0.061919 0.830873
vt 0.343363 1.061910
vt 0.463643 1.143860
vt 0.394515 1.161070
vt 0.291279 1.213940
vt 0.463643 1.032730
vt 0.579247 1.130800
vt 0.579247 1.032730
vt 0.230600 1.131190
vt 0.187659 1.276220
vt 0.130367 1.201210
vt 0.056245 1.340780
vt 0.010971 1.257960
vt -0.103716 1.386090
vt -0.109163 1.291860
vt -0.279797 1.362470
vt -0.366379 1.207840
vt -0.241087 1.276380
vt -0.418736 1.274260
vt -0.524312 1.144180
vt -0.458505 1.105400
vt -0.579247 0.994126
vt -0.508917 0.975386
vt -0.551593 0.805091
vt -0.406791 0.706531
vt -0.495297 0.830873
vt -0.433953 0.664209
vt -0.324876 0.615331
vt -0.307317 0.642690
vt 0.463643 0.921590
vt 0.579247 0.934647
vt 0.169921 1.048440
vt 0.292211 0.962755
vt 0.073073 1.126190
vt -0.034304 1.175130
vt -0.114609 1.197630
vt -0.314023 1.141420
vt -0.202377 1.190300
vt -0.392700 1.066610
vt -0.438588 0.956646
vt -0.379628 0.748855
vt -0.439001 0.856655
vt -0.289759 0.670049
vt -0.235857 0.613909
vt -0.000000 0.675124
vt 0.032508 0.692683
vt -0.000000 0.764143
vt -0.032508 0.692683
vt -0.111573 1.343360
vt -0.000000 1.292210
vt -0.000000 1.463640
vt 0.000000 0.797623
vt 0.000000 0.885391
vt 0.111573 1.343360
vt 0.000000 0.994126
vt 0.000000 0.805091
s 1
usemtl Meshpart1Mtl
f 161/25/83 163/26/84 162/27/85
f 163/26/84 161/25/83 164/28/86
f 164/28/86 165/29/87 163/26/84
f 165/29/87 164/28/86 166/30/88
f 165/29/87 166/30/88 167/31/89
f 167/31/89 168/32/89 165/29/87
f 169/33/83 170/34/84 171/35/85
f 170/34/84 169/33/83 172/36/86
f 172/36/86 173/37/87 170/34/84
f 172/36/86 174/38/88 173/37/87
f 174/38/88 175/39/89 173/37/87
f 175/39/89 176/40/89 173/37/87
f 177/41/90 180/42/91 178/43/90
f 177/41/90 179/44/92 180/42/91
f 181/45/90 183/46/91 182/47/90
f 181/45/90 184/48/92 183/46/91
f 185/49/93 186/50/94 187/51/95
f 188/52/96 187/51/95 186/50/94
f 186/50/94 185/49/93 189/53/97
f 186/50/94 190/54/98 188/52/96
f 191/55/99 189/53/97 185/49/93
f 192/56/100 188/52/96 190/54/98
f 191/55/99 185/49/93 193/57/101
f 188/52/96 192/56/100 194/58/102
f 195/59/103 191/55/99 193/57/101
f 192/56/100 196/60/104 194/58/102
f 191/55/99 195/59/103 197/61/105
f 192/56/100 198/62/106 196/60/104
f 195/59/103 199/63/107 197/61/105
f 199/63/107 196/60/104 198/62/106
f 199/63/107 195/59/103 200/64/108
f 196/60/104 199/63/107 200/64/108
f 201/57/109 202/49/110 203/65/111
f 202/49/110 204/51/112 203/65/111
f 205/59/113 201/57/109 203/65/111
f 204/51/112 206/52/114 203/65/111
f 207/64/115 205/59/113 203/65/111
f 206/52/114 208/58/116 203/65/111
f 209/60/117 207/64/115 203/65/111
f 208/58/116 209/60/117 203/65/111
f 212/66/118 210/67/119 211/68/120
f 210/67/119 212/66/118 213/69/121
f 214/70/122 213/69/121 212/66/118
f 214/70/122 212/66/118 215/71/123
f 215/71/123 216/72/124 214/70/122
f 216/72/124 215/71/123 217/73/125
f 220/74/121 218/75/119 219/76/126
f 218/75/119 220/74/121 221/77/121
f 222/78/127 221/77/121 220/74/121
f 222/78/127 220/74/121 224/79/123
f 224/79/123 225/80/124 222/78/127
f 225/80/124 224/79/123 223/81/125
f 226/41/128 227/44/129 228/42/130
f 226/41/128 228/42/130 229/43/131
f 232/45/128 230/48/129 231/46/130
f 232/45/128 231/46/130 233/47/131
f 234/82/132 235/83/133 236/84/133
f 236/84/133 235/83/133 237/85/134
f 238/86/133 234/82/132 236/84/133
f 234/82/132 238/86/133 239/87/133
f 234/82/132 239/87/133 240/88/133
f 234/82/132 240/88/133 241/89/133
f 242/90/135 243/84/136 244/91/137
f 245/85/138 244/91/137 243/84/136
f 243/84/136 242/90/135 246/86/135
f 244/91/137 245/85/138 247/92/139
f 248/93/140 246/86/135 242/90/135
f 249/83/141 247/92/139 245/85/138
f 246/86/135 248/93/140 250/87/142
f 247/92/139 249/83/141 251/94/141
f 252/95/143 250/87/142 248/93/140
f 253/82/144 251/94/141 249/83/141
f 250/87/142 252/95/143 254/88/145
f 251/94/141 253/82/144 255/96/146
f 256/97/147 254/88/145 252/95/143
f 257/89/147 255/96/146 253/82/144
f 254/88/145 256/97/147 257/89/147
f 255/96/146 257/89/147 256/97/147
usemtl Meshpart2Mtl
f 259/98/83 261/99/86 258/100/148
f 261/99/86 263/101/149 258/100/148
f 262/102/89 264/103/88 260/104/89
f 261/99/86 265/105/150 263/101/149
f 264/103/88 262/102/89 265/105/150
f 261/99/86 264/103/88 265/105/150
f 268/106/90 267/107/92 266/108/91
f 268/106/90 266/108/91 269/109/90
f 270/110/122 271/111/121 272/112/151
f 271/111/121 273/113/126 272/112/151
f 270/110/122 272/112/151 274/114/123
f 273/113/126 271/111/121 275/115/119
f 270/110/122 274/114/123 276/116/125
f 277/117/124 270/110/122 276/116/125
f 279/106/128 280/108/130 278/109/131
f 279/106/128 281/107/129 280/108/130
usemtl Meshpart3Mtl
f 282/118/152 283/119/153 284/120/154
f 282/118/152 284/120/154 285/121/155
f 285/121/155 286/122/156 282/118/152
f 285/121/155 287/123/157 286/122/156
f 287/123/157 285/121/155 288/124/158
f 288/124/158 289/125/159 287/123/157
f 289/125/159 288/124/158 290/126/160
f 290/126/160 291/127/161 289/125/159
f 291/127/161 290/126/160 292/128/162
f 292/128/162 293/129/163 291/127/161
f 293/129/163 292/128/162 294/130/163
f 297/131/164 296/132/165 295/133/166
f 296/132/165 297/131/164 298/134/164
f 297/131/164 299/135/167 298/134/164
f 299/135/167 297/131/164 300/136/168
f 300/136/168 301/137/169 299/135/167
f 301/137/169 300/136/168 302/138/170
f 305/139/171 304/140/172 303/141/173
f 306/142/174 304/140/172 305/139/171
f 305/139/171 307/143/175 306/142/174
f 307/143/175 305/139/171 308/144/176
f 309/120/177 310/145/178 311/146/179
f 310/145/178 309/120/177 312/147/178
f 311/146/179 313/121/180 309/120/177
f 313/121/181 314/148/182 315/149/183
f 316/124/184 313/121/181 315/149/183
f 316/124/184 315/149/183 317/150/185
f 318/126/186 316/124/184 317/150/185
f 317/150/185 319/128/187 318/126/186
f 319/128/187 317/150/185 320/151/188
f 320/151/188 321/130/189 319/128/187
f 321/130/189 320/151/188 322/152/190
f 325/153/191 324/133/192 323/154/193
f 324/133/192 325/153/191 326/131/194
f 327/155/195 326/131/194 325/153/191
f 326/131/194 327/155/195 328/136/196
f 327/155/195 329/138/197 328/136/196
f 329/138/197 327/155/195 330/156/198
f 333/157/199 332/141/200 331/158/201
f 334/139/202 332/141/200 333/157/199
f 335/159/203 334/139/202 333/157/199
f 334/139/202 335/159/203 336/144/203
f 336/144/203 335/159/203 337/160/204
f 339/161/205 338/162/153 340/163/153
f 343/164/206 341/165/163 342/166/207
f 343/164/206 344/167/208 341/165/163
f 345/165/209 347/168/210 346/169/209
f 347/168/210 345/165/209 348/167/211
f 349/170/212 351/171/213 350/172/214
f 351/171/213 349/170/212 352/173/215
f 355/171/216 353/174/217 354/172/218
f 356/175/219 353/174/217 355/171/216
f 357/176/220 358/177/221 359/178/222
f 360/179/223 357/176/220 359/178/222
f 358/177/221 357/176/220 361/180/224
f 361/180/224 362/181/225 358/177/221
f 362/181/225 361/180/224 363/182/225
f 357/176/220 360/179/223 364/183/226
f 365/184/227 364/183/226 360/179/223
f 364/183/226 365/184/227 366/185/228
f 367/186/229 366/185/228 365/184/227
f 366/185/228 367/186/229 368/187/220
f 369/188/230 368/187/220 367/186/229
f 368/187/220 369/188/230 370/189/231
f 372/190/232 373/191/233 371/192/234
f 373/191/233 372/190/232 374/193/233
f 374/193/233 375/194/235 373/191/233
f 373/191/233 375/194/235 376/195/236
f 375/194/235 377/196/237 376/195/236
f 376/195/236 377/196/237 378/197/238
f 380/198/239 381/199/240 379/200/241
f 381/199/240 380/198/239 382/201/242
f 382/201/242 383/202/243 381/199/240
f 384/203/244 381/199/240 383/202/243
f 385/180/245 386/204/246 387/205/247
f 388/176/248 386/204/246 385/180/245
f 388/176/249 390/206/250 389/207/251
f 390/206/250 388/176/249 391/183/250
f 391/183/250 392/208/252 390/206/250
f 392/208/252 391/183/250 393/185/253
f 394/187/254 392/208/252 393/185/253
f 392/208/252 394/187/254 395/209/255
f 396/189/256 395/209/255 394/187/254
f 395/209/255 396/189/256 397/210/256
f 399/192/257 400/211/258 398/212/259
f 400/211/258 399/192/257 401/191/260
f 401/191/260 402/213/261 400/211/258
f 402/213/261 401/191/260 403/195/262
f 403/195/262 404/197/212 402/213/261
f 402/213/261 404/197/212 405/214/263
f 407/200/264 408/215/265 406/216/266
f 408/215/265 407/200/264 409/199/267
f 409/199/267 410/217/268 408/215/265
f 410/217/268 409/199/267 411/203/269
f 410/217/268 411/203/269 412/218/270
f 413/219/271 414/220/272 415/221/273
f 417/222/274 416/219/275 418/221/276
f 419/161/245 421/162/247 422/163/247
f 423/223/248 424/224/277 420/225/278
f 425/166/256 427/226/279 426/227/256
f 427/226/279 425/166/256 428/164/280
f 430/228/180 429/225/179 431/224/281
f 434/226/282 432/169/283 433/227/284
f 434/226/282 435/168/192 432/169/283
f 438/173/173 436/229/285 437/170/286
f 439/230/287 436/229/285 438/173/173
f 440/229/288 442/175/289 441/174/290
f 442/175/289 440/229/288 443/230/291
