# Blender 5.1.2
# www.blender.org
mtllib Mag1.mtl
o 10B_Visits.001
v -0.110755 -0.029450 0.058181
v -0.178096 -0.128746 -0.058181
v -0.178096 -0.128746 0.058181
v -0.110755 -0.029450 -0.058181
v -0.055697 0.070831 0.058181
v -0.055697 0.070831 -0.058181
v -0.010196 0.210435 -0.058181
v -0.010196 0.210436 0.058181
v 0.157152 0.183400 0.058181
v 0.157152 0.183399 -0.058181
v -0.010196 0.210436 0.058181
v -0.010196 0.210435 -0.058181
v 0.121760 0.051660 -0.058181
v -0.010196 0.210435 -0.058181
v 0.157152 0.183399 -0.058181
v -0.055697 0.070831 -0.058181
v 0.086858 -0.035839 -0.058181
v -0.110755 -0.029450 -0.058181
v 0.028362 -0.144476 -0.058181
v -0.015880 -0.206906 -0.058181
v -0.178096 -0.128746 -0.058181
v 0.121760 0.051660 0.058181
v 0.157152 0.183399 -0.058181
v 0.157152 0.183400 0.058181
v 0.121760 0.051660 -0.058181
v 0.086858 -0.035839 0.058181
v 0.086858 -0.035839 -0.058181
v 0.028362 -0.144476 0.058181
v 0.028362 -0.144476 -0.058181
v -0.015880 -0.206906 0.058181
v -0.015880 -0.206906 -0.058181
v -0.178096 -0.128746 0.058181
v -0.015880 -0.206906 -0.058181
v -0.015880 -0.206906 0.058181
v -0.178096 -0.128746 -0.058181
v 0.157152 0.183400 0.058181
v -0.010196 0.210436 0.058181
v 0.121760 0.051660 0.058181
v -0.055697 0.070831 0.058181
v 0.086858 -0.035839 0.058181
v -0.110755 -0.029450 0.058181
v 0.028362 -0.144476 0.058181
v -0.015880 -0.206906 0.058181
v -0.178096 -0.128746 0.058181
vn -0.8530 0.5219 -0.0000
vn -0.8284 0.5602 -0.0000
vn -0.8283 0.5603 -0.0000
vn -0.8530 0.5218 -0.0000
vn -0.9196 0.3930 -0.0000
vn -0.9195 0.3930 -0.0000
vn -0.9518 0.3068 -0.0000
vn 0.1580 0.9874 -0.0000
vn -0.0000 -0.0000 -1.0000
vn 0.9495 -0.3139 -0.0000
vn 0.9658 -0.2595 -0.0000
vn 0.9659 -0.2589 -0.0000
vn 0.9494 -0.3139 -0.0000
vn 0.9053 -0.4249 -0.0000
vn 0.9053 -0.4248 -0.0000
vn 0.8498 -0.5271 -0.0000
vn 0.8184 -0.5746 -0.0000
vn 0.8185 -0.5745 -0.0000
vn -0.4341 -0.9009 -0.0000
vn -0.0000 -0.0000 1.0000
vt 34.078400 -11.042100
vt 33.921600 -11.175900
vt 34.078400 -11.175900
vt 33.921600 -11.042100
vt 34.078400 -10.906900
vt 33.921600 -10.906900
vt 33.921600 -10.718800
vt 34.078400 -10.718800
vt 34.225899 -11.078400
vt 34.225899 -10.921600
vt 34.000401 -11.078400
vt 34.000401 -10.921600
vt 33.821800 -10.932800
vt 33.999599 -10.718800
vt 33.774101 -10.755300
vt 34.060902 -10.906900
vt 33.868900 -11.050700
vt 34.135101 -11.042100
vt 33.947701 -11.197100
vt 34.007301 -11.281200
vt 34.225899 -11.175900
vt 33.921600 -10.932800
vt 34.078400 -10.755300
vt 33.921600 -10.755300
vt 34.078400 -10.932800
vt 33.921600 -11.050700
vt 34.078400 -11.050700
vt 33.921600 -11.197100
vt 34.078400 -11.197100
vt 33.921600 -11.281200
vt 34.078400 -11.281200
vt 34.007301 -10.921600
vt 34.007301 -11.078400
vt 34.225899 -10.755300
vt 34.000401 -10.718800
vt 34.178200 -10.932800
vt 33.939098 -10.906900
vt 34.131100 -11.050700
vt 33.864899 -11.042100
vt 34.052299 -11.197100
vt 33.992699 -11.281200
vt 33.774101 -11.175900
s 1
usemtl Meshpart1Mtl.001
f 1/1/1 2/2/2 3/3/3
f 2/2/2 1/1/1 4/4/4
f 5/5/5 4/4/4 1/1/1
f 4/4/4 5/5/5 6/6/6
f 5/5/5 7/7/7 6/6/6
f 5/5/5 8/8/7 7/7/7
f 9/9/8 10/10/8 11/11/8
f 11/11/8 10/10/8 12/12/8
f 13/13/9 14/14/9 15/15/9
f 14/14/9 13/13/9 16/16/9
f 17/17/9 16/16/9 13/13/9
f 16/16/9 17/17/9 18/18/9
f 19/19/9 18/18/9 17/17/9
f 20/20/9 18/18/9 19/19/9
f 18/18/9 20/20/9 21/21/9
f 22/22/10 23/23/11 24/24/12
f 23/23/11 22/22/10 25/25/13
f 26/26/14 25/25/13 22/22/10
f 25/25/13 26/26/14 27/27/15
f 28/28/16 27/27/15 26/26/14
f 27/27/15 28/28/16 29/29/16
f 30/30/17 29/29/16 28/28/16
f 29/29/16 30/30/17 31/31/18
f 32/9/19 33/32/19 34/33/19
f 33/32/19 32/9/19 35/10/19
f 36/34/20 37/35/20 38/36/20
f 39/37/20 38/36/20 37/35/20
f 38/36/20 39/37/20 40/38/20
f 41/39/20 40/38/20 39/37/20
f 40/38/20 41/39/20 42/40/20
f 41/39/20 43/41/20 42/40/20
f 43/41/20 41/39/20 44/42/20
