# Blender 5.1.2
# www.blender.org
mtllib my final objs before retirement 2.mtl
o fists
v -1.148001 0.160173 -0.355057
v -1.140013 -0.500459 0.325101
v -1.153241 0.169829 0.315343
v -1.134773 -0.510116 -0.345298
v 1.096252 0.214468 0.332278
v 1.114720 -0.465475 -0.328362
v 1.101493 0.204813 -0.338120
v 1.109481 -0.455818 0.342038
v 1.085695 -0.505811 -0.328007
v 1.085221 -0.466640 -0.368336
v 1.114720 -0.465475 -0.328362
v 1.101493 0.204813 -0.338120
v 1.071994 0.203649 -0.378096
v 1.070898 0.243964 -0.338924
v 1.080456 -0.496153 0.342392
v 1.109481 -0.455818 0.342038
v 1.079361 -0.455839 0.381562
v 1.066135 0.214454 0.371810
v 1.096252 0.214468 0.332278
v 1.065658 0.253620 0.331472
v -1.104179 -0.549267 -0.344495
v -1.134773 -0.510116 -0.345298
v -1.104653 -0.510097 -0.384824
v -1.117881 0.160191 -0.394583
v -1.148001 0.160173 -0.355057
v -1.118976 0.200508 -0.355411
v -1.109418 -0.539611 0.325905
v -1.110513 -0.499295 0.365076
v -1.140013 -0.500459 0.325101
v -1.153241 0.169829 0.315343
v -1.123740 0.170994 0.355317
v -1.124215 0.210164 0.314988
v 1.114720 -0.465475 -0.328362
v 1.080456 -0.496153 0.342392
v 1.085695 -0.505811 -0.328007
v 1.109481 -0.455818 0.342038
v 1.096252 0.214468 0.332278
v 1.070898 0.243964 -0.338924
v 1.065658 0.253620 0.331472
v 1.101493 0.204813 -0.338120
v -1.140013 -0.500459 0.325101
v -1.134773 -0.510116 -0.345298
v -1.104179 -0.549267 -0.344495
v -1.109418 -0.539611 0.325905
v -1.148001 0.160173 -0.355057
v -1.153241 0.169829 0.315343
v -1.124215 0.210164 0.314988
v -1.118976 0.200508 -0.355411
v 1.079361 -0.455839 0.381562
v -1.110513 -0.499295 0.365076
v -1.109418 -0.539611 0.325905
v 1.080456 -0.496153 0.342392
v 1.065658 0.253620 0.331472
v -1.124215 0.210164 0.314988
v -1.123740 0.170994 0.355317
v 1.066135 0.214454 0.371810
v -1.104653 -0.510097 -0.384824
v 1.085221 -0.466640 -0.368336
v 1.085695 -0.505811 -0.328007
v -1.104179 -0.549267 -0.344495
v -1.118976 0.200508 -0.355411
v 1.070898 0.243964 -0.338924
v 1.071994 0.203649 -0.378096
v -1.117881 0.160191 -0.394583
v 1.071994 0.203649 -0.378096
v -1.104653 -0.510097 -0.384824
v -1.117881 0.160191 -0.394583
v 1.085221 -0.466640 -0.368336
v -1.124215 0.210164 0.314988
v 1.065658 0.253620 0.331472
v 1.070898 0.243964 -0.338924
v -1.118976 0.200508 -0.355411
v -1.123740 0.170994 0.355317
v 1.079361 -0.455839 0.381562
v 1.066135 0.214454 0.371810
v -1.110513 -0.499295 0.365076
v -1.104179 -0.549267 -0.344495
v 1.085695 -0.505811 -0.328007
v 1.080456 -0.496153 0.342392
v -1.109418 -0.539611 0.325905
v -1.171156 0.166491 -0.362116
v -1.163082 -0.507567 0.331768
v -1.176566 0.176157 0.321821
v -1.157566 -0.517392 -0.352122
v 1.119043 0.221744 0.339099
v 1.138047 -0.471803 -0.334840
v 1.124562 0.211921 -0.344786
v 1.132636 -0.462136 0.349097
v 1.097029 -0.526632 -0.335732
v 1.096495 -0.474802 -0.389138
v 1.138047 -0.471803 -0.334840
v 1.124562 0.211921 -0.344786
v 1.082874 0.211736 -0.399159
v 1.081365 0.265052 -0.347344
v 1.091753 -0.516805 0.350902
v 1.132636 -0.462136 0.349097
v 1.090245 -0.463487 0.402720
v 1.076623 0.223050 0.392695
v 1.119043 0.221744 0.339099
v 1.076152 0.274970 0.339453
v -1.114671 -0.570616 -0.352473
v -1.157566 -0.517392 -0.352122
v -1.115143 -0.518695 -0.405715
v -1.128764 0.167843 -0.415736
v -1.171156 0.166491 -0.362116
v -1.130273 0.221158 -0.363921
v -1.119885 -0.560698 0.334326
v -1.121394 -0.507382 0.386141
v -1.163082 -0.507567 0.331768
v -1.176566 0.176157 0.321821
v -1.135015 0.179155 0.376119
v -1.135548 0.230987 0.322713
v 1.138047 -0.471803 -0.334840
v 1.091753 -0.516805 0.350902
v 1.097029 -0.526632 -0.335732
v 1.132636 -0.462136 0.349097
v 1.119043 0.221744 0.339099
v 1.081365 0.265052 -0.347344
v 1.076152 0.274970 0.339453
v 1.124562 0.211921 -0.344786
v -1.163082 -0.507567 0.331768
v -1.157566 -0.517392 -0.352122
v -1.114671 -0.570616 -0.352473
v -1.119885 -0.560698 0.334326
v -1.171156 0.166491 -0.362116
v -1.176566 0.176157 0.321821
v -1.135548 0.230987 0.322713
v -1.130273 0.221158 -0.363921
v 1.090245 -0.463487 0.402720
v -1.121394 -0.507382 0.386141
v -1.119885 -0.560698 0.334326
v 1.091753 -0.516805 0.350902
v 1.076152 0.274970 0.339453
v -1.135548 0.230987 0.322713
v -1.135015 0.179155 0.376119
v 1.076623 0.223050 0.392695
v -1.115143 -0.518695 -0.405715
v 1.096495 -0.474802 -0.389138
v 1.097029 -0.526632 -0.335732
v -1.114671 -0.570616 -0.352473
v -1.130273 0.221158 -0.363921
v 1.081365 0.265052 -0.347344
v 1.082874 0.211736 -0.399159
v -1.128764 0.167843 -0.415736
v 1.082874 0.211736 -0.399159
v -1.115143 -0.518695 -0.405715
v -1.128764 0.167843 -0.415736
v 1.096495 -0.474802 -0.389138
v -1.135548 0.230987 0.322713
v 1.076152 0.274970 0.339453
v 1.081365 0.265052 -0.347344
v -1.130273 0.221158 -0.363921
v -1.135015 0.179155 0.376119
v 1.090245 -0.463487 0.402720
v 1.076623 0.223050 0.392695
v -1.121394 -0.507382 0.386141
v -1.114671 -0.570616 -0.352473
v 1.097029 -0.526632 -0.335732
v 1.091753 -0.516805 0.350902
v -1.119885 -0.560698 0.334326
vn -0.9256 0.2524 -0.2821
vn -0.9212 -0.2837 0.2662
vn -0.9322 0.2528 0.2589
vn -0.9161 -0.2924 -0.2742
vn 0.9161 0.2924 0.2742
vn 0.9322 -0.2528 -0.2589
vn 0.9212 0.2838 -0.2661
vn 0.9256 -0.2525 0.2821
vn 0.4546 -0.8351 -0.3099
vn 0.4505 -0.3261 -0.8311
vn 0.9322 -0.2529 -0.2591
vn 0.9212 0.2838 -0.2663
vn 0.4344 0.3229 -0.8409
vn 0.4186 0.8434 -0.3368
vn 0.4514 -0.8250 0.3400
vn 0.9255 -0.2525 0.2823
vn 0.4355 -0.3061 0.8465
vn 0.4212 0.3452 0.8387
vn 0.9161 0.2924 0.2744
vn 0.4182 0.8509 0.3180
vn -0.4182 -0.8509 -0.3180
vn -0.9161 -0.2925 -0.2743
vn -0.4212 -0.3452 -0.8387
vn -0.4355 0.3062 -0.8465
vn -0.9255 0.2525 -0.2822
vn -0.4514 0.8250 -0.3400
vn -0.4186 -0.8434 0.3368
vn -0.4344 -0.3229 0.8409
vn -0.9212 -0.2838 0.2663
vn -0.9322 0.2529 0.2590
vn -0.4505 0.3261 0.8311
vn -0.4545 0.8351 0.3099
vn 0.9322 -0.2529 -0.2589
vn 0.4513 -0.8250 0.3400
vn 0.4545 -0.8351 -0.3099
vn 0.9255 -0.2525 0.2821
vn 0.9161 0.2925 0.2742
vn 0.9212 0.2839 -0.2662
vn -0.9212 -0.2838 0.2661
vn -0.9256 0.2525 -0.2821
vn -0.9322 0.2529 0.2589
vn -0.4546 0.8351 0.3098
vn -0.4513 0.8250 -0.3400
vn -0.4344 -0.3229 0.8408
vn -0.4504 0.3261 0.8311
vn -0.4211 -0.3452 -0.8387
vn 0.4504 -0.3261 -0.8311
vn 0.4545 -0.8351 -0.3098
vn -0.4513 0.8251 -0.3400
vn 0.4343 0.3227 -0.8410
vn -0.4356 0.3062 -0.8465
vn 0.4343 0.3229 -0.8409
vn -0.4546 0.8351 0.3099
vn 0.4355 -0.3062 0.8465
vn 0.4212 0.3453 0.8387
vn -0.4343 -0.3229 0.8409
vn -0.9212 -0.2838 0.2662
vn 0.9162 0.2924 0.2742
vn 0.9256 -0.2525 0.2820
vn 0.4546 -0.8351 -0.3098
vn 0.9322 -0.2529 -0.2590
vn 0.4356 -0.3061 0.8465
vn -0.9160 -0.2925 -0.2744
vn 0.4513 -0.8251 0.3400
vn 0.4546 -0.8350 -0.3099
vn 0.9255 -0.2526 0.2821
vn 0.9161 0.2925 0.2743
vn 0.9212 0.2838 -0.2662
vn -0.9212 -0.2839 0.2662
vn -0.9255 0.2526 -0.2821
vn 0.4355 -0.3061 0.8466
vn -0.4344 -0.3228 0.8409
vn 0.4182 0.8509 0.3179
vn -0.4504 0.3261 0.8312
vn -0.4182 -0.8508 -0.3180
vn 0.4344 0.3228 -0.8409
vn -0.4356 0.3062 -0.8464
vn -0.4343 -0.3230 0.8409
vt 0.372650 0.019678
vt 0.478632 0.130590
vt 0.372650 0.130590
vt 0.478632 0.019678
vt 0.478632 0.481216
vt 0.372650 0.370304
vt 0.478632 0.370304
vt 0.372650 0.481216
vt 0.478632 0.363148
vt 0.478632 0.137746
vt 0.365812 0.363148
vt 0.365812 0.137746
vt 0.140171 0.137746
vt 0.140171 0.363148
vt 0.252991 0.137746
vt 0.252991 0.363148
vt 0.147009 0.137746
vt 0.147009 0.363148
vt 0.259829 0.363148
vt 0.259829 0.137746
vt 0.372650 0.137746
vt 0.372650 0.363148
vt 0.034188 0.363148
vt 0.034188 0.137746
s 1
usemtl Leftarm1Mtl.001
f 1/1/1 2/2/2 3/3/3
f 2/2/2 1/1/1 4/4/4
f 5/5/5 6/6/6 7/7/7
f 6/6/6 5/5/5 8/8/8
f 9/6/9 10/6/10 11/6/11
f 10/6/10 12/7/12 11/6/11
f 12/7/12 10/6/10 13/7/13
f 13/7/13 14/7/14 12/7/12
f 15/8/15 16/8/16 17/8/17
f 18/5/18 17/8/17 16/8/16
f 16/8/16 19/5/19 18/5/18
f 20/5/20 18/5/18 19/5/19
f 21/4/21 22/4/22 23/4/23
f 24/1/24 23/4/23 22/4/22
f 22/4/22 25/1/25 24/1/24
f 26/1/26 24/1/24 25/1/25
f 27/2/27 28/2/28 29/2/29
f 30/3/30 29/2/29 28/2/28
f 28/2/28 31/3/31 30/3/30
f 32/3/32 30/3/30 31/3/31
f 33/6/33 34/8/34 35/6/35
f 34/8/34 33/6/33 36/8/36
f 37/5/37 38/7/14 39/5/20
f 38/7/14 37/5/37 40/7/38
f 41/2/39 42/4/22 43/4/21
f 43/4/21 44/2/27 41/2/39
f 45/1/40 46/3/41 47/3/42
f 47/3/42 48/1/43 45/1/40
f 49/9/17 50/10/44 51/10/27
f 49/9/17 51/10/27 52/9/15
f 53/11/20 54/12/42 55/12/45
f 53/11/20 55/12/45 56/11/18
f 57/13/46 58/14/47 59/14/48
f 57/13/46 59/14/48 60/13/21
f 61/15/49 62/16/14 63/16/50
f 61/15/49 63/16/50 64/15/51
f 65/16/52 66/17/23 67/15/24
f 66/17/23 65/16/52 68/18/47
f 69/12/53 70/11/20 71/19/14
f 69/12/53 71/19/14 72/20/26
f 73/21/45 74/9/54 75/22/55
f 74/9/54 73/21/45 76/10/56
f 77/13/21 78/14/9 79/23/34
f 77/13/21 79/23/34 80/24/27
usemtl Leftarm2Mtl.001
f 81/1/40 82/2/57 83/3/3
f 82/2/57 81/1/40 84/4/4
f 85/5/58 86/6/6 87/7/7
f 86/6/6 85/5/58 88/8/59
f 89/6/60 90/6/10 91/6/61
f 90/6/10 92/7/12 91/6/61
f 92/7/12 90/6/10 93/7/13
f 93/7/13 94/7/14 92/7/12
f 95/8/15 96/8/16 97/8/62
f 98/5/18 97/8/62 96/8/16
f 96/8/16 99/5/19 98/5/18
f 100/5/20 98/5/18 99/5/19
f 101/4/21 102/4/63 103/4/23
f 104/1/51 103/4/23 102/4/63
f 102/4/63 105/1/25 104/1/51
f 106/1/43 104/1/51 105/1/25
f 107/2/27 108/2/44 109/2/29
f 110/3/30 109/2/29 108/2/44
f 108/2/44 111/3/31 110/3/30
f 112/3/42 110/3/30 111/3/31
f 113/6/33 114/8/64 115/6/65
f 114/8/64 113/6/33 116/8/66
f 117/5/67 118/7/14 119/5/20
f 118/7/14 117/5/67 120/7/68
f 121/2/69 122/4/22 123/4/21
f 123/4/21 124/2/27 121/2/69
f 125/1/70 126/3/41 127/3/42
f 127/3/42 128/1/43 125/1/70
f 129/9/71 130/10/72 131/10/27
f 129/9/71 131/10/27 132/9/15
f 133/11/73 134/12/42 135/12/74
f 133/11/73 135/12/74 136/11/18
f 137/13/23 138/14/10 139/14/60
f 137/13/23 139/14/60 140/13/75
f 141/15/49 142/16/14 143/16/76
f 141/15/49 143/16/76 144/15/77
f 145/16/76 146/17/23 147/15/24
f 146/17/23 145/16/76 148/18/47
f 149/12/53 150/11/20 151/19/14
f 149/12/53 151/19/14 152/20/26
f 153/21/45 154/9/54 155/22/18
f 154/9/54 153/21/45 156/10/78
f 157/13/21 158/14/9 159/23/15
f 157/13/21 159/23/15 160/24/27
o Handsaws
v 0.945574 -0.030733 -0.028087
v 0.940430 -0.085749 0.170712
v 0.946077 -0.093183 -0.035411
v 0.985278 -0.006650 -0.230693
v 1.106694 -0.056023 -0.071338
v 0.985781 -0.069100 -0.238017
v 0.766457 -0.048445 0.110643
v 0.640128 -0.099297 0.265656
v 0.766958 -0.110895 0.103319
v 0.728557 -0.031359 -0.577403
v 0.734760 0.016164 -0.712258
v 0.728056 0.031091 -0.570079
v 0.937982 -0.042346 -0.469389
v 1.013058 0.003170 -0.582416
v 0.937479 0.020104 -0.462064
v 0.481137 -0.031574 -0.592521
v 0.463024 0.015642 -0.726408
v 0.480635 0.030876 -0.585197
v 0.221625 -0.034524 -0.585131
v 0.203513 0.012690 -0.719017
v 0.221124 0.027926 -0.577807
v -0.037887 -0.037476 -0.577741
v -0.056000 0.009740 -0.711626
v -0.038388 0.024974 -0.570416
v -0.297399 -0.040427 -0.570350
v -0.315512 0.006788 -0.704236
v -0.297901 0.022023 -0.563025
v -0.556911 -0.043377 -0.562960
v -0.575024 0.003837 -0.696846
v -0.557413 0.019072 -0.555634
v -0.816423 -0.046329 -0.555570
v -0.834536 0.000885 -0.689455
v -0.816925 0.016121 -0.548244
v -1.075935 -0.049280 -0.548179
v -1.094047 -0.002065 -0.682065
v -1.076437 0.013169 -0.540854
v -1.548752 -0.056152 -0.521967
v -1.615804 -0.011174 -0.640135
v -1.549253 0.006298 -0.514642
v -1.335447 -0.052231 -0.540788
v -1.353559 -0.005017 -0.674675
v -1.335948 0.010219 -0.533463
v -1.498895 0.008365 -0.528823
v -1.353559 -0.005017 -0.674675
v -1.498394 -0.054085 -0.536148
v -1.239384 0.011317 -0.536213
v -1.094047 -0.002065 -0.682065
v -1.238882 -0.051133 -0.543539
v 0.945856 0.015650 -0.423517
v 1.116096 -0.027350 -0.315156
v 0.946346 -0.046800 -0.430842
v -0.979872 0.014268 -0.543603
v -0.834536 0.000885 -0.689455
v -0.979370 -0.048182 -0.550929
v -0.720360 0.017219 -0.550995
v -0.575024 0.003837 -0.696846
v -0.719859 -0.045231 -0.558319
v -0.460848 0.020170 -0.558385
v -0.315512 0.006788 -0.704236
v -0.460346 -0.042280 -0.565709
v 0.809556 0.030861 -0.562543
v 1.013058 0.003170 -0.582416
v 0.810057 -0.031589 -0.569868
v -0.201335 0.023122 -0.565775
v -0.056000 0.009740 -0.711626
v -0.200834 -0.039328 -0.573100
v 0.058176 0.026072 -0.573166
v 0.203513 0.012690 -0.719017
v 0.058678 -0.036378 -0.580491
v 0.317688 0.029023 -0.580556
v 0.463024 0.015642 -0.726408
v 0.318190 -0.033427 -0.587882
v 0.566746 0.032555 -0.593613
v 0.734760 0.016164 -0.712258
v 0.567247 -0.029895 -0.600939
v 0.966838 -0.025666 -0.069835
v 1.106694 -0.056023 -0.071338
v 0.985278 -0.006650 -0.230693
v 0.983974 -0.002514 -0.266059
v 1.116096 -0.027350 -0.315156
v 0.945856 0.015650 -0.423517
v 0.831384 -0.045192 0.087363
v 0.940430 -0.085749 0.170712
v 0.945574 -0.030733 -0.028087
v 0.937479 0.020104 -0.462064
v 1.013058 0.003170 -0.582416
v 0.809556 0.030861 -0.562543
v -1.549253 0.006298 -0.514642
v -1.615804 -0.011174 -0.640135
v -1.699385 -0.002291 -0.451698
v -1.662440 -0.072487 0.149302
v -1.680764 -0.119979 0.283057
v -1.503792 -0.075599 0.186707
v 0.728056 0.031091 -0.570079
v 0.734760 0.016164 -0.712258
v 0.566746 0.032555 -0.593613
v 0.605306 -0.052587 0.134934
v 0.640128 -0.099297 0.265656
v 0.766457 -0.048445 0.110643
v -0.439346 -0.064255 0.162876
v -0.421234 -0.111471 0.296763
v -0.276399 -0.062403 0.158236
v -0.179834 -0.061304 0.155486
v -0.161722 -0.108519 0.289371
v -0.016887 -0.059451 0.150846
v 0.079677 -0.058353 0.148095
v 0.097790 -0.105568 0.281981
v 0.242624 -0.056500 0.143455
v -0.698857 -0.067207 0.170266
v -0.680745 -0.114421 0.304153
v -0.535910 -0.065353 0.165627
v -0.958372 -0.070157 0.177658
v -0.940257 -0.117372 0.311543
v -0.795422 -0.068304 0.173017
v -1.217883 -0.073109 0.185048
v -1.199769 -0.120324 0.318934
v -1.054935 -0.071256 0.180407
v -1.477394 -0.076060 0.192439
v -1.459281 -0.123274 0.326324
v -1.314447 -0.074207 0.187798
v 0.339188 -0.055402 0.140705
v 0.357302 -0.102616 0.274591
v 0.502135 -0.053549 0.136064
v -0.557413 0.019072 -0.555634
v -0.575024 0.003837 -0.696846
v -0.720360 0.017219 -0.550995
v -0.816925 0.016121 -0.548244
v -0.834536 0.000885 -0.689455
v -0.979872 0.014268 -0.543603
v -1.076437 0.013169 -0.540854
v -1.094047 -0.002065 -0.682065
v -1.239384 0.011317 -0.536213
v -0.297901 0.022023 -0.563025
v -0.315512 0.006788 -0.704236
v -0.460848 0.020170 -0.558385
v -0.038388 0.024974 -0.570416
v -0.056000 0.009740 -0.711626
v -0.201335 0.023122 -0.565775
v 0.221124 0.027926 -0.577807
v 0.203513 0.012690 -0.719017
v 0.058176 0.026072 -0.573166
v 0.480635 0.030876 -0.585197
v 0.463024 0.015642 -0.726408
v 0.317688 0.029023 -0.580556
v -1.335948 0.010219 -0.533463
v -1.353559 -0.005017 -0.674675
v -1.498895 0.008365 -0.528823
v -1.699385 -0.002291 -0.451698
v -1.615804 -0.011174 -0.640135
v -1.698882 -0.064741 -0.459023
v -1.661937 -0.134937 0.141976
v -1.680764 -0.119979 0.283057
v -1.662440 -0.072487 0.149302
v -1.476892 -0.138510 0.185113
v -1.459281 -0.123274 0.326324
v -1.477394 -0.076060 0.192439
v -1.217382 -0.135558 0.177723
v -1.199769 -0.120324 0.318934
v -1.217883 -0.073109 0.185048
v -0.957870 -0.132607 0.170333
v -0.940257 -0.117372 0.311543
v -0.958372 -0.070157 0.177658
v -0.698356 -0.129657 0.162942
v -0.680745 -0.114421 0.304153
v -0.698857 -0.067207 0.170266
v -0.438845 -0.126705 0.155552
v -0.421234 -0.111471 0.296763
v -0.439346 -0.064255 0.162876
v -0.179332 -0.123754 0.148162
v -0.161722 -0.108519 0.289371
v -0.179834 -0.061304 0.155486
v 0.080178 -0.120803 0.140771
v 0.097790 -0.105568 0.281981
v 0.079677 -0.058353 0.148095
v 0.339690 -0.117852 0.133380
v 0.357302 -0.102616 0.274591
v 0.339188 -0.055402 0.140705
v 0.605807 -0.115037 0.127608
v 0.640128 -0.099297 0.265656
v 0.605306 -0.052587 0.134934
v 0.502135 -0.053549 0.136064
v 0.357302 -0.102616 0.274591
v 0.502637 -0.115999 0.128740
v 0.242624 -0.056500 0.143455
v 0.097790 -0.105568 0.281981
v 0.243125 -0.118949 0.136130
v -0.016887 -0.059451 0.150846
v -0.161722 -0.108519 0.289371
v -0.016385 -0.121901 0.143521
v 0.984477 -0.064964 -0.273383
v 1.116096 -0.027350 -0.315156
v 0.983974 -0.002514 -0.266059
v -0.276399 -0.062403 0.158236
v -0.421234 -0.111471 0.296763
v -0.275897 -0.124852 0.150911
v 0.967341 -0.088116 -0.077159
v 1.106694 -0.056023 -0.071338
v 0.966838 -0.025666 -0.069835
v -0.535910 -0.065353 0.165627
v -0.680745 -0.114421 0.304153
v -0.535409 -0.127803 0.158301
v -0.795422 -0.068304 0.173017
v -0.940257 -0.117372 0.311543
v -0.794922 -0.130754 0.165692
v -1.503792 -0.075599 0.186707
v -1.680764 -0.119979 0.283057
v -1.503291 -0.138049 0.179383
v -1.054935 -0.071256 0.180407
v -1.199769 -0.120324 0.318934
v -1.054433 -0.133706 0.173083
v 0.831886 -0.107642 0.080038
v 0.940430 -0.085749 0.170712
v 0.831384 -0.045192 0.087363
v -1.314447 -0.074207 0.187798
v -1.459281 -0.123274 0.326324
v -1.313945 -0.136657 0.180473
v 0.985781 -0.069100 -0.238017
v 1.106694 -0.056023 -0.071338
v 0.967341 -0.088116 -0.077159
v 0.946346 -0.046800 -0.430842
v 1.116096 -0.027350 -0.315156
v 0.984477 -0.064964 -0.273383
v 0.946077 -0.093183 -0.035411
v 0.940430 -0.085749 0.170712
v 0.831886 -0.107642 0.080038
v 0.810057 -0.031589 -0.569868
v 1.013058 0.003170 -0.582416
v 0.937982 -0.042346 -0.469389
v -1.698882 -0.064741 -0.459023
v -1.615804 -0.011174 -0.640135
v -1.548752 -0.056152 -0.521967
v -1.503291 -0.138049 0.179383
v -1.680764 -0.119979 0.283057
v -1.661937 -0.134937 0.141976
v 0.567247 -0.029895 -0.600939
v 0.734760 0.016164 -0.712258
v 0.728557 -0.031359 -0.577403
v 0.766958 -0.110895 0.103319
v 0.640128 -0.099297 0.265656
v 0.605807 -0.115037 0.127608
v -0.275897 -0.124852 0.150911
v -0.421234 -0.111471 0.296763
v -0.438845 -0.126705 0.155552
v -0.016385 -0.121901 0.143521
v -0.161722 -0.108519 0.289371
v -0.179332 -0.123754 0.148162
v 0.243125 -0.118949 0.136130
v 0.097790 -0.105568 0.281981
v 0.080178 -0.120803 0.140771
v -0.535409 -0.127803 0.158301
v -0.680745 -0.114421 0.304153
v -0.698356 -0.129657 0.162942
v -0.794922 -0.130754 0.165692
v -0.940257 -0.117372 0.311543
v -0.957870 -0.132607 0.170333
v -1.054433 -0.133706 0.173083
v -1.199769 -0.120324 0.318934
v -1.217382 -0.135558 0.177723
v -1.313945 -0.136657 0.180473
v -1.459281 -0.123274 0.326324
v -1.476892 -0.138510 0.185113
v 0.502637 -0.115999 0.128740
v 0.357302 -0.102616 0.274591
v 0.339690 -0.117852 0.133380
v -0.719859 -0.045231 -0.558319
v -0.575024 0.003837 -0.696846
v -0.556911 -0.043377 -0.562960
v -0.979370 -0.048182 -0.550929
v -0.834536 0.000885 -0.689455
v -0.816423 -0.046329 -0.555570
v -1.238882 -0.051133 -0.543539
v -1.094047 -0.002065 -0.682065
v -1.075935 -0.049280 -0.548179
v -0.460346 -0.042280 -0.565709
v -0.315512 0.006788 -0.704236
v -0.297399 -0.040427 -0.570350
v -0.200834 -0.039328 -0.573100
v -0.056000 0.009740 -0.711626
v -0.037887 -0.037476 -0.577741
v 0.058678 -0.036378 -0.580491
v 0.203513 0.012690 -0.719017
v 0.221625 -0.034524 -0.585131
v 0.318190 -0.033427 -0.587882
v 0.463024 0.015642 -0.726408
v 0.481137 -0.031574 -0.592521
v -1.498394 -0.054085 -0.536148
v -1.353559 -0.005017 -0.674675
v -1.335447 -0.052231 -0.540788
v 0.984814 -0.019151 -0.124166
v 1.054467 -0.072164 0.062682
v 0.985317 -0.081600 -0.131491
v 0.877505 -0.041584 0.059742
v 0.794422 -0.095150 0.240855
v 0.878007 -0.104034 0.052418
v 0.852972 -0.033702 -0.548919
v 0.871304 0.013790 -0.682677
v 0.852470 0.028747 -0.541594
v 0.981680 0.004672 -0.327483
v 1.119029 -0.043052 -0.181089
v 0.982183 -0.057778 -0.334808
v 0.610946 -0.030099 -0.596219
v 0.592832 0.017117 -0.730104
v 0.610445 0.032351 -0.588894
v 0.351434 -0.033050 -0.588828
v 0.333322 0.014165 -0.722714
v 0.350932 0.029400 -0.581504
v 0.091922 -0.036001 -0.581438
v 0.073809 0.011214 -0.715324
v 0.091421 0.026449 -0.574113
v -0.167589 -0.038952 -0.574048
v -0.185703 0.008263 -0.707933
v -0.168091 0.023498 -0.566722
v -0.427101 -0.041904 -0.566658
v -0.445215 0.005312 -0.700543
v -0.427603 0.020546 -0.559332
v -0.686613 -0.044854 -0.559267
v -0.704727 0.002360 -0.693153
v -0.687115 0.017596 -0.551942
v -0.946125 -0.047805 -0.551876
v -0.964237 -0.000591 -0.685763
v -0.946626 0.014645 -0.544551
v -1.205636 -0.050757 -0.544485
v -1.223749 -0.003541 -0.678372
v -1.206138 0.011693 -0.537161
v -1.443804 -0.053751 -0.535263
v -1.478626 -0.007041 -0.665985
v -1.444306 0.008699 -0.527939
v -1.369085 0.009840 -0.532520
v -1.223749 -0.003541 -0.678372
v -1.368584 -0.052609 -0.539846
v -1.109573 0.012792 -0.539910
v -0.964237 -0.000591 -0.685763
v -1.109072 -0.049658 -0.547236
v 0.883291 0.025839 -0.514689
v 1.077944 -0.011022 -0.456984
v 0.883794 -0.036610 -0.522014
v -0.850062 0.015742 -0.547301
v -0.704727 0.002360 -0.693153
v -0.849560 -0.046708 -0.554626
v -0.590550 0.018694 -0.554691
v -0.445215 0.005312 -0.700543
v -0.590048 -0.043756 -0.562017
v -0.331038 0.021645 -0.562083
v -0.185703 0.008263 -0.707933
v -0.330536 -0.040805 -0.569407
v -0.071526 0.024595 -0.569473
v 0.073809 0.011214 -0.715324
v -0.071025 -0.037854 -0.576797
v 0.187985 0.027547 -0.576863
v 0.333322 0.014165 -0.722714
v 0.188487 -0.034903 -0.584188
v 0.693827 0.031860 -0.579001
v 0.871304 0.013790 -0.682677
v 0.694328 -0.030590 -0.586327
v 0.447497 0.030498 -0.584254
v 0.592832 0.017117 -0.730104
v 0.447999 -0.031951 -0.591579
v -1.652762 -0.061132 -0.486643
v -1.761810 -0.020575 -0.569991
v -1.653265 0.001318 -0.479318
v 0.979691 -0.014334 -0.165583
v 1.119029 -0.043052 -0.181089
v 0.981680 0.004672 -0.327483
v 0.920977 -0.037131 0.024761
v 1.054467 -0.072164 0.062682
v 0.984814 -0.019151 -0.124166
v 0.963486 0.009940 -0.373647
v 1.077944 -0.011022 -0.456984
v 0.883291 0.025839 -0.514689
v -1.653265 0.001318 -0.479318
v -1.761810 -0.020575 -0.569991
v -1.767456 -0.013141 -0.363868
v -1.747442 -0.063842 0.069770
v -1.822518 -0.109359 0.182796
v -1.619525 -0.074600 0.170249
v 0.727370 -0.050172 0.122687
v 0.794422 -0.095150 0.240855
v 0.877505 -0.041584 0.059742
v 0.852470 0.028747 -0.541594
v 0.871304 0.013790 -0.682677
v 0.693827 0.031860 -0.579001
v -1.567056 -0.074979 0.177074
v -1.573260 -0.122503 0.311928
v -1.405747 -0.076444 0.200608
v -1.444306 0.008699 -0.527939
v -1.478626 -0.007041 -0.665985
v -1.605457 0.004555 -0.503648
v -0.427603 0.020546 -0.559332
v -0.445215 0.005312 -0.700543
v -0.590550 0.018694 -0.554691
v -0.687115 0.017596 -0.551942
v -0.704727 0.002360 -0.693153
v -0.850062 0.015742 -0.547301
v -0.946626 0.014645 -0.544551
v -0.964237 -0.000591 -0.685763
v -1.109573 0.012792 -0.539910
v -0.168091 0.023498 -0.566722
v -0.185703 0.008263 -0.707933
v -0.331038 0.021645 -0.562083
v 0.091421 0.026449 -0.574113
v 0.073809 0.011214 -0.715324
v -0.071526 0.024595 -0.569473
v 0.350932 0.029400 -0.581504
v 0.333322 0.014165 -0.722714
v 0.187985 0.027547 -0.576863
v 0.610445 0.032351 -0.588894
v 0.592832 0.017117 -0.730104
v 0.447497 0.030498 -0.584254
v -1.206138 0.011693 -0.537161
v -1.223749 -0.003541 -0.678372
v -1.369085 0.009840 -0.532520
v -0.309538 -0.062780 0.159179
v -0.291424 -0.109995 0.293065
v -0.146591 -0.060927 0.154539
v -0.050026 -0.059830 0.151788
v -0.031911 -0.107044 0.285675
v 0.112921 -0.057976 0.147149
v 0.209485 -0.056878 0.144398
v 0.227600 -0.104092 0.278284
v 0.372433 -0.055026 0.139757
v -0.569050 -0.065732 0.166570
v -0.550936 -0.112947 0.300456
v -0.406102 -0.063879 0.161929
v -0.828561 -0.068683 0.173960
v -0.810448 -0.115897 0.307846
v -0.665614 -0.066829 0.169320
v -1.088073 -0.071633 0.181351
v -1.069960 -0.118849 0.315236
v -0.925126 -0.069781 0.176710
v -1.347585 -0.074585 0.188741
v -1.329471 -0.121800 0.322627
v -1.184638 -0.072732 0.184100
v 0.468999 -0.053927 0.137008
v 0.487112 -0.101142 0.270893
v 0.631946 -0.052074 0.132367
v -1.767456 -0.013141 -0.363868
v -1.761810 -0.020575 -0.569991
v -1.766953 -0.075591 -0.371193
v -1.566554 -0.137429 0.169749
v -1.573260 -0.122503 0.311928
v -1.567056 -0.074979 0.177074
v -1.605457 0.004555 -0.503648
v -1.478626 -0.007041 -0.665985
v -1.604955 -0.057895 -0.510974
v -1.347083 -0.137035 0.181417
v -1.329471 -0.121800 0.322627
v -1.347585 -0.074585 0.188741
v -1.746952 -0.126293 0.062445
v -1.822518 -0.109359 0.182796
v -1.747442 -0.063842 0.069770
v -1.087572 -0.134083 0.174025
v -1.069960 -0.118849 0.315236
v -1.088073 -0.071633 0.181351
v -0.828060 -0.131133 0.166635
v -0.810448 -0.115897 0.307846
v -0.828561 -0.068683 0.173960
v -0.568548 -0.128181 0.159245
v -0.550936 -0.112947 0.300456
v -0.569050 -0.065732 0.166570
v -0.309036 -0.125230 0.151854
v -0.291424 -0.109995 0.293065
v -0.309538 -0.062780 0.159179
v -0.049525 -0.122280 0.144464
v -0.031911 -0.107044 0.285675
v -0.050026 -0.059830 0.151788
v 0.209987 -0.119328 0.137074
v 0.227600 -0.104092 0.278284
v 0.209485 -0.056878 0.144398
v 0.469499 -0.116377 0.129684
v 0.487112 -0.101142 0.270893
v 0.468999 -0.053927 0.137008
v 0.727871 -0.112622 0.115362
v 0.794422 -0.095150 0.240855
v 0.727370 -0.050172 0.122687
v 0.631946 -0.052074 0.132367
v 0.487112 -0.101142 0.270893
v 0.632447 -0.114524 0.125043
v 0.372433 -0.055026 0.139757
v 0.227600 -0.104092 0.278284
v 0.372934 -0.117476 0.132433
v 0.963989 -0.052510 -0.380972
v 1.077944 -0.011022 -0.456984
v 0.963486 0.009940 -0.373647
v 0.112921 -0.057976 0.147149
v -0.031911 -0.107044 0.285675
v 0.113423 -0.120426 0.139823
v -0.146591 -0.060927 0.154539
v -0.291424 -0.109995 0.293065
v -0.146089 -0.123377 0.147213
v -1.619525 -0.074600 0.170249
v -1.822518 -0.109359 0.182796
v -1.619022 -0.137050 0.162924
v -0.406102 -0.063879 0.161929
v -0.550936 -0.112947 0.300456
v -0.405601 -0.126329 0.154604
v 0.980193 -0.076784 -0.172909
v 1.119029 -0.043052 -0.181089
v 0.979691 -0.014334 -0.165583
v -0.665614 -0.066829 0.169320
v -0.810448 -0.115897 0.307846
v -0.665113 -0.129279 0.161995
v 0.921480 -0.099581 0.017437
v 1.054467 -0.072164 0.062682
v 0.920977 -0.037131 0.024761
v -0.925126 -0.069781 0.176710
v -1.069960 -0.118849 0.315236
v -0.924624 -0.132231 0.169386
v -1.405747 -0.076444 0.200608
v -1.573260 -0.122503 0.311928
v -1.405246 -0.138894 0.193284
v -1.184638 -0.072732 0.184100
v -1.329471 -0.121800 0.322627
v -1.184136 -0.135182 0.176776
v 0.982183 -0.057778 -0.334808
v 1.119029 -0.043052 -0.181089
v 0.980193 -0.076784 -0.172909
v 0.985317 -0.081600 -0.131491
v 1.054467 -0.072164 0.062682
v 0.921480 -0.099581 0.017437
v 0.883794 -0.036610 -0.522014
v 1.077944 -0.011022 -0.456984
v 0.963989 -0.052510 -0.380972
v -1.766953 -0.075591 -0.371193
v -1.761810 -0.020575 -0.569991
v -1.652762 -0.061132 -0.486643
v -1.619022 -0.137050 0.162924
v -1.822518 -0.109359 0.182796
v -1.746952 -0.126293 0.062445
v 0.878007 -0.104034 0.052418
v 0.794422 -0.095150 0.240855
v 0.727871 -0.112622 0.115362
v 0.694328 -0.030590 -0.586327
v 0.871304 0.013790 -0.682677
v 0.852972 -0.033702 -0.548919
v -1.405246 -0.138894 0.193284
v -1.573260 -0.122503 0.311928
v -1.566554 -0.137429 0.169749
v -1.604955 -0.057895 -0.510974
v -1.478626 -0.007041 -0.665985
v -1.443804 -0.053751 -0.535263
v -0.590048 -0.043756 -0.562017
v -0.445215 0.005312 -0.700543
v -0.427101 -0.041904 -0.566658
v -0.849560 -0.046708 -0.554626
v -0.704727 0.002360 -0.693153
v -0.686613 -0.044854 -0.559267
v -1.109072 -0.049658 -0.547236
v -0.964237 -0.000591 -0.685763
v -0.946125 -0.047805 -0.551876
v -0.330536 -0.040805 -0.569407
v -0.185703 0.008263 -0.707933
v -0.167589 -0.038952 -0.574048
v -0.071025 -0.037854 -0.576797
v 0.073809 0.011214 -0.715324
v 0.091922 -0.036001 -0.581438
v 0.188487 -0.034903 -0.584188
v 0.333322 0.014165 -0.722714
v 0.351434 -0.033050 -0.588828
v 0.447999 -0.031951 -0.591579
v 0.592832 0.017117 -0.730104
v 0.610946 -0.030099 -0.596219
v -1.368584 -0.052609 -0.539846
v -1.223749 -0.003541 -0.678372
v -1.205636 -0.050757 -0.544485
v -0.146089 -0.123377 0.147213
v -0.291424 -0.109995 0.293065
v -0.309036 -0.125230 0.151854
v 0.113423 -0.120426 0.139823
v -0.031911 -0.107044 0.285675
v -0.049525 -0.122280 0.144464
v 0.372934 -0.117476 0.132433
v 0.227600 -0.104092 0.278284
v 0.209987 -0.119328 0.137074
v -0.405601 -0.126329 0.154604
v -0.550936 -0.112947 0.300456
v -0.568548 -0.128181 0.159245
v -0.665113 -0.129279 0.161995
v -0.810448 -0.115897 0.307846
v -0.828060 -0.131133 0.166635
v -0.924624 -0.132231 0.169386
v -1.069960 -0.118849 0.315236
v -1.087572 -0.134083 0.174025
v -1.184136 -0.135182 0.176776
v -1.329471 -0.121800 0.322627
v -1.347083 -0.137035 0.181417
v 0.632447 -0.114524 0.125043
v 0.487112 -0.101142 0.270893
v 0.469499 -0.116377 0.129684
v 0.959462 -0.120852 -0.012081
v 0.959005 -0.064114 -0.005427
v 0.997086 -0.104005 -0.153138
v 0.958561 -0.007375 0.001228
v 0.944653 0.047197 -0.464990
v 0.945110 -0.009542 -0.471645
v 0.945567 -0.066280 -0.478300
v 0.990615 0.031301 -0.326315
v 0.991071 -0.025439 -0.332970
v 0.991528 -0.082177 -0.339625
v 0.994307 -0.093091 -0.246382
v 0.993850 -0.036353 -0.239726
v 0.993394 0.020387 -0.233072
v 0.996629 -0.047267 -0.146483
v 0.996173 0.009472 -0.139828
v -1.763786 0.016397 -0.387858
v -1.763329 -0.040341 -0.394512
v -1.762872 -0.097080 -0.401168
v -1.655316 0.029359 -0.490935
v -1.654872 -0.027379 -0.497590
v -1.654415 -0.084118 -0.504245
v -1.471521 0.035793 -0.533202
v -1.471064 -0.020946 -0.539857
v -1.470608 -0.077684 -0.546512
v 0.648950 -0.053582 -0.606873
v 0.648495 0.003156 -0.600219
v 0.648039 0.059895 -0.593564
v 0.830237 0.057625 -0.561720
v 0.830693 0.000885 -0.568375
v 0.831148 -0.055853 -0.575030
v 0.944653 0.047197 -0.464990
v 0.945110 -0.009542 -0.471645
v 0.945567 -0.066280 -0.478300
v 0.648039 0.059895 -0.593564
v -1.471521 0.035793 -0.533202
v 0.659070 0.016585 -0.223550
v 0.830237 0.057625 -0.561720
v -1.460490 -0.007518 -0.163189
v -1.655316 0.029359 -0.490935
v 0.840164 0.018645 -0.228707
v 0.944653 0.047197 -0.464990
v 0.850091 -0.020336 0.104306
v 0.670099 -0.026726 0.146465
v 0.958561 -0.007375 0.001228
v -1.449460 -0.050830 0.206826
v -1.635466 -0.048601 0.175091
v 0.951601 0.019912 -0.231882
v 0.990615 0.031301 -0.326315
v 0.996173 0.009472 -0.139828
v 0.993394 0.020387 -0.233072
v -1.645391 -0.009621 -0.157923
v -1.749891 -0.038175 0.078360
v -1.763786 0.016397 -0.387858
v -1.756839 -0.010888 -0.154749
v -1.795852 -0.022278 -0.060316
v -1.801410 -0.000449 -0.246803
v -1.798632 -0.011364 -0.153560
v -1.749891 -0.038175 0.078360
v -1.749434 -0.094913 0.071705
v -1.748977 -0.151652 0.065050
v -1.795852 -0.022278 -0.060316
v -1.795396 -0.079016 -0.066970
v -1.794939 -0.135756 -0.073625
v -1.797718 -0.124842 -0.166869
v -1.798175 -0.068102 -0.160214
v -1.798632 -0.011364 -0.153560
v -1.800497 -0.113926 -0.260113
v -1.800954 -0.057187 -0.253457
v -1.801410 -0.000449 -0.246803
v -1.763786 0.016397 -0.387858
v -1.763329 -0.040341 -0.394512
v -1.762872 -0.097080 -0.401168
v 0.851002 -0.133813 0.090996
v 0.670554 -0.083465 0.139809
v 0.671010 -0.140203 0.133154
v -1.448549 -0.164307 0.193515
v 0.850546 -0.077075 0.097650
v 0.959462 -0.120852 -0.012081
v 0.670099 -0.026726 0.146465
v 0.959005 -0.064114 -0.005427
v 0.850091 -0.020336 0.104306
v 0.958561 -0.007375 0.001228
v -1.449004 -0.107568 0.200171
v -1.449460 -0.050830 0.206826
v -1.635466 -0.048601 0.175091
v -1.635009 -0.105339 0.168435
v -1.634552 -0.162078 0.161780
v -1.749891 -0.038175 0.078360
v -1.749434 -0.094913 0.071705
v -1.748977 -0.151652 0.065050
v 0.648950 -0.053582 -0.606873
v -1.459579 -0.120996 -0.176499
v -1.470608 -0.077684 -0.546512
v -1.654415 -0.084118 -0.504245
v 0.659981 -0.096892 -0.236860
v 0.831148 -0.055853 -0.575030
v -1.644477 -0.123098 -0.171233
v -1.762872 -0.097080 -0.401168
v -1.634552 -0.162078 0.161780
v -1.448549 -0.164307 0.193515
v -1.748977 -0.151652 0.065050
v 0.671010 -0.140203 0.133154
v 0.851002 -0.133813 0.090996
v -1.755925 -0.124365 -0.168060
v -1.800497 -0.113926 -0.260113
v -1.794939 -0.135756 -0.073625
v -1.797718 -0.124842 -0.166869
v 0.841076 -0.094833 -0.242018
v 0.959462 -0.120852 -0.012081
v 0.945567 -0.066280 -0.478300
v 0.952515 -0.093566 -0.245191
v 0.997086 -0.104005 -0.153138
v 0.991528 -0.082177 -0.339625
v 0.994307 -0.093091 -0.246382
vn 0.9996 0.0050 0.0263
vn 0.8048 0.0755 -0.5887
vn 0.8050 0.0755 -0.5885
vn 0.7824 -0.0663 0.6192
vn 0.7824 -0.0663 0.6193
vn 0.9988 0.0022 0.0495
vn 0.8410 -0.0563 0.5380
vn 0.9912 0.0232 -0.1301
vn 0.9912 0.0232 -0.1302
vn 0.9912 0.0233 -0.1302
vn 0.8791 0.0625 -0.4725
vn -0.7004 0.0776 -0.7096
vn 0.5501 0.1016 -0.8289
vn -0.7004 0.0776 -0.7095
vn -0.0845 0.1154 -0.9897
vn -0.5666 0.0915 -0.8189
vn 0.2132 0.9671 0.1385
vn 0.2032 0.9772 0.0607
vn 0.1463 0.9529 0.2657
vn 0.1289 0.9902 -0.0544
vn -0.0925 0.9919 -0.0872
vn -0.0566 0.9436 0.3261
vn 0.0250 0.9940 -0.1061
vn 0.0223 0.9432 0.3315
vn -0.0012 0.9430 0.3327
vn -0.0013 0.9431 0.3324
vn -0.0013 0.9430 0.3327
vn -0.0013 0.9432 0.3323
vn -0.0143 0.9943 -0.1055
vn -0.9131 0.0402 -0.4059
vn -0.9906 0.0080 -0.1364
vn -0.9922 -0.0223 0.1225
vn -0.9922 -0.0224 0.1225
vn -0.9685 -0.0367 0.2465
vn 0.7045 -0.0771 0.7055
vn 0.7044 -0.0771 0.7056
vn 0.3279 -0.1074 0.9386
vn -0.0176 -0.1166 0.9930
vn 0.4981 -0.0970 0.8617
vn -0.6271 -0.0957 0.7730
vn -0.6272 -0.0957 0.7730
vn 0.2287 -0.9695 -0.0886
vn 0.2188 -0.9614 -0.1666
vn 0.1620 -0.9860 0.0384
vn 0.1445 -0.9485 -0.2819
vn 0.1445 -0.9485 -0.2818
vn -0.0770 -0.9461 -0.3146
vn -0.0411 -0.9942 0.0989
vn 0.0406 -0.9420 -0.3331
vn 0.0379 -0.9938 0.1044
vn 0.0143 -0.9944 0.1050
vn 0.0143 -0.9943 0.1055
vn 0.0143 -0.9944 0.1052
vn 0.0013 -0.9430 -0.3327
vn 0.0013 -0.9432 -0.3323
vn 0.0013 -0.9431 -0.3324
vn 0.0012 -0.9430 -0.3327
vn 0.9398 0.0473 -0.3385
vn 0.9129 -0.0402 0.4061
vn 0.9906 -0.0080 0.1364
vn 0.7367 0.0846 -0.6709
vn 0.9685 0.0367 -0.2462
vn -0.7044 0.0771 -0.7056
vn 0.3021 0.1135 -0.9465
vn -0.7045 0.0771 -0.7056
vn -0.7045 0.0771 -0.7055
vn -0.4981 0.0970 -0.8617
vn 0.6227 0.0961 -0.7765
vn 0.2126 0.9703 0.1153
vn 0.1917 0.9605 0.2018
vn 0.1857 0.9826 0.0065
vn -0.1620 0.9860 -0.0384
vn -0.1445 0.9485 0.2818
vn 0.0770 0.9461 0.3145
vn 0.0769 0.9461 0.3145
vn 0.0410 0.9943 -0.0989
vn -0.0406 0.9420 0.3332
vn -0.0379 0.9938 -0.1044
vn -0.0143 0.9944 -0.1052
vn -0.0143 0.9944 -0.1049
vn -0.0143 0.9944 -0.1050
vn -0.9996 -0.0049 -0.0263
vn -0.9988 -0.0022 -0.0496
vn -0.7824 0.0663 -0.6192
vn -0.9912 -0.0233 0.1302
vn -0.8411 0.0563 -0.5380
vn -0.9912 -0.0232 0.1302
vn -0.8791 -0.0625 0.4726
vn 0.5753 -0.0907 0.8129
vn 0.0845 -0.1154 0.9897
vn 0.0846 -0.1154 0.9897
vn -0.3022 -0.1134 0.9465
vn 0.7045 -0.0771 0.7056
vn 0.5666 -0.0915 0.8189
vn 0.2282 -0.9672 -0.1119
vn 0.2282 -0.9671 -0.1120
vn 0.2073 -0.9779 -0.0255
vn 0.2014 -0.9543 -0.2206
vn -0.1464 -0.9529 -0.2657
vn -0.1289 -0.9902 0.0545
vn 0.0925 -0.9919 0.0872
vn 0.0566 -0.9436 -0.3261
vn -0.0250 -0.9940 0.1062
vn -0.0250 -0.9940 0.1061
vn -0.0223 -0.9432 -0.3315
vn 0.0143 -0.9944 0.1049
vn 0.9928 -0.0061 0.1199
vn 0.8387 -0.0568 0.5416
vn 0.8387 -0.0567 0.5416
vn 0.8051 0.0755 -0.5884
vn 0.9839 0.0286 -0.1762
vn 0.9840 0.0286 -0.1761
vn 0.9995 0.0114 -0.0285
vn -0.3974 0.1038 -0.9117
vn -0.8386 0.0568 -0.5418
vn -0.8386 0.0567 -0.5418
vn -0.3974 0.1037 -0.9118
vn -0.3973 0.1037 -0.9118
vn -0.1242 0.1146 -0.9856
vn -0.1243 0.1146 -0.9856
vn 0.0653 0.1167 -0.9910
vn 0.0653 0.1168 -0.9910
vn 0.3424 0.1122 -0.9328
vn 0.3425 0.1121 -0.9328
vn 0.8049 0.0755 -0.5886
vn -0.0080 0.9932 0.1165
vn -0.8051 -0.0755 0.5884
vn -0.9839 -0.0286 0.1762
vn -0.9995 -0.0114 0.0285
vn -0.9928 0.0061 -0.1199
vn -0.8387 0.0568 -0.5416
vn 0.3974 -0.1037 0.9118
vn 0.1242 -0.1146 0.9856
vn -0.0653 -0.1168 0.9910
vn 0.3973 -0.1038 0.9118
vn 0.8386 -0.0568 0.5418
vn 0.3974 -0.1038 0.9118
vn -0.0653 -0.1167 0.9910
vn -0.3424 -0.1122 0.9328
vn -0.3424 -0.1121 0.9328
vn -0.8049 -0.0755 0.5886
vn 0.0080 -0.9932 -0.1165
vt 11.974800 -47.168598
vt 12.000000 -47.331501
vt 12.025200 -47.168598
vt 11.974800 -47.006401
vt 12.000000 -47.140400
vt 12.025200 -47.006401
vt 11.974800 -47.276199
vt 12.000000 -47.401001
vt 12.025200 -47.276199
vt 12.025200 -46.727200
vt 12.000000 -46.615898
vt 11.974800 -46.727200
vt 12.025200 -46.819000
vt 12.000000 -46.726799
vt 11.974800 -46.819000
vt 12.025200 -46.709400
vt 12.000000 -46.598202
vt 11.974800 -46.709400
vt 12.025200 -46.719700
vt 12.000000 -46.619999
vt 11.974800 -46.719700
vt 12.960400 -46.974800
vt 12.841000 -47.000000
vt 12.960400 -47.025200
vt 12.752700 -46.974800
vt 12.633200 -47.000000
vt 12.752700 -47.025200
vt 11.007800 -46.974800
vt 10.874500 -47.000000
vt 11.007800 -47.025200
vt 12.545000 -46.974800
vt 12.425500 -47.000000
vt 12.545000 -47.025200
vt 12.337200 -46.974800
vt 12.217800 -47.000000
vt 12.337200 -47.025200
vt 12.129500 -46.974800
vt 12.010100 -47.000000
vt 12.129500 -47.025200
vt 11.113500 -46.974800
vt 10.950600 -47.000000
vt 11.113500 -47.025200
vt 11.921800 -46.974800
vt 11.802400 -47.000000
vt 11.921800 -47.025200
vt 11.714100 -46.974800
vt 11.594700 -47.000000
vt 11.714100 -47.025200
vt 11.506400 -46.974800
vt 11.387000 -47.000000
vt 11.506400 -47.025200
vt 11.306900 -46.974800
vt 11.170000 -47.000000
vt 11.306900 -47.025200
vt 13.000500 -47.135502
vt 13.112100 -47.140400
vt 13.019100 -47.006401
vt 13.018900 -46.977901
vt 13.125500 -46.944302
vt 12.992200 -46.850201
vt 12.888500 -47.258900
vt 12.973400 -47.331501
vt 12.982500 -47.168598
vt 12.986400 -46.819000
vt 13.049400 -46.726799
vt 12.886500 -46.735199
vt 10.999000 -46.719700
vt 10.948500 -46.619999
vt 10.877500 -46.766899
vt 10.892700 -47.251598
vt 10.874500 -47.361801
vt 11.018700 -47.285400
vt 12.821500 -46.727200
vt 12.830000 -46.615898
vt 12.693100 -46.704601
vt 12.706500 -47.292099
vt 12.731000 -47.401001
vt 12.836000 -47.276199
vt 11.870500 -47.290600
vt 11.881500 -47.401798
vt 12.000900 -47.290600
vt 12.078200 -47.290600
vt 12.089200 -47.401798
vt 12.208600 -47.290600
vt 12.285900 -47.290600
vt 12.296900 -47.401798
vt 12.416300 -47.290600
vt 11.662800 -47.290600
vt 11.673800 -47.401798
vt 11.793200 -47.290600
vt 11.455000 -47.290600
vt 11.466100 -47.401798
vt 11.585500 -47.290600
vt 11.247300 -47.290600
vt 11.258300 -47.401798
vt 11.377800 -47.290600
vt 11.039600 -47.290600
vt 11.050600 -47.401798
vt 11.170100 -47.290600
vt 12.493600 -47.290600
vt 12.504600 -47.401798
vt 12.624000 -47.290600
vt 11.793200 -46.709400
vt 11.782200 -46.598202
vt 11.662800 -46.709400
vt 11.585500 -46.709400
vt 11.574500 -46.598202
vt 11.455000 -46.709400
vt 11.377800 -46.709400
vt 11.366800 -46.598202
vt 11.247300 -46.709400
vt 12.000900 -46.709400
vt 11.989900 -46.598202
vt 11.870500 -46.709400
vt 12.208600 -46.709400
vt 12.197600 -46.598202
vt 12.078200 -46.709400
vt 12.416300 -46.709400
vt 12.405300 -46.598202
vt 12.285900 -46.709400
vt 12.624000 -46.709400
vt 12.613000 -46.598202
vt 12.493600 -46.709400
vt 11.170100 -46.709400
vt 11.159000 -46.598202
vt 11.039600 -46.709400
vt 12.025200 -46.766899
vt 11.974800 -46.766899
vt 11.974800 -47.251598
vt 12.000000 -47.361801
vt 12.025200 -47.251598
vt 11.974800 -47.290600
vt 12.000000 -47.401798
vt 12.025200 -47.290600
vt 11.974800 -47.292099
vt 12.025200 -47.292099
vt 12.624000 -46.974800
vt 12.504600 -47.000000
vt 12.624000 -47.025200
vt 12.416300 -46.974800
vt 12.296900 -47.000000
vt 12.416300 -47.025200
vt 12.208600 -46.974800
vt 12.089200 -47.000000
vt 12.208600 -47.025200
vt 13.018900 -47.025200
vt 13.125500 -47.000000
vt 13.018900 -46.974800
vt 12.000900 -46.974800
vt 11.881500 -47.000000
vt 12.000900 -47.025200
vt 13.000500 -47.025200
vt 13.112100 -47.000000
vt 13.000500 -46.974800
vt 11.793200 -46.974800
vt 11.673800 -47.000000
vt 11.793200 -47.025200
vt 11.585500 -46.974800
vt 11.466100 -47.000000
vt 11.585500 -47.025200
vt 11.018700 -46.974800
vt 11.018700 -47.025200
vt 11.377800 -46.974800
vt 11.258300 -47.000000
vt 11.377800 -47.025200
vt 12.888500 -47.025200
vt 12.973400 -47.000000
vt 12.888500 -46.974800
vt 11.170100 -46.974800
vt 11.050600 -47.000000
vt 11.170100 -47.025200
vt 10.980900 -47.006401
vt 10.887900 -47.140400
vt 10.999500 -47.135502
vt 11.007800 -46.850201
vt 10.874500 -46.944302
vt 10.981100 -46.977901
vt 11.017500 -47.168598
vt 11.026600 -47.331501
vt 11.111500 -47.258900
vt 11.113500 -46.735199
vt 10.950600 -46.726799
vt 11.013600 -46.819000
vt 13.122500 -46.766899
vt 13.051500 -46.619999
vt 13.001000 -46.719700
vt 12.981300 -47.285400
vt 13.125500 -47.361801
vt 13.107300 -47.251598
vt 11.306900 -46.704601
vt 11.170000 -46.615898
vt 11.178500 -46.727200
vt 11.164000 -47.276199
vt 11.269000 -47.401001
vt 11.293500 -47.292099
vt 11.999100 -47.290600
vt 12.118500 -47.401798
vt 12.129500 -47.290600
vt 11.791400 -47.290600
vt 11.910800 -47.401798
vt 11.921800 -47.290600
vt 11.583700 -47.290600
vt 11.703100 -47.401798
vt 11.714100 -47.290600
vt 12.206800 -47.290600
vt 12.326200 -47.401798
vt 12.337200 -47.290600
vt 12.414500 -47.290600
vt 12.533900 -47.401798
vt 12.545000 -47.290600
vt 12.622200 -47.290600
vt 12.741700 -47.401798
vt 12.752700 -47.290600
vt 12.829900 -47.290600
vt 12.949400 -47.401798
vt 12.960400 -47.290600
vt 11.376000 -47.290600
vt 11.495400 -47.401798
vt 11.506400 -47.290600
vt 12.337200 -46.709400
vt 12.217800 -46.598202
vt 12.206800 -46.709400
vt 12.545000 -46.709400
vt 12.425500 -46.598202
vt 12.414500 -46.709400
vt 12.752700 -46.709400
vt 12.633200 -46.598202
vt 12.622200 -46.709400
vt 12.129500 -46.709400
vt 12.010100 -46.598202
vt 11.999100 -46.709400
vt 11.921800 -46.709400
vt 11.802400 -46.598202
vt 11.791400 -46.709400
vt 11.714100 -46.709400
vt 11.594700 -46.598202
vt 11.583700 -46.709400
vt 11.506400 -46.709400
vt 11.387000 -46.598202
vt 11.376000 -46.709400
vt 12.960400 -46.709400
vt 12.841000 -46.598202
vt 12.829900 -46.709400
vt 29.974800 -61.092098
vt 30.000000 -61.247101
vt 30.025200 -61.092098
vt 29.974800 -61.237801
vt 30.000000 -61.384602
vt 30.025200 -61.237801
vt 30.025200 -60.752998
vt 30.000000 -60.642799
vt 29.974800 -60.752998
vt 29.974800 -60.928398
vt 30.000000 -61.052299
vt 30.025200 -60.928398
vt 30.025200 -60.709400
vt 30.000000 -60.598202
vt 29.974800 -60.709400
vt 30.025200 -60.711399
vt 30.000000 -60.602402
vt 29.974800 -60.711399
vt 30.800600 -60.974800
vt 30.681101 -61.000000
vt 30.800600 -61.025200
vt 30.592899 -60.974800
vt 30.473400 -61.000000
vt 30.592899 -61.025200
vt 28.999800 -60.974800
vt 28.845800 -61.000000
vt 28.999800 -61.025200
vt 30.385099 -60.974800
vt 30.265699 -61.000000
vt 30.385099 -61.025200
vt 30.177401 -60.974800
vt 30.058001 -61.000000
vt 30.177401 -61.025200
vt 29.969700 -60.974800
vt 29.850300 -61.000000
vt 29.969700 -61.025200
vt 29.761999 -60.974800
vt 29.642599 -61.000000
vt 29.761999 -61.025200
vt 29.554300 -60.974800
vt 29.434900 -61.000000
vt 29.554300 -61.025200
vt 29.149799 -60.974800
vt 29.005600 -61.000000
vt 29.149799 -61.025200
vt 29.346600 -60.974800
vt 29.227200 -61.000000
vt 29.346600 -61.025200
vt 31.029100 -61.025200
vt 31.114000 -61.000000
vt 31.029100 -60.974800
vt 31.069000 -61.058701
vt 31.180500 -61.052299
vt 31.074499 -60.928398
vt 31.017500 -61.210602
vt 31.123100 -61.247101
vt 31.072100 -61.092098
vt 31.061001 -60.890800
vt 31.154200 -60.829300
vt 31.000200 -60.775398
vt 28.970900 -60.745701
vt 28.886000 -60.673199
vt 28.876801 -60.836102
vt 28.882500 -61.185600
vt 28.819500 -61.277901
vt 28.982401 -61.269501
vt 30.860300 -61.285000
vt 30.910900 -61.384602
vt 30.981899 -61.237801
vt 30.976200 -60.752998
vt 30.994400 -60.642799
vt 30.850201 -60.719299
vt 29.024200 -61.276199
vt 29.015699 -61.387600
vt 29.152599 -61.298801
vt 29.139200 -60.711399
vt 29.114700 -60.602402
vt 29.009701 -60.727200
vt 29.952999 -60.709400
vt 29.941999 -60.598202
vt 29.822599 -60.709400
vt 29.745300 -60.709400
vt 29.734301 -60.598202
vt 29.614901 -60.709400
vt 29.537600 -60.709400
vt 29.526600 -60.598202
vt 29.407101 -60.709400
vt 30.160700 -60.709400
vt 30.149700 -60.598202
vt 30.030300 -60.709400
vt 30.368401 -60.709400
vt 30.357401 -60.598202
vt 30.238001 -60.709400
vt 30.576099 -60.709400
vt 30.565100 -60.598202
vt 30.445700 -60.709400
vt 30.783800 -60.709400
vt 30.772800 -60.598202
vt 30.653400 -60.709400
vt 29.329901 -60.709400
vt 29.318899 -60.598202
vt 29.199400 -60.709400
vt 30.030300 -61.290600
vt 30.041300 -61.401798
vt 30.160700 -61.290600
vt 30.238001 -61.290600
vt 30.249001 -61.401798
vt 30.368401 -61.290600
vt 30.445700 -61.290600
vt 30.456699 -61.401798
vt 30.576099 -61.290600
vt 29.822599 -61.290600
vt 29.833599 -61.401798
vt 29.952999 -61.290600
vt 29.614901 -61.290600
vt 29.625900 -61.401798
vt 29.745300 -61.290600
vt 29.407101 -61.290600
vt 29.418100 -61.401798
vt 29.537600 -61.290600
vt 29.199400 -61.290600
vt 29.210400 -61.401798
vt 29.329901 -61.290600
vt 30.653400 -61.290600
vt 30.664400 -61.401798
vt 30.783800 -61.290600
vt 30.025200 -60.836102
vt 30.000000 -60.673199
vt 29.974800 -60.836102
vt 29.974800 -61.276199
vt 30.000000 -61.387600
vt 30.025200 -61.276199
vt 30.025200 -60.727200
vt 29.974800 -60.727200
vt 29.974800 -61.290600
vt 30.000000 -61.401798
vt 30.025200 -61.290600
vt 29.974800 -61.185600
vt 30.000000 -61.277901
vt 30.025200 -61.185600
vt 29.974800 -61.285000
vt 30.025200 -61.285000
vt 30.783800 -60.974800
vt 30.664400 -61.000000
vt 30.783800 -61.025200
vt 30.576099 -60.974800
vt 30.456699 -61.000000
vt 30.576099 -61.025200
vt 31.061001 -61.025200
vt 31.154200 -61.000000
vt 31.061001 -60.974800
vt 30.368401 -60.974800
vt 30.249001 -61.000000
vt 30.368401 -61.025200
vt 30.160700 -60.974800
vt 30.041300 -61.000000
vt 30.160700 -61.025200
vt 28.982401 -60.974800
vt 28.819500 -61.000000
vt 28.982401 -61.025200
vt 29.952999 -60.974800
vt 29.833599 -61.000000
vt 29.952999 -61.025200
vt 31.069000 -61.025200
vt 31.180500 -61.000000
vt 31.069000 -60.974800
vt 29.745300 -60.974800
vt 29.625900 -61.000000
vt 29.745300 -61.025200
vt 31.017500 -61.025200
vt 31.123100 -61.000000
vt 31.017500 -60.974800
vt 29.537600 -60.974800
vt 29.418100 -61.000000
vt 29.537600 -61.025200
vt 29.152599 -60.974800
vt 29.015699 -61.000000
vt 29.152599 -61.025200
vt 29.329901 -60.974800
vt 29.210400 -61.000000
vt 29.329901 -61.025200
vt 28.925501 -60.928398
vt 28.819500 -61.052299
vt 28.931000 -61.058701
vt 28.927900 -61.092098
vt 28.876900 -61.247101
vt 28.982500 -61.210602
vt 28.999800 -60.775398
vt 28.845800 -60.829300
vt 28.938999 -60.890800
vt 31.123199 -60.836102
vt 31.114000 -60.673199
vt 31.029100 -60.745701
vt 31.017599 -61.269501
vt 31.180500 -61.277901
vt 31.117500 -61.185600
vt 29.018101 -61.237801
vt 29.089100 -61.384602
vt 29.139700 -61.285000
vt 29.149799 -60.719299
vt 29.005600 -60.642799
vt 29.023800 -60.752998
vt 30.847401 -61.298801
vt 30.984301 -61.387600
vt 30.975800 -61.276199
vt 30.990299 -60.727200
vt 30.885300 -60.602402
vt 30.860800 -60.711399
vt 30.177401 -60.709400
vt 30.058001 -60.598202
vt 30.047001 -60.709400
vt 30.385099 -60.709400
vt 30.265699 -60.598202
vt 30.254700 -60.709400
vt 30.592899 -60.709400
vt 30.473400 -60.598202
vt 30.462400 -60.709400
vt 29.969700 -60.709400
vt 29.850300 -60.598202
vt 29.839300 -60.709400
vt 29.761999 -60.709400
vt 29.642599 -60.598202
vt 29.631599 -60.709400
vt 29.554300 -60.709400
vt 29.434900 -60.598202
vt 29.423901 -60.709400
vt 29.346600 -60.709400
vt 29.227200 -60.598202
vt 29.216200 -60.709400
vt 30.800600 -60.709400
vt 30.681101 -60.598202
vt 30.670099 -60.709400
vt 29.839300 -61.290600
vt 29.958700 -61.401798
vt 29.969700 -61.290600
vt 29.631599 -61.290600
vt 29.750999 -61.401798
vt 29.761999 -61.290600
vt 29.423901 -61.290600
vt 29.543301 -61.401798
vt 29.554300 -61.290600
vt 30.047001 -61.290600
vt 30.166401 -61.401798
vt 30.177401 -61.290600
vt 30.254700 -61.290600
vt 30.374100 -61.401798
vt 30.385099 -61.290600
vt 30.462400 -61.290600
vt 30.581900 -61.401798
vt 30.592899 -61.290600
vt 30.670099 -61.290600
vt 30.789600 -61.401798
vt 30.800600 -61.290600
vt 29.216200 -61.290600
vt 29.335600 -61.401798
vt 29.346600 -61.290600
vt 6.045700 -25.075100
vt 6.000000 -25.187799
vt 6.045700 -25.187799
vt 5.954300 -24.812201
vt 5.954300 -24.924900
vt 6.000000 -24.812201
vt 6.000000 -24.924900
vt 6.045700 -24.812201
vt 6.045700 -24.924900
vt 6.045700 -25.000000
vt 6.000000 -25.000000
vt 5.954300 -25.000000
vt 6.000000 -25.075100
vt 5.954300 -25.075100
vt 5.954300 -25.187799
vt 6.994690 -24.954300
vt 7.083890 -25.000000
vt 7.083890 -24.954300
vt 6.994690 -25.000000
vt 7.083890 -25.045700
vt 6.994690 -25.045700
vt 6.846700 -24.954300
vt 6.846700 -25.000000
vt 6.846700 -25.045700
vt 5.150250 -25.045700
vt 5.150250 -25.000000
vt 5.150250 -24.954300
vt 5.005310 -24.954300
vt 5.005310 -25.000000
vt 5.005310 -25.045700
vt 4.916110 -24.954300
vt 4.916110 -25.000000
vt 4.916110 -25.045700
vt 6.849750 -24.701799
vt 5.153300 -24.701799
vt 6.849750 -25.000000
vt 6.994690 -24.731701
vt 5.153300 -25.000000
vt 5.005310 -24.731701
vt 7.083890 -24.812201
vt 6.994690 -25.268299
vt 6.849750 -25.298201
vt 7.083890 -25.187799
vt 5.153300 -25.298201
vt 5.005310 -25.268299
vt 7.117340 -24.924900
vt 7.117340 -25.075100
vt 7.117340 -25.000000
vt 4.916110 -25.187799
vt 4.916110 -24.812201
vt 4.882660 -25.075100
vt 4.882660 -24.924900
vt 4.882660 -25.000000
vt 6.849750 -25.045700
vt 5.153300 -25.045700
vt 6.849750 -24.954300
vt 5.153300 -24.954300
vt 5.150250 -24.701799
vt 6.846700 -24.701799
vt 6.846700 -25.298201
vt 5.150250 -25.298201
s 1
usemtl Spikes21Mtl.001
f 161/25/79 162/26/79 163/27/79
f 164/28/80 165/29/81 166/30/80
f 167/31/82 168/32/83 169/33/83
f 170/34/84 171/35/84 172/36/84
f 173/37/85 174/38/85 175/39/85
f 176/40/86 177/41/86 178/42/86
f 179/40/87 180/41/87 181/42/87
f 182/40/87 183/41/87 184/42/87
f 185/40/88 186/41/87 187/42/88
f 188/40/86 189/41/87 190/42/86
f 191/40/86 192/41/87 193/42/86
f 194/40/88 195/41/87 196/42/87
f 197/43/89 198/44/89 199/45/89
f 200/40/87 201/41/87 202/42/87
f 203/46/90 204/47/90 205/48/90
f 206/49/90 207/50/90 208/51/90
f 209/52/91 210/53/91 211/54/91
f 212/55/90 213/56/90 214/57/90
f 215/58/92 216/59/92 217/60/92
f 218/61/90 219/62/90 220/63/90
f 221/64/93 222/65/93 223/66/93
f 224/67/90 225/68/90 226/69/90
f 227/70/92 228/71/92 229/72/92
f 230/73/90 231/74/90 232/75/90
f 233/76/94 234/77/94 235/78/94
f 236/79/95 237/80/95 238/81/95
f 239/82/96 240/83/96 241/84/96
f 242/85/97 243/86/97 244/87/97
f 245/88/98 246/89/98 247/90/98
f 248/91/99 249/92/99 250/93/99
f 251/94/100 252/95/100 253/96/100
f 254/97/101 255/98/101 256/99/101
f 257/100/102 258/101/102 259/102/102
f 260/103/103 261/104/103 262/105/103
f 263/106/103 264/107/103 265/108/103
f 266/109/103 267/110/104 268/111/104
f 269/112/105 270/113/105 271/114/105
f 272/115/104 273/116/104 274/117/104
f 275/118/106 276/119/106 277/120/106
f 278/121/103 279/122/103 280/123/103
f 281/124/103 282/125/103 283/126/103
f 284/127/107 285/128/107 286/129/107
f 287/130/107 288/131/107 289/132/107
f 290/133/107 291/134/107 292/135/107
f 293/136/107 294/137/107 295/138/107
f 296/139/107 297/140/107 298/141/107
f 299/142/107 300/143/107 301/144/107
f 302/145/107 303/146/107 304/147/107
f 305/148/107 306/149/107 307/150/107
f 308/151/108 309/44/108 310/152/108
f 311/153/109 312/154/109 313/155/109
f 314/156/110 315/157/110 316/158/110
f 317/156/111 318/157/111 319/158/111
f 320/156/111 321/157/111 322/158/111
f 323/156/111 324/157/111 325/158/111
f 326/156/111 327/157/111 328/158/111
f 329/156/110 330/157/110 331/158/110
f 332/156/111 333/157/111 334/158/111
f 335/156/111 336/157/111 337/158/111
f 338/159/112 339/32/112 340/160/112
f 341/161/113 342/162/114 343/163/113
f 344/164/114 345/165/114 346/166/114
f 347/167/114 348/168/114 349/169/114
f 350/170/115 351/171/115 352/172/115
f 353/173/114 354/174/114 355/175/114
f 356/176/116 357/177/116 358/178/116
f 359/179/114 360/180/114 361/181/114
f 362/182/114 363/183/114 364/184/114
f 365/185/117 366/53/117 367/186/117
f 368/187/114 369/188/114 370/189/114
f 371/190/118 372/191/119 373/192/119
f 374/193/114 375/194/114 376/195/114
f 377/196/120 378/197/120 379/198/120
f 380/199/121 381/200/121 382/201/121
f 383/202/122 384/203/122 385/204/122
f 386/205/123 387/206/123 388/207/124
f 389/208/125 390/209/125 391/210/125
f 392/211/126 393/212/126 394/213/126
f 395/214/127 396/215/127 397/216/127
f 398/217/128 399/218/128 400/219/128
f 401/220/129 402/221/129 403/222/129
f 404/223/130 405/224/130 406/225/130
f 407/226/130 408/227/130 409/228/130
f 410/229/131 411/230/131 412/231/131
f 413/232/130 414/233/130 415/234/130
f 416/235/130 417/236/130 418/237/130
f 419/238/130 420/239/130 421/240/130
f 422/241/131 423/242/131 424/243/131
f 425/244/132 426/245/133 427/246/133
f 428/247/133 429/248/133 430/249/134
f 431/250/134 432/251/134 433/252/134
f 434/253/135 435/254/135 436/255/135
f 437/256/133 438/257/133 439/258/133
f 440/259/134 441/260/134 442/261/134
f 443/262/132 444/263/132 445/264/132
f 446/265/132 447/266/132 448/267/132
f 449/268/136 450/269/136 451/270/136
f 452/271/137 453/272/137 454/273/137
f 455/274/138 456/275/138 457/276/138
f 458/277/139 459/278/139 460/279/139
f 461/280/87 462/281/87 463/282/87
f 464/280/87 465/281/87 466/282/87
f 467/280/88 468/281/88 469/282/88
f 470/280/88 471/281/88 472/282/88
f 473/280/88 474/281/88 475/282/88
f 476/280/87 477/281/87 478/282/87
f 479/280/87 480/281/87 481/282/87
f 482/280/86 483/281/87 484/282/87
f 485/283/140 486/284/140 487/285/140
f 488/286/141 489/287/141 490/288/141
f 491/289/141 492/290/141 493/291/141
f 494/292/142 495/293/142 496/294/142
f 497/295/141 498/296/141 499/297/141
f 500/298/141 501/299/141 502/300/141
f 503/301/143 504/302/143 505/303/143
f 506/304/144 507/305/144 508/306/144
f 509/307/141 510/308/141 511/309/141
f 512/310/145 513/311/145 514/312/145
f 515/313/141 516/314/141 517/315/141
f 518/316/146 519/317/146 520/318/146
f 521/319/147 522/320/147 523/321/147
f 524/322/148 525/323/148 526/324/148
f 527/325/149 528/326/149 529/327/149
f 530/328/150 531/329/150 532/330/150
f 533/331/151 534/332/151 535/333/151
f 536/334/152 537/335/153 538/336/152
f 539/337/154 540/338/154 541/339/154
f 542/340/155 543/341/155 544/342/155
f 545/343/156 546/344/156 547/345/156
f 548/346/107 549/347/107 550/348/107
f 551/349/157 552/350/107 553/351/107
f 554/352/107 555/353/107 556/354/107
f 557/355/158 558/356/158 559/357/158
f 560/358/107 561/359/107 562/360/107
f 563/361/159 564/362/159 565/363/159
f 566/364/107 567/365/157 568/366/107
f 569/367/159 570/368/158 571/369/159
f 572/370/106 573/371/103 574/372/103
f 575/373/105 576/374/105 577/375/105
f 578/376/103 579/377/103 580/378/103
f 581/379/103 582/380/103 583/381/103
f 584/382/105 585/383/105 586/384/105
f 587/385/103 588/386/103 589/387/103
f 590/388/103 591/389/103 592/390/103
f 593/391/103 594/392/104 595/393/104
f 596/394/160 597/395/160 598/396/160
f 599/397/161 600/398/161 601/399/161
f 602/400/162 603/284/162 604/401/162
f 605/402/163 606/403/163 607/404/163
f 608/405/164 609/406/164 610/407/164
f 611/402/165 612/403/165 613/404/165
f 614/402/165 615/403/165 616/404/165
f 617/402/165 618/403/165 619/404/165
f 620/402/163 621/403/163 622/404/163
f 623/402/165 624/403/165 625/404/165
f 626/402/165 627/403/165 628/404/165
f 629/402/165 630/403/165 631/404/165
f 632/408/166 633/272/166 634/409/166
f 635/410/114 636/411/114 637/412/114
f 638/413/114 639/414/114 640/415/114
f 641/416/167 642/417/167 643/418/167
f 644/419/114 645/420/114 646/421/114
f 647/422/114 648/423/114 649/424/114
f 650/425/168 651/426/168 652/427/168
f 653/428/114 654/429/114 655/430/114
f 656/431/169 657/432/169 658/433/169
f 659/434/114 660/435/114 661/436/114
f 662/437/170 663/438/170 664/439/170
f 665/440/171 666/441/171 667/442/171
f 668/443/172 669/444/172 670/445/172
f 671/446/113 672/447/113 673/448/113
f 674/449/173 675/450/174 676/451/174
f 677/452/175 678/453/175 679/454/175
f 680/455/176 681/456/176 682/457/176
f 683/458/177 684/459/177 685/460/177
f 686/461/178 687/462/178 688/463/178
f 689/464/179 690/465/179 691/466/179
f 692/467/180 693/468/180 694/469/180
f 695/470/181 696/471/181 697/472/182
f 698/473/183 699/474/183 700/475/183
f 701/476/134 702/477/134 703/478/134
f 704/479/133 705/480/133 706/481/133
f 707/482/135 708/483/135 709/484/135
f 710/485/135 711/486/135 712/487/135
f 713/488/135 714/489/135 715/490/135
f 716/491/134 717/492/134 718/493/134
f 719/494/135 720/495/135 721/496/135
f 722/497/135 723/498/135 724/499/135
f 725/500/130 726/501/130 727/502/130
f 728/503/130 729/504/130 730/505/130
f 731/506/131 732/507/131 733/508/131
f 734/509/130 735/510/131 736/511/131
f 737/512/130 738/513/130 739/514/130
f 740/515/130 741/516/130 742/517/130
f 743/518/130 744/519/130 745/520/130
f 746/521/184 747/522/129 748/523/184
usemtl Blade1Mtl.001
f 751/524/185 750/525/186 749/526/187
f 753/527/188 756/528/189 754/529/188
f 754/529/188 757/530/189 755/531/188
f 757/530/189 754/529/188 756/528/189
f 758/532/190 755/531/188 757/530/189
f 758/532/190 757/530/189 759/533/191
f 756/528/189 760/534/191 757/530/189
f 759/533/191 757/530/189 760/534/191
f 760/534/191 756/528/189 761/535/191
f 759/533/191 760/534/191 751/524/185
f 760/534/191 761/535/191 762/536/185
f 751/524/185 760/534/191 762/536/185
f 762/536/185 761/535/191 763/537/185
f 750/525/186 751/524/185 762/536/185
f 752/538/187 762/536/185 763/537/185
f 762/536/185 752/538/187 750/525/186
f 767/539/192 765/540/193 764/541/194
f 768/542/195 766/543/193 765/540/193
f 765/540/193 767/539/192 768/542/195
f 766/543/193 768/542/195 769/544/196
f 770/545/197 768/542/195 767/539/192
f 771/546/198 769/544/196 768/542/195
f 768/542/195 770/545/197 771/546/198
f 769/544/196 771/546/198 772/547/197
f 773/548/199 772/547/197 771/546/198
f 774/549/200 771/546/198 770/545/197
f 773/548/199 771/546/198 774/549/200
f 774/549/200 770/545/197 775/550/199
f 775/550/199 776/551/201 774/549/200
f 774/549/200 777/552/202 773/548/199
f 777/552/202 774/549/200 776/551/201
f 778/553/201 773/548/199 777/552/202
f 776/551/201 779/554/203 777/552/202
f 777/552/202 780/555/203 778/553/201
f 780/555/203 777/552/202 779/554/203
f 781/556/203 778/553/201 780/555/203
f 782/557/204 783/558/204 784/559/204
f 784/559/204 785/560/204 782/557/204
f 786/561/204 784/559/204 783/558/204
f 786/561/204 783/558/204 787/562/204
f 785/560/204 784/559/204 788/542/204
f 788/542/204 789/563/204 785/560/204
f 784/559/204 790/564/204 788/542/204
f 790/564/204 784/559/204 791/565/204
f 784/559/204 786/561/204 791/565/204
f 788/542/204 790/564/204 792/566/204
f 793/567/204 791/565/204 786/561/204
f 786/561/204 794/568/204 793/567/204
f 789/563/204 788/542/204 795/540/204
f 788/542/204 792/566/204 795/540/204
f 795/540/204 796/569/204 789/563/204
f 795/540/204 792/566/204 797/570/204
f 796/569/204 795/540/204 798/571/204
f 795/540/204 797/570/204 798/571/204
f 794/568/204 786/561/204 799/552/204
f 799/552/204 786/561/204 787/562/204
f 799/552/204 800/572/204 794/568/204
f 799/552/204 787/562/204 801/573/204
f 800/572/204 799/552/204 802/555/204
f 801/573/204 802/555/204 799/552/204
f 802/555/204 803/574/204 800/572/204
f 802/555/204 801/573/204 804/575/204
f 803/574/204 802/555/204 805/576/204
f 805/576/204 802/555/204 804/575/204
f 806/526/205 809/524/206 807/525/205
f 807/525/205 810/536/206 808/538/205
f 810/536/206 807/525/205 809/524/206
f 811/537/206 808/538/205 810/536/206
f 812/535/207 811/537/206 810/536/206
f 813/534/207 810/536/206 809/524/206
f 812/535/207 810/536/206 813/534/207
f 813/534/207 809/524/206 814/533/207
f 815/528/208 812/535/207 813/534/207
f 816/530/208 813/534/207 814/533/207
f 815/528/208 813/534/207 816/530/208
f 816/530/208 814/533/207 817/532/208
f 818/531/209 816/530/208 817/532/208
f 819/529/209 815/528/208 816/530/208
f 816/530/208 818/531/209 819/529/209
f 815/528/208 819/529/209 820/527/209
f 821/544/210 822/559/211 823/577/211
f 824/578/212 823/577/211 822/559/211
f 822/559/211 821/544/210 825/542/213
f 826/543/214 825/542/213 821/544/210
f 825/542/213 827/579/211 822/559/211
f 825/542/213 826/543/214 828/540/214
f 827/579/211 825/542/213 829/539/215
f 828/540/214 829/539/215 825/542/213
f 829/539/215 828/540/214 830/541/214
f 831/561/212 822/559/211 827/579/211
f 824/578/212 822/559/211 831/561/212
f 831/561/212 827/579/211 832/580/216
f 832/580/216 833/551/217 831/561/212
f 831/561/212 834/552/218 824/578/212
f 834/552/218 831/561/212 833/551/217
f 835/553/217 824/578/212 834/552/218
f 833/551/217 836/554/219 834/552/218
f 834/552/218 837/555/219 835/553/217
f 837/555/219 834/552/218 836/554/219
f 838/556/219 835/553/217 837/555/219
f 839/581/220 840/546/220 841/582/220
f 840/546/220 842/560/220 841/582/220
f 840/546/220 839/581/220 843/549/220
f 844/562/220 843/549/220 839/581/220
f 842/560/220 840/546/220 845/542/220
f 845/542/220 846/563/220 842/560/220
f 845/542/220 840/546/220 847/564/220
f 840/546/220 848/583/220 847/564/220
f 843/549/220 848/583/220 840/546/220
f 845/542/220 847/564/220 849/566/220
f 848/583/220 843/549/220 850/584/220
f 843/549/220 851/568/220 850/584/220
f 846/563/220 845/542/220 852/540/220
f 849/566/220 852/540/220 845/542/220
f 852/540/220 853/569/220 846/563/220
f 852/540/220 849/566/220 854/570/220
f 853/569/220 852/540/220 855/571/220
f 855/571/220 852/540/220 854/570/220
f 851/568/220 843/549/220 856/552/220
f 843/549/220 844/562/220 856/552/220
f 856/552/220 857/572/220 851/568/220
f 856/552/220 844/562/220 858/573/220
f 857/572/220 856/552/220 859/555/220
f 856/552/220 858/573/220 859/555/220
f 859/555/220 860/574/220 857/572/220
f 859/555/220 858/573/220 861/575/220
f 860/574/220 859/555/220 862/576/220
f 859/555/220 861/575/220 862/576/220
