# Blender 5.1.2
# www.blender.org
mtllib my final objs before retirement.mtl
o fists
v -1.160911 0.153945 -0.354212
v -1.152923 -0.506687 0.325946
v -1.166151 0.163601 0.316188
v -1.147683 -0.516344 -0.344453
v 1.083342 0.208240 0.333124
v 1.101810 -0.471703 -0.327517
v 1.088583 0.198585 -0.337275
v 1.096571 -0.462046 0.342883
v 1.072785 -0.512039 -0.327162
v 1.072311 -0.472868 -0.367491
v 1.101810 -0.471703 -0.327517
v 1.088583 0.198585 -0.337275
v 1.059084 0.197421 -0.377250
v 1.057988 0.237736 -0.338078
v 1.067546 -0.502381 0.343237
v 1.096571 -0.462046 0.342883
v 1.066451 -0.462067 0.382407
v 1.053225 0.208226 0.372655
v 1.083342 0.208240 0.333124
v 1.052748 0.247392 0.332318
v -1.117089 -0.555495 -0.343650
v -1.147683 -0.516344 -0.344453
v -1.117563 -0.516325 -0.383979
v -1.130791 0.153963 -0.393738
v -1.160911 0.153945 -0.354212
v -1.131886 0.194280 -0.354566
v -1.122328 -0.545839 0.326750
v -1.123423 -0.505523 0.365921
v -1.152923 -0.506687 0.325946
v -1.166151 0.163601 0.316188
v -1.136650 0.164766 0.356162
v -1.137125 0.203936 0.315833
v 1.101810 -0.471703 -0.327517
v 1.067546 -0.502381 0.343237
v 1.072785 -0.512039 -0.327162
v 1.096571 -0.462046 0.342883
v 1.083342 0.208240 0.333124
v 1.057988 0.237736 -0.338078
v 1.052748 0.247392 0.332318
v 1.088583 0.198585 -0.337275
v -1.152923 -0.506687 0.325946
v -1.147683 -0.516344 -0.344453
v -1.117089 -0.555495 -0.343650
v -1.122328 -0.545839 0.326750
v -1.160911 0.153945 -0.354212
v -1.166151 0.163601 0.316188
v -1.137125 0.203936 0.315833
v -1.131886 0.194280 -0.354566
v 1.066451 -0.462067 0.382407
v -1.123423 -0.505523 0.365921
v -1.122328 -0.545839 0.326750
v 1.067546 -0.502381 0.343237
v 1.052748 0.247392 0.332318
v -1.137125 0.203936 0.315833
v -1.136650 0.164766 0.356162
v 1.053225 0.208226 0.372655
v -1.117563 -0.516325 -0.383979
v 1.072311 -0.472868 -0.367491
v 1.072785 -0.512039 -0.327162
v -1.117089 -0.555495 -0.343650
v -1.131886 0.194280 -0.354566
v 1.057988 0.237736 -0.338078
v 1.059084 0.197421 -0.377250
v -1.130791 0.153963 -0.393738
v 1.059084 0.197421 -0.377250
v -1.117563 -0.516325 -0.383979
v -1.130791 0.153963 -0.393738
v 1.072311 -0.472868 -0.367491
v -1.137125 0.203936 0.315833
v 1.052748 0.247392 0.332318
v 1.057988 0.237736 -0.338078
v -1.131886 0.194280 -0.354566
v -1.136650 0.164766 0.356162
v 1.066451 -0.462067 0.382407
v 1.053225 0.208226 0.372655
v -1.123423 -0.505523 0.365921
v -1.117089 -0.555495 -0.343650
v 1.072785 -0.512039 -0.327162
v 1.067546 -0.502381 0.343237
v -1.122328 -0.545839 0.326750
v -1.184066 0.160263 -0.361271
v -1.175992 -0.513795 0.332613
v -1.189476 0.169929 0.322666
v -1.170476 -0.523620 -0.351277
v 1.106133 0.215516 0.339944
v 1.125137 -0.478031 -0.333995
v 1.111652 0.205693 -0.343941
v 1.119726 -0.468364 0.349942
v 1.084119 -0.532860 -0.334887
v 1.083585 -0.481030 -0.388293
v 1.125137 -0.478031 -0.333995
v 1.111652 0.205693 -0.343941
v 1.069964 0.205508 -0.398313
v 1.068455 0.258824 -0.346499
v 1.078843 -0.523033 0.351747
v 1.119726 -0.468364 0.349942
v 1.077335 -0.469715 0.403565
v 1.063713 0.216822 0.393541
v 1.106133 0.215516 0.339944
v 1.063242 0.268742 0.340298
v -1.127581 -0.576844 -0.351628
v -1.170476 -0.523620 -0.351277
v -1.128053 -0.524923 -0.404870
v -1.141674 0.161615 -0.414891
v -1.184066 0.160263 -0.361271
v -1.143183 0.214930 -0.363076
v -1.132795 -0.566926 0.335171
v -1.134304 -0.513610 0.386986
v -1.175992 -0.513795 0.332613
v -1.189476 0.169929 0.322666
v -1.147925 0.172927 0.376964
v -1.148458 0.224759 0.323559
v 1.125137 -0.478031 -0.333995
v 1.078843 -0.523033 0.351747
v 1.084119 -0.532860 -0.334887
v 1.119726 -0.468364 0.349942
v 1.106133 0.215516 0.339944
v 1.068455 0.258824 -0.346499
v 1.063242 0.268742 0.340298
v 1.111652 0.205693 -0.343941
v -1.175992 -0.513795 0.332613
v -1.170476 -0.523620 -0.351277
v -1.127581 -0.576844 -0.351628
v -1.132795 -0.566926 0.335171
v -1.184066 0.160263 -0.361271
v -1.189476 0.169929 0.322666
v -1.148458 0.224759 0.323559
v -1.143183 0.214930 -0.363076
v 1.077335 -0.469715 0.403565
v -1.134304 -0.513610 0.386986
v -1.132795 -0.566926 0.335171
v 1.078843 -0.523033 0.351747
v 1.063242 0.268742 0.340298
v -1.148458 0.224759 0.323559
v -1.147925 0.172927 0.376964
v 1.063713 0.216822 0.393541
v -1.128053 -0.524923 -0.404870
v 1.083585 -0.481030 -0.388293
v 1.084119 -0.532860 -0.334887
v -1.127581 -0.576844 -0.351628
v -1.143183 0.214930 -0.363076
v 1.068455 0.258824 -0.346499
v 1.069964 0.205508 -0.398313
v -1.141674 0.161615 -0.414891
v 1.069964 0.205508 -0.398313
v -1.128053 -0.524923 -0.404870
v -1.141674 0.161615 -0.414891
v 1.083585 -0.481030 -0.388293
v -1.148458 0.224759 0.323559
v 1.063242 0.268742 0.340298
v 1.068455 0.258824 -0.346499
v -1.143183 0.214930 -0.363076
v -1.147925 0.172927 0.376964
v 1.077335 -0.469715 0.403565
v 1.063713 0.216822 0.393541
v -1.134304 -0.513610 0.386986
v -1.127581 -0.576844 -0.351628
v 1.084119 -0.532860 -0.334887
v 1.078843 -0.523033 0.351747
v -1.132795 -0.566926 0.335171
vn -0.9256 0.2524 -0.2821
vn -0.9212 -0.2837 0.2662
vn -0.9322 0.2528 0.2589
vn -0.9161 -0.2924 -0.2742
vn 0.9161 0.2924 0.2742
vn 0.9322 -0.2528 -0.2589
vn 0.9212 0.2838 -0.2661
vn 0.9256 -0.2525 0.2821
vn 0.4546 -0.8351 -0.3099
vn 0.4505 -0.3261 -0.8311
vn 0.9322 -0.2529 -0.2591
vn 0.9212 0.2838 -0.2663
vn 0.4344 0.3229 -0.8409
vn 0.4186 0.8434 -0.3368
vn 0.4514 -0.8250 0.3400
vn 0.9255 -0.2525 0.2823
vn 0.4355 -0.3061 0.8465
vn 0.4212 0.3452 0.8387
vn 0.9161 0.2924 0.2744
vn 0.4182 0.8509 0.3180
vn -0.4182 -0.8509 -0.3180
vn -0.9161 -0.2925 -0.2743
vn -0.4212 -0.3452 -0.8387
vn -0.4355 0.3062 -0.8465
vn -0.9255 0.2525 -0.2822
vn -0.4514 0.8250 -0.3400
vn -0.4186 -0.8434 0.3368
vn -0.4344 -0.3229 0.8409
vn -0.9212 -0.2838 0.2663
vn -0.9322 0.2529 0.2590
vn -0.4505 0.3261 0.8311
vn -0.4545 0.8351 0.3099
vn 0.9322 -0.2529 -0.2589
vn 0.4513 -0.8250 0.3400
vn 0.4545 -0.8351 -0.3099
vn 0.9255 -0.2525 0.2821
vn 0.9161 0.2925 0.2742
vn 0.9212 0.2839 -0.2662
vn -0.9212 -0.2838 0.2661
vn -0.9256 0.2525 -0.2821
vn -0.9322 0.2529 0.2589
vn -0.4546 0.8351 0.3098
vn -0.4513 0.8250 -0.3400
vn -0.4344 -0.3229 0.8408
vn -0.4504 0.3261 0.8311
vn -0.4211 -0.3452 -0.8387
vn 0.4504 -0.3261 -0.8311
vn 0.4545 -0.8351 -0.3098
vn -0.4513 0.8251 -0.3400
vn 0.4343 0.3227 -0.8410
vn -0.4356 0.3062 -0.8465
vn 0.4343 0.3229 -0.8409
vn -0.4546 0.8351 0.3099
vn 0.4355 -0.3062 0.8465
vn 0.4212 0.3453 0.8387
vn -0.4343 -0.3229 0.8409
vn -0.9212 -0.2838 0.2662
vn 0.9162 0.2924 0.2742
vn 0.9256 -0.2525 0.2820
vn 0.4546 -0.8351 -0.3098
vn 0.9322 -0.2529 -0.2590
vn 0.4356 -0.3061 0.8465
vn -0.9160 -0.2925 -0.2744
vn 0.4513 -0.8251 0.3400
vn 0.4546 -0.8350 -0.3099
vn 0.9255 -0.2526 0.2821
vn 0.9161 0.2925 0.2743
vn 0.9212 0.2838 -0.2662
vn -0.9212 -0.2839 0.2662
vn -0.9255 0.2526 -0.2821
vn 0.4355 -0.3061 0.8466
vn -0.4344 -0.3228 0.8409
vn 0.4182 0.8509 0.3179
vn -0.4504 0.3261 0.8312
vn -0.4182 -0.8508 -0.3180
vn 0.4344 0.3228 -0.8409
vn -0.4356 0.3062 -0.8464
vn -0.4343 -0.3230 0.8409
vt 0.372650 0.019678
vt 0.478632 0.130590
vt 0.372650 0.130590
vt 0.478632 0.019678
vt 0.478632 0.481216
vt 0.372650 0.370304
vt 0.478632 0.370304
vt 0.372650 0.481216
vt 0.478632 0.363148
vt 0.478632 0.137746
vt 0.365812 0.363148
vt 0.365812 0.137746
vt 0.140171 0.137746
vt 0.140171 0.363148
vt 0.252991 0.137746
vt 0.252991 0.363148
vt 0.147009 0.137746
vt 0.147009 0.363148
vt 0.259829 0.363148
vt 0.259829 0.137746
vt 0.372650 0.137746
vt 0.372650 0.363148
vt 0.034188 0.363148
vt 0.034188 0.137746
s 1
usemtl Leftarm1Mtl
f 1/1/1 2/2/2 3/3/3
f 2/2/2 1/1/1 4/4/4
f 5/5/5 6/6/6 7/7/7
f 6/6/6 5/5/5 8/8/8
f 9/6/9 10/6/10 11/6/11
f 10/6/10 12/7/12 11/6/11
f 12/7/12 10/6/10 13/7/13
f 13/7/13 14/7/14 12/7/12
f 15/8/15 16/8/16 17/8/17
f 18/5/18 17/8/17 16/8/16
f 16/8/16 19/5/19 18/5/18
f 20/5/20 18/5/18 19/5/19
f 21/4/21 22/4/22 23/4/23
f 24/1/24 23/4/23 22/4/22
f 22/4/22 25/1/25 24/1/24
f 26/1/26 24/1/24 25/1/25
f 27/2/27 28/2/28 29/2/29
f 30/3/30 29/2/29 28/2/28
f 28/2/28 31/3/31 30/3/30
f 32/3/32 30/3/30 31/3/31
f 33/6/33 34/8/34 35/6/35
f 34/8/34 33/6/33 36/8/36
f 37/5/37 38/7/14 39/5/20
f 38/7/14 37/5/37 40/7/38
f 41/2/39 42/4/22 43/4/21
f 43/4/21 44/2/27 41/2/39
f 45/1/40 46/3/41 47/3/42
f 47/3/42 48/1/43 45/1/40
f 49/9/17 50/10/44 51/10/27
f 49/9/17 51/10/27 52/9/15
f 53/11/20 54/12/42 55/12/45
f 53/11/20 55/12/45 56/11/18
f 57/13/46 58/14/47 59/14/48
f 57/13/46 59/14/48 60/13/21
f 61/15/49 62/16/14 63/16/50
f 61/15/49 63/16/50 64/15/51
f 65/16/52 66/17/23 67/15/24
f 66/17/23 65/16/52 68/18/47
f 69/12/53 70/11/20 71/19/14
f 69/12/53 71/19/14 72/20/26
f 73/21/45 74/9/54 75/22/55
f 74/9/54 73/21/45 76/10/56
f 77/13/21 78/14/9 79/23/34
f 77/13/21 79/23/34 80/24/27
usemtl Leftarm2Mtl
f 81/1/40 82/2/57 83/3/3
f 82/2/57 81/1/40 84/4/4
f 85/5/58 86/6/6 87/7/7
f 86/6/6 85/5/58 88/8/59
f 89/6/60 90/6/10 91/6/61
f 90/6/10 92/7/12 91/6/61
f 92/7/12 90/6/10 93/7/13
f 93/7/13 94/7/14 92/7/12
f 95/8/15 96/8/16 97/8/62
f 98/5/18 97/8/62 96/8/16
f 96/8/16 99/5/19 98/5/18
f 100/5/20 98/5/18 99/5/19
f 101/4/21 102/4/63 103/4/23
f 104/1/51 103/4/23 102/4/63
f 102/4/63 105/1/25 104/1/51
f 106/1/43 104/1/51 105/1/25
f 107/2/27 108/2/44 109/2/29
f 110/3/30 109/2/29 108/2/44
f 108/2/44 111/3/31 110/3/30
f 112/3/42 110/3/30 111/3/31
f 113/6/33 114/8/64 115/6/65
f 114/8/64 113/6/33 116/8/66
f 117/5/67 118/7/14 119/5/20
f 118/7/14 117/5/67 120/7/68
f 121/2/69 122/4/22 123/4/21
f 123/4/21 124/2/27 121/2/69
f 125/1/70 126/3/41 127/3/42
f 127/3/42 128/1/43 125/1/70
f 129/9/71 130/10/72 131/10/27
f 129/9/71 131/10/27 132/9/15
f 133/11/73 134/12/42 135/12/74
f 133/11/73 135/12/74 136/11/18
f 137/13/23 138/14/10 139/14/60
f 137/13/23 139/14/60 140/13/75
f 141/15/49 142/16/14 143/16/76
f 141/15/49 143/16/76 144/15/77
f 145/16/76 146/17/23 147/15/24
f 146/17/23 145/16/76 148/18/47
f 149/12/53 150/11/20 151/19/14
f 149/12/53 151/19/14 152/20/26
f 153/21/45 154/9/54 155/22/18
f 154/9/54 153/21/45 156/10/78
f 157/13/21 158/14/9 159/23/15
f 157/13/21 159/23/15 160/24/27
o Handsaws
v 1.021277 -0.062217 0.429091
v 1.016133 -0.117233 0.627890
v 1.021780 -0.124667 0.421767
v 1.060981 -0.038135 0.226485
v 1.182398 -0.087507 0.385840
v 1.061484 -0.100585 0.219161
v 0.842160 -0.079929 0.567821
v 0.715831 -0.130781 0.722834
v 0.842662 -0.142379 0.560497
v 0.804260 -0.062844 -0.120225
v 0.810463 -0.015320 -0.255080
v 0.803759 -0.000394 -0.112901
v 1.013685 -0.073831 -0.012211
v 1.088761 -0.028315 -0.125238
v 1.013182 -0.011381 -0.004886
v 0.556840 -0.063058 -0.135343
v 0.538728 -0.015843 -0.269230
v 0.556338 -0.000608 -0.128019
v 0.297328 -0.066009 -0.127953
v 0.279216 -0.018794 -0.261838
v 0.296827 -0.003559 -0.120629
v 0.037817 -0.068960 -0.120563
v 0.019703 -0.021745 -0.254448
v 0.037315 -0.006510 -0.113238
v -0.221696 -0.071912 -0.113172
v -0.239808 -0.024696 -0.247058
v -0.222197 -0.009462 -0.105847
v -0.481208 -0.074862 -0.105782
v -0.499321 -0.027648 -0.239668
v -0.481710 -0.012412 -0.098456
v -0.740720 -0.077813 -0.098392
v -0.758832 -0.030599 -0.232277
v -0.741222 -0.015364 -0.091066
v -1.000232 -0.080765 -0.091001
v -1.018344 -0.033550 -0.224887
v -1.000733 -0.018315 -0.083676
v -1.473048 -0.087636 -0.064789
v -1.540101 -0.042658 -0.182957
v -1.473550 -0.025186 -0.057464
v -1.259744 -0.083715 -0.083610
v -1.277856 -0.036501 -0.217497
v -1.260245 -0.021265 -0.076285
v -1.423192 -0.023119 -0.071645
v -1.277856 -0.036501 -0.217497
v -1.422691 -0.085569 -0.078970
v -1.163681 -0.020168 -0.079035
v -1.018344 -0.033550 -0.224887
v -1.163179 -0.082618 -0.086360
v 1.021559 -0.015835 0.033661
v 1.191799 -0.058834 0.142022
v 1.022049 -0.078285 0.026336
v -0.904169 -0.017216 -0.086425
v -0.758832 -0.030599 -0.232277
v -0.903667 -0.079666 -0.093751
v -0.644657 -0.014266 -0.093817
v -0.499321 -0.027648 -0.239668
v -0.644155 -0.076716 -0.101141
v -0.385145 -0.011314 -0.101207
v -0.239808 -0.024696 -0.247058
v -0.384643 -0.073764 -0.108531
v 0.885259 -0.000624 -0.105365
v 1.088761 -0.028315 -0.125238
v 0.885761 -0.063073 -0.112690
v -0.125632 -0.008363 -0.108597
v 0.019703 -0.021745 -0.254448
v -0.125131 -0.070813 -0.115922
v 0.133880 -0.005413 -0.115988
v 0.279216 -0.018794 -0.261838
v 0.134381 -0.067862 -0.123313
v 0.393391 -0.002461 -0.123378
v 0.538728 -0.015843 -0.269230
v 0.393893 -0.064911 -0.130704
v 0.642449 0.001071 -0.136435
v 0.810463 -0.015320 -0.255080
v 0.642951 -0.061379 -0.143760
v 1.042541 -0.057151 0.387343
v 1.182398 -0.087507 0.385840
v 1.060981 -0.038135 0.226485
v 1.059677 -0.033998 0.191119
v 1.191799 -0.058834 0.142022
v 1.021559 -0.015835 0.033661
v 0.907087 -0.076676 0.544541
v 1.016133 -0.117233 0.627890
v 1.021277 -0.062217 0.429091
v 1.013182 -0.011381 -0.004886
v 1.088761 -0.028315 -0.125238
v 0.885259 -0.000624 -0.105365
v -1.473550 -0.025186 -0.057464
v -1.540101 -0.042658 -0.182957
v -1.623682 -0.033775 0.005480
v -1.586737 -0.103971 0.606480
v -1.605061 -0.151464 0.740235
v -1.428089 -0.107084 0.643885
v 0.803759 -0.000394 -0.112901
v 0.810463 -0.015320 -0.255080
v 0.642449 0.001071 -0.136435
v 0.681009 -0.084071 0.592112
v 0.715831 -0.130781 0.722834
v 0.842160 -0.079929 0.567821
v -0.363643 -0.095740 0.620054
v -0.345531 -0.142955 0.753941
v -0.200696 -0.093887 0.615415
v -0.104131 -0.092788 0.612664
v -0.086018 -0.140003 0.746549
v 0.058816 -0.090936 0.608024
v 0.155380 -0.089838 0.605273
v 0.173493 -0.137052 0.739159
v 0.318327 -0.087984 0.600633
v -0.623154 -0.098691 0.627444
v -0.605042 -0.145905 0.761331
v -0.460207 -0.096837 0.622805
v -0.882669 -0.101641 0.634836
v -0.864554 -0.148857 0.768722
v -0.719719 -0.099789 0.630195
v -1.142180 -0.104593 0.642226
v -1.124065 -0.151808 0.776112
v -0.979232 -0.102740 0.637585
v -1.401691 -0.107544 0.649617
v -1.383578 -0.154759 0.783502
v -1.238744 -0.105692 0.644976
v 0.414891 -0.086886 0.597883
v 0.433005 -0.134100 0.731769
v 0.577839 -0.085034 0.593242
v -0.481710 -0.012412 -0.098456
v -0.499321 -0.027648 -0.239668
v -0.644657 -0.014266 -0.093817
v -0.741222 -0.015364 -0.091066
v -0.758832 -0.030599 -0.232277
v -0.904169 -0.017216 -0.086425
v -1.000733 -0.018315 -0.083676
v -1.018344 -0.033550 -0.224887
v -1.163681 -0.020168 -0.079035
v -0.222197 -0.009462 -0.105847
v -0.239808 -0.024696 -0.247058
v -0.385145 -0.011314 -0.101207
v 0.037315 -0.006510 -0.113238
v 0.019703 -0.021745 -0.254448
v -0.125632 -0.008363 -0.108597
v 0.296827 -0.003559 -0.120629
v 0.279216 -0.018794 -0.261838
v 0.133880 -0.005413 -0.115988
v 0.556338 -0.000608 -0.128019
v 0.538728 -0.015843 -0.269230
v 0.393391 -0.002461 -0.123378
v -1.260245 -0.021265 -0.076285
v -1.277856 -0.036501 -0.217497
v -1.423192 -0.023119 -0.071645
v -1.623682 -0.033775 0.005480
v -1.540101 -0.042658 -0.182957
v -1.623179 -0.096225 -0.001844
v -1.586234 -0.166421 0.599154
v -1.605061 -0.151464 0.740235
v -1.586737 -0.103971 0.606480
v -1.401189 -0.169994 0.642291
v -1.383578 -0.154759 0.783502
v -1.401691 -0.107544 0.649617
v -1.141679 -0.167043 0.634901
v -1.124065 -0.151808 0.776112
v -1.142180 -0.104593 0.642226
v -0.882167 -0.164091 0.627511
v -0.864554 -0.148857 0.768722
v -0.882669 -0.101641 0.634836
v -0.622653 -0.161141 0.620120
v -0.605042 -0.145905 0.761331
v -0.623154 -0.098691 0.627444
v -0.363141 -0.158190 0.612730
v -0.345531 -0.142955 0.753941
v -0.363643 -0.095740 0.620054
v -0.103629 -0.155238 0.605340
v -0.086018 -0.140003 0.746549
v -0.104131 -0.092788 0.612664
v 0.155881 -0.152288 0.597949
v 0.173493 -0.137052 0.739159
v 0.155380 -0.089838 0.605273
v 0.415393 -0.149336 0.590558
v 0.433005 -0.134100 0.731769
v 0.414891 -0.086886 0.597883
v 0.681511 -0.146521 0.584787
v 0.715831 -0.130781 0.722834
v 0.681009 -0.084071 0.592112
v 0.577839 -0.085034 0.593242
v 0.433005 -0.134100 0.731769
v 0.578340 -0.147484 0.585918
v 0.318327 -0.087984 0.600633
v 0.173493 -0.137052 0.739159
v 0.318828 -0.150434 0.593309
v 0.058816 -0.090936 0.608024
v -0.086018 -0.140003 0.746549
v 0.059318 -0.153385 0.600699
v 1.060180 -0.096448 0.183795
v 1.191799 -0.058834 0.142022
v 1.059677 -0.033998 0.191119
v -0.200696 -0.093887 0.615415
v -0.345531 -0.142955 0.753941
v -0.200194 -0.156337 0.608089
v 1.043044 -0.119601 0.380019
v 1.182398 -0.087507 0.385840
v 1.042541 -0.057151 0.387343
v -0.460207 -0.096837 0.622805
v -0.605042 -0.145905 0.761331
v -0.459706 -0.159287 0.615479
v -0.719719 -0.099789 0.630195
v -0.864554 -0.148857 0.768722
v -0.719219 -0.162239 0.622870
v -1.428089 -0.107084 0.643885
v -1.605061 -0.151464 0.740235
v -1.427587 -0.169534 0.636561
v -0.979232 -0.102740 0.637585
v -1.124065 -0.151808 0.776112
v -0.978730 -0.165190 0.630261
v 0.907589 -0.139126 0.537216
v 1.016133 -0.117233 0.627890
v 0.907087 -0.076676 0.544541
v -1.238744 -0.105692 0.644976
v -1.383578 -0.154759 0.783502
v -1.238242 -0.168142 0.637651
v 1.061484 -0.100585 0.219161
v 1.182398 -0.087507 0.385840
v 1.043044 -0.119601 0.380019
v 1.022049 -0.078285 0.026336
v 1.191799 -0.058834 0.142022
v 1.060180 -0.096448 0.183795
v 1.021780 -0.124667 0.421767
v 1.016133 -0.117233 0.627890
v 0.907589 -0.139126 0.537216
v 0.885761 -0.063073 -0.112690
v 1.088761 -0.028315 -0.125238
v 1.013685 -0.073831 -0.012211
v -1.623179 -0.096225 -0.001844
v -1.540101 -0.042658 -0.182957
v -1.473048 -0.087636 -0.064789
v -1.427587 -0.169534 0.636561
v -1.605061 -0.151464 0.740235
v -1.586234 -0.166421 0.599154
v 0.642951 -0.061379 -0.143760
v 0.810463 -0.015320 -0.255080
v 0.804260 -0.062844 -0.120225
v 0.842662 -0.142379 0.560497
v 0.715831 -0.130781 0.722834
v 0.681511 -0.146521 0.584787
v -0.200194 -0.156337 0.608089
v -0.345531 -0.142955 0.753941
v -0.363141 -0.158190 0.612730
v 0.059318 -0.153385 0.600699
v -0.086018 -0.140003 0.746549
v -0.103629 -0.155238 0.605340
v 0.318828 -0.150434 0.593309
v 0.173493 -0.137052 0.739159
v 0.155881 -0.152288 0.597949
v -0.459706 -0.159287 0.615479
v -0.605042 -0.145905 0.761331
v -0.622653 -0.161141 0.620120
v -0.719219 -0.162239 0.622870
v -0.864554 -0.148857 0.768722
v -0.882167 -0.164091 0.627511
v -0.978730 -0.165190 0.630261
v -1.124065 -0.151808 0.776112
v -1.141679 -0.167043 0.634901
v -1.238242 -0.168142 0.637651
v -1.383578 -0.154759 0.783502
v -1.401189 -0.169994 0.642291
v 0.578340 -0.147484 0.585918
v 0.433005 -0.134100 0.731769
v 0.415393 -0.149336 0.590558
v -0.644155 -0.076716 -0.101141
v -0.499321 -0.027648 -0.239668
v -0.481208 -0.074862 -0.105782
v -0.903667 -0.079666 -0.093751
v -0.758832 -0.030599 -0.232277
v -0.740720 -0.077813 -0.098392
v -1.163179 -0.082618 -0.086360
v -1.018344 -0.033550 -0.224887
v -1.000232 -0.080765 -0.091001
v -0.384643 -0.073764 -0.108531
v -0.239808 -0.024696 -0.247058
v -0.221696 -0.071912 -0.113172
v -0.125131 -0.070813 -0.115922
v 0.019703 -0.021745 -0.254448
v 0.037817 -0.068960 -0.120563
v 0.134381 -0.067862 -0.123313
v 0.279216 -0.018794 -0.261838
v 0.297328 -0.066009 -0.127953
v 0.393893 -0.064911 -0.130704
v 0.538728 -0.015843 -0.269230
v 0.556840 -0.063058 -0.135343
v -1.422691 -0.085569 -0.078970
v -1.277856 -0.036501 -0.217497
v -1.259744 -0.083715 -0.083610
v 1.060517 -0.050635 0.333013
v 1.130170 -0.103648 0.519860
v 1.061020 -0.113085 0.325687
v 0.953208 -0.073068 0.516920
v 0.870125 -0.126634 0.698033
v 0.953710 -0.135518 0.509596
v 0.928675 -0.065187 -0.091741
v 0.947007 -0.017694 -0.225499
v 0.928173 -0.002737 -0.084416
v 1.057383 -0.026812 0.129695
v 1.194732 -0.074537 0.276089
v 1.057886 -0.089262 0.122370
v 0.686649 -0.061583 -0.139041
v 0.668535 -0.014368 -0.272926
v 0.686149 0.000867 -0.131716
v 0.427137 -0.064535 -0.131650
v 0.409025 -0.017319 -0.265536
v 0.426636 -0.002085 -0.124326
v 0.167625 -0.067485 -0.124260
v 0.149512 -0.020271 -0.258146
v 0.167124 -0.005035 -0.116934
v -0.091886 -0.070436 -0.116870
v -0.110000 -0.023221 -0.250755
v -0.092388 -0.007987 -0.109544
v -0.351398 -0.073388 -0.109479
v -0.369512 -0.026173 -0.243365
v -0.351899 -0.010938 -0.102154
v -0.610910 -0.076338 -0.102089
v -0.629023 -0.029124 -0.235975
v -0.611411 -0.013888 -0.094764
v -0.870422 -0.079290 -0.094698
v -0.888534 -0.032076 -0.228584
v -0.870923 -0.016840 -0.087373
v -1.129933 -0.082241 -0.087307
v -1.148046 -0.035026 -0.221194
v -1.130435 -0.019791 -0.079983
v -1.368101 -0.085236 -0.078085
v -1.402923 -0.038526 -0.208807
v -1.368603 -0.022786 -0.070761
v -1.293382 -0.021644 -0.075342
v -1.148046 -0.035026 -0.221194
v -1.292880 -0.084094 -0.082668
v -1.033870 -0.018693 -0.082732
v -0.888534 -0.032076 -0.228584
v -1.033369 -0.081142 -0.090058
v 0.958994 -0.005645 -0.057511
v 1.153647 -0.042507 0.000194
v 0.959497 -0.068095 -0.064836
v -0.774359 -0.015742 -0.090123
v -0.629023 -0.029124 -0.235975
v -0.773857 -0.078192 -0.097448
v -0.514847 -0.012791 -0.097513
v -0.369512 -0.026173 -0.243365
v -0.514345 -0.075241 -0.104839
v -0.255335 -0.009839 -0.104905
v -0.110000 -0.023221 -0.250755
v -0.254833 -0.072289 -0.112229
v 0.004177 -0.006889 -0.112295
v 0.149512 -0.020271 -0.258146
v 0.004678 -0.069339 -0.119619
v 0.263688 -0.003937 -0.119685
v 0.409025 -0.017319 -0.265536
v 0.264190 -0.066387 -0.127009
v 0.769530 0.000376 -0.121823
v 0.947007 -0.017694 -0.225499
v 0.770031 -0.062074 -0.129148
v 0.523200 -0.000986 -0.127075
v 0.668535 -0.014368 -0.272926
v 0.523702 -0.063436 -0.134401
v -1.577059 -0.092616 -0.029465
v -1.686107 -0.052059 -0.112813
v -1.577562 -0.030166 -0.022140
v 1.055394 -0.045818 0.291595
v 1.194732 -0.074537 0.276089
v 1.057383 -0.026812 0.129695
v 0.996680 -0.068615 0.481939
v 1.130170 -0.103648 0.519860
v 1.060517 -0.050635 0.333013
v 1.039189 -0.021544 0.083531
v 1.153647 -0.042507 0.000194
v 0.958994 -0.005645 -0.057511
v -1.577562 -0.030166 -0.022140
v -1.686107 -0.052059 -0.112813
v -1.691753 -0.044625 0.093310
v -1.671739 -0.095326 0.526948
v -1.746815 -0.140843 0.639974
v -1.543822 -0.106085 0.627427
v 0.803073 -0.081656 0.579865
v 0.870125 -0.126634 0.698033
v 0.953208 -0.073068 0.516920
v 0.928173 -0.002737 -0.084416
v 0.947007 -0.017694 -0.225499
v 0.769530 0.000376 -0.121823
v -1.491353 -0.106464 0.634252
v -1.497557 -0.153987 0.769106
v -1.330044 -0.107928 0.657786
v -1.368603 -0.022786 -0.070761
v -1.402923 -0.038526 -0.208807
v -1.529754 -0.026929 -0.046470
v -0.351899 -0.010938 -0.102154
v -0.369512 -0.026173 -0.243365
v -0.514847 -0.012791 -0.097513
v -0.611411 -0.013888 -0.094764
v -0.629023 -0.029124 -0.235975
v -0.774359 -0.015742 -0.090123
v -0.870923 -0.016840 -0.087373
v -0.888534 -0.032076 -0.228584
v -1.033870 -0.018693 -0.082732
v -0.092388 -0.007987 -0.109544
v -0.110000 -0.023221 -0.250755
v -0.255335 -0.009839 -0.104905
v 0.167124 -0.005035 -0.116934
v 0.149512 -0.020271 -0.258146
v 0.004177 -0.006889 -0.112295
v 0.426636 -0.002085 -0.124326
v 0.409025 -0.017319 -0.265536
v 0.263688 -0.003937 -0.119685
v 0.686149 0.000867 -0.131716
v 0.668535 -0.014368 -0.272926
v 0.523200 -0.000986 -0.127075
v -1.130435 -0.019791 -0.079983
v -1.148046 -0.035026 -0.221194
v -1.293382 -0.021644 -0.075342
v -0.233834 -0.094264 0.616357
v -0.215721 -0.141480 0.750243
v -0.070888 -0.092412 0.611717
v 0.025677 -0.091314 0.608966
v 0.043792 -0.138528 0.742853
v 0.188624 -0.089460 0.604327
v 0.285189 -0.088363 0.601576
v 0.303304 -0.135577 0.735462
v 0.448136 -0.086510 0.596935
v -0.493347 -0.097216 0.623748
v -0.475233 -0.144431 0.757634
v -0.330399 -0.095363 0.619107
v -0.752858 -0.100168 0.631139
v -0.734745 -0.147382 0.765024
v -0.589911 -0.098314 0.626498
v -1.012370 -0.103118 0.638529
v -0.994256 -0.150333 0.772414
v -0.849423 -0.101265 0.633888
v -1.271882 -0.106069 0.645919
v -1.253768 -0.153285 0.779805
v -1.108935 -0.104217 0.641278
v 0.544702 -0.085411 0.594186
v 0.562815 -0.132626 0.728071
v 0.707649 -0.083558 0.589545
v -1.691753 -0.044625 0.093310
v -1.686107 -0.052059 -0.112813
v -1.691250 -0.107075 0.085985
v -1.490851 -0.168913 0.626928
v -1.497557 -0.153987 0.769106
v -1.491353 -0.106464 0.634252
v -1.529754 -0.026929 -0.046470
v -1.402923 -0.038526 -0.208807
v -1.529252 -0.089379 -0.053796
v -1.271380 -0.168519 0.638595
v -1.253768 -0.153285 0.779805
v -1.271882 -0.106069 0.645919
v -1.671249 -0.157777 0.519623
v -1.746815 -0.140843 0.639974
v -1.671739 -0.095326 0.526948
v -1.011869 -0.165568 0.631203
v -0.994256 -0.150333 0.772414
v -1.012370 -0.103118 0.638529
v -0.752357 -0.162617 0.623813
v -0.734745 -0.147382 0.765024
v -0.752858 -0.100168 0.631139
v -0.492845 -0.159666 0.616423
v -0.475233 -0.144431 0.757634
v -0.493347 -0.097216 0.623748
v -0.233333 -0.156714 0.609032
v -0.215721 -0.141480 0.750243
v -0.233834 -0.094264 0.616357
v 0.026179 -0.153764 0.601642
v 0.043792 -0.138528 0.742853
v 0.025677 -0.091314 0.608966
v 0.285690 -0.150813 0.594252
v 0.303304 -0.135577 0.735462
v 0.285189 -0.088363 0.601576
v 0.545202 -0.147861 0.586862
v 0.562815 -0.132626 0.728071
v 0.544702 -0.085411 0.594186
v 0.803574 -0.144106 0.572540
v 0.870125 -0.126634 0.698033
v 0.803073 -0.081656 0.579865
v 0.707649 -0.083558 0.589545
v 0.562815 -0.132626 0.728071
v 0.708150 -0.146008 0.582221
v 0.448136 -0.086510 0.596935
v 0.303304 -0.135577 0.735462
v 0.448638 -0.148960 0.589611
v 1.039692 -0.083994 0.076206
v 1.153647 -0.042507 0.000194
v 1.039189 -0.021544 0.083531
v 0.188624 -0.089460 0.604327
v 0.043792 -0.138528 0.742853
v 0.189126 -0.151910 0.597001
v -0.070888 -0.092412 0.611717
v -0.215721 -0.141480 0.750243
v -0.070386 -0.154862 0.604392
v -1.543822 -0.106085 0.627427
v -1.746815 -0.140843 0.639974
v -1.543319 -0.168534 0.620102
v -0.330399 -0.095363 0.619107
v -0.475233 -0.144431 0.757634
v -0.329897 -0.157813 0.611782
v 1.055897 -0.108268 0.284269
v 1.194732 -0.074537 0.276089
v 1.055394 -0.045818 0.291595
v -0.589911 -0.098314 0.626498
v -0.734745 -0.147382 0.765024
v -0.589410 -0.160764 0.619174
v 0.997183 -0.131065 0.474615
v 1.130170 -0.103648 0.519860
v 0.996680 -0.068615 0.481939
v -0.849423 -0.101265 0.633888
v -0.994256 -0.150333 0.772414
v -0.848921 -0.163715 0.626564
v -1.330044 -0.107928 0.657786
v -1.497557 -0.153987 0.769106
v -1.329542 -0.170378 0.650462
v -1.108935 -0.104217 0.641278
v -1.253768 -0.153285 0.779805
v -1.108433 -0.166667 0.633954
v 1.057886 -0.089262 0.122370
v 1.194732 -0.074537 0.276089
v 1.055897 -0.108268 0.284269
v 1.061020 -0.113085 0.325687
v 1.130170 -0.103648 0.519860
v 0.997183 -0.131065 0.474615
v 0.959497 -0.068095 -0.064836
v 1.153647 -0.042507 0.000194
v 1.039692 -0.083994 0.076206
v -1.691250 -0.107075 0.085985
v -1.686107 -0.052059 -0.112813
v -1.577059 -0.092616 -0.029465
v -1.543319 -0.168534 0.620102
v -1.746815 -0.140843 0.639974
v -1.671249 -0.157777 0.519623
v 0.953710 -0.135518 0.509596
v 0.870125 -0.126634 0.698033
v 0.803574 -0.144106 0.572540
v 0.770031 -0.062074 -0.129148
v 0.947007 -0.017694 -0.225499
v 0.928675 -0.065187 -0.091741
v -1.329542 -0.170378 0.650462
v -1.497557 -0.153987 0.769106
v -1.490851 -0.168913 0.626928
v -1.529252 -0.089379 -0.053796
v -1.402923 -0.038526 -0.208807
v -1.368101 -0.085236 -0.078085
v -0.514345 -0.075241 -0.104839
v -0.369512 -0.026173 -0.243365
v -0.351398 -0.073388 -0.109479
v -0.773857 -0.078192 -0.097448
v -0.629023 -0.029124 -0.235975
v -0.610910 -0.076338 -0.102089
v -1.033369 -0.081142 -0.090058
v -0.888534 -0.032076 -0.228584
v -0.870422 -0.079290 -0.094698
v -0.254833 -0.072289 -0.112229
v -0.110000 -0.023221 -0.250755
v -0.091886 -0.070436 -0.116870
v 0.004678 -0.069339 -0.119619
v 0.149512 -0.020271 -0.258146
v 0.167625 -0.067485 -0.124260
v 0.264190 -0.066387 -0.127009
v 0.409025 -0.017319 -0.265536
v 0.427137 -0.064535 -0.131650
v 0.523702 -0.063436 -0.134401
v 0.668535 -0.014368 -0.272926
v 0.686649 -0.061583 -0.139041
v -1.292880 -0.084094 -0.082668
v -1.148046 -0.035026 -0.221194
v -1.129933 -0.082241 -0.087307
v -0.070386 -0.154862 0.604392
v -0.215721 -0.141480 0.750243
v -0.233333 -0.156714 0.609032
v 0.189126 -0.151910 0.597001
v 0.043792 -0.138528 0.742853
v 0.026179 -0.153764 0.601642
v 0.448638 -0.148960 0.589611
v 0.303304 -0.135577 0.735462
v 0.285690 -0.150813 0.594252
v -0.329897 -0.157813 0.611782
v -0.475233 -0.144431 0.757634
v -0.492845 -0.159666 0.616423
v -0.589410 -0.160764 0.619174
v -0.734745 -0.147382 0.765024
v -0.752357 -0.162617 0.623813
v -0.848921 -0.163715 0.626564
v -0.994256 -0.150333 0.772414
v -1.011869 -0.165568 0.631203
v -1.108433 -0.166667 0.633954
v -1.253768 -0.153285 0.779805
v -1.271380 -0.168519 0.638595
v 0.708150 -0.146008 0.582221
v 0.562815 -0.132626 0.728071
v 0.545202 -0.147861 0.586862
v 1.035165 -0.152337 0.445097
v 1.034708 -0.095599 0.451751
v 1.072789 -0.135489 0.304040
v 1.034264 -0.038859 0.458406
v 1.020356 0.015713 -0.007811
v 1.020813 -0.041027 -0.014466
v 1.021270 -0.097765 -0.021121
v 1.066318 -0.000184 0.130863
v 1.066775 -0.056923 0.124208
v 1.067231 -0.113661 0.117553
v 1.070010 -0.124575 0.210796
v 1.069554 -0.067837 0.217452
v 1.069097 -0.011098 0.224107
v 1.072333 -0.078751 0.310695
v 1.071876 -0.022012 0.317350
v -1.688083 -0.015087 0.069321
v -1.687626 -0.071825 0.062666
v -1.687169 -0.128565 0.056011
v -1.579613 -0.002125 -0.033757
v -1.579169 -0.058864 -0.040412
v -1.578712 -0.115603 -0.047067
v -1.395818 0.004308 -0.076023
v -1.395361 -0.052431 -0.082679
v -1.394905 -0.109169 -0.089334
v 0.724654 -0.085066 -0.149695
v 0.724198 -0.028328 -0.143041
v 0.723742 0.028411 -0.136386
v 0.905940 0.026140 -0.104542
v 0.906396 -0.030599 -0.111197
v 0.906851 -0.087337 -0.117852
v 1.020356 0.015713 -0.007811
v 1.020813 -0.041027 -0.014466
v 1.021270 -0.097765 -0.021121
v 0.723742 0.028411 -0.136386
v -1.395818 0.004308 -0.076023
v 0.734773 -0.014899 0.233628
v 0.905940 0.026140 -0.104542
v -1.384787 -0.039003 0.293990
v -1.579613 -0.002125 -0.033757
v 0.915867 -0.012840 0.228471
v 1.020356 0.015713 -0.007811
v 0.925794 -0.051820 0.561484
v 0.745802 -0.058211 0.603643
v 1.034264 -0.038859 0.458406
v -1.373757 -0.082314 0.664004
v -1.559763 -0.080086 0.632269
v 1.027304 -0.011573 0.225297
v 1.066318 -0.000184 0.130863
v 1.071876 -0.022012 0.317350
v 1.069097 -0.011098 0.224107
v -1.569688 -0.041106 0.299255
v -1.674188 -0.069659 0.535538
v -1.688083 -0.015087 0.069321
v -1.681136 -0.042373 0.302429
v -1.720149 -0.053763 0.396862
v -1.725707 -0.031933 0.210376
v -1.722929 -0.042849 0.303619
v -1.674188 -0.069659 0.535538
v -1.673731 -0.126397 0.528884
v -1.673274 -0.183136 0.522228
v -1.720149 -0.053763 0.396862
v -1.719692 -0.110501 0.390208
v -1.719236 -0.167240 0.383553
v -1.722015 -0.156326 0.290309
v -1.722472 -0.099587 0.296964
v -1.722929 -0.042849 0.303619
v -1.724794 -0.145411 0.197066
v -1.725251 -0.088671 0.203721
v -1.725707 -0.031933 0.210376
v -1.688083 -0.015087 0.069321
v -1.687626 -0.071825 0.062666
v -1.687169 -0.128565 0.056011
v 0.926705 -0.165297 0.548174
v 0.746258 -0.114950 0.596987
v 0.746713 -0.171688 0.590332
v -1.372846 -0.195791 0.650693
v 0.926250 -0.108559 0.554828
v 1.035165 -0.152337 0.445097
v 0.745802 -0.058211 0.603643
v 1.034708 -0.095599 0.451751
v 0.925794 -0.051820 0.561484
v 1.034264 -0.038859 0.458406
v -1.373301 -0.139052 0.657349
v -1.373757 -0.082314 0.664004
v -1.559763 -0.080086 0.632269
v -1.559306 -0.136824 0.625613
v -1.558849 -0.193563 0.618958
v -1.674188 -0.069659 0.535538
v -1.673731 -0.126397 0.528884
v -1.673274 -0.183136 0.522228
v 0.724654 -0.085066 -0.149695
v -1.383876 -0.152480 0.280679
v -1.394905 -0.109169 -0.089334
v -1.578712 -0.115603 -0.047067
v 0.735684 -0.128376 0.220318
v 0.906851 -0.087337 -0.117852
v -1.568774 -0.154583 0.285945
v -1.687169 -0.128565 0.056011
v -1.558849 -0.193563 0.618958
v -1.372846 -0.195791 0.650693
v -1.673274 -0.183136 0.522228
v 0.746713 -0.171688 0.590332
v 0.926705 -0.165297 0.548174
v -1.680222 -0.155850 0.289118
v -1.724794 -0.145411 0.197066
v -1.719236 -0.167240 0.383553
v -1.722015 -0.156326 0.290309
v 0.916779 -0.126317 0.215160
v 1.035165 -0.152337 0.445097
v 1.021270 -0.097765 -0.021121
v 1.028218 -0.125050 0.211987
v 1.072789 -0.135489 0.304040
v 1.067231 -0.113661 0.117553
v 1.070010 -0.124575 0.210796
vn 0.9996 0.0050 0.0263
vn 0.8048 0.0755 -0.5887
vn 0.8050 0.0755 -0.5885
vn 0.7824 -0.0663 0.6192
vn 0.7824 -0.0663 0.6193
vn 0.9988 0.0022 0.0494
vn 0.8410 -0.0563 0.5380
vn 0.9912 0.0232 -0.1301
vn 0.9912 0.0232 -0.1302
vn 0.9912 0.0233 -0.1301
vn 0.8791 0.0625 -0.4725
vn -0.7004 0.0776 -0.7096
vn -0.7004 0.0776 -0.7095
vn 0.5501 0.1016 -0.8289
vn -0.0845 0.1154 -0.9897
vn -0.5666 0.0915 -0.8189
vn 0.2132 0.9671 0.1385
vn 0.2032 0.9773 0.0607
vn 0.1463 0.9529 0.2657
vn 0.1289 0.9902 -0.0544
vn -0.0925 0.9919 -0.0872
vn -0.0566 0.9436 0.3261
vn 0.0250 0.9940 -0.1061
vn 0.0223 0.9432 0.3315
vn -0.0013 0.9432 0.3323
vn -0.0012 0.9430 0.3327
vn -0.0013 0.9432 0.3321
vn -0.0013 0.9430 0.3327
vn -0.0013 0.9431 0.3324
vn -0.0143 0.9943 -0.1055
vn -0.0143 0.9944 -0.1052
vn -0.9131 0.0402 -0.4058
vn -0.9906 0.0080 -0.1364
vn -0.9922 -0.0223 0.1225
vn -0.9922 -0.0224 0.1225
vn -0.9685 -0.0367 0.2465
vn 0.7044 -0.0771 0.7056
vn 0.3279 -0.1074 0.9386
vn -0.0176 -0.1166 0.9930
vn 0.7045 -0.0771 0.7056
vn 0.4981 -0.0970 0.8617
vn -0.6267 -0.0957 0.7733
vn -0.6270 -0.0957 0.7731
vn 0.2286 -0.9695 -0.0886
vn 0.2188 -0.9614 -0.1666
vn 0.1620 -0.9860 0.0384
vn 0.1445 -0.9485 -0.2819
vn 0.1445 -0.9485 -0.2818
vn -0.0769 -0.9461 -0.3145
vn -0.0410 -0.9943 0.0989
vn 0.0406 -0.9420 -0.3331
vn 0.0379 -0.9938 0.1044
vn 0.0143 -0.9944 0.1052
vn 0.0143 -0.9943 0.1055
vn 0.0143 -0.9944 0.1050
vn 0.0013 -0.9432 -0.3323
vn 0.0013 -0.9432 -0.3321
vn 0.0013 -0.9431 -0.3324
vn 0.0012 -0.9430 -0.3327
vn 0.0013 -0.9430 -0.3327
vn 0.9398 0.0473 -0.3384
vn 0.9130 -0.0402 0.4060
vn 0.9906 -0.0080 0.1364
vn 0.7367 0.0846 -0.6709
vn 0.9912 0.0233 -0.1302
vn 0.9685 0.0367 -0.2462
vn -0.7044 0.0771 -0.7056
vn 0.3021 0.1135 -0.9465
vn -0.7045 0.0771 -0.7056
vn -0.7045 0.0771 -0.7055
vn -0.4981 0.0970 -0.8617
vn 0.6227 0.0961 -0.7765
vn 0.2126 0.9703 0.1152
vn 0.1917 0.9605 0.2018
vn 0.1857 0.9826 0.0065
vn -0.1620 0.9860 -0.0384
vn -0.1445 0.9485 0.2818
vn 0.0770 0.9461 0.3145
vn 0.0769 0.9461 0.3145
vn 0.0410 0.9943 -0.0989
vn -0.0406 0.9420 0.3332
vn -0.0379 0.9938 -0.1044
vn -0.0143 0.9944 -0.1050
vn -0.9996 -0.0049 -0.0263
vn -0.9988 -0.0022 -0.0496
vn -0.7824 0.0663 -0.6192
vn -0.9912 -0.0233 0.1302
vn -0.8411 0.0563 -0.5380
vn -0.9912 -0.0232 0.1302
vn -0.8791 -0.0625 0.4726
vn 0.5753 -0.0907 0.8129
vn 0.0845 -0.1154 0.9897
vn 0.0846 -0.1154 0.9897
vn -0.3022 -0.1134 0.9465
vn 0.5666 -0.0915 0.8189
vn 0.7045 -0.0771 0.7055
vn 0.2282 -0.9672 -0.1120
vn 0.2282 -0.9671 -0.1121
vn 0.2073 -0.9780 -0.0255
vn 0.2014 -0.9543 -0.2206
vn -0.1463 -0.9529 -0.2657
vn -0.1289 -0.9902 0.0545
vn 0.0925 -0.9919 0.0872
vn 0.0566 -0.9436 -0.3261
vn -0.0250 -0.9940 0.1062
vn -0.0250 -0.9940 0.1061
vn -0.0223 -0.9432 -0.3315
vn 0.0013 -0.9432 -0.3322
vn 0.9928 -0.0061 0.1199
vn 0.8387 -0.0568 0.5416
vn 0.8051 0.0755 -0.5884
vn 0.9839 0.0286 -0.1762
vn 0.9840 0.0286 -0.1761
vn 0.9995 0.0114 -0.0285
vn 0.8387 -0.0567 0.5416
vn -0.3974 0.1038 -0.9117
vn -0.8386 0.0568 -0.5418
vn -0.8386 0.0567 -0.5418
vn -0.3974 0.1037 -0.9118
vn -0.3973 0.1037 -0.9118
vn -0.1242 0.1146 -0.9856
vn -0.1243 0.1146 -0.9856
vn 0.0653 0.1167 -0.9910
vn 0.0653 0.1168 -0.9910
vn 0.3424 0.1122 -0.9328
vn 0.3425 0.1121 -0.9328
vn 0.8049 0.0755 -0.5886
vn -0.0080 0.9932 0.1165
vn -0.8051 -0.0755 0.5884
vn -0.9839 -0.0286 0.1762
vn -0.9995 -0.0114 0.0285
vn -0.9928 0.0061 -0.1199
vn -0.8387 0.0568 -0.5416
vn 0.3974 -0.1037 0.9118
vn 0.1242 -0.1146 0.9856
vn -0.0653 -0.1168 0.9910
vn 0.3973 -0.1038 0.9118
vn 0.8386 -0.0568 0.5418
vn 0.3974 -0.1038 0.9118
vn -0.0653 -0.1167 0.9910
vn -0.3424 -0.1122 0.9328
vn -0.3424 -0.1121 0.9328
vn -0.8049 -0.0755 0.5887
vn -0.8049 -0.0755 0.5886
vn 0.0080 -0.9932 -0.1165
vt 11.974800 -47.168598
vt 12.000000 -47.331501
vt 12.025200 -47.168598
vt 11.974800 -47.006401
vt 12.000000 -47.140400
vt 12.025200 -47.006401
vt 11.974800 -47.276199
vt 12.000000 -47.401001
vt 12.025200 -47.276199
vt 12.025200 -46.727200
vt 12.000000 -46.615898
vt 11.974800 -46.727200
vt 12.025200 -46.819000
vt 12.000000 -46.726799
vt 11.974800 -46.819000
vt 12.025200 -46.709400
vt 12.000000 -46.598202
vt 11.974800 -46.709400
vt 12.025200 -46.719700
vt 12.000000 -46.619999
vt 11.974800 -46.719700
vt 12.960400 -46.974800
vt 12.841000 -47.000000
vt 12.960400 -47.025200
vt 12.752700 -46.974800
vt 12.633200 -47.000000
vt 12.752700 -47.025200
vt 11.007800 -46.974800
vt 10.874500 -47.000000
vt 11.007800 -47.025200
vt 12.545000 -46.974800
vt 12.425500 -47.000000
vt 12.545000 -47.025200
vt 12.337200 -46.974800
vt 12.217800 -47.000000
vt 12.337200 -47.025200
vt 12.129500 -46.974800
vt 12.010100 -47.000000
vt 12.129500 -47.025200
vt 11.113500 -46.974800
vt 10.950600 -47.000000
vt 11.113500 -47.025200
vt 11.921800 -46.974800
vt 11.802400 -47.000000
vt 11.921800 -47.025200
vt 11.714100 -46.974800
vt 11.594700 -47.000000
vt 11.714100 -47.025200
vt 11.506400 -46.974800
vt 11.387000 -47.000000
vt 11.506400 -47.025200
vt 11.306900 -46.974800
vt 11.170000 -47.000000
vt 11.306900 -47.025200
vt 13.000500 -47.135502
vt 13.112100 -47.140400
vt 13.019100 -47.006401
vt 13.018900 -46.977901
vt 13.125500 -46.944302
vt 12.992200 -46.850201
vt 12.888500 -47.258900
vt 12.973400 -47.331501
vt 12.982500 -47.168598
vt 12.986400 -46.819000
vt 13.049400 -46.726799
vt 12.886500 -46.735199
vt 10.999000 -46.719700
vt 10.948500 -46.619999
vt 10.877500 -46.766899
vt 10.892700 -47.251598
vt 10.874500 -47.361801
vt 11.018700 -47.285400
vt 12.821500 -46.727200
vt 12.830000 -46.615898
vt 12.693100 -46.704601
vt 12.706500 -47.292099
vt 12.731000 -47.401001
vt 12.836000 -47.276199
vt 11.870500 -47.290600
vt 11.881500 -47.401798
vt 12.000900 -47.290600
vt 12.078200 -47.290600
vt 12.089200 -47.401798
vt 12.208600 -47.290600
vt 12.285900 -47.290600
vt 12.296900 -47.401798
vt 12.416300 -47.290600
vt 11.662800 -47.290600
vt 11.673800 -47.401798
vt 11.793200 -47.290600
vt 11.455000 -47.290600
vt 11.466100 -47.401798
vt 11.585500 -47.290600
vt 11.247300 -47.290600
vt 11.258300 -47.401798
vt 11.377800 -47.290600
vt 11.039600 -47.290600
vt 11.050600 -47.401798
vt 11.170100 -47.290600
vt 12.493600 -47.290600
vt 12.504600 -47.401798
vt 12.624000 -47.290600
vt 11.793200 -46.709400
vt 11.782200 -46.598202
vt 11.662800 -46.709400
vt 11.585500 -46.709400
vt 11.574500 -46.598202
vt 11.455000 -46.709400
vt 11.377800 -46.709400
vt 11.366800 -46.598202
vt 11.247300 -46.709400
vt 12.000900 -46.709400
vt 11.989900 -46.598202
vt 11.870500 -46.709400
vt 12.208600 -46.709400
vt 12.197600 -46.598202
vt 12.078200 -46.709400
vt 12.416300 -46.709400
vt 12.405300 -46.598202
vt 12.285900 -46.709400
vt 12.624000 -46.709400
vt 12.613000 -46.598202
vt 12.493600 -46.709400
vt 11.170100 -46.709400
vt 11.159000 -46.598202
vt 11.039600 -46.709400
vt 12.025200 -46.766899
vt 11.974800 -46.766899
vt 11.974800 -47.251598
vt 12.000000 -47.361801
vt 12.025200 -47.251598
vt 11.974800 -47.290600
vt 12.000000 -47.401798
vt 12.025200 -47.290600
vt 11.974800 -47.292099
vt 12.025200 -47.292099
vt 12.624000 -46.974800
vt 12.504600 -47.000000
vt 12.624000 -47.025200
vt 12.416300 -46.974800
vt 12.296900 -47.000000
vt 12.416300 -47.025200
vt 12.208600 -46.974800
vt 12.089200 -47.000000
vt 12.208600 -47.025200
vt 13.018900 -47.025200
vt 13.125500 -47.000000
vt 13.018900 -46.974800
vt 12.000900 -46.974800
vt 11.881500 -47.000000
vt 12.000900 -47.025200
vt 13.000500 -47.025200
vt 13.112100 -47.000000
vt 13.000500 -46.974800
vt 11.793200 -46.974800
vt 11.673800 -47.000000
vt 11.793200 -47.025200
vt 11.585500 -46.974800
vt 11.466100 -47.000000
vt 11.585500 -47.025200
vt 11.018700 -46.974800
vt 11.018700 -47.025200
vt 11.377800 -46.974800
vt 11.258300 -47.000000
vt 11.377800 -47.025200
vt 12.888500 -47.025200
vt 12.973400 -47.000000
vt 12.888500 -46.974800
vt 11.170100 -46.974800
vt 11.050600 -47.000000
vt 11.170100 -47.025200
vt 10.980900 -47.006401
vt 10.887900 -47.140400
vt 10.999500 -47.135502
vt 11.007800 -46.850201
vt 10.874500 -46.944302
vt 10.981100 -46.977901
vt 11.017500 -47.168598
vt 11.026600 -47.331501
vt 11.111500 -47.258900
vt 11.113500 -46.735199
vt 10.950600 -46.726799
vt 11.013600 -46.819000
vt 13.122500 -46.766899
vt 13.051500 -46.619999
vt 13.001000 -46.719700
vt 12.981300 -47.285400
vt 13.125500 -47.361801
vt 13.107300 -47.251598
vt 11.306900 -46.704601
vt 11.170000 -46.615898
vt 11.178500 -46.727200
vt 11.164000 -47.276199
vt 11.269000 -47.401001
vt 11.293500 -47.292099
vt 11.999100 -47.290600
vt 12.118500 -47.401798
vt 12.129500 -47.290600
vt 11.791400 -47.290600
vt 11.910800 -47.401798
vt 11.921800 -47.290600
vt 11.583700 -47.290600
vt 11.703100 -47.401798
vt 11.714100 -47.290600
vt 12.206800 -47.290600
vt 12.326200 -47.401798
vt 12.337200 -47.290600
vt 12.414500 -47.290600
vt 12.533900 -47.401798
vt 12.545000 -47.290600
vt 12.622200 -47.290600
vt 12.741700 -47.401798
vt 12.752700 -47.290600
vt 12.829900 -47.290600
vt 12.949400 -47.401798
vt 12.960400 -47.290600
vt 11.376000 -47.290600
vt 11.495400 -47.401798
vt 11.506400 -47.290600
vt 12.337200 -46.709400
vt 12.217800 -46.598202
vt 12.206800 -46.709400
vt 12.545000 -46.709400
vt 12.425500 -46.598202
vt 12.414500 -46.709400
vt 12.752700 -46.709400
vt 12.633200 -46.598202
vt 12.622200 -46.709400
vt 12.129500 -46.709400
vt 12.010100 -46.598202
vt 11.999100 -46.709400
vt 11.921800 -46.709400
vt 11.802400 -46.598202
vt 11.791400 -46.709400
vt 11.714100 -46.709400
vt 11.594700 -46.598202
vt 11.583700 -46.709400
vt 11.506400 -46.709400
vt 11.387000 -46.598202
vt 11.376000 -46.709400
vt 12.960400 -46.709400
vt 12.841000 -46.598202
vt 12.829900 -46.709400
vt 29.974800 -61.092098
vt 30.000000 -61.247101
vt 30.025200 -61.092098
vt 29.974800 -61.237801
vt 30.000000 -61.384602
vt 30.025200 -61.237801
vt 30.025200 -60.752998
vt 30.000000 -60.642799
vt 29.974800 -60.752998
vt 29.974800 -60.928398
vt 30.000000 -61.052299
vt 30.025200 -60.928398
vt 30.025200 -60.709400
vt 30.000000 -60.598202
vt 29.974800 -60.709400
vt 30.025200 -60.711399
vt 30.000000 -60.602402
vt 29.974800 -60.711399
vt 30.800600 -60.974800
vt 30.681101 -61.000000
vt 30.800600 -61.025200
vt 30.592899 -60.974800
vt 30.473400 -61.000000
vt 30.592899 -61.025200
vt 28.999800 -60.974800
vt 28.845800 -61.000000
vt 28.999800 -61.025200
vt 30.385099 -60.974800
vt 30.265699 -61.000000
vt 30.385099 -61.025200
vt 30.177401 -60.974800
vt 30.058001 -61.000000
vt 30.177401 -61.025200
vt 29.969700 -60.974800
vt 29.850300 -61.000000
vt 29.969700 -61.025200
vt 29.761999 -60.974800
vt 29.642599 -61.000000
vt 29.761999 -61.025200
vt 29.554300 -60.974800
vt 29.434900 -61.000000
vt 29.554300 -61.025200
vt 29.149799 -60.974800
vt 29.005600 -61.000000
vt 29.149799 -61.025200
vt 29.346600 -60.974800
vt 29.227200 -61.000000
vt 29.346600 -61.025200
vt 31.029100 -61.025200
vt 31.114000 -61.000000
vt 31.029100 -60.974800
vt 31.069000 -61.058701
vt 31.180500 -61.052299
vt 31.074499 -60.928398
vt 31.017500 -61.210602
vt 31.123100 -61.247101
vt 31.072100 -61.092098
vt 31.061001 -60.890800
vt 31.154200 -60.829300
vt 31.000200 -60.775398
vt 28.970900 -60.745701
vt 28.886000 -60.673199
vt 28.876801 -60.836102
vt 28.882500 -61.185600
vt 28.819500 -61.277901
vt 28.982401 -61.269501
vt 30.860300 -61.285000
vt 30.910900 -61.384602
vt 30.981899 -61.237801
vt 30.976200 -60.752998
vt 30.994400 -60.642799
vt 30.850201 -60.719299
vt 29.024200 -61.276199
vt 29.015699 -61.387600
vt 29.152599 -61.298801
vt 29.139200 -60.711399
vt 29.114700 -60.602402
vt 29.009701 -60.727200
vt 29.952999 -60.709400
vt 29.941999 -60.598202
vt 29.822599 -60.709400
vt 29.745300 -60.709400
vt 29.734301 -60.598202
vt 29.614901 -60.709400
vt 29.537600 -60.709400
vt 29.526600 -60.598202
vt 29.407101 -60.709400
vt 30.160700 -60.709400
vt 30.149700 -60.598202
vt 30.030300 -60.709400
vt 30.368401 -60.709400
vt 30.357401 -60.598202
vt 30.238001 -60.709400
vt 30.576099 -60.709400
vt 30.565100 -60.598202
vt 30.445700 -60.709400
vt 30.783800 -60.709400
vt 30.772800 -60.598202
vt 30.653400 -60.709400
vt 29.329901 -60.709400
vt 29.318899 -60.598202
vt 29.199400 -60.709400
vt 30.030300 -61.290600
vt 30.041300 -61.401798
vt 30.160700 -61.290600
vt 30.238001 -61.290600
vt 30.249001 -61.401798
vt 30.368401 -61.290600
vt 30.445700 -61.290600
vt 30.456699 -61.401798
vt 30.576099 -61.290600
vt 29.822599 -61.290600
vt 29.833599 -61.401798
vt 29.952999 -61.290600
vt 29.614901 -61.290600
vt 29.625900 -61.401798
vt 29.745300 -61.290600
vt 29.407101 -61.290600
vt 29.418100 -61.401798
vt 29.537600 -61.290600
vt 29.199400 -61.290600
vt 29.210400 -61.401798
vt 29.329901 -61.290600
vt 30.653400 -61.290600
vt 30.664400 -61.401798
vt 30.783800 -61.290600
vt 30.025200 -60.836102
vt 30.000000 -60.673199
vt 29.974800 -60.836102
vt 29.974800 -61.276199
vt 30.000000 -61.387600
vt 30.025200 -61.276199
vt 30.025200 -60.727200
vt 29.974800 -60.727200
vt 29.974800 -61.290600
vt 30.000000 -61.401798
vt 30.025200 -61.290600
vt 29.974800 -61.185600
vt 30.000000 -61.277901
vt 30.025200 -61.185600
vt 29.974800 -61.285000
vt 30.025200 -61.285000
vt 30.783800 -60.974800
vt 30.664400 -61.000000
vt 30.783800 -61.025200
vt 30.576099 -60.974800
vt 30.456699 -61.000000
vt 30.576099 -61.025200
vt 31.061001 -61.025200
vt 31.154200 -61.000000
vt 31.061001 -60.974800
vt 30.368401 -60.974800
vt 30.249001 -61.000000
vt 30.368401 -61.025200
vt 30.160700 -60.974800
vt 30.041300 -61.000000
vt 30.160700 -61.025200
vt 28.982401 -60.974800
vt 28.819500 -61.000000
vt 28.982401 -61.025200
vt 29.952999 -60.974800
vt 29.833599 -61.000000
vt 29.952999 -61.025200
vt 31.069000 -61.025200
vt 31.180500 -61.000000
vt 31.069000 -60.974800
vt 29.745300 -60.974800
vt 29.625900 -61.000000
vt 29.745300 -61.025200
vt 31.017500 -61.025200
vt 31.123100 -61.000000
vt 31.017500 -60.974800
vt 29.537600 -60.974800
vt 29.418100 -61.000000
vt 29.537600 -61.025200
vt 29.152599 -60.974800
vt 29.015699 -61.000000
vt 29.152599 -61.025200
vt 29.329901 -60.974800
vt 29.210400 -61.000000
vt 29.329901 -61.025200
vt 28.925501 -60.928398
vt 28.819500 -61.052299
vt 28.931000 -61.058701
vt 28.927900 -61.092098
vt 28.876900 -61.247101
vt 28.982500 -61.210602
vt 28.999800 -60.775398
vt 28.845800 -60.829300
vt 28.938999 -60.890800
vt 31.123199 -60.836102
vt 31.114000 -60.673199
vt 31.029100 -60.745701
vt 31.017599 -61.269501
vt 31.180500 -61.277901
vt 31.117500 -61.185600
vt 29.018101 -61.237801
vt 29.089100 -61.384602
vt 29.139700 -61.285000
vt 29.149799 -60.719299
vt 29.005600 -60.642799
vt 29.023800 -60.752998
vt 30.847401 -61.298801
vt 30.984301 -61.387600
vt 30.975800 -61.276199
vt 30.990299 -60.727200
vt 30.885300 -60.602402
vt 30.860800 -60.711399
vt 30.177401 -60.709400
vt 30.058001 -60.598202
vt 30.047001 -60.709400
vt 30.385099 -60.709400
vt 30.265699 -60.598202
vt 30.254700 -60.709400
vt 30.592899 -60.709400
vt 30.473400 -60.598202
vt 30.462400 -60.709400
vt 29.969700 -60.709400
vt 29.850300 -60.598202
vt 29.839300 -60.709400
vt 29.761999 -60.709400
vt 29.642599 -60.598202
vt 29.631599 -60.709400
vt 29.554300 -60.709400
vt 29.434900 -60.598202
vt 29.423901 -60.709400
vt 29.346600 -60.709400
vt 29.227200 -60.598202
vt 29.216200 -60.709400
vt 30.800600 -60.709400
vt 30.681101 -60.598202
vt 30.670099 -60.709400
vt 29.839300 -61.290600
vt 29.958700 -61.401798
vt 29.969700 -61.290600
vt 29.631599 -61.290600
vt 29.750999 -61.401798
vt 29.761999 -61.290600
vt 29.423901 -61.290600
vt 29.543301 -61.401798
vt 29.554300 -61.290600
vt 30.047001 -61.290600
vt 30.166401 -61.401798
vt 30.177401 -61.290600
vt 30.254700 -61.290600
vt 30.374100 -61.401798
vt 30.385099 -61.290600
vt 30.462400 -61.290600
vt 30.581900 -61.401798
vt 30.592899 -61.290600
vt 30.670099 -61.290600
vt 30.789600 -61.401798
vt 30.800600 -61.290600
vt 29.216200 -61.290600
vt 29.335600 -61.401798
vt 29.346600 -61.290600
vt 6.045700 -25.075100
vt 6.000000 -25.187799
vt 6.045700 -25.187799
vt 5.954300 -24.812201
vt 5.954300 -24.924900
vt 6.000000 -24.812201
vt 6.000000 -24.924900
vt 6.045700 -24.812201
vt 6.045700 -24.924900
vt 6.045700 -25.000000
vt 6.000000 -25.000000
vt 5.954300 -25.000000
vt 6.000000 -25.075100
vt 5.954300 -25.075100
vt 5.954300 -25.187799
vt 6.994690 -24.954300
vt 7.083890 -25.000000
vt 7.083890 -24.954300
vt 6.994690 -25.000000
vt 7.083890 -25.045700
vt 6.994690 -25.045700
vt 6.846700 -24.954300
vt 6.846700 -25.000000
vt 6.846700 -25.045700
vt 5.150250 -25.045700
vt 5.150250 -25.000000
vt 5.150250 -24.954300
vt 5.005310 -24.954300
vt 5.005310 -25.000000
vt 5.005310 -25.045700
vt 4.916110 -24.954300
vt 4.916110 -25.000000
vt 4.916110 -25.045700
vt 6.849750 -24.701799
vt 5.153300 -24.701799
vt 6.849750 -25.000000
vt 6.994690 -24.731701
vt 5.153300 -25.000000
vt 5.005310 -24.731701
vt 7.083890 -24.812201
vt 6.994690 -25.268299
vt 6.849750 -25.298201
vt 7.083890 -25.187799
vt 5.153300 -25.298201
vt 5.005310 -25.268299
vt 7.117340 -24.924900
vt 7.117340 -25.075100
vt 7.117340 -25.000000
vt 4.916110 -25.187799
vt 4.916110 -24.812201
vt 4.882660 -25.075100
vt 4.882660 -24.924900
vt 4.882660 -25.000000
vt 6.849750 -25.045700
vt 5.153300 -25.045700
vt 6.849750 -24.954300
vt 5.153300 -24.954300
vt 5.150250 -24.701799
vt 6.846700 -24.701799
vt 6.846700 -25.298201
vt 5.150250 -25.298201
s 1
usemtl Spikes21Mtl
f 161/25/79 162/26/79 163/27/79
f 164/28/80 165/29/81 166/30/80
f 167/31/82 168/32/83 169/33/83
f 170/34/84 171/35/84 172/36/84
f 173/37/85 174/38/85 175/39/85
f 176/40/86 177/41/86 178/42/86
f 179/40/87 180/41/87 181/42/87
f 182/40/87 183/41/87 184/42/87
f 185/40/88 186/41/87 187/42/88
f 188/40/86 189/41/87 190/42/86
f 191/40/86 192/41/87 193/42/86
f 194/40/88 195/41/87 196/42/87
f 197/43/89 198/44/89 199/45/89
f 200/40/87 201/41/87 202/42/87
f 203/46/90 204/47/90 205/48/90
f 206/49/91 207/50/91 208/51/91
f 209/52/92 210/53/92 211/54/92
f 212/55/90 213/56/90 214/57/90
f 215/58/90 216/59/90 217/60/90
f 218/61/90 219/62/90 220/63/90
f 221/64/93 222/65/93 223/66/93
f 224/67/90 225/68/90 226/69/90
f 227/70/90 228/71/90 229/72/90
f 230/73/90 231/74/90 232/75/90
f 233/76/94 234/77/94 235/78/94
f 236/79/95 237/80/95 238/81/95
f 239/82/96 240/83/96 241/84/96
f 242/85/97 243/86/97 244/87/97
f 245/88/98 246/89/98 247/90/98
f 248/91/99 249/92/99 250/93/99
f 251/94/100 252/95/100 253/96/100
f 254/97/101 255/98/101 256/99/101
f 257/100/102 258/101/102 259/102/102
f 260/103/103 261/104/103 262/105/103
f 263/106/104 264/107/104 265/108/104
f 266/109/103 267/110/105 268/111/105
f 269/112/106 270/113/106 271/114/106
f 272/115/103 273/116/103 274/117/103
f 275/118/107 276/119/103 277/120/107
f 278/121/104 279/122/104 280/123/104
f 281/124/104 282/125/104 283/126/104
f 284/127/108 285/128/108 286/129/108
f 287/130/109 288/131/108 289/132/108
f 290/133/108 291/134/108 292/135/108
f 293/136/108 294/137/108 295/138/108
f 296/139/109 297/140/108 298/141/108
f 299/142/108 300/143/108 301/144/108
f 302/145/108 303/146/108 304/147/108
f 305/148/108 306/149/108 307/150/108
f 308/151/110 309/44/110 310/152/110
f 311/153/111 312/154/111 313/155/111
f 314/156/112 315/157/112 316/158/112
f 317/156/113 318/157/113 319/158/113
f 320/156/113 321/157/113 322/158/113
f 323/156/113 324/157/113 325/158/113
f 326/156/113 327/157/113 328/158/113
f 329/156/112 330/157/112 331/158/112
f 332/156/113 333/157/113 334/158/113
f 335/156/113 336/157/113 337/158/113
f 338/159/114 339/32/114 340/160/114
f 341/161/115 342/162/115 343/163/115
f 344/164/115 345/165/115 346/166/115
f 347/167/115 348/168/115 349/169/115
f 350/170/116 351/171/116 352/172/116
f 353/173/115 354/174/115 355/175/115
f 356/176/117 357/177/117 358/178/117
f 359/179/115 360/180/118 361/181/115
f 362/182/115 363/183/115 364/184/115
f 365/185/119 366/53/119 367/186/119
f 368/187/115 369/188/115 370/189/115
f 371/190/120 372/191/121 373/192/121
f 374/193/115 375/194/115 376/195/115
f 377/196/122 378/197/122 379/198/122
f 380/199/123 381/200/123 382/201/123
f 383/202/124 384/203/124 385/204/124
f 386/205/125 387/206/125 388/207/126
f 389/208/127 390/209/127 391/210/127
f 392/211/128 393/212/128 394/213/128
f 395/214/129 396/215/129 397/216/129
f 398/217/130 399/218/130 400/219/130
f 401/220/131 402/221/131 403/222/131
f 404/223/132 405/224/132 406/225/132
f 407/226/132 408/227/132 409/228/132
f 410/229/131 411/230/131 412/231/131
f 413/232/132 414/233/132 415/234/132
f 416/235/132 417/236/132 418/237/132
f 419/238/132 420/239/132 421/240/132
f 422/241/133 423/242/133 424/243/133
f 425/244/134 426/245/135 427/246/135
f 428/247/134 429/248/134 430/249/134
f 431/250/136 432/251/136 433/252/136
f 434/253/137 435/254/137 436/255/137
f 437/256/134 438/257/134 439/258/134
f 440/259/137 441/260/137 442/261/137
f 443/262/134 444/263/136 445/264/134
f 446/265/138 447/266/138 448/267/138
f 449/268/139 450/269/139 451/270/139
f 452/271/140 453/272/140 454/273/140
f 455/274/141 456/275/141 457/276/141
f 458/277/142 459/278/142 460/279/142
f 461/280/87 462/281/87 463/282/87
f 464/280/87 465/281/87 466/282/87
f 467/280/143 468/281/143 469/282/143
f 470/280/143 471/281/143 472/282/143
f 473/280/143 474/281/143 475/282/143
f 476/280/87 477/281/87 478/282/87
f 479/280/87 480/281/87 481/282/87
f 482/280/86 483/281/87 484/282/87
f 485/283/144 486/284/144 487/285/144
f 488/286/145 489/287/145 490/288/145
f 491/289/145 492/290/145 493/291/145
f 494/292/146 495/293/146 496/294/146
f 497/295/145 498/296/145 499/297/145
f 500/298/145 501/299/145 502/300/145
f 503/301/147 504/302/147 505/303/147
f 506/304/147 507/305/147 508/306/148
f 509/307/145 510/308/145 511/309/145
f 512/310/149 513/311/149 514/312/149
f 515/313/145 516/314/145 517/315/145
f 518/316/150 519/317/150 520/318/150
f 521/319/151 522/320/151 523/321/151
f 524/322/152 525/323/152 526/324/152
f 527/325/153 528/326/153 529/327/153
f 530/328/154 531/329/154 532/330/154
f 533/331/155 534/332/155 535/333/155
f 536/334/156 537/335/157 538/336/156
f 539/337/158 540/338/158 541/339/158
f 542/340/159 543/341/159 544/342/159
f 545/343/160 546/344/160 547/345/160
f 548/346/108 549/347/109 550/348/109
f 551/349/108 552/350/108 553/351/108
f 554/352/109 555/353/108 556/354/109
f 557/355/161 558/356/161 559/357/161
f 560/358/108 561/359/108 562/360/108
f 563/361/108 564/362/108 565/363/108
f 566/364/108 567/365/109 568/366/108
f 569/367/109 570/368/109 571/369/109
f 572/370/103 573/371/104 574/372/104
f 575/373/103 576/374/103 577/375/103
f 578/376/107 579/377/107 580/378/107
f 581/379/103 582/380/103 583/381/103
f 584/382/106 585/383/107 586/384/107
f 587/385/104 588/386/104 589/387/104
f 590/388/104 591/389/107 592/390/107
f 593/391/104 594/392/107 595/393/107
f 596/394/162 597/395/162 598/396/162
f 599/397/163 600/398/163 601/399/163
f 602/400/164 603/284/164 604/401/164
f 605/402/165 606/403/165 607/404/165
f 608/405/166 609/406/166 610/407/166
f 611/402/167 612/403/167 613/404/167
f 614/402/167 615/403/167 616/404/167
f 617/402/167 618/403/167 619/404/167
f 620/402/165 621/403/165 622/404/165
f 623/402/167 624/403/167 625/404/167
f 626/402/167 627/403/167 628/404/167
f 629/402/167 630/403/167 631/404/167
f 632/408/168 633/272/168 634/409/168
f 635/410/115 636/411/115 637/412/115
f 638/413/115 639/414/115 640/415/115
f 641/416/169 642/417/169 643/418/169
f 644/419/115 645/420/115 646/421/115
f 647/422/115 648/423/115 649/424/115
f 650/425/170 651/426/170 652/427/170
f 653/428/115 654/429/115 655/430/115
f 656/431/171 657/432/171 658/433/171
f 659/434/115 660/435/115 661/436/115
f 662/437/172 663/438/172 664/439/172
f 665/440/115 666/441/115 667/442/115
f 668/443/173 669/444/173 670/445/173
f 671/446/174 672/447/174 673/448/174
f 674/449/175 675/450/176 676/451/176
f 677/452/177 678/453/177 679/454/177
f 680/455/178 681/456/178 682/457/178
f 683/458/179 684/459/179 685/460/179
f 686/461/180 687/462/180 688/463/180
f 689/464/181 690/465/181 691/466/181
f 692/467/182 693/468/182 694/469/182
f 695/470/183 696/471/183 697/472/184
f 698/473/185 699/474/185 700/475/185
f 701/476/134 702/477/134 703/478/186
f 704/479/138 705/480/138 706/481/138
f 707/482/137 708/483/137 709/484/137
f 710/485/137 711/486/137 712/487/137
f 713/488/138 714/489/138 715/490/138
f 716/491/136 717/492/136 718/493/136
f 719/494/137 720/495/137 721/496/137
f 722/497/138 723/498/138 724/499/138
f 725/500/132 726/501/132 727/502/132
f 728/503/132 729/504/132 730/505/132
f 731/506/132 732/507/132 733/508/132
f 734/509/133 735/510/133 736/511/133
f 737/512/132 738/513/132 739/514/132
f 740/515/132 741/516/132 742/517/132
f 743/518/132 744/519/132 745/520/132
f 746/521/133 747/522/133 748/523/133
usemtl Blade1Mtl
f 751/524/187 750/525/188 749/526/188
f 753/527/189 756/528/190 754/529/189
f 754/529/189 757/530/190 755/531/189
f 757/530/190 754/529/189 756/528/190
f 758/532/191 755/531/189 757/530/190
f 758/532/191 757/530/190 759/533/192
f 756/528/190 760/534/192 757/530/190
f 759/533/192 757/530/190 760/534/192
f 760/534/192 756/528/190 761/535/192
f 759/533/192 760/534/192 751/524/187
f 760/534/192 761/535/192 762/536/187
f 751/524/187 760/534/192 762/536/187
f 762/536/187 761/535/192 763/537/187
f 750/525/188 751/524/187 762/536/187
f 752/538/193 762/536/187 763/537/187
f 762/536/187 752/538/193 750/525/188
f 767/539/194 765/540/195 764/541/196
f 768/542/197 766/543/195 765/540/195
f 765/540/195 767/539/194 768/542/197
f 766/543/195 768/542/197 769/544/198
f 770/545/199 768/542/197 767/539/194
f 771/546/200 769/544/198 768/542/197
f 768/542/197 770/545/199 771/546/200
f 769/544/198 771/546/200 772/547/199
f 773/548/201 772/547/199 771/546/200
f 774/549/202 771/546/200 770/545/199
f 773/548/201 771/546/200 774/549/202
f 774/549/202 770/545/199 775/550/201
f 775/550/201 776/551/203 774/549/202
f 774/549/202 777/552/204 773/548/201
f 777/552/204 774/549/202 776/551/203
f 778/553/203 773/548/201 777/552/204
f 776/551/203 779/554/205 777/552/204
f 777/552/204 780/555/205 778/553/203
f 780/555/205 777/552/204 779/554/205
f 781/556/205 778/553/203 780/555/205
f 782/557/206 783/558/206 784/559/206
f 784/559/206 785/560/206 782/557/206
f 786/561/206 784/559/206 783/558/206
f 786/561/206 783/558/206 787/562/206
f 785/560/206 784/559/206 788/542/206
f 788/542/206 789/563/206 785/560/206
f 784/559/206 790/564/206 788/542/206
f 790/564/206 784/559/206 791/565/206
f 784/559/206 786/561/206 791/565/206
f 788/542/206 790/564/206 792/566/206
f 793/567/206 791/565/206 786/561/206
f 786/561/206 794/568/206 793/567/206
f 789/563/206 788/542/206 795/540/206
f 788/542/206 792/566/206 795/540/206
f 795/540/206 796/569/206 789/563/206
f 795/540/206 792/566/206 797/570/206
f 796/569/206 795/540/206 798/571/206
f 795/540/206 797/570/206 798/571/206
f 794/568/206 786/561/206 799/552/206
f 799/552/206 786/561/206 787/562/206
f 799/552/206 800/572/206 794/568/206
f 799/552/206 787/562/206 801/573/206
f 800/572/206 799/552/206 802/555/206
f 801/573/206 802/555/206 799/552/206
f 802/555/206 803/574/206 800/572/206
f 802/555/206 801/573/206 804/575/206
f 803/574/206 802/555/206 805/576/206
f 805/576/206 802/555/206 804/575/206
f 806/526/207 809/524/208 807/525/207
f 807/525/207 810/536/208 808/538/207
f 810/536/208 807/525/207 809/524/208
f 811/537/208 808/538/207 810/536/208
f 812/535/209 811/537/208 810/536/208
f 813/534/209 810/536/208 809/524/208
f 812/535/209 810/536/208 813/534/209
f 813/534/209 809/524/208 814/533/209
f 815/528/210 812/535/209 813/534/209
f 816/530/210 813/534/209 814/533/209
f 815/528/210 813/534/209 816/530/210
f 816/530/210 814/533/209 817/532/210
f 818/531/211 816/530/210 817/532/210
f 819/529/211 815/528/210 816/530/210
f 816/530/210 818/531/211 819/529/211
f 815/528/210 819/529/211 820/527/211
f 821/544/212 822/559/213 823/577/213
f 824/578/214 823/577/213 822/559/213
f 822/559/213 821/544/212 825/542/215
f 826/543/216 825/542/215 821/544/212
f 825/542/215 827/579/213 822/559/213
f 825/542/215 826/543/216 828/540/216
f 827/579/213 825/542/215 829/539/217
f 828/540/216 829/539/217 825/542/215
f 829/539/217 828/540/216 830/541/216
f 831/561/214 822/559/213 827/579/213
f 824/578/214 822/559/213 831/561/214
f 831/561/214 827/579/213 832/580/218
f 832/580/218 833/551/219 831/561/214
f 831/561/214 834/552/220 824/578/214
f 834/552/220 831/561/214 833/551/219
f 835/553/219 824/578/214 834/552/220
f 833/551/219 836/554/221 834/552/220
f 834/552/220 837/555/222 835/553/219
f 837/555/222 834/552/220 836/554/221
f 838/556/222 835/553/219 837/555/222
f 839/581/223 840/546/223 841/582/223
f 840/546/223 842/560/223 841/582/223
f 840/546/223 839/581/223 843/549/223
f 844/562/223 843/549/223 839/581/223
f 842/560/223 840/546/223 845/542/223
f 845/542/223 846/563/223 842/560/223
f 845/542/223 840/546/223 847/564/223
f 840/546/223 848/583/223 847/564/223
f 843/549/223 848/583/223 840/546/223
f 845/542/223 847/564/223 849/566/223
f 848/583/223 843/549/223 850/584/223
f 843/549/223 851/568/223 850/584/223
f 846/563/223 845/542/223 852/540/223
f 849/566/223 852/540/223 845/542/223
f 852/540/223 853/569/223 846/563/223
f 852/540/223 849/566/223 854/570/223
f 853/569/223 852/540/223 855/571/223
f 855/571/223 852/540/223 854/570/223
f 851/568/223 843/549/223 856/552/223
f 843/549/223 844/562/223 856/552/223
f 856/552/223 857/572/223 851/568/223
f 856/552/223 844/562/223 858/573/223
f 857/572/223 856/552/223 859/555/223
f 856/552/223 858/573/223 859/555/223
f 859/555/223 860/574/223 857/572/223
f 859/555/223 858/573/223 861/575/223
f 860/574/223 859/555/223 862/576/223
f 859/555/223 861/575/223 862/576/223
