# Blender 5.1.2
# www.blender.org
mtllib nigeria.mtl
o Pirate_Hook
v -1.284096 0.032323 -0.403647
v -1.286152 -0.717539 0.329765
v -1.282750 0.024091 0.337991
v -1.287503 -0.709309 -0.411875
v 1.206132 0.012728 0.333350
v 1.201385 -0.720671 -0.416513
v 1.204787 0.020960 -0.408286
v 1.202730 -0.728903 0.325125
v 1.168202 -0.764494 -0.416940
v 1.168323 -0.720032 -0.460426
v 1.201385 -0.720671 -0.416513
v 1.204787 0.020960 -0.408286
v 1.171725 0.021598 -0.452199
v 1.172006 0.065083 -0.407738
v 1.169547 -0.772726 0.324699
v 1.202730 -0.728903 0.325125
v 1.169827 -0.729240 0.369160
v 1.173229 0.012391 0.377386
v 1.206132 0.012728 0.333350
v 1.173351 0.056853 0.333900
v -1.254719 -0.753432 -0.412423
v -1.287503 -0.709309 -0.411875
v -1.254590 -0.708969 -0.455905
v -1.251194 0.032660 -0.447682
v -1.284096 0.032323 -0.403647
v -1.250912 0.076145 -0.403220
v -1.253372 -0.761663 0.329216
v -1.253090 -0.718177 0.373676
v -1.286152 -0.717539 0.329765
v -1.282750 0.024091 0.337991
v -1.249689 0.023454 0.381903
v -1.249567 0.067914 0.338417
v 1.201385 -0.720671 -0.416513
v 1.169547 -0.772726 0.324699
v 1.168202 -0.764494 -0.416940
v 1.202730 -0.728903 0.325125
v 1.206132 0.012728 0.333350
v 1.172006 0.065083 -0.407738
v 1.173351 0.056853 0.333900
v 1.204787 0.020960 -0.408286
v -1.286152 -0.717539 0.329765
v -1.287503 -0.709309 -0.411875
v -1.254719 -0.753432 -0.412423
v -1.253372 -0.761663 0.329216
v -1.284096 0.032323 -0.403647
v -1.249567 0.067914 0.338417
v -1.250912 0.076145 -0.403220
v 1.169827 -0.729240 0.369160
v -1.253090 -0.718177 0.373676
v -1.253372 -0.761663 0.329216
v 1.169547 -0.772726 0.324699
v 1.173351 0.056853 0.333900
v -1.249567 0.067914 0.338417
v -1.249689 0.023454 0.381903
v 1.173229 0.012391 0.377386
v -1.254590 -0.708969 -0.455905
v 1.168323 -0.720032 -0.460426
v 1.168202 -0.764494 -0.416940
v -1.254719 -0.753432 -0.412423
v -1.250912 0.076145 -0.403220
v 1.172006 0.065083 -0.407738
v 1.171725 0.021598 -0.452199
v -1.251194 0.032660 -0.447682
v 1.171725 0.021598 -0.452199
v -1.254590 -0.708969 -0.455905
v -1.251194 0.032660 -0.447682
v 1.168323 -0.720032 -0.460426
v 1.173351 0.056853 0.333900
v 1.172006 0.065083 -0.407738
v -1.250912 0.076145 -0.403220
v -1.249689 0.023454 0.381903
v 1.169827 -0.729240 0.369160
v 1.173229 0.012391 0.377386
v -1.253090 -0.718177 0.373676
v -1.254719 -0.753432 -0.412423
v 1.168202 -0.764494 -0.416940
v 1.169547 -0.772726 0.324699
v -1.253372 -0.761663 0.329216
v -1.309591 0.039968 -0.410977
v -1.311833 -0.724949 0.337186
v -1.308269 0.031535 0.345633
v -1.313158 -0.716516 -0.419425
v 1.231788 0.019933 0.340902
v 1.226904 -0.728112 -0.424156
v 1.230466 0.028369 -0.415709
v 1.228224 -0.736546 0.332454
v 1.180143 -0.787601 -0.426177
v 1.180238 -0.728882 -0.483847
v 1.226904 -0.728112 -0.424156
v 1.230466 0.028369 -0.415709
v 1.183810 0.030838 -0.475377
v 1.184239 0.088274 -0.416532
v 1.181611 -0.796059 0.333390
v 1.228224 -0.736546 0.332454
v 1.181840 -0.738680 0.392165
v 1.185414 0.021038 0.400636
v 1.231788 0.019933 0.340902
v 1.185625 0.079859 0.343232
v -1.266985 -0.776437 -0.421753
v -1.313158 -0.716516 -0.419425
v -1.266777 -0.717617 -0.479159
v -1.263208 0.042101 -0.470687
v -1.309591 0.039968 -0.410977
v -1.262976 0.099479 -0.411912
v -1.265605 -0.784853 0.338009
v -1.265175 -0.727416 0.396856
v -1.311833 -0.724949 0.337186
v -1.308269 0.031535 0.345633
v -1.261603 0.032301 0.405327
v -1.261508 0.091022 0.347654
v 1.226904 -0.728112 -0.424156
v 1.181611 -0.796059 0.333390
v 1.180143 -0.787601 -0.426177
v 1.228224 -0.736546 0.332454
v 1.231788 0.019933 0.340902
v 1.184239 0.088274 -0.416532
v 1.185625 0.079859 0.343232
v 1.230466 0.028369 -0.415709
v -1.311833 -0.724949 0.337186
v -1.313158 -0.716516 -0.419425
v -1.266985 -0.776437 -0.421753
v -1.265605 -0.784853 0.338009
v -1.309591 0.039968 -0.410977
v -1.261508 0.091022 0.347654
v -1.262976 0.099479 -0.411912
v 1.181840 -0.738680 0.392165
v -1.265175 -0.727416 0.396856
v -1.265605 -0.784853 0.338009
v 1.181611 -0.796059 0.333390
v 1.185625 0.079859 0.343232
v -1.261508 0.091022 0.347654
v -1.261603 0.032301 0.405327
v 1.185414 0.021038 0.400636
v -1.266777 -0.717617 -0.479159
v 1.180238 -0.728882 -0.483847
v 1.180143 -0.787601 -0.426177
v -1.266985 -0.776437 -0.421753
v -1.262976 0.099479 -0.411912
v 1.184239 0.088274 -0.416532
v 1.183810 0.030838 -0.475377
v -1.263208 0.042101 -0.470687
v 1.183810 0.030838 -0.475377
v -1.266777 -0.717617 -0.479159
v -1.263208 0.042101 -0.470687
v 1.180238 -0.728882 -0.483847
v -1.261508 0.091022 0.347654
v 1.185625 0.079859 0.343232
v 1.184239 0.088274 -0.416532
v -1.262976 0.099479 -0.411912
v 1.181840 -0.738680 0.392165
v 1.185414 0.021038 0.400636
v -1.265175 -0.727416 0.396856
v -1.266985 -0.776437 -0.421753
v 1.180143 -0.787601 -0.426177
v 1.181611 -0.796059 0.333390
v -1.265605 -0.784853 0.338009
vn -0.9236 0.2766 -0.2653
vn -0.9260 -0.2667 0.2673
vn -0.9228 0.2688 0.2760
vn -0.9265 -0.2599 -0.2722
vn 0.9264 0.2599 0.2724
vn 0.9228 -0.2688 -0.2760
vn 0.9259 0.2669 -0.2673
vn 0.9237 -0.2766 0.2652
vn 0.4326 -0.8371 -0.3348
vn 0.4298 -0.3191 -0.8446
vn 0.9225 -0.2689 -0.2768
vn 0.9257 0.2671 -0.2680
vn 0.4359 0.3332 -0.8360
vn 0.4423 0.8386 -0.3180
vn 0.4361 -0.8433 0.3142
vn 0.9233 -0.2769 0.2661
vn 0.4351 -0.3417 0.8330
vn 0.4409 0.3130 0.8412
vn 0.9262 0.2601 0.2730
vn 0.4431 0.8307 0.3369
vn -0.4432 -0.8307 -0.3370
vn -0.9262 -0.2600 -0.2731
vn -0.4409 -0.3129 -0.8412
vn -0.4352 0.3418 -0.8329
vn -0.9234 0.2769 -0.2659
vn -0.4360 0.8433 -0.3142
vn -0.4423 -0.8385 0.3181
vn -0.4359 -0.3334 0.8360
vn -0.9257 -0.2670 0.2681
vn -0.9225 0.2689 0.2769
vn -0.4297 0.3191 0.8447
vn -0.4326 0.8371 0.3347
vn 0.9226 -0.2691 -0.2763
vn 0.4360 -0.8433 0.3141
vn 0.4326 -0.8372 -0.3347
vn 0.9234 -0.2770 0.2655
vn 0.9263 0.2602 0.2726
vn 0.9258 0.2672 -0.2676
vn -0.9258 -0.2672 0.2674
vn -0.9263 -0.2603 -0.2726
vn -0.4431 -0.8308 -0.3369
vn -0.4424 -0.8386 0.3179
vn -0.4326 0.8372 0.3346
vn -0.4359 0.8434 -0.3142
vn -0.9235 0.2770 -0.2654
vn 0.4350 -0.3417 0.8331
vn -0.4359 -0.3333 0.8360
vn -0.4424 -0.8386 0.3180
vn 0.4361 -0.8433 0.3141
vn -0.4327 0.8371 0.3346
vn -0.4296 0.3190 0.8448
vn 0.4410 0.3129 0.8412
vn -0.4409 -0.3129 -0.8413
vn 0.4297 -0.3191 -0.8447
vn 0.4326 -0.8372 -0.3346
vn -0.4432 -0.8307 -0.3369
vn -0.4361 0.8434 -0.3140
vn 0.4424 0.8385 -0.3180
vn 0.4359 0.3331 -0.8361
vn -0.4352 0.3418 -0.8330
vn 0.4359 0.3333 -0.8360
vn -0.4410 -0.3129 -0.8412
vn -0.4350 0.3420 -0.8330
vn 0.4297 -0.3193 -0.8446
vn 0.4351 -0.3418 0.8330
vn -0.4431 -0.8307 -0.3371
vn 0.4360 -0.8433 0.3142
vn -0.4424 -0.8385 0.3180
vn -0.9237 0.2766 -0.2652
vn -0.9265 -0.2599 -0.2723
vn 0.9260 0.2668 -0.2673
vn 0.9237 -0.2766 0.2650
vn 0.4326 -0.8371 -0.3347
vn 0.9225 -0.2690 -0.2767
vn 0.9256 0.2671 -0.2681
vn 0.9234 -0.2768 0.2660
vn 0.4352 -0.3418 0.8330
vn 0.4409 0.3129 0.8412
vn 0.9262 0.2600 0.2731
vn 0.4432 0.8307 0.3370
vn -0.9262 -0.2601 -0.2731
vn -0.4361 0.8433 -0.3142
vn -0.9257 -0.2669 0.2681
vn -0.9225 0.2690 0.2767
vn -0.4326 0.8371 0.3348
vn 0.4360 -0.8434 0.3141
vn 0.9235 -0.2769 0.2656
vn 0.9263 0.2603 0.2726
vn 0.4431 0.8307 0.3370
vn 0.9258 0.2672 -0.2675
vn -0.9258 -0.2671 0.2675
vn -0.9262 -0.2603 -0.2726
vn -0.4425 -0.8385 0.3180
vn -0.4326 0.8372 0.3345
vn -0.9235 0.2770 -0.2653
vn -0.4360 -0.3331 0.8360
vn 0.4432 0.8307 0.3369
vn -0.4409 -0.3127 -0.8413
vn 0.4297 -0.3192 -0.8447
vn 0.4326 -0.8372 -0.3345
vn -0.4360 0.8434 -0.3141
vn 0.4424 0.8386 -0.3180
vn -0.4350 0.3418 -0.8330
vn 0.4424 0.8385 -0.3181
vn -0.4361 0.8433 -0.3141
vt 0.372650 0.019678
vt 0.478632 0.130590
vt 0.372650 0.130590
vt 0.478632 0.019678
vt 0.478632 0.481216
vt 0.372650 0.370304
vt 0.478632 0.370304
vt 0.372650 0.481216
vt 0.478632 0.363148
vt 0.478632 0.137746
vt 0.365812 0.363148
vt 0.365812 0.137746
vt 0.140171 0.137746
vt 0.140171 0.363148
vt 0.252991 0.137746
vt 0.252991 0.363148
vt 0.147009 0.137746
vt 0.147009 0.363148
vt 0.372650 0.137746
vt 0.372650 0.363148
vt 0.034188 0.363148
vt 0.034188 0.137746
vt 0.259829 0.363148
vt 0.259829 0.137746
s 1
usemtl Leftarm1Mtl
f 1/1/1 2/2/2 3/3/3
f 2/2/2 1/1/1 4/4/4
f 5/5/5 6/6/6 7/7/7
f 6/6/6 5/5/5 8/8/8
f 9/6/9 10/6/10 11/6/11
f 10/6/10 12/7/12 11/6/11
f 12/7/12 10/6/10 13/7/13
f 13/7/13 14/7/14 12/7/12
f 15/8/15 16/8/16 17/8/17
f 18/5/18 17/8/17 16/8/16
f 16/8/16 19/5/19 18/5/18
f 20/5/20 18/5/18 19/5/19
f 21/4/21 22/4/22 23/4/23
f 24/1/24 23/4/23 22/4/22
f 22/4/22 25/1/25 24/1/24
f 26/1/26 24/1/24 25/1/25
f 27/2/27 28/2/28 29/2/29
f 30/3/30 29/2/29 28/2/28
f 28/2/28 31/3/31 30/3/30
f 32/3/32 30/3/30 31/3/31
f 33/6/33 34/8/34 35/6/35
f 34/8/34 33/6/33 36/8/36
f 37/5/37 38/7/14 39/5/20
f 38/7/14 37/5/37 40/7/38
f 41/2/39 42/4/40 43/4/41
f 43/4/41 44/2/42 41/2/39
f 46/3/43 47/1/44 45/1/45
f 48/9/46 49/10/47 50/10/48
f 48/9/46 50/10/48 51/9/49
f 52/11/20 53/12/50 54/12/51
f 52/11/20 54/12/51 55/11/52
f 56/13/53 57/14/54 58/14/55
f 56/13/53 58/14/55 59/13/56
f 60/15/57 61/16/58 62/16/59
f 60/15/57 62/16/59 63/15/60
f 64/16/61 65/17/62 66/15/63
f 65/17/62 64/16/61 67/18/64
f 71/19/31 72/9/65 73/20/18
f 72/9/65 71/19/31 74/10/47
f 75/13/66 76/14/35 77/21/67
f 75/13/66 77/21/67 78/22/68
usemtl Leftarm2Mtl
f 79/1/69 80/2/2 81/3/3
f 80/2/2 79/1/69 82/4/70
f 83/5/5 84/6/6 85/7/71
f 84/6/6 83/5/5 86/8/72
f 87/6/73 88/6/54 89/6/74
f 88/6/54 90/7/75 89/6/74
f 90/7/75 88/6/54 91/7/13
f 91/7/13 92/7/58 90/7/75
f 93/8/67 94/8/76 95/8/77
f 96/5/78 95/8/77 94/8/76
f 94/8/76 97/5/79 96/5/78
f 98/5/80 96/5/78 97/5/79
f 99/4/56 100/4/81 101/4/62
f 102/1/24 101/4/62 100/4/81
f 100/4/81 103/1/25 102/1/24
f 104/1/82 102/1/24 103/1/25
f 105/2/68 106/2/28 107/2/83
f 108/3/84 107/2/83 106/2/28
f 106/2/28 109/3/31 108/3/84
f 110/3/85 108/3/84 109/3/31
f 111/6/33 112/8/86 113/6/9
f 112/8/86 111/6/33 114/8/87
f 115/5/88 116/7/14 117/5/89
f 116/7/14 115/5/88 118/7/90
f 119/2/91 120/4/92 121/4/41
f 121/4/41 122/2/93 119/2/91
f 124/3/94 125/1/26 123/1/95
f 126/9/46 127/10/96 128/10/42
f 126/9/46 128/10/42 129/9/49
f 130/11/97 131/12/43 132/12/51
f 130/11/97 132/12/51 133/11/78
f 134/13/98 135/14/99 136/14/100
f 134/13/98 136/14/100 137/13/56
f 138/15/101 139/16/102 140/16/59
f 138/15/101 140/16/59 141/15/24
f 142/16/13 143/17/23 144/15/103
f 143/17/23 142/16/13 145/18/54
f 146/12/32 147/11/89 148/23/104
f 146/12/32 148/23/104 149/24/105
f 153/13/66 154/14/73 155/21/67
f 153/13/66 155/21/67 156/22/42
l 68 69
l 69 70
l 150 151
l 150 152
o Pirate_Hook.001
v -2.198045 -0.803383 0.601912
v -1.679268 -0.824541 0.622134
v -1.681896 -1.000299 0.441547
v -2.200564 -0.971964 0.428701
v -1.693944 -0.987631 -0.490386
v -2.212096 -0.959837 -0.463372
v -2.213994 -0.786607 -0.631944
v -1.695922 -0.807024 -0.666134
v -1.419880 -0.835117 0.632245
v -1.163230 -1.028639 0.454392
v -1.160491 -0.845694 0.642358
v -1.422563 -1.014469 0.447971
v -1.175790 -1.015425 -0.517394
v -1.434866 -1.001529 -0.503890
v -1.436884 -0.817233 -0.683229
v -1.177846 -0.827438 -0.700327
v -2.213994 -0.786607 -0.631944
v -1.695922 -0.807024 -0.666134
v -2.212361 0.105540 -0.619837
v -1.694217 0.124985 -0.653483
v -1.436884 -0.817233 -0.683229
v -1.177846 -0.827438 -0.700327
v -1.176071 0.144426 -0.687137
v -1.435142 0.134707 -0.670310
v -1.097190 -0.770961 0.541033
v -1.163230 -1.028639 0.454392
v -1.099511 -0.926247 0.381481
v -1.110173 -0.915032 -0.443397
v -1.160491 -0.845694 0.642358
v -1.175790 -1.015425 -0.517394
v -1.158716 0.126172 0.655549
v -1.177846 -0.827438 -0.700327
v -1.095681 0.053985 0.552229
v -1.111923 -0.755465 -0.598675
v -1.097429 0.213550 0.396950
v -1.110411 0.069481 -0.587477
v -1.160774 0.314159 0.472619
v -1.176071 0.144426 -0.687137
v -1.173333 0.327371 -0.499168
v -1.108090 0.224767 -0.427927
v -1.095681 0.053985 0.552229
v -1.097190 -0.770961 0.541033
v -1.526741 -0.350041 -0.017746
v -1.099511 -0.926247 0.381481
v -1.097429 0.213550 0.396950
v -1.110173 -0.915032 -0.443397
v -1.108090 0.224767 -0.427927
v -1.111923 -0.755465 -0.598675
v -1.110411 0.069481 -0.587477
v -2.196414 0.088765 0.614019
v -1.677565 0.107470 0.634784
v -1.679544 0.288074 0.459034
v -2.198308 0.261994 0.445450
v -2.209840 0.274123 -0.446625
v -1.691589 0.300745 -0.472898
v -2.212361 0.105540 -0.619837
v -1.694217 0.124985 -0.653483
v -1.418140 0.116821 0.645167
v -1.158716 0.126172 0.655549
v -1.160774 0.314159 0.472619
v -1.420157 0.301116 0.465826
v -1.432461 0.314059 -0.486033
v -1.176071 0.144426 -0.687137
v -1.173333 0.327371 -0.499168
v -1.435142 0.134707 -0.670310
v -2.196414 0.088765 0.614019
v -2.198045 -0.803383 0.601912
v -1.679268 -0.824541 0.622134
v -1.677565 0.107470 0.634784
v -1.419880 -0.835117 0.632245
v -1.160491 -0.845694 0.642358
v -1.418140 0.116821 0.645167
v -1.158716 0.126172 0.655549
v -2.284178 0.074527 -0.546611
v -2.285700 -0.757328 -0.557902
v -2.273523 -0.898738 0.400484
v -2.284273 -0.887428 -0.431301
v -2.271627 -0.772130 0.530569
v -2.270108 0.059726 0.541859
v -2.271533 0.189824 0.415261
v -2.282284 0.201134 -0.416526
v -2.198045 -0.803383 0.601912
v -2.273523 -0.898738 0.400484
v -2.200564 -0.971964 0.428701
v -2.284273 -0.887428 -0.431301
v -2.271627 -0.772130 0.530569
v -2.212096 -0.959837 -0.463372
v -2.196414 0.088765 0.614019
v -2.285700 -0.757328 -0.557902
v -2.270108 0.059726 0.541859
v -2.213994 -0.786607 -0.631944
v -2.198308 0.261994 0.445450
v -2.284178 0.074527 -0.546611
v -2.271533 0.189824 0.415261
v -2.212361 0.105540 -0.619837
v -2.209840 0.274123 -0.446625
v -2.282284 0.201134 -0.416526
v -1.419679 -0.835177 0.632217
v -1.679069 -0.824600 0.622103
v -1.695720 -0.807082 -0.666166
v -1.681697 -1.000360 0.441519
v -1.436680 -0.817291 -0.683260
v -1.422359 -1.014527 0.447939
v -1.693742 -0.987689 -0.490418
v -1.434665 -1.001587 -0.503921
v -1.434942 0.134646 -0.670339
v -1.694016 0.124927 -0.653517
v -1.695720 -0.807082 -0.666166
v -1.436680 -0.817291 -0.683260
v -1.691388 0.300687 -0.472927
v -1.679341 0.288016 0.459004
v -1.419955 0.301058 0.465796
v -1.417939 0.116763 0.645137
v -1.432260 0.313999 -0.486063
v -1.677365 0.107409 0.634752
v -1.434942 0.134646 -0.670339
v -1.694016 0.124927 -0.653517
v -1.417939 0.116763 0.645137
v -1.677365 0.107409 0.634752
v -1.419679 -0.835177 0.632217
v -1.679069 -0.824600 0.622103
v -2.442000 -0.347008 -0.184742
v -2.255372 -0.347604 -0.166124
v -2.440003 -0.528605 -0.008046
v -2.634511 -0.528345 -0.052573
v -2.553797 -0.346444 -0.211026
v -2.721323 -0.345004 -0.294090
v -2.817711 -0.512079 -0.161682
v -2.889666 -0.343357 -0.392296
v -2.980730 -0.497010 -0.272255
v -3.102856 -0.341585 -0.493598
v -3.174386 -0.495439 -0.361221
v -3.361668 -0.340159 -0.563278
v -3.368755 -0.494373 -0.413347
v -3.581091 -0.494358 -0.385633
v -3.645013 -0.340203 -0.521508
v -3.781600 -0.479702 -0.272304
v -3.867141 -0.341770 -0.376404
v -4.034613 -0.344351 -0.164522
v -3.927946 -0.468515 -0.105064
v -4.120012 -0.347502 0.078495
v -4.006476 -0.465430 0.105632
v -3.981464 -0.451136 0.338523
v -4.071481 -0.351735 0.382617
v -3.836148 -0.435359 0.537338
v -3.878897 -0.355151 0.607233
v -3.702043 -0.356519 0.683728
v -3.674408 -0.408368 0.638550
v -2.440003 -0.528605 -0.008046
v -2.251264 -0.351919 0.150058
v -2.437347 -0.351896 0.173529
v -2.253610 -0.507864 -0.010187
v -2.634511 -0.528345 -0.052573
v -2.714559 -0.350531 0.110775
v -2.913487 -0.348318 -0.024766
v -2.817711 -0.512079 -0.161682
v -3.071236 -0.346348 -0.148068
v -2.980730 -0.497010 -0.272255
v -3.174386 -0.495439 -0.361221
v -3.245359 -0.344983 -0.224701
v -3.368755 -0.494373 -0.413347
v -3.375279 -0.344276 -0.259266
v -3.516603 -0.344195 -0.245613
v -3.581091 -0.494358 -0.385633
v -3.695565 -0.344976 -0.164493
v -3.781600 -0.479702 -0.272304
v -3.820819 -0.346407 -0.042252
v -3.927946 -0.468515 -0.105064
v -4.006476 -0.465430 0.105632
v -3.892500 -0.348708 0.135961
v -3.891056 -0.350902 0.297138
v -3.981464 -0.451136 0.338523
v -3.793102 -0.353435 0.469654
v -3.836148 -0.435359 0.537338
v -3.646574 -0.355408 0.594794
v -3.674408 -0.408368 0.638550
v -3.558511 -0.356788 0.684154
v -2.255372 -0.347604 -0.166124
v -2.440003 -0.528605 -0.008046
v -2.253610 -0.507864 -0.010187
v -3.361668 -0.340159 -0.563278
v -3.368755 -0.494373 -0.413347
v -3.581091 -0.494358 -0.385633
v -3.645013 -0.340203 -0.521508
v -3.361668 -0.340159 -0.563278
v -3.368193 -0.190061 -0.409202
v -3.580526 -0.190045 -0.381489
v -3.645013 -0.340203 -0.521508
v -4.006038 -0.230777 0.108824
v -3.892500 -0.348708 0.135961
v -3.891056 -0.350902 0.297138
v -3.981093 -0.251505 0.341239
v -4.006476 -0.465430 0.105632
v -3.892500 -0.348708 0.135961
v -3.891056 -0.350902 0.297138
v -3.981464 -0.451136 0.338523
v -2.633848 -0.168630 -0.047677
v -2.442000 -0.347008 -0.184742
v -2.553797 -0.346444 -0.211026
v -2.721323 -0.345004 -0.294090
v -2.439344 -0.170301 -0.003164
v -2.255372 -0.347604 -0.166124
v -2.253026 -0.191660 -0.005879
v -2.817100 -0.181245 -0.157176
v -2.889666 -0.343357 -0.392296
v -2.980169 -0.192696 -0.268111
v -3.102856 -0.341585 -0.493598
v -3.173827 -0.191129 -0.357076
v -3.361668 -0.340159 -0.563278
v -3.368193 -0.190061 -0.409202
v -3.580526 -0.190045 -0.381489
v -3.645013 -0.340203 -0.521508
v -3.781103 -0.207047 -0.268588
v -3.867141 -0.341770 -0.376404
v -4.034613 -0.344351 -0.164522
v -3.927488 -0.222246 -0.101710
v -4.120012 -0.347502 0.078495
v -4.006038 -0.230777 0.108824
v -3.981093 -0.251505 0.341239
v -4.071481 -0.351735 0.382617
v -3.835854 -0.273228 0.539551
v -3.878897 -0.355151 0.607233
v -3.702043 -0.356519 0.683728
v -3.674209 -0.303560 0.639974
v -2.439344 -0.170301 -0.003164
v -2.437347 -0.351896 0.173529
v -2.251264 -0.351919 0.150058
v -2.633848 -0.168630 -0.047677
v -2.714559 -0.350531 0.110775
v -2.913487 -0.348318 -0.024766
v -2.817100 -0.181245 -0.157176
v -3.071236 -0.346348 -0.148068
v -2.980169 -0.192696 -0.268111
v -3.173827 -0.191129 -0.357076
v -3.245359 -0.344983 -0.224701
v -3.368193 -0.190061 -0.409202
v -3.375279 -0.344276 -0.259266
v -3.516603 -0.344195 -0.245613
v -3.580526 -0.190045 -0.381489
v -3.695565 -0.344976 -0.164493
v -3.781103 -0.207047 -0.268588
v -3.820819 -0.346407 -0.042252
v -3.927488 -0.222246 -0.101710
v -4.006038 -0.230777 0.108824
v -3.892500 -0.348708 0.135961
v -3.891056 -0.350902 0.297138
v -3.981093 -0.251505 0.341239
v -3.793102 -0.353435 0.469654
v -3.835854 -0.273228 0.539551
v -3.646574 -0.355408 0.594794
v -3.674209 -0.303560 0.639974
v -3.558511 -0.356788 0.684154
v -3.702043 -0.356519 0.683728
v -3.674408 -0.408368 0.638550
v -3.558511 -0.356788 0.684154
v -3.702043 -0.356519 0.683728
v -3.674209 -0.303560 0.639974
v -3.558511 -0.356788 0.684154
v -2.439344 -0.170301 -0.003164
v -2.437347 -0.351896 0.173529
v -2.251264 -0.351919 0.150058
v -2.253026 -0.191660 -0.005879
v -2.633848 -0.168630 -0.047677
v -2.714559 -0.350531 0.110775
v -3.368193 -0.190061 -0.409202
v -3.375279 -0.344276 -0.259266
v -3.516603 -0.344195 -0.245613
v -3.580526 -0.190045 -0.381489
v -2.437347 -0.351896 0.173529
v -2.634511 -0.528345 -0.052573
v -2.714559 -0.350531 0.110775
v -3.368755 -0.494373 -0.413347
v -3.375279 -0.344276 -0.259266
v -3.516603 -0.344195 -0.245613
v -3.581091 -0.494358 -0.385633
v -4.120012 -0.347502 0.078495
v -4.006476 -0.465430 0.105632
v -3.981464 -0.451136 0.338523
v -4.071481 -0.351735 0.382617
v -4.120012 -0.347502 0.078495
v -4.006038 -0.230777 0.108824
v -3.981093 -0.251505 0.341239
v -4.071481 -0.351735 0.382617
v -1.214562 -0.722017 -0.871488
v -1.878191 -0.144231 -0.683442
v -1.691551 0.046503 0.367468
v -1.684641 -0.848537 0.326009
v -1.691551 0.046503 0.367468
v -1.684641 -0.848537 0.326009
vn -0.0479 -0.3913 0.9190
vn -0.0623 -0.9254 0.3738
vn -0.0566 -0.3968 0.9161
vn -0.0641 -0.9282 0.3666
vn -0.0679 -0.9148 -0.3981
vn -0.0705 -0.9197 -0.3861
vn -0.0739 -0.3690 -0.9265
vn -0.0737 -0.3690 -0.9265
vn -0.0624 -0.9254 0.3738
vn -0.0566 -0.3968 0.9162
vn -0.0641 -0.9281 0.3667
vn -0.0677 -0.9148 -0.3981
vn -0.0737 -0.3691 -0.9265
vn -0.0737 -0.3687 -0.9266
vn -0.0727 0.3968 -0.9150
vn -0.0739 -0.3687 -0.9266
vn -0.0713 0.3869 -0.9194
vn -0.0729 0.3968 -0.9150
vn -0.0738 -0.3687 -0.9266
vn 0.8833 -0.1581 0.4413
vn 0.8882 -0.4241 0.1768
vn 0.8803 -0.4562 0.1298
vn 0.8774 -0.4489 -0.1692
vn 0.8891 -0.2036 0.4099
vn 0.8824 -0.4207 -0.2107
vn 0.8914 0.1849 0.4139
vn 0.8802 -0.1895 -0.4352
vn 0.8866 0.1423 0.4401
vn 0.8748 -0.1451 -0.4623
vn 0.8826 0.4477 0.1436
vn 0.8726 0.1543 -0.4634
vn 0.8889 0.4162 0.1911
vn 0.8818 0.1980 -0.4280
vn 0.8852 0.4217 -0.1963
vn 0.8785 0.4524 -0.1533
vn 0.8464 -0.2119 -0.4886
vn 0.8451 0.2250 -0.4850
vn 0.9999 0.0035 -0.0121
vn 0.8490 0.4799 -0.2209
vn 0.8507 -0.4714 -0.2327
vn 0.8577 0.4683 0.2120
vn 0.8551 -0.4790 0.1982
vn 0.8598 0.2067 0.4669
vn 0.8584 -0.2233 0.4619
vn -0.0545 0.9169 0.3954
vn -0.0512 0.3627 0.9305
vn -0.0487 0.3732 0.9265
vn -0.0654 0.9282 -0.3664
vn -0.0667 0.9253 -0.3734
vn -0.0713 0.3871 -0.9193
vn -0.0727 0.3971 -0.9149
vn -0.0653 0.9282 -0.3664
vn -0.0667 0.9252 -0.3735
vn -0.0729 0.3971 -0.9149
vn -0.0512 0.3624 0.9306
vn -0.0479 -0.3910 0.9192
vn -0.0566 -0.3966 0.9163
vn -0.0487 0.3729 0.9266
vn -0.9999 0.0037 0.0109
vn -0.9999 0.0036 0.0108
vn -0.9999 0.0037 0.0108
vn -0.9999 0.0037 0.0106
vn -0.9999 0.0037 0.0107
vn -0.7300 -0.2650 0.6300
vn -0.7291 -0.6325 0.2615
vn -0.7292 -0.6324 0.2615
vn -0.7402 -0.6198 -0.2606
vn -0.7404 -0.6195 -0.2607
vn -0.7264 0.2531 0.6389
vn -0.7434 -0.2493 -0.6207
vn -0.7435 -0.2490 -0.6206
vn -0.7300 0.6245 0.2777
vn -0.7442 0.2673 -0.6121
vn -0.7297 0.6247 0.2780
vn -0.7384 0.6291 -0.2429
vn -0.0479 -0.3914 0.9190
vn -0.0642 -0.9281 0.3667
vn -0.0626 -0.9254 0.3739
vn -0.0705 -0.9197 -0.3862
vn -0.0679 -0.9149 -0.3980
vn -0.0654 0.9282 -0.3663
vn -0.0545 0.9168 0.3957
vn -0.0486 0.3732 0.9265
vn -0.0513 0.3627 0.9305
vn -0.0713 0.3872 -0.9192
vn -0.0514 0.3624 0.9306
vn -0.0486 0.3729 0.9266
vn 0.1208 -0.6905 -0.7132
vn 0.0707 -0.6958 -0.7148
vn 0.1137 -0.6932 -0.7117
vn 0.2439 -0.6946 -0.6768
vn 0.2352 -0.6942 -0.6802
vn 0.3361 -0.6977 -0.6326
vn 0.3364 -0.6976 -0.6326
vn 0.3329 -0.6956 -0.6367
vn 0.3265 -0.6994 -0.6358
vn 0.2440 -0.6945 -0.6769
vn 0.2422 -0.6907 -0.6814
vn 0.0450 -0.6966 -0.7160
vn 0.0449 -0.6966 -0.7160
vn -0.4768 -0.7020 -0.5290
vn -0.2510 -0.7010 -0.6675
vn -0.2441 -0.6972 -0.6741
vn -0.6224 -0.6998 -0.3506
vn -0.6189 -0.7009 -0.3545
vn -0.7064 -0.7031 -0.0812
vn -0.7101 -0.7012 -0.0642
vn -0.4374 -0.7130 0.5481
vn -0.6479 -0.7046 0.2895
vn -0.6544 -0.7017 0.2818
vn -0.4182 -0.7137 0.5619
vn -0.1708 -0.6943 0.6991
vn -0.1584 -0.6938 0.7025
vn -0.0445 -0.7152 0.6975
vn 0.0850 -0.7136 0.6954
vn -0.0340 -0.7181 0.6952
vn 0.0851 -0.7136 0.6953
vn -0.2764 -0.7139 0.6434
vn -0.2767 -0.7139 0.6432
vn -0.2848 -0.7168 0.6364
vn -0.4184 -0.7136 0.5619
vn -0.4183 -0.7137 0.5618
vn -0.3649 -0.7113 0.6007
vn -0.3725 -0.7135 0.5934
vn -0.2436 -0.7116 0.6590
vn -0.2353 -0.7083 0.6656
vn -0.0516 -0.7151 0.6971
vn -0.0515 -0.7151 0.6971
vn 0.4030 -0.7164 0.5695
vn 0.1980 -0.7109 0.6749
vn 0.1829 -0.7134 0.6765
vn 0.5835 -0.7147 0.3857
vn 0.5834 -0.7183 0.3791
vn 0.6979 -0.7042 0.1301
vn 0.7019 -0.7034 0.1119
vn 0.5549 -0.6956 -0.4562
vn 0.6860 -0.6967 -0.2099
vn 0.6896 -0.6980 -0.1931
vn 0.5427 -0.6954 -0.4710
vn 0.4820 -0.6953 -0.5331
vn 0.4819 -0.6955 -0.5330
vn 0.5102 -0.6889 -0.5148
vn 0.1137 -0.6933 -0.7116
vn 0.0708 -0.6958 -0.7148
vn -0.2437 -0.6973 -0.6741
vn 0.0446 -0.6965 -0.7162
vn 0.0447 -0.6965 -0.7162
vn -0.2507 -0.7009 -0.6678
vn 0.0441 0.7151 -0.6977
vn -0.2370 0.7185 -0.6539
vn 0.0441 0.7151 -0.6976
vn -0.2533 0.7178 -0.6485
vn 0.6970 0.7017 0.1478
vn 0.6913 0.6996 -0.1807
vn 0.7014 0.7006 0.1310
vn 0.6905 0.6985 -0.1883
vn 0.6897 -0.6979 -0.1927
vn 0.6968 -0.7055 0.1293
vn 0.7020 -0.7034 0.1116
vn 0.6861 -0.6967 -0.2095
vn 0.2436 0.7116 -0.6590
vn 0.1229 0.7102 -0.6932
vn 0.2374 0.7126 -0.6601
vn 0.3352 0.7155 -0.6129
vn 0.1165 0.7109 -0.6936
vn 0.0701 0.7165 -0.6941
vn 0.0701 0.7164 -0.6942
vn 0.3407 0.7138 -0.6120
vn 0.3330 0.7115 -0.6188
vn 0.3327 0.7117 -0.6188
vn 0.2477 0.7082 -0.6611
vn 0.2434 0.7116 -0.6591
vn 0.0445 0.7152 -0.6975
vn 0.0445 0.7151 -0.6976
vn -0.2536 0.7178 -0.6484
vn -0.4731 0.7155 -0.5141
vn -0.2373 0.7185 -0.6538
vn -0.4731 0.7154 -0.5142
vn -0.6192 0.7128 -0.3294
vn -0.6191 0.7129 -0.3292
vn -0.7046 0.7069 -0.0626
vn -0.7067 0.7061 -0.0454
vn -0.6435 0.7000 0.3098
vn -0.4391 0.6957 0.5684
vn -0.6501 0.6978 0.3007
vn -0.4130 0.7018 0.5804
vn -0.1680 0.6792 0.7145
vn -0.1564 0.6755 0.7205
vn -0.0448 0.6966 0.7161
vn -0.0260 0.6945 0.7190
vn 0.0917 0.6961 0.7121
vn -0.2762 0.6983 0.6603
vn -0.2766 0.6984 0.6601
vn -0.4190 0.6977 0.5810
vn -0.2879 0.7007 0.6528
vn -0.4191 0.6977 0.5810
vn -0.3582 0.7009 0.6168
vn -0.3689 0.7024 0.6088
vn -0.2422 0.6907 0.6814
vn -0.2323 0.6918 0.6837
vn -0.0522 0.6941 0.7180
vn -0.0522 0.6940 0.7181
vn 0.1999 0.6926 0.6931
vn 0.4038 0.6945 0.5954
vn 0.1895 0.6960 0.6926
vn 0.4039 0.6945 0.5954
vn 0.5863 0.7043 0.4002
vn 0.5862 0.7044 0.4002
vn 0.6968 0.7018 0.1483
vn 0.7014 0.7006 0.1314
vn 0.6904 0.6984 -0.1886
vn 0.5586 0.7047 -0.4375
vn 0.6911 0.6997 -0.1810
vn 0.5457 0.7056 -0.4520
vn 0.4860 0.7060 -0.5151
vn 0.4859 0.7060 -0.5152
vn 0.5110 0.7029 -0.4947
vn -0.1703 -0.6942 0.6993
vn -0.1581 -0.6937 0.7027
vn -0.0022 -0.6574 0.7536
vn -0.1561 0.6755 0.7207
vn -0.1676 0.6791 0.7147
vn -0.0005 0.6370 0.7709
vn -0.0446 0.6965 0.7162
vn 0.0917 0.6960 0.7121
vn -0.2761 0.6984 0.6603
vn -0.2875 0.7007 0.6529
vn -0.0261 0.6945 0.7190
vn -0.0518 0.6940 0.7181
vn 0.1890 0.6960 0.6927
vn -0.0518 0.6941 0.7180
vn 0.1994 0.6925 0.6933
vn -0.0344 -0.7180 0.6951
vn -0.2845 -0.7168 0.6366
vn 0.1826 -0.7134 0.6766
vn -0.0511 -0.7150 0.6973
vn -0.0511 -0.7151 0.6972
vn 0.1978 -0.7108 0.6750
vn -0.6545 -0.7017 0.2815
vn -0.7064 -0.7032 -0.0808
vn -0.7102 -0.7011 -0.0637
vn -0.6481 -0.7045 0.2892
vn -0.7046 0.7069 -0.0622
vn -0.6504 0.6977 0.3003
vn -0.7067 0.7061 -0.0450
vn -0.6437 0.7000 0.3093
vt 22.239300 -11.287100
vt 21.998100 -11.216800
vt 21.998100 -11.299700
vt 22.239300 -11.207500
vt 21.998100 -10.783200
vt 22.239300 -10.792500
vt 22.239300 -10.712900
vt 21.998100 -10.700300
vt 21.877501 -11.306000
vt 21.756901 -11.226100
vt 21.756901 -11.312400
vt 21.877501 -11.221400
vt 21.756901 -10.773900
vt 21.877501 -10.778600
vt 21.877501 -10.694000
vt 21.756901 -10.687600
vt 21.792500 -11.239300
vt 22.216801 -10.998100
vt 21.783199 -10.998100
vt 22.207500 -11.239300
vt 21.778601 -10.877500
vt 22.226101 -10.756900
vt 21.773899 -10.756900
vt 22.221399 -10.877500
vt 22.191900 -11.265200
vt 22.312401 -11.226100
vt 22.265200 -11.191900
vt 22.265200 -10.808100
vt 22.226101 -11.312400
vt 22.312401 -10.773900
vt 21.773899 -11.312400
vt 22.226101 -10.687600
vt 21.808100 -11.265200
vt 22.191900 -10.734800
vt 21.734800 -11.191900
vt 21.808100 -10.734800
vt 21.687599 -11.226100
vt 21.773899 -10.687600
vt 21.687599 -10.773900
vt 21.734800 -10.808100
vt 22.000000 -11.000000
vt 22.001900 -11.216800
vt 21.760700 -11.287100
vt 22.001900 -11.299700
vt 21.760700 -11.207500
vt 21.760700 -10.792500
vt 22.001900 -10.783200
vt 21.760700 -10.712900
vt 22.001900 -10.700300
vt 22.243099 -11.226100
vt 22.122499 -11.306000
vt 22.243099 -11.312400
vt 22.122499 -11.221400
vt 22.122499 -10.778600
vt 22.243099 -10.773900
vt 22.122499 -10.694000
vt 22.243099 -10.687600
vt 22.193501 -10.746800
vt 21.806499 -10.746800
vt 21.746799 -11.193500
vt 21.746799 -10.806500
vt 21.806499 -11.253200
vt 22.193501 -11.253200
vt 22.253201 -11.193500
vt 22.253201 -10.806500
vt 21.792500 -11.287100
vt 21.712900 -11.207500
vt 21.712900 -10.792500
vt 22.207500 -11.287100
vt 21.792500 -10.712900
vt 22.287100 -11.207500
vt 22.207500 -10.712900
vt 22.287100 -10.792500
vt 34.060299 -27.299700
vt 34.060299 -27.216801
vt 33.939701 -27.306000
vt 33.939701 -27.221399
vt 33.939701 -26.694000
vt 34.060299 -26.783199
vt 34.060299 -26.700300
vt 33.939701 -26.778601
vt 33.783199 -27.060301
vt 34.216801 -27.060301
vt 34.221500 -26.939699
vt 33.778500 -26.939699
vt 33.939701 -26.783199
vt 33.939701 -27.216801
vt 34.060299 -27.221399
vt 34.060299 -27.306000
vt 34.060299 -26.778601
vt 33.939701 -27.299700
vt 34.060299 -26.694000
vt 33.939701 -26.700300
vt -0.463643 1.143860
vt -0.579247 1.130800
vt -0.463643 1.032730
vt -0.343363 1.061910
vt -0.394515 1.161070
vt -0.291279 1.213940
vt -0.230600 1.131190
vt -0.187659 1.276220
vt -0.130367 1.201210
vt -0.056245 1.340780
vt -0.010971 1.257960
vt 0.103716 1.386090
vt 0.109163 1.291860
vt 0.366379 1.207840
vt 0.279797 1.362470
vt 0.241087 1.276380
vt 0.418736 1.274260
vt 0.524312 1.144180
vt 0.458505 1.105400
vt 0.579247 0.994126
vt 0.508917 0.975386
vt 0.406791 0.706531
vt 0.551593 0.805091
vt 0.495297 0.830873
vt 0.433953 0.664209
vt 0.324876 0.615331
vt 0.307317 0.642690
vt -0.579247 0.934647
vt -0.463643 0.921590
vt -0.579247 1.032730
vt -0.292211 0.962755
vt -0.169921 1.048440
vt -0.073073 1.126190
vt 0.034304 1.175130
vt 0.114609 1.197630
vt 0.314023 1.141420
vt 0.202377 1.190300
vt 0.392700 1.066610
vt 0.438588 0.956646
vt 0.379628 0.748855
vt 0.439001 0.856655
vt 0.289759 0.670049
vt 0.235857 0.613909
vt -0.111136 1.463640
vt -0.000000 1.579250
vt -0.098079 1.579250
vt -0.094389 0.758913
vt -0.000000 0.896284
vt -0.094389 0.890837
vt -0.000000 0.720203
vt 0.094389 0.758913
vt 0.094389 0.890837
vt -0.072783 0.975386
vt -0.000000 0.856655
vt -0.000000 0.956646
vt -0.061919 0.830873
vt 0.072783 0.975386
vt 0.061919 0.830873
vt 0.343363 1.061910
vt 0.463643 1.143860
vt 0.394515 1.161070
vt 0.291279 1.213940
vt 0.463643 1.032730
vt 0.579247 1.130800
vt 0.579247 1.032730
vt 0.230600 1.131190
vt 0.187659 1.276220
vt 0.130367 1.201210
vt 0.056245 1.340780
vt 0.010971 1.257960
vt -0.103716 1.386090
vt -0.109163 1.291860
vt -0.279797 1.362470
vt -0.366379 1.207840
vt -0.241087 1.276380
vt -0.418736 1.274260
vt -0.524312 1.144180
vt -0.458505 1.105400
vt -0.579247 0.994126
vt -0.508917 0.975386
vt -0.551593 0.805091
vt -0.406791 0.706531
vt -0.495297 0.830873
vt -0.433953 0.664209
vt -0.324876 0.615331
vt -0.307317 0.642690
vt 0.463643 0.921590
vt 0.579247 0.934647
vt 0.169921 1.048440
vt 0.292211 0.962755
vt 0.073073 1.126190
vt -0.034304 1.175130
vt -0.114609 1.197630
vt -0.314023 1.141420
vt -0.202377 1.190300
vt -0.392700 1.066610
vt -0.438588 0.956646
vt -0.379628 0.748855
vt -0.439001 0.856655
vt -0.289759 0.670049
vt -0.235857 0.613909
vt -0.000000 0.675124
vt 0.032508 0.692683
vt -0.000000 0.764143
vt -0.032508 0.692683
vt -0.111573 1.343360
vt -0.000000 1.292210
vt -0.000000 1.463640
vt 0.000000 0.797623
vt 0.000000 0.885391
vt 0.111573 1.343360
vt 0.000000 0.994126
vt 0.000000 0.805091
s 1
usemtl Meshpart1Mtl.002
f 157/25/106 159/26/107 158/27/108
f 159/26/107 157/25/106 160/28/109
f 160/28/109 161/29/110 159/26/107
f 161/29/110 160/28/109 162/30/111
f 161/29/110 162/30/111 163/31/112
f 163/31/112 164/32/113 161/29/110
f 165/33/106 166/34/114 167/35/115
f 166/34/114 165/33/106 168/36/116
f 168/36/116 169/37/117 166/34/114
f 168/36/116 170/38/111 169/37/117
f 170/38/111 171/39/112 169/37/117
f 171/39/112 172/40/118 169/37/117
f 173/41/119 176/42/120 174/43/121
f 173/41/119 175/44/122 176/42/120
f 177/45/119 179/46/123 178/47/124
f 177/45/119 180/48/122 179/46/123
f 181/49/125 182/50/126 183/51/127
f 184/52/128 183/51/127 182/50/126
f 182/50/126 181/49/125 185/53/129
f 182/50/126 186/54/130 184/52/128
f 187/55/131 185/53/129 181/49/125
f 188/56/132 184/52/128 186/54/130
f 187/55/131 181/49/125 189/57/133
f 184/52/128 188/56/132 190/58/134
f 191/59/135 187/55/131 189/57/133
f 188/56/132 192/60/136 190/58/134
f 187/55/131 191/59/135 193/61/137
f 188/56/132 194/62/138 192/60/136
f 191/59/135 195/63/139 193/61/137
f 195/63/139 192/60/136 194/62/138
f 195/63/139 191/59/135 196/64/140
f 192/60/136 195/63/139 196/64/140
f 197/57/141 198/49/142 199/65/143
f 198/49/142 200/51/144 199/65/143
f 201/59/145 197/57/141 199/65/143
f 200/51/144 202/52/146 199/65/143
f 203/64/147 201/59/145 199/65/143
f 202/52/146 204/58/148 199/65/143
f 205/60/149 203/64/147 199/65/143
f 204/58/148 205/60/149 199/65/143
f 208/66/150 206/67/151 207/68/152
f 206/67/151 208/66/150 209/69/150
f 210/70/153 209/69/150 208/66/150
f 210/70/153 208/66/150 211/71/154
f 211/71/154 212/72/155 210/70/153
f 212/72/155 211/71/154 213/73/156
f 216/74/150 214/75/151 215/76/152
f 214/75/151 216/74/150 217/77/150
f 218/78/157 217/77/150 216/74/150
f 218/78/157 216/74/150 220/79/158
f 220/79/158 221/80/155 218/78/157
f 221/80/155 220/79/158 219/81/159
f 222/41/160 223/44/161 224/42/162
f 222/41/160 224/42/162 225/43/163
f 228/45/160 226/48/161 227/46/162
f 228/45/160 227/46/162 229/47/163
f 230/82/164 231/83/165 232/84/166
f 232/84/166 231/83/165 233/85/166
f 234/86/167 230/82/164 232/84/166
f 230/82/164 234/86/167 235/87/167
f 230/82/164 235/87/167 236/88/168
f 230/82/164 236/88/168 237/89/167
f 238/90/169 239/84/170 240/91/171
f 241/85/172 240/91/171 239/84/170
f 239/84/170 238/90/169 242/86/169
f 240/91/171 241/85/172 243/92/173
f 244/93/174 242/86/169 238/90/169
f 245/83/175 243/92/173 241/85/172
f 242/86/169 244/93/174 246/87/174
f 243/92/173 245/83/175 247/94/176
f 248/95/177 246/87/174 244/93/174
f 249/82/178 247/94/176 245/83/175
f 246/87/174 248/95/177 250/88/179
f 247/94/176 249/82/178 251/96/178
f 252/97/180 250/88/179 248/95/177
f 253/89/180 251/96/178 249/82/178
f 250/88/179 252/97/180 253/89/180
f 251/96/178 253/89/180 252/97/180
usemtl Meshpart2Mtl
f 255/98/181 257/99/182 254/100/108
f 257/99/182 259/101/183 254/100/108
f 258/102/113 260/103/184 256/104/112
f 257/99/182 261/105/185 259/101/183
f 260/103/184 258/102/113 261/105/185
f 257/99/182 260/103/184 261/105/185
f 264/106/124 263/107/122 262/108/120
f 264/106/124 262/108/120 265/109/121
f 266/110/186 267/111/150 268/112/187
f 267/111/150 269/113/188 268/112/187
f 266/110/186 268/112/187 270/114/154
f 269/113/188 267/111/150 271/115/189
f 266/110/186 270/114/154 272/116/156
f 273/117/190 266/110/186 272/116/156
f 275/106/191 276/108/162 274/109/192
f 275/106/191 277/107/161 276/108/162
usemtl Meshpart3Mtl
f 278/118/193 279/119/194 280/120/195
f 278/118/193 280/120/195 281/121/196
f 281/121/196 282/122/197 278/118/193
f 281/121/196 283/123/198 282/122/197
f 283/123/198 281/121/196 284/124/199
f 284/124/199 285/125/200 283/123/198
f 285/125/200 284/124/199 286/126/201
f 286/126/201 287/127/202 285/125/200
f 287/127/202 286/126/201 288/128/203
f 288/128/203 289/129/204 287/127/202
f 289/129/204 288/128/203 290/130/205
f 293/131/206 292/132/207 291/133/208
f 292/132/207 293/131/206 294/134/206
f 293/131/206 295/135/209 294/134/206
f 295/135/209 293/131/206 296/136/210
f 296/136/210 297/137/211 295/135/209
f 297/137/211 296/136/210 298/138/212
f 301/139/213 300/140/214 299/141/215
f 302/142/216 300/140/214 301/139/213
f 301/139/213 303/143/217 302/142/216
f 303/143/217 301/139/213 304/144/218
f 305/120/219 306/145/220 307/146/221
f 306/145/220 305/120/219 308/147/222
f 307/146/221 309/121/223 305/120/219
f 309/121/224 310/148/225 311/149/226
f 312/124/227 309/121/224 311/149/226
f 312/124/227 311/149/226 313/150/228
f 314/126/229 312/124/227 313/150/228
f 313/150/228 315/128/230 314/126/229
f 315/128/230 313/150/228 316/151/231
f 316/151/231 317/130/232 315/128/230
f 317/130/232 316/151/231 318/152/233
f 321/153/234 320/133/235 319/154/236
f 320/133/235 321/153/234 322/131/234
f 323/155/237 322/131/234 321/153/234
f 322/131/234 323/155/237 324/136/238
f 323/155/237 325/138/239 324/136/238
f 325/138/239 323/155/237 326/156/240
f 329/157/241 328/141/242 327/158/243
f 330/139/244 328/141/242 329/157/241
f 331/159/245 330/139/244 329/157/241
f 330/139/244 331/159/245 332/144/246
f 332/144/246 331/159/245 333/160/247
f 335/161/248 334/162/249 336/163/249
f 339/164/250 337/165/251 338/166/252
f 339/164/250 340/167/253 337/165/251
f 341/165/254 343/168/255 342/169/256
f 343/168/255 341/165/254 344/167/257
f 345/170/258 347/171/259 346/172/260
f 347/171/259 345/170/258 348/173/261
f 351/171/262 349/174/263 350/172/264
f 352/175/265 349/174/263 351/171/262
f 353/176/266 354/177/267 355/178/268
f 356/179/269 353/176/266 355/178/268
f 354/177/267 353/176/266 357/180/270
f 357/180/270 358/181/271 354/177/267
f 358/181/271 357/180/270 359/182/272
f 353/176/266 356/179/269 360/183/273
f 361/184/274 360/183/273 356/179/269
f 360/183/273 361/184/274 362/185/275
f 363/186/276 362/185/275 361/184/274
f 362/185/275 363/186/276 364/187/277
f 365/188/278 364/187/277 363/186/276
f 364/187/277 365/188/278 366/189/279
f 368/190/280 369/191/281 367/192/282
f 369/191/281 368/190/280 370/193/283
f 370/193/283 371/194/284 369/191/281
f 369/191/281 371/194/284 372/195/285
f 371/194/284 373/196/286 372/195/285
f 372/195/285 373/196/286 374/197/287
f 376/198/288 377/199/289 375/200/290
f 377/199/289 376/198/288 378/201/291
f 378/201/291 379/202/292 377/199/289
f 380/203/293 377/199/289 379/202/292
f 381/180/294 382/204/295 383/205/296
f 384/176/297 382/204/295 381/180/294
f 384/176/298 386/206/299 385/207/300
f 386/206/299 384/176/298 387/183/301
f 387/183/301 388/208/302 386/206/299
f 388/208/302 387/183/301 389/185/303
f 390/187/304 388/208/302 389/185/303
f 388/208/302 390/187/304 391/209/305
f 392/189/306 391/209/305 390/187/304
f 391/209/305 392/189/306 393/210/307
f 395/192/308 396/211/309 394/212/310
f 396/211/309 395/192/308 397/191/311
f 397/191/311 398/213/312 396/211/309
f 398/213/312 397/191/311 399/195/313
f 399/195/313 400/197/314 398/213/312
f 398/213/312 400/197/314 401/214/315
f 403/200/316 404/215/317 402/216/318
f 404/215/317 403/200/316 405/199/319
f 405/199/319 406/217/320 404/215/317
f 406/217/320 405/199/319 407/203/321
f 406/217/320 407/203/321 408/218/322
f 409/219/323 410/220/324 411/221/325
f 413/222/326 412/219/327 414/221/328
f 415/161/329 417/162/330 418/163/330
f 419/223/331 420/224/332 416/225/333
f 421/166/334 423/226/335 422/227/336
f 423/226/335 421/166/334 424/164/337
f 426/228/223 425/225/338 427/224/339
f 430/226/340 428/169/341 429/227/342
f 430/226/340 431/168/343 428/169/341
f 434/173/344 432/229/345 433/170/346
f 435/230/347 432/229/345 434/173/344
f 436/229/348 438/175/349 437/174/350
f 438/175/349 436/229/348 439/230/351
l 440 441
l 442 443
l 444 445
