# Blender 5.1.2
# www.blender.org
mtllib plunger 5.mtl
o Spear
v 0.042255 2.335110 -0.042011
v 0.049632 -1.296530 -0.049387
v 0.000122 -1.296530 -0.069895
v 0.000122 2.335110 -0.059462
v -0.042011 2.335110 -0.042011
v -0.049388 -1.296530 -0.049387
v 0.042255 2.335110 0.042256
v 0.049632 -1.296530 0.049631
v 0.070140 -1.296530 0.000122
v 0.059707 2.335110 0.000123
v 0.042255 2.335110 -0.042011
v 0.049632 -1.296530 -0.049387
v 0.042255 2.335110 0.042256
v 0.049632 -1.296530 0.049631
v 0.000122 -1.296530 0.070140
v 0.000122 2.335110 0.059707
v -0.042011 2.335110 0.042256
v -0.049388 -1.296530 0.049631
v -0.042011 2.335110 0.042256
v -0.049388 -1.296530 0.049631
v -0.069896 -1.296530 0.000122
v -0.059463 2.335110 0.000123
v -0.042011 2.335110 -0.042011
v -0.049388 -1.296530 -0.049387
v 0.046465 -1.279440 0.046098
v 0.048453 -1.230520 0.048086
v 0.057824 -1.328350 0.057457
v 0.000122 -1.230520 0.068105
v 0.000122 -1.328350 0.081358
v 0.000122 -1.279440 0.065294
v -0.046220 -1.279440 0.046098
v -0.057579 -1.328350 0.057457
v -0.048208 -1.230520 0.048086
v 0.052983 -1.131170 0.046967
v 0.045740 -1.177340 0.043379
v 0.003974 -1.143430 0.066523
v 0.048091 -1.221100 0.049033
v -0.054215 -1.246700 0.049033
v -0.044827 -1.199990 0.043379
v -0.045034 -1.155690 0.046967
v -0.003062 -1.233900 0.069444
v 0.000456 -1.188660 0.061448
v 0.051638 -1.080700 -0.050011
v -0.048529 -1.080700 -0.050011
v 0.064981 -1.128350 -0.064588
v 0.050211 -1.168290 -0.048527
v 0.001554 -1.135550 -0.090662
v 0.001554 -1.086390 -0.070600
v 0.001554 -1.173810 -0.068529
v -0.047102 -1.168290 -0.048527
v -0.061872 -1.128350 -0.064588
v -0.037534 1.909700 0.036792
v -0.000036 1.901344 0.052040
v 0.037462 1.909700 0.036792
v -0.040699 2.279930 0.040832
v 0.001068 2.290260 0.058199
v 0.001554 -1.094670 0.057302
v 0.051638 -1.053230 0.049401
v 0.043549 -1.099440 0.040039
v 0.001555 -1.047540 0.069990
v -0.048529 -1.053230 0.049401
v -0.040440 -1.099440 0.040039
v 0.001555 -1.136070 0.068055
v 0.050211 -1.141600 0.048053
v -0.047102 -1.141600 0.048053
v 0.068851 -1.171550 -0.066131
v 0.052983 -1.131170 -0.047456
v 0.003974 -1.143430 -0.067011
v 0.000456 -1.188660 -0.093422
v -0.045034 -1.155690 -0.047456
v 0.048091 -1.221100 -0.049521
v -0.003062 -1.233900 -0.069933
v -0.067938 -1.205770 -0.066131
v -0.054215 -1.246700 -0.049521
v 0.070116 -1.279440 -0.070238
v 0.048453 -1.230520 -0.048575
v 0.000122 -1.279440 -0.099230
v 0.000122 -1.230520 -0.068594
v 0.057824 -1.328350 -0.057946
v 0.000122 -1.328350 -0.081846
v -0.048208 -1.230520 -0.048575
v -0.057579 -1.328350 -0.057945
v -0.069871 -1.279440 -0.070238
v -0.046220 -1.279440 -0.046587
v -0.057579 -1.328350 -0.057945
v -0.048208 -1.230520 -0.048575
v -0.081479 -1.328350 -0.000244
v -0.068227 -1.230520 -0.000244
v -0.065416 -1.279440 -0.000244
v -0.046220 -1.279440 0.046098
v -0.057579 -1.328350 0.057457
v -0.048208 -1.230520 0.048086
v -0.045034 -1.155690 -0.047456
v -0.044827 -1.199990 -0.043868
v -0.065334 -1.160760 -0.000244
v -0.054215 -1.246700 -0.049521
v -0.063585 -1.204680 -0.000244
v -0.075403 -1.252000 -0.000244
v -0.054215 -1.246700 0.049033
v -0.044827 -1.199990 0.043379
v -0.045034 -1.155690 0.046967
v 0.051638 -1.053230 0.049401
v 0.064981 -1.093560 0.061309
v 0.072384 -1.066960 -0.000305
v 0.050211 -1.141600 0.048053
v 0.091253 -1.110950 -0.001639
v 0.070365 -1.154940 -0.000237
v 0.051638 -1.080700 -0.050011
v 0.064981 -1.128350 -0.064588
v 0.050211 -1.168290 -0.048527
v -0.037535 1.950045 -0.036835
v -0.053067 1.929872 -0.000022
v -0.037534 1.909700 0.036792
v -0.057999 2.275650 -0.001094
v -0.040699 2.279930 0.040832
v -0.048529 -1.053230 0.049401
v -0.040440 -1.099440 0.040039
v -0.069275 -1.066960 -0.000305
v -0.047102 -1.141600 0.048053
v -0.057835 -1.110950 -0.001639
v -0.067256 -1.154940 -0.000237
v -0.048529 -1.080700 -0.050011
v -0.047102 -1.168290 -0.048527
v -0.040440 -1.122470 -0.043317
v 0.068851 -1.171550 -0.066131
v 0.052983 -1.131170 -0.047456
v 0.097181 -1.164470 -0.000244
v 0.073283 -1.126090 -0.000244
v 0.052983 -1.131170 0.046967
v 0.048091 -1.221100 -0.049521
v 0.069280 -1.215800 -0.000244
v 0.048091 -1.221100 0.049033
v 0.068851 -1.171550 0.065643
v 0.070116 -1.279440 -0.070238
v 0.048453 -1.230520 -0.048575
v 0.099108 -1.279440 -0.000244
v 0.068472 -1.230520 -0.000244
v 0.048453 -1.230520 0.048086
v 0.057824 -1.328350 -0.057946
v 0.081724 -1.328350 -0.000244
v 0.057824 -1.328350 0.057457
v 0.070116 -1.279440 0.069749
v 0.046465 -1.279440 -0.046587
v 0.048453 -1.230520 -0.048575
v 0.000122 -1.230520 -0.068594
v 0.057824 -1.328350 -0.057946
v 0.000122 -1.328350 -0.081846
v 0.000122 -1.279440 -0.065782
v -0.046220 -1.279440 -0.046587
v -0.057579 -1.328350 -0.057945
v -0.048208 -1.230520 -0.048575
v 0.052983 -1.131170 -0.047456
v 0.045740 -1.177340 -0.043868
v 0.003974 -1.143430 -0.067011
v 0.048091 -1.221100 -0.049521
v 0.000456 -1.188660 -0.061937
v -0.045034 -1.155690 -0.047456
v -0.003062 -1.233900 -0.069933
v -0.044827 -1.199990 -0.043868
v -0.054215 -1.246700 -0.049521
v 0.001555 -1.047540 0.069990
v 0.001555 -1.086350 0.087383
v 0.051638 -1.053230 0.049401
v -0.048529 -1.053230 0.049401
v 0.064981 -1.093560 0.061309
v -0.061872 -1.093560 0.061309
v 0.050211 -1.141600 0.048053
v 0.001555 -1.136070 0.068055
v -0.047102 -1.141600 0.048053
v -0.000036 1.958400 -0.052084
v -0.037535 1.950045 -0.036835
v 0.037462 1.950045 -0.036835
v 0.051638 -1.080700 -0.050011
v 0.043549 -1.122470 -0.043317
v 0.001554 -1.086390 -0.070600
v 0.050211 -1.168290 -0.048527
v -0.048529 -1.080700 -0.050011
v 0.001554 -1.127240 -0.060580
v 0.001554 -1.173810 -0.068529
v -0.047102 -1.168290 -0.048527
v -0.040440 -1.122470 -0.043317
v 0.052983 -1.131170 0.046967
v 0.048091 -1.221100 0.049033
v -0.045034 -1.155690 0.046967
v -0.054215 -1.246700 0.049033
v -0.067938 -1.205770 0.065643
v -0.003062 -1.233900 0.069444
v 0.000456 -1.188660 0.092934
v 0.003974 -1.143430 0.066523
v 0.068851 -1.171550 0.065643
v 0.048453 -1.230520 0.048086
v 0.057824 -1.328350 0.057457
v 0.070116 -1.279440 0.069749
v 0.000122 -1.279440 0.098742
v 0.000122 -1.328350 0.081358
v 0.000122 -1.230520 0.068105
v -0.057579 -1.328350 0.057457
v -0.048208 -1.230520 0.048086
v -0.069871 -1.279440 0.069749
v 0.046465 -1.279440 -0.046587
v 0.068472 -1.230520 -0.000244
v 0.048453 -1.230520 -0.048575
v 0.065660 -1.279440 -0.000244
v 0.046465 -1.279440 0.046098
v 0.048453 -1.230520 0.048086
v 0.081724 -1.328350 -0.000244
v 0.057824 -1.328350 -0.057946
v 0.057824 -1.328350 0.057457
v 0.052983 -1.131170 -0.047456
v 0.064497 -1.172640 -0.000244
v 0.073283 -1.126090 -0.000244
v 0.052983 -1.131170 0.046967
v 0.045740 -1.177340 -0.043868
v 0.069280 -1.215800 -0.000244
v 0.045740 -1.177340 0.043379
v 0.048091 -1.221100 -0.049521
v 0.048091 -1.221100 0.049033
v -0.048529 -1.053230 0.049401
v -0.069275 -1.066960 -0.000305
v -0.047102 -1.141600 0.048053
v -0.088144 -1.110950 -0.001639
v -0.067256 -1.154940 -0.000237
v -0.048529 -1.080700 -0.050011
v -0.047102 -1.168290 -0.048527
v -0.061872 -1.128350 -0.064588
v 0.037462 1.950045 -0.036835
v 0.037462 1.909700 0.036792
v 0.052995 1.929872 -0.000022
v 0.051638 -1.053230 0.049401
v 0.043549 -1.099440 0.040039
v 0.072384 -1.066960 -0.000305
v 0.050211 -1.141600 0.048053
v 0.060944 -1.110950 -0.001639
v 0.051638 -1.080700 -0.050011
v 0.070365 -1.154940 -0.000237
v 0.043549 -1.122470 -0.043317
v 0.050211 -1.168290 -0.048527
v -0.045034 -1.155690 -0.047456
v -0.067938 -1.205770 -0.066131
v -0.054215 -1.246700 -0.049521
v -0.096268 -1.212860 -0.000244
v -0.065334 -1.160760 -0.000244
v -0.075403 -1.252000 -0.000244
v -0.045034 -1.155690 0.046967
v -0.054215 -1.246700 0.049033
v -0.067938 -1.205770 0.065643
v -0.048208 -1.230520 -0.048575
v -0.057579 -1.328350 -0.057945
v -0.069871 -1.279440 -0.070238
v -0.057579 -1.328350 0.057457
v -0.048208 -1.230520 0.048086
v -0.069871 -1.279440 0.069749
v -0.098864 -1.279440 -0.000244
v -0.081479 -1.328350 -0.000244
v -0.068227 -1.230520 -0.000244
v -0.094832 -1.389930 -0.094801
v 0.000096 -1.389930 -0.134122
v 0.000096 -1.574070 0.000127
v 0.095024 -1.389930 -0.094801
v -0.042037 2.335150 -0.042006
v 0.000096 2.335150 -0.059457
v 0.042229 2.335150 -0.042006
v 0.000096 -1.389930 -0.134122
v 0.049606 -1.296490 -0.049383
v 0.095024 -1.389930 -0.094801
v 0.000096 -1.296490 -0.069891
v -0.049414 -1.296490 -0.049383
v -0.094832 -1.389930 -0.094801
v 0.000096 -1.574070 0.000127
v 0.095024 -1.389930 -0.094801
v 0.134345 -1.389930 0.000127
v 0.095024 -1.389930 0.095054
v 0.042229 2.335150 -0.042006
v 0.059681 2.335150 0.000128
v 0.042229 2.335150 0.042261
v 0.049606 -1.296490 -0.049383
v 0.095024 -1.389930 -0.094801
v 0.134345 -1.389930 0.000127
v 0.070114 -1.296490 0.000127
v 0.049606 -1.296490 0.049636
v 0.095024 -1.389930 0.095054
v 0.000096 -1.574070 0.000127
v -0.094832 -1.389930 0.095054
v 0.095024 -1.389930 0.095054
v 0.000096 -1.389930 0.134376
v 0.049606 -1.296490 0.049636
v 0.095024 -1.389930 0.095054
v 0.000096 -1.389930 0.134376
v 0.000096 -1.296490 0.070144
v -0.049414 -1.296490 0.049636
v -0.094832 -1.389930 0.095054
v -0.094832 -1.389930 -0.094801
v 0.000096 -1.574070 0.000127
v -0.134153 -1.389930 0.000127
v -0.094832 -1.389930 0.095054
v -0.042037 2.335150 -0.042006
v -0.059489 2.335150 0.000128
v -0.042037 2.335150 0.042261
v -0.049414 -1.296490 -0.049383
v -0.094832 -1.389930 -0.094801
v -0.134153 -1.389930 0.000127
v -0.069922 -1.296490 0.000127
v -0.049414 -1.296490 0.049636
v -0.094832 -1.389930 0.095054
v 0.025731 2.340522 0.142670
v 0.032138 2.400760 0.162022
v 0.098103 2.398406 0.125977
v 0.081977 2.338514 0.111937
v 0.137191 2.395975 0.061771
v 0.115305 2.336442 0.057191
v 0.116786 2.334860 -0.006898
v 0.086021 2.334193 -0.063159
v 0.138927 2.394120 -0.013393
v 0.102847 2.393338 -0.079376
v 0.099177 2.749243 0.397429
v 0.100700 2.816938 0.395793
v 0.291977 2.729005 -0.260783
v 0.293500 2.796701 -0.262418
v 0.297704 2.762628 -0.266338
v 0.390357 2.731138 -0.080868
v 0.391880 2.798834 -0.082503
v 0.397789 2.764797 -0.083305
v 0.392973 2.769942 0.125196
v 0.385623 2.736196 0.124081
v 0.387146 2.803891 0.122445
v 0.279044 2.742822 0.299150
v 0.280567 2.810518 0.297514
v 0.284546 2.776684 0.303299
v 0.101562 2.783216 0.403281
v 0.280567 2.810518 0.297514
v 0.387146 2.803891 0.122445
v 0.370331 2.806580 0.117437
v 0.391880 2.798834 -0.082503
v 0.268482 2.812912 0.284737
v 0.374855 2.801747 -0.078416
v 0.100700 2.816938 0.395793
v 0.293500 2.796701 -0.262418
v 0.096597 2.819048 0.378653
v 0.280841 2.799709 -0.250344
v 0.118367 2.798064 -0.369088
v 0.113481 2.801011 -0.352280
v -0.086593 2.802558 -0.373933
v -0.082383 2.805305 -0.356910
v -0.254266 2.811441 -0.262993
v -0.266461 2.808978 -0.275654
v -0.356115 2.817774 -0.095695
v -0.373040 2.815605 -0.100585
v -0.093128 2.342353 0.107798
v -0.107261 2.402908 0.121124
v -0.123892 2.341686 0.051537
v -0.143342 2.402126 0.055140
v -0.043031 2.402408 0.160244
v -0.038362 2.341927 0.141154
v 0.025731 2.340522 0.142670
v 0.032138 2.400760 0.162022
v -0.106951 2.787787 0.398353
v -0.280917 2.755100 0.285913
v -0.105783 2.753736 0.392583
v 0.099177 2.749243 0.397429
v -0.285120 2.789174 0.289833
v -0.379297 2.752967 0.105999
v -0.385205 2.787004 0.106801
v 0.100700 2.816938 0.395793
v 0.101562 2.783216 0.403281
v -0.093128 2.342353 0.107798
v -0.107261 2.402908 0.121124
v -0.123892 2.341686 0.051537
v -0.143342 2.402126 0.055140
v -0.141605 2.400271 -0.020024
v -0.122412 2.340105 -0.012553
v -0.089084 2.338033 -0.067298
v -0.102518 2.397841 -0.084230
v -0.036551 2.395486 -0.120274
v -0.032838 2.336025 -0.098031
v -0.280917 2.755100 0.285913
v -0.285120 2.789174 0.289833
v -0.379297 2.752967 0.105999
v -0.385205 2.787004 0.106801
v -0.380390 2.781859 -0.101701
v -0.374563 2.747910 -0.098950
v -0.373040 2.815605 -0.100585
v -0.267984 2.741283 -0.274019
v -0.266461 2.808978 -0.275654
v -0.271963 2.775118 -0.279803
v -0.088978 2.768586 -0.379786
v -0.088116 2.734862 -0.372298
v -0.086593 2.802558 -0.373933
v 0.031255 2.334620 -0.096515
v -0.122412 2.340105 -0.012553
v -0.089084 2.338033 -0.067298
v -0.032838 2.336025 -0.098031
v -0.038362 2.341927 0.141154
v -0.123892 2.341686 0.051537
v -0.093128 2.342353 0.107798
v 0.115305 2.336442 0.057191
v 0.086021 2.334193 -0.063159
v 0.116786 2.334860 -0.006898
v 0.025731 2.340522 0.142670
v 0.081977 2.338514 0.111937
v -0.105783 2.753736 0.392583
v 0.094965 2.746495 0.380405
v 0.099177 2.749243 0.397429
v 0.266850 2.740360 0.286489
v -0.100897 2.750790 0.375775
v 0.279044 2.742822 0.299150
v -0.280917 2.755100 0.285913
v 0.368699 2.734027 0.119190
v -0.268258 2.752092 0.273839
v 0.385623 2.736196 0.124081
v -0.362272 2.750054 0.101911
v 0.390357 2.731138 -0.080868
v -0.379297 2.752967 0.105999
v 0.373223 2.729194 -0.076663
v -0.357748 2.745221 -0.093942
v 0.291977 2.729005 -0.260783
v -0.374563 2.747910 -0.098950
v 0.279208 2.727156 -0.248592
v -0.267984 2.741283 -0.274019
v 0.116844 2.730368 -0.367453
v -0.255899 2.738888 -0.261241
v 0.111849 2.728458 -0.350527
v -0.084015 2.732753 -0.355158
v -0.088116 2.734862 -0.372298
v -0.430700 2.759590 -0.143400
v -0.445625 2.761156 -0.092445
v -0.455389 2.759970 -0.150643
v -0.470314 2.761537 -0.099689
v -0.089084 2.338033 -0.067298
v -0.102518 2.397841 -0.084230
v -0.036551 2.395486 -0.120274
v -0.032838 2.336025 -0.098031
v 0.038617 2.393838 -0.118496
v 0.031255 2.334620 -0.096515
v 0.086021 2.334193 -0.063159
v 0.102847 2.393338 -0.079376
v -0.267984 2.741283 -0.274019
v -0.266461 2.808978 -0.275654
v -0.271963 2.775118 -0.279803
v -0.088978 2.768586 -0.379786
v -0.088116 2.734862 -0.372298
v -0.086593 2.802558 -0.373933
v 0.119535 2.764014 -0.374857
v 0.116844 2.730368 -0.367453
v 0.118367 2.798064 -0.369088
v 0.291977 2.729005 -0.260783
v 0.293500 2.796701 -0.262418
v 0.297704 2.762628 -0.266338
v -0.430750 2.759079 -0.143398
v -0.445675 2.760646 -0.092443
v -0.470365 2.761027 -0.099687
v -0.445675 2.760646 -0.092443
v -0.455439 2.759460 -0.150641
v -0.470365 2.761027 -0.099687
v -0.455439 2.759460 -0.150641
v -0.430750 2.759079 -0.143398
v 0.370293 2.806062 0.117442
v 0.374817 2.801229 -0.078411
v 0.268445 2.812395 0.284741
v 0.063701 2.488664 0.281854
v 0.080008 2.575186 0.338912
v 0.186642 2.484276 0.214680
v 0.091289 2.675351 0.373673
v 0.230580 2.569811 0.256641
v 0.259490 2.479746 0.095019
v 0.319799 2.564263 0.110086
v 0.262725 2.476290 -0.045065
v 0.195481 2.474832 -0.168038
v 0.241406 2.558244 -0.212092
v 0.323763 2.560030 -0.061481
v 0.271305 2.656456 -0.240891
v 0.370700 2.711640 -0.075735
v 0.373185 2.728676 -0.076658
v 0.368661 2.733509 0.119195
v 0.264935 2.722742 0.285342
v 0.266812 2.739842 0.286494
v 0.259229 2.669357 0.281912
v 0.366203 2.716445 0.118999
v 0.358742 2.663169 0.118452
v 0.363161 2.658447 -0.072907
v 0.096559 2.818531 0.378657
v 0.268445 2.812395 0.284741
v -0.076391 2.491736 0.278543
v -0.196096 2.492668 0.205633
v 0.063701 2.488664 0.281854
v -0.091569 2.578948 0.334857
v -0.238177 2.580089 0.245559
v 0.080008 2.575186 0.338912
v -0.100080 2.679547 0.369150
v -0.263600 2.680820 0.269553
v 0.091289 2.675351 0.373673
v -0.263340 2.491210 0.082660
v 0.230580 2.569811 0.256641
v -0.320533 2.578303 0.094950
v -0.355458 2.678828 0.101569
v -0.360594 2.732381 0.101819
v -0.268296 2.751575 0.273844
v -0.267117 2.734407 0.272765
v -0.100935 2.750272 0.375780
v -0.100712 2.733112 0.374119
v 0.094032 2.728842 0.378723
v 0.094927 2.745977 0.380410
v 0.264935 2.722742 0.285342
v 0.266812 2.739842 0.286494
v 0.259229 2.669357 0.281912
v -0.356154 2.817256 -0.095690
v -0.254305 2.810924 -0.262989
v -0.082421 2.804788 -0.356906
v -0.263340 2.491210 0.082660
v -0.187256 2.483224 -0.177085
v -0.260105 2.487753 -0.057425
v -0.316571 2.574069 -0.076618
v -0.227350 2.568522 -0.223172
v -0.320533 2.578303 0.094950
v -0.351037 2.674107 -0.089790
v -0.355458 2.678828 0.101569
v -0.251526 2.667919 -0.253250
v -0.356096 2.727576 -0.092916
v -0.083926 2.715178 -0.352639
v -0.084053 2.732235 -0.355153
v -0.255937 2.738371 -0.261236
v -0.254829 2.721279 -0.259258
v -0.357786 2.744703 -0.093937
v -0.360594 2.732381 0.101819
v -0.362310 2.749536 0.101916
v -0.268296 2.751575 0.273844
v -0.076391 2.491736 0.278543
v -0.196096 2.492668 0.205633
v -0.055581 2.423854 0.204049
v 0.063701 2.488664 0.281854
v 0.186642 2.484276 0.214680
v -0.263340 2.491210 0.082660
v 0.130412 2.418579 0.158890
v -0.140226 2.424513 0.152493
v 0.043478 2.421682 0.206390
v -0.107299 2.402391 0.121128
v -0.043069 2.401891 0.160249
v 0.032099 2.400243 0.162026
v 0.098065 2.397888 0.125982
v -0.143380 2.401609 0.055145
v 0.137153 2.395458 0.061776
v -0.187774 2.423482 0.065538
v -0.185486 2.421038 -0.033516
v -0.141643 2.399754 -0.020020
v -0.102556 2.397323 -0.084225
v 0.181923 2.415376 0.074278
v -0.133975 2.417835 -0.118129
v 0.184211 2.412932 -0.024776
v 0.259490 2.479746 0.095019
v 0.138888 2.393603 -0.013388
v -0.047043 2.414732 -0.165629
v -0.036590 2.394969 -0.120269
v 0.262725 2.476290 -0.045065
v 0.052018 2.412560 -0.163287
v 0.038579 2.393321 -0.118492
v 0.102808 2.392821 -0.079371
v 0.136661 2.411901 -0.111732
v 0.195481 2.474832 -0.168038
v 0.075777 2.475763 -0.240948
v -0.064315 2.478835 -0.244259
v -0.187256 2.483224 -0.177085
v -0.260105 2.487753 -0.057425
v 0.374817 2.801229 -0.078411
v 0.280802 2.799191 -0.250340
v 0.113443 2.800494 -0.352275
v -0.082421 2.804788 -0.356906
v 0.195481 2.474832 -0.168038
v 0.075777 2.475763 -0.240948
v -0.064315 2.478835 -0.244259
v 0.094798 2.559385 -0.301389
v 0.241406 2.558244 -0.212092
v -0.187256 2.483224 -0.177085
v 0.323763 2.560030 -0.061481
v -0.076780 2.563147 -0.305444
v -0.227350 2.568522 -0.223172
v -0.251526 2.667919 -0.253250
v -0.083585 2.661924 -0.345011
v -0.083926 2.715178 -0.352639
v 0.107784 2.657728 -0.340488
v 0.110818 2.710909 -0.348036
v 0.271305 2.656456 -0.240891
v 0.111810 2.727941 -0.350523
v -0.084053 2.732235 -0.355153
v -0.255937 2.738371 -0.261236
v 0.277223 2.709614 -0.246682
v 0.279170 2.726638 -0.248587
v 0.370700 2.711640 -0.075735
v 0.373185 2.728676 -0.076658
v -0.254829 2.721279 -0.259258
v 0.363161 2.658447 -0.072907
vn -0.0393 -0.0000 -0.9992
vn 0.7032 0.0001 -0.7110
vn 0.6749 0.0001 -0.7379
vn -0.0000 -0.0000 -1.0000
vn -0.7032 0.0001 -0.7110
vn -0.7342 -0.0000 -0.6789
vn 0.7110 0.0001 0.7032
vn 0.7379 0.0001 0.6749
vn 0.9992 -0.0000 -0.0393
vn 1.0000 -0.0000 -0.0000
vn 0.7110 0.0001 -0.7032
vn 0.6789 -0.0000 -0.7342
vn 0.7032 0.0001 0.7110
vn 0.0393 -0.0000 0.9992
vn 0.7342 -0.0000 0.6789
vn -0.0000 -0.0000 1.0000
vn -0.7032 0.0001 0.7110
vn -0.6749 0.0001 0.7379
vn -0.7110 0.0001 0.7032
vn -0.9992 -0.0000 0.0393
vn -0.6789 -0.0000 0.7342
vn -1.0000 -0.0000 -0.0000
vn -0.7110 0.0001 -0.7032
vn -0.7379 0.0001 -0.6749
vn -0.0000 0.0550 -0.9985
vn -0.7021 0.0549 -0.7100
vn -0.6965 -0.1339 -0.7050
vn -0.0000 -0.3131 -0.9497
vn -0.6670 -0.3157 -0.6749
vn -0.0000 -0.1337 -0.9910
vn 0.6670 -0.3157 -0.6749
vn 0.6965 -0.1339 -0.7050
vn 0.7021 0.0549 -0.7100
vn -0.1025 0.1185 -0.9876
vn -0.7466 0.1650 -0.6445
vn -0.6948 0.0235 -0.7188
vn 0.7413 -0.2287 -0.6310
vn 0.7003 -0.0871 -0.7085
vn 0.1181 -0.1811 -0.9763
vn 0.6440 0.0657 -0.7622
vn 0.0079 -0.0315 -0.9995
vn -0.6308 -0.1356 -0.7640
vn -0.0000 -0.0869 -0.9962
vn 0.6245 0.3850 -0.6795
vn 0.7050 -0.0625 -0.7064
vn 0.6476 -0.4789 -0.5926
vn -0.0000 0.3769 -0.9262
vn -0.6245 0.3850 -0.6795
vn -0.0000 -0.5030 -0.8643
vn -0.6475 -0.4790 -0.5927
vn -0.7050 -0.0625 -0.7064
vn -0.0000 0.0235 -0.9997
vn -0.6085 0.2592 -0.7500
vn -0.6986 0.0232 -0.7151
vn -0.0000 0.2591 -0.9659
vn 0.6085 0.2592 -0.7500
vn 0.6986 0.0232 -0.7151
vn -0.0000 -0.2514 -0.9679
vn -0.7400 -0.2361 -0.6298
vn 0.7400 -0.2361 -0.6298
vn 0.6907 0.0392 -0.7221
vn -0.0554 0.5056 -0.8610
vn 0.5633 0.5202 -0.6420
vn -0.0000 0.0236 -0.9997
vn -0.6292 0.5063 -0.5897
vn 0.6348 -0.4728 -0.6112
vn 0.0474 -0.4655 -0.8838
vn -0.6951 0.0079 -0.7188
vn -0.5940 -0.4644 -0.6569
vn -0.0000 0.1027 -0.9947
vn 0.5961 0.5290 -0.6040
vn 0.6987 0.1027 -0.7080
vn -0.0000 0.5272 -0.8498
vn 0.6619 -0.3367 -0.6697
vn -0.0000 -0.3374 -0.9414
vn -0.5961 0.5290 -0.6040
vn -0.6619 -0.3368 -0.6697
vn -0.6988 0.1027 -0.7079
vn 0.9495 -0.3139 -0.0000
vn 0.6748 -0.3157 0.6670
vn 0.7050 -0.1339 0.6965
vn 0.9985 0.0550 -0.0000
vn 0.7100 0.0549 0.7021
vn 0.9910 -0.1339 -0.0000
vn 0.7050 -0.1339 -0.6965
vn 0.6748 -0.3157 -0.6670
vn 0.7100 0.0549 -0.7021
vn 0.9992 0.0393 -0.0000
vn 0.7085 -0.0871 0.7003
vn 0.6482 0.0632 0.7589
vn 0.9930 -0.1182 -0.0000
vn 0.7449 -0.2289 0.6267
vn 0.9697 -0.2444 -0.0000
vn 0.7449 -0.2289 -0.6267
vn 0.7086 -0.0872 -0.7002
vn 0.6483 0.0632 -0.7588
vn 0.7190 0.0320 0.6942
vn 0.9188 0.3927 -0.0392
vn 0.6629 0.4025 0.6313
vn 0.6264 -0.3784 0.6815
vn 0.9999 -0.0157 -0.0000
vn 0.9034 -0.4243 0.0628
vn 0.6327 0.3850 -0.6720
vn 0.7141 -0.0637 -0.6972
vn 0.6552 -0.4785 -0.5846
vn 0.9586 0.2515 -0.1335
vn 0.6171 0.2593 -0.7429
vn 0.7072 0.0241 -0.7066
vn 0.7433 -0.2380 -0.6252
vn 0.9997 0.0236 0.0002
vn 0.9728 -0.2040 0.1098
vn 0.7489 0.2454 0.6156
vn 0.7072 0.0233 0.7066
vn 0.6423 -0.1813 0.7447
vn 0.6907 0.0393 -0.7221
vn 0.5717 0.5200 -0.6347
vn 0.9985 0.0551 -0.0000
vn 0.8498 0.5271 -0.0000
vn 0.5717 0.5200 0.6347
vn 0.6423 -0.4732 -0.6029
vn 0.8783 -0.4782 -0.0000
vn 0.6423 -0.4732 0.6029
vn 0.6907 0.0392 0.7221
vn 0.7080 0.1027 -0.6987
vn 0.6040 0.5290 -0.5961
vn 0.9947 0.1027 -0.0000
vn 0.8497 0.5272 -0.0000
vn 0.6040 0.5290 0.5961
vn 0.6697 -0.3368 -0.6619
vn 0.9414 -0.3373 -0.0000
vn 0.6697 -0.3367 0.6619
vn 0.7079 0.1027 0.6988
vn -0.0000 0.0551 0.9985
vn -0.6965 -0.1339 0.7049
vn -0.7021 0.0549 0.7100
vn -0.0000 -0.3139 0.9495
vn -0.6669 -0.3157 0.6749
vn -0.0000 -0.1338 0.9910
vn 0.6965 -0.1339 0.7050
vn 0.6670 -0.3157 0.6749
vn 0.7021 0.0549 0.7100
vn -0.1025 0.1185 0.9876
vn -0.6948 0.0236 0.7188
vn -0.7466 0.1650 0.6445
vn 0.0079 -0.0315 0.9995
vn -0.6310 -0.1335 0.7642
vn 0.6440 0.0635 0.7624
vn 0.1181 -0.1811 0.9764
vn 0.7003 -0.0871 0.7085
vn 0.7414 -0.2287 0.6309
vn -0.0000 0.4090 0.9125
vn -0.0000 0.0469 0.9989
vn 0.6591 0.4024 0.6353
vn -0.6591 0.4024 0.6354
vn 0.7101 0.0308 0.7034
vn -0.7101 0.0308 0.7034
vn 0.6183 -0.3779 0.6892
vn -0.0000 -0.3631 0.9317
vn -0.6182 -0.3779 0.6892
vn -0.0000 0.2369 0.9715
vn -0.6987 0.0241 0.7150
vn -0.7458 0.2434 0.6202
vn -0.0000 0.0230 0.9997
vn -0.6338 -0.1809 0.7520
vn -0.0000 -0.1657 0.9862
vn 0.6337 -0.1820 0.7519
vn 0.6987 0.0240 0.7150
vn 0.7458 0.2434 0.6202
vn 0.0474 -0.4656 0.8837
vn -0.6951 0.0079 0.7188
vn -0.5940 -0.4644 0.6569
vn -0.0005 0.0234 0.9997
vn -0.6292 0.5063 0.5897
vn 0.6348 -0.4728 0.6111
vn -0.0553 0.5055 0.8610
vn 0.5632 0.5202 0.6420
vn -0.0000 0.1027 0.9947
vn 0.6619 -0.3368 0.6697
vn 0.6988 0.1027 0.7079
vn 0.5961 0.5290 0.6041
vn -0.0000 -0.3374 0.9414
vn -0.0000 0.5272 0.8497
vn -0.6619 -0.3367 0.6697
vn -0.5961 0.5290 0.6040
vn -0.6987 0.1027 0.7080
vn -0.7049 -0.1339 0.6965
vn -0.9985 0.0551 -0.0000
vn -0.7100 0.0549 0.7021
vn -0.9910 -0.1338 -0.0000
vn -0.7050 -0.1339 -0.6965
vn -0.7100 0.0549 -0.7021
vn -0.9495 -0.3139 -0.0000
vn -0.6749 -0.3157 0.6670
vn -0.6749 -0.3157 -0.6670
vn -0.7502 0.1653 0.6402
vn -0.9989 0.0476 -0.0000
vn -0.9821 0.1886 -0.0000
vn -0.7502 0.1653 -0.6402
vn -0.7032 0.0236 0.7106
vn -0.9939 -0.1105 -0.0000
vn -0.7032 0.0236 -0.7106
vn -0.6353 -0.1333 0.7607
vn -0.6353 -0.1333 -0.7607
vn -0.6264 -0.3783 0.6815
vn -0.9999 -0.0157 -0.0002
vn -0.9032 -0.4247 0.0626
vn -0.6327 0.3849 -0.6720
vn -0.9188 0.3927 -0.0393
vn -0.7141 -0.0637 -0.6972
vn -0.6552 -0.4785 -0.5846
vn -0.9586 0.2516 -0.1335
vn -0.7072 0.0242 -0.7066
vn -0.6171 0.2593 -0.7429
vn -0.9997 0.0236 0.0002
vn -0.7436 -0.2360 -0.6256
vn -0.7493 0.2434 0.6159
vn -0.9728 -0.2040 0.1098
vn -0.7072 0.0233 0.7066
vn -0.6423 -0.1813 0.7447
vn -1.0000 -0.0075 -0.0000
vn -0.6367 0.5065 -0.5814
vn -0.6952 0.0079 -0.7188
vn -0.6022 -0.4642 -0.6495
vn -0.8589 0.5121 -0.0000
vn -0.8816 -0.4721 -0.0000
vn -0.6367 0.5066 0.5814
vn -0.6022 -0.4642 0.6495
vn -0.6953 0.0079 0.7187
vn -0.9947 0.1027 -0.0000
vn -0.6697 -0.3368 0.6618
vn -0.7080 0.1027 0.6987
vn -0.6040 0.5290 0.5961
vn -0.9414 -0.3373 -0.0000
vn -0.6697 -0.3368 -0.6619
vn -0.7079 0.1027 -0.6988
vn -0.6040 0.5290 -0.5961
vn -0.8497 0.5272 -0.0000
vn -0.5681 -0.5878 -0.5760
vn -0.0000 -0.5891 -0.8080
vn 0.0001 -1.0000 -0.0000
vn 0.5681 -0.5878 -0.5760
vn -0.0000 0.5657 -0.8246
vn 0.5785 0.5668 -0.5865
vn 0.5786 0.5668 -0.5865
vn -0.0000 0.5656 -0.8247
vn -0.5786 0.5668 -0.5865
vn 0.5760 -0.5878 -0.5681
vn 0.8080 -0.5891 -0.0000
vn -0.0000 -1.0000 0.0001
vn 0.5760 -0.5878 0.5682
vn 0.8247 0.5656 -0.0000
vn 0.5865 0.5668 -0.5786
vn 0.5865 0.5668 0.5785
vn 0.5865 0.5668 0.5786
vn -0.0000 -0.5885 0.8085
vn -0.5681 -0.5878 0.5760
vn -0.0001 -1.0000 -0.0000
vn 0.5681 -0.5878 0.5760
vn -0.0000 0.5657 0.8246
vn 0.5786 0.5668 0.5865
vn -0.0000 0.5659 0.8245
vn -0.5785 0.5668 0.5865
vn -0.5786 0.5668 0.5865
vn -0.8086 -0.5884 -0.0000
vn -0.5760 -0.5878 -0.5681
vn -0.0000 -1.0000 -0.0002
vn -0.5760 -0.5878 0.5681
vn -0.8247 0.5656 -0.0000
vn -0.5865 0.5668 -0.5785
vn -0.5865 0.5668 -0.5786
vn -0.5865 0.5668 0.5786
vn 0.2154 -0.3199 0.9226
vn 0.6426 -0.3346 0.6893
vn 0.8957 -0.3508 0.2731
vn 0.8957 -0.3508 0.2732
vn 0.9071 -0.3624 -0.2139
vn 0.9071 -0.3624 -0.2140
vn 0.6735 -0.3680 -0.6411
vn 0.7212 -0.0329 -0.6920
vn 0.9485 -0.2237 -0.2242
vn 0.7033 -0.2290 -0.6730
vn 0.9574 0.1698 -0.2337
vn 0.7122 0.1644 -0.6825
vn 0.9722 -0.0275 -0.2325
vn 0.9594 -0.0148 0.2815
vn 0.9361 -0.2121 0.2807
vn 0.9449 0.1832 0.2712
vn 0.6742 -0.1949 0.7124
vn 0.6831 0.1986 0.7029
vn 0.6929 0.0018 0.7211
vn 0.2339 0.0182 0.9721
vn 0.2258 -0.1789 0.9576
vn 0.2346 0.2146 0.9481
vn 0.1156 0.9903 0.0771
vn 0.1506 0.9885 0.0137
vn 0.1553 0.9862 -0.0574
vn 0.1157 0.9903 0.0769
vn 0.1553 0.9861 -0.0586
vn 0.0570 0.9924 0.1091
vn 0.1232 0.9854 -0.1171
vn 0.0569 0.9924 0.1091
vn 0.1232 0.9854 -0.1172
vn 0.0599 0.9865 -0.1522
vn -0.0125 0.9875 -0.1569
vn -0.0124 0.9875 -0.1569
vn -0.0711 0.9896 -0.1248
vn -0.0710 0.9896 -0.1250
vn -0.1060 0.9925 -0.0616
vn -0.1061 0.9924 -0.0616
vn -0.6887 -0.3060 0.6574
vn -0.9220 -0.3110 0.2306
vn -0.2722 -0.3087 0.9114
vn -0.6875 -0.3060 0.6585
vn -0.2721 -0.3090 0.9113
vn 0.2139 -0.3199 0.9230
vn -0.2810 0.0294 0.9593
vn -0.7112 -0.1644 0.6835
vn -0.2799 -0.1687 0.9451
vn 0.2243 -0.1788 0.9580
vn -0.7202 0.0329 0.6930
vn -0.9572 -0.1697 0.2344
vn -0.7212 0.0329 0.6920
vn -0.9720 0.0275 0.2333
vn 0.2322 0.0183 0.9725
vn 0.2332 0.2146 0.9485
vn -0.6886 -0.3060 0.6574
vn -0.9107 -0.3234 -0.2568
vn -0.9223 -0.3111 0.2292
vn -0.9110 -0.3225 -0.2569
vn -0.6583 -0.3388 -0.6722
vn -0.6572 -0.3388 -0.6732
vn -0.2305 -0.3541 -0.9064
vn -0.7211 0.0325 0.6921
vn -0.7122 -0.1644 0.6825
vn -0.9594 0.0148 -0.2815
vn -0.9576 -0.1698 0.2330
vn -0.9724 0.0275 0.2318
vn -0.9450 -0.1830 -0.2712
vn -0.6837 -0.1985 -0.7023
vn -0.6747 0.1949 -0.7118
vn -0.9360 0.2122 -0.2809
vn -0.6935 -0.0018 -0.7205
vn -0.6826 -0.1986 -0.7033
vn -0.2336 -0.0186 -0.9722
vn -0.2346 -0.2146 -0.9481
vn -0.2336 -0.0178 -0.9722
vn -0.6737 0.1949 -0.7128
vn -0.2258 0.1789 -0.9576
vn -0.0225 -0.9995 0.0241
vn -0.0225 -0.9995 0.0242
vn -0.0599 -0.9865 0.1522
vn 0.0125 -0.9875 0.1569
vn 0.0711 -0.9896 0.1249
vn 0.0710 -0.9896 0.1250
vn -0.1232 -0.9854 0.1171
vn 0.1060 -0.9925 0.0616
vn -0.1231 -0.9854 0.1172
vn -0.1553 -0.9861 0.0586
vn 0.1107 -0.9938 -0.0108
vn -0.1506 -0.9885 -0.0137
vn 0.0783 -0.9945 -0.0696
vn 0.0787 -0.9945 -0.0693
vn -0.1155 -0.9903 -0.0771
vn 0.0153 -0.9944 -0.1044
vn 0.0153 -0.9944 -0.1043
vn -0.0571 -0.9924 -0.1091
vn -0.0570 -0.9924 -0.1091
vn 0.2570 -0.3642 -0.8951
vn -0.2292 -0.3541 -0.9067
vn 0.6724 -0.3680 -0.6422
vn -0.2337 -0.0182 -0.9721
vn -0.6924 -0.0018 -0.7215
vn -0.6737 0.1949 -0.7129
vn 0.2810 -0.0295 -0.9593
vn -0.2332 -0.2146 -0.9485
vn -0.2322 -0.0182 -0.9725
vn -0.2243 0.1788 -0.9580
vn 0.2710 -0.2266 -0.9355
vn 0.2799 0.1685 -0.9451
vn 0.7023 -0.2290 -0.6740
vn 0.7112 0.1644 -0.6835
vn 0.7201 -0.0330 -0.6931
vn 0.1592 -0.6545 0.7391
vn 0.5004 -0.6664 0.5528
vn 0.1994 -0.4498 0.8706
vn 0.6007 -0.4637 0.6513
vn 0.2265 -0.2184 0.9492
vn 0.8391 -0.4776 0.2605
vn 0.6971 -0.6807 0.2251
vn 0.7083 -0.6882 -0.1571
vn 0.6298 -0.4949 -0.5987
vn 0.5216 -0.6926 -0.4983
vn 0.8490 -0.4902 -0.1974
vn 0.6989 -0.2679 -0.6632
vn 0.9491 -0.1400 0.2823
vn 0.9609 -0.1533 -0.2306
vn 0.6823 -0.1241 0.7204
vn 0.6822 -0.1241 0.7205
vn 0.9490 -0.1406 0.2823
vn 0.6651 -0.2337 0.7092
vn 0.9267 -0.2515 0.2792
vn 0.9386 -0.2624 -0.2242
vn -0.2591 -0.4396 0.8600
vn -0.5514 -0.6432 0.5312
vn -0.2236 -0.6479 0.7282
vn 0.1578 -0.6545 0.7394
vn -0.6507 -0.4353 0.6222
vn 0.1979 -0.4497 0.8710
vn -0.2783 -0.2085 0.9376
vn -0.7086 -0.2040 0.6754
vn 0.2259 -0.2180 0.9494
vn -0.7379 -0.6476 0.1900
vn -0.8698 -0.4414 0.2206
vn -0.9488 -0.2088 0.2371
vn -0.7205 -0.0933 0.6872
vn -0.9662 -0.0986 0.2382
vn -0.7204 -0.0933 0.6872
vn -0.2816 -0.0961 0.9547
vn -0.2816 -0.0965 0.9547
vn 0.2321 -0.1079 0.9667
vn 0.2317 -0.1073 0.9669
vn 0.6812 -0.1240 0.7215
vn 0.6640 -0.2337 0.7103
vn 0.6000 -0.4638 0.6518
vn -0.8594 -0.4526 -0.2378
vn -0.5307 -0.6694 -0.5198
vn -0.7272 -0.6588 -0.1928
vn -0.7382 -0.6476 0.1887
vn -0.6220 -0.4675 -0.6282
vn -0.8701 -0.4414 0.2192
vn -0.9374 -0.2228 -0.2677
vn -0.9492 -0.2088 0.2356
vn -0.6757 -0.2375 -0.6978
vn -0.9546 -0.1112 -0.2762
vn -0.6869 -0.1280 -0.7154
vn -0.2385 -0.1440 -0.9604
vn -0.9547 -0.1107 -0.2762
vn -0.6879 -0.1279 -0.7144
vn -0.6880 -0.1279 -0.7144
vn -0.9664 -0.0987 0.2374
vn -0.7210 -0.0933 0.6866
vn -0.2234 -0.6490 0.7272
vn -0.5507 -0.6444 0.5305
vn -0.1712 -0.8239 0.5402
vn 0.1583 -0.6553 0.7386
vn 0.3554 -0.8373 0.4156
vn 0.4996 -0.6675 0.5521
vn -0.7374 -0.6485 0.1891
vn -0.4142 -0.8204 0.3942
vn 0.1123 -0.8285 0.5486
vn -0.3153 -0.8992 0.3033
vn -0.1355 -0.9000 0.4144
vn 0.0762 -0.9048 0.4189
vn 0.2617 -0.9113 0.3179
vn -0.4175 -0.9009 0.1186
vn 0.3719 -0.9181 0.1372
vn -0.5472 -0.8233 0.1510
vn -0.5388 -0.8320 -0.1323
vn -0.4129 -0.9060 -0.0931
vn -0.3027 -0.9129 -0.2738
vn 0.5011 -0.8480 0.1728
vn -0.3930 -0.8394 -0.3753
vn 0.5094 -0.8534 -0.1103
vn 0.6961 -0.6819 0.2248
vn 0.3765 -0.9234 -0.0745
vn -0.1499 -0.8481 -0.5081
vn -0.1173 -0.9196 -0.3751
vn 0.7073 -0.6893 -0.1568
vn 0.1334 -0.8559 -0.4997
vn 0.0940 -0.9247 -0.3689
vn 0.2751 -0.9256 -0.2600
vn 0.3765 -0.8562 -0.3537
vn 0.5206 -0.6934 -0.4982
vn 0.1932 -0.6928 -0.6948
vn -0.1884 -0.6824 -0.7063
vn -0.5297 -0.6703 -0.5198
vn -0.7263 -0.6599 -0.1924
vn 0.2381 -0.4917 -0.8376
vn 0.5207 -0.6926 -0.4992
vn 0.1935 -0.6917 -0.6958
vn -0.1886 -0.6813 -0.7073
vn 0.6287 -0.4949 -0.5998
vn -0.2196 -0.4817 -0.8484
vn -0.5298 -0.6695 -0.5207
vn -0.6208 -0.4675 -0.6293
vn -0.2364 -0.2533 -0.9381
vn -0.6746 -0.2376 -0.6989
vn -0.2378 -0.1440 -0.9606
vn 0.2676 -0.2658 -0.9261
vn 0.2759 -0.1551 -0.9486
vn 0.6984 -0.2676 -0.6638
vn 0.2759 -0.1546 -0.9487
vn -0.2371 -0.1440 -0.9608
vn 0.7148 -0.1586 -0.6811
vn 0.7145 -0.1580 -0.6815
vn 0.9605 -0.1534 -0.2322
vn 0.9605 -0.1534 -0.2321
vn 0.8490 -0.4899 -0.1981
vn 0.9382 -0.2625 -0.2257
vt 46.000000 -14.815800
vt 45.957901 -11.184200
vt 45.950500 -14.815800
vt 46.000000 -11.184200
vt 46.042099 -11.184200
vt 46.049500 -14.815800
vt 44.000000 -30.747601
vt 43.951698 -30.747601
vt 43.953701 -30.796499
vt 44.000000 -30.845400
vt 43.942299 -30.845400
vt 44.000000 -30.796499
vt 44.057701 -30.845400
vt 44.046299 -30.796499
vt 44.048302 -30.747601
vt 43.996101 -30.660500
vt 43.947102 -30.648300
vt 43.954399 -30.694401
vt 44.054298 -30.763800
vt 44.044899 -30.717100
vt 44.003201 -30.750999
vt 44.045200 -30.672800
vt 43.999699 -30.705799
vt 43.952000 -30.738199
vt 43.998600 -30.652599
vt 43.948502 -30.597799
vt 43.935101 -30.645399
vt 43.949902 -30.685400
vt 43.998600 -30.603500
vt 44.048698 -30.597799
vt 43.998600 -30.690901
vt 44.047199 -30.685400
vt 44.062000 -30.645399
vt 43.998600 -30.611799
vt 43.948502 -30.570299
vt 43.956600 -30.616501
vt 43.998600 -30.564600
vt 44.048698 -30.570299
vt 44.040600 -30.616501
vt 43.998600 -30.653200
vt 43.949902 -30.658701
vt 44.047199 -30.658701
vt 43.931301 -30.688601
vt 44.068100 -30.722900
vt 43.930000 -30.796499
vt 44.070000 -30.796499
vt 44.000000 -30.677900
vt 44.043598 -30.717100
vt 44.047199 -30.672800
vt 44.000000 -30.721800
vt 44.049301 -30.763800
vt 44.000000 -30.769100
vt 43.950699 -30.763800
vt 43.956402 -30.717100
vt 43.952801 -30.672800
vt 43.938400 -30.610600
vt 44.000099 -30.584101
vt 43.950401 -30.570299
vt 43.951698 -30.658701
vt 44.001400 -30.628000
vt 44.000000 -30.672001
vt 44.049801 -30.597799
vt 44.064301 -30.645399
vt 44.048302 -30.685400
vt 43.959702 -30.616501
vt 44.043098 -30.639601
vt 44.065899 -30.688601
vt 44.047199 -30.648300
vt 44.000000 -30.681601
vt 44.000000 -30.643200
vt 43.952801 -30.648300
vt 44.049301 -30.738199
vt 44.000000 -30.732901
vt 43.950699 -30.738199
vt 43.934101 -30.688601
vt 44.003899 -30.660500
vt 44.045601 -30.694401
vt 44.052898 -30.648300
vt 44.000301 -30.705799
vt 44.048000 -30.738199
vt 43.954800 -30.672800
vt 43.996799 -30.750999
vt 43.955101 -30.717100
vt 43.945702 -30.763800
vt 44.001400 -30.564600
vt 44.001400 -30.603399
vt 44.051498 -30.570299
vt 43.951302 -30.570299
vt 44.064899 -30.610600
vt 43.938000 -30.610600
vt 44.050098 -30.658701
vt 44.001400 -30.653200
vt 43.952801 -30.658701
vt 44.001400 -30.603500
vt 44.043400 -30.639601
vt 44.051498 -30.597799
vt 44.001400 -30.644300
vt 44.050098 -30.685400
vt 44.001400 -30.690901
vt 43.952801 -30.685400
vt 43.959400 -30.639601
vt 43.951302 -30.597799
vt 43.931900 -30.722900
vt 44.068699 -30.688601
vt 44.000000 -30.689699
vt 43.956402 -30.694401
vt 44.043598 -30.694401
vt 44.048302 -30.658701
vt 43.998600 -30.628000
vt 43.950199 -30.597799
vt 43.999901 -30.584101
vt 43.935699 -30.645399
vt 43.951698 -30.685400
vt 44.040298 -30.616501
vt 44.049599 -30.570299
vt 43.956902 -30.639601
vt 44.000000 -30.729900
vt 43.934101 -30.722900
vt 44.065899 -30.722900
vt 12.094800 -63.089901
vt 11.999900 -63.089901
vt 11.999900 -63.273998
vt 11.905000 -63.089901
vt 11.950400 -62.996399
vt 11.999900 -62.996399
vt 12.049400 -62.996399
vt 11.904900 -63.089901
vt 12.000100 -63.089901
vt 11.905200 -63.089901
vt 12.000100 -63.273998
vt 12.095000 -63.089901
vt 12.049600 -62.996399
vt 12.000100 -62.996399
vt 11.950600 -62.996399
vt 12.095100 -63.089901
vt 1.899950 -23.289700
vt 1.914690 -23.337400
vt 1.942240 -23.289700
vt 1.950750 -23.337400
vt 2.000000 -23.289700
vt 2.000000 -23.337400
vt 2.049250 -23.337400
vt 2.057760 -23.289700
vt 2.085310 -23.337400
vt 2.100050 -23.289700
vt 2.277530 -22.989201
vt 2.157500 -23.016100
vt 2.272800 -23.016100
vt 2.157500 -22.962299
vt 2.272800 -22.962299
vt 2.160230 -22.989201
vt 2.000000 -22.989201
vt 2.000000 -23.016100
vt 2.000000 -22.962299
vt 1.842500 -23.016100
vt 1.842500 -22.962299
vt 1.839770 -22.989201
vt 1.722470 -22.989201
vt 1.727200 -23.016100
vt 1.727200 -22.962299
vt 1.693240 -22.842501
vt 1.651040 -23.000000
vt 1.665020 -23.000000
vt 1.693240 -23.157499
vt 1.705350 -22.849501
vt 1.705350 -23.150499
vt 1.808540 -22.727200
vt 1.808540 -23.272800
vt 1.815530 -22.739300
vt 1.815530 -23.260700
vt 1.966040 -23.315001
vt 1.966040 -23.301001
vt 2.123540 -23.272800
vt 2.116550 -23.260700
vt 2.226740 -23.150499
vt 2.238840 -23.157499
vt 2.267060 -23.000000
vt 2.281040 -23.000000
vt 1.976190 -23.289700
vt 1.933910 -23.289700
vt 1.948650 -23.337400
vt 2.033960 -23.289700
vt 1.984700 -23.337400
vt 2.033960 -23.337400
vt 2.083210 -23.337400
vt 2.091720 -23.289700
vt 2.033960 -22.989201
vt 1.876460 -23.016100
vt 2.033960 -23.016100
vt 2.191460 -23.016100
vt 1.873730 -22.989201
vt 1.761160 -23.016100
vt 1.756430 -22.989201
vt 2.194190 -22.989201
vt 2.191460 -22.962299
vt 2.033960 -23.098499
vt 1.935450 -23.000000
vt 1.948650 -23.049299
vt 1.984700 -23.085300
vt 2.033960 -22.901501
vt 1.948650 -22.950701
vt 1.984700 -22.914700
vt 2.132460 -23.000000
vt 2.083210 -23.085300
vt 2.119260 -23.049299
vt 2.083210 -22.914700
vt 2.119260 -22.950701
vt 2.033960 -22.684999
vt 2.184470 -22.739300
vt 2.191460 -22.727200
vt 2.294650 -22.849501
vt 2.033960 -22.698999
vt 2.306760 -22.842501
vt 1.876460 -22.727200
vt 2.334980 -23.000000
vt 1.883450 -22.739300
vt 2.348960 -23.000000
vt 1.773270 -22.849501
vt 2.306760 -23.157499
vt 1.761160 -22.842501
vt 2.294650 -23.150499
vt 1.732940 -23.000000
vt 2.191460 -23.272800
vt 1.718960 -23.000000
vt 2.184470 -23.260700
vt 1.761160 -23.157499
vt 2.033960 -23.315001
vt 1.773270 -23.150499
vt 2.033960 -23.301001
vt 1.883450 -23.260700
vt 1.876460 -23.272800
vt 1.666040 -23.021099
vt 1.666040 -22.978901
vt 1.645580 -23.021099
vt 1.645580 -22.978901
vt 2.023810 -23.289700
vt 2.051350 -23.337400
vt 2.066090 -23.289700
vt 1.966040 -23.289700
vt 2.015300 -23.337400
vt 1.966040 -23.337400
vt 1.916790 -23.337400
vt 1.908280 -23.289700
vt 2.126270 -22.989201
vt 2.238840 -23.016100
vt 2.243570 -22.989201
vt 2.238840 -22.962299
vt 1.966040 -22.989201
vt 2.123540 -23.016100
vt 2.123540 -22.962299
vt 1.966040 -23.016100
vt 1.966040 -22.962299
vt 1.808540 -23.016100
vt 1.808540 -22.962299
vt 1.805810 -22.989201
vt 45.813499 -49.223801
vt 45.892300 -49.223801
vt 45.771599 -49.155899
vt 45.868198 -49.155899
vt 45.745300 -49.076698
vt 46.000000 -49.155899
vt 46.000000 -49.223801
vt 46.107700 -49.223801
vt 46.228401 -49.155899
vt 46.186501 -49.223801
vt 46.131802 -49.155899
vt 46.254700 -49.076698
vt 46.000000 -49.020699
vt 46.149700 -49.034302
vt 46.150501 -49.020699
vt 45.850300 -49.034302
vt 45.849499 -49.020699
vt 46.000000 -49.034302
vt 45.852901 -49.076698
vt 46.000000 -49.076698
vt 46.147099 -49.076698
vt 45.740799 -49.034302
vt 46.259201 -49.034302
vt 46.260700 -49.020699
vt 45.739300 -49.020699
vt 46.000000 -48.784698
vt 45.892300 -48.813499
vt 46.000000 -48.847801
vt 46.107700 -48.813499
vt 46.131802 -48.923901
vt 46.186501 -48.892300
vt 45.813499 -48.892300
vt 45.923901 -48.868198
vt 46.076099 -48.868198
vt 45.942200 -48.900002
vt 46.000000 -48.884499
vt 46.057800 -48.900002
vt 46.099998 -48.942200
vt 45.900002 -48.942200
vt 46.115501 -49.000000
vt 45.868198 -48.923901
vt 45.847801 -49.000000
vt 45.884499 -49.000000
vt 45.900002 -49.057800
vt 46.152199 -49.000000
vt 45.868198 -49.076099
vt 46.131802 -49.076099
vt 46.215302 -49.000000
vt 46.099998 -49.057800
vt 45.923901 -49.131802
vt 45.942200 -49.099998
vt 46.186501 -49.107700
vt 46.000000 -49.152199
vt 46.000000 -49.115501
vt 46.057800 -49.099998
vt 46.076099 -49.131802
vt 46.107700 -49.186501
vt 46.000000 -49.215302
vt 45.892300 -49.186501
vt 45.813499 -49.107700
vt 45.784698 -49.000000
s 1
usemtl Meshpart31Mtl
f 3/1/1 1/2/2 2/3/3
f 1/2/2 3/1/1 4/4/4
f 3/1/1 5/5/5 4/4/4
f 5/5/5 3/1/1 6/6/6
f 7/2/7 8/3/8 9/1/9
f 9/1/9 10/4/10 7/2/7
f 9/1/9 11/5/11 10/4/10
f 11/5/11 9/1/9 12/6/12
f 13/5/13 15/1/14 14/6/15
f 15/1/14 13/5/13 16/4/16
f 17/2/17 15/1/14 16/4/16
f 17/2/17 18/3/18 15/1/14
f 19/5/19 21/1/20 20/6/21
f 21/1/20 19/5/19 22/4/22
f 23/2/23 21/1/20 22/4/22
f 21/1/20 23/2/23 24/3/24
usemtl Meshpart21Mtl
f 28/7/25 26/8/26 25/9/27
f 29/10/28 25/9/27 27/11/29
f 30/12/30 28/7/25 25/9/27
f 25/9/27 29/10/28 30/12/30
f 32/13/31 31/14/32 29/10/28
f 31/14/32 30/12/30 29/10/28
f 31/14/32 28/7/25 30/12/30
f 28/7/25 31/14/32 33/15/33
f 36/16/34 34/17/35 35/18/36
f 38/19/37 39/20/38 41/21/39
f 39/20/38 40/22/40 42/23/41
f 39/20/38 42/23/41 41/21/39
f 40/22/40 36/16/34 42/23/41
f 41/21/39 42/23/41 37/24/42
f 42/23/41 36/16/34 35/18/36
f 42/23/41 35/18/36 37/24/42
f 47/25/43 43/26/44 45/27/45
f 46/28/46 47/25/43 45/27/45
f 43/26/44 47/25/43 48/29/47
f 47/25/43 44/30/48 48/29/47
f 47/25/43 46/28/46 49/31/49
f 50/32/50 47/25/43 49/31/49
f 44/30/48 47/25/43 51/33/51
f 47/25/43 50/32/50 51/33/51
f 57/34/52 58/35/53 59/36/54
f 58/35/53 57/34/52 60/37/55
f 61/38/56 60/37/55 57/34/52
f 62/39/57 61/38/56 57/34/52
f 59/36/54 63/40/58 57/34/52
f 62/39/57 57/34/52 63/40/58
f 63/40/58 59/36/54 64/41/59
f 65/42/60 62/39/57 63/40/58
f 66/43/61 68/16/62 67/17/63
f 68/16/62 66/43/61 69/23/64
f 69/23/64 70/22/65 68/16/62
f 71/24/66 69/23/64 66/43/61
f 69/23/64 71/24/66 72/21/67
f 72/21/67 73/44/68 69/23/64
f 70/22/65 69/23/64 73/44/68
f 73/44/68 72/21/67 74/19/69
f 77/12/70 76/8/71 75/45/72
f 76/8/71 77/12/70 78/7/73
f 79/11/74 77/12/70 75/45/72
f 77/12/70 79/11/74 80/10/75
f 77/12/70 81/15/76 78/7/73
f 82/13/77 77/12/70 80/10/75
f 81/15/76 77/12/70 83/46/78
f 77/12/70 82/13/77 83/46/78
f 87/10/79 85/13/80 84/14/81
f 88/7/82 84/14/81 86/15/83
f 87/10/79 84/14/81 89/12/84
f 84/14/81 88/7/82 89/12/84
f 90/9/85 87/10/79 89/12/84
f 90/9/85 89/12/84 88/7/82
f 87/10/79 90/9/85 91/11/86
f 90/9/85 88/7/82 92/8/87
f 95/47/88 94/48/89 93/49/90
f 97/50/91 96/51/92 94/48/89
f 94/48/89 95/47/88 97/50/91
f 96/51/92 97/50/91 98/52/93
f 99/53/94 98/52/93 97/50/91
f 100/54/95 97/50/91 95/47/88
f 99/53/94 97/50/91 100/54/95
f 100/54/95 95/47/88 101/55/96
f 103/56/97 104/57/98 102/58/99
f 105/59/100 106/60/101 103/56/97
f 103/56/97 106/60/101 104/57/98
f 105/59/100 107/61/102 106/60/101
f 106/60/101 108/62/103 104/57/98
f 107/61/102 109/63/104 106/60/101
f 109/63/104 108/62/103 106/60/101
f 107/61/102 110/64/105 109/63/104
f 118/57/106 116/58/107 117/65/108
f 119/59/109 120/60/110 117/65/108
f 117/65/108 120/60/110 118/57/106
f 119/59/109 121/61/111 120/60/110
f 120/60/110 122/62/112 118/57/106
f 122/62/112 120/60/110 124/66/113
f 121/61/111 124/66/113 120/60/110
f 121/61/111 123/64/114 124/66/113
f 125/67/115 126/68/116 127/69/117
f 127/69/117 126/68/116 128/70/118
f 129/71/119 127/69/117 128/70/118
f 127/69/117 130/72/120 125/67/115
f 130/72/120 127/69/117 131/73/121
f 127/69/117 132/74/122 131/73/121
f 132/74/122 127/69/117 133/75/123
f 127/69/117 129/71/119 133/75/123
f 134/46/124 135/15/125 136/12/126
f 136/12/126 135/15/125 137/7/127
f 138/8/128 136/12/126 137/7/127
f 136/12/126 139/13/129 134/46/124
f 139/13/129 136/12/126 140/10/130
f 140/10/130 136/12/126 141/11/131
f 141/11/131 136/12/126 142/45/132
f 136/12/126 138/8/128 142/45/132
f 145/7/133 143/14/134 144/15/135
f 143/14/134 147/10/136 146/13/137
f 147/10/136 143/14/134 148/12/138
f 143/14/134 145/7/133 148/12/138
f 149/9/139 147/10/136 148/12/138
f 145/7/133 149/9/139 148/12/138
f 147/10/136 149/9/139 150/11/140
f 149/9/139 145/7/133 151/8/141
f 154/76/142 153/77/143 152/78/144
f 153/77/143 154/76/142 156/79/145
f 156/79/145 155/80/146 153/77/143
f 157/81/147 156/79/145 154/76/142
f 155/80/146 156/79/145 158/82/148
f 156/79/145 157/81/147 159/83/149
f 159/83/149 158/82/148 156/79/145
f 158/82/148 159/83/149 160/84/150
f 161/85/151 162/86/152 163/87/153
f 164/88/154 162/86/152 161/85/151
f 162/86/152 165/89/155 163/87/153
f 162/86/152 164/88/154 166/90/156
f 162/86/152 167/91/157 165/89/155
f 167/91/157 162/86/152 168/92/158
f 169/93/159 168/92/158 162/86/152
f 166/90/156 169/93/159 162/86/152
f 175/94/160 174/95/161 173/96/162
f 178/97/163 176/98/164 174/95/161
f 174/95/161 175/94/160 178/97/163
f 176/98/164 178/97/163 179/99/165
f 178/97/163 180/100/166 179/99/165
f 181/101/167 175/94/160 177/102/168
f 175/94/160 181/101/167 178/97/163
f 180/100/166 178/97/163 181/101/167
f 187/82/169 186/103/170 185/84/171
f 188/79/172 184/81/173 186/103/170
f 186/103/170 187/82/169 188/79/172
f 183/80/174 188/79/172 187/82/169
f 184/81/173 188/79/172 189/76/175
f 188/79/172 183/80/174 190/104/123
f 190/104/123 189/76/175 188/79/172
f 189/76/175 190/104/123 182/78/176
f 194/12/177 192/13/178 193/46/179
f 194/12/177 193/46/179 191/15/180
f 192/13/178 194/12/177 195/10/181
f 196/7/182 194/12/177 191/15/180
f 197/11/183 195/10/181 194/12/177
f 198/8/184 194/12/177 196/7/182
f 199/45/185 197/11/183 194/12/177
f 194/12/177 198/8/184 199/45/185
f 200/9/186 201/7/187 202/8/188
f 201/7/187 200/9/186 203/12/189
f 204/14/190 201/7/187 203/12/189
f 201/7/187 204/14/190 205/15/191
f 200/9/186 206/10/192 203/12/189
f 203/12/189 206/10/192 204/14/190
f 206/10/192 200/9/186 207/11/193
f 204/14/190 206/10/192 208/13/194
f 209/71/195 210/105/196 211/70/197
f 211/70/197 210/105/196 212/68/198
f 210/105/196 209/71/195 213/106/199
f 213/106/199 214/73/200 210/105/196
f 212/68/198 210/105/196 215/107/201
f 210/105/196 214/73/200 215/107/201
f 214/73/200 213/106/199 216/74/202
f 215/107/201 214/73/200 217/72/203
f 220/108/204 221/109/205 222/61/206
f 223/110/207 221/109/205 219/111/208
f 221/109/205 223/110/207 225/112/209
f 222/61/206 225/112/209 224/113/210
f 225/112/209 222/61/206 221/109/205
f 231/111/211 230/114/212 229/115/213
f 230/114/212 231/111/211 233/109/214
f 233/109/214 232/108/215 230/114/212
f 234/110/216 233/109/214 231/111/211
f 232/108/215 233/109/214 235/61/217
f 233/109/214 234/110/216 236/116/218
f 236/116/218 235/61/217 233/109/214
f 235/61/217 236/116/218 237/113/219
f 241/117/220 238/55/221 239/118/222
f 241/117/220 239/118/222 240/53/223
f 238/55/221 241/117/220 242/47/224
f 241/117/220 240/53/223 243/52/225
f 244/49/226 242/47/224 241/117/220
f 245/51/227 241/117/220 243/52/225
f 241/117/220 245/51/227 246/119/228
f 241/117/220 246/119/228 244/49/226
f 253/12/229 250/13/230 252/46/231
f 253/12/229 252/46/231 251/15/232
f 250/13/230 253/12/229 254/10/233
f 253/12/229 248/11/234 254/10/233
f 253/12/229 249/45/235 248/11/234
f 253/12/229 247/8/236 249/45/235
f 251/15/232 255/7/237 253/12/229
f 247/8/236 253/12/229 255/7/237
usemtl Meshpart11Mtl
f 256/120/238 257/121/239 258/122/240
f 257/121/239 259/123/241 258/122/240
f 263/121/242 264/124/243 265/123/244
f 264/124/243 263/121/242 266/125/245
f 267/126/246 266/125/245 263/121/242
f 268/120/246 267/126/246 263/121/242
f 270/120/247 271/121/248 269/122/249
f 271/121/248 272/127/250 269/122/249
f 278/121/251 277/120/252 276/126/252
f 278/121/251 276/126/252 279/125/251
f 280/124/253 278/121/251 279/125/251
f 278/121/251 280/124/253 281/127/254
f 285/128/255 283/129/256 282/130/257
f 284/131/258 285/128/255 282/130/257
f 288/128/259 287/131/260 286/132/260
f 288/128/259 286/132/260 289/133/261
f 290/134/262 288/128/259 289/133/261
f 288/128/259 290/134/262 291/129/263
f 294/128/264 292/129/265 293/130/266
f 295/135/267 294/128/264 293/130/266
f 301/128/268 299/134/269 300/129/270
f 299/134/269 301/128/268 302/133/268
f 302/133/268 301/128/268 303/132/271
f 303/132/271 301/128/268 304/135/271
usemtl Meshpart3Mtl
f 306/136/272 305/137/272 307/138/273
f 308/139/273 307/138/273 305/137/272
f 309/140/274 307/138/273 308/139/273
f 310/141/275 309/140/274 308/139/273
f 311/142/276 309/140/274 310/141/275
f 309/140/274 311/142/276 313/143/277
f 312/144/278 313/143/277 311/142/276
f 313/143/277 312/144/278 314/145/278
f 319/146/279 320/147/280 317/148/281
f 321/149/282 319/146/279 318/150/283
f 320/147/280 319/146/279 322/151/284
f 319/146/279 321/149/282 322/151/284
f 322/151/284 323/152/285 320/147/280
f 321/149/282 323/152/285 322/151/284
f 320/147/280 323/152/285 324/153/286
f 323/152/285 321/149/282 325/154/287
f 323/152/285 326/155/288 324/153/286
f 325/154/287 327/156/289 323/152/285
f 326/155/288 323/152/285 328/157/290
f 323/152/285 327/156/289 328/157/290
f 328/157/290 329/158/291 326/155/288
f 327/156/289 329/158/291 328/157/290
f 315/159/292 326/155/288 329/158/291
f 329/158/291 327/156/289 316/160/293
f 330/161/294 331/162/295 332/163/295
f 333/164/296 332/163/295 331/162/295
f 330/161/294 332/163/295 334/165/297
f 332/163/295 333/164/296 335/166/298
f 336/167/299 330/161/294 334/165/297
f 337/168/300 335/166/298 333/164/296
f 336/167/299 334/165/297 338/169/301
f 335/166/298 337/168/300 339/170/302
f 340/171/303 339/170/302 337/168/300
f 339/170/302 340/171/303 341/172/303
f 342/173/304 341/172/303 340/171/303
f 341/172/303 342/173/304 343/174/305
f 344/175/306 343/174/305 342/173/304
f 342/173/304 345/176/307 344/175/306
f 345/176/307 346/177/308 344/175/306
f 346/177/308 345/176/307 347/178/309
f 349/179/310 351/180/311 350/181/311
f 352/182/312 349/179/313 348/183/313
f 348/183/313 353/184/314 352/182/312
f 354/185/315 352/182/312 353/184/314
f 352/182/312 354/185/315 355/186/315
f 356/187/316 357/188/317 358/189/318
f 358/189/318 359/190/319 356/187/316
f 357/188/317 356/187/316 360/191/320
f 361/192/321 360/191/322 362/193/323
f 364/194/324 356/187/316 359/190/319
f 363/195/325 356/187/316 364/194/324
f 365/144/326 366/145/326 367/142/311
f 369/140/327 367/142/328 368/143/328
f 367/142/328 369/140/327 370/141/329
f 369/140/327 371/139/330 370/141/329
f 371/139/330 369/140/327 372/138/330
f 371/139/331 373/136/332 374/137/332
f 376/146/333 377/147/321 375/148/334
f 379/152/335 377/147/336 378/151/337
f 380/153/338 377/147/336 379/152/335
f 379/152/335 382/155/339 380/153/338
f 383/156/340 379/152/335 381/154/341
f 382/155/339 379/152/335 384/157/342
f 384/157/342 379/152/335 383/156/340
f 382/155/343 385/158/344 386/159/345
f 385/158/346 383/156/347 387/160/348
f 388/196/349 389/197/349 390/198/349
f 388/196/349 390/198/349 391/199/350
f 388/196/349 392/200/349 389/197/349
f 392/200/349 393/201/349 389/197/349
f 393/201/349 392/200/349 394/202/349
f 392/200/349 388/196/349 395/203/349
f 396/204/350 395/203/349 388/196/349
f 395/203/349 396/204/350 397/205/349
f 392/200/349 395/203/349 398/206/349
f 398/206/349 395/203/349 399/207/349
f 400/208/351 401/209/352 402/210/352
f 403/211/353 402/210/352 401/209/352
f 401/209/352 400/208/351 404/212/351
f 402/210/352 403/211/353 405/213/354
f 406/214/355 404/212/351 400/208/351
f 407/215/356 405/213/354 403/211/353
f 404/212/351 406/214/355 408/216/357
f 405/213/354 407/215/356 409/217/356
f 406/214/355 410/218/358 408/216/357
f 407/215/356 411/219/359 409/217/356
f 406/214/355 412/220/358 410/218/358
f 411/219/359 407/215/356 413/221/359
f 412/220/358 414/222/360 410/218/358
f 415/223/361 411/219/359 413/221/359
f 412/220/358 416/224/360 414/222/360
f 413/221/359 417/225/362 415/223/361
f 418/226/363 414/222/360 416/224/360
f 419/227/364 415/223/361 417/225/362
f 414/222/360 418/226/363 420/228/363
f 419/227/364 417/225/362 421/229/365
f 418/226/363 422/230/366 420/228/363
f 423/231/367 419/227/364 421/229/365
f 422/230/366 418/226/363 423/231/367
f 423/231/367 421/229/365 422/230/366
f 424/232/349 425/233/349 426/234/349
f 426/234/349 425/233/349 427/235/349
f 430/236/332 428/237/331 429/238/331
f 432/239/368 431/240/369 430/236/369
f 431/240/369 432/239/368 433/241/368
f 432/239/368 434/242/370 433/241/368
f 435/243/370 434/242/370 432/239/368
f 439/244/371 436/245/343 438/246/372
f 437/247/373 439/244/371 438/246/372
f 442/248/374 440/249/375 439/244/376
f 441/250/377 442/248/374 439/244/376
f 440/249/375 442/248/374 443/251/378
f 442/248/374 441/250/377 444/252/379
f 442/248/374 445/253/380 443/251/378
f 446/254/381 442/248/374 444/252/379
f 445/253/380 442/248/374 447/255/382
f 442/248/374 446/254/381 447/255/382
usemtl Meshpart7Mtl
f 459/256/383 461/257/384 460/258/385
f 461/257/384 463/259/386 460/258/385
f 460/258/385 463/259/386 462/260/387
f 465/261/388 461/257/384 464/262/389
f 461/257/384 465/261/388 463/259/386
f 466/263/390 465/261/388 464/262/389
f 468/264/391 466/263/390 467/265/392
f 466/263/390 468/264/391 469/266/393
f 469/266/393 465/261/388 466/263/390
f 470/267/394 469/266/393 468/264/391
f 473/268/395 471/269/396 472/270/396
f 474/271/397 473/268/395 475/272/398
f 473/268/395 474/271/397 477/273/399
f 476/274/400 477/273/399 474/271/397
f 471/269/396 473/268/395 477/273/399
f 463/259/386 478/275/401 476/274/400
f 477/273/399 476/274/400 478/275/401
f 478/275/401 463/259/386 465/261/388
f 469/266/393 478/275/401 465/261/388
f 479/276/402 477/273/399 478/275/401
f 479/276/402 478/275/401 469/266/393
f 471/269/396 477/273/399 479/276/402
f 485/261/403 483/257/404 482/262/405
f 482/262/405 484/263/406 485/261/403
f 483/257/404 485/261/403 486/259/407
f 484/263/406 487/266/408 485/261/403
f 488/275/409 486/259/407 485/261/403
f 485/261/403 487/266/408 488/275/409
f 486/259/407 488/275/409 489/274/410
f 487/266/408 490/276/411 488/275/409
f 486/259/407 491/256/412 483/257/404
f 491/256/412 486/259/407 493/258/413
f 489/274/410 493/258/413 486/259/407
f 493/258/413 489/274/410 494/260/414
f 494/260/414 497/271/415 495/277/416
f 495/277/416 497/271/415 496/272/417
f 497/271/415 494/260/414 489/274/410
f 497/271/415 498/268/418 496/272/417
f 489/274/410 499/273/419 497/271/415
f 497/271/415 499/273/419 498/268/418
f 499/273/419 489/274/410 488/275/409
f 488/275/409 490/276/411 499/273/419
f 500/269/420 498/268/418 499/273/419
f 500/269/420 499/273/419 490/276/411
f 498/268/418 500/269/420 501/270/421
f 502/278/422 501/270/421 500/269/420
f 490/276/411 502/278/422 500/269/420
f 501/270/421 502/278/422 503/279/422
f 502/278/422 490/276/411 504/267/423
f 492/264/424 504/267/423 490/276/411
f 511/261/425 509/257/426 510/262/427
f 511/261/425 510/262/427 508/263/428
f 509/257/426 511/261/425 512/259/429
f 511/261/425 508/263/428 513/266/430
f 514/275/431 512/259/429 511/261/425
f 514/275/431 511/261/425 513/266/430
f 514/275/431 513/266/430 515/276/432
f 512/259/429 514/275/431 516/274/433
f 517/273/434 516/274/433 514/275/431
f 514/275/431 515/276/432 517/273/434
f 520/272/435 519/280/436 518/277/436
f 522/268/437 520/272/438 521/271/439
f 516/274/433 517/273/434 521/271/439
f 521/271/439 517/273/434 522/268/437
f 523/269/440 522/268/437 517/273/434
f 522/268/437 523/269/440 524/270/440
f 517/273/434 515/276/432 523/269/440
f 523/269/440 525/279/441 524/270/440
f 526/281/442 527/282/443 528/283/444
f 528/283/444 529/284/445 526/281/442
f 529/284/445 532/285/446 530/286/447
f 527/282/443 531/287/448 533/288/449
f 528/283/444 527/282/443 533/288/449
f 529/284/445 528/283/444 534/289/450
f 532/285/446 529/284/445 534/289/450
f 535/290/451 528/283/444 533/288/449
f 528/283/444 535/290/451 536/291/452
f 536/291/452 537/292/453 528/283/444
f 537/292/453 534/289/450 528/283/444
f 538/293/454 534/289/450 537/292/453
f 534/289/450 538/293/454 532/285/446
f 533/288/449 539/294/455 535/290/451
f 540/295/456 532/285/446 538/293/454
f 539/294/455 533/288/449 541/296/457
f 533/288/449 531/287/448 541/296/457
f 542/297/458 539/294/455 541/296/457
f 531/287/448 542/297/458 541/296/457
f 539/294/455 542/297/458 543/298/459
f 542/297/458 544/299/460 543/298/459
f 545/300/461 532/285/446 540/295/456
f 544/299/460 542/297/458 546/301/462
f 540/295/456 547/302/463 545/300/461
f 548/303/464 532/285/446 545/300/461
f 547/302/463 548/303/464 545/300/461
f 532/285/446 548/303/464 530/286/447
f 547/302/463 540/295/456 549/304/465
f 546/301/462 550/305/466 544/299/460
f 544/299/460 550/305/466 551/306/467
f 552/307/468 548/303/464 547/302/463
f 550/305/466 553/308/469 551/306/467
f 551/306/467 553/308/469 554/309/470
f 553/308/469 555/310/471 554/309/470
f 556/311/472 549/304/465 555/310/471
f 549/304/465 556/311/472 547/302/463
f 555/310/471 553/308/469 556/311/472
f 557/312/473 547/302/463 556/311/472
f 547/302/463 557/312/473 552/307/468
f 553/308/469 557/312/473 556/311/472
f 557/312/473 553/308/469 558/313/474
f 559/314/475 553/308/469 550/305/466
f 553/308/469 559/314/475 558/313/474
f 550/305/466 560/315/476 559/314/475
f 560/315/476 550/305/466 546/301/462
f 546/301/462 542/297/458 560/315/476
f 542/297/458 561/316/477 560/315/476
f 542/297/458 531/287/448 561/316/477
f 569/261/478 566/257/479 567/262/480
f 568/263/481 569/261/478 567/262/480
f 566/257/479 569/261/478 570/259/482
f 569/261/478 568/263/481 573/266/483
f 571/265/484 573/266/483 568/263/481
f 574/264/485 573/266/483 571/265/484
f 574/264/485 576/276/486 573/266/483
f 576/276/486 574/264/485 575/267/487
f 575/267/487 577/269/488 576/276/486
f 578/275/489 573/266/483 576/276/486
f 573/266/483 578/275/489 569/261/478
f 578/275/489 570/259/482 569/261/478
f 576/276/486 579/273/490 578/275/489
f 579/273/490 576/276/486 577/269/488
f 570/259/482 578/275/489 580/274/491
f 579/273/490 580/274/491 578/275/489
f 577/269/488 581/268/492 579/273/490
f 581/268/492 577/269/488 582/270/493
f 581/268/492 584/271/494 579/273/490
f 580/274/491 579/273/490 584/271/494
f 581/268/492 585/272/495 584/271/494
f 585/272/495 586/277/496 584/271/494
f 584/271/494 586/277/496 580/274/491
f 585/272/495 587/280/497 586/277/496
f 577/269/488 588/278/435 583/279/435
f 577/269/488 575/267/487 588/278/435
f 572/258/498 580/274/491 589/260/499
f 580/274/491 586/277/496 589/260/499
l 52 53
l 53 54
l 55 56
l 111 112
l 112 113
l 114 115
l 170 171
l 170 172
l 218 219
l 227 228
l 226 228
l 260 261
l 261 262
l 273 274
l 274 275
l 296 297
l 297 298
l 562 563
l 563 564
l 448 449
l 452 453
l 480 481
l 456 457
l 456 458
l 506 507
l 564 565
l 454 455
l 450 451
l 505 506
