# Blender 5.1.2
# www.blender.org
mtllib top.mtl
o logo
v -0.321982 0.035078 -0.212640
v -0.321982 0.035078 0.189302
v -0.321982 0.040014 -0.212640
v -0.321982 0.040014 0.189302
v 0.319828 0.040014 -0.213938
v 0.319828 0.040014 -0.114098
v 0.319828 0.035078 -0.213938
v 0.319828 0.035078 -0.114098
v 0.319115 0.040014 -0.063533
v 0.319115 0.040014 0.213938
v 0.319115 0.035078 -0.063533
v 0.319115 0.035078 0.213938
v 0.319828 0.035078 -0.213938
v 0.016200 0.035078 -0.213938
v 0.319828 0.040014 -0.213938
v 0.016200 0.040014 -0.213938
v -0.017641 0.035078 -0.212640
v -0.321982 0.035078 -0.212640
v -0.017641 0.040014 -0.212640
v -0.321982 0.040014 -0.212640
v -0.216731 0.035078 0.189302
v -0.321982 0.040014 0.189302
v -0.321982 0.035078 0.189302
v -0.216731 0.040014 0.189302
v -0.017641 0.040014 0.186711
v -0.117186 0.035078 0.186711
v -0.017641 0.035078 0.186711
v -0.117186 0.040014 0.186711
v -0.117186 0.035078 -0.109235
v -0.117186 0.035078 0.186711
v -0.117186 0.040014 -0.109235
v -0.117186 0.040014 0.186711
v 0.319115 0.035078 0.213938
v 0.016200 0.040014 0.155914
v 0.016200 0.035078 0.155914
v 0.319115 0.040014 0.213938
v 0.121450 0.040014 -0.114098
v 0.121450 0.040014 0.074229
v 0.121450 0.035078 -0.114098
v 0.121450 0.035078 0.074229
v 0.319115 0.040014 -0.063533
v 0.168743 0.035078 -0.063533
v 0.168743 0.040014 -0.063533
v 0.319115 0.035078 -0.063533
v 0.166636 0.035078 0.039547
v 0.218889 0.035078 0.039547
v 0.218889 0.040014 0.039547
v 0.166636 0.040014 0.039547
v 0.016200 0.035078 -0.213938
v 0.016200 0.035078 0.155914
v 0.016200 0.040014 -0.213938
v 0.016200 0.040014 0.155914
v 0.218889 0.040014 0.093356
v 0.016200 0.040014 0.155914
v 0.319115 0.040014 0.213938
v 0.319115 0.040014 -0.063533
v 0.121450 0.040014 0.074229
v 0.218889 0.040014 0.039547
v 0.168743 0.040014 -0.063533
v 0.166636 0.040014 0.039547
v 0.121450 0.040014 -0.114098
v 0.016200 0.040014 -0.213938
v 0.319828 0.040014 -0.213938
v 0.319828 0.040014 -0.114098
v -0.321982 0.040014 -0.212640
v -0.321982 0.040014 0.189302
v -0.216731 0.040014 -0.109235
v -0.216731 0.040014 0.189302
v -0.017641 0.040014 -0.212640
v -0.117186 0.040014 -0.109235
v -0.017641 0.040014 0.186711
v -0.117186 0.040014 0.186711
v 0.121450 0.040014 0.074229
v 0.218889 0.040014 0.093356
v 0.218889 0.035078 0.093356
v 0.121450 0.035078 0.074229
v -0.017641 0.040014 -0.212640
v -0.017641 0.040014 0.186711
v -0.017641 0.035078 -0.212640
v -0.017641 0.035078 0.186711
v -0.117186 0.040014 -0.109235
v -0.216731 0.035078 -0.109235
v -0.117186 0.035078 -0.109235
v -0.216731 0.040014 -0.109235
v 0.319828 0.040014 -0.114098
v 0.121450 0.040014 -0.114098
v 0.319828 0.035078 -0.114098
v 0.121450 0.035078 -0.114098
v 0.166636 0.040014 0.039547
v 0.168743 0.040014 -0.063533
v 0.168743 0.035078 -0.063533
v 0.166636 0.035078 0.039547
v 0.218889 0.040014 0.093356
v 0.218889 0.040014 0.039547
v 0.218889 0.035078 0.039547
v 0.218889 0.035078 0.093356
v -0.216731 0.040014 -0.109235
v -0.216731 0.040014 0.189302
v -0.216731 0.035078 -0.109235
v -0.216731 0.035078 0.189302
vn -1.0000 -0.0000 0.0005
vn 1.0000 -0.0000 0.0005
vn 0.0005 -0.0000 -1.0000
vn 0.0006 -0.0000 -1.0000
vn 0.0005 -0.0000 1.0000
vn -0.1881 -0.0000 0.9821
vn 1.0000 -0.0000 0.0006
vn -1.0000 -0.0000 0.0006
vn 0.0005 1.0000 0.0005
vn 0.1926 -0.0000 -0.9813
vn -0.9998 -0.0000 -0.0204
vt 0.000000 0.000000
s 1
f 1/1/1 2/1/1 3/1/1
f 3/1/1 2/1/1 4/1/1
f 5/1/2 6/1/2 7/1/2
f 7/1/2 6/1/2 8/1/2
f 9/1/2 10/1/2 11/1/2
f 11/1/2 10/1/2 12/1/2
f 13/1/3 14/1/3 15/1/3
f 16/1/3 15/1/3 14/1/3
f 17/1/4 18/1/3 19/1/3
f 20/1/4 19/1/3 18/1/3
f 21/1/5 22/1/5 23/1/5
f 22/1/5 21/1/5 24/1/5
f 25/1/5 26/1/5 27/1/5
f 26/1/5 25/1/5 28/1/5
f 29/1/1 30/1/1 31/1/1
f 31/1/1 30/1/1 32/1/1
f 33/1/6 34/1/6 35/1/6
f 34/1/6 33/1/6 36/1/6
f 37/1/7 38/1/2 39/1/2
f 39/1/2 38/1/2 40/1/7
f 41/1/3 42/1/3 43/1/4
f 42/1/3 41/1/3 44/1/3
f 45/1/5 46/1/5 47/1/5
f 45/1/5 47/1/5 48/1/5
f 49/1/1 50/1/1 51/1/1
f 51/1/1 50/1/1 52/1/8
f 53/1/9 54/1/9 55/1/9
f 56/1/9 53/1/9 55/1/9
f 54/1/9 53/1/9 57/1/9
f 53/1/9 56/1/9 58/1/9
f 58/1/9 56/1/9 59/1/9
f 58/1/9 59/1/9 60/1/9
f 54/1/9 57/1/9 61/1/9
f 62/1/9 54/1/9 61/1/9
f 63/1/9 62/1/9 61/1/9
f 63/1/9 61/1/9 64/1/9
f 65/1/9 66/1/9 67/1/9
f 66/1/9 68/1/9 67/1/9
f 69/1/9 65/1/9 67/1/9
f 69/1/9 67/1/9 70/1/9
f 71/1/9 69/1/9 70/1/9
f 71/1/9 70/1/9 72/1/9
f 73/1/10 74/1/10 75/1/10
f 73/1/10 75/1/10 76/1/10
f 77/1/2 78/1/2 79/1/2
f 79/1/2 78/1/2 80/1/2
f 81/1/5 82/1/5 83/1/5
f 82/1/5 81/1/5 84/1/5
f 85/1/5 86/1/5 87/1/5
f 88/1/5 87/1/5 86/1/5
f 89/1/11 90/1/11 91/1/11
f 91/1/11 92/1/11 89/1/11
f 93/1/1 94/1/1 95/1/1
f 95/1/1 96/1/1 93/1/1
f 97/1/7 98/1/2 99/1/2
f 99/1/2 98/1/2 100/1/7
o screen
v -0.775159 0.010575 -0.419489
v -0.686797 0.010575 -0.484738
v -0.686797 -0.010575 -0.484738
v -0.775159 -0.010575 -0.419489
v 0.691222 0.010575 -0.484738
v 0.779585 0.010575 -0.419489
v 0.779585 -0.010575 -0.419489
v 0.691222 -0.010575 -0.484738
v 0.779585 0.010575 0.419489
v 0.691222 -0.010575 0.484738
v 0.779585 -0.010575 0.419489
v 0.691222 0.010575 0.484738
v -0.775159 -0.010575 0.419489
v -0.686797 -0.010575 0.484738
v -0.686797 0.010575 0.484738
v -0.775159 0.010575 0.419489
v -0.775159 0.010575 0.419489
v -0.775159 0.010575 -0.419489
v -0.775159 -0.010575 -0.419489
v -0.775159 -0.010575 0.419489
v 0.779585 0.010575 -0.419489
v 0.779585 -0.010575 0.419489
v 0.779585 -0.010575 -0.419489
v 0.779585 0.010575 0.419489
v -0.686797 0.010575 -0.484738
v 0.691222 0.010575 -0.484738
v 0.691222 -0.010575 -0.484738
v -0.686797 -0.010575 -0.484738
v 0.691222 0.010575 0.484738
v -0.686797 -0.010575 0.484738
v 0.691222 -0.010575 0.484738
v -0.686797 0.010575 0.484738
v -0.686797 -0.010575 -0.484738
v -0.686797 -0.010575 0.484738
v -0.775159 -0.010575 -0.419489
v -0.775159 -0.010575 0.419489
v 0.691222 -0.010575 -0.484738
v 0.691222 -0.010575 0.484738
v 0.779585 -0.010575 -0.419489
v 0.779585 -0.010575 0.419489
vn -0.5940 -0.0000 -0.8044
vn -0.5938 0.0004 -0.8046
vn 0.5937 0.0002 -0.8047
vn 0.5940 -0.0000 -0.8044
vn 0.5935 0.0006 -0.8048
vn 0.5937 0.0003 0.8047
vn 0.5939 0.0005 0.8045
vn 0.5940 -0.0000 0.8044
vn 0.5935 0.0006 0.8048
vn -0.5937 0.0003 0.8047
vn -0.5938 0.0004 0.8046
vn -0.5940 -0.0000 0.8044
vn -1.0000 0.0003 0.0006
vn -1.0000 0.0005 0.0005
vn 1.0000 0.0004 0.0003
vn 1.0000 0.0007 0.0001
vn 1.0000 0.0005 0.0005
vn 0.0003 0.0004 -1.0000
vn 0.0005 0.0005 -1.0000
vn 0.0001 0.0007 -1.0000
vn 0.0006 0.0003 1.0000
vn 0.0005 0.0005 1.0000
vn 0.0003 -1.0000 0.0006
vn 0.0005 -1.0000 0.0001
vn 0.0002 -1.0000 0.0004
vn 0.0005 -1.0000 0.0005
vn -0.0000 -1.0000 0.0005
vn 0.0004 -1.0000 0.0002
vt 0.000000 0.000000
s 1
f 101/2/12 102/2/13 103/2/12
f 101/2/12 103/2/12 104/2/12
f 105/2/14 106/2/15 107/2/14
f 105/2/14 107/2/14 108/2/16
f 109/2/17 110/2/18 111/2/19
f 110/2/18 109/2/17 112/2/20
f 113/2/21 114/2/22 115/2/23
f 113/2/21 115/2/23 116/2/23
f 117/2/24 118/2/25 119/2/24
f 119/2/24 120/2/25 117/2/24
f 121/2/26 122/2/27 123/2/28
f 122/2/27 121/2/26 124/2/28
f 125/2/29 126/2/30 127/2/31
f 125/2/29 127/2/31 128/2/30
f 129/2/32 130/2/32 131/2/33
f 130/2/32 129/2/32 132/2/33
f 133/2/34 134/2/35 135/2/36
f 135/2/36 134/2/35 136/2/37
f 137/2/38 134/2/35 133/2/34
f 137/2/38 138/2/37 134/2/35
f 139/2/39 138/2/37 137/2/38
f 138/2/37 139/2/39 140/2/37
o top
v 0.735761 0.034484 -0.521885
v 0.735761 0.034484 0.526437
v 0.829835 0.034484 -0.451329
v 0.829835 0.034484 0.455881
v -0.731336 0.034484 -0.521885
v -0.731336 0.034484 0.526437
v -0.825409 0.034484 -0.451329
v -0.825409 0.034484 0.455881
v -0.686796 -0.034484 0.487014
v -0.760005 -0.034482 0.544647
v -0.775158 -0.034484 0.421765
v -0.857755 -0.034482 0.471334
v 0.764431 -0.034482 0.544647
v -0.775158 -0.034484 -0.417213
v 0.691222 -0.034484 0.487014
v -0.857755 -0.034482 -0.471334
v 0.779585 -0.034484 0.421765
v -0.760005 -0.034482 -0.544647
v 0.862181 -0.034482 0.471334
v -0.686796 -0.034484 -0.482462
v 0.779585 -0.034484 -0.417213
v 0.764431 -0.034482 -0.544647
v 0.862181 -0.034482 -0.471334
v 0.691222 -0.034484 -0.482462
v -0.760005 -0.034482 0.544647
v 0.764431 -0.034482 0.544647
v 0.735761 0.034484 0.526437
v 0.829835 0.034484 0.455881
v -0.731336 0.034484 0.526437
v 0.862181 -0.034482 0.471334
v -0.825409 0.034484 0.455881
v 0.829835 0.034484 -0.451329
v -0.857755 -0.034482 0.471334
v 0.862181 -0.034482 -0.471334
v -0.825409 0.034484 -0.451329
v 0.764431 -0.034482 -0.544647
v -0.857755 -0.034482 -0.471334
v 0.735761 0.034484 -0.521885
v -0.760005 -0.034482 -0.544647
v -0.731336 0.034484 -0.521885
v -0.686796 -0.034484 -0.482462
v 0.691222 -0.034484 -0.482462
v 0.691222 -0.031150 -0.482462
v 0.779585 -0.031150 -0.417213
v -0.686796 -0.031150 -0.482462
v 0.779585 -0.034484 -0.417213
v -0.775158 -0.034484 -0.417213
v 0.779585 -0.031150 0.421765
v -0.775158 -0.031150 -0.417213
v 0.779585 -0.034484 0.421765
v -0.775158 -0.034484 0.421765
v 0.691222 -0.031150 0.487014
v -0.775158 -0.031150 0.421765
v 0.691222 -0.034484 0.487014
v -0.686796 -0.034484 0.487014
v -0.686796 -0.031150 0.487014
vn 0.0003 1.0000 -0.0003
vn -0.0000 1.0000 -0.0005
vn -0.0000 1.0000 -0.0000
vn -0.0000 -1.0000 -0.0000
vn -0.0000 -1.0000 -0.0005
vn 0.0003 -1.0000 -0.0004
vn 0.0004 -1.0000 -0.0003
vn 0.0005 -1.0000 -0.0001
vn 0.0428 0.2165 0.9753
vn -0.0488 0.2220 0.9738
vn 0.0212 0.2287 0.9733
vn 0.5236 0.4173 0.7428
vn 0.5683 0.4277 0.7029
vn 0.5000 0.4562 0.7361
vn 0.0492 0.2245 0.9732
vn -0.0312 0.2408 0.9701
vn -0.0213 0.2283 0.9734
vn 0.5424 0.4697 0.6966
vn 0.5219 0.4088 0.7487
vn 0.5327 0.4026 0.7444
vn -0.5234 0.4173 0.7429
vn -0.5008 0.4554 0.7360
vn -0.5687 0.4277 0.7026
vn 0.9060 0.4216 0.0390
vn 0.9164 0.4003 0.0022
vn 0.8908 0.4543 0.0040
vn -0.5423 0.4688 0.6972
vn -0.5325 0.4025 0.7446
vn -0.5221 0.4087 0.7486
vn 0.8983 0.4383 -0.0295
vn 0.8945 0.4470 -0.0004
vn 0.9211 0.3893 -0.0062
vn -0.9060 0.4214 0.0393
vn -0.8909 0.4542 0.0041
vn -0.9165 0.4001 0.0024
vn 0.5308 0.5022 -0.6827
vn 0.5159 0.4344 -0.7383
vn 0.5162 0.4508 -0.7282
vn -0.8983 0.4384 -0.0293
vn -0.9212 0.3891 -0.0064
vn -0.8946 0.4469 -0.0005
vn 0.5024 0.4552 -0.7351
vn 0.4931 0.4918 -0.7176
vn 0.5558 0.4620 -0.6911
vn -0.5157 0.4343 -0.7385
vn -0.5308 0.5014 -0.6833
vn -0.5163 0.4507 -0.7282
vn 0.0393 0.2792 -0.9594
vn 0.0163 0.2887 -0.9573
vn -0.0446 0.2841 -0.9578
vn -0.5554 0.4623 -0.6912
vn -0.4938 0.4911 -0.7176
vn -0.5022 0.4552 -0.7352
vn -0.0291 0.3044 -0.9521
vn 0.0449 0.2863 -0.9571
vn -0.0163 0.2891 -0.9572
vn 0.0238 -0.0012 0.9997
vn -0.0000 0.0235 0.9997
vn 0.0009 -0.0235 0.9997
vn -0.5749 0.0007 0.8182
vn -0.6361 -0.0029 0.7716
vn -0.5749 0.0009 0.8182
vn 0.0003 0.0239 0.9997
vn -0.0235 -0.0000 0.9997
vn -0.0009 -0.0239 0.9997
vn -0.5924 -0.0535 0.8039
vn -0.5749 -0.0000 0.8182
vn -0.5932 0.0535 0.8033
vn 0.6363 0.0016 0.7714
vn 0.5747 0.0003 0.8184
vn 0.5747 0.0001 0.8184
vn -0.9985 -0.0000 -0.0543
vn -0.9986 0.0010 0.0535
vn -0.9986 -0.0000 0.0535
vn 0.5934 0.0537 0.8031
vn 0.5747 0.0011 0.8184
vn 0.5932 -0.0537 0.8033
vn -0.9985 0.0003 -0.0543
vn 0.9986 -0.0000 0.0537
vn 0.9985 -0.0000 -0.0544
vn 0.9986 0.0003 0.0537
vn -0.5750 0.0011 -0.8181
vn -0.5931 -0.0543 -0.8033
vn -0.5934 0.0543 -0.8031
vn 0.9985 0.0010 -0.0544
vn -0.5750 0.0002 -0.8182
vn -0.6368 0.0016 -0.7710
vn -0.5750 0.0003 -0.8182
vn 0.5924 -0.0544 -0.8038
vn 0.5747 -0.0000 -0.8183
vn 0.5931 0.0544 -0.8033
vn 0.0238 -0.0000 -0.9997
vn 0.0009 -0.0234 -0.9997
vn -0.0003 0.0234 -0.9997
vn 0.6369 -0.0029 -0.7710
vn 0.5747 0.0009 -0.8183
vn 0.5747 0.0007 -0.8183
vn -0.0009 -0.0238 -0.9997
vn -0.0234 -0.0012 -0.9997
vn -0.0000 0.0238 -0.9997
vt 0.000000 0.000000
s 1
f 141/3/40 142/3/41 143/3/42
f 143/3/42 142/3/41 144/3/40
f 145/3/42 142/3/41 141/3/40
f 145/3/42 146/3/42 142/3/41
f 147/3/42 146/3/42 145/3/42
f 146/3/42 147/3/42 148/3/40
f 149/3/43 150/3/43 151/3/43
f 150/3/43 152/3/43 151/3/43
f 153/3/43 150/3/43 149/3/43
f 152/3/43 154/3/44 151/3/43
f 153/3/43 149/3/43 155/3/43
f 154/3/44 152/3/43 156/3/43
f 157/3/43 153/3/43 155/3/43
f 158/3/43 154/3/44 156/3/43
f 153/3/43 157/3/43 159/3/45
f 154/3/44 158/3/43 160/3/43
f 161/3/46 159/3/45 157/3/43
f 162/3/47 160/3/43 158/3/43
f 159/3/45 161/3/46 163/3/45
f 161/3/46 162/3/47 163/3/45
f 160/3/43 162/3/47 164/3/46
f 162/3/47 161/3/46 164/3/46
f 165/3/48 166/3/49 167/3/50
f 168/3/51 167/3/52 166/3/53
f 165/3/54 167/3/55 169/3/56
f 166/3/57 170/3/58 168/3/59
f 171/3/60 165/3/61 169/3/62
f 172/3/63 168/3/64 170/3/65
f 165/3/66 171/3/67 173/3/68
f 170/3/69 174/3/70 172/3/71
f 175/3/72 173/3/73 171/3/74
f 176/3/75 172/3/76 174/3/77
f 173/3/78 175/3/79 177/3/80
f 172/3/81 176/3/82 178/3/83
f 175/3/84 179/3/85 177/3/86
f 179/3/87 178/3/88 176/3/89
f 180/3/90 179/3/91 175/3/92
f 178/3/93 179/3/94 180/3/95
f 181/3/96 182/3/97 183/3/98
f 182/3/99 184/3/100 183/3/101
f 181/3/102 183/3/103 185/3/104
f 184/3/105 182/3/106 186/3/107
f 187/3/108 181/3/109 185/3/110
f 188/3/111 184/3/112 186/3/113
f 187/3/114 185/3/115 189/3/116
f 186/3/113 190/3/117 188/3/111
f 189/3/118 191/3/119 187/3/120
f 192/3/121 188/3/122 190/3/123
f 191/3/119 189/3/118 193/3/124
f 192/3/125 190/3/126 194/3/127
f 193/3/128 195/3/129 191/3/130
f 196/3/131 192/3/132 194/3/133
f 193/3/134 196/3/135 195/3/136
f 196/3/137 194/3/138 195/3/139
